<?xml version="1.0" encoding="UTF-8"?>
<!--Generator: Apple Native CoreSVG 175.5-->
<!DOCTYPE svg
PUBLIC "-//W3C//DTD SVG 1.1//EN"
       "http://www.w3.org/Graphics/SVG/1.1/DTD/svg11.dtd">
<svg version="1.1" xmlns="http://www.w3.org/2000/svg" xmlns:xlink="http://www.w3.org/1999/xlink" width="3300" height="2200">
 <!--glyph: "uni100100.medium", point size: 100.0, font version: "18.0d10e1", template writer version: "90"-->
 <g id="Notes">
  <rect height="2200" id="artboard" style="fill:white;opacity:1" width="3300" x="0" y="0"/>
  <line style="fill:none;stroke:black;opacity:1;stroke-width:0.5;" x1="263" x2="3036" y1="292" y2="292"/>
  <text style="stroke:none;fill:black;font-family:sans-serif;font-size:13;font-weight:bold;" transform="matrix(1 0 0 1 263 322)">Weight/Scale Variations</text>
  <text style="stroke:none;fill:black;font-family:sans-serif;font-size:13;text-anchor:middle;" transform="matrix(1 0 0 1 559.711 322)">Ultralight</text>
  <text style="stroke:none;fill:black;font-family:sans-serif;font-size:13;text-anchor:middle;" transform="matrix(1 0 0 1 856.422 322)">Thin</text>
  <text style="stroke:none;fill:black;font-family:sans-serif;font-size:13;text-anchor:middle;" transform="matrix(1 0 0 1 1153.13 322)">Light</text>
  <text style="stroke:none;fill:black;font-family:sans-serif;font-size:13;text-anchor:middle;" transform="matrix(1 0 0 1 1449.84 322)">Regular</text>
  <text style="stroke:none;fill:black;font-family:sans-serif;font-size:13;text-anchor:middle;" transform="matrix(1 0 0 1 1746.56 322)">Medium</text>
  <text style="stroke:none;fill:black;font-family:sans-serif;font-size:13;text-anchor:middle;" transform="matrix(1 0 0 1 2043.27 322)">Semibold</text>
  <text style="stroke:none;fill:black;font-family:sans-serif;font-size:13;text-anchor:middle;" transform="matrix(1 0 0 1 2339.98 322)">Bold</text>
  <text style="stroke:none;fill:black;font-family:sans-serif;font-size:13;text-anchor:middle;" transform="matrix(1 0 0 1 2636.69 322)">Heavy</text>
  <text style="stroke:none;fill:black;font-family:sans-serif;font-size:13;text-anchor:middle;" transform="matrix(1 0 0 1 2933.4 322)">Black</text>
  <line style="fill:none;stroke:black;opacity:1;stroke-width:0.5;" x1="263" x2="3036" y1="1903" y2="1903"/>
  <g transform="matrix(1 0 0 1 263 1933)">
   <path d="M9.24805 0.830078C13.5547 0.830078 17.1387-2.74414 17.1387-7.05078C17.1387-11.3574 13.5449-14.9316 9.23828-14.9316C4.94141-14.9316 1.36719-11.3574 1.36719-7.05078C1.36719-2.74414 4.95117 0.830078 9.24805 0.830078ZM9.24805-0.654297C5.70312-0.654297 2.87109-3.49609 2.87109-7.05078C2.87109-10.6055 5.69336-13.4473 9.23828-13.4473C12.793-13.4473 15.6445-10.6055 15.6445-7.05078C15.6445-3.49609 12.8027-0.654297 9.24805-0.654297ZM5.6543-7.05078C5.6543-6.62109 5.95703-6.32812 6.40625-6.32812L8.50586-6.32812L8.50586-4.20898C8.50586-3.76953 8.79883-3.4668 9.22852-3.4668C9.67773-3.4668 9.9707-3.76953 9.9707-4.20898L9.9707-6.32812L12.0898-6.32812C12.5293-6.32812 12.832-6.62109 12.832-7.05078C12.832-7.49023 12.5293-7.79297 12.0898-7.79297L9.9707-7.79297L9.9707-9.90234C9.9707-10.3516 9.67773-10.6543 9.22852-10.6543C8.79883-10.6543 8.50586-10.3516 8.50586-9.90234L8.50586-7.79297L6.40625-7.79297C5.95703-7.79297 5.6543-7.49023 5.6543-7.05078Z"/>
  </g>
  <g transform="matrix(1 0 0 1 281.867 1933)">
   <path d="M11.709 2.91016C17.1582 2.91016 21.6699-1.61133 21.6699-7.05078C21.6699-12.5 17.1484-17.0117 11.6992-17.0117C6.25977-17.0117 1.74805-12.5 1.74805-7.05078C1.74805-1.61133 6.26953 2.91016 11.709 2.91016ZM11.709 1.25C7.09961 1.25 3.41797-2.44141 3.41797-7.05078C3.41797-11.6602 7.08984-15.3516 11.6992-15.3516C16.3086-15.3516 20.0098-11.6602 20.0098-7.05078C20.0098-2.44141 16.3184 1.25 11.709 1.25ZM7.17773-7.05078C7.17773-6.57227 7.50977-6.25 8.00781-6.25L10.8789-6.25L10.8789-3.36914C10.8789-2.88086 11.2109-2.53906 11.6895-2.53906C12.1777-2.53906 12.5195-2.87109 12.5195-3.36914L12.5195-6.25L15.4004-6.25C15.8887-6.25 16.2305-6.57227 16.2305-7.05078C16.2305-7.53906 15.8887-7.88086 15.4004-7.88086L12.5195-7.88086L12.5195-10.752C12.5195-11.25 12.1777-11.5918 11.6895-11.5918C11.2109-11.5918 10.8789-11.25 10.8789-10.752L10.8789-7.88086L8.00781-7.88086C7.50977-7.88086 7.17773-7.53906 7.17773-7.05078Z"/>
  </g>
  <g transform="matrix(1 0 0 1 305.646 1933)">
   <path d="M14.9707 5.66406C21.9336 5.66406 27.6953-0.0976562 27.6953-7.05078C27.6953-14.0137 21.9238-19.7754 14.9609-19.7754C8.00781-19.7754 2.25586-14.0137 2.25586-7.05078C2.25586-0.0976562 8.01758 5.66406 14.9707 5.66406ZM14.9707 3.84766C8.93555 3.84766 4.08203-1.01562 4.08203-7.05078C4.08203-13.0957 8.92578-17.9492 14.9609-17.9492C21.0059-17.9492 25.8691-13.0957 25.8691-7.05078C25.8691-1.01562 21.0156 3.84766 14.9707 3.84766ZM9.19922-7.05078C9.19922-6.5332 9.57031-6.17188 10.1172-6.17188L14.0625-6.17188L14.0625-2.2168C14.0625-1.67969 14.4336-1.29883 14.9512-1.29883C15.4883-1.29883 15.8594-1.66992 15.8594-2.2168L15.8594-6.17188L19.8145-6.17188C20.3516-6.17188 20.7324-6.5332 20.7324-7.05078C20.7324-7.59766 20.3613-7.96875 19.8145-7.96875L15.8594-7.96875L15.8594-11.9141C15.8594-12.4609 15.4883-12.8418 14.9512-12.8418C14.4336-12.8418 14.0625-12.4609 14.0625-11.9141L14.0625-7.96875L10.1172-7.96875C9.57031-7.96875 9.19922-7.59766 9.19922-7.05078Z"/>
  </g>
  <text style="stroke:none;fill:black;font-family:sans-serif;font-size:13;font-weight:bold;" transform="matrix(1 0 0 1 263 1953)">Design Variations</text>
  <text style="stroke:none;fill:black;font-family:sans-serif;font-size:13;" transform="matrix(1 0 0 1 263 1971)">Symbols are supported in up to nine weights and three scales.</text>
  <text style="stroke:none;fill:black;font-family:sans-serif;font-size:13;" transform="matrix(1 0 0 1 263 1989)">For optimal layout with text and other symbols, vertically align</text>
  <text style="stroke:none;fill:black;font-family:sans-serif;font-size:13;" transform="matrix(1 0 0 1 263 2007)">symbols with the adjacent text.</text>
  <line style="fill:none;stroke:#00AEEF;stroke-width:0.5;opacity:1.0;" x1="776" x2="776" y1="1919" y2="1933"/>
  <g transform="matrix(1 0 0 1 776 1933)">
   <path d="M3.31055 0.15625C3.82812 0.15625 4.08203-0.0390625 4.26758-0.585938L5.52734-4.0332L11.2891-4.0332L12.5488-0.585938C12.7344-0.0390625 12.9883 0.15625 13.4961 0.15625C14.0137 0.15625 14.3457-0.15625 14.3457-0.644531C14.3457-0.810547 14.3164-0.966797 14.2383-1.17188L9.6582-13.3691C9.43359-13.9648 9.0332-14.2676 8.4082-14.2676C7.80273-14.2676 7.39258-13.9746 7.17773-13.3789L2.59766-1.16211C2.51953-0.957031 2.49023-0.800781 2.49023-0.634766C2.49023-0.146484 2.80273 0.15625 3.31055 0.15625ZM6.00586-5.51758L8.37891-12.0898L8.42773-12.0898L10.8008-5.51758Z"/>
  </g>
  <line style="fill:none;stroke:#00AEEF;stroke-width:0.5;opacity:1.0;" x1="793.197" x2="793.197" y1="1919" y2="1933"/>
  <text style="stroke:none;fill:black;font-family:sans-serif;font-size:13;font-weight:bold;" transform="matrix(1 0 0 1 776 1953)">Margins</text>
  <text style="stroke:none;fill:black;font-family:sans-serif;font-size:13;" transform="matrix(1 0 0 1 776 1971)">Leading and trailing margins on the left and right side of each symbol</text>
  <text style="stroke:none;fill:black;font-family:sans-serif;font-size:13;" transform="matrix(1 0 0 1 776 1989)">can be adjusted by modifying the x-location of the margin guidelines.</text>
  <text style="stroke:none;fill:black;font-family:sans-serif;font-size:13;" transform="matrix(1 0 0 1 776 2007)">Modifications are automatically applied proportionally to all</text>
  <text style="stroke:none;fill:black;font-family:sans-serif;font-size:13;" transform="matrix(1 0 0 1 776 2025)">scales and weights.</text>
  <g transform="matrix(1 0 0 1 1289 1933)">
   <path d="M2.8418 1.86523L4.54102 3.57422C5.40039 4.44336 6.38672 4.38477 7.31445 3.35938L18.0078-8.42773L17.041-9.4043L6.42578 2.27539C6.07422 2.67578 5.74219 2.77344 5.27344 2.30469L4.10156 1.14258C3.63281 0.683594 3.74023 0.341797 4.14062-0.0195312L15.6152-10.8203L14.6387-11.7871L3.04688-0.898438C2.06055 0.0195312 1.98242 0.996094 2.8418 1.86523ZM9.25781-16.3281C8.83789-15.918 8.80859-15.3418 9.04297-14.9512C9.27734-14.5898 9.73633-14.3555 10.3809-14.5215C11.8457-14.8633 13.3691-14.9219 14.7949-13.9844L14.209-12.5293C13.8672-11.6992 14.043-11.1133 14.5801-10.5664L16.875-8.25195C17.3633-7.76367 17.7734-7.74414 18.3398-7.8418L19.4043-8.03711L20.0684-7.36328L20.0293-6.80664C19.9902-6.30859 20.1172-5.92773 20.6055-5.44922L21.3672-4.70703C21.8457-4.22852 22.4609-4.19922 22.9297-4.66797L25.8398-7.58789C26.3086-8.05664 26.2891-8.65234 25.8105-9.13086L25.0391-9.89258C24.5605-10.3711 24.1895-10.5273 23.7109-10.4883L23.1348-10.4395L22.4902-11.0742L22.7344-12.1973C22.8613-12.7637 22.7051-13.2031 22.1191-13.7891L19.9219-15.9766C16.582-19.2969 12.1484-19.2188 9.25781-16.3281ZM10.752-15.957C13.1836-17.7344 16.4746-17.4316 18.7012-15.2051L21.1328-12.793C21.3672-12.5586 21.4062-12.373 21.3379-12.0312L21.0156-10.5469L22.5195-9.0625L23.5059-9.12109C23.7598-9.13086 23.8379-9.11133 24.0332-8.91602L24.6094-8.33984L22.168-5.89844L21.5918-6.47461C21.3965-6.66992 21.3672-6.74805 21.377-7.01172L21.4453-7.98828L19.9512-9.47266L18.4277-9.21875C18.1055-9.15039 17.959-9.17969 17.7148-9.41406L15.7129-11.416C15.459-11.6504 15.4297-11.8164 15.5859-12.1875L16.4648-14.2773C14.9023-15.7324 12.8711-16.3574 10.8398-15.7617C10.6836-15.7227 10.625-15.8496 10.752-15.957Z"/>
  </g>
  <text style="stroke:none;fill:black;font-family:sans-serif;font-size:13;font-weight:bold;" transform="matrix(1 0 0 1 1289 1953)">Exporting</text>
  <text style="stroke:none;fill:black;font-family:sans-serif;font-size:13;" transform="matrix(1 0 0 1 1289 1971)">Symbols should be outlined when exporting to ensure the</text>
  <text style="stroke:none;fill:black;font-family:sans-serif;font-size:13;" transform="matrix(1 0 0 1 1289 1989)">design is preserved when submitting to Xcode.</text>
  <text id="template-version" style="stroke:none;fill:black;font-family:sans-serif;font-size:13;text-anchor:end;" transform="matrix(1 0 0 1 3036 1933)">Template v.2.0</text>
  <text style="stroke:none;fill:black;font-family:sans-serif;font-size:13;text-anchor:end;" transform="matrix(1 0 0 1 3036 1951)">Requires Xcode 12 or greater</text>
  <text id="descriptive-name" style="stroke:none;fill:black;font-family:sans-serif;font-size:13;text-anchor:end;" transform="matrix(1 0 0 1 3036 1969)">Generated from chevron.down.square</text>
  <text style="stroke:none;fill:black;font-family:sans-serif;font-size:13;text-anchor:end;" transform="matrix(1 0 0 1 3036 1987)">Typeset at 100 points</text>
  <text style="stroke:none;fill:black;font-family:sans-serif;font-size:13;" transform="matrix(1 0 0 1 263 726)">Small</text>
  <text style="stroke:none;fill:black;font-family:sans-serif;font-size:13;" transform="matrix(1 0 0 1 263 1156)">Medium</text>
  <text style="stroke:none;fill:black;font-family:sans-serif;font-size:13;" transform="matrix(1 0 0 1 263 1586)">Large</text>
 </g>
 <g id="Guides">
  <g id="H-reference" style="fill:#27AAE1;stroke:none;" transform="matrix(1 0 0 1 339 696)">
   <path d="M0.993654 0L3.63775 0L29.3281-67.1323L30.0303-67.1323L30.0303-70.459L28.1226-70.459ZM11.6885-24.4799L46.9815-24.4799L46.2315-26.7285L12.4385-26.7285ZM55.1196 0L57.7637 0L30.6382-70.459L29.4326-70.459L29.4326-67.1323Z"/>
  </g>
  <line id="Baseline-S" style="fill:none;stroke:#27AAE1;opacity:1;stroke-width:0.5;" x1="263" x2="3036" y1="696" y2="696"/>
  <line id="Capline-S" style="fill:none;stroke:#27AAE1;opacity:1;stroke-width:0.5;" x1="263" x2="3036" y1="625.541" y2="625.541"/>
  <g id="H-reference" style="fill:#27AAE1;stroke:none;" transform="matrix(1 0 0 1 339 1126)">
   <path d="M0.993654 0L3.63775 0L29.3281-67.1323L30.0303-67.1323L30.0303-70.459L28.1226-70.459ZM11.6885-24.4799L46.9815-24.4799L46.2315-26.7285L12.4385-26.7285ZM55.1196 0L57.7637 0L30.6382-70.459L29.4326-70.459L29.4326-67.1323Z"/>
  </g>
  <line id="Baseline-M" style="fill:none;stroke:#27AAE1;opacity:1;stroke-width:0.5;" x1="263" x2="3036" y1="1126" y2="1126"/>
  <line id="Capline-M" style="fill:none;stroke:#27AAE1;opacity:1;stroke-width:0.5;" x1="263" x2="3036" y1="1055.54" y2="1055.54"/>
  <g id="H-reference" style="fill:#27AAE1;stroke:none;" transform="matrix(1 0 0 1 339 1556)">
   <path d="M0.993654 0L3.63775 0L29.3281-67.1323L30.0303-67.1323L30.0303-70.459L28.1226-70.459ZM11.6885-24.4799L46.9815-24.4799L46.2315-26.7285L12.4385-26.7285ZM55.1196 0L57.7637 0L30.6382-70.459L29.4326-70.459L29.4326-67.1323Z"/>
  </g>
  <line id="Baseline-L" style="fill:none;stroke:#27AAE1;opacity:1;stroke-width:0.5;" x1="263" x2="3036" y1="1556" y2="1556"/>
  <line id="Capline-L" style="fill:none;stroke:#27AAE1;opacity:1;stroke-width:0.5;" x1="263" x2="3036" y1="1485.54" y2="1485.54"/>
  <line id="left-margin" style="fill:none;stroke:#00AEEF;stroke-width:0.5;opacity:1.0;" x1="1392.45" x2="1392.45" y1="1030.79" y2="1150.12"/>
  <line id="right-margin" style="fill:none;stroke:#00AEEF;stroke-width:0.5;opacity:1.0;" x1="1507.24" x2="1507.24" y1="1030.79" y2="1150.12"/>
 </g>
 <g id="Symbols">
  <g id="Black-L" transform="matrix(1 0 0 1 2855.72 1556)">
   <path d="M39.8556 26.4225L115.513 26.4225C130.677 26.4225 139.284 17.8126 139.284 2.71334L139.284-73.0895C139.284-88.1888 130.677-96.7987 115.513-96.7987L39.8556-96.7987C24.7123-96.7987 16.084-88.1912 16.084-73.0895L16.084 2.71334C16.084 17.815 24.7123 26.4225 39.8556 26.4225ZM42.5864 6.42071C38.2704 6.42071 36.065 4.51135 36.065-0.121475L36.065-70.2547C36.065-74.8667 38.2704-76.7969 42.5864-76.7969L112.782-76.7969C117.093-76.7969 119.303-74.8667 119.303-70.2547L119.303-0.121475C119.303 4.51135 117.093 6.42071 112.782 6.42071ZM85.9423-15.8304L108.089-39.6108C110.861-42.5991 110.883-47.2634 108.269-49.7596C105.224-52.6871 100.654-52.7103 97.8822-49.7416L77.6946-28.078L57.507-49.7416C54.7563-52.7103 50.1648-52.7079 47.1413-49.7596C44.5283-47.2426 44.5295-42.6575 47.2998-39.6692L69.4689-15.8888C73.9818-11.0203 81.4295-10.9631 85.9423-15.8304Z"/>
  </g>
  <g id="Heavy-L" transform="matrix(1 0 0 1 2559.92 1556)">
   <path d="M38.8315 25.5159L114.705 25.5159C129.348 25.5159 137.453 17.4 137.453 2.85894L137.453-73.2263C137.453-87.7674 129.348-95.8832 114.705-95.8832L38.8315-95.8832C24.2188-95.8832 16.084-87.7786 16.084-73.2263L16.084 2.85894C16.084 17.4112 24.2188 25.5159 38.8315 25.5159ZM40.9557 7.98528C36.118 7.98528 33.5844 5.72074 33.5844 0.583786L33.5844-70.9511C33.5844-76.0579 36.118-78.3526 40.9557-78.3526L112.581-78.3526C117.396-78.3526 119.952-76.0579 119.952-70.9511L119.952 0.583786C119.952 5.72074 117.396 7.98528 112.581 7.98528ZM84.4685-15.6027L107.312-40.0366C109.843-42.7619 109.879-46.9672 107.492-49.2593C104.733-51.9287 100.576-51.9701 98.045-49.2695L76.7835-26.5618L55.522-49.2695C53.0213-51.9701 48.8335-51.9589 46.1051-49.2593C43.7238-46.9371 43.7294-42.8065 46.2547-40.0813L69.1343-15.6473C73.4523-11.01 80.1505-10.971 84.4685-15.6027Z"/>
  </g>
  <g id="Bold-L" transform="matrix(1 0 0 1 2264.35 1556)">
   <path d="M37.5412 24.3865L113.714 24.3865C127.667 24.3865 135.171 16.8555 135.171 3.04324L135.171-73.3953C135.171-87.2076 127.667-94.7386 113.714-94.7386L37.5412-94.7386C23.6265-94.7386 16.084-87.2341 16.084-73.3953L16.084 3.04324C16.084 16.882 23.6265 24.3865 37.5412 24.3865ZM38.987 9.90678C33.4665 9.90678 30.5257 7.19674 30.5257 1.40752L30.5257-71.7596C30.5257-77.5109 33.4665-80.2589 38.987-80.2589L112.268-80.2589C117.736-80.2589 120.729-77.5109 120.729-71.7596L120.729 1.40752C120.729 7.19674 117.736 9.90678 112.268 9.90678ZM82.528-15.3184L106.314-40.604C108.531-42.984 108.582-46.5985 106.487-48.6221C104.104-50.9465 100.484-51.0109 98.2672-48.6557L75.6466-24.657L53.0259-48.6557C50.8475-51.0109 47.189-50.9845 44.8442-48.6221C42.7622-46.5605 42.7754-43.0132 44.9786-40.6332L68.8163-15.3476C72.8066-11.0841 78.5377-11.0682 82.528-15.3184Z"/>
  </g>
  <g id="Semibold-L" transform="matrix(1 0 0 1 1968.43 1556)">
   <path d="M36.6517 23.608L113.03 23.608C126.507 23.608 133.598 16.4801 133.598 3.17029L133.598-73.5119C133.598-86.8217 126.507-93.9496 113.03-93.9496L36.6517-93.9496C23.2182-93.9496 16.084-86.8587 16.084-73.5119L16.084 3.17029C16.084 16.5171 23.2182 23.608 36.6517 23.608ZM37.6298 11.2314C31.6387 11.2314 28.4171 8.21429 28.4171 1.97539L28.4171-72.317C28.4171-78.5125 31.6387-81.573 37.6298-81.573L112.052-81.573C117.97-81.573 121.265-78.5125 121.265-72.317L121.265 1.97539C121.265 8.21429 117.97 11.2314 112.052 11.2314ZM81.1903-15.1225L105.627-40.9952C107.626-43.1372 107.688-46.3442 105.794-48.1828C103.67-50.2694 100.42-50.3497 98.4204-48.2325L74.8627-23.3439L51.3051-48.2325C49.3489-50.3497 46.0553-50.3127 43.975-48.1828C42.0993-46.3009 42.1177-43.1558 44.0989-41.0137L68.597-15.141C72.3614-11.1352 77.4259-11.1351 81.1903-15.1225Z"/>
  </g>
  <g id="Medium-L" transform="matrix(1 0 0 1 1672.31 1556)">
   <path d="M35.9773 23.0176L112.512 23.0176C125.628 23.0176 132.405 16.1955 132.405 3.26662L132.405-73.6003C132.405-86.5291 125.628-93.3513 112.512-93.3513L35.9773-93.3513C22.9086-93.3513 16.084-86.574 16.084-73.6003L16.084 3.26662C16.084 16.2404 22.9086 23.0176 35.9773 23.0176ZM36.6007 12.2359C30.2527 12.2359 26.8183 8.98584 26.8183 2.40598L26.8183-72.7396C26.8183-79.272 30.2527-82.5695 36.6007-82.5695L111.889-82.5695C118.147-82.5695 121.671-79.272 121.671-72.7396L121.671 2.40598C121.671 8.98584 118.147 12.2359 111.889 12.2359ZM80.1759-14.9739L105.105-41.2917C106.94-43.2534 107.01-46.1515 105.268-47.8497C103.341-49.7559 100.372-49.8483 98.5365-47.9116L74.2684-22.3482L50.0003-47.9116C48.2126-49.8483 45.1957-49.8034 43.3159-47.8497C41.5966-46.104 41.6191-43.2639 43.4318-41.3023L68.4308-14.9844C72.0238-11.174 76.5829-11.1859 80.1759-14.9739Z"/>
  </g>
  <g id="Regular-L" transform="matrix(1 0 0 1 1376.38 1556)">
   <path d="M35.0976 22.2476L111.836 22.2476C124.482 22.2476 130.85 15.8242 130.85 3.39227L130.85-73.7155C130.85-86.1475 124.482-92.5709 111.836-92.5709L35.0976-92.5709C22.5048-92.5709 16.084-86.2028 16.084-73.7155L16.084 3.39227C16.084 15.8795 22.5048 22.2476 35.0976 22.2476ZM35.2584 13.546C28.4449 13.546 24.7328 9.9922 24.7328 2.96762L24.7328-73.2909C24.7328-80.2627 28.4449-83.8692 35.2584-83.8692L111.675-83.8692C118.378-83.8692 122.201-80.2627 122.201-73.2909L122.201 2.96762C122.201 9.9922 118.378 13.546 111.675 13.546ZM78.8529-14.7801L104.425-41.6786C106.045-43.4049 106.126-45.9 104.583-47.4153C102.912-49.0862 100.309-49.1943 98.688-47.4931L73.4932-21.0495L48.2984-47.4931C46.7304-49.1943 44.0744-49.139 42.4562-47.4153C40.941-45.8473 40.9687-43.4049 42.5618-41.6786L68.2139-14.7801C71.5835-11.2245 75.4833-11.2522 78.8529-14.7801Z"/>
  </g>
  <g id="Light-L" transform="matrix(1 0 0 1 1080.5 1556)">
   <path d="M34.067 21.4269L111.206 21.4269C123.088 21.4269 129.189 15.2326 129.189 3.54496L129.189-73.83C129.189-85.5176 123.088-91.712 111.206-91.712L34.067-91.712C22.2185-91.712 16.084-85.6111 16.084-73.83L16.084 3.54496C16.084 15.3261 22.2185 21.4269 34.067 21.4269ZM34.2278 14.7674C26.7082 14.7674 22.7098 10.8701 22.7098 3.21573L22.7098-73.5008C22.7098-81.1215 26.7082-85.0525 34.2278-85.0525L111.045-85.0525C118.378-85.0525 122.563-81.1215 122.563-73.5008L122.563 3.21573C122.563 10.8701 118.378 14.7674 111.045 14.7674ZM76.7726-14.5701L103.509-42.3275C104.805-43.6911 104.885-45.6328 103.61-46.8618C102.339-48.132 100.271-48.2591 98.9743-46.8824L72.6535-19.5608L46.3326-46.8824C45.07-48.2591 42.9675-48.1656 41.731-46.8618C40.502-45.5992 40.5488-43.6911 41.7983-42.3275L68.6147-14.5701C71.2018-11.8353 74.1855-11.882 76.7726-14.5701Z"/>
  </g>
  <g id="Thin-L" transform="matrix(1 0 0 1 784.884 1556)">
   <path d="M32.7039 20.3415L110.373 20.3415C121.246 20.3415 126.993 14.4501 126.993 3.74689L126.993-73.9815C126.993-84.6847 121.246-90.5761 110.373-90.5761L32.7039-90.5761C21.8399-90.5761 16.084-84.8286 16.084-73.9815L16.084 3.74689C16.084 14.594 21.8399 20.3415 32.7039 20.3415ZM32.8648 16.3829C24.4111 16.3829 20.0342 12.0312 20.0342 3.54387L20.0342-73.7785C20.0342-82.2574 24.4111-86.6175 32.8648-86.6175L110.212-86.6175C118.378-86.6175 123.043-82.2574 123.043-73.7785L123.043 3.54387C123.043 12.0312 118.378 16.3829 110.212 16.3829ZM74.0213-14.2925L102.297-43.1857C103.164-44.0698 103.245-45.2795 102.322-46.1298C101.582-46.8699 100.22-47.0223 99.3529-46.0747L71.5428-17.592L43.7327-46.0747C42.874-47.0223 41.5035-46.8783 40.7718-46.1298C39.9215-45.271 39.9935-44.0698 40.7887-43.1857L69.1448-14.2925C70.697-12.643 72.4691-12.715 74.0213-14.2925Z"/>
  </g>
  <g id="Ultralight-L" transform="matrix(1 0 0 1 488.735 1556)">
   <path d="M32.0058 19.7856L109.947 19.7856C120.302 19.7856 125.868 14.0493 125.868 3.85032L125.868-74.0591C125.868-84.258 120.302-89.9943 109.947-89.9943L32.0058-89.9943C21.646-89.9943 16.084-84.4278 16.084-74.0591L16.084 3.85032C16.084 14.2191 21.646 19.7856 32.0058 19.7856ZM32.1666 17.2104C23.2346 17.2104 18.6637 12.626 18.6637 3.71194L18.6637-73.9207C18.6637-82.8392 23.2346-87.4191 32.1666-87.4191L109.786-87.4191C118.378-87.4191 123.289-82.8392 123.289-73.9207L123.289 3.71194C123.289 12.626 118.378 17.2104 109.786 17.2104ZM72.612-14.1503L101.676-43.6253C102.324-44.2637 102.404-45.0985 101.663-45.7548C101.194-46.2234 100.194-46.3888 99.5468-45.6609L70.974-16.5835L42.4011-45.6609C41.7492-46.3888 40.7536-46.2189 40.2805-45.7548C39.6241-45.1029 39.709-44.2637 40.2715-43.6253L69.4163-14.1503C70.4384-13.0567 71.5899-13.1416 72.612-14.1503Z"/>
  </g>
  <g id="Black-M" transform="matrix(1 0 0 1 2872.54 1126)">
   <path d="M31.6184 13.203L90.1011 13.203C102.194 13.203 109.259 6.13889 109.259-5.93804L109.259-64.4592C109.259-76.5361 102.194-83.6002 90.1011-83.6002L31.6184-83.6002C19.5311-83.6002 12.4609-76.5356 12.4609-64.4592L12.4609-5.93804C12.4609 6.13832 19.5311 13.203 31.6184 13.203ZM34.2553-4.14048C31.2643-4.14048 29.7989-5.36104 29.7989-8.60235L29.7989-61.7949C29.7989-65.0307 31.2643-66.2568 34.2553-66.2568L87.4643-66.2568C90.4564-66.2568 91.9207-65.0307 91.9207-61.7949L91.9207-8.60235C91.9207-5.36104 90.4564-4.14048 87.4643-4.14048ZM67.568-20.3675L84.2852-38.3458C86.5951-40.838 86.6003-44.771 84.4159-46.8415C81.866-49.2771 78.0423-49.2821 75.7324-46.7957L60.8625-30.7902L45.9926-46.7957C43.6882-49.2821 39.859-49.2826 37.3147-46.8415C35.1299-44.7655 35.1297-40.8951 37.4398-38.4029L54.1623-20.4246C57.72-16.5652 64.0102-16.5078 67.568-20.3675Z"/>
  </g>
  <g id="Heavy-M" transform="matrix(1 0 0 1 2576.65 1126)">
   <path d="M30.7123 12.3923L89.37 12.3923C101.024 12.3923 107.621 5.79013 107.621-5.80979L107.621-64.5823C107.621-76.1823 101.024-82.7845 89.37-82.7845L30.7123-82.7845C19.075-82.7845 12.4609-76.1868 12.4609-64.5823L12.4609-5.80979C12.4609 5.79468 19.075 12.3923 30.7123 12.3923ZM32.7562-2.72369C29.3203-2.72369 27.5605-4.25976 27.5605-7.93579L27.5605-62.4563C27.5605-66.116 29.3203-67.6684 32.7562-67.6684L87.326-67.6684C90.7528-67.6684 92.5217-66.116 92.5217-62.4563L92.5217-7.93579C92.5217-4.25976 90.7528-2.72369 87.326-2.72369ZM66.3191-20.1642L83.61-38.7022C85.7147-40.9707 85.7334-44.5061 83.7465-46.4035C81.439-48.6238 77.9698-48.6447 75.8651-46.3905L60.0493-29.4454L44.2336-46.3905C42.1453-48.6447 38.6597-48.6402 36.3686-46.4035C34.3839-44.4897 34.3862-41.0143 36.4887-38.7459L53.7983-20.2079C57.2377-16.4988 62.8796-16.4574 66.3191-20.1642Z"/>
  </g>
  <g id="Bold-M" transform="matrix(1 0 0 1 2280.85 1126)">
   <path d="M29.6986 11.4855L88.5521 11.4855C99.7145 11.4855 105.79 5.39999 105.79-5.66632L105.79-64.7201C105.79-75.7864 99.7145-81.8719 88.5521-81.8719L29.6986-81.8719C18.5648-81.8719 12.4609-75.7967 12.4609-64.7201L12.4609-5.66632C12.4609 5.41026 18.5648 11.4855 29.6986 11.4855ZM31.0794-1.13881C27.1457-1.13881 25.0566-3.02783 25.0566-7.19016L25.0566-63.1963C25.0566-67.33 27.1457-69.2476 31.0794-69.2476L87.1713-69.2476C91.0844-69.2476 93.1941-67.33 93.1941-63.1963L93.1941-7.19016C93.1941-3.02783 91.0844-1.13881 87.1713-1.13881ZM64.922-19.9368L82.8547-39.101C84.7299-41.1191 84.7637-44.2098 82.9977-45.9136C80.9613-47.8929 77.8887-47.9318 76.0135-45.9372L59.1397-27.9411L42.2658-45.9372C40.4192-47.9318 37.318-47.9215 35.3103-45.9136C33.5494-44.1812 33.5545-41.1476 35.4246-39.1295L53.391-19.9654C56.6982-16.4245 61.6149-16.4011 64.922-19.9368Z"/>
  </g>
  <g id="Semibold-M" transform="matrix(1 0 0 1 1984.77 1126)">
   <path d="M28.9998 10.8604L87.9882 10.8604C98.812 10.8604 104.527 5.13104 104.527-5.56741L104.527-64.8151C104.527-75.5135 98.812-81.2428 87.9882-81.2428L28.9998-81.2428C18.2131-81.2428 12.4609-75.5277 12.4609-64.8151L12.4609-5.56741C12.4609 5.14525 18.2131 10.8604 28.9998 10.8604ZM29.9233-0.0461991C25.6466-0.0461991 23.3305-2.17855 23.3305-6.67612L23.3305-63.7063C23.3305-68.1669 25.6466-70.3363 29.9233-70.3363L87.0647-70.3363C91.3131-70.3363 93.6576-68.1669 93.6576-63.7063L93.6576-6.67612C93.6576-2.17855 91.3131-0.0461991 87.0647-0.0461991ZM63.9589-19.78L82.334-39.3758C84.051-41.2214 84.0952-44.0056 82.4814-45.5759C80.6319-47.389 77.8328-47.4403 76.1158-45.6247L58.5125-26.904L40.9093-45.6247C39.2293-47.4403 36.3931-47.4261 34.5807-45.5759C32.9741-43.9685 32.9812-41.2395 34.6911-39.394L53.1103-19.7982C56.3262-16.3733 60.743-16.3622 63.9589-19.78Z"/>
  </g>
  <g id="Medium-M" transform="matrix(1 0 0 1 1688.54 1126)">
   <path d="M28.47 10.3864L87.5607 10.3864C98.1277 10.3864 103.57 4.9271 103.57-5.49242L103.57-64.8871C103.57-75.3066 98.1277-80.7658 87.5607-80.7658L28.47-80.7658C17.9464-80.7658 12.4609-75.3238 12.4609-64.8871L12.4609-5.49242C12.4609 4.9443 17.9464 10.3864 28.47 10.3864ZM29.0468 0.782262C24.5098 0.782262 22.0216-1.53459 22.0216-6.28636L22.0216-64.0931C22.0216-68.8015 24.5098-71.1617 29.0468-71.1617L86.9838-71.1617C91.4864-71.1617 94.009-68.8015 94.009-64.0931L94.009-6.28636C94.009-1.53459 91.4864 0.782262 86.9838 0.782262ZM63.2286-19.6612L81.9392-39.5842C83.5362-41.299 83.5883-43.8507 82.09-45.3198C80.3822-47.007 77.7904-47.0676 76.1934-45.3877L58.037-26.1176L39.8807-45.3877C38.3271-47.0676 35.6918-47.0504 34.0275-45.3198C32.5378-43.8073 32.5464-41.3092 34.1349-39.5945L52.8975-19.6714C56.0442-16.3345 60.0819-16.3328 63.2286-19.6612Z"/>
  </g>
  <g id="Regular-M" transform="matrix(1 0 0 1 1392.45 1126)">
   <path d="M27.7789 9.76808L87.003 9.76808C97.235 9.76808 102.321 4.6611 102.321-5.3946L102.321-64.981C102.321-75.0367 97.235-80.1437 87.003-80.1437L27.7789-80.1437C17.5986-80.1437 12.4609-75.0578 12.4609-64.981L12.4609-5.3946C12.4609 4.6822 17.5986 9.76808 27.7789 9.76808ZM27.9035 1.86286C23.0272 1.86286 20.3144-0.694633 20.3144-5.77797L20.3144-64.5976C20.3144-69.6292 23.0272-72.2384 27.9035-72.2384L86.8784-72.2384C91.7125-72.2384 94.4675-69.6292 94.4675-64.5976L94.4675-5.77797C94.4675-0.694633 91.7125 1.86286 86.8784 1.86286ZM62.2761-19.5061L81.4242-39.8561C82.8648-41.4002 82.9271-43.6487 81.5795-44.9857C80.0565-46.5087 77.7351-46.5815 76.2946-45.0787L57.4168-25.092L38.539-45.0787C37.1502-46.5815 34.7771-46.5604 33.3059-44.9857C31.9688-43.5969 31.9794-41.4002 33.4094-39.8561L52.6198-19.5061C55.6763-16.2838 59.2196-16.2944 62.2761-19.5061Z"/>
  </g>
  <g id="Light-M" transform="matrix(1 0 0 1 1096.49 1126)">
   <path d="M26.8549 9.03231L86.4383 9.03231C95.9859 9.03231 100.832 4.13066 100.832-5.25771L100.832-65.0836C100.832-74.472 95.9859-79.3737 86.4383-79.3737L26.8549-79.3737C17.3419-79.3737 12.4609-74.5273 12.4609-65.0836L12.4609-5.25771C12.4609 4.18599 17.3419 9.03231 26.8549 9.03231ZM26.9795 2.95796C21.4701 2.95796 18.5006 0.0924704 18.5006-5.55553L18.5006-64.7858C18.5006-70.3992 21.4701-73.2993 26.9795-73.2993L86.3137-73.2993C91.7125-73.2993 94.7926-70.3992 94.7926-64.7858L94.7926-5.55553C94.7926 0.0924704 91.7125 2.95796 86.3137 2.95796ZM60.411-19.3179L80.6029-40.4379C81.7526-41.6568 81.8149-43.4091 80.7068-44.4895C79.5432-45.6531 77.7009-45.7431 76.5513-44.5311L56.6639-23.7573L36.7766-44.5311C35.6616-45.7431 33.7847-45.6878 32.6557-44.4895C31.5753-43.3745 31.603-41.6568 32.725-40.4379L52.9791-19.3179C55.3341-16.8314 58.0561-16.859 60.411-19.3179Z"/>
  </g>
  <g id="Thin-M" transform="matrix(1 0 0 1 800.76 1126)">
   <path d="M25.6328 8.0592L85.6915 8.0592C94.3339 8.0592 98.8634 3.42911 98.8634-5.07666L98.8634-65.2194C98.8634-73.7252 94.3339-78.3553 85.6915-78.3553L25.6328-78.3553C17.0024-78.3553 12.4609-73.8258 12.4609-65.2194L12.4609-5.07666C12.4609 3.5297 17.0024 8.0592 25.6328 8.0592ZM25.7574 4.40632C19.4107 4.40632 16.1018 1.13348 16.1018-5.26133L16.1018-65.0348C16.1018-71.4176 19.4107-74.7024 25.7574-74.7024L85.5669-74.7024C91.7125-74.7024 95.2226-71.4176 95.2226-65.0348L95.2226-5.26133C95.2226 1.13348 91.7125 4.40632 85.5669 4.40632ZM57.9443-19.0689L79.5166-41.2073C80.2816-41.9963 80.3439-43.0923 79.5527-43.8332C78.8643-44.5216 77.6557-44.6342 76.8907-43.8069L55.6682-21.9921L34.4456-43.8069C33.6927-44.6342 32.4721-44.5336 31.7957-43.8332C31.0548-43.0803 31.1051-41.9963 31.8197-41.2073L53.4544-19.0689C54.8815-17.5556 56.5172-17.6058 57.9443-19.0689Z"/>
  </g>
  <g id="Ultralight-M" transform="matrix(1 0 0 1 504.553 1126)">
   <path d="M25.0069 7.56077L85.309 7.56077C93.4878 7.56077 97.855 3.06978 97.855-4.98393L97.855-65.289C97.855-73.3427 93.4878-77.8337 85.309-77.8337L25.0069-77.8337C16.8286-77.8337 12.4609-73.4665 12.4609-65.289L12.4609-4.98393C12.4609 3.19355 16.8286 7.56077 25.0069 7.56077ZM25.1315 5.14816C18.3559 5.14816 14.8731 1.66668 14.8731-5.11065L14.8731-65.1623C14.8731-71.9392 18.3559-75.4211 25.1315-75.4211L85.1844-75.4211C91.7125-75.4211 95.4428-71.9392 95.4428-65.1623L95.4428-5.11065C95.4428 1.66668 91.7125 5.14816 85.1844 5.14816ZM56.6808-18.9414L78.9602-41.6014C79.5281-42.1702 79.5904-42.93 78.9615-43.4971C78.5165-43.942 77.6325-44.0662 77.0646-43.436L55.1582-21.088L33.2517-43.436C32.6843-44.0662 31.7998-43.9425 31.3552-43.4971C30.7882-42.9296 30.8501-42.1702 31.3561-41.6014L53.6978-18.9414C54.6496-17.9265 55.729-17.9884 56.6808-18.9414Z"/>
  </g>
  <g id="Black-S" transform="matrix(1 0 0 1 2885.5 696)">
   <path d="M25 2.92969L70.8008 2.92969C80.3711 2.92969 86.0352-2.73438 86.0352-12.3047L86.0352-58.1055C86.0352-67.6758 80.3711-73.3398 70.8008-73.3398L25-73.3398C15.4297-73.3398 9.76562-67.6758 9.76562-58.1055L9.76562-12.3047C9.76562-2.73438 15.4297 2.92969 25 2.92969ZM27.2461-11.2305C25-11.2305 23.9258-12.1094 23.9258-14.5508L23.9258-55.8594C23.9258-58.3008 25-59.1797 27.2461-59.1797L68.5547-59.1797C70.8008-59.1797 71.875-58.3008 71.875-55.8594L71.875-14.5508C71.875-12.1094 70.8008-11.2305 68.5547-11.2305ZM53.2227-23.6328L66.2109-37.5977C68.0664-39.5996 68.0664-42.7734 66.3086-44.4336C64.2578-46.3867 61.1816-46.3867 59.3262-44.3848L47.9004-32.0801L36.4746-44.3848C34.6191-46.3867 31.543-46.3867 29.4922-44.4336C27.7344-42.7734 27.7344-39.6484 29.5898-37.6465L42.5781-23.6816C45.3613-20.6543 50.4395-20.6055 53.2227-23.6328Z"/>
  </g>
  <g id="Heavy-S" transform="matrix(1 0 0 1 2589.39 696)">
   <path d="M24.3431 2.33042L70.2476 2.33042C79.5298 2.33042 84.8251-2.96486 84.8251-12.2125L84.8251-58.1977C84.8251-67.4453 79.5298-72.7406 70.2476-72.7406L24.3431-72.7406C15.0724-72.7406 9.76562-67.4453 9.76562-58.1977L9.76562-12.2125C9.76562-2.96486 15.0724 2.33042 24.3431 2.33042ZM26.0821-10.1587C23.5364-10.1587 22.2432-11.2681 22.2432-14.0091L22.2432-56.401C22.2432-59.1305 23.5364-60.2515 26.0821-60.2515L68.5086-60.2515C71.0543-60.2515 72.3475-59.1305 72.3475-56.401L72.3475-14.0091C72.3475-11.2681 71.0543-10.1587 68.5086-10.1587ZM52.3929-23.483L65.7384-37.8281C67.4556-39.6803 67.4671-42.5775 65.8476-44.1224C63.9582-45.9373 61.124-45.9488 59.4068-44.1082L47.3011-31.1005L35.1954-44.1082C33.4897-45.9488 30.6441-45.9488 28.7661-44.1224C27.1466-42.566 27.1466-39.7176 28.8638-37.8654L42.2209-23.5203C44.9925-20.5275 49.6212-20.4902 52.3929-23.483Z"/>
  </g>
  <g id="Bold-S" transform="matrix(1 0 0 1 2293.36 696)">
   <path d="M23.6084 1.66016L69.6289 1.66016C78.5889 1.66016 83.4717-3.22266 83.4717-12.1094L83.4717-58.3008C83.4717-67.1875 78.5889-72.0703 69.6289-72.0703L23.6084-72.0703C14.6729-72.0703 9.76562-67.1875 9.76562-58.3008L9.76562-12.1094C9.76562-3.22266 14.6729 1.66016 23.6084 1.66016ZM24.7803-8.95996C21.8994-8.95996 20.3613-10.3271 20.3613-13.4033L20.3613-57.0068C20.3613-60.0586 21.8994-61.4502 24.7803-61.4502L68.457-61.4502C71.3379-61.4502 72.876-60.0586 72.876-57.0068L72.876-13.4033C72.876-10.3271 71.3379-8.95996 68.457-8.95996ZM51.4648-23.3154L65.21-38.0859C66.7725-39.7705 66.7969-42.3584 65.332-43.7744C63.623-45.4346 61.0596-45.459 59.4971-43.7988L46.6309-30.0049L33.7646-43.7988C32.2266-45.459 29.6387-45.459 27.9541-43.7744C26.4893-42.334 26.4893-39.7949 28.0518-38.1104L41.8213-23.3398C44.5801-20.3857 48.7061-20.3613 51.4648-23.3154Z"/>
  </g>
  <g id="Semibold-S" transform="matrix(1 0 0 1 1997.11 696)">
   <path d="M23.1019 1.19805L69.2023 1.19805C77.9401 1.19805 82.5386-3.40039 82.5386-12.0383L82.5386-58.3719C82.5386-67.0098 77.9401-71.6082 69.2023-71.6082L23.1019-71.6082C14.3974-71.6082 9.76562-67.0098 9.76562-58.3719L9.76562-12.0383C9.76562-3.40039 14.3974 1.19805 23.1019 1.19805ZM23.8827-8.1335C20.7708-8.1335 19.0639-9.67842 19.0639-12.9856L19.0639-57.4245C19.0639-60.6984 20.7708-62.2767 23.8827-62.2767L68.4215-62.2767C71.5334-62.2767 73.2403-60.6984 73.2403-57.4245L73.2403-12.9856C73.2403-9.67842 71.5334-8.1335 68.4215-8.1335ZM50.825-23.1999L64.8456-38.2637C66.3015-39.8327 66.3348-42.2073 64.9766-43.5345C63.392-45.088 61.0151-45.1213 59.5593-43.5855L46.1688-29.2495L32.7782-43.5855C31.3557-45.1213 28.9455-45.1213 27.3942-43.5345C26.036-42.174 26.036-39.8482 27.4919-38.2792L41.5458-23.2154C44.2957-20.288 48.0751-20.2725 50.825-23.1999Z"/>
  </g>
  <g id="Medium-S" transform="matrix(1 0 0 1 1700.76 696)">
   <path d="M22.7178 0.847656L68.8789 0.847656C77.4482 0.847656 81.8311-3.53516 81.8311-11.9844L81.8311-58.4258C81.8311-66.875 77.4482-71.2578 68.8789-71.2578L22.7178-71.2578C14.1885-71.2578 9.76562-66.875 9.76562-58.4258L9.76562-11.9844C9.76562-3.53516 14.1885 0.847656 22.7178 0.847656ZM23.2021-7.50684C19.915-7.50684 18.0801-9.18652 18.0801-12.6689L18.0801-57.7412C18.0801-61.1836 19.915-62.9033 23.2021-62.9033L68.3945-62.9033C71.6816-62.9033 73.5166-61.1836 73.5166-57.7412L73.5166-12.6689C73.5166-9.18652 71.6816-7.50684 68.3945-7.50684ZM50.3398-23.1123L64.5693-38.3984C65.9443-39.8799 65.9844-42.0928 64.707-43.3525C63.2168-44.8252 60.9814-44.8652 59.6064-43.4238L45.8184-28.6768L32.0303-43.4238C30.6953-44.8652 28.4199-44.8652 26.9697-43.3525C25.6924-42.0527 25.6924-39.8887 27.0674-38.4072L41.3369-23.1211C44.0801-20.2139 47.5967-20.2051 50.3398-23.1123Z"/>
  </g>
  <g id="Regular-S" transform="matrix(1 0 0 1 1404.51 696)">
   <path d="M22.2168 0.390625L68.457 0.390625C76.8066 0.390625 80.9082-3.71094 80.9082-11.9141L80.9082-58.4961C80.9082-66.6992 76.8066-70.8008 68.457-70.8008L22.2168-70.8008C13.916-70.8008 9.76562-66.6992 9.76562-58.4961L9.76562-11.9141C9.76562-3.71094 13.916 0.390625 22.2168 0.390625ZM22.3145-6.68945C18.7988-6.68945 16.7969-8.54492 16.7969-12.2559L16.7969-58.1543C16.7969-61.8164 18.7988-63.7207 22.3145-63.7207L68.3594-63.7207C71.875-63.7207 73.877-61.8164 73.877-58.1543L73.877-12.2559C73.877-8.54492 71.875-6.68945 68.3594-6.68945ZM49.707-22.998L64.209-38.5742C65.4785-39.9414 65.5273-41.9434 64.3555-43.1152C62.9883-44.4824 60.9375-44.5312 59.668-43.2129L45.3613-27.9297L31.0547-43.2129C29.834-44.5312 27.7344-44.5312 26.416-43.1152C25.2441-41.8945 25.2441-39.9414 26.5137-38.5742L41.0645-22.998C43.7988-20.1172 46.9727-20.1172 49.707-22.998Z"/>
  </g>
  <g id="Light-S" transform="matrix(1 0 0 1 1108.45 696)">
   <path d="M21.3994-0.260249L67.9575-0.260249C75.7017-0.260249 79.5913-4.18017 79.5913-11.793L79.5913-58.5869C79.5913-66.1997 75.7017-70.1196 67.9575-70.1196L21.3994-70.1196C13.689-70.1196 9.76562-66.23 9.76562-58.5869L9.76562-11.793C9.76562-4.1499 13.689-0.260249 21.3994-0.260249ZM21.4971-5.72071C17.4214-5.72071 15.1924-7.84864 15.1924-12.0591L15.1924-58.3208C15.1924-62.4976 17.4214-64.6592 21.4971-64.6592L67.8599-64.6592C71.875-64.6592 74.1645-62.4976 74.1645-58.3208L74.1645-12.0591C74.1645-7.84864 71.875-5.72071 67.8599-5.72071ZM48.0571-22.8315L63.4824-39.0889C64.4946-40.1685 64.5435-41.7314 63.5835-42.6763C62.5342-43.7256 60.9072-43.7896 59.895-42.7285L44.6953-26.749L29.4956-42.7285C28.5171-43.7896 26.8565-43.7593 25.8408-42.6763C24.896-41.6978 24.9111-40.1685 25.9082-39.0889L41.3823-22.8315C43.4961-20.6016 45.9434-20.6167 48.0571-22.8315Z"/>
  </g>
  <g id="Thin-S" transform="matrix(1 0 0 1 812.615 696)">
   <path d="M20.3184-1.12108L67.2969-1.12108C74.2403-1.12108 77.8496-4.80077 77.8496-11.6328L77.8496-58.707C77.8496-65.5391 74.2403-69.2188 67.2969-69.2188L20.3184-69.2188C13.3887-69.2188 9.76562-65.6094 9.76562-58.707L9.76562-11.6328C9.76562-4.73046 13.3887-1.12108 20.3184-1.12108ZM20.416-4.43947C15.5996-4.43947 13.0703-6.92775 13.0703-11.7988L13.0703-58.541C13.0703-63.3984 15.5996-65.9004 20.416-65.9004L67.1992-65.9004C71.875-65.9004 74.5449-63.3984 74.5449-58.541L74.5449-11.7988C74.5449-6.92775 71.875-4.43947 67.1992-4.43947ZM45.875-22.6113L62.5215-39.7695C63.1934-40.4687 63.2422-41.4512 62.5625-42.0957C61.9336-42.7246 60.8672-42.8086 60.1953-42.0879L43.8145-25.1875L27.4336-42.0879C26.7754-42.8086 25.6953-42.7383 25.0801-42.0957C24.4356-41.4375 24.4707-40.4687 25.1074-39.7695L41.8027-22.6113C43.0957-21.2422 44.5821-21.2773 45.875-22.6113Z"/>
  </g>
  <g id="Ultralight-S" transform="matrix(1 0 0 1 516.35 696)">
   <path d="M19.7647-1.562L66.9585-1.562C73.4917-1.562 76.9576-5.11864 76.9576-11.5508L76.9576-58.7686C76.9576-65.2007 73.4917-68.7573 66.9585-68.7573L19.7647-68.7573C13.2349-68.7573 9.76562-65.2915 9.76562-58.7686L9.76562-11.5508C9.76562-5.02782 13.2349-1.562 19.7647-1.562ZM19.8623-3.78323C14.6665-3.78323 11.9834-6.45607 11.9834-11.6655L11.9834-58.6538C11.9834-63.8598 14.6665-66.5361 19.8623-66.5361L66.8609-66.5361C71.875-66.5361 74.7397-63.8598 74.7397-58.6538L74.7397-11.6655C74.7397-6.45607 71.875-3.78323 66.8609-3.78323ZM44.7574-22.4985L62.0293-40.1182C62.5269-40.6226 62.5757-41.3076 62.0396-41.7984C61.626-42.2119 60.8467-42.3062 60.3491-41.7598L43.3633-24.3877L26.3775-41.7598C25.8833-42.3062 25.1006-42.2154 24.6904-41.7984C24.1997-41.3042 24.2451-40.6226 24.6973-40.1182L42.0181-22.4985C42.8906-21.5703 43.8848-21.6157 44.7574-22.4985Z"/>
  </g>
 </g>
</svg>
