<?xml version="1.0" encoding="UTF-8"?>
<!--Generator: Apple Native CoreSVG 175.5-->
<!DOCTYPE svg
PUBLIC "-//W3C//DTD SVG 1.1//EN"
       "http://www.w3.org/Graphics/SVG/1.1/DTD/svg11.dtd">
<svg version="1.1" xmlns="http://www.w3.org/2000/svg" xmlns:xlink="http://www.w3.org/1999/xlink" width="3300" height="2200">
 <!--glyph: "uni100360.medium", point size: 100.0, font version: "18.0d10e1", template writer version: "90"-->
 <g id="Notes">
  <rect height="2200" id="artboard" style="fill:white;opacity:1" width="3300" x="0" y="0"/>
  <line style="fill:none;stroke:black;opacity:1;stroke-width:0.5;" x1="263" x2="3036" y1="292" y2="292"/>
  <text style="stroke:none;fill:black;font-family:sans-serif;font-size:13;font-weight:bold;" transform="matrix(1 0 0 1 263 322)">Weight/Scale Variations</text>
  <text style="stroke:none;fill:black;font-family:sans-serif;font-size:13;text-anchor:middle;" transform="matrix(1 0 0 1 559.711 322)">Ultralight</text>
  <text style="stroke:none;fill:black;font-family:sans-serif;font-size:13;text-anchor:middle;" transform="matrix(1 0 0 1 856.422 322)">Thin</text>
  <text style="stroke:none;fill:black;font-family:sans-serif;font-size:13;text-anchor:middle;" transform="matrix(1 0 0 1 1153.13 322)">Light</text>
  <text style="stroke:none;fill:black;font-family:sans-serif;font-size:13;text-anchor:middle;" transform="matrix(1 0 0 1 1449.84 322)">Regular</text>
  <text style="stroke:none;fill:black;font-family:sans-serif;font-size:13;text-anchor:middle;" transform="matrix(1 0 0 1 1746.56 322)">Medium</text>
  <text style="stroke:none;fill:black;font-family:sans-serif;font-size:13;text-anchor:middle;" transform="matrix(1 0 0 1 2043.27 322)">Semibold</text>
  <text style="stroke:none;fill:black;font-family:sans-serif;font-size:13;text-anchor:middle;" transform="matrix(1 0 0 1 2339.98 322)">Bold</text>
  <text style="stroke:none;fill:black;font-family:sans-serif;font-size:13;text-anchor:middle;" transform="matrix(1 0 0 1 2636.69 322)">Heavy</text>
  <text style="stroke:none;fill:black;font-family:sans-serif;font-size:13;text-anchor:middle;" transform="matrix(1 0 0 1 2933.4 322)">Black</text>
  <line style="fill:none;stroke:black;opacity:1;stroke-width:0.5;" x1="263" x2="3036" y1="1903" y2="1903"/>
  <g transform="matrix(1 0 0 1 263 1933)">
   <path d="M9.24805 0.830078C13.5547 0.830078 17.1387-2.74414 17.1387-7.05078C17.1387-11.3574 13.5449-14.9316 9.23828-14.9316C4.94141-14.9316 1.36719-11.3574 1.36719-7.05078C1.36719-2.74414 4.95117 0.830078 9.24805 0.830078ZM9.24805-0.654297C5.70312-0.654297 2.87109-3.49609 2.87109-7.05078C2.87109-10.6055 5.69336-13.4473 9.23828-13.4473C12.793-13.4473 15.6445-10.6055 15.6445-7.05078C15.6445-3.49609 12.8027-0.654297 9.24805-0.654297ZM5.6543-7.05078C5.6543-6.62109 5.95703-6.32812 6.40625-6.32812L8.50586-6.32812L8.50586-4.20898C8.50586-3.76953 8.79883-3.4668 9.22852-3.4668C9.67773-3.4668 9.9707-3.76953 9.9707-4.20898L9.9707-6.32812L12.0898-6.32812C12.5293-6.32812 12.832-6.62109 12.832-7.05078C12.832-7.49023 12.5293-7.79297 12.0898-7.79297L9.9707-7.79297L9.9707-9.90234C9.9707-10.3516 9.67773-10.6543 9.22852-10.6543C8.79883-10.6543 8.50586-10.3516 8.50586-9.90234L8.50586-7.79297L6.40625-7.79297C5.95703-7.79297 5.6543-7.49023 5.6543-7.05078Z"/>
  </g>
  <g transform="matrix(1 0 0 1 281.867 1933)">
   <path d="M11.709 2.91016C17.1582 2.91016 21.6699-1.61133 21.6699-7.05078C21.6699-12.5 17.1484-17.0117 11.6992-17.0117C6.25977-17.0117 1.74805-12.5 1.74805-7.05078C1.74805-1.61133 6.26953 2.91016 11.709 2.91016ZM11.709 1.25C7.09961 1.25 3.41797-2.44141 3.41797-7.05078C3.41797-11.6602 7.08984-15.3516 11.6992-15.3516C16.3086-15.3516 20.0098-11.6602 20.0098-7.05078C20.0098-2.44141 16.3184 1.25 11.709 1.25ZM7.17773-7.05078C7.17773-6.57227 7.50977-6.25 8.00781-6.25L10.8789-6.25L10.8789-3.36914C10.8789-2.88086 11.2109-2.53906 11.6895-2.53906C12.1777-2.53906 12.5195-2.87109 12.5195-3.36914L12.5195-6.25L15.4004-6.25C15.8887-6.25 16.2305-6.57227 16.2305-7.05078C16.2305-7.53906 15.8887-7.88086 15.4004-7.88086L12.5195-7.88086L12.5195-10.752C12.5195-11.25 12.1777-11.5918 11.6895-11.5918C11.2109-11.5918 10.8789-11.25 10.8789-10.752L10.8789-7.88086L8.00781-7.88086C7.50977-7.88086 7.17773-7.53906 7.17773-7.05078Z"/>
  </g>
  <g transform="matrix(1 0 0 1 305.646 1933)">
   <path d="M14.9707 5.66406C21.9336 5.66406 27.6953-0.0976562 27.6953-7.05078C27.6953-14.0137 21.9238-19.7754 14.9609-19.7754C8.00781-19.7754 2.25586-14.0137 2.25586-7.05078C2.25586-0.0976562 8.01758 5.66406 14.9707 5.66406ZM14.9707 3.84766C8.93555 3.84766 4.08203-1.01562 4.08203-7.05078C4.08203-13.0957 8.92578-17.9492 14.9609-17.9492C21.0059-17.9492 25.8691-13.0957 25.8691-7.05078C25.8691-1.01562 21.0156 3.84766 14.9707 3.84766ZM9.19922-7.05078C9.19922-6.5332 9.57031-6.17188 10.1172-6.17188L14.0625-6.17188L14.0625-2.2168C14.0625-1.67969 14.4336-1.29883 14.9512-1.29883C15.4883-1.29883 15.8594-1.66992 15.8594-2.2168L15.8594-6.17188L19.8145-6.17188C20.3516-6.17188 20.7324-6.5332 20.7324-7.05078C20.7324-7.59766 20.3613-7.96875 19.8145-7.96875L15.8594-7.96875L15.8594-11.9141C15.8594-12.4609 15.4883-12.8418 14.9512-12.8418C14.4336-12.8418 14.0625-12.4609 14.0625-11.9141L14.0625-7.96875L10.1172-7.96875C9.57031-7.96875 9.19922-7.59766 9.19922-7.05078Z"/>
  </g>
  <text style="stroke:none;fill:black;font-family:sans-serif;font-size:13;font-weight:bold;" transform="matrix(1 0 0 1 263 1953)">Design Variations</text>
  <text style="stroke:none;fill:black;font-family:sans-serif;font-size:13;" transform="matrix(1 0 0 1 263 1971)">Symbols are supported in up to nine weights and three scales.</text>
  <text style="stroke:none;fill:black;font-family:sans-serif;font-size:13;" transform="matrix(1 0 0 1 263 1989)">For optimal layout with text and other symbols, vertically align</text>
  <text style="stroke:none;fill:black;font-family:sans-serif;font-size:13;" transform="matrix(1 0 0 1 263 2007)">symbols with the adjacent text.</text>
  <line style="fill:none;stroke:#00AEEF;stroke-width:0.5;opacity:1.0;" x1="776" x2="776" y1="1919" y2="1933"/>
  <g transform="matrix(1 0 0 1 776 1933)">
   <path d="M3.31055 0.15625C3.82812 0.15625 4.08203-0.0390625 4.26758-0.585938L5.52734-4.0332L11.2891-4.0332L12.5488-0.585938C12.7344-0.0390625 12.9883 0.15625 13.4961 0.15625C14.0137 0.15625 14.3457-0.15625 14.3457-0.644531C14.3457-0.810547 14.3164-0.966797 14.2383-1.17188L9.6582-13.3691C9.43359-13.9648 9.0332-14.2676 8.4082-14.2676C7.80273-14.2676 7.39258-13.9746 7.17773-13.3789L2.59766-1.16211C2.51953-0.957031 2.49023-0.800781 2.49023-0.634766C2.49023-0.146484 2.80273 0.15625 3.31055 0.15625ZM6.00586-5.51758L8.37891-12.0898L8.42773-12.0898L10.8008-5.51758Z"/>
  </g>
  <line style="fill:none;stroke:#00AEEF;stroke-width:0.5;opacity:1.0;" x1="793.197" x2="793.197" y1="1919" y2="1933"/>
  <text style="stroke:none;fill:black;font-family:sans-serif;font-size:13;font-weight:bold;" transform="matrix(1 0 0 1 776 1953)">Margins</text>
  <text style="stroke:none;fill:black;font-family:sans-serif;font-size:13;" transform="matrix(1 0 0 1 776 1971)">Leading and trailing margins on the left and right side of each symbol</text>
  <text style="stroke:none;fill:black;font-family:sans-serif;font-size:13;" transform="matrix(1 0 0 1 776 1989)">can be adjusted by modifying the x-location of the margin guidelines.</text>
  <text style="stroke:none;fill:black;font-family:sans-serif;font-size:13;" transform="matrix(1 0 0 1 776 2007)">Modifications are automatically applied proportionally to all</text>
  <text style="stroke:none;fill:black;font-family:sans-serif;font-size:13;" transform="matrix(1 0 0 1 776 2025)">scales and weights.</text>
  <g transform="matrix(1 0 0 1 1289 1933)">
   <path d="M2.8418 1.86523L4.54102 3.57422C5.40039 4.44336 6.38672 4.38477 7.31445 3.35938L18.0078-8.42773L17.041-9.4043L6.42578 2.27539C6.07422 2.67578 5.74219 2.77344 5.27344 2.30469L4.10156 1.14258C3.63281 0.683594 3.74023 0.341797 4.14062-0.0195312L15.6152-10.8203L14.6387-11.7871L3.04688-0.898438C2.06055 0.0195312 1.98242 0.996094 2.8418 1.86523ZM9.25781-16.3281C8.83789-15.918 8.80859-15.3418 9.04297-14.9512C9.27734-14.5898 9.73633-14.3555 10.3809-14.5215C11.8457-14.8633 13.3691-14.9219 14.7949-13.9844L14.209-12.5293C13.8672-11.6992 14.043-11.1133 14.5801-10.5664L16.875-8.25195C17.3633-7.76367 17.7734-7.74414 18.3398-7.8418L19.4043-8.03711L20.0684-7.36328L20.0293-6.80664C19.9902-6.30859 20.1172-5.92773 20.6055-5.44922L21.3672-4.70703C21.8457-4.22852 22.4609-4.19922 22.9297-4.66797L25.8398-7.58789C26.3086-8.05664 26.2891-8.65234 25.8105-9.13086L25.0391-9.89258C24.5605-10.3711 24.1895-10.5273 23.7109-10.4883L23.1348-10.4395L22.4902-11.0742L22.7344-12.1973C22.8613-12.7637 22.7051-13.2031 22.1191-13.7891L19.9219-15.9766C16.582-19.2969 12.1484-19.2188 9.25781-16.3281ZM10.752-15.957C13.1836-17.7344 16.4746-17.4316 18.7012-15.2051L21.1328-12.793C21.3672-12.5586 21.4062-12.373 21.3379-12.0312L21.0156-10.5469L22.5195-9.0625L23.5059-9.12109C23.7598-9.13086 23.8379-9.11133 24.0332-8.91602L24.6094-8.33984L22.168-5.89844L21.5918-6.47461C21.3965-6.66992 21.3672-6.74805 21.377-7.01172L21.4453-7.98828L19.9512-9.47266L18.4277-9.21875C18.1055-9.15039 17.959-9.17969 17.7148-9.41406L15.7129-11.416C15.459-11.6504 15.4297-11.8164 15.5859-12.1875L16.4648-14.2773C14.9023-15.7324 12.8711-16.3574 10.8398-15.7617C10.6836-15.7227 10.625-15.8496 10.752-15.957Z"/>
  </g>
  <text style="stroke:none;fill:black;font-family:sans-serif;font-size:13;font-weight:bold;" transform="matrix(1 0 0 1 1289 1953)">Exporting</text>
  <text style="stroke:none;fill:black;font-family:sans-serif;font-size:13;" transform="matrix(1 0 0 1 1289 1971)">Symbols should be outlined when exporting to ensure the</text>
  <text style="stroke:none;fill:black;font-family:sans-serif;font-size:13;" transform="matrix(1 0 0 1 1289 1989)">design is preserved when submitting to Xcode.</text>
  <text id="template-version" style="stroke:none;fill:black;font-family:sans-serif;font-size:13;text-anchor:end;" transform="matrix(1 0 0 1 3036 1933)">Template v.2.0</text>
  <text style="stroke:none;fill:black;font-family:sans-serif;font-size:13;text-anchor:end;" transform="matrix(1 0 0 1 3036 1951)">Requires Xcode 12 or greater</text>
  <text id="descriptive-name" style="stroke:none;fill:black;font-family:sans-serif;font-size:13;text-anchor:end;" transform="matrix(1 0 0 1 3036 1969)">Generated from ellipsis</text>
  <text style="stroke:none;fill:black;font-family:sans-serif;font-size:13;text-anchor:end;" transform="matrix(1 0 0 1 3036 1987)">Typeset at 100 points</text>
  <text style="stroke:none;fill:black;font-family:sans-serif;font-size:13;" transform="matrix(1 0 0 1 263 726)">Small</text>
  <text style="stroke:none;fill:black;font-family:sans-serif;font-size:13;" transform="matrix(1 0 0 1 263 1156)">Medium</text>
  <text style="stroke:none;fill:black;font-family:sans-serif;font-size:13;" transform="matrix(1 0 0 1 263 1586)">Large</text>
 </g>
 <g id="Guides">
  <g id="H-reference" style="fill:#27AAE1;stroke:none;" transform="matrix(1 0 0 1 339 696)">
   <path d="M0.993654 0L3.63775 0L29.3281-67.1323L30.0303-67.1323L30.0303-70.459L28.1226-70.459ZM11.6885-24.4799L46.9815-24.4799L46.2315-26.7285L12.4385-26.7285ZM55.1196 0L57.7637 0L30.6382-70.459L29.4326-70.459L29.4326-67.1323Z"/>
  </g>
  <line id="Baseline-S" style="fill:none;stroke:#27AAE1;opacity:1;stroke-width:0.5;" x1="263" x2="3036" y1="696" y2="696"/>
  <line id="Capline-S" style="fill:none;stroke:#27AAE1;opacity:1;stroke-width:0.5;" x1="263" x2="3036" y1="625.541" y2="625.541"/>
  <g id="H-reference" style="fill:#27AAE1;stroke:none;" transform="matrix(1 0 0 1 339 1126)">
   <path d="M0.993654 0L3.63775 0L29.3281-67.1323L30.0303-67.1323L30.0303-70.459L28.1226-70.459ZM11.6885-24.4799L46.9815-24.4799L46.2315-26.7285L12.4385-26.7285ZM55.1196 0L57.7637 0L30.6382-70.459L29.4326-70.459L29.4326-67.1323Z"/>
  </g>
  <line id="Baseline-M" style="fill:none;stroke:#27AAE1;opacity:1;stroke-width:0.5;" x1="263" x2="3036" y1="1126" y2="1126"/>
  <line id="Capline-M" style="fill:none;stroke:#27AAE1;opacity:1;stroke-width:0.5;" x1="263" x2="3036" y1="1055.54" y2="1055.54"/>
  <g id="H-reference" style="fill:#27AAE1;stroke:none;" transform="matrix(1 0 0 1 339 1556)">
   <path d="M0.993654 0L3.63775 0L29.3281-67.1323L30.0303-67.1323L30.0303-70.459L28.1226-70.459ZM11.6885-24.4799L46.9815-24.4799L46.2315-26.7285L12.4385-26.7285ZM55.1196 0L57.7637 0L30.6382-70.459L29.4326-70.459L29.4326-67.1323Z"/>
  </g>
  <line id="Baseline-L" style="fill:none;stroke:#27AAE1;opacity:1;stroke-width:0.5;" x1="263" x2="3036" y1="1556" y2="1556"/>
  <line id="Capline-L" style="fill:none;stroke:#27AAE1;opacity:1;stroke-width:0.5;" x1="263" x2="3036" y1="1485.54" y2="1485.54"/>
  <line id="left-margin" style="fill:none;stroke:#00AEEF;stroke-width:0.5;opacity:1.0;" x1="1395.08" x2="1395.08" y1="1030.79" y2="1150.12"/>
  <line id="right-margin" style="fill:none;stroke:#00AEEF;stroke-width:0.5;opacity:1.0;" x1="1504.61" x2="1504.61" y1="1030.79" y2="1150.12"/>
 </g>
 <g id="Symbols">
  <g id="Black-L" transform="matrix(1 0 0 1 2858.21 1556)">
   <path d="M27.0393-19.4283C35.4962-19.4283 42.8823-26.83 42.8823-35.1881C42.8823-44.2262 36.1387-50.9686 27.0393-50.9686C18.4113-50.9686 11.2588-43.9342 11.2588-35.1881C11.2588-26.83 18.4113-19.4283 27.0393-19.4283ZM75.1772-19.4283C83.5924-19.4283 90.9577-26.83 90.9577-35.1881C90.9577-44.2262 84.2349-50.9686 75.1772-50.9686C66.5491-50.9686 59.4174-43.9342 59.4174-35.1881C59.4174-26.83 66.5491-19.4283 75.1772-19.4283ZM123.336-19.4283C131.73-19.4283 139.116-26.83 139.116-35.1881C139.116-44.2262 132.373-50.9686 123.336-50.9686C114.645-50.9686 107.493-43.9342 107.493-35.1881C107.493-26.83 114.645-19.4283 123.336-19.4283Z"/>
  </g>
  <g id="Heavy-L" transform="matrix(1 0 0 1 2562.77 1556)">
   <path d="M26.2164-20.2562C34.3159-20.2562 41.2646-27.1836 41.2646-35.1837C41.2646-43.689 34.8067-50.1413 26.2164-50.1413C18.0291-50.1413 11.2588-43.4659 11.2588-35.1837C11.2588-27.1836 18.0291-20.2562 26.2164-20.2562ZM73.9061-20.2562C81.9451-20.2562 88.8637-27.1836 88.8637-35.1837C88.8637-43.689 82.436-50.1413 73.9061-50.1413C65.7187-50.1413 58.9786-43.4659 58.9786-35.1837C58.9786-27.1836 65.7187-20.2562 73.9061-20.2562ZM121.626-20.2562C129.635-20.2562 136.584-27.1836 136.584-35.1837C136.584-43.689 130.126-50.1413 121.626-50.1413C113.348-50.1413 106.578-43.4659 106.578-35.1837C106.578-27.1836 113.348-20.2562 121.626-20.2562Z"/>
  </g>
  <g id="Bold-L" transform="matrix(1 0 0 1 2267.84 1556)">
   <path d="M25.1647-21.3081C32.7813-21.3081 39.1847-27.6514 39.1847-35.1761C39.1847-43.0131 33.1026-49.082 25.1647-49.082C17.5453-49.082 11.2588-42.8671 11.2588-35.1761C11.2588-27.6514 17.5453-21.3081 25.1647-21.3081ZM72.1148-21.3081C79.6554-21.3081 86.0207-27.6514 86.0207-35.1761C86.0207-43.0131 79.9766-49.082 72.1148-49.082C64.4953-49.082 58.2468-42.8671 58.2468-35.1761C58.2468-27.6514 64.4953-21.3081 72.1148-21.3081ZM119.103-21.3081C126.605-21.3081 133.009-27.6514 133.009-35.1761C133.009-43.0131 126.927-49.082 119.103-49.082C111.369-49.082 105.083-42.8671 105.083-35.1761C105.083-27.6514 111.369-21.3081 119.103-21.3081Z"/>
  </g>
  <g id="Semibold-L" transform="matrix(1 0 0 1 1972.37 1556)">
   <path d="M24.4397-22.0332C31.7234-22.0332 37.7507-27.9739 37.7507-35.1708C37.7507-42.5472 31.9277-48.3517 24.4397-48.3517C17.2118-48.3517 11.2588-42.4543 11.2588-35.1708C11.2588-27.9739 17.2118-22.0332 24.4397-22.0332ZM70.8799-22.0332C78.0768-22.0332 84.0608-27.9739 84.0608-35.1708C84.0608-42.5472 78.2812-48.3517 70.8799-48.3517C63.6519-48.3517 57.7423-42.4543 57.7423-35.1708C57.7423-27.9739 63.6519-22.0332 70.8799-22.0332ZM117.363-22.0332C124.517-22.0332 130.544-27.9739 130.544-35.1708C130.544-42.5472 124.721-48.3517 117.363-48.3517C110.005-48.3517 104.052-42.4543 104.052-35.1708C104.052-27.9739 110.005-22.0332 117.363-22.0332Z"/>
  </g>
  <g id="Medium-L" transform="matrix(1 0 0 1 1676.59 1556)">
   <path d="M23.89-22.5831C30.9213-22.5831 36.6635-28.2184 36.6635-35.1668C36.6635-42.1939 31.0369-47.798 23.89-47.798C16.9589-47.798 11.2588-42.1414 11.2588-35.1668C11.2588-28.2184 16.9589-22.5831 23.89-22.5831ZM69.9435-22.5831C76.8799-22.5831 82.5747-28.2184 82.5747-35.1668C82.5747-42.1939 76.9956-47.798 69.9435-47.798C63.0124-47.798 57.3598-42.1414 57.3598-35.1668C57.3598-28.2184 63.0124-22.5831 69.9435-22.5831ZM116.044-22.5831C122.933-22.5831 128.676-28.2184 128.676-35.1668C128.676-42.1939 123.049-47.798 116.044-47.798C108.971-47.798 103.271-42.1414 103.271-35.1668C103.271-28.2184 108.971-22.5831 116.044-22.5831Z"/>
  </g>
  <g id="Regular-L" transform="matrix(1 0 0 1 1381.1 1556)">
   <path d="M23.1729-23.3003C29.875-23.3003 35.2453-28.5374 35.2453-35.1616C35.2453-41.7331 29.875-47.0757 23.1729-47.0757C16.6291-47.0757 11.2588-41.7331 11.2588-35.1616C11.2588-28.5374 16.6291-23.3003 23.1729-23.3003ZM68.7221-23.3003C75.3187-23.3003 80.6363-28.5374 80.6363-35.1616C80.6363-41.7331 75.3187-47.0757 68.7221-47.0757C62.1783-47.0757 56.8608-41.7331 56.8608-35.1616C56.8608-28.5374 62.1783-23.3003 68.7221-23.3003ZM114.324-23.3003C120.868-23.3003 126.238-28.5374 126.238-35.1616C126.238-41.7331 120.868-47.0757 114.324-47.0757C107.622-47.0757 102.252-41.7331 102.252-35.1616C102.252-28.5374 107.622-23.3003 114.324-23.3003Z"/>
  </g>
  <g id="Light-L" transform="matrix(1 0 0 1 1087.03 1556)">
   <path d="M22.2377-24.1973C28.3482-24.1973 33.3177-29.0527 33.3177-35.1425C33.3177-41.1987 28.3482-46.1215 22.2377-46.1215C16.2283-46.1215 11.2588-41.1987 11.2588-35.1425C11.2588-29.0527 16.2283-24.1973 22.2377-24.1973ZM66.0884-24.1973C72.1315-24.1973 77.0673-29.0527 77.0673-35.1425C77.0673-41.1987 72.1315-46.1215 66.0884-46.1215C60.0789-46.1215 55.1431-41.1987 55.1431-35.1425C55.1431-29.0527 60.0789-24.1973 66.0884-24.1973ZM109.973-24.1973C115.982-24.1973 120.952-29.0527 120.952-35.1425C120.952-41.1987 115.982-46.1215 109.973-46.1215C103.862-46.1215 98.8928-41.1987 98.8928-35.1425C98.8928-29.0527 103.862-24.1973 109.973-24.1973Z"/>
  </g>
  <g id="Thin-L" transform="matrix(1 0 0 1 793.813 1556)">
   <path d="M21.0009-25.3837C26.3288-25.3837 30.7683-29.7342 30.7683-35.1173C30.7683-40.4919 26.3288-44.8594 21.0009-44.8594C15.6982-44.8594 11.2588-40.4919 11.2588-35.1173C11.2588-29.7342 15.6982-25.3837 21.0009-25.3837ZM62.605-25.3837C67.9161-25.3837 72.3471-29.7342 72.3471-35.1173C72.3471-40.4919 67.9161-44.8594 62.605-44.8594C57.3023-44.8594 52.8714-40.4919 52.8714-35.1173C52.8714-29.7342 57.3023-25.3837 62.605-25.3837ZM104.218-25.3837C109.52-25.3837 113.96-29.7342 113.96-35.1173C113.96-40.4919 109.52-44.8594 104.218-44.8594C98.8896-44.8594 94.4502-40.4919 94.4502-35.1173C94.4502-29.7342 98.8896-25.3837 104.218-25.3837Z"/>
  </g>
  <g id="Ultralight-L" transform="matrix(1 0 0 1 498.893 1556)">
   <path d="M20.3674-25.9913C25.2945-25.9913 29.4625-30.0833 29.4625-35.1044C29.4625-40.1299 25.2945-44.2129 20.3674-44.2129C15.4267-44.2129 11.2588-40.1299 11.2588-35.1044C11.2588-30.0833 15.4267-25.9913 20.3674-25.9913ZM60.8208-25.9913C65.757-25.9913 69.9294-30.0833 69.9294-35.1044C69.9294-40.1299 65.757-44.2129 60.8208-44.2129C55.8802-44.2129 51.7078-40.1299 51.7078-35.1044C51.7078-30.0833 55.8802-25.9913 60.8208-25.9913ZM101.27-25.9913C106.21-25.9913 110.378-30.0833 110.378-35.1044C110.378-40.1299 106.21-44.2129 101.27-44.2129C96.3426-44.2129 92.1747-40.1299 92.1747-35.1044C92.1747-30.0833 96.3426-25.9913 101.27-25.9913Z"/>
  </g>
  <g id="Black-M" transform="matrix(1 0 0 1 2874.42 1126)">
   <path d="M21.529-22.3977C28.308-22.3977 34.3519-28.488 34.3519-35.1986C34.3519-42.5889 28.9361-48.005 21.529-48.005C14.5382-48.005 8.72266-42.3034 8.72266-35.1986C8.72266-28.488 14.5382-22.3977 21.529-22.3977ZM58.9785-22.3977C65.7465-22.3977 71.7849-28.488 71.7849-35.1986C71.7849-42.5889 66.3745-48.005 58.9785-48.005C51.9876-48.005 46.1776-42.3034 46.1776-35.1986C46.1776-28.488 51.9876-22.3977 58.9785-22.3977ZM96.4335-22.3977C103.196-22.3977 109.24-28.488 109.24-35.1986C109.24-42.5889 103.824-48.005 96.4335-48.005C89.4261-48.005 83.6106-42.3034 83.6106-35.1986C83.6106-28.488 89.4261-22.3977 96.4335-22.3977Z"/>
  </g>
  <g id="Heavy-M" transform="matrix(1 0 0 1 2578.7 1126)">
   <path d="M20.8109-23.1243C27.295-23.1243 32.9483-28.7861 32.9483-35.1961C32.9483-42.113 27.7748-47.2843 20.8109-47.2843C14.2015-47.2843 8.72266-41.8949 8.72266-35.1961C8.72266-28.7861 14.2015-23.1243 20.8109-23.1243ZM57.9789-23.1243C64.4302-23.1243 70.0671-28.7861 70.0671-35.1961C70.0671-42.113 64.91-47.2843 57.9789-47.2843C51.3695-47.2843 45.9071-41.8949 45.9071-35.1961C45.9071-28.7861 51.3695-23.1243 57.9789-23.1243ZM95.1633-23.1243C101.598-23.1243 107.252-28.7861 107.252-35.1961C107.252-42.113 102.078-47.2843 95.1633-47.2843C88.5047-47.2843 83.0259-41.8949 83.0259-35.1961C83.0259-28.7861 88.5047-23.1243 95.1633-23.1243Z"/>
  </g>
  <g id="Bold-M" transform="matrix(1 0 0 1 2283.1 1126)">
   <path d="M20.0075-23.937C26.1617-23.937 31.3782-29.1196 31.3782-35.1932C31.3782-41.5808 26.4758-46.478 20.0075-46.478C13.8249-46.478 8.72266-41.438 8.72266-35.1932C8.72266-29.1196 13.8249-23.937 20.0075-23.937ZM56.8607-23.937C62.9577-23.937 68.1455-29.1196 68.1455-35.1932C68.1455-41.5808 63.2717-46.478 56.8607-46.478C50.6781-46.478 45.6044-41.438 45.6044-35.1932C45.6044-29.1196 50.6781-23.937 56.8607-23.937ZM93.7424-23.937C99.8108-23.937 105.027-29.1196 105.027-35.1932C105.027-41.5808 100.125-46.478 93.7424-46.478C87.474-46.478 82.3717-41.438 82.3717-35.1932C82.3717-29.1196 87.474-23.937 93.7424-23.937Z"/>
  </g>
  <g id="Semibold-M" transform="matrix(1 0 0 1 1987.16 1126)">
   <path d="M19.4536-24.4973C25.3805-24.4973 30.2957-29.3495 30.2957-35.1912C30.2957-41.2138 25.5802-45.9222 19.4536-45.9222C13.5653-45.9222 8.72266-41.123 8.72266-35.1912C8.72266-29.3495 13.5653-24.4973 19.4536-24.4973ZM56.0897-24.4973C61.9425-24.4973 66.8207-29.3495 66.8207-35.1912C66.8207-41.2138 62.1423-45.9222 56.0897-45.9222C50.2014-45.9222 45.3958-41.123 45.3958-35.1912C45.3958-29.3495 50.2014-24.4973 56.0897-24.4973ZM92.7629-24.4973C98.5786-24.4973 103.494-29.3495 103.494-35.1912C103.494-41.2138 98.7784-45.9222 92.7629-45.9222C86.7634-45.9222 81.9208-41.123 81.9208-35.1912C81.9208-29.3495 86.7634-24.4973 92.7629-24.4973Z"/>
  </g>
  <g id="Medium-M" transform="matrix(1 0 0 1 1691.03 1126)">
   <path d="M19.0337-24.9221C24.7881-24.9221 29.475-29.5238 29.475-35.1897C29.475-40.9356 24.9012-45.5008 19.0337-45.5008C13.3684-45.5008 8.72266-40.8842 8.72266-35.1897C8.72266-29.5238 13.3684-24.9221 19.0337-24.9221ZM55.5052-24.9221C61.1728-24.9221 65.8162-29.5238 65.8162-35.1897C65.8162-40.9356 61.2859-45.5008 55.5052-45.5008C49.8399-45.5008 45.2376-40.8842 45.2376-35.1897C45.2376-29.5238 49.8399-24.9221 55.5052-24.9221ZM92.0202-24.9221C97.6443-24.9221 102.331-29.5238 102.331-35.1897C102.331-40.9356 97.7574-45.5008 92.0202-45.5008C86.2246-45.5008 81.5789-40.8842 81.5789-35.1897C81.5789-29.5238 86.2246-24.9221 92.0202-24.9221Z"/>
  </g>
  <g id="Regular-M" transform="matrix(1 0 0 1 1395.08 1126)">
   <path d="M18.4859-25.4763C24.0155-25.4763 28.4045-29.7512 28.4045-35.1878C28.4045-40.5726 24.0155-44.9511 18.4859-44.9511C13.1116-44.9511 8.72266-40.5726 8.72266-35.1878C8.72266-29.7512 13.1116-25.4763 18.4859-25.4763ZM54.7428-25.4763C60.1688-25.4763 64.5061-29.7512 64.5061-35.1878C64.5061-40.5726 60.1688-44.9511 54.7428-44.9511C49.3685-44.9511 45.0313-40.5726 45.0313-35.1878C45.0313-29.7512 49.3685-25.4763 54.7428-25.4763ZM91.0514-25.4763C96.4257-25.4763 100.815-29.7512 100.815-35.1878C100.815-40.5726 96.4257-44.9511 91.0514-44.9511C85.5218-44.9511 81.1329-40.5726 81.1329-35.1878C81.1329-29.7512 85.5218-25.4763 91.0514-25.4763Z"/>
  </g>
  <g id="Light-M" transform="matrix(1 0 0 1 1100.73 1126)">
   <path d="M17.6475-26.2805C22.6466-26.2805 26.6763-30.2132 26.6763-35.1707C26.6763-40.0935 22.6466-44.0955 17.6475-44.0955C12.7523-44.0955 8.72266-40.0935 8.72266-35.1707C8.72266-30.2132 12.7523-26.2805 17.6475-26.2805ZM52.3815-26.2805C57.3113-26.2805 61.3063-30.2132 61.3063-35.1707C61.3063-40.0935 57.3113-44.0955 52.3815-44.0955C47.4863-44.0955 43.4913-40.0935 43.4913-35.1707C43.4913-30.2132 47.4863-26.2805 52.3815-26.2805ZM87.1501-26.2805C92.0453-26.2805 96.0749-30.2132 96.0749-35.1707C96.0749-40.0935 92.0453-44.0955 87.1501-44.0955C82.151-44.0955 78.1213-40.0935 78.1213-35.1707C78.1213-30.2132 82.151-26.2805 87.1501-26.2805Z"/>
  </g>
  <g id="Thin-M" transform="matrix(1 0 0 1 807.158 1126)">
   <path d="M16.5386-27.3441C20.8362-27.3441 24.3906-30.8242 24.3906-35.148C24.3906-39.4599 20.8362-42.964 16.5386-42.964C12.2771-42.964 8.72266-39.4599 8.72266-35.148C8.72266-30.8242 12.2771-27.3441 16.5386-27.3441ZM49.2585-27.3441C53.532-27.3441 57.0744-30.8242 57.0744-35.148C57.0744-39.4599 53.532-42.964 49.2585-42.964C44.9969-42.964 41.4545-39.4599 41.4545-35.148C41.4545-30.8242 44.9969-27.3441 49.2585-27.3441ZM81.9903-27.3441C86.2519-27.3441 89.8063-30.8242 89.8063-35.148C89.8063-39.4599 86.2519-42.964 81.9903-42.964C77.6928-42.964 74.1384-39.4599 74.1384-35.148C74.1384-30.8242 77.6928-27.3441 81.9903-27.3441Z"/>
  </g>
  <g id="Ultralight-M" transform="matrix(1 0 0 1 512.052 1126)">
   <path d="M15.9706-27.8889C19.9089-27.8889 23.2198-31.1372 23.2198-35.1365C23.2198-39.1353 19.9089-42.3844 15.9706-42.3844C12.0336-42.3844 8.72266-39.1353 8.72266-35.1365C8.72266-31.1372 12.0336-27.8889 15.9706-27.8889ZM47.6589-27.8889C51.5963-27.8889 54.9068-31.1372 54.9068-35.1365C54.9068-39.1353 51.5963-42.3844 47.6589-42.3844C43.7219-42.3844 40.4113-39.1353 40.4113-35.1365C40.4113-31.1372 43.7219-27.8889 47.6589-27.8889ZM79.3475-27.8889C83.2845-27.8889 86.5955-31.1372 86.5955-35.1365C86.5955-39.1353 83.2845-42.3844 79.3475-42.3844C75.4093-42.3844 72.0983-39.1353 72.0983-35.1365C72.0983-31.1372 75.4093-27.8889 79.3475-27.8889Z"/>
  </g>
  <g id="Black-S" transform="matrix(1 0 0 1 2887.01 696)">
   <path d="M17.041-25C22.4121-25 27.2461-29.8828 27.2461-35.2051C27.2461-41.1133 22.9492-45.4102 17.041-45.4102C11.4746-45.4102 6.83594-40.8691 6.83594-35.2051C6.83594-29.8828 11.4746-25 17.041-25ZM46.3867-25C51.7578-25 56.5918-29.8828 56.5918-35.2051C56.5918-41.1133 52.2949-45.4102 46.3867-45.4102C40.8203-45.4102 36.1816-40.8691 36.1816-35.2051C36.1816-29.8828 40.8203-25 46.3867-25ZM75.7324-25C81.1035-25 85.9375-29.8828 85.9375-35.2051C85.9375-41.1133 81.6406-45.4102 75.7324-45.4102C70.166-45.4102 65.5273-40.8691 65.5273-35.2051C65.5273-29.8828 70.166-25 75.7324-25Z"/>
  </g>
  <g id="Heavy-S" transform="matrix(1 0 0 1 2590.85 696)">
   <path d="M16.5339-25.5186C21.7206-25.5186 26.2665-30.0787 26.2665-35.2051C26.2665-40.7675 22.131-44.9031 16.5339-44.9031C11.2326-44.9031 6.83594-40.581 6.83594-35.2051C6.83594-30.0787 11.2326-25.5186 16.5339-25.5186ZM45.8335-25.5186C50.9972-25.5186 55.5315-30.0787 55.5315-35.2051C55.5315-40.7675 51.4075-44.9031 45.8335-44.9031C40.5322-44.9031 36.1471-40.581 36.1471-35.2051C36.1471-30.0787 40.5322-25.5186 45.8335-25.5186ZM75.1447-25.5186C80.2968-25.5186 84.8427-30.0787 84.8427-35.2051C84.8427-40.7675 80.7071-44.9031 75.1447-44.9031C69.8088-44.9031 65.4121-40.581 65.4121-35.2051C65.4121-30.0787 69.8088-25.5186 75.1447-25.5186Z"/>
  </g>
  <g id="Bold-S" transform="matrix(1 0 0 1 2294.75 696)">
   <path d="M15.9668-26.0986C20.9473-26.0986 25.1709-30.2979 25.1709-35.2051C25.1709-40.3809 21.2158-44.3359 15.9668-44.3359C10.9619-44.3359 6.83594-40.2588 6.83594-35.2051C6.83594-30.2979 10.9619-26.0986 15.9668-26.0986ZM45.2148-26.0986C50.1465-26.0986 54.3457-30.2979 54.3457-35.2051C54.3457-40.3809 50.415-44.3359 45.2148-44.3359C40.21-44.3359 36.1084-40.2588 36.1084-35.2051C36.1084-30.2979 40.21-26.0986 45.2148-26.0986ZM74.4873-26.0986C79.3945-26.0986 83.6182-30.2979 83.6182-35.2051C83.6182-40.3809 79.6631-44.3359 74.4873-44.3359C69.4092-44.3359 65.2832-40.2588 65.2832-35.2051C65.2832-30.2979 69.4092-26.0986 74.4873-26.0986Z"/>
  </g>
  <g id="Semibold-S" transform="matrix(1 0 0 1 1998.46 696)">
   <path d="M15.5758-26.4985C20.4141-26.4985 24.4155-30.4489 24.4155-35.2051C24.4155-40.1143 20.5849-43.9449 15.5758-43.9449C10.7753-43.9449 6.83594-40.0366 6.83594-35.2051C6.83594-30.4489 10.7753-26.4985 15.5758-26.4985ZM44.7883-26.4985C49.56-26.4985 53.5281-30.4489 53.5281-35.2051C53.5281-40.1143 49.7308-43.9449 44.7883-43.9449C39.9878-43.9449 36.0817-40.0366 36.0817-35.2051C36.0817-30.4489 39.9878-26.4985 44.7883-26.4985ZM74.0341-26.4985C78.7725-26.4985 82.7739-30.4489 82.7739-35.2051C82.7739-40.1143 78.9433-43.9449 74.0341-43.9449C69.1337-43.9449 65.1943-40.0366 65.1943-35.2051C65.1943-30.4489 69.1337-26.4985 74.0341-26.4985Z"/>
  </g>
  <g id="Medium-S" transform="matrix(1 0 0 1 1702.07 696)">
   <path d="M15.2793-26.8018C20.0098-26.8018 23.8428-30.5635 23.8428-35.2051C23.8428-39.9121 20.1064-43.6484 15.2793-43.6484C10.6338-43.6484 6.83594-39.8682 6.83594-35.2051C6.83594-30.5635 10.6338-26.8018 15.2793-26.8018ZM44.4648-26.8018C49.1152-26.8018 52.9082-30.5635 52.9082-35.2051C52.9082-39.9121 49.2119-43.6484 44.4648-43.6484C39.8193-43.6484 36.0615-39.8682 36.0615-35.2051C36.0615-30.5635 39.8193-26.8018 44.4648-26.8018ZM73.6904-26.8018C78.3008-26.8018 82.1338-30.5635 82.1338-35.2051C82.1338-39.9121 78.3975-43.6484 73.6904-43.6484C68.9248-43.6484 65.127-39.8682 65.127-35.2051C65.127-30.5635 68.9248-26.8018 73.6904-26.8018Z"/>
  </g>
  <g id="Regular-S" transform="matrix(1 0 0 1 1405.78 696)">
   <path d="M14.8926-27.1973C19.4824-27.1973 23.0957-30.7129 23.0957-35.2051C23.0957-39.6484 19.4824-43.2617 14.8926-43.2617C10.4492-43.2617 6.83594-39.6484 6.83594-35.2051C6.83594-30.7129 10.4492-27.1973 14.8926-27.1973ZM44.043-27.1973C48.5352-27.1973 52.0996-30.7129 52.0996-35.2051C52.0996-39.6484 48.5352-43.2617 44.043-43.2617C39.5996-43.2617 36.0352-39.6484 36.0352-35.2051C36.0352-30.7129 39.5996-27.1973 44.043-27.1973ZM73.2422-27.1973C77.6855-27.1973 81.2988-30.7129 81.2988-35.2051C81.2988-39.6484 77.6855-43.2617 73.2422-43.2617C68.6523-43.2617 65.0391-39.6484 65.0391-35.2051C65.0391-30.7129 68.6523-27.1973 73.2422-27.1973Z"/>
  </g>
  <g id="Light-S" transform="matrix(1 0 0 1 1111.16 696)">
   <path d="M14.1509-27.9087C18.2715-27.9087 21.5669-31.1216 21.5669-35.1899C21.5669-39.2246 18.2715-42.5049 14.1509-42.5049C10.1314-42.5049 6.83594-39.2246 6.83594-35.1899C6.83594-31.1216 10.1314-27.9087 14.1509-27.9087ZM41.9541-27.9087C46.0073-27.9087 49.2691-31.1216 49.2691-35.1899C49.2691-39.2246 46.0073-42.5049 41.9541-42.5049C37.9346-42.5049 34.6729-39.2246 34.6729-35.1899C34.6729-31.1216 37.9346-27.9087 41.9541-27.9087ZM69.791-27.9087C73.8106-27.9087 77.106-31.1216 77.106-35.1899C77.106-39.2246 73.8106-42.5049 69.791-42.5049C65.6704-42.5049 62.375-39.2246 62.375-35.1899C62.375-31.1216 65.6704-27.9087 69.791-27.9087Z"/>
  </g>
  <g id="Thin-S" transform="matrix(1 0 0 1 817.224 696)">
   <path d="M13.1699-28.8496C16.6699-28.8496 19.5449-31.6621 19.5449-35.1699C19.5449-38.6641 16.6699-41.5039 13.1699-41.5039C9.71094-41.5039 6.83594-38.6641 6.83594-35.1699C6.83594-31.6621 9.71094-28.8496 13.1699-28.8496ZM39.1914-28.8496C42.6641-28.8496 45.5254-31.6621 45.5254-35.1699C45.5254-38.6641 42.6641-41.5039 39.1914-41.5039C35.7325-41.5039 32.8711-38.6641 32.8711-35.1699C32.8711-31.6621 35.7325-28.8496 39.1914-28.8496ZM65.2266-28.8496C68.6856-28.8496 71.5606-31.6621 71.5606-35.1699C71.5606-38.6641 68.6856-41.5039 65.2266-41.5039C61.7266-41.5039 58.8516-38.6641 58.8516-35.1699C58.8516-31.6621 61.7266-28.8496 65.2266-28.8496Z"/>
  </g>
  <g id="Ultralight-S" transform="matrix(1 0 0 1 521.933 696)">
   <path d="M12.6675-29.3315C15.8496-29.3315 18.5093-31.939 18.5093-35.1597C18.5093-38.377 15.8496-40.9912 12.6675-40.9912C9.49561-40.9912 6.83594-38.377 6.83594-35.1597C6.83594-31.939 9.49561-29.3315 12.6675-29.3315ZM37.7764-29.3315C40.9517-29.3315 43.608-31.939 43.608-35.1597C43.608-38.377 40.9517-40.9912 37.7764-40.9912C34.6045-40.9912 31.9483-38.377 31.9483-35.1597C31.9483-31.939 34.6045-29.3315 37.7764-29.3315ZM62.8888-29.3315C66.0606-29.3315 68.7203-31.939 68.7203-35.1597C68.7203-38.377 66.0606-40.9912 62.8888-40.9912C59.7066-40.9912 57.0469-38.377 57.0469-35.1597C57.0469-31.939 59.7066-29.3315 62.8888-29.3315Z"/>
  </g>
 </g>
</svg>
