<?xml version="1.0" encoding="UTF-8"?>
<!--Generator: Apple Native CoreSVG 175-->
<!DOCTYPE svg
PUBLIC "-//W3C//DTD SVG 1.1//EN"
       "http://www.w3.org/Graphics/SVG/1.1/DTD/svg11.dtd">
<svg version="1.1" xmlns="http://www.w3.org/2000/svg" xmlns:xlink="http://www.w3.org/1999/xlink" width="3300" height="2200">
 <!--glyph: "uni1008C9.medium", point size: 100.0, font version: "17.1d1e1", template writer version: "65.1"-->
 <g id="Notes">
  <rect height="2200" id="artboard" style="fill:white;opacity:1" width="3300" x="0" y="0"/>
  <line style="fill:none;stroke:black;opacity:1;stroke-width:0.5;" x1="263" x2="3036" y1="292" y2="292"/>
  <text style="stroke:none;fill:black;font-family:sans-serif;font-size:13;font-weight:bold;" transform="matrix(1 0 0 1 263 322)">Weight/Scale Variations</text>
  <text style="stroke:none;fill:black;font-family:sans-serif;font-size:13;text-anchor:middle;" transform="matrix(1 0 0 1 559.711 322)">Ultralight</text>
  <text style="stroke:none;fill:black;font-family:sans-serif;font-size:13;text-anchor:middle;" transform="matrix(1 0 0 1 856.422 322)">Thin</text>
  <text style="stroke:none;fill:black;font-family:sans-serif;font-size:13;text-anchor:middle;" transform="matrix(1 0 0 1 1153.13 322)">Light</text>
  <text style="stroke:none;fill:black;font-family:sans-serif;font-size:13;text-anchor:middle;" transform="matrix(1 0 0 1 1449.84 322)">Regular</text>
  <text style="stroke:none;fill:black;font-family:sans-serif;font-size:13;text-anchor:middle;" transform="matrix(1 0 0 1 1746.56 322)">Medium</text>
  <text style="stroke:none;fill:black;font-family:sans-serif;font-size:13;text-anchor:middle;" transform="matrix(1 0 0 1 2043.27 322)">Semibold</text>
  <text style="stroke:none;fill:black;font-family:sans-serif;font-size:13;text-anchor:middle;" transform="matrix(1 0 0 1 2339.98 322)">Bold</text>
  <text style="stroke:none;fill:black;font-family:sans-serif;font-size:13;text-anchor:middle;" transform="matrix(1 0 0 1 2636.69 322)">Heavy</text>
  <text style="stroke:none;fill:black;font-family:sans-serif;font-size:13;text-anchor:middle;" transform="matrix(1 0 0 1 2933.4 322)">Black</text>
  <line style="fill:none;stroke:black;opacity:1;stroke-width:0.5;" x1="263" x2="3036" y1="1903" y2="1903"/>
  <g transform="matrix(1 0 0 1 263 1933)">
   <path d="M9.24805 0.830078Q10.8691 0.830078 12.2949 0.214844Q13.7207-0.400391 14.8096-1.49414Q15.8984-2.58789 16.5186-4.01367Q17.1387-5.43945 17.1387-7.05078Q17.1387-8.66211 16.5186-10.0879Q15.8984-11.5137 14.8047-12.6074Q13.7109-13.7012 12.2852-14.3164Q10.8594-14.9316 9.23828-14.9316Q7.62695-14.9316 6.20117-14.3164Q4.77539-13.7012 3.69141-12.6074Q2.60742-11.5137 1.9873-10.0879Q1.36719-8.66211 1.36719-7.05078Q1.36719-5.43945 1.9873-4.01367Q2.60742-2.58789 3.69629-1.49414Q4.78516-0.400391 6.21094 0.214844Q7.63672 0.830078 9.24805 0.830078ZM9.24805-0.654297Q7.91992-0.654297 6.7627-1.14746Q5.60547-1.64062 4.73145-2.51953Q3.85742-3.39844 3.36426-4.56055Q2.87109-5.72266 2.87109-7.05078Q2.87109-8.37891 3.35938-9.54102Q3.84766-10.7031 4.72168-11.582Q5.5957-12.4609 6.75293-12.9541Q7.91016-13.4473 9.23828-13.4473Q10.5762-13.4473 11.7334-12.9541Q12.8906-12.4609 13.7695-11.582Q14.6484-10.7031 15.1465-9.54102Q15.6445-8.37891 15.6445-7.05078Q15.6445-5.72266 15.1514-4.56055Q14.6582-3.39844 13.7842-2.51953Q12.9102-1.64062 11.748-1.14746Q10.5859-0.654297 9.24805-0.654297ZM5.6543-7.05078Q5.6543-6.72852 5.85938-6.52832Q6.06445-6.32812 6.40625-6.32812L8.51562-6.32812L8.51562-4.20898Q8.51562-3.88672 8.71094-3.67676Q8.90625-3.4668 9.23828-3.4668Q9.56055-3.4668 9.77051-3.67676Q9.98047-3.88672 9.98047-4.20898L9.98047-6.32812L12.0898-6.32812Q12.4219-6.32812 12.627-6.52832Q12.832-6.72852 12.832-7.05078Q12.832-7.38281 12.627-7.58789Q12.4219-7.79297 12.0898-7.79297L9.98047-7.79297L9.98047-9.90234Q9.98047-10.2344 9.77051-10.4443Q9.56055-10.6543 9.23828-10.6543Q8.90625-10.6543 8.71094-10.4443Q8.51562-10.2344 8.51562-9.90234L8.51562-7.79297L6.40625-7.79297Q6.06445-7.79297 5.85938-7.58789Q5.6543-7.38281 5.6543-7.05078Z"/>
  </g>
  <g transform="matrix(1 0 0 1 281.867 1933)">
   <path d="M11.709 2.91016Q13.75 2.91016 15.5518 2.12891Q17.3535 1.34766 18.7305-0.0292969Q20.1074-1.40625 20.8887-3.20801Q21.6699-5.00977 21.6699-7.05078Q21.6699-9.0918 20.8887-10.8936Q20.1074-12.6953 18.7305-14.0723Q17.3535-15.4492 15.5469-16.2305Q13.7402-17.0117 11.6992-17.0117Q9.6582-17.0117 7.85645-16.2305Q6.05469-15.4492 4.68262-14.0723Q3.31055-12.6953 2.5293-10.8936Q1.74805-9.0918 1.74805-7.05078Q1.74805-5.00977 2.5293-3.20801Q3.31055-1.40625 4.6875-0.0292969Q6.06445 1.34766 7.86621 2.12891Q9.66797 2.91016 11.709 2.91016ZM11.709 1.25Q9.98047 1.25 8.47656 0.605469Q6.97266-0.0390625 5.83496-1.17676Q4.69727-2.31445 4.05762-3.81836Q3.41797-5.32227 3.41797-7.05078Q3.41797-8.7793 4.05762-10.2832Q4.69727-11.7871 5.83008-12.9297Q6.96289-14.0723 8.4668-14.7119Q9.9707-15.3516 11.6992-15.3516Q13.4277-15.3516 14.9316-14.7119Q16.4355-14.0723 17.5781-12.9297Q18.7207-11.7871 19.3652-10.2832Q20.0098-8.7793 20.0098-7.05078Q20.0098-5.32227 19.3701-3.81836Q18.7305-2.31445 17.5928-1.17676Q16.4551-0.0390625 14.9463 0.605469Q13.4375 1.25 11.709 1.25ZM7.17773-7.05078Q7.17773-6.69922 7.41211-6.47461Q7.64648-6.25 8.01758-6.25L10.8887-6.25L10.8887-3.36914Q10.8887-2.99805 11.1133-2.76855Q11.3379-2.53906 11.6895-2.53906Q12.0605-2.53906 12.29-2.76855Q12.5195-2.99805 12.5195-3.36914L12.5195-6.25L15.4004-6.25Q15.7715-6.25 16.001-6.47461Q16.2305-6.69922 16.2305-7.05078Q16.2305-7.42188 16.001-7.65137Q15.7715-7.88086 15.4004-7.88086L12.5195-7.88086L12.5195-10.752Q12.5195-11.1328 12.29-11.3623Q12.0605-11.5918 11.6895-11.5918Q11.3379-11.5918 11.1133-11.3574Q10.8887-11.123 10.8887-10.752L10.8887-7.88086L8.01758-7.88086Q7.63672-7.88086 7.40723-7.65137Q7.17773-7.42188 7.17773-7.05078Z"/>
  </g>
  <g transform="matrix(1 0 0 1 305.646 1933)">
   <path d="M14.9707 5.66406Q17.0605 5.66406 18.96 5.01465Q20.8594 4.36523 22.4512 3.19336Q24.043 2.02148 25.2197 0.429688Q26.3965-1.16211 27.0459-3.06641Q27.6953-4.9707 27.6953-7.05078Q27.6953-9.14062 27.0459-11.04Q26.3965-12.9395 25.2197-14.5312Q24.043-16.123 22.4512-17.2998Q20.8594-18.4766 18.9551-19.126Q17.0508-19.7754 14.9609-19.7754Q12.8711-19.7754 10.9717-19.126Q9.07227-18.4766 7.48535-17.2998Q5.89844-16.123 4.72168-14.5312Q3.54492-12.9395 2.90039-11.04Q2.25586-9.14062 2.25586-7.05078Q2.25586-4.9707 2.90527-3.06641Q3.55469-1.16211 4.72656 0.429688Q5.89844 2.02148 7.49023 3.19336Q9.08203 4.36523 10.9814 5.01465Q12.8809 5.66406 14.9707 5.66406ZM14.9707 3.84766Q13.1641 3.84766 11.5283 3.2959Q9.89258 2.74414 8.53516 1.74805Q7.17773 0.751953 6.17676-0.610352Q5.17578-1.97266 4.62891-3.6084Q4.08203-5.24414 4.08203-7.05078Q4.08203-8.86719 4.62891-10.5029Q5.17578-12.1387 6.17188-13.501Q7.16797-14.8633 8.52539-15.8594Q9.88281-16.8555 11.5186-17.4023Q13.1543-17.9492 14.9609-17.9492Q16.7773-17.9492 18.4131-17.4023Q20.0488-16.8555 21.4111-15.8594Q22.7734-14.8633 23.7695-13.501Q24.7656-12.1387 25.3174-10.5029Q25.8691-8.86719 25.8691-7.05078Q25.8789-5.24414 25.332-3.6084Q24.7852-1.97266 23.7842-0.610352Q22.7832 0.751953 21.4209 1.74805Q20.0586 2.74414 18.4229 3.2959Q16.7871 3.84766 14.9707 3.84766ZM9.19922-7.05078Q9.19922-6.66992 9.45801-6.4209Q9.7168-6.17188 10.1172-6.17188L14.0625-6.17188L14.0625-2.2168Q14.0625-1.81641 14.3115-1.55762Q14.5605-1.29883 14.9512-1.29883Q15.3516-1.29883 15.6104-1.55273Q15.8691-1.80664 15.8691-2.2168L15.8691-6.17188L19.8242-6.17188Q20.2246-6.17188 20.4785-6.4209Q20.7324-6.66992 20.7324-7.05078Q20.7324-7.46094 20.4785-7.71484Q20.2246-7.96875 19.8242-7.96875L15.8691-7.96875L15.8691-11.9141Q15.8691-12.3242 15.6104-12.583Q15.3516-12.8418 14.9512-12.8418Q14.5605-12.8418 14.3115-12.583Q14.0625-12.3242 14.0625-11.9141L14.0625-7.96875L10.1172-7.96875Q9.70703-7.96875 9.45312-7.71484Q9.19922-7.46094 9.19922-7.05078Z"/>
  </g>
  <text style="stroke:none;fill:black;font-family:sans-serif;font-size:13;font-weight:bold;" transform="matrix(1 0 0 1 263 1953)">Design Variations</text>
  <text style="stroke:none;fill:black;font-family:sans-serif;font-size:13;" transform="matrix(1 0 0 1 263 1971)">Symbols are supported in up to nine weights and three scales.</text>
  <text style="stroke:none;fill:black;font-family:sans-serif;font-size:13;" transform="matrix(1 0 0 1 263 1989)">For optimal layout with text and other symbols, vertically align</text>
  <text style="stroke:none;fill:black;font-family:sans-serif;font-size:13;" transform="matrix(1 0 0 1 263 2007)">symbols with the adjacent text.</text>
  <line style="fill:none;stroke:#00AEEF;stroke-width:0.5;opacity:1.0;" x1="776" x2="776" y1="1919" y2="1933"/>
  <g transform="matrix(1 0 0 1 776 1933)">
   <path d="M3.31055 0.15625Q3.70117 0.15625 3.91602-0.00976562Q4.13086-0.175781 4.26758-0.585938L5.52734-4.0332L11.2891-4.0332L12.5488-0.585938Q12.6855-0.175781 12.9004-0.00976562Q13.1152 0.15625 13.4961 0.15625Q13.8867 0.15625 14.1162-0.0585938Q14.3457-0.273438 14.3457-0.644531Q14.3457-0.869141 14.2383-1.17188L9.6582-13.3691Q9.48242-13.8184 9.17969-14.043Q8.87695-14.2676 8.4082-14.2676Q7.5-14.2676 7.17773-13.3789L2.59766-1.16211Q2.49023-0.859375 2.49023-0.634766Q2.49023-0.263672 2.70996-0.0537109Q2.92969 0.15625 3.31055 0.15625ZM6.00586-5.51758L8.37891-12.0898L8.42773-12.0898L10.8008-5.51758Z"/>
  </g>
  <line style="fill:none;stroke:#00AEEF;stroke-width:0.5;opacity:1.0;" x1="793.197" x2="793.197" y1="1919" y2="1933"/>
  <text style="stroke:none;fill:black;font-family:sans-serif;font-size:13;font-weight:bold;" transform="matrix(1 0 0 1 776 1953)">Margins</text>
  <text style="stroke:none;fill:black;font-family:sans-serif;font-size:13;" transform="matrix(1 0 0 1 776 1971)">Leading and trailing margins on the left and right side of each symbol</text>
  <text style="stroke:none;fill:black;font-family:sans-serif;font-size:13;" transform="matrix(1 0 0 1 776 1989)">can be adjusted by modifying the x-location of the margin guidelines.</text>
  <text style="stroke:none;fill:black;font-family:sans-serif;font-size:13;" transform="matrix(1 0 0 1 776 2007)">Modifications are automatically applied proportionally to all</text>
  <text style="stroke:none;fill:black;font-family:sans-serif;font-size:13;" transform="matrix(1 0 0 1 776 2025)">scales and weights.</text>
  <g transform="matrix(1 0 0 1 1289 1933)">
   <path d="M2.8418 1.86523L4.54102 3.57422Q5.18555 4.22852 5.90332 4.17969Q6.62109 4.13086 7.31445 3.35938L18.0078-8.42773L17.041-9.4043L6.42578 2.27539Q6.16211 2.57812 5.89355 2.61719Q5.625 2.65625 5.27344 2.30469L4.10156 1.14258Q3.75 0.791016 3.79395 0.522461Q3.83789 0.253906 4.14062-0.0195312L15.6152-10.8203L14.6387-11.7871L3.04688-0.898438Q2.30469-0.214844 2.25098 0.498047Q2.19727 1.21094 2.8418 1.86523ZM9.25781-16.3281Q8.94531-16.0254 8.90625-15.6348Q8.86719-15.2441 9.04297-14.9512Q9.21875-14.6777 9.55566-14.541Q9.89258-14.4043 10.3809-14.5215Q11.4746-14.7754 12.5977-14.7314Q13.7207-14.6875 14.7949-13.9844L14.209-12.5293Q13.9551-11.9043 14.0674-11.4404Q14.1797-10.9766 14.5801-10.5664L16.875-8.25195Q17.2363-7.88086 17.5781-7.82227Q17.9199-7.76367 18.3398-7.8418L19.4043-8.03711L20.0684-7.36328L20.0293-6.80664Q20-6.43555 20.1221-6.12305Q20.2441-5.81055 20.6055-5.44922L21.3672-4.70703Q21.7285-4.3457 22.1533-4.33105Q22.5781-4.31641 22.9297-4.66797L25.8398-7.58789Q26.1914-7.93945 26.1816-8.35449Q26.1719-8.76953 25.8105-9.13086L25.0391-9.89258Q24.6875-10.2539 24.3799-10.3857Q24.0723-10.5176 23.7109-10.4883L23.1348-10.4395L22.4902-11.0742L22.7344-12.1973Q22.832-12.6172 22.6953-12.9834Q22.5586-13.3496 22.1191-13.7891L19.9219-15.9766Q18.6719-17.2168 17.2607-17.8369Q15.8496-18.457 14.4189-18.4814Q12.9883-18.5059 11.665-17.959Q10.3418-17.4121 9.25781-16.3281ZM10.752-15.957Q11.6602-16.6211 12.7002-16.9043Q13.7402-17.1875 14.8047-17.085Q15.8691-16.9824 16.8701-16.5137Q17.8711-16.0449 18.7012-15.2051L21.1328-12.793Q21.3086-12.6172 21.3525-12.4512Q21.3965-12.2852 21.3379-12.0312L21.0156-10.5469L22.5195-9.0625L23.5059-9.12109Q23.6914-9.13086 23.7891-9.09668Q23.8867-9.0625 24.0332-8.91602L24.6094-8.33984L22.168-5.89844L21.5918-6.47461Q21.4453-6.62109 21.4062-6.71875Q21.3672-6.81641 21.377-7.01172L21.4453-7.98828L19.9512-9.47266L18.4277-9.21875Q18.1836-9.16992 18.042-9.2041Q17.9004-9.23828 17.7148-9.41406L15.7129-11.416Q15.5176-11.5918 15.4932-11.7529Q15.4688-11.9141 15.5859-12.1875L16.4648-14.2773Q15.293-15.3711 13.8281-15.791Q12.3633-16.2109 10.8398-15.7617Q10.7227-15.7324 10.6885-15.8057Q10.6543-15.8789 10.752-15.957Z"/>
  </g>
  <text style="stroke:none;fill:black;font-family:sans-serif;font-size:13;font-weight:bold;" transform="matrix(1 0 0 1 1289 1953)">Exporting</text>
  <text style="stroke:none;fill:black;font-family:sans-serif;font-size:13;" transform="matrix(1 0 0 1 1289 1971)">Symbols should be outlined when exporting to ensure the</text>
  <text style="stroke:none;fill:black;font-family:sans-serif;font-size:13;" transform="matrix(1 0 0 1 1289 1989)">design is preserved when submitting to Xcode.</text>
  <text id="template-version" style="stroke:none;fill:black;font-family:sans-serif;font-size:13;text-anchor:end;" transform="matrix(1 0 0 1 3036 1933)">Template v.2.0</text>
  <text style="stroke:none;fill:black;font-family:sans-serif;font-size:13;text-anchor:end;" transform="matrix(1 0 0 1 3036 1951)">Requires Xcode 12 or greater</text>
  <text id="descriptive-name" style="stroke:none;fill:black;font-family:sans-serif;font-size:13;text-anchor:end;" transform="matrix(1 0 0 1 3036 1969)">Generated from chart.bar.xaxis</text>
  <text style="stroke:none;fill:black;font-family:sans-serif;font-size:13;text-anchor:end;" transform="matrix(1 0 0 1 3036 1987)">Typeset at 100 points</text>
  <text style="stroke:none;fill:black;font-family:sans-serif;font-size:13;" transform="matrix(1 0 0 1 263 726)">Small</text>
  <text style="stroke:none;fill:black;font-family:sans-serif;font-size:13;" transform="matrix(1 0 0 1 263 1156)">Medium</text>
  <text style="stroke:none;fill:black;font-family:sans-serif;font-size:13;" transform="matrix(1 0 0 1 263 1586)">Large</text>
 </g>
 <g id="Guides">
  <g id="H-reference" style="fill:#27AAE1;stroke:none;" transform="matrix(1 0 0 1 339 696)">
   <path d="M0.976562 0L3.66211 0L29.3457-67.1387L30.0293-67.1387L30.0293-70.459L28.125-70.459ZM11.6699-24.4629L46.9727-24.4629L46.2402-26.709L12.4512-26.709ZM55.127 0L57.7637 0L30.6152-70.459L29.4434-70.459L29.4434-67.1387Z"/>
  </g>
  <line id="Baseline-S" style="fill:none;stroke:#27AAE1;opacity:1;stroke-width:0.5;" x1="263" x2="3036" y1="696" y2="696"/>
  <line id="Capline-S" style="fill:none;stroke:#27AAE1;opacity:1;stroke-width:0.5;" x1="263" x2="3036" y1="625.541" y2="625.541"/>
  <g id="H-reference" style="fill:#27AAE1;stroke:none;" transform="matrix(1 0 0 1 339 1126)">
   <path d="M0.976562 0L3.66211 0L29.3457-67.1387L30.0293-67.1387L30.0293-70.459L28.125-70.459ZM11.6699-24.4629L46.9727-24.4629L46.2402-26.709L12.4512-26.709ZM55.127 0L57.7637 0L30.6152-70.459L29.4434-70.459L29.4434-67.1387Z"/>
  </g>
  <line id="Baseline-M" style="fill:none;stroke:#27AAE1;opacity:1;stroke-width:0.5;" x1="263" x2="3036" y1="1126" y2="1126"/>
  <line id="Capline-M" style="fill:none;stroke:#27AAE1;opacity:1;stroke-width:0.5;" x1="263" x2="3036" y1="1055.54" y2="1055.54"/>
  <g id="H-reference" style="fill:#27AAE1;stroke:none;" transform="matrix(1 0 0 1 339 1556)">
   <path d="M0.976562 0L3.66211 0L29.3457-67.1387L30.0293-67.1387L30.0293-70.459L28.125-70.459ZM11.6699-24.4629L46.9727-24.4629L46.2402-26.709L12.4512-26.709ZM55.127 0L57.7637 0L30.6152-70.459L29.4434-70.459L29.4434-67.1387Z"/>
  </g>
  <line id="Baseline-L" style="fill:none;stroke:#27AAE1;opacity:1;stroke-width:0.5;" x1="263" x2="3036" y1="1556" y2="1556"/>
  <line id="Capline-L" style="fill:none;stroke:#27AAE1;opacity:1;stroke-width:0.5;" x1="263" x2="3036" y1="1485.54" y2="1485.54"/>
  <line id="left-margin" style="fill:none;stroke:#00AEEF;stroke-width:0.5;opacity:1.0;" x1="1386.48" x2="1386.48" y1="1030.79" y2="1150.12"/>
  <line id="right-margin" style="fill:none;stroke:#00AEEF;stroke-width:0.5;opacity:1.0;" x1="1513.21" x2="1513.21" y1="1030.79" y2="1150.12"/>
 </g>
 <g id="Symbols">
  <g id="Black-L" transform="matrix(1 0 0 1 2840.89 1556)">
   <path d="M16.084 18.8324Q16.084 23.2635 19.0209 26.0427Q21.9578 28.822 26.3085 28.822L158.715 28.822Q163.066 28.822 166.002 26.0427Q168.938 23.2635 168.938 18.8324Q168.938 14.4207 166.002 11.6317Q163.066 8.84278 158.715 8.84278L26.3085 8.84278Q21.9578 8.84278 19.0209 11.6317Q16.084 14.4207 16.084 18.8324ZM26.3059-9.43329Q26.3059-5.77858 28.5309-3.54575Q30.7559-1.31291 34.3184-1.31291L46.3633-1.31291Q49.9803-1.31291 52.1774-3.54575Q54.3745-5.77858 54.3745-9.43329L54.3745-55.2255Q54.3745-58.9594 52.1774-61.1915Q49.9803-63.4237 46.3633-63.4237L34.3184-63.4237Q30.7559-63.4237 28.5309-61.1915Q26.3059-58.9594 26.3059-55.2255ZM61.0853-9.43329Q61.0853-5.77858 63.3005-3.54575Q65.5158-1.31291 69.1561-1.31291L81.1206-1.31291Q84.761-1.31291 86.9574-3.54575Q89.1538-5.77858 89.1538-9.43329L89.1538-82.2866Q89.1538-86.001 86.9574-88.2228Q84.761-90.4446 81.1206-90.4446L69.1561-90.4446Q65.5158-90.4446 63.3005-88.2228Q61.0853-86.001 61.0853-82.2866ZM95.8464-9.43329Q95.8464-5.77858 98.0137-3.54575Q100.181-1.31291 103.819-1.31291L115.903-1.31291Q119.543-1.31291 121.729-3.54575Q123.915-5.77858 123.915-9.43329L123.915-66.4009Q123.915-70.1335 121.729-72.367Q119.543-74.6004 115.903-74.6004L103.819-74.6004Q100.181-74.6004 98.0137-72.367Q95.8464-70.1335 95.8464-66.4009ZM130.627-9.43329Q130.627-5.77858 132.853-3.54575Q135.078-1.31291 138.64-1.31291L150.684-1.31291Q154.303-1.31291 156.5-3.54575Q158.697-5.77858 158.697-9.43329L158.697-44.0653Q158.697-47.7772 156.5-50.0204Q154.303-52.2636 150.684-52.2636L138.64-52.2636Q135.078-52.2636 132.853-50.0204Q130.627-47.7772 130.627-44.0653Z"/>
  </g>
  <g id="Heavy-L" transform="matrix(1 0 0 1 2546.7 1556)">
   <path d="M16.084 18.7837Q16.084 22.6374 18.6626 25.0835Q21.2412 27.5296 25.0144 27.5296L154.976 27.5296Q158.749 27.5296 161.325 25.0835Q163.9 22.6374 163.9 18.7837Q163.9 14.9538 161.325 12.4958Q158.749 10.0378 154.976 10.0378L25.0144 10.0378Q21.2412 10.0378 18.6626 12.4958Q16.084 14.9538 16.084 18.7837ZM25.0024-7.2493Q25.0024-3.894 27.0477-1.85913Q29.093 0.175747 32.407 0.175747L44.9517 0.175747Q48.2921 0.175747 50.3212-1.85913Q52.3502-3.894 52.3502-7.2493L52.3502-54.7696Q52.3502-58.1993 50.3212-60.2311Q48.2921-62.263 44.9517-62.263L32.407-62.263Q29.093-62.263 27.0477-60.2311Q25.0024-58.1993 25.0024-54.7696ZM59.2069-7.2493Q59.2069-3.894 61.2404-1.85913Q63.2739 0.175747 66.6562 0.175747L79.1204 0.175747Q82.5027 0.175747 84.5288-1.85913Q86.5548-3.894 86.5548-7.2493L86.5548-81.9512Q86.5548-85.3572 84.5288-87.3742Q82.5027-89.3911 79.1204-89.3911L66.6562-89.3911Q63.2739-89.3911 61.2404-87.3742Q59.2069-85.3572 59.2069-81.9512ZM93.3938-7.2493Q93.3938-3.894 95.3976-1.85913Q97.4013 0.175747 100.771 0.175747L113.337 0.175747Q116.719 0.175747 118.731-1.85913Q120.742-3.894 120.742-7.2493L120.742-66.5681Q120.742-69.9917 118.731-72.0296Q116.719-74.0675 113.337-74.0675L100.771-74.0675Q97.4013-74.0675 95.3976-72.0296Q93.3938-69.9917 93.3938-66.5681ZM127.604-7.2493Q127.604-3.894 129.653-1.85913Q131.701 0.175747 135.009 0.175747L147.554 0.175747Q150.9 0.175747 152.929-1.85913Q154.958-3.894 154.958-7.2493L154.958-43.0966Q154.958-46.4905 152.929-48.5403Q150.9-50.59 147.554-50.59L135.009-50.59Q131.701-50.59 129.653-48.5403Q127.604-46.4905 127.604-43.0966Z"/>
  </g>
  <g id="Bold-L" transform="matrix(1 0 0 1 2252.78 1556)">
   <path d="M16.084 18.8502Q16.084 22.0004 18.22 24.0307Q20.356 26.061 23.4258 26.061L150.983 26.061Q154.053 26.061 156.182 24.0307Q158.311 22.0004 158.311 18.8502Q158.311 15.7228 156.182 13.6811Q154.053 11.6394 150.983 11.6394L23.4258 11.6394Q20.356 11.6394 18.22 13.6811Q16.084 15.7228 16.084 18.8502ZM23.3973-4.4349Q23.3973-1.42895 25.2331 0.377287Q27.0688 2.18352 30.096 2.18352L43.3524 2.18352Q46.3661 2.18352 48.2015 0.377287Q50.0369-1.42895 50.0369-4.4349L50.0369-54.3258Q50.0369-57.3979 48.2015-59.1971Q46.3661-60.9962 43.3524-60.9962L30.096-60.9962Q27.0688-60.9962 25.2331-59.1971Q23.3973-57.3979 23.3973-54.3258ZM57.0367-4.4349Q57.0367-1.42895 58.861 0.377287Q60.6854 2.18352 63.7646 2.18352L76.9405 2.18352Q80.0197 2.18352 81.8479 0.377287Q83.6762-1.42895 83.6762-4.4349L83.6762-81.7488Q83.6762-84.7982 81.8479-86.5788Q80.0197-88.3594 76.9405-88.3594L63.7646-88.3594Q60.6854-88.3594 58.861-86.5788Q57.0367-84.7982 57.0367-81.7488ZM90.6675-4.4349Q90.6675-1.42895 92.4811 0.377287Q94.2948 2.18352 97.3455 2.18352L110.608 2.18352Q113.687 2.18352 115.497 0.377287Q117.307-1.42895 117.307-4.4349L117.307-66.873Q117.307-69.931 115.497-71.7443Q113.687-73.5577 110.608-73.5577L97.3455-73.5577Q94.2948-73.5577 92.4811-71.7443Q90.6675-69.931 90.6675-66.873ZM124.321-4.4349Q124.321-1.42895 126.164 0.377287Q128.007 2.18352 131.02 2.18352L144.276 2.18352Q147.304 2.18352 149.139 0.377287Q150.975-1.42895 150.975-4.4349L150.975-42.0274Q150.975-45.0483 149.139-46.8731Q147.304-48.6978 144.276-48.6978L131.02-48.6978Q128.007-48.6978 126.164-46.8731Q124.321-45.0483 124.321-42.0274Z"/>
  </g>
  <g id="Semibold-L" transform="matrix(1 0 0 1 1958 1556)">
   <path d="M16.084 18.896Q16.084 21.5612 17.9149 23.3048Q19.7458 25.0484 22.3306 25.0484L148.231 25.0484Q150.816 25.0484 152.637 23.3048Q154.458 21.5612 154.458 18.896Q154.458 16.2529 152.637 14.4982Q150.816 12.7435 148.231 12.7435L22.3306 12.7435Q19.7458 12.7435 17.9149 14.4982Q16.084 16.2529 16.084 18.896ZM22.2909-2.49468Q22.2909 0.270441 23.9821 1.91906Q25.6733 3.56767 28.5029 3.56767L42.2499 3.56767Q45.0384 3.56767 46.7402 1.91906Q48.442 0.270441 48.442-2.49468L48.442-54.0198Q48.442-56.8455 46.7402-58.4842Q45.0384-60.1228 42.2499-60.1228L28.5029-60.1228Q25.6733-60.1228 23.9821-58.4842Q22.2909-56.8455 22.2909-54.0198ZM55.5405-2.49468Q55.5405 0.270441 57.2207 1.91906Q58.9009 3.56767 61.7711 3.56767L75.4377 3.56767Q78.3079 3.56767 79.9998 1.91906Q81.6917 0.270441 81.6917-2.49468L81.6917-81.6092Q81.6917-84.4128 79.9998-86.0305Q78.3079-87.6482 75.4377-87.6482L61.7711-87.6482Q58.9009-87.6482 57.2207-86.0305Q55.5405-84.4128 55.5405-81.6092ZM88.788-2.49468Q88.788 0.270441 90.4706 1.91906Q92.1532 3.56767 94.9837 3.56767L108.727 3.56767Q111.597 3.56767 113.268 1.91906Q114.939 0.270441 114.939-2.49468L114.939-67.0833Q114.939-69.8891 113.268-71.5476Q111.597-73.2062 108.727-73.2062L94.9837-73.2062Q92.1532-73.2062 90.4706-71.5476Q88.788-69.8891 88.788-67.0833ZM122.058-2.49468Q122.058 0.270441 123.759 1.91906Q125.46 3.56767 128.27 3.56767L142.017 3.56767Q144.825 3.56767 146.527 1.91906Q148.229 0.270441 148.229-2.49468L148.229-41.2903Q148.229-44.0541 146.527-45.7237Q144.825-47.3933 142.017-47.3933L128.27-47.3933Q125.46-47.3933 123.759-45.7237Q122.058-44.0541 122.058-41.2903Z"/>
  </g>
  <g id="Medium-L" transform="matrix(1 0 0 1 1662.75 1556)">
   <path d="M16.084 18.9307Q16.084 21.2282 17.6836 22.7545Q19.2831 24.2807 21.5002 24.2807L146.144 24.2807Q148.361 24.2807 149.948 22.7545Q151.536 21.2282 151.536 18.9307Q151.536 16.6549 149.948 15.1178Q148.361 13.5807 146.144 13.5807L21.5002 13.5807Q19.2831 13.5807 17.6836 15.1178Q16.084 16.6549 16.084 18.9307ZM21.4519-1.02352Q21.4519 1.55899 23.0336 3.08809Q24.6152 4.61719 27.2949 4.61719L41.4139 4.61719Q44.0316 4.61719 45.6322 3.08809Q47.2328 1.55899 47.2328-1.02352L47.2328-53.7878Q47.2328-56.4266 45.6322-57.9436Q44.0316-59.4607 41.4139-59.4607L27.2949-59.4607Q24.6152-59.4607 23.0336-57.9436Q21.4519-56.4266 21.4519-53.7878ZM54.4061-1.02352Q54.4061 1.55899 55.977 3.08809Q57.5478 4.61719 60.2596 4.61719L74.2982 4.61719Q77.01 4.61719 78.5985 3.08809Q80.187 1.55899 80.187-1.02352L80.187-81.5034Q80.187-84.1206 78.5985-85.6147Q77.01-87.1089 74.2982-87.1089L60.2596-87.1089Q57.5478-87.1089 55.977-85.6147Q54.4061-84.1206 54.4061-81.5034ZM87.3628-1.02352Q87.3628 1.55899 88.9461 3.08809Q90.5293 4.61719 93.1928 4.61719L107.301 4.61719Q110.012 4.61719 111.578 3.08809Q113.144 1.55899 113.144-1.02352L113.144-67.2427Q113.144-69.8573 111.578-71.3985Q110.012-72.9397 107.301-72.9397L93.1928-72.9397Q90.5293-72.9397 88.9461-71.3985Q87.3628-69.8573 87.3628-67.2427ZM120.341-1.02352Q120.341 1.55899 121.935 3.08809Q123.529 4.61719 126.184 4.61719L140.303 4.61719Q142.945 4.61719 144.546 3.08809Q146.146 1.55899 146.146-1.02352L146.146-40.7314Q146.146-43.3002 144.546-44.8522Q142.945-46.4042 140.303-46.4042L126.184-46.4042Q123.529-46.4042 121.935-44.8522Q120.341-43.3002 120.341-40.7314Z"/>
  </g>
  <g id="Regular-L" transform="matrix(1 0 0 1 1367.94 1556)">
   <path d="M16.084 18.976Q16.084 20.7939 17.3818 22.0366Q18.6796 23.2794 20.417 23.2794L143.421 23.2794Q145.159 23.2794 146.442 22.0366Q147.725 20.7939 147.725 18.976Q147.725 17.1792 146.442 15.926Q145.159 14.6727 143.421 14.6727L20.417 14.6727Q18.6796 14.6727 17.3818 15.926Q16.084 17.1792 16.084 18.976ZM20.3576 0.895384Q20.3576 3.23971 21.7963 4.61292Q23.2351 5.98613 25.7193 5.98613L40.3235 5.98613Q42.7185 5.98613 44.187 4.61292Q45.6555 3.23971 45.6555 0.895384L45.6555-53.4852Q45.6555-55.8802 44.187-57.2386Q42.7185-58.5969 40.3235-58.5969L25.7193-58.5969Q23.2351-58.5969 21.7963-57.2386Q20.3576-55.8802 20.3576-53.4852ZM52.9264 0.895384Q52.9264 3.23971 54.3547 4.61292Q55.7829 5.98613 58.2881 5.98613L72.8119 5.98613Q75.317 5.98613 76.7707 4.61292Q78.2243 3.23971 78.2243 0.895384L78.2243-81.3654Q78.2243-83.7395 76.7707-85.0725Q75.317-86.4055 72.8119-86.4055L58.2881-86.4055Q55.7829-86.4055 54.3547-85.0725Q52.9264-83.7395 52.9264-81.3654ZM85.504 0.895384Q85.504 3.23971 86.9576 4.61292Q88.4112 5.98613 90.8569 5.98613L105.44 5.98613Q107.945 5.98613 109.374 4.61292Q110.802 3.23971 110.802 0.895384L110.802-67.4507Q110.802-69.8159 109.374-71.204Q107.945-72.5921 105.44-72.5921L90.8569-72.5921Q88.4112-72.5921 86.9576-71.204Q85.504-69.8159 85.504-67.4507ZM118.103 0.895384Q118.103 3.23971 119.556 4.61292Q121.01 5.98613 123.464 5.98613L138.068 5.98613Q140.493 5.98613 141.962 4.61292Q143.43 3.23971 143.43 0.895384L143.43-40.0023Q143.43-42.3169 141.962-43.7155Q140.493-45.114 138.068-45.114L123.464-45.114Q121.01-45.114 119.556-43.7155Q118.103-42.3169 118.103-40.0023Z"/>
  </g>
  <g id="Light-L" transform="matrix(1 0 0 1 1071.06 1556)">
   <path d="M16.084 19.838Q16.084 21.2454 17.0842 22.1803Q18.0845 23.1152 19.4115 23.1152L144.776 23.1152Q146.103 23.1152 147.078 22.1803Q148.053 21.2454 148.053 19.838Q148.053 18.4105 147.078 17.4856Q146.103 16.5608 144.776 16.5608L19.4115 16.5608Q18.0845 16.5608 17.0842 17.4856Q16.084 18.4105 16.084 19.838ZM19.3109 3.54272Q19.3109 5.78443 20.6881 7.10634Q22.0653 8.42825 24.488 8.42825L40.1798 8.42825Q42.4517 8.42825 43.8791 7.10634Q45.3066 5.78443 45.3066 3.54272L45.3066-53.9572Q45.3066-56.2291 43.8791-57.5259Q42.4517-58.8227 40.1798-58.8227L24.488-58.8227Q22.0653-58.8227 20.6881-57.5259Q19.3109-56.2291 19.3109-53.9572ZM52.4338 3.54272Q52.4338 5.78443 53.8211 7.10634Q55.2083 8.42825 57.6109 8.42825L73.2223 8.42825Q75.6249 8.42825 77.0272 7.10634Q78.4295 5.78443 78.4295 3.54272L78.4295-82.5967Q78.4295-84.8887 77.0272-86.1704Q75.6249-87.4521 73.2223-87.4521L57.6109-87.4521Q55.2083-87.4521 53.8211-86.1704Q52.4338-84.8887 52.4338-82.5967ZM85.6271 3.54272Q85.6271 5.78443 87.0294 7.10634Q88.4318 8.42825 90.7338 8.42825L106.446 8.42825Q108.848 8.42825 110.236 7.10634Q111.623 5.78443 111.623 3.54272L111.623-68.2921Q111.623-70.5137 110.236-71.8607Q108.848-73.2077 106.446-73.2077L90.7338-73.2077Q88.4318-73.2077 87.0294-71.8607Q85.6271-70.5137 85.6271-68.2921ZM118.8 3.54272Q118.8 5.78443 120.203 7.10634Q121.605 8.42825 123.977 8.42825L139.669 8.42825Q141.991 8.42825 143.419 7.10634Q144.846 5.78443 144.846 3.54272L144.846-40.1049Q144.846-42.2964 143.419-43.6334Q141.991-44.9704 139.669-44.9704L123.977-44.9704Q121.605-44.9704 120.203-43.6334Q118.8-42.2964 118.8-40.1049Z"/>
  </g>
  <g id="Thin-L" transform="matrix(1 0 0 1 774.137 1556)">
   <path d="M16.084 20.9779Q16.084 21.8425 16.6907 22.3703Q17.2974 22.898 18.0815 22.898L146.567 22.898Q147.351 22.898 147.919 22.3703Q148.487 21.8425 148.487 20.9779Q148.487 20.039 147.919 19.5484Q147.351 19.0578 146.567 19.0578L18.0815 19.0578Q17.2974 19.0578 16.6907 19.5484Q16.084 20.039 16.084 20.9779ZM17.9267 7.04403Q17.9267 9.15004 19.2225 10.4041Q20.5182 11.6581 22.8595 11.6581L39.9898 11.6581Q42.0988 11.6581 43.472 10.4041Q44.8452 9.15004 44.8452 7.04403L44.8452-54.5815Q44.8452-56.6905 43.472-57.9059Q42.0988-59.1212 39.9898-59.1212L22.8595-59.1212Q20.5182-59.1212 19.2225-57.9059Q17.9267-56.6905 17.9267-54.5815ZM51.7824 7.04403Q51.7824 9.15004 53.1154 10.4041Q54.4484 11.6581 56.7152 11.6581L73.7651 11.6581Q76.032 11.6581 77.3665 10.4041Q78.7009 9.15004 78.7009 7.04403L78.7009-84.2252Q78.7009-86.4086 77.3665-87.6225Q76.032-88.8363 73.7651-88.8363L56.7152-88.8363Q54.4484-88.8363 53.1154-87.6225Q51.7824-86.4086 51.7824-84.2252ZM85.79 7.04403Q85.79 9.15004 87.1244 10.4041Q88.4589 11.6581 90.5709 11.6581L107.776 11.6581Q110.043 11.6581 111.375 10.4041Q112.708 9.15004 112.708 7.04403L112.708-69.4049Q112.708-71.4365 111.375-72.7292Q110.043-74.022 107.776-74.022L90.5709-74.022Q88.4589-74.022 87.1244-72.7292Q85.79-71.4365 85.79-69.4049ZM119.723 7.04403Q119.723 9.15004 121.058 10.4041Q122.392 11.6581 124.656 11.6581L141.786 11.6581Q143.973 11.6581 145.346 10.4041Q146.719 9.15004 146.719 7.04403L146.719-40.2407Q146.719-42.2693 145.346-43.5248Q143.973-44.7804 141.786-44.7804L124.656-44.7804Q122.392-44.7804 121.058-43.5248Q119.723-42.2693 119.723-40.2407Z"/>
  </g>
  <g id="Ultralight-L" transform="matrix(1 0 0 1 477.314 1556)">
   <path d="M16.084 21.5618Q16.084 22.1483 16.4891 22.4676Q16.8942 22.7868 17.4003 22.7868L147.485 22.7868Q147.991 22.7868 148.35 22.4676Q148.71 22.1483 148.71 21.5618Q148.71 20.8731 148.35 20.605Q147.991 20.3368 147.485 20.3368L17.4003 20.3368Q16.8942 20.3368 16.4891 20.605Q16.084 20.8731 16.084 21.5618ZM17.2177 8.83738Q17.2177 10.8739 18.4718 12.0932Q19.7258 13.3125 22.0253 13.3125L39.8925 13.3125Q41.9181 13.3125 43.2635 12.0932Q44.6089 10.8739 44.6089 8.83738L44.6089-54.9012Q44.6089-56.9269 43.2635-58.1005Q41.9181-59.2741 39.8925-59.2741L22.0253-59.2741Q19.7258-59.2741 18.4718-58.1005Q17.2177-56.9269 17.2177-54.9012ZM51.4488 8.83738Q51.4488 10.8739 52.7539 12.0932Q54.0591 13.3125 56.2564 13.3125L74.0432 13.3125Q76.2405 13.3125 77.5402 12.0932Q78.8399 10.8739 78.8399 8.83738L78.8399-85.0593Q78.8399-87.1871 77.5402-88.3662Q76.2405-89.5453 74.0432-89.5453L56.2564-89.5453Q54.0591-89.5453 52.7539-88.3662Q51.4488-87.1871 51.4488-85.0593ZM85.8734 8.83738Q85.8734 10.8739 87.1731 12.0932Q88.4728 13.3125 90.4875 13.3125L108.457 13.3125Q110.654 13.3125 111.959 12.0932Q113.265 10.8739 113.265 8.83738L113.265-69.9749Q113.265-71.9092 111.959-73.1741Q110.654-74.4391 108.457-74.4391L90.4875-74.4391Q88.4728-74.4391 87.1731-73.1741Q85.8734-71.9092 85.8734-69.9749ZM120.196 8.83738Q120.196 10.8739 121.495 12.0932Q122.795 13.3125 125.003 13.3125L142.871 13.3125Q144.987 13.3125 146.333 12.0932Q147.678 10.8739 147.678 8.83738L147.678-40.3102Q147.678-42.2554 146.333-43.4692Q144.987-44.6831 142.871-44.6831L125.003-44.6831Q122.795-44.6831 121.495-43.4692Q120.196-42.2554 120.196-40.3102Z"/>
  </g>
  <g id="Black-M" transform="matrix(1 0 0 1 2859.54 1126)">
   <path d="M12.4609 6.8131Q12.4609 10.6867 15.0039 13.0845Q17.5469 15.4823 21.3582 15.4823L126.36 15.4823Q130.171 15.4823 132.715 13.0845Q135.258 10.6867 135.258 6.8131Q135.258 2.94531 132.715 0.544609Q130.171-1.85609 126.36-1.85609L21.3582-1.85609Q17.5469-1.85609 15.0039 0.544609Q12.4609 2.94531 12.4609 6.8131ZM21.3588-16.7624Q21.3588-13.6875 23.2287-11.7945Q25.0985-9.90142 28.0638-9.90142L37.1133-9.90142Q40.1366-9.90142 41.9776-11.7945Q43.8187-13.6875 43.8187-16.7624L43.8187-51.177Q43.8187-54.3145 41.9776-56.2077Q40.1366-58.1009 37.1133-58.1009L28.0638-58.1009Q25.0985-58.1009 23.2287-56.2077Q21.3588-54.3145 21.3588-51.177ZM48.8729-16.7624Q48.8729-13.6875 50.7398-11.7945Q52.6068-9.90142 55.635-9.90142L64.6222-9.90142Q67.6504-9.90142 69.4915-11.7945Q71.3327-13.6875 71.3327-16.7624L71.3327-72.1416Q71.3327-75.2733 69.4915-77.1637Q67.6504-79.0542 64.6222-79.0542L55.635-79.0542Q52.6068-79.0542 50.7398-77.1637Q48.8729-75.2733 48.8729-72.1416ZM76.3808-16.7624Q76.3808-13.6875 78.1934-11.7945Q80.006-9.90142 83.0348-9.90142L92.1356-9.90142Q95.1638-9.90142 97.0022-11.7945Q98.8406-13.6875 98.8406-16.7624L98.8406-59.3497Q98.8406-62.4875 97.0022-64.3804Q95.1638-66.2733 92.1356-66.2733L83.0348-66.2733Q80.006-66.2733 78.1934-64.3804Q76.3808-62.4875 76.3808-59.3497ZM103.895-16.7624Q103.895-13.6875 105.764-11.7945Q107.634-9.90142 110.6-9.90142L119.649-9.90142Q122.672-9.90142 124.513-11.7945Q126.354-13.6875 126.354-16.7624L126.354-42.9214Q126.354-46.0537 124.513-47.9495Q122.672-49.8453 119.649-49.8453L110.6-49.8453Q107.634-49.8453 105.764-47.9495Q103.895-46.0537 103.895-42.9214Z"/>
  </g>
  <g id="Heavy-M" transform="matrix(1 0 0 1 2565.31 1126)">
   <path d="M12.4609 6.68602Q12.4609 10.033 14.6811 12.1336Q16.9012 14.2341 20.1859 14.2341L122.58 14.2341Q125.865 14.2341 128.084 12.1336Q130.303 10.033 130.303 6.68602Q130.303 3.35282 128.084 1.24539Q125.865-0.862046 122.58-0.862046L20.1859-0.862046Q16.9012-0.862046 14.6811 1.24539Q12.4609 3.35282 12.4609 6.68602ZM20.181-14.8716Q20.181-12.08 21.881-10.3757Q23.5809-8.67144 26.3089-8.67144L35.7466-8.67144Q38.5109-8.67144 40.1914-10.3757Q41.872-12.08 41.872-14.8716L41.872-50.6878Q41.872-53.5393 40.1914-55.2423Q38.5109-56.9454 35.7466-56.9454L26.3089-56.9454Q23.5809-56.9454 21.881-55.2423Q20.181-53.5393 20.181-50.6878ZM47.0821-14.8716Q47.0821-12.08 48.7751-10.3757Q50.4681-8.67144 53.2535-8.67144L62.629-8.67144Q65.4144-8.67144 67.0937-10.3757Q68.773-12.08 68.773-14.8716L68.773-71.7002Q68.773-74.5379 67.0937-76.2328Q65.4144-77.9278 62.629-77.9278L53.2535-77.9278Q50.4681-77.9278 48.7751-76.2328Q47.0821-74.5379 47.0821-71.7002ZM73.9718-14.8716Q73.9718-12.08 75.6293-10.3757Q77.2869-8.67144 80.0674-8.67144L89.535-8.67144Q92.3203-8.67144 93.9916-10.3757Q95.6628-12.08 95.6628-14.8716L95.6628-59.4354Q95.6628-62.2845 93.9916-63.99Q92.3203-65.6955 89.535-65.6955L80.0674-65.6955Q77.2869-65.6955 75.6293-63.99Q73.9718-62.2845 73.9718-59.4354ZM100.875-14.8716Q100.875-12.08 102.576-10.3757Q104.278-8.67144 107.003-8.67144L116.441-8.67144Q119.208-8.67144 120.888-10.3757Q122.569-12.08 122.569-14.8716L122.569-41.965Q122.569-44.7978 120.888-46.5102Q119.208-48.2226 116.441-48.2226L107.003-48.2226Q104.278-48.2226 102.576-46.5102Q100.875-44.7978 100.875-41.965Z"/>
  </g>
  <g id="Bold-M" transform="matrix(1 0 0 1 2271.37 1126)">
   <path d="M12.4609 6.54387Q12.4609 9.30179 14.32 11.0698Q16.179 12.8378 18.8746 12.8378L118.351 12.8378Q121.047 12.8378 122.903 11.0698Q124.76 9.30179 124.76 6.54387Q124.76 3.80867 122.903 2.0293Q121.047 0.24994 118.351 0.24994L18.8746 0.24994Q16.179 0.24994 14.32 2.0293Q12.4609 3.80867 12.4609 6.54387ZM18.8635-12.7565Q18.8635-10.2817 20.3733-8.78862Q21.8832-7.29554 24.3457-7.29554L34.2177-7.29554Q36.6922-7.29554 38.1933-8.78862Q39.6943-10.2817 39.6943-12.7565L39.6943-50.1405Q39.6943-52.6721 38.1933-54.1624Q36.6922-55.6527 34.2177-55.6527L24.3457-55.6527Q21.8832-55.6527 20.3733-54.1624Q18.8635-52.6721 18.8635-50.1405ZM45.0789-12.7565Q45.0789-10.2817 46.5774-8.78862Q48.0758-7.29554 50.5896-7.29554L60.3993-7.29554Q62.9131-7.29554 64.4114-8.78862Q65.9097-10.2817 65.9097-12.7565L65.9097-71.2064Q65.9097-73.7153 64.4114-75.1915Q62.9131-76.6677 60.3993-76.6677L50.5896-76.6677Q48.0758-76.6677 46.5774-75.1915Q45.0789-73.7153 45.0789-71.2064ZM71.2771-12.7565Q71.2771-10.2817 72.7611-8.78862Q74.2451-7.29554 76.7478-7.29554L86.6257-7.29554Q89.1395-7.29554 90.6237-8.78862Q92.1079-10.2817 92.1079-12.7565L92.1079-59.5314Q92.1079-62.0575 90.6237-63.5533Q89.1395-65.0491 86.6257-65.0491L76.7478-65.0491Q74.2451-65.0491 72.7611-63.5533Q71.2771-62.0575 71.2771-59.5314ZM97.4979-12.7565Q97.4979-10.2817 99.0105-8.78862Q100.523-7.29554 102.98-7.29554L112.852-7.29554Q115.332-7.29554 116.833-8.78862Q118.334-10.2817 118.334-12.7565L118.334-40.8951Q118.334-43.3929 116.833-44.9001Q115.332-46.4073 112.852-46.4073L102.98-46.4073Q100.523-46.4073 99.0105-44.9001Q97.4979-43.3929 97.4979-40.8951Z"/>
  </g>
  <g id="Semibold-M" transform="matrix(1 0 0 1 1976.57 1126)">
   <path d="M12.4609 6.44587Q12.4609 8.79768 14.071 10.3364Q15.681 11.8752 17.9705 11.8752L115.436 11.8752Q117.726 11.8752 119.332 10.3364Q120.938 8.79768 120.938 6.44587Q120.938 4.12293 119.332 2.56973Q117.726 1.01654 115.436 1.01654L17.9705 1.01654Q15.681 1.01654 14.071 2.56973Q12.4609 4.12293 12.4609 6.44587ZM17.9553-11.2984Q17.9553-9.04199 19.334-7.6945Q20.7128-6.347 22.9922-6.347L33.1637-6.347Q35.4385-6.347 36.8158-7.6945Q38.1931-9.04199 38.1931-11.2984L38.1931-49.7632Q38.1931-52.0743 36.8158-53.4179Q35.4385-54.7616 33.1637-54.7616L22.9922-54.7616Q20.7128-54.7616 19.334-53.4179Q17.9553-52.0743 17.9553-49.7632ZM43.6979-11.2984Q43.6979-9.04199 45.0622-7.6945Q46.4265-6.347 48.753-6.347L58.8622-6.347Q61.1887-6.347 62.5622-7.6945Q63.9357-9.04199 63.9357-11.2984L63.9357-70.866Q63.9357-73.1482 62.5622-74.4736Q61.1887-75.799 58.8622-75.799L48.753-75.799Q46.4265-75.799 45.0622-74.4736Q43.6979-73.1482 43.6979-70.866ZM69.4193-11.2984Q69.4193-9.04199 70.7837-7.6945Q72.1481-6.347 74.4594-6.347L84.6202-6.347Q86.9467-6.347 88.3019-7.6945Q89.6571-9.04199 89.6571-11.2984L89.6571-59.5975Q89.6571-61.9009 88.3019-63.2522Q86.9467-64.6036 84.6202-64.6036L74.4594-64.6036Q72.1481-64.6036 70.7837-63.2522Q69.4193-61.9009 69.4193-59.5975ZM95.1696-11.2984Q95.1696-9.04199 96.5522-7.6945Q97.9347-6.347 100.207-6.347L110.378-6.347Q112.66-6.347 114.038-7.6945Q115.415-9.04199 115.415-11.2984L115.415-40.1575Q115.415-42.4244 114.038-43.7901Q112.66-45.1559 110.378-45.1559L100.207-45.1559Q97.9347-45.1559 96.5522-43.7901Q95.1696-42.4244 95.1696-40.1575Z"/>
  </g>
  <g id="Medium-M" transform="matrix(1 0 0 1 1681.3 1126)">
   <path d="M12.4609 6.37157Q12.4609 8.41545 13.8822 9.78039Q15.3035 11.1453 17.2851 11.1453L113.226 11.1453Q115.207 11.1453 116.624 9.78039Q118.041 8.41545 118.041 6.37157Q118.041 4.36122 116.624 2.97951Q115.207 1.5978 113.226 1.5978L17.2851 1.5978Q15.3035 1.5978 13.8822 2.97951Q12.4609 4.36122 12.4609 6.37157ZM17.2666-10.1927Q17.2666-8.10199 18.5459-6.86488Q19.8253-5.62777 21.966-5.62777L32.3646-5.62777Q34.4878-5.62777 35.7713-6.86488Q37.0548-8.10199 37.0548-10.1927L37.0548-49.4771Q37.0548-51.621 35.7713-52.8534Q34.4878-54.0859 32.3646-54.0859L21.966-54.0859Q19.8253-54.0859 18.5459-52.8534Q17.2666-51.621 17.2666-49.4771ZM42.6508-10.1927Q42.6508-8.10199 43.9134-6.86488Q45.176-5.62777 47.3605-5.62777L57.6967-5.62777Q59.8813-5.62777 61.1601-6.86488Q62.439-8.10199 62.439-10.1927L62.439-70.6079Q62.439-72.7182 61.1601-73.9293Q59.8813-75.1404 57.6967-75.1404L47.3605-75.1404Q45.176-75.1404 43.9134-73.9293Q42.6508-72.7182 42.6508-70.6079ZM68.0107-10.1927Q68.0107-8.10199 69.2844-6.86488Q70.5581-5.62777 72.7242-5.62777L83.0994-5.62777Q85.284-5.62777 86.5414-6.86488Q87.7989-8.10199 87.7989-10.1927L87.7989-59.6477Q87.7989-61.7822 86.5414-63.024Q85.284-64.2657 83.0994-64.2657L72.7242-64.2657Q70.5581-64.2657 69.2844-63.024Q68.0107-61.7822 68.0107-59.6477ZM93.4041-10.1927Q93.4041-8.10199 94.6881-6.86488Q95.9721-5.62777 98.1036-5.62777L108.502-5.62777Q110.635-5.62777 111.918-6.86488Q113.202-8.10199 113.202-10.1927L113.202-39.5982Q113.202-41.69 111.918-42.9485Q110.635-44.207 108.502-44.207L98.1036-44.207Q95.9721-44.207 94.6881-42.9485Q93.4041-41.69 93.4041-39.5982Z"/>
  </g>
  <g id="Regular-M" transform="matrix(1 0 0 1 1386.48 1126)">
   <path d="M12.4609 6.27465Q12.4609 7.91688 13.636 9.0551Q14.811 10.1933 16.391 10.1933L110.343 10.1933Q111.923 10.1933 113.092 9.0551Q114.261 7.91688 114.261 6.27465Q114.261 4.67203 113.092 3.514Q111.923 2.35597 110.343 2.35597L16.391 2.35597Q14.811 2.35597 13.636 3.514Q12.4609 4.67203 12.4609 6.27465ZM16.3683-8.75062Q16.3683-6.8759 17.518-5.78278Q18.6678-4.68966 20.6275-4.68966L31.3221-4.68966Q33.2478-4.68966 34.4089-5.78278Q35.57-6.8759 35.57-8.75062L35.57-49.104Q35.57-51.0297 34.4089-52.1171Q33.2478-53.2046 31.3221-53.2046L20.6275-53.2046Q18.6678-53.2046 17.518-52.1171Q16.3683-51.0297 16.3683-49.104ZM41.2849-8.75062Q41.2849-6.8759 42.4149-5.78278Q43.5448-4.68966 45.5442-4.68966L56.1765-4.68966Q58.1758-4.68966 59.3313-5.78278Q60.4867-6.8759 60.4867-8.75062L60.4867-70.2712Q60.4867-72.1573 59.3313-73.2193Q58.1758-74.2812 56.1765-74.2812L45.5442-74.2812Q43.5448-74.2812 42.4149-73.2193Q41.2849-72.1573 41.2849-70.2712ZM66.1733-8.75062Q66.1733-6.8759 67.3288-5.78278Q68.4842-4.68966 70.4608-4.68966L81.1159-4.68966Q83.1152-4.68966 84.2452-5.78278Q85.3751-6.8759 85.3751-8.75062L85.3751-59.7131Q85.3751-61.6274 84.2452-62.7262Q83.1152-63.825 81.1159-63.825L70.4608-63.825Q68.4842-63.825 67.3288-62.7262Q66.1733-61.6274 66.1733-59.7131ZM91.1014-8.75062Q91.1014-6.8759 92.2568-5.78278Q93.4122-4.68966 95.3606-4.68966L106.055-4.68966Q107.992-4.68966 109.153-5.78278Q110.314-6.8759 110.314-8.75062L110.314-38.8687Q110.314-40.7321 109.153-41.8507Q107.992-42.9693 106.055-42.9693L95.3606-42.9693Q93.4122-42.9693 92.2568-41.8507Q91.1014-40.7321 91.1014-38.8687Z"/>
  </g>
  <g id="Light-M" transform="matrix(1 0 0 1 1089.62 1126)">
   <path d="M12.4609 7.0474Q12.4609 8.32166 13.3692 9.18389Q14.2775 10.0461 15.4894 10.0461L111.557 10.0461Q112.769 10.0461 113.662 9.18389Q114.556 8.32166 114.556 7.0474Q114.556 5.77597 113.662 4.91232Q112.769 4.04868 111.557 4.04868L15.4894 4.04868Q14.2775 4.04868 13.3692 4.91232Q12.4609 5.77597 12.4609 7.0474ZM15.4299-6.37715Q15.4299-4.59442 16.5245-3.5473Q17.619-2.50018 19.5235-2.50018L31.1934-2.50018Q33.0086-2.50018 34.1329-3.5473Q35.2572-4.59442 35.2572-6.37715L35.2572-49.5272Q35.2572-51.3425 34.1329-52.3747Q33.0086-53.407 31.1934-53.407L19.5235-53.407Q17.619-53.407 16.5245-52.3747Q15.4299-51.3425 15.4299-49.5272ZM40.8434-6.37715Q40.8434-4.59442 41.9365-3.5473Q43.0297-2.50018 44.937-2.50018L56.5445-2.50018Q58.4518-2.50018 59.5613-3.5473Q60.6707-4.59442 60.6707-6.37715L60.6707-71.3752Q60.6707-73.1877 59.5613-74.2036Q58.4518-75.2196 56.5445-75.2196L44.937-75.2196Q43.0297-75.2196 41.9365-74.2036Q40.8434-73.1877 40.8434-71.3752ZM66.2837-6.37715Q66.2837-4.59442 67.3932-3.5473Q68.5026-2.50018 70.3504-2.50018L82.0174-2.50018Q83.9248-2.50018 85.0179-3.5473Q86.1111-4.59442 86.1111-6.37715L86.1111-60.4675Q86.1111-62.253 85.0179-63.315Q83.9248-64.377 82.0174-64.377L70.3504-64.377Q68.5026-64.377 67.3932-63.315Q66.2837-62.253 66.2837-60.4675ZM91.7269-6.37715Q91.7269-4.59442 92.8364-3.5473Q93.9458-2.50018 95.8206-2.50018L107.49-2.50018Q109.335-2.50018 110.46-3.5473Q111.584-4.59442 111.584-6.37715L111.584-38.9607Q111.584-40.7137 110.46-41.7771Q109.335-42.8405 107.49-42.8405L95.8206-42.8405Q93.9458-42.8405 92.8364-41.7771Q91.7269-40.7137 91.7269-38.9607Z"/>
  </g>
  <g id="Thin-M" transform="matrix(1 0 0 1 792.719 1126)">
   <path d="M12.4609 8.06944Q12.4609 8.85701 13.0164 9.35423Q13.5718 9.85145 14.297 9.85145L113.163 9.85145Q113.888 9.85145 114.417 9.35423Q114.945 8.85701 114.945 8.06944Q114.945 7.23602 114.417 6.76172Q113.888 6.28743 113.163 6.28743L14.297 6.28743Q13.5718 6.28743 13.0164 6.76172Q12.4609 7.23602 12.4609 8.06944ZM14.1889-3.23804Q14.1889-1.57699 15.2104-0.590697Q16.232 0.395591 18.0635 0.395591L31.023 0.395591Q32.6923 0.395591 33.7679-0.590697Q34.8436-1.57699 34.8436-3.23804L34.8436-50.0869Q34.8436-51.7562 33.7679-52.7154Q32.6923-53.6746 31.023-53.6746L18.0635-53.6746Q16.232-53.6746 15.2104-52.7154Q14.1889-51.7562 14.1889-50.0869ZM40.2593-3.23804Q40.2593-1.57699 41.3038-0.590697Q42.3483 0.395591 44.134 0.395591L57.0312 0.395591Q58.8168 0.395591 59.8654-0.590697Q60.914-1.57699 60.914-3.23804L60.914-72.8352Q60.914-74.5504 59.8654-75.5055Q58.8168-76.4606 57.0312-76.4606L44.134-76.4606Q42.3483-76.4606 41.3038-75.5055Q40.2593-74.5504 40.2593-72.8352ZM66.4297-3.23804Q66.4297-1.57699 67.4783-0.590697Q68.5269 0.395591 70.2044 0.395591L83.2098 0.395591Q84.9955 0.395591 86.0399-0.590697Q87.0844-1.57699 87.0844-3.23804L87.0844-61.4652Q87.0844-63.0804 86.0399-64.0937Q84.9955-65.107 83.2098-65.107L70.2044-65.107Q68.5269-65.107 67.4783-64.0937Q66.4297-63.0804 66.4297-61.4652ZM92.5543-3.23804Q92.5543-1.57699 93.6029-0.590697Q94.6515 0.395591 96.4289 0.395591L109.388 0.395591Q111.112 0.395591 112.187-0.590697Q113.263-1.57699 113.263-3.23804L113.263-39.0824Q113.263-40.6894 112.187-41.6798Q111.112-42.6702 109.388-42.6702L96.4289-42.6702Q94.6515-42.6702 93.6029-41.6798Q92.5543-40.6894 92.5543-39.0824Z"/>
  </g>
  <g id="Ultralight-M" transform="matrix(1 0 0 1 495.908 1126)">
   <path d="M12.4609 8.59292Q12.4609 9.13122 12.8356 9.44148Q13.2103 9.75174 13.6863 9.75174L113.986 9.75174Q114.462 9.75174 114.803 9.44148Q115.145 9.13122 115.145 8.59292Q115.145 7.98385 114.803 7.70897Q114.462 7.4341 113.986 7.4341L13.6863 7.4341Q13.2103 7.4341 12.8356 7.70897Q12.4609 7.98385 12.4609 8.59292ZM13.5532-1.6302Q13.5532-0.0314694 14.5374 0.923659Q15.5215 1.87879 17.3157 1.87879L30.9358 1.87879Q32.5303 1.87879 33.581 0.923659Q34.6317-0.0314694 34.6317-1.6302L34.6317-50.3735Q34.6317-51.968 33.581-52.8899Q32.5303-53.8118 30.9358-53.8118L17.3157-53.8118Q15.5215-53.8118 14.5374-52.8899Q13.5532-51.968 13.5532-50.3735ZM39.9602-1.6302Q39.9602-0.0314694 40.9798 0.923659Q41.9993 1.87879 43.7227 1.87879L57.2805 1.87879Q59.0038 1.87879 60.0212 0.923659Q61.0387-0.0314694 61.0387-1.6302L61.0387-73.5831Q61.0387-75.2483 60.0212-76.1723Q59.0038-77.0963 57.2805-77.0963L43.7227-77.0963Q41.9993-77.0963 40.9798-76.1723Q39.9602-75.2483 39.9602-73.5831ZM66.5045-1.6302Q66.5045-0.0314694 67.522 0.923659Q68.5394 1.87879 70.1297 1.87879L83.8205 1.87879Q85.5439 1.87879 86.5634 0.923659Q87.583-0.0314694 87.583-1.6302L87.583-61.9762Q87.583-63.5041 86.5634-64.4925Q85.5439-65.4809 83.8205-65.4809L70.1297-65.4809Q68.5394-65.4809 67.522-64.4925Q66.5045-63.5041 66.5045-61.9762ZM92.9781-1.6302Q92.9781-0.0314694 93.9955 0.923659Q95.0129 1.87879 96.7405 1.87879L110.361 1.87879Q112.022 1.87879 113.072 0.923659Q114.123-0.0314694 114.123-1.6302L114.123-39.1447Q114.123-40.6769 113.072-41.6299Q112.022-42.5829 110.361-42.5829L96.7405-42.5829Q95.0129-42.5829 93.9955-41.6299Q92.9781-40.6769 92.9781-39.1447Z"/>
  </g>
  <g id="Black-S" transform="matrix(1 0 0 1 2874.76 696)">
   <path d="M9.76562-2.19727Q9.76562 0.976562 11.8408 2.92969Q13.916 4.88281 17.041 4.88281L100.244 4.88281Q103.369 4.88281 105.444 2.92969Q107.52 0.976562 107.52-2.19727Q107.52-5.37109 105.444-7.32422Q103.369-9.27734 100.244-9.27734L17.041-9.27734Q13.916-9.27734 11.8408-7.32422Q9.76562-5.37109 9.76562-2.19727ZM17.041-21.1914Q17.041-18.7012 18.5547-17.1631Q20.0684-15.625 22.4609-15.625L29.4922-15.625Q31.9336-15.625 33.4229-17.1631Q34.9121-18.7012 34.9121-21.1914L34.9121-47.9004Q34.9121-50.4395 33.4229-51.9775Q31.9336-53.5156 29.4922-53.5156L22.4609-53.5156Q20.0684-53.5156 18.5547-51.9775Q17.041-50.4395 17.041-47.9004ZM38.8184-21.1914Q38.8184-18.7012 40.332-17.1631Q41.8457-15.625 44.2871-15.625L51.2695-15.625Q53.7109-15.625 55.2002-17.1631Q56.6895-18.7012 56.6895-21.1914L56.6895-64.3555Q56.6895-66.8945 55.2002-68.4326Q53.7109-69.9707 51.2695-69.9707L44.2871-69.9707Q41.8457-69.9707 40.332-68.4326Q38.8184-66.8945 38.8184-64.3555ZM60.5957-21.1914Q60.5957-18.7012 62.0605-17.1631Q63.5254-15.625 65.9668-15.625L73.0469-15.625Q75.4883-15.625 76.9775-17.1631Q78.4668-18.7012 78.4668-21.1914L78.4668-54.1504Q78.4668-56.6895 76.9775-58.2275Q75.4883-59.7656 73.0469-59.7656L65.9668-59.7656Q63.5254-59.7656 62.0605-58.2275Q60.5957-56.6895 60.5957-54.1504ZM82.373-21.1914Q82.373-18.7012 83.8867-17.1631Q85.4004-15.625 87.793-15.625L94.8242-15.625Q97.2656-15.625 98.7549-17.1631Q100.244-18.7012 100.244-21.1914L100.244-41.5527Q100.244-44.0918 98.7549-45.6299Q97.2656-47.168 94.8242-47.168L87.793-47.168Q85.4004-47.168 83.8867-45.6299Q82.373-44.0918 82.373-41.5527Z"/>
  </g>
  <g id="Heavy-S" transform="matrix(1 0 0 1 2580.18 696)">
   <path d="M9.76562-2.40471Q9.76562 0.365766 11.5988 2.09993Q13.432 3.83409 16.1536 3.83409L96.8559 3.83409Q99.5776 3.83409 101.411 2.09993Q103.244 0.365766 103.244-2.40471Q103.244-5.16365 101.411-6.90358Q99.5776-8.6435 96.8559-8.6435L16.1536-8.6435Q13.432-8.6435 11.5988-6.90358Q9.76562-5.16365 9.76562-2.40471ZM16.1536-19.8776Q16.1536-17.6179 17.529-16.2354Q18.9044-14.8529 21.1011-14.8529L28.3397-14.8529Q30.5737-14.8529 31.9304-16.2354Q33.2872-17.6179 33.2872-19.8776L33.2872-47.4279Q33.2872-49.7365 31.9304-51.119Q30.5737-52.5015 28.3397-52.5015L21.1011-52.5015Q18.9044-52.5015 17.529-51.119Q16.1536-49.7365 16.1536-47.4279ZM37.3432-19.8776Q37.3432-17.6179 38.7128-16.2354Q40.0825-14.8529 42.328-14.8529L49.5178-14.8529Q51.7633-14.8529 53.12-16.2354Q54.4768-17.6179 54.4768-19.8776L54.4768-63.8369Q54.4768-66.1339 53.12-67.5107Q51.7633-68.8874 49.5178-68.8874L42.328-68.8874Q40.0825-68.8874 38.7128-67.5107Q37.3432-66.1339 37.3432-63.8369ZM58.5213-19.8776Q58.5213-17.6179 59.8594-16.2354Q61.1974-14.8529 63.4429-14.8529L70.7074-14.8529Q72.9529-14.8529 74.3039-16.2354Q75.6548-17.6179 75.6548-19.8776L75.6548-54.1273Q75.6548-56.4359 74.3039-57.8184Q72.9529-59.2009 70.7074-59.2009L63.4429-59.2009Q61.1974-59.2009 59.8594-57.8184Q58.5213-56.4359 58.5213-54.1273ZM79.7109-19.8776Q79.7109-17.6179 81.0863-16.2354Q82.4617-14.8529 84.6583-14.8529L91.897-14.8529Q94.131-14.8529 95.4877-16.2354Q96.8444-17.6179 96.8444-19.8776L96.8444-40.723Q96.8444-43.02 95.4877-44.4083Q94.131-45.7966 91.897-45.7966L84.6583-45.7966Q82.4617-45.7966 81.0863-44.4083Q79.7109-43.02 79.7109-40.723Z"/>
  </g>
  <g id="Bold-S" transform="matrix(1 0 0 1 2285.86 696)">
   <path d="M9.76562-2.63672Q9.76562-0.317383 11.3281 1.17188Q12.8906 2.66113 15.1611 2.66113L93.0664 2.66113Q95.3369 2.66113 96.8994 1.17188Q98.4619-0.317383 98.4619-2.63672Q98.4619-4.93164 96.8994-6.43311Q95.3369-7.93457 93.0664-7.93457L15.1611-7.93457Q12.8906-7.93457 11.3281-6.43311Q9.76562-4.93164 9.76562-2.63672ZM15.1611-18.4082Q15.1611-16.4062 16.3818-15.1978Q17.6025-13.9893 19.5801-13.9893L27.0508-13.9893Q29.0527-13.9893 30.2612-15.1978Q31.4697-16.4062 31.4697-18.4082L31.4697-46.8994Q31.4697-48.9502 30.2612-50.1587Q29.0527-51.3672 27.0508-51.3672L19.5801-51.3672Q17.6025-51.3672 16.3818-50.1587Q15.1611-48.9502 15.1611-46.8994ZM35.6934-18.4082Q35.6934-16.4062 36.9019-15.1978Q38.1104-13.9893 40.1367-13.9893L47.5586-13.9893Q49.585-13.9893 50.7935-15.1978Q52.002-16.4062 52.002-18.4082L52.002-63.2568Q52.002-65.2832 50.7935-66.4795Q49.585-67.6758 47.5586-67.6758L40.1367-67.6758Q38.1104-67.6758 36.9019-66.4795Q35.6934-65.2832 35.6934-63.2568ZM56.2012-18.4082Q56.2012-16.4062 57.3975-15.1978Q58.5938-13.9893 60.6201-13.9893L68.0908-13.9893Q70.1172-13.9893 71.3135-15.1978Q72.5098-16.4062 72.5098-18.4082L72.5098-54.1016Q72.5098-56.1523 71.3135-57.3608Q70.1172-58.5693 68.0908-58.5693L60.6201-58.5693Q58.5938-58.5693 57.3975-57.3608Q56.2012-56.1523 56.2012-54.1016ZM76.7334-18.4082Q76.7334-16.4062 77.9541-15.1978Q79.1748-13.9893 81.1523-13.9893L88.623-13.9893Q90.625-13.9893 91.8335-15.1978Q93.042-16.4062 93.042-18.4082L93.042-39.7949Q93.042-41.8213 91.8335-43.042Q90.625-44.2627 88.623-44.2627L81.1523-44.2627Q79.1748-44.2627 77.9541-43.042Q76.7334-41.8213 76.7334-39.7949Z"/>
  </g>
  <g id="Semibold-S" transform="matrix(1 0 0 1 1990.8 696)">
   <path d="M9.76562-2.79668Q9.76562-0.788379 11.1415 0.532031Q12.5174 1.85244 14.4769 1.85244L90.4537 1.85244Q92.4132 1.85244 93.7891 0.532031Q95.1649-0.788379 95.1649-2.79668Q95.1649-4.77168 93.7891-6.10874Q92.4132-7.4458 90.4537-7.4458L14.4769-7.4458Q12.5174-7.4458 11.1415-6.10874Q9.76562-4.77168 9.76562-2.79668ZM14.4769-17.3951Q14.4769-15.5709 15.5909-14.4824Q16.705-13.3938 18.5314-13.3938L26.1621-13.3938Q28.0041-13.3938 29.1104-14.4824Q30.2167-15.5709 30.2167-17.3951L30.2167-46.5351Q30.2167-48.4081 29.1104-49.4966Q28.0041-50.5852 26.1621-50.5852L18.5314-50.5852Q16.705-50.5852 15.5909-49.4966Q14.4769-48.4081 14.4769-46.5351ZM34.5559-17.3951Q34.5559-15.5709 35.6533-14.4824Q36.7507-13.3938 38.626-13.3938L46.2078-13.3938Q48.0831-13.3938 49.1894-14.4824Q50.2957-15.5709 50.2957-17.3951L50.2957-62.8569Q50.2957-64.6967 49.1894-65.7686Q48.0831-66.8404 46.2078-66.8404L38.626-66.8404Q36.7507-66.8404 35.6533-65.7686Q34.5559-64.6967 34.5559-62.8569ZM54.6016-17.3951Q54.6016-15.5709 55.7001-14.4824Q56.7986-13.3938 58.6739-13.3938L66.2868-13.3938Q68.1621-13.3938 69.2518-14.4824Q70.3414-15.5709 70.3414-17.3951L70.3414-54.0838Q70.3414-55.9568 69.2518-57.0454Q68.1621-58.1339 66.2868-58.1339L58.6739-58.1339Q56.7986-58.1339 55.7001-57.0454Q54.6016-55.9568 54.6016-54.0838ZM74.6806-17.3951Q74.6806-15.5709 75.7946-14.4824Q76.9087-13.3938 78.7352-13.3938L86.3658-13.3938Q88.2078-13.3938 89.3141-14.4824Q90.4204-15.5709 90.4204-17.3951L90.4204-39.1551Q90.4204-40.9948 89.3141-42.1Q88.2078-43.2052 86.3658-43.2052L78.7352-43.2052Q76.9087-43.2052 75.7946-42.1Q74.6806-40.9948 74.6806-39.1551Z"/>
  </g>
  <g id="Medium-S" transform="matrix(1 0 0 1 1695.34 696)">
   <path d="M9.76562-2.91797Q9.76562-1.14551 11 0.046875Q12.2344 1.23926 13.958 1.23926L88.4727 1.23926Q90.1963 1.23926 91.4307 0.046875Q92.665-1.14551 92.665-2.91797Q92.665-4.65039 91.4307-5.86279Q90.1963-7.0752 88.4727-7.0752L13.958-7.0752Q12.2344-7.0752 11-5.86279Q9.76562-4.65039 9.76562-2.91797ZM13.958-16.627Q13.958-14.9375 14.9912-13.9399Q16.0244-12.9424 17.7363-12.9424L25.4883-12.9424Q27.209-12.9424 28.2378-13.9399Q29.2666-14.9375 29.2666-16.627L29.2666-46.2588Q29.2666-47.9971 28.2378-48.9946Q27.209-49.9922 25.4883-49.9922L17.7363-49.9922Q16.0244-49.9922 14.9912-48.9946Q13.958-47.9971 13.958-46.2588ZM33.6934-16.627Q33.6934-14.9375 34.7065-13.9399Q35.7197-12.9424 37.4805-12.9424L45.1836-12.9424Q46.9443-12.9424 47.9731-13.9399Q49.002-14.9375 49.002-16.627L49.002-62.5537Q49.002-64.252 47.9731-65.2295Q46.9443-66.207 45.1836-66.207L37.4805-66.207Q35.7197-66.207 34.7065-65.2295Q33.6934-64.252 33.6934-62.5537ZM53.3887-16.627Q53.3887-14.9375 54.4131-13.9399Q55.4375-12.9424 57.1982-12.9424L64.9189-12.9424Q66.6797-12.9424 67.6885-13.9399Q68.6973-14.9375 68.6973-16.627L68.6973-54.0703Q68.6973-55.8086 67.6885-56.8062Q66.6797-57.8037 64.9189-57.8037L57.1982-57.8037Q55.4375-57.8037 54.4131-56.8062Q53.3887-55.8086 53.3887-54.0703ZM73.124-16.627Q73.124-14.9375 74.1572-13.9399Q75.1904-12.9424 76.9023-12.9424L84.6543-12.9424Q86.375-12.9424 87.4038-13.9399Q88.4326-14.9375 88.4326-16.627L88.4326-38.6699Q88.4326-40.3682 87.4038-41.3857Q86.375-42.4033 84.6543-42.4033L76.9023-42.4033Q75.1904-42.4033 74.1572-41.3857Q73.124-40.3682 73.124-38.6699Z"/>
  </g>
  <g id="Regular-S" transform="matrix(1 0 0 1 1400.26 696)">
   <path d="M9.76562-3.07617Q9.76562-1.61133 10.8154-0.585938Q11.8652 0.439453 13.2812 0.439453L85.8887 0.439453Q87.3047 0.439453 88.3545-0.585938Q89.4043-1.61133 89.4043-3.07617Q89.4043-4.49219 88.3545-5.54199Q87.3047-6.5918 85.8887-6.5918L13.2812-6.5918Q11.8652-6.5918 10.8154-5.54199Q9.76562-4.49219 9.76562-3.07617ZM13.2812-15.625Q13.2812-14.1113 14.209-13.2324Q15.1367-12.3535 16.6992-12.3535L24.6094-12.3535Q26.1719-12.3535 27.0996-13.2324Q28.0273-14.1113 28.0273-15.625L28.0273-45.8984Q28.0273-47.4609 27.0996-48.3398Q26.1719-49.2188 24.6094-49.2188L16.6992-49.2188Q15.1367-49.2188 14.209-48.3398Q13.2812-47.4609 13.2812-45.8984ZM32.5684-15.625Q32.5684-14.1113 33.4717-13.2324Q34.375-12.3535 35.9863-12.3535L43.8477-12.3535Q45.459-12.3535 46.3867-13.2324Q47.3145-14.1113 47.3145-15.625L47.3145-62.1582Q47.3145-63.6719 46.3867-64.5264Q45.459-65.3809 43.8477-65.3809L35.9863-65.3809Q34.375-65.3809 33.4717-64.5264Q32.5684-63.6719 32.5684-62.1582ZM51.8066-15.625Q51.8066-14.1113 52.7344-13.2324Q53.6621-12.3535 55.2734-12.3535L63.1348-12.3535Q64.7461-12.3535 65.6494-13.2324Q66.5527-14.1113 66.5527-15.625L66.5527-54.0527Q66.5527-55.6152 65.6494-56.4941Q64.7461-57.373 63.1348-57.373L55.2734-57.373Q53.6621-57.373 52.7344-56.4941Q51.8066-55.6152 51.8066-54.0527ZM71.0938-15.625Q71.0938-14.1113 72.0215-13.2324Q72.9492-12.3535 74.5117-12.3535L82.4219-12.3535Q83.9844-12.3535 84.9121-13.2324Q85.8398-14.1113 85.8398-15.625L85.8398-38.0371Q85.8398-39.5508 84.9121-40.4541Q83.9844-41.3574 82.4219-41.3574L74.5117-41.3574Q72.9492-41.3574 72.0215-40.4541Q71.0938-39.5508 71.0938-38.0371Z"/>
  </g>
  <g id="Light-S" transform="matrix(1 0 0 1 1103.42 696)">
   <path d="M9.76562-2.39258Q9.76562-1.25326 10.5794-0.472005Q11.3932 0.309245 12.4837 0.309245L86.9629 0.309245Q88.0534 0.309245 88.859-0.472005Q89.6647-1.25326 89.6647-2.39258Q89.6647-3.51562 88.859-4.30501Q88.0534-5.0944 86.9629-5.0944L12.4837-5.0944Q11.3932-5.0944 10.5794-4.30501Q9.76562-3.51562 9.76562-2.39258ZM12.4512-13.5254Q12.4512-12.0931 13.3301-11.2549Q14.209-10.4167 15.7227-10.4167L24.4954-10.4167Q25.9603-10.4167 26.8555-11.2549Q27.7507-12.0931 27.7507-13.5254L27.7507-46.2728Q27.7507-47.7376 26.8555-48.5677Q25.9603-49.3978 24.4954-49.3978L15.7227-49.3978Q14.209-49.3978 13.3301-48.5677Q12.4512-47.7376 12.4512-46.2728ZM32.1777-13.5254Q32.1777-12.0931 33.0485-11.2549Q33.9193-10.4167 35.4492-10.4167L44.1732-10.4167Q45.7031-10.4167 46.5902-11.2549Q47.4772-12.0931 47.4772-13.5254L47.4772-63.1348Q47.4772-64.5833 46.5902-65.3971Q45.7031-66.2109 44.1732-66.2109L35.4492-66.2109Q33.9193-66.2109 33.0485-65.3971Q32.1777-64.5833 32.1777-63.1348ZM51.9043-13.5254Q51.9043-12.0931 52.7913-11.2549Q53.6784-10.4167 55.1758-10.4167L63.9323-10.4167Q65.4622-10.4167 66.333-11.2549Q67.2038-12.0931 67.2038-13.5254L67.2038-54.7201Q67.2038-56.1686 66.333-57.015Q65.4622-57.8613 63.9323-57.8613L55.1758-57.8613Q53.6784-57.8613 52.7913-57.015Q51.9043-56.1686 51.9043-54.7201ZM71.6471-13.5254Q71.6471-12.0931 72.5342-11.2549Q73.4212-10.4167 74.9186-10.4167L83.6914-10.4167Q85.1725-10.4167 86.0677-11.2549Q86.9629-12.0931 86.9629-13.5254L86.9629-38.1185Q86.9629-39.5345 86.0677-40.389Q85.1725-41.2435 83.6914-41.2435L74.9186-41.2435Q73.4212-41.2435 72.5342-40.389Q71.6471-39.5345 71.6471-38.1185Z"/>
  </g>
  <g id="Thin-S" transform="matrix(1 0 0 1 806.535 696)">
   <path d="M9.76562-1.48847Q9.76562-0.779675 10.2673-0.321321Q10.769 0.137034 11.4289 0.137034L88.3836 0.137034Q89.0436 0.137034 89.5264-0.321321Q90.0091-0.779675 90.0091-1.48847Q90.0091-2.22404 89.5264-2.66901Q89.0436-3.11397 88.3836-3.11397L11.4289-3.11397Q10.769-3.11397 10.2673-2.66901Q9.76562-2.22404 9.76562-1.48847ZM11.3533-10.7485Q11.3533-9.42383 12.1677-8.63943Q12.982-7.85503 14.4311-7.85503L24.3448-7.85503Q25.6804-7.85503 26.5326-8.63943Q27.3847-9.42383 27.3847-10.7485L27.3847-46.7679Q27.3847-48.1036 26.5326-48.8691Q25.6804-49.6346 24.3448-49.6346L14.4311-49.6346Q12.982-49.6346 12.1677-48.8691Q11.3533-48.1036 11.3533-46.7679ZM31.6611-10.7485Q31.6611-9.42383 32.4888-8.63943Q33.3165-7.85503 34.7388-7.85503L44.6037-7.85503Q46.026-7.85503 46.8592-8.63943Q47.6925-9.42383 47.6925-10.7485L47.6925-64.4263Q47.6925-65.7888 46.8592-66.5488Q46.026-67.3088 44.6037-67.3088L34.7388-67.3088Q33.3165-67.3088 32.4888-66.5488Q31.6611-65.7888 31.6611-64.4263ZM52.0335-10.7485Q52.0335-9.42383 52.8667-8.63943Q53.6999-7.85503 55.0466-7.85503L64.9871-7.85503Q66.4094-7.85503 67.2371-8.63943Q68.0648-9.42383 68.0648-10.7485L68.0648-55.6026Q68.0648-56.9005 67.2371-57.7038Q66.4094-58.5071 64.9871-58.5071L55.0466-58.5071Q53.6999-58.5071 52.8667-57.7038Q52.0335-56.9005 52.0335-55.6026ZM72.379-10.7485Q72.379-9.42383 73.2123-8.63943Q74.0455-7.85503 75.4568-7.85503L85.3705-7.85503Q86.744-7.85503 87.5961-8.63943Q88.4482-9.42383 88.4482-10.7485L88.4482-38.2261Q88.4482-39.513 87.5961-40.3029Q86.744-41.0928 85.3705-41.0928L75.4568-41.0928Q74.0455-41.0928 73.2123-40.3029Q72.379-39.513 72.379-38.2261Z"/>
  </g>
  <g id="Ultralight-S" transform="matrix(1 0 0 1 509.736 696)">
   <path d="M9.76562-1.02539Q9.76562-0.537109 10.1074-0.244141Q10.4492 0.0488281 10.8887 0.0488281L89.1113 0.0488281Q89.5508 0.0488281 89.8682-0.244141Q90.1855-0.537109 90.1855-1.02539Q90.1855-1.5625 89.8682-1.83105Q89.5508-2.09961 89.1113-2.09961L10.8887-2.09961Q10.4492-2.09961 10.1074-1.83105Q9.76562-1.5625 9.76562-1.02539ZM10.791-9.32617Q10.791-8.05664 11.5723-7.2998Q12.3535-6.54297 13.7695-6.54297L24.2676-6.54297Q25.5371-6.54297 26.3672-7.2998Q27.1973-8.05664 27.1973-9.32617L27.1973-47.0215Q27.1973-48.291 26.3672-49.0234Q25.5371-49.7559 24.2676-49.7559L13.7695-49.7559Q12.3535-49.7559 11.5723-49.0234Q10.791-48.291 10.791-47.0215ZM31.3965-9.32617Q31.3965-8.05664 32.2021-7.2998Q33.0078-6.54297 34.375-6.54297L44.8242-6.54297Q46.1914-6.54297 46.9971-7.2998Q47.8027-8.05664 47.8027-9.32617L47.8027-65.0879Q47.8027-66.4062 46.9971-67.1387Q46.1914-67.8711 44.8242-67.8711L34.375-67.8711Q33.0078-67.8711 32.2021-67.1387Q31.3965-66.4062 31.3965-65.0879ZM52.0996-9.32617Q52.0996-8.05664 52.9053-7.2998Q53.7109-6.54297 54.9805-6.54297L65.5273-6.54297Q66.8945-6.54297 67.7002-7.2998Q68.5059-8.05664 68.5059-9.32617L68.5059-56.0547Q68.5059-57.2754 67.7002-58.0566Q66.8945-58.8379 65.5273-58.8379L54.9805-58.8379Q53.7109-58.8379 52.9053-58.0566Q52.0996-57.2754 52.0996-56.0547ZM72.7539-9.32617Q72.7539-8.05664 73.5596-7.2998Q74.3652-6.54297 75.7324-6.54297L86.2305-6.54297Q87.5488-6.54297 88.3789-7.2998Q89.209-8.05664 89.209-9.32617L89.209-38.2812Q89.209-39.502 88.3789-40.2588Q87.5488-41.0156 86.2305-41.0156L75.7324-41.0156Q74.3652-41.0156 73.5596-40.2588Q72.7539-39.502 72.7539-38.2812Z"/>
  </g>
 </g>
</svg>
