<?xml version="1.0" encoding="utf-8"?>
<svg viewBox="0 0 40.064 41.336" fill="#000000" xmlns="http://www.w3.org/2000/svg" xmlns:bx="https://boxy-svg.com">
  <g style="" transform="matrix(0.73433, 0.000953, 0, 1.003727, 5.381535, -3.074862)">
    <g>
      <path d="M 35.107 5.716 L 4.955 5.724 C 3.891 5.724 -0.098 5.624 -0.101 7.268 C -0.104 8.912 3.79 9.119 4.854 9.119 L 6.801 9.138 L 7.965 37.256 C 7.965 38.588 9.356 39.585 10.686 39.585 L 29.55 39.641 C 30.88 39.641 31.997 38.704 31.997 37.373 L 33.143 9.138 L 35.074 9.138 C 36.139 9.138 40.017 9.07 40.031 7.331 C 40.045 5.592 36.171 5.716 35.107 5.716 Z M 13.765 36.786 C 13.765 37.585 12.969 37.784 12.17 37.784 C 11.373 37.784 10.79 37.621 10.79 36.822 L 10.748 11.6 C 10.748 10.801 11.373 10.651 12.17 10.651 C 12.969 10.651 13.787 10.873 13.787 11.672 L 13.765 36.786 Z M 21.444 36.715 C 21.444 37.514 20.635 37.784 19.836 37.784 C 19.039 37.784 18.422 37.467 18.422 36.668 L 18.463 11.722 C 18.463 10.923 19.186 10.718 19.983 10.718 C 20.782 10.718 21.484 10.922 21.484 11.721 L 21.444 36.715 Z M 29.022 36.702 C 29.022 37.501 28.431 37.729 27.634 37.729 C 26.836 37.729 26.132 37.526 26.132 36.727 L 26.222 11.673 C 26.222 10.874 26.923 10.663 27.721 10.663 C 28.518 10.663 29.162 10.898 29.162 11.697 L 29.022 36.702 Z" transform="matrix(1.000001, -0.000894, 0.00167, 0.999998, -0.040235, 0.019531)" bx:origin="0.544017 0.541266"/>
    </g>
  </g>
</svg>