<?xml version="1.0" encoding="UTF-8"?>
<!--Generator: Apple Native CoreSVG 175-->
<!DOCTYPE svg
PUBLIC "-//W3C//DTD SVG 1.1//EN"
       "http://www.w3.org/Graphics/SVG/1.1/DTD/svg11.dtd">
<svg version="1.1" xmlns="http://www.w3.org/2000/svg" xmlns:xlink="http://www.w3.org/1999/xlink" width="3300" height="2200">
 <!--glyph: "uni100FD2.medium", point size: 100.0, font version: "17.1d1e1", template writer version: "65.1"-->
 <g id="Notes">
  <rect height="2200" id="artboard" style="fill:white;opacity:1" width="3300" x="0" y="0"/>
  <line style="fill:none;stroke:black;opacity:1;stroke-width:0.5;" x1="263" x2="3036" y1="292" y2="292"/>
  <text style="stroke:none;fill:black;font-family:sans-serif;font-size:13;font-weight:bold;" transform="matrix(1 0 0 1 263 322)">Weight/Scale Variations</text>
  <text style="stroke:none;fill:black;font-family:sans-serif;font-size:13;text-anchor:middle;" transform="matrix(1 0 0 1 559.711 322)">Ultralight</text>
  <text style="stroke:none;fill:black;font-family:sans-serif;font-size:13;text-anchor:middle;" transform="matrix(1 0 0 1 856.422 322)">Thin</text>
  <text style="stroke:none;fill:black;font-family:sans-serif;font-size:13;text-anchor:middle;" transform="matrix(1 0 0 1 1153.13 322)">Light</text>
  <text style="stroke:none;fill:black;font-family:sans-serif;font-size:13;text-anchor:middle;" transform="matrix(1 0 0 1 1449.84 322)">Regular</text>
  <text style="stroke:none;fill:black;font-family:sans-serif;font-size:13;text-anchor:middle;" transform="matrix(1 0 0 1 1746.56 322)">Medium</text>
  <text style="stroke:none;fill:black;font-family:sans-serif;font-size:13;text-anchor:middle;" transform="matrix(1 0 0 1 2043.27 322)">Semibold</text>
  <text style="stroke:none;fill:black;font-family:sans-serif;font-size:13;text-anchor:middle;" transform="matrix(1 0 0 1 2339.98 322)">Bold</text>
  <text style="stroke:none;fill:black;font-family:sans-serif;font-size:13;text-anchor:middle;" transform="matrix(1 0 0 1 2636.69 322)">Heavy</text>
  <text style="stroke:none;fill:black;font-family:sans-serif;font-size:13;text-anchor:middle;" transform="matrix(1 0 0 1 2933.4 322)">Black</text>
  <line style="fill:none;stroke:black;opacity:1;stroke-width:0.5;" x1="263" x2="3036" y1="1903" y2="1903"/>
  <g transform="matrix(1 0 0 1 263 1933)">
   <path d="M9.24805 0.830078Q10.8691 0.830078 12.2949 0.214844Q13.7207-0.400391 14.8096-1.49414Q15.8984-2.58789 16.5186-4.01367Q17.1387-5.43945 17.1387-7.05078Q17.1387-8.66211 16.5186-10.0879Q15.8984-11.5137 14.8047-12.6074Q13.7109-13.7012 12.2852-14.3164Q10.8594-14.9316 9.23828-14.9316Q7.62695-14.9316 6.20117-14.3164Q4.77539-13.7012 3.69141-12.6074Q2.60742-11.5137 1.9873-10.0879Q1.36719-8.66211 1.36719-7.05078Q1.36719-5.43945 1.9873-4.01367Q2.60742-2.58789 3.69629-1.49414Q4.78516-0.400391 6.21094 0.214844Q7.63672 0.830078 9.24805 0.830078ZM9.24805-0.654297Q7.91992-0.654297 6.7627-1.14746Q5.60547-1.64062 4.73145-2.51953Q3.85742-3.39844 3.36426-4.56055Q2.87109-5.72266 2.87109-7.05078Q2.87109-8.37891 3.35938-9.54102Q3.84766-10.7031 4.72168-11.582Q5.5957-12.4609 6.75293-12.9541Q7.91016-13.4473 9.23828-13.4473Q10.5762-13.4473 11.7334-12.9541Q12.8906-12.4609 13.7695-11.582Q14.6484-10.7031 15.1465-9.54102Q15.6445-8.37891 15.6445-7.05078Q15.6445-5.72266 15.1514-4.56055Q14.6582-3.39844 13.7842-2.51953Q12.9102-1.64062 11.748-1.14746Q10.5859-0.654297 9.24805-0.654297ZM5.6543-7.05078Q5.6543-6.72852 5.85938-6.52832Q6.06445-6.32812 6.40625-6.32812L8.51562-6.32812L8.51562-4.20898Q8.51562-3.88672 8.71094-3.67676Q8.90625-3.4668 9.23828-3.4668Q9.56055-3.4668 9.77051-3.67676Q9.98047-3.88672 9.98047-4.20898L9.98047-6.32812L12.0898-6.32812Q12.4219-6.32812 12.627-6.52832Q12.832-6.72852 12.832-7.05078Q12.832-7.38281 12.627-7.58789Q12.4219-7.79297 12.0898-7.79297L9.98047-7.79297L9.98047-9.90234Q9.98047-10.2344 9.77051-10.4443Q9.56055-10.6543 9.23828-10.6543Q8.90625-10.6543 8.71094-10.4443Q8.51562-10.2344 8.51562-9.90234L8.51562-7.79297L6.40625-7.79297Q6.06445-7.79297 5.85938-7.58789Q5.6543-7.38281 5.6543-7.05078Z"/>
  </g>
  <g transform="matrix(1 0 0 1 281.867 1933)">
   <path d="M11.709 2.91016Q13.75 2.91016 15.5518 2.12891Q17.3535 1.34766 18.7305-0.0292969Q20.1074-1.40625 20.8887-3.20801Q21.6699-5.00977 21.6699-7.05078Q21.6699-9.0918 20.8887-10.8936Q20.1074-12.6953 18.7305-14.0723Q17.3535-15.4492 15.5469-16.2305Q13.7402-17.0117 11.6992-17.0117Q9.6582-17.0117 7.85645-16.2305Q6.05469-15.4492 4.68262-14.0723Q3.31055-12.6953 2.5293-10.8936Q1.74805-9.0918 1.74805-7.05078Q1.74805-5.00977 2.5293-3.20801Q3.31055-1.40625 4.6875-0.0292969Q6.06445 1.34766 7.86621 2.12891Q9.66797 2.91016 11.709 2.91016ZM11.709 1.25Q9.98047 1.25 8.47656 0.605469Q6.97266-0.0390625 5.83496-1.17676Q4.69727-2.31445 4.05762-3.81836Q3.41797-5.32227 3.41797-7.05078Q3.41797-8.7793 4.05762-10.2832Q4.69727-11.7871 5.83008-12.9297Q6.96289-14.0723 8.4668-14.7119Q9.9707-15.3516 11.6992-15.3516Q13.4277-15.3516 14.9316-14.7119Q16.4355-14.0723 17.5781-12.9297Q18.7207-11.7871 19.3652-10.2832Q20.0098-8.7793 20.0098-7.05078Q20.0098-5.32227 19.3701-3.81836Q18.7305-2.31445 17.5928-1.17676Q16.4551-0.0390625 14.9463 0.605469Q13.4375 1.25 11.709 1.25ZM7.17773-7.05078Q7.17773-6.69922 7.41211-6.47461Q7.64648-6.25 8.01758-6.25L10.8887-6.25L10.8887-3.36914Q10.8887-2.99805 11.1133-2.76855Q11.3379-2.53906 11.6895-2.53906Q12.0605-2.53906 12.29-2.76855Q12.5195-2.99805 12.5195-3.36914L12.5195-6.25L15.4004-6.25Q15.7715-6.25 16.001-6.47461Q16.2305-6.69922 16.2305-7.05078Q16.2305-7.42188 16.001-7.65137Q15.7715-7.88086 15.4004-7.88086L12.5195-7.88086L12.5195-10.752Q12.5195-11.1328 12.29-11.3623Q12.0605-11.5918 11.6895-11.5918Q11.3379-11.5918 11.1133-11.3574Q10.8887-11.123 10.8887-10.752L10.8887-7.88086L8.01758-7.88086Q7.63672-7.88086 7.40723-7.65137Q7.17773-7.42188 7.17773-7.05078Z"/>
  </g>
  <g transform="matrix(1 0 0 1 305.646 1933)">
   <path d="M14.9707 5.66406Q17.0605 5.66406 18.96 5.01465Q20.8594 4.36523 22.4512 3.19336Q24.043 2.02148 25.2197 0.429688Q26.3965-1.16211 27.0459-3.06641Q27.6953-4.9707 27.6953-7.05078Q27.6953-9.14062 27.0459-11.04Q26.3965-12.9395 25.2197-14.5312Q24.043-16.123 22.4512-17.2998Q20.8594-18.4766 18.9551-19.126Q17.0508-19.7754 14.9609-19.7754Q12.8711-19.7754 10.9717-19.126Q9.07227-18.4766 7.48535-17.2998Q5.89844-16.123 4.72168-14.5312Q3.54492-12.9395 2.90039-11.04Q2.25586-9.14062 2.25586-7.05078Q2.25586-4.9707 2.90527-3.06641Q3.55469-1.16211 4.72656 0.429688Q5.89844 2.02148 7.49023 3.19336Q9.08203 4.36523 10.9814 5.01465Q12.8809 5.66406 14.9707 5.66406ZM14.9707 3.84766Q13.1641 3.84766 11.5283 3.2959Q9.89258 2.74414 8.53516 1.74805Q7.17773 0.751953 6.17676-0.610352Q5.17578-1.97266 4.62891-3.6084Q4.08203-5.24414 4.08203-7.05078Q4.08203-8.86719 4.62891-10.5029Q5.17578-12.1387 6.17188-13.501Q7.16797-14.8633 8.52539-15.8594Q9.88281-16.8555 11.5186-17.4023Q13.1543-17.9492 14.9609-17.9492Q16.7773-17.9492 18.4131-17.4023Q20.0488-16.8555 21.4111-15.8594Q22.7734-14.8633 23.7695-13.501Q24.7656-12.1387 25.3174-10.5029Q25.8691-8.86719 25.8691-7.05078Q25.8789-5.24414 25.332-3.6084Q24.7852-1.97266 23.7842-0.610352Q22.7832 0.751953 21.4209 1.74805Q20.0586 2.74414 18.4229 3.2959Q16.7871 3.84766 14.9707 3.84766ZM9.19922-7.05078Q9.19922-6.66992 9.45801-6.4209Q9.7168-6.17188 10.1172-6.17188L14.0625-6.17188L14.0625-2.2168Q14.0625-1.81641 14.3115-1.55762Q14.5605-1.29883 14.9512-1.29883Q15.3516-1.29883 15.6104-1.55273Q15.8691-1.80664 15.8691-2.2168L15.8691-6.17188L19.8242-6.17188Q20.2246-6.17188 20.4785-6.4209Q20.7324-6.66992 20.7324-7.05078Q20.7324-7.46094 20.4785-7.71484Q20.2246-7.96875 19.8242-7.96875L15.8691-7.96875L15.8691-11.9141Q15.8691-12.3242 15.6104-12.583Q15.3516-12.8418 14.9512-12.8418Q14.5605-12.8418 14.3115-12.583Q14.0625-12.3242 14.0625-11.9141L14.0625-7.96875L10.1172-7.96875Q9.70703-7.96875 9.45312-7.71484Q9.19922-7.46094 9.19922-7.05078Z"/>
  </g>
  <text style="stroke:none;fill:black;font-family:sans-serif;font-size:13;font-weight:bold;" transform="matrix(1 0 0 1 263 1953)">Design Variations</text>
  <text style="stroke:none;fill:black;font-family:sans-serif;font-size:13;" transform="matrix(1 0 0 1 263 1971)">Symbols are supported in up to nine weights and three scales.</text>
  <text style="stroke:none;fill:black;font-family:sans-serif;font-size:13;" transform="matrix(1 0 0 1 263 1989)">For optimal layout with text and other symbols, vertically align</text>
  <text style="stroke:none;fill:black;font-family:sans-serif;font-size:13;" transform="matrix(1 0 0 1 263 2007)">symbols with the adjacent text.</text>
  <line style="fill:none;stroke:#00AEEF;stroke-width:0.5;opacity:1.0;" x1="776" x2="776" y1="1919" y2="1933"/>
  <g transform="matrix(1 0 0 1 776 1933)">
   <path d="M3.31055 0.15625Q3.70117 0.15625 3.91602-0.00976562Q4.13086-0.175781 4.26758-0.585938L5.52734-4.0332L11.2891-4.0332L12.5488-0.585938Q12.6855-0.175781 12.9004-0.00976562Q13.1152 0.15625 13.4961 0.15625Q13.8867 0.15625 14.1162-0.0585938Q14.3457-0.273438 14.3457-0.644531Q14.3457-0.869141 14.2383-1.17188L9.6582-13.3691Q9.48242-13.8184 9.17969-14.043Q8.87695-14.2676 8.4082-14.2676Q7.5-14.2676 7.17773-13.3789L2.59766-1.16211Q2.49023-0.859375 2.49023-0.634766Q2.49023-0.263672 2.70996-0.0537109Q2.92969 0.15625 3.31055 0.15625ZM6.00586-5.51758L8.37891-12.0898L8.42773-12.0898L10.8008-5.51758Z"/>
  </g>
  <line style="fill:none;stroke:#00AEEF;stroke-width:0.5;opacity:1.0;" x1="793.197" x2="793.197" y1="1919" y2="1933"/>
  <text style="stroke:none;fill:black;font-family:sans-serif;font-size:13;font-weight:bold;" transform="matrix(1 0 0 1 776 1953)">Margins</text>
  <text style="stroke:none;fill:black;font-family:sans-serif;font-size:13;" transform="matrix(1 0 0 1 776 1971)">Leading and trailing margins on the left and right side of each symbol</text>
  <text style="stroke:none;fill:black;font-family:sans-serif;font-size:13;" transform="matrix(1 0 0 1 776 1989)">can be adjusted by modifying the x-location of the margin guidelines.</text>
  <text style="stroke:none;fill:black;font-family:sans-serif;font-size:13;" transform="matrix(1 0 0 1 776 2007)">Modifications are automatically applied proportionally to all</text>
  <text style="stroke:none;fill:black;font-family:sans-serif;font-size:13;" transform="matrix(1 0 0 1 776 2025)">scales and weights.</text>
  <g transform="matrix(1 0 0 1 1289 1933)">
   <path d="M2.8418 1.86523L4.54102 3.57422Q5.18555 4.22852 5.90332 4.17969Q6.62109 4.13086 7.31445 3.35938L18.0078-8.42773L17.041-9.4043L6.42578 2.27539Q6.16211 2.57812 5.89355 2.61719Q5.625 2.65625 5.27344 2.30469L4.10156 1.14258Q3.75 0.791016 3.79395 0.522461Q3.83789 0.253906 4.14062-0.0195312L15.6152-10.8203L14.6387-11.7871L3.04688-0.898438Q2.30469-0.214844 2.25098 0.498047Q2.19727 1.21094 2.8418 1.86523ZM9.25781-16.3281Q8.94531-16.0254 8.90625-15.6348Q8.86719-15.2441 9.04297-14.9512Q9.21875-14.6777 9.55566-14.541Q9.89258-14.4043 10.3809-14.5215Q11.4746-14.7754 12.5977-14.7314Q13.7207-14.6875 14.7949-13.9844L14.209-12.5293Q13.9551-11.9043 14.0674-11.4404Q14.1797-10.9766 14.5801-10.5664L16.875-8.25195Q17.2363-7.88086 17.5781-7.82227Q17.9199-7.76367 18.3398-7.8418L19.4043-8.03711L20.0684-7.36328L20.0293-6.80664Q20-6.43555 20.1221-6.12305Q20.2441-5.81055 20.6055-5.44922L21.3672-4.70703Q21.7285-4.3457 22.1533-4.33105Q22.5781-4.31641 22.9297-4.66797L25.8398-7.58789Q26.1914-7.93945 26.1816-8.35449Q26.1719-8.76953 25.8105-9.13086L25.0391-9.89258Q24.6875-10.2539 24.3799-10.3857Q24.0723-10.5176 23.7109-10.4883L23.1348-10.4395L22.4902-11.0742L22.7344-12.1973Q22.832-12.6172 22.6953-12.9834Q22.5586-13.3496 22.1191-13.7891L19.9219-15.9766Q18.6719-17.2168 17.2607-17.8369Q15.8496-18.457 14.4189-18.4814Q12.9883-18.5059 11.665-17.959Q10.3418-17.4121 9.25781-16.3281ZM10.752-15.957Q11.6602-16.6211 12.7002-16.9043Q13.7402-17.1875 14.8047-17.085Q15.8691-16.9824 16.8701-16.5137Q17.8711-16.0449 18.7012-15.2051L21.1328-12.793Q21.3086-12.6172 21.3525-12.4512Q21.3965-12.2852 21.3379-12.0312L21.0156-10.5469L22.5195-9.0625L23.5059-9.12109Q23.6914-9.13086 23.7891-9.09668Q23.8867-9.0625 24.0332-8.91602L24.6094-8.33984L22.168-5.89844L21.5918-6.47461Q21.4453-6.62109 21.4062-6.71875Q21.3672-6.81641 21.377-7.01172L21.4453-7.98828L19.9512-9.47266L18.4277-9.21875Q18.1836-9.16992 18.042-9.2041Q17.9004-9.23828 17.7148-9.41406L15.7129-11.416Q15.5176-11.5918 15.4932-11.7529Q15.4688-11.9141 15.5859-12.1875L16.4648-14.2773Q15.293-15.3711 13.8281-15.791Q12.3633-16.2109 10.8398-15.7617Q10.7227-15.7324 10.6885-15.8057Q10.6543-15.8789 10.752-15.957Z"/>
  </g>
  <text style="stroke:none;fill:black;font-family:sans-serif;font-size:13;font-weight:bold;" transform="matrix(1 0 0 1 1289 1953)">Exporting</text>
  <text style="stroke:none;fill:black;font-family:sans-serif;font-size:13;" transform="matrix(1 0 0 1 1289 1971)">Symbols should be outlined when exporting to ensure the</text>
  <text style="stroke:none;fill:black;font-family:sans-serif;font-size:13;" transform="matrix(1 0 0 1 1289 1989)">design is preserved when submitting to Xcode.</text>
  <text id="template-version" style="stroke:none;fill:black;font-family:sans-serif;font-size:13;text-anchor:end;" transform="matrix(1 0 0 1 3036 1933)">Template v.2.0</text>
  <text style="stroke:none;fill:black;font-family:sans-serif;font-size:13;text-anchor:end;" transform="matrix(1 0 0 1 3036 1951)">Requires Xcode 12 or greater</text>
  <text id="descriptive-name" style="stroke:none;fill:black;font-family:sans-serif;font-size:13;text-anchor:end;" transform="matrix(1 0 0 1 3036 1969)">Generated from person.text.rectangle</text>
  <text style="stroke:none;fill:black;font-family:sans-serif;font-size:13;text-anchor:end;" transform="matrix(1 0 0 1 3036 1987)">Typeset at 100 points</text>
  <text style="stroke:none;fill:black;font-family:sans-serif;font-size:13;" transform="matrix(1 0 0 1 263 726)">Small</text>
  <text style="stroke:none;fill:black;font-family:sans-serif;font-size:13;" transform="matrix(1 0 0 1 263 1156)">Medium</text>
  <text style="stroke:none;fill:black;font-family:sans-serif;font-size:13;" transform="matrix(1 0 0 1 263 1586)">Large</text>
 </g>
 <g id="Guides">
  <g id="H-reference" style="fill:#27AAE1;stroke:none;" transform="matrix(1 0 0 1 339 696)">
   <path d="M0.976562 0L3.66211 0L29.3457-67.1387L30.0293-67.1387L30.0293-70.459L28.125-70.459ZM11.6699-24.4629L46.9727-24.4629L46.2402-26.709L12.4512-26.709ZM55.127 0L57.7637 0L30.6152-70.459L29.4434-70.459L29.4434-67.1387Z"/>
  </g>
  <line id="Baseline-S" style="fill:none;stroke:#27AAE1;opacity:1;stroke-width:0.5;" x1="263" x2="3036" y1="696" y2="696"/>
  <line id="Capline-S" style="fill:none;stroke:#27AAE1;opacity:1;stroke-width:0.5;" x1="263" x2="3036" y1="625.541" y2="625.541"/>
  <g id="H-reference" style="fill:#27AAE1;stroke:none;" transform="matrix(1 0 0 1 339 1126)">
   <path d="M0.976562 0L3.66211 0L29.3457-67.1387L30.0293-67.1387L30.0293-70.459L28.125-70.459ZM11.6699-24.4629L46.9727-24.4629L46.2402-26.709L12.4512-26.709ZM55.127 0L57.7637 0L30.6152-70.459L29.4434-70.459L29.4434-67.1387Z"/>
  </g>
  <line id="Baseline-M" style="fill:none;stroke:#27AAE1;opacity:1;stroke-width:0.5;" x1="263" x2="3036" y1="1126" y2="1126"/>
  <line id="Capline-M" style="fill:none;stroke:#27AAE1;opacity:1;stroke-width:0.5;" x1="263" x2="3036" y1="1055.54" y2="1055.54"/>
  <g id="H-reference" style="fill:#27AAE1;stroke:none;" transform="matrix(1 0 0 1 339 1556)">
   <path d="M0.976562 0L3.66211 0L29.3457-67.1387L30.0293-67.1387L30.0293-70.459L28.125-70.459ZM11.6699-24.4629L46.9727-24.4629L46.2402-26.709L12.4512-26.709ZM55.127 0L57.7637 0L30.6152-70.459L29.4434-70.459L29.4434-67.1387Z"/>
  </g>
  <line id="Baseline-L" style="fill:none;stroke:#27AAE1;opacity:1;stroke-width:0.5;" x1="263" x2="3036" y1="1556" y2="1556"/>
  <line id="Capline-L" style="fill:none;stroke:#27AAE1;opacity:1;stroke-width:0.5;" x1="263" x2="3036" y1="1485.54" y2="1485.54"/>
  <line id="left-margin" style="fill:none;stroke:#00AEEF;stroke-width:0.5;opacity:1.0;" x1="1379.84" x2="1379.84" y1="1030.79" y2="1150.12"/>
  <line id="right-margin" style="fill:none;stroke:#00AEEF;stroke-width:0.5;opacity:1.0;" x1="1519.85" x2="1519.85" y1="1030.79" y2="1150.12"/>
 </g>
 <g id="Symbols">
  <g id="Black-L" transform="matrix(1 0 0 1 2841.56 1556)">
   <path d="M107.544-53.6297L134.426-53.6297Q136.318-53.6297 137.582-54.9328Q138.846-56.2358 138.846-58.1259Q138.846-59.9368 137.582-61.2009Q136.318-62.4651 134.426-62.4651L107.544-62.4651Q105.595-62.4651 104.321-61.2009Q103.046-59.9368 103.046-58.1259Q103.046-56.2358 104.321-54.9328Q105.595-53.6297 107.544-53.6297ZM107.544-30.7126L134.426-30.7126Q136.318-30.7126 137.582-32.0156Q138.846-33.3187 138.846-35.2087Q138.846-37.0196 137.582-38.2838Q136.318-39.5479 134.426-39.5479L107.544-39.5479Q105.595-39.5479 104.321-38.2838Q103.046-37.0196 103.046-35.2087Q103.046-33.3187 104.321-32.0156Q105.595-30.7126 107.544-30.7126ZM107.544-7.91092L134.426-7.91092Q136.318-7.91092 137.582-9.17505Q138.846-10.4392 138.846-12.2501Q138.846-14.1402 137.582-15.4432Q136.318-16.7463 134.426-16.7463L107.544-16.7463Q105.595-16.7463 104.321-15.4432Q103.046-14.1402 103.046-12.2501Q103.046-10.4392 104.321-9.17505Q105.595-7.91092 107.544-7.91092ZM48.599-7.91092L90.3879-7.91092Q92.5908-7.91092 93.7299-9.32766Q94.8689-10.7444 94.8689-12.7306Q94.8689-14.789 93.3833-18.0108Q91.8976-21.2326 88.838-24.4362Q85.7784-27.6398 80.9768-29.8324Q76.1752-32.0249 69.5227-32.0249Q62.8701-32.0249 58.0686-29.8324Q53.267-27.6398 50.1782-24.4362Q47.0893-21.2326 45.614-18.0108Q44.1387-14.789 44.1387-12.7306Q44.1387-10.7444 45.2681-9.32766Q46.3974-7.91092 48.599-7.91092ZM69.5227-35.6719Q74.8872-35.6719 78.6564-39.7037Q82.4256-43.7356 82.4256-49.7447Q82.4256-55.4089 78.6564-59.4933Q74.8872-63.5776 69.5227-63.5776Q64.1789-63.5776 60.3883-59.4933Q56.5977-55.4089 56.5977-49.7447Q56.5977-43.7356 60.3883-39.7037Q64.1789-35.6719 69.5227-35.6719ZM39.8559 26.42L143.83 26.42Q155.221 26.42 161.412 20.2281Q167.602 14.0362 167.602 2.71149L167.602-73.0913Q167.602-84.4161 161.412-90.6086Q155.221-96.8011 143.83-96.8011L39.8559-96.8011Q28.5079-96.8011 22.2959-90.6099Q16.084-84.4186 16.084-73.0913L16.084 2.71149Q16.084 14.0375 22.2959 20.2287Q28.5079 26.42 39.8559 26.42ZM42.5866 6.41875Q39.3787 6.41875 37.7216 4.85963Q36.0645 3.3005 36.0645-0.124164L36.0645-70.257Q36.0645-73.7608 37.7216-75.2803Q39.3787-76.7999 42.5866-76.7999L141.1-76.7999Q144.363-76.7999 145.993-75.2803Q147.622-73.7608 147.622-70.257L147.622-0.124164Q147.622 3.3005 145.993 4.85963Q144.363 6.41875 141.1 6.41875Z"/>
  </g>
  <g id="Heavy-L" transform="matrix(1 0 0 1 2545.23 1556)">
   <path d="M106.952-54.3129L135.683-54.3129Q137.499-54.3129 138.714-55.5616Q139.928-56.8102 139.928-58.62Q139.928-60.3554 138.714-61.5699Q137.499-62.7844 135.683-62.7844L106.952-62.7844Q105.097-62.7844 103.868-61.5699Q102.638-60.3554 102.638-58.62Q102.638-56.8102 103.868-55.5616Q105.097-54.3129 106.952-54.3129ZM106.952-30.9059L135.683-30.9059Q137.499-30.9059 138.714-32.1545Q139.928-33.4032 139.928-35.213Q139.928-36.9484 138.714-38.1629Q137.499-39.3774 135.683-39.3774L106.952-39.3774Q105.097-39.3774 103.868-38.1629Q102.638-36.9484 102.638-35.213Q102.638-33.4032 103.868-32.1545Q105.097-30.9059 106.952-30.9059ZM106.952-7.58207L135.683-7.58207Q137.499-7.58207 138.714-8.79657Q139.928-10.0111 139.928-11.7465Q139.928-13.5563 138.714-14.8049Q137.499-16.0536 135.683-16.0536L106.952-16.0536Q105.097-16.0536 103.868-14.8049Q102.638-13.5563 102.638-11.7465Q102.638-10.0111 103.868-8.79657Q105.097-7.58207 106.952-7.58207ZM46.3189-7.58207L89.9815-7.58207Q92.0176-7.58207 93.0638-8.87835Q94.11-10.1746 94.11-12.0173Q94.11-14.1175 92.5713-17.4184Q91.0327-20.7193 87.8854-24.0158Q84.7381-27.3123 79.8348-29.5631Q74.9315-31.8139 68.1725-31.8139Q61.4136-31.8139 56.5103-29.5631Q51.607-27.3123 48.4374-24.0158Q45.2678-20.7193 43.744-17.4184Q42.2202-14.1175 42.2202-12.0173Q42.2202-10.1746 43.2545-8.87835Q44.2888-7.58207 46.3189-7.58207ZM68.1725-35.6452Q73.6388-35.6452 77.4636-39.7441Q81.2884-43.843 81.2884-49.9586Q81.2884-55.7107 77.4636-59.8737Q73.6388-64.0367 68.1725-64.0367Q62.7361-64.0367 58.8785-59.8737Q55.0209-55.7107 55.0209-49.9586Q55.0209-43.843 58.8785-39.7441Q62.7361-35.6452 68.1725-35.6452ZM38.8328 25.5037L144.084 25.5037Q155.099 25.5037 160.966 19.6305Q166.833 13.7573 166.833 2.85025L166.833-73.2349Q166.833-84.1419 160.966-90.0181Q155.099-95.8944 144.084-95.8944L38.8328-95.8944Q27.8839-95.8944 21.984-90.0242Q16.084-84.154 16.084-73.2349L16.084 2.85025Q16.084 13.7633 21.984 19.6335Q27.8839 25.5037 38.8328 25.5037ZM40.957 7.97611Q37.3499 7.97611 35.4659 6.17391Q33.5818 4.37171 33.5818 0.571172L33.5818-70.9618Q33.5818-74.8367 35.4659-76.6017Q37.3499-78.3667 40.957-78.3667L141.96-78.3667Q145.6-78.3667 147.467-76.6017Q149.335-74.8367 149.335-70.9618L149.335 0.571172Q149.335 4.37171 147.467 6.17391Q145.6 7.97611 141.96 7.97611Z"/>
  </g>
  <g id="Bold-L" transform="matrix(1 0 0 1 2249.01 1556)">
   <path d="M106.214-55.3074L137.142-55.3074Q138.835-55.3074 139.969-56.4664Q141.102-57.6255 141.102-59.3052Q141.102-60.9187 139.969-62.0518Q138.835-63.1848 137.142-63.1848L106.214-63.1848Q104.505-63.1848 103.354-62.0518Q102.202-60.9187 102.202-59.3052Q102.202-57.6255 103.354-56.4664Q104.505-55.3074 106.214-55.3074ZM106.214-31.2142L137.142-31.2142Q138.835-31.2142 139.969-32.3733Q141.102-33.5324 141.102-35.212Q141.102-36.8255 139.969-37.9586Q138.835-39.0917 137.142-39.0917L106.214-39.0917Q104.505-39.0917 103.354-37.9586Q102.202-36.8255 102.202-35.212Q102.202-33.5324 103.354-32.3733Q104.505-31.2142 106.214-31.2142ZM106.214-7.16529L137.142-7.16529Q138.835-7.16529 139.969-8.29836Q141.102-9.43144 141.102-11.0449Q141.102-12.7246 139.969-13.8837Q138.835-15.0428 137.142-15.0428L106.214-15.0428Q104.505-15.0428 103.354-13.8837Q102.202-12.7246 102.202-11.0449Q102.202-9.43144 103.354-8.29836Q104.505-7.16529 106.214-7.16529ZM43.4891-7.16529L89.4896-7.16529Q91.3132-7.16529 92.2368-8.3081Q93.1603-9.45091 93.1603-11.1129Q93.1603-13.2685 91.5595-16.6766Q89.9587-20.0847 86.7061-23.5039Q83.4535-26.923 78.4249-29.2533Q73.3964-31.5836 66.5039-31.5836Q59.6115-31.5836 54.5829-29.2533Q49.5544-26.923 46.2872-23.5039Q43.02-20.0847 41.4377-16.6766Q39.8553-13.2685 39.8553-11.1129Q39.8553-9.45091 40.7675-8.3081Q41.6797-7.16529 43.4891-7.16529ZM66.5039-35.6327Q72.0954-35.6327 75.9911-39.8137Q79.8867-43.9947 79.8867-50.2438Q79.8867-56.1058 75.9911-60.3668Q72.0954-64.6279 66.5039-64.6279Q60.9494-64.6279 57.0097-60.3668Q53.0699-56.1058 53.0699-50.2438Q53.0699-43.9947 57.0097-39.8137Q60.9494-35.6327 66.5039-35.6327ZM37.5443 24.3579L144.388 24.3579Q154.904 24.3579 160.376 18.8714Q165.849 13.3848 165.849 3.02275L165.849-73.4155Q165.849-83.7776 160.376-89.2713Q154.904-94.7649 144.388-94.7649L37.5443-94.7649Q27.1168-94.7649 21.6004-89.2855Q16.084-83.8061 16.084-73.4155L16.084 3.02275Q16.084 13.3991 21.6004 18.8785Q27.1168 24.3579 37.5443 24.3579ZM38.9901 9.88516Q34.8616 9.88516 32.6907 7.77651Q30.5198 5.66787 30.5198 1.37779L30.5198-71.7848Q30.5198-76.1411 32.6907-78.2166Q34.8616-80.2922 38.9901-80.2922L142.942-80.2922Q147.072-80.2922 149.242-78.2166Q151.413-76.1411 151.413-71.7848L151.413 1.37779Q151.413 5.66787 149.242 7.77651Q147.072 9.88516 142.942 9.88516Z"/>
  </g>
  <g id="Semibold-L" transform="matrix(1 0 0 1 1952.64 1556)">
   <path d="M105.706-55.9929L138.147-55.9929Q139.757-55.9929 140.834-57.0902Q141.91-58.1875 141.91-59.7775Q141.91-61.307 140.834-62.3839Q139.757-63.4609 138.147-63.4609L105.706-63.4609Q104.098-63.4609 103-62.3839Q101.902-61.307 101.902-59.7775Q101.902-58.1875 103-57.0902Q104.098-55.9929 105.706-55.9929ZM105.706-31.4268L138.147-31.4268Q139.757-31.4268 140.834-32.5241Q141.91-33.6214 141.91-35.2114Q141.91-36.7409 140.834-37.8178Q139.757-38.8947 138.147-38.8947L105.706-38.8947Q104.098-38.8947 103-37.8178Q101.902-36.7409 101.902-35.2114Q101.902-33.6214 103-32.5241Q104.098-31.4268 105.706-31.4268ZM105.706-6.87795L138.147-6.87795Q139.757-6.87795 140.834-7.9549Q141.91-9.03184 141.91-10.5613Q141.91-12.1513 140.834-13.2486Q139.757-14.3459 138.147-14.3459L105.706-14.3459Q104.098-14.3459 103-13.2486Q101.902-12.1513 101.902-10.5613Q101.902-9.03184 103-7.9549Q104.098-6.87795 105.706-6.87795ZM41.5382-6.87795L89.1504-6.87795Q90.8275-6.87795 91.6666-7.91497Q92.5056-8.95198 92.5056-10.4894Q92.5056-12.6832 90.8619-16.1653Q89.2182-19.6473 85.8931-23.1509Q82.5679-26.6546 77.453-29.0397Q72.338-31.4248 65.3536-31.4248Q58.3691-31.4248 53.2542-29.0397Q48.1393-26.6546 44.8048-23.1509Q41.4704-19.6473 39.8477-16.1653Q38.225-12.6832 38.225-10.4894Q38.225-8.95198 39.053-7.91497Q39.8809-6.87795 41.5382-6.87795ZM65.3536-35.6241Q71.0315-35.6241 74.9759-39.8617Q78.9204-44.0994 78.9204-50.4405Q78.9204-56.3782 74.9759-60.7068Q71.0315-65.0355 65.3536-65.0355Q59.7177-65.0355 55.7213-60.7068Q51.7249-56.3782 51.7249-50.4405Q51.7249-44.0994 55.7213-39.8617Q59.7177-35.6241 65.3536-35.6241ZM36.6561 23.568L144.598 23.568Q154.77 23.568 159.97 18.348Q165.17 13.1281 165.17 3.14167L165.17-73.5401Q165.17-83.5265 159.97-88.7564Q154.77-93.9863 144.598-93.9863L36.6561-93.9863Q26.588-93.9863 21.336-88.7763Q16.084-83.5662 16.084-73.5401L16.084 3.14167Q16.084 13.1479 21.336 18.358Q26.588 23.568 36.6561 23.568ZM37.6342 11.2012Q33.1463 11.2012 30.7775 8.88134Q28.4088 6.56143 28.4088 1.93386L28.4088-72.3522Q28.4088-77.0403 30.7775-79.3299Q33.1463-81.6196 37.6342-81.6196L143.62-81.6196Q148.086-81.6196 150.466-79.3299Q152.845-77.0403 152.845-72.3522L152.845 1.93386Q152.845 6.56143 150.466 8.88134Q148.086 11.2012 143.62 11.2012Z"/>
  </g>
  <g id="Medium-L" transform="matrix(1 0 0 1 1656.19 1556)">
   <path d="M105.321-56.5128L138.909-56.5128Q140.455-56.5128 141.489-57.5632Q142.524-58.6136 142.524-60.1357Q142.524-61.6014 141.489-62.6358Q140.455-63.6702 138.909-63.6702L105.321-63.6702Q103.788-63.6702 102.731-62.6358Q101.674-61.6014 101.674-60.1357Q101.674-58.6136 102.731-57.5632Q103.788-56.5128 105.321-56.5128ZM105.321-31.588L138.909-31.588Q140.455-31.588 141.489-32.6384Q142.524-33.6889 142.524-35.2109Q142.524-36.6766 141.489-37.711Q140.455-38.7454 138.909-38.7454L105.321-38.7454Q103.788-38.7454 102.731-37.711Q101.674-36.6766 101.674-35.2109Q101.674-33.6889 102.731-32.6384Q103.788-31.588 105.321-31.588ZM105.321-6.66009L138.909-6.66009Q140.455-6.66009 141.489-7.69447Q142.524-8.72884 142.524-10.1946Q142.524-11.7166 141.489-12.767Q140.455-13.8175 138.909-13.8175L105.321-13.8175Q103.788-13.8175 102.731-12.767Q101.674-11.7166 101.674-10.1946Q101.674-8.72884 102.731-7.69447Q103.788-6.66009 105.321-6.66009ZM40.059-6.66009L88.8933-6.66009Q90.4593-6.66009 91.2342-7.61688Q92.0092-8.57367 92.0092-10.0167Q92.0092-12.2395 90.333-15.7775Q88.6568-19.3156 85.2766-22.8833Q81.8964-26.4511 76.716-28.8777Q71.5356-31.3044 64.4814-31.3044Q57.4271-31.3044 52.2467-28.8777Q47.0663-26.4511 43.6809-22.8833Q40.2954-19.3156 38.6421-15.7775Q36.9888-12.2395 36.9888-10.0167Q36.9888-8.57367 37.7529-7.61688Q38.5171-6.66009 40.059-6.66009ZM64.4814-35.6175Q70.2247-35.6175 74.2062-39.8981Q78.1877-44.1787 78.1877-50.5896Q78.1877-56.5847 74.2062-60.9646Q70.2247-65.3445 64.4814-65.3445Q58.7838-65.3445 54.7444-60.9646Q50.7051-56.5847 50.7051-50.5896Q50.7051-44.1787 54.7444-39.8981Q58.7838-35.6175 64.4814-35.6175ZM35.9826 22.9691L144.757 22.9691Q154.668 22.9691 159.662 17.9512Q164.655 12.9334 164.655 3.23184L164.655-73.6346Q164.655-83.3361 159.662-88.366Q154.668-93.3959 144.757-93.3959L35.9826-93.3959Q26.187-93.3959 21.1355-88.3902Q16.084-83.3844 16.084-73.6346L16.084 3.23184Q16.084 12.9575 21.1355 17.9633Q26.187 22.9691 35.9826 22.9691ZM36.606 12.1992Q31.8456 12.1992 29.3269 9.71906Q26.8081 7.23897 26.8081 2.3555L26.8081-72.7824Q26.8081-77.7221 29.3269-80.1741Q31.8456-82.626 36.606-82.626L144.133-82.626Q148.856-82.626 151.394-80.1741Q153.931-77.7221 153.931-72.7824L153.931 2.3555Q153.931 7.23897 151.394 9.71906Q148.856 12.1992 144.133 12.1992Z"/>
  </g>
  <g id="Regular-L" transform="matrix(1 0 0 1 1359.81 1556)">
   <path d="M104.818-57.1908L139.903-57.1908Q141.366-57.1908 142.345-58.1802Q143.324-59.1695 143.324-60.6028Q143.324-61.9855 142.345-62.9643Q141.366-63.9432 139.903-63.9432L104.818-63.9432Q103.385-63.9432 102.381-62.9643Q101.376-61.9855 101.376-60.6028Q101.376-59.1695 102.381-58.1802Q103.385-57.1908 104.818-57.1908ZM104.818-31.7982L139.903-31.7982Q141.366-31.7982 142.345-32.7876Q143.324-33.7769 143.324-35.2102Q143.324-36.5929 142.345-37.5717Q141.366-38.5506 139.903-38.5506L104.818-38.5506Q103.385-38.5506 102.381-37.5717Q101.376-36.5929 101.376-35.2102Q101.376-33.7769 102.381-32.7876Q103.385-31.7982 104.818-31.7982ZM104.818-6.37591L139.903-6.37591Q141.366-6.37591 142.345-7.35478Q143.324-8.33364 143.324-9.71627Q143.324-11.1496 142.345-12.1389Q141.366-13.1283 139.903-13.1283L104.818-13.1283Q103.385-13.1283 102.381-12.1389Q101.376-11.1496 101.376-9.71627Q101.376-8.33364 102.381-7.35478Q103.385-6.37591 104.818-6.37591ZM38.1295-6.37591L88.5578-6.37591Q89.979-6.37591 90.6703-7.22807Q91.3616-8.08023 91.3616-9.40004Q91.3616-11.6606 89.6431-15.2717Q87.9245-18.8829 84.4725-22.5342Q81.0206-26.1856 75.7547-28.6665Q70.4889-31.1473 63.3437-31.1473Q56.1984-31.1473 50.9326-28.6665Q45.6668-26.1856 42.2148-22.5342Q38.7628-18.8829 37.0696-15.2717Q35.3764-11.6606 35.3764-9.40004Q35.3764-8.08023 36.0572-7.22807Q36.7381-6.37591 38.1295-6.37591ZM63.3437-35.609Q69.1724-35.609 73.2022-39.9456Q77.232-44.2822 77.232-50.784Q77.232-56.8541 73.2022-61.3008Q69.1724-65.7476 63.3437-65.7476Q57.5656-65.7476 53.4702-61.3008Q49.3749-56.8541 49.3749-50.784Q49.3749-44.2822 53.4702-39.9456Q57.5656-35.609 63.3437-35.609ZM35.1041 22.1878L144.964 22.1878Q154.535 22.1878 159.26 17.4336Q163.984 12.6794 163.984 3.34945L163.984-73.7578Q163.984-83.0877 159.26-87.8568Q154.535-92.6259 144.964-92.6259L35.1041-92.6259Q25.664-92.6259 20.874-87.8865Q16.084-83.1472 16.084-73.7578L16.084 3.34945Q16.084 12.7092 20.874 17.4485Q25.664 22.1878 35.1041 22.1878ZM35.265 13.5008Q30.1491 13.5008 27.4347 10.8117Q24.7203 8.12271 24.7203 2.90547L24.7203-73.3435Q24.7203-78.6114 27.4347-81.2751Q30.1491-83.9388 35.265-83.9388L144.803-83.9388Q149.86-83.9388 152.604-81.2751Q155.348-78.6114 155.348-73.3435L155.348 2.90547Q155.348 8.12271 152.604 10.8117Q149.86 13.5008 144.803 13.5008Z"/>
  </g>
  <g id="Light-L" transform="matrix(1 0 0 1 1063.54 1556)">
   <path d="M104.285-58.8326L140.272-58.8326Q141.469-58.8326 142.263-59.6167Q143.057-60.4008 143.057-61.5468Q143.057-62.6627 142.263-63.4568Q141.469-64.251 140.272-64.251L104.285-64.251Q103.139-64.251 102.329-63.4568Q101.52-62.6627 101.52-61.5468Q101.52-60.4008 102.329-59.6167Q103.139-58.8326 104.285-58.8326ZM104.285-32.4549L140.272-32.4549Q141.469-32.4549 142.263-33.2391Q143.057-34.0232 143.057-35.1692Q143.057-36.285 142.263-37.0792Q141.469-37.8734 140.272-37.8734L104.285-37.8734Q103.139-37.8734 102.329-37.0792Q101.52-36.285 101.52-35.1692Q101.52-34.0232 102.329-33.2391Q103.139-32.4549 104.285-32.4549ZM104.285-6.02704L140.272-6.02704Q141.469-6.02704 142.263-6.8212Q143.057-7.61537 143.057-8.73122Q143.057-9.87723 142.263-10.6613Q141.469-11.4455 140.272-11.4455L104.285-11.4455Q103.139-11.4455 102.329-10.6613Q101.52-9.87723 101.52-8.73122Q101.52-7.61537 102.329-6.8212Q103.139-6.02704 104.285-6.02704ZM36.1389-6.02704L88.291-6.02704Q89.5275-6.02704 90.0854-6.74581Q90.6434-7.46457 90.6434-8.64073Q90.6434-10.9628 88.9043-14.7074Q87.1652-18.4519 83.6619-22.2367Q80.1586-26.0214 74.8107-28.6049Q69.4628-31.1884 62.215-31.1884Q54.9671-31.1884 49.6192-28.6049Q44.2713-26.0214 40.768-22.2367Q37.2647-18.4519 35.5407-14.7074Q33.8167-10.9628 33.8167-8.64073Q33.8167-7.46457 34.3847-6.74581Q34.9527-6.02704 36.1389-6.02704ZM62.215-35.7321Q68.1258-35.7321 72.2172-40.12Q76.3085-44.5079 76.3085-51.1124Q76.3085-57.2645 72.2172-61.7831Q68.1258-66.3017 62.215-66.3017Q56.3343-66.3017 52.1876-61.7831Q48.041-57.2645 48.041-51.1124Q48.041-44.5079 52.1876-40.12Q56.3343-35.7321 62.215-35.7321ZM34.078 21.3259L145.108 21.3259Q154.125 21.3259 158.613 16.7872Q163.102 12.2485 163.102 3.47258L163.102-73.9014Q163.102-82.6773 158.613-87.2411Q154.125-91.805 145.108-91.805L34.078-91.805Q25.1715-91.805 20.6277-87.2914Q16.084-82.7778 16.084-73.9014L16.084 3.47258Q16.084 12.2987 20.6277 16.8123Q25.1715 21.3259 34.078 21.3259ZM34.2389 14.6911Q28.5894 14.6911 25.639 11.7558Q22.6887 8.82046 22.6887 3.11069L22.6887-73.5898Q22.6887-79.3297 25.639-82.2499Q28.5894-85.1701 34.2389-85.1701L144.947-85.1701Q150.496-85.1701 153.496-82.2499Q156.497-79.3297 156.497-73.5898L156.497 3.11069Q156.497 8.82046 153.496 11.7558Q150.496 14.6911 144.947 14.6911Z"/>
  </g>
  <g id="Thin-L" transform="matrix(1 0 0 1 767.413 1556)">
   <path d="M103.579-61.0039L140.761-61.0039Q141.604-61.0039 142.154-61.5166Q142.704-62.0293 142.704-62.7954Q142.704-63.5584 142.154-64.1082Q141.604-64.6581 140.761-64.6581L103.579-64.6581Q102.813-64.6581 102.261-64.1082Q101.71-63.5584 101.71-62.7954Q101.71-62.0293 102.261-61.5166Q102.813-61.0039 103.579-61.0039ZM103.579-33.3235L140.761-33.3235Q141.604-33.3235 142.154-33.8362Q142.704-34.3489 142.704-35.1149Q142.704-35.8779 142.154-36.4278Q141.604-36.9777 140.761-36.9777L103.579-36.9777Q102.813-36.9777 102.261-36.4278Q101.71-35.8779 101.71-35.1149Q101.71-34.3489 102.261-33.8362Q102.813-33.3235 103.579-33.3235ZM103.579-5.56563L140.761-5.56563Q141.604-5.56563 142.154-6.11551Q142.704-6.6654 142.704-7.42841Q142.704-8.19443 142.154-8.70712Q141.604-9.21982 140.761-9.21982L103.579-9.21982Q102.813-9.21982 102.261-8.70712Q101.71-8.19443 101.71-7.42841Q101.71-6.6654 102.261-6.11551Q102.813-5.56563 103.579-5.56563ZM33.5061-5.56563L87.9382-5.56563Q88.9304-5.56563 89.3119-6.10797Q89.6934-6.65031 89.6934-7.63647Q89.6934-10.04 87.9272-13.961Q86.161-17.8819 82.5898-21.8431Q79.0187-25.8043 73.5622-28.5235Q68.1057-31.2427 60.7222-31.2427Q53.3386-31.2427 47.8821-28.5235Q42.4256-25.8043 38.8545-21.8431Q35.2834-17.8819 33.5186-13.961Q31.7539-10.04 31.7539-7.63647Q31.7539-6.65031 32.1726-6.10797Q32.5913-5.56563 33.5061-5.56563ZM60.7222-35.895Q66.7416-35.895 70.9144-40.3507Q75.0872-44.8065 75.0872-51.5467Q75.0872-57.8074 70.9144-62.4209Q66.7416-67.0345 60.7222-67.0345Q54.7058-67.0345 50.4912-62.4209Q46.2767-57.8074 46.2767-51.5467Q46.2767-44.8065 50.4912-40.3507Q54.7058-35.895 60.7222-35.895ZM32.7209 20.1859L145.298 20.1859Q153.582 20.1859 157.758 15.9322Q161.935 11.6785 161.935 3.63544L161.935-74.0914Q161.935-82.1344 157.758-86.4269Q153.582-90.7193 145.298-90.7193L32.7209-90.7193Q24.5201-90.7193 20.302-86.5043Q16.084-82.2892 16.084-74.0914L16.084 3.63544Q16.084 11.7559 20.302 15.9709Q24.5201 20.1859 32.7209 20.1859ZM32.8818 16.2653Q26.5266 16.2653 23.2641 13.0043Q20.0016 9.74328 20.0016 3.38211L20.0016-73.9155Q20.0016-80.2797 23.2641-83.5392Q26.5266-86.7987 32.8818-86.7987L145.137-86.7987Q151.337-86.7987 154.677-83.5392Q158.017-80.2797 158.017-73.9155L158.017 3.38211Q158.017 9.74328 154.677 13.0043Q151.337 16.2653 145.137 16.2653Z"/>
  </g>
  <g id="Ultralight-L" transform="matrix(1 0 0 1 471.001 1556)">
   <path d="M103.217-62.1161L141.011-62.1161Q141.674-62.1161 142.099-62.4898Q142.523-62.8634 142.523-63.4348Q142.523-64.0171 142.099-64.4419Q141.674-64.8667 141.011-64.8667L103.217-64.8667Q102.646-64.8667 102.227-64.4419Q101.807-64.0171 101.807-63.4348Q101.807-62.8634 102.227-62.4898Q102.646-62.1161 103.217-62.1161ZM103.217-33.7683L141.011-33.7683Q141.674-33.7683 142.099-34.142Q142.523-34.5157 142.523-35.0871Q142.523-35.6694 142.099-36.0941Q141.674-36.5189 141.011-36.5189L103.217-36.5189Q102.646-36.5189 102.227-36.0941Q101.807-35.6694 101.807-35.0871Q101.807-34.5157 102.227-34.142Q102.646-33.7683 103.217-33.7683ZM103.217-5.32929L141.011-5.32929Q141.674-5.32929 142.099-5.75406Q142.523-6.17883 142.523-6.76111Q142.523-7.33251 142.099-7.70618Q141.674-8.07985 141.011-8.07985L103.217-8.07985Q102.646-8.07985 102.227-7.70618Q101.807-7.33251 101.807-6.76111Q101.807-6.17883 102.227-5.75406Q102.646-5.32929 103.217-5.32929ZM32.1576-5.32929L87.7575-5.32929Q88.6246-5.32929 88.9157-5.78127Q89.2068-6.23325 89.2068-7.1221Q89.2068-9.56735 87.4267-13.5787Q85.6466-17.59 82.0407-21.6415Q78.4348-25.6931 72.9227-28.4818Q67.4106-31.2705 59.9576-31.2705Q52.5045-31.2705 46.9924-28.4818Q41.4803-25.6931 37.8744-21.6415Q34.2685-17.59 32.4829-13.5787Q30.6974-9.56735 30.6974-7.1221Q30.6974-6.23325 31.0396-5.78127Q31.3819-5.32929 32.1576-5.32929ZM59.9576-35.9784Q66.0326-35.9784 70.2471-40.4689Q74.4616-44.9594 74.4616-51.7691Q74.4616-58.0854 70.2471-62.7476Q66.0326-67.4099 59.9576-67.4099Q53.8716-67.4099 49.6224-62.7476Q45.3731-58.0854 45.3731-51.7691Q45.3731-44.9594 49.6224-40.4689Q53.8716-35.9784 59.9576-35.9784ZM32.0258 19.6021L145.395 19.6021Q153.304 19.6021 157.32 15.4943Q161.337 11.3865 161.337 3.71885L161.337-74.1887Q161.337-81.8564 157.32-86.0098Q153.304-90.1632 145.395-90.1632L32.0258-90.1632Q24.1864-90.1632 20.1352-86.1011Q16.084-82.039 16.084-74.1887L16.084 3.71885Q16.084 11.4778 20.1352 15.5399Q24.1864 19.6021 32.0258 19.6021ZM32.1867 17.0716Q25.4701 17.0716 22.0477 13.6438Q18.6253 10.2159 18.6253 3.52113L18.6253-74.0823Q18.6253-80.7662 22.0477-84.1995Q25.4701-87.6328 32.1867-87.6328L145.234-87.6328Q151.768-87.6328 155.282-84.1995Q158.796-80.7662 158.796-74.0823L158.796 3.52113Q158.796 10.2159 155.282 13.6438Q151.768 17.0716 145.234 17.0716Z"/>
  </g>
  <g id="Black-M" transform="matrix(1 0 0 1 2861.97 1126)">
   <path d="M83.7552-49.1202L103.115-49.1202Q104.609-49.1202 105.606-50.1487Q106.603-51.1771 106.603-52.6715Q106.603-54.1033 105.606-55.1003Q104.609-56.0973 103.115-56.0973L83.7552-56.0973Q82.2038-56.0973 81.204-55.1003Q80.2042-54.1033 80.2042-52.6715Q80.2042-51.1771 81.204-50.1487Q82.2038-49.1202 83.7552-49.1202ZM83.7552-31.6529L103.115-31.6529Q104.609-31.6529 105.606-32.6813Q106.603-33.7098 106.603-35.2042Q106.603-36.6359 105.606-37.6329Q104.609-38.6299 103.115-38.6299L83.7552-38.6299Q82.2038-38.6299 81.204-37.6329Q80.2042-36.6359 80.2042-35.2042Q80.2042-33.7098 81.204-32.6813Q82.2038-31.6529 83.7552-31.6529ZM83.7552-14.3L103.115-14.3Q104.609-14.3 105.606-15.297Q106.603-16.294 106.603-17.7258Q106.603-19.2201 105.606-20.2486Q104.609-21.2771 103.115-21.2771L83.7552-21.2771Q82.2038-21.2771 81.204-20.2486Q80.2042-19.2201 80.2042-17.7258Q80.2042-16.294 81.204-15.297Q82.2038-14.3 83.7552-14.3ZM39.3416-14.3L70.3404-14.3Q72.1654-14.3 73.1096-15.4831Q74.0539-16.6661 74.0539-18.3088Q74.0539-19.8759 72.9456-22.3221Q71.8374-24.7682 69.5354-27.1884Q67.2334-29.6086 63.5897-31.2712Q59.9459-32.9337 54.8695-32.9337Q49.7931-32.9337 46.1494-31.2712Q42.5057-29.6086 40.1752-27.1884Q37.8446-24.7682 36.7391-22.3221Q35.6336-19.8759 35.6336-18.3088Q35.6336-16.6661 36.575-15.4831Q37.5163-14.3 39.3416-14.3ZM54.8695-35.6118Q58.9494-35.6118 61.8301-38.6848Q64.7108-41.7578 64.7108-46.3358Q64.7108-50.6596 61.8301-53.7661Q58.9494-56.8725 54.8695-56.8725Q50.7952-56.8725 47.9091-53.7661Q45.023-50.6596 45.023-46.3358Q45.023-41.7578 47.9091-38.6848Q50.7952-35.6118 54.8695-35.6118ZM31.6183 13.2036L111.233 13.2036Q120.306 13.2036 125.348 8.1618Q130.39 3.12003 130.39-5.9376L130.39-64.4588Q130.39-73.5164 125.348-78.558Q120.306-83.5996 111.233-83.5996L31.6183-83.5996Q22.5558-83.5996 17.5084-78.5577Q12.4609-73.5158 12.4609-64.4588L12.4609-5.9376Q12.4609 3.11973 17.5084 8.16165Q22.5558 13.2036 31.6183 13.2036ZM34.2552-4.14002Q32.0406-4.14002 30.9198-5.1724Q29.799-6.20478 29.799-8.60171L29.799-61.7944Q29.799-64.2539 30.9198-65.255Q32.0406-66.2561 34.2552-66.2561L108.596-66.2561Q110.868-66.2561 111.96-65.255Q113.052-64.2539 113.052-61.7944L113.052-8.60171Q113.052-6.20478 111.96-5.1724Q110.868-4.14002 108.596-4.14002Z"/>
  </g>
  <g id="Heavy-M" transform="matrix(1 0 0 1 2565.6 1126)">
   <path d="M83.2256-49.6366L104.31-49.6366Q105.755-49.6366 106.721-50.6308Q107.686-51.6251 107.686-53.0675Q107.686-54.45 106.721-55.4155Q105.755-56.3811 104.31-56.3811L83.2256-56.3811Q81.7396-56.3811 80.766-55.4155Q79.7923-54.45 79.7923-53.0675Q79.7923-51.6251 80.766-50.6308Q81.7396-49.6366 83.2256-49.6366ZM83.2256-31.7813L104.31-31.7813Q105.755-31.7813 106.721-32.7755Q107.686-33.7697 107.686-35.2121Q107.686-36.5947 106.721-37.5602Q105.755-38.5257 104.31-38.5257L83.2256-38.5257Q81.7396-38.5257 80.766-37.5602Q79.7923-36.5947 79.7923-35.2121Q79.7923-33.7697 80.766-32.7755Q81.7396-31.7813 83.2256-31.7813ZM83.2256-14.0107L104.31-14.0107Q105.755-14.0107 106.721-14.9762Q107.686-15.9418 107.686-17.3243Q107.686-18.7667 106.721-19.7609Q105.755-20.7552 104.31-20.7552L83.2256-20.7552Q81.7396-20.7552 80.766-19.7609Q79.7923-18.7667 79.7923-17.3243Q79.7923-15.9418 80.766-14.9762Q81.7396-14.0107 83.2256-14.0107ZM37.2963-14.0107L69.9677-14.0107Q71.6467-14.0107 72.5125-15.0883Q73.3782-16.1659 73.3782-17.6816Q73.3782-19.2839 72.2201-21.7951Q71.0619-24.3062 68.6789-26.8049Q66.2959-29.3036 62.5604-31.0136Q58.8248-32.7236 53.6538-32.7236Q48.4828-32.7236 44.7473-31.0136Q41.0117-29.3036 38.6069-26.8049Q36.2021-24.3062 35.0521-21.7951Q33.902-19.2839 33.902-17.6816Q33.902-16.1659 34.7609-15.0883Q35.6197-14.0107 37.2963-14.0107ZM53.6538-35.5744Q57.8255-35.5744 60.7549-38.7082Q63.6843-41.842 63.6843-46.5145Q63.6843-50.9167 60.7549-54.0935Q57.8255-57.2702 53.6538-57.2702Q49.4984-57.2702 46.5515-54.0935Q43.6047-50.9167 43.6047-46.5145Q43.6047-41.842 46.5515-38.7082Q49.4984-35.5744 53.6538-35.5744ZM30.7128 12.3874L111.468 12.3874Q120.224 12.3874 124.972 7.63727Q129.719 2.88712 129.719-5.81331L129.719-64.5858Q129.719-73.2862 124.972-78.0376Q120.224-82.789 111.468-82.789L30.7128-82.789Q21.9913-82.789 17.2261-78.0401Q12.4609-73.2911 12.4609-64.5858L12.4609-5.81331Q12.4609 2.88957 17.2261 7.63849Q21.9913 12.3874 30.7128 12.3874ZM32.7568-2.72741Q30.2012-2.72741 28.8804-3.97469Q27.5595-5.22197 27.5595-7.9409L27.5595-62.4607Q27.5595-65.2395 28.8804-66.4568Q30.2012-67.6742 32.7568-67.6742L109.424-67.6742Q112.018-67.6742 113.319-66.4568Q114.621-65.2395 114.621-62.4607L114.621-7.9409Q114.621-5.22197 113.319-3.97469Q112.018-2.72741 109.424-2.72741Z"/>
  </g>
  <g id="Bold-M" transform="matrix(1 0 0 1 2269.26 1126)">
   <path d="M82.6332-50.2143L105.647-50.2143Q107.037-50.2143 107.967-51.1702Q108.897-52.1261 108.897-53.5104Q108.897-54.8379 107.967-55.7682Q107.037-56.6985 105.647-56.6985L82.6332-56.6985Q81.2203-56.6985 80.2759-55.7682Q79.3315-54.8379 79.3315-53.5104Q79.3315-52.1261 80.2759-51.1702Q81.2203-50.2143 82.6332-50.2143ZM82.6332-31.9249L105.647-31.9249Q107.037-31.9249 107.967-32.8808Q108.897-33.8368 108.897-35.2211Q108.897-36.5485 107.967-37.4789Q107.037-38.4092 105.647-38.4092L82.6332-38.4092Q81.2203-38.4092 80.2759-37.4789Q79.3315-36.5485 79.3315-35.2211Q79.3315-33.8368 80.2759-32.8808Q81.2203-31.9249 82.6332-31.9249ZM82.6332-13.6871L105.647-13.6871Q107.037-13.6871 107.967-14.6174Q108.897-15.5477 108.897-16.8752Q108.897-18.2595 107.967-19.2154Q107.037-20.1714 105.647-20.1714L82.6332-20.1714Q81.2203-20.1714 80.2759-19.2154Q79.3315-18.2595 79.3315-16.8752Q79.3315-15.5477 80.2759-14.6174Q81.2203-13.6871 82.6332-13.6871ZM35.0083-13.6871L69.5509-13.6871Q71.0666-13.6871 71.8445-14.6468Q72.6224-15.6064 72.6224-16.9799Q72.6224-18.6216 71.4084-21.2055Q70.1944-23.7894 67.7209-26.376Q65.2473-28.9625 61.409-30.7255Q57.5707-32.4886 52.2939-32.4886Q47.017-32.4886 43.1788-30.7255Q39.3405-28.9625 36.8526-26.376Q34.3647-23.7894 33.1649-21.2055Q31.965-18.6216 31.965-16.9799Q31.965-15.6064 32.7316-14.6468Q33.4981-13.6871 35.0083-13.6871ZM52.2939-35.5326Q56.5683-35.5326 59.5521-38.7343Q62.536-41.9361 62.536-46.7145Q62.536-51.2044 59.5521-54.4597Q56.5683-57.715 52.2939-57.715Q48.0477-57.715 45.0328-54.4597Q42.018-51.2044 42.018-46.7145Q42.018-41.9361 45.0328-38.7343Q48.0477-35.5326 52.2939-35.5326ZM29.6999 11.4744L111.73 11.4744Q120.132 11.4744 124.551 7.0505Q128.969 2.62658 128.969-5.67427L128.969-64.7279Q128.969-73.0288 124.551-77.4555Q120.132-81.8821 111.73-81.8821L29.6999-81.8821Q21.3597-81.8821 16.9103-77.461Q12.4609-73.0398 12.4609-64.7279L12.4609-5.67427Q12.4609 2.6321 16.9103 7.05326Q21.3597 11.4744 29.6999 11.4744ZM31.0806-1.1472Q28.1436-1.1472 26.5989-2.63488Q25.0543-4.12256 25.0543-7.2017L25.0543-63.206Q25.0543-66.3419 26.5989-67.8012Q28.1436-69.2605 31.0806-69.2605L110.35-69.2605Q113.304-69.2605 114.84-67.8012Q116.376-66.3419 116.376-63.206L116.376-7.2017Q116.376-4.12256 114.84-2.63488Q113.304-1.1472 110.35-1.1472Z"/>
  </g>
  <g id="Semibold-M" transform="matrix(1 0 0 1 1972.81 1126)">
   <path d="M82.2247-50.6125L106.568-50.6125Q107.92-50.6125 108.826-51.542Q109.732-52.4716 109.732-53.8158Q109.732-55.1053 108.826-56.0113Q107.92-56.9174 106.568-56.9174L82.2247-56.9174Q80.8624-56.9174 79.9381-56.0113Q79.0138-55.1053 79.0138-53.8158Q79.0138-52.4716 79.9381-51.542Q80.8624-50.6125 82.2247-50.6125ZM82.2247-32.0239L106.568-32.0239Q107.92-32.0239 108.826-32.9535Q109.732-33.883 109.732-35.2272Q109.732-36.5167 108.826-37.4228Q107.92-38.3288 106.568-38.3288L82.2247-38.3288Q80.8624-38.3288 79.9381-37.4228Q79.0138-36.5167 79.0138-35.2272Q79.0138-33.883 79.9381-32.9535Q80.8624-32.0239 82.2247-32.0239ZM82.2247-13.464L106.568-13.464Q107.92-13.464 108.826-14.3701Q109.732-15.2761 109.732-16.5656Q109.732-17.9098 108.826-18.8394Q107.92-19.7689 106.568-19.7689L82.2247-19.7689Q80.8624-19.7689 79.9381-18.8394Q79.0138-17.9098 79.0138-16.5656Q79.0138-15.2761 79.9381-14.3701Q80.8624-13.464 82.2247-13.464ZM33.4309-13.464L69.2636-13.464Q70.6666-13.464 71.384-14.3423Q72.1014-15.2206 72.1014-16.4962Q72.1014-18.165 70.8489-20.7991Q69.5964-23.4332 67.0604-26.0802Q64.5243-28.7273 60.6152-30.5269Q56.7061-32.3266 51.3563-32.3266Q46.0066-32.3266 42.0974-30.5269Q38.1883-28.7273 35.6432-26.0802Q33.0981-23.4332 31.8638-20.7991Q30.6296-18.165 30.6296-16.4962Q30.6296-15.2206 31.3326-14.3423Q32.0355-13.464 33.4309-13.464ZM51.3563-35.5037Q55.7016-35.5037 58.723-38.7523Q61.7443-42.001 61.7443-46.8523Q61.7443-51.4026 58.723-54.7121Q55.7016-58.0216 51.3563-58.0216Q47.0476-58.0216 43.9859-54.7121Q40.9242-51.4026 40.9242-46.8523Q40.9242-42.001 43.9859-38.7523Q47.0476-35.5037 51.3563-35.5037ZM29.0015 10.845L111.911 10.845Q120.069 10.845 124.261 6.64599Q128.452 2.44697 128.452-5.57841L128.452-64.8259Q128.452-72.8513 124.261-77.0541Q120.069-81.257 111.911-81.257L29.0015-81.257Q20.9244-81.257 16.6926-77.0618Q12.4609-72.8666 12.4609-64.8259L12.4609-5.57841Q12.4609 2.45461 16.6926 6.64981Q20.9244 10.845 29.0015 10.845ZM29.925-0.0578093Q26.725-0.0578093 25.0262-1.71122Q23.3273-3.36463 23.3273-6.69209L23.3273-63.7199Q23.3273-67.102 25.0262-68.7281Q26.725-70.3542 29.925-70.3542L110.988-70.3542Q114.191-70.3542 115.888-68.7281Q117.586-67.102 117.586-63.7199L117.586-6.69209Q117.586-3.36463 115.888-1.71122Q114.191-0.0578093 110.988-0.0578093Z"/>
  </g>
  <g id="Medium-M" transform="matrix(1 0 0 1 1676.3 1126)">
   <path d="M81.915-50.9145L107.267-50.9145Q108.59-50.9145 109.478-51.824Q110.365-52.7335 110.365-54.0473Q110.365-55.3081 109.478-56.1957Q108.59-57.0833 107.267-57.0833L81.915-57.0833Q80.5909-57.0833 79.6819-56.1957Q78.7729-55.3081 78.7729-54.0473Q78.7729-52.7335 79.6819-51.824Q80.5909-50.9145 81.915-50.9145ZM81.915-32.099L107.267-32.099Q108.59-32.099 109.478-33.0085Q110.365-33.9181 110.365-35.2319Q110.365-36.4926 109.478-37.3802Q108.59-38.2679 107.267-38.2679L81.915-38.2679Q80.5909-38.2679 79.6819-37.3802Q78.7729-36.4926 78.7729-35.2319Q78.7729-33.9181 79.6819-33.0085Q80.5909-32.099 81.915-32.099ZM81.915-13.2949L107.267-13.2949Q108.59-13.2949 109.478-14.1825Q110.365-15.0701 110.365-16.3309Q110.365-17.6447 109.478-18.5542Q108.59-19.4637 107.267-19.4637L81.915-19.4637Q80.5909-19.4637 79.6819-18.5542Q78.7729-17.6447 78.7729-16.3309Q78.7729-15.0701 79.6819-14.1825Q80.5909-13.2949 81.915-13.2949ZM32.2349-13.2949L69.0457-13.2949Q70.3633-13.2949 71.0348-14.1115Q71.7063-14.9282 71.7063-16.1294Q71.7063-17.8188 70.4246-20.4909Q69.143-23.163 66.5596-25.856Q63.9762-28.549 60.0134-30.3764Q56.0505-32.2037 50.6454-32.2037Q45.2404-32.2037 41.2775-30.3764Q37.3147-28.549 34.7262-25.856Q32.1376-23.163 30.8773-20.4909Q29.6171-17.8188 29.6171-16.1294Q29.6171-14.9282 30.2718-14.1115Q30.9265-13.2949 32.2349-13.2949ZM50.6454-35.4819Q55.0444-35.4819 58.0942-38.766Q61.1441-42.0502 61.1441-46.9568Q61.1441-51.553 58.0942-54.9035Q55.0444-58.2541 50.6454-58.2541Q46.2893-58.2541 43.192-54.9035Q40.0948-51.553 40.0948-46.9568Q40.0948-42.0502 43.192-38.766Q46.2893-35.4819 50.6454-35.4819ZM28.472 10.3678L112.049 10.3678Q120.021 10.3678 124.041 6.33927Q128.06 2.31078 128.06-5.50573L128.06-64.9002Q128.06-72.7167 124.041-76.7498Q120.021-80.7829 112.049-80.7829L28.472-80.7829Q20.5942-80.7829 16.5276-76.7591Q12.4609-72.7352 12.4609-64.9002L12.4609-5.50573Q12.4609 2.32003 16.5276 6.3439Q20.5942 10.3678 28.472 10.3678ZM29.0488 0.768209Q25.6495 0.768209 23.8336-1.01086Q22.0177-2.78993 22.0177-6.30569L22.0177-64.1095Q22.0177-67.6783 23.8336-69.4308Q25.6495-71.1834 29.0488-71.1834L111.472-71.1834Q114.863-71.1834 116.683-69.4308Q118.503-67.6783 118.503-64.1095L118.503-6.30569Q118.503-2.78993 116.683-1.01086Q114.863 0.768209 111.472 0.768209Z"/>
  </g>
  <g id="Regular-M" transform="matrix(1 0 0 1 1379.84 1126)">
   <path d="M81.5111-51.3083L108.178-51.3083Q109.464-51.3083 110.327-52.1917Q111.191-53.0752 111.191-54.3493Q111.191-55.5725 110.327-56.4362Q109.464-57.2998 108.178-57.2998L81.5111-57.2998Q80.2369-57.2998 79.3478-56.4362Q78.4587-55.5725 78.4587-54.3493Q78.4587-53.0752 79.3478-52.1917Q80.2369-51.3083 81.5111-51.3083ZM81.5111-32.1969L108.178-32.1969Q109.464-32.1969 110.327-33.0804Q111.191-33.9638 111.191-35.238Q111.191-36.4612 110.327-37.3248Q109.464-38.1884 108.178-38.1884L81.5111-38.1884Q80.2369-38.1884 79.3478-37.3248Q78.4587-36.4612 78.4587-35.238Q78.4587-33.9638 79.3478-33.0804Q80.2369-32.1969 81.5111-32.1969ZM81.5111-13.0742L108.178-13.0742Q109.464-13.0742 110.327-13.9378Q111.191-14.8014 111.191-16.0247Q111.191-17.2988 110.327-18.1823Q109.464-19.0657 108.178-19.0657L81.5111-19.0657Q80.2369-19.0657 79.3478-18.1823Q78.4587-17.2988 78.4587-16.0247Q78.4587-14.8014 79.3478-13.9378Q80.2369-13.0742 81.5111-13.0742ZM30.6749-13.0742L68.7615-13.0742Q69.9678-13.0742 70.5794-13.8104Q71.191-14.5467 71.191-15.651Q71.191-17.3673 69.8713-20.089Q68.5515-22.8107 65.9064-25.5635Q63.2612-28.3164 59.2283-30.1799Q55.1954-32.0435 49.7182-32.0435Q44.241-32.0435 40.2081-30.1799Q36.1752-28.3164 33.53-25.5635Q30.8849-22.8107 29.5906-20.089Q28.2964-17.3673 28.2964-15.651Q28.2964-14.5467 28.8882-13.8104Q29.48-13.0742 30.6749-13.0742ZM49.7182-35.4533Q54.1872-35.4533 57.2742-38.7838Q60.3611-42.1143 60.3611-47.0931Q60.3611-51.7491 57.2742-55.1532Q54.1872-58.5574 49.7182-58.5574Q45.3001-58.5574 42.1565-55.1532Q39.0129-51.7491 39.0129-47.0931Q39.0129-42.1143 42.1565-38.7838Q45.3001-35.4533 49.7182-35.4533ZM27.7814 9.74528L112.228 9.74528Q119.959 9.74528 123.754 5.93921Q127.548 2.13314 127.548-5.41093L127.548-64.9971Q127.548-72.5412 123.754-76.3529Q119.959-80.1646 112.228-80.1646L27.7814-80.1646Q20.1637-80.1646 16.3123-76.3642Q12.4609-72.5639 12.4609-64.9971L12.4609-5.41093Q12.4609 2.14448 16.3123 5.94488Q20.1637 9.74528 27.7814 9.74528ZM27.906 1.84562Q24.2465 1.84562 22.2781-0.0973549Q20.3096-2.04033 20.3096-5.80168L20.3096-64.6177Q20.3096-68.43 22.2781-70.3475Q24.2465-72.265 27.906-72.265L112.103-72.265Q115.74-72.265 117.72-70.3475Q119.7-68.43 119.7-64.6177L119.7-5.80168Q119.7-2.04033 117.72-0.0973549Q115.74 1.84562 112.103 1.84562Z"/>
  </g>
  <g id="Light-M" transform="matrix(1 0 0 1 1083.52 1126)">
   <path d="M81.0327-52.7802L108.509-52.7802Q109.556-52.7802 110.254-53.4797Q110.952-54.1791 110.952-55.1957Q110.952-56.1797 110.254-56.8777Q109.556-57.5758 108.509-57.5758L81.0327-57.5758Q80.0161-57.5758 79.3018-56.8777Q78.5875-56.1797 78.5875-55.1957Q78.5875-54.1791 79.3018-53.4797Q80.0161-52.7802 81.0327-52.7802ZM81.0327-32.7857L108.509-32.7857Q109.556-32.7857 110.254-33.4851Q110.952-34.1846 110.952-35.2012Q110.952-36.1852 110.254-36.8832Q109.556-37.5812 108.509-37.5812L81.0327-37.5812Q80.0161-37.5812 79.3018-36.8832Q78.5875-36.1852 78.5875-35.2012Q78.5875-34.1846 79.3018-33.4851Q80.0161-32.7857 81.0327-32.7857ZM81.0327-12.7614L108.509-12.7614Q109.556-12.7614 110.254-13.4595Q110.952-14.1575 110.952-15.1415Q110.952-16.1581 110.254-16.8575Q109.556-17.557 108.509-17.557L81.0327-17.557Q80.0161-17.557 79.3018-16.8575Q78.5875-16.1581 78.5875-15.1415Q78.5875-14.1575 79.3018-13.4595Q80.0161-12.7614 81.0327-12.7614ZM28.8902-12.7614L68.5223-12.7614Q69.563-12.7614 70.055-13.3781Q70.547-13.9947 70.547-14.9703Q70.547-16.7417 69.2089-19.583Q67.8708-22.4243 65.1796-25.2967Q62.4884-28.1692 58.382-30.1247Q54.2755-32.0803 48.7063-32.0803Q43.137-32.0803 39.0305-30.1247Q34.9241-28.1692 32.2329-25.2967Q29.5418-22.4243 28.2199-19.583Q26.898-16.7417 26.898-14.9703Q26.898-13.9947 27.3886-13.3781Q27.8792-12.7614 28.8902-12.7614ZM48.7063-35.5637Q53.2489-35.5637 56.391-38.9402Q59.5332-42.3167 59.5332-47.3875Q59.5332-52.1171 56.391-55.5856Q53.2489-59.0542 48.7063-59.0542Q44.1962-59.0542 41.0066-55.5856Q37.817-52.1171 37.817-47.3875Q37.817-42.3167 41.0066-38.9402Q44.1962-35.5637 48.7063-35.5637ZM26.8614 8.97252L112.357 8.97252Q119.591 8.97252 123.174 5.35964Q126.757 1.74676 126.757-5.30054L126.757-65.1259Q126.757-72.1732 123.174-75.8009Q119.591-79.4287 112.357-79.4287L26.8614-79.4287Q19.7221-79.4287 16.0915-75.8307Q12.4609-72.2327 12.4609-65.1259L12.4609-5.30054Q12.4609 1.7765 16.0915 5.37451Q19.7221 8.97252 26.8614 8.97252ZM26.986 2.91277Q22.8482 2.91277 20.6682 0.748999Q18.4881-1.41477 18.4881-5.61769L18.4881-64.8385Q18.4881-69.074 20.6682-71.2214Q22.8482-73.3689 26.986-73.3689L112.232-73.3689Q116.31-73.3689 118.52-71.2214Q120.73-69.074 120.73-64.8385L120.73-5.61769Q120.73-1.41477 118.52 0.748999Q116.31 2.91277 112.232 2.91277Z"/>
  </g>
  <g id="Thin-M" transform="matrix(1 0 0 1 787.336 1126)">
   <path d="M80.4-54.727L108.947-54.727Q109.677-54.727 110.156-55.1831Q110.635-55.6391 110.635-56.3151Q110.635-56.9827 110.156-57.4618Q109.677-57.9408 108.947-57.9408L80.4-57.9408Q79.7241-57.9408 79.241-57.4618Q78.7578-56.9827 78.7578-56.3151Q78.7578-55.6391 79.241-55.1831Q79.7241-54.727 80.4-54.727ZM80.4-33.5644L108.947-33.5644Q109.677-33.5644 110.156-34.0205Q110.635-34.4766 110.635-35.1525Q110.635-35.8202 110.156-36.2992Q109.677-36.7782 108.947-36.7782L80.4-36.7782Q79.7241-36.7782 79.241-36.2992Q78.7578-35.8202 78.7578-35.1525Q78.7578-34.4766 79.241-34.0205Q79.7241-33.5644 80.4-33.5644ZM80.4-12.3478L108.947-12.3478Q109.677-12.3478 110.156-12.8268Q110.635-13.3058 110.635-13.9735Q110.635-14.6494 110.156-15.1055Q109.677-15.5616 108.947-15.5616L80.4-15.5616Q79.7241-15.5616 79.241-15.1055Q78.7578-14.6494 78.7578-13.9735Q78.7578-13.3058 79.241-12.8268Q79.7241-12.3478 80.4-12.3478ZM26.5298-12.3478L68.206-12.3478Q69.0277-12.3478 69.3615-12.8062Q69.6953-13.2647 69.6953-14.0699Q69.6953-15.9144 68.3329-18.9138Q66.9704-21.9133 64.2184-24.9439Q61.4664-27.9745 57.2626-30.0517Q53.0588-32.129 47.3679-32.129Q41.677-32.129 37.4732-30.0517Q33.2693-27.9745 30.5174-24.9439Q27.7654-21.9133 26.407-18.9138Q25.0486-15.9144 25.0486-14.0699Q25.0486-13.2647 25.4054-12.8062Q25.7622-12.3478 26.5298-12.3478ZM47.3679-35.7097Q52.0078-35.7097 55.223-39.1471Q58.4381-42.5844 58.4381-47.7769Q58.4381-52.6037 55.223-56.1575Q52.0078-59.7112 47.3679-59.7112Q42.7362-59.7112 39.4857-56.1575Q36.2353-52.6037 36.2353-47.7769Q36.2353-42.5844 39.4857-39.1471Q42.7362-35.7097 47.3679-35.7097ZM25.6447 7.95048L112.527 7.95048Q119.104 7.95048 122.407 4.59311Q125.711 1.23574 125.711-5.15453L125.711-65.2962Q125.711-71.6865 122.407-75.0709Q119.104-78.4553 112.527-78.4553L25.6447-78.4553Q19.1381-78.4553 15.7995-75.125Q12.4609-71.7947 12.4609-65.2962L12.4609-5.15453Q12.4609 1.28982 15.7995 4.62015Q19.1381 7.95048 25.6447 7.95048ZM25.7693 4.32415Q20.9988 4.32415 18.5389 1.86837Q16.079-0.587407 16.079-5.37435L16.079-65.1305Q16.079-69.9257 18.5389-72.3773Q20.9988-74.829 25.7693-74.829L112.402-74.829Q117.065-74.829 119.579-72.3773Q122.093-69.9257 122.093-65.1305L122.093-5.37435Q122.093-0.587407 119.579 1.86837Q117.065 4.32415 112.402 4.32415Z"/>
  </g>
  <g id="Ultralight-M" transform="matrix(1 0 0 1 490.893 1126)">
   <path d="M80.076-55.7241L109.172-55.7241Q109.74-55.7241 110.107-56.0555Q110.473-56.387 110.473-56.8884Q110.473-57.394 110.107-57.7609Q109.74-58.1277 109.172-58.1277L80.076-58.1277Q79.5745-58.1277 79.2098-57.7609Q78.8451-57.394 78.8451-56.8884Q78.8451-56.387 79.2098-56.0555Q79.5745-55.7241 80.076-55.7241ZM80.076-33.9632L109.172-33.9632Q109.74-33.9632 110.107-34.2947Q110.473-34.6261 110.473-35.1276Q110.473-35.6332 110.107-36.0001Q109.74-36.3669 109.172-36.3669L80.076-36.3669Q79.5745-36.3669 79.2098-36.0001Q78.8451-35.6332 78.8451-35.1276Q78.8451-34.6261 79.2098-34.2947Q79.5745-33.9632 80.076-33.9632ZM80.076-12.1359L109.172-12.1359Q109.74-12.1359 110.107-12.5027Q110.473-12.8696 110.473-13.3752Q110.473-13.8766 110.107-14.2081Q109.74-14.5395 109.172-14.5395L80.076-14.5395Q79.5745-14.5395 79.2098-14.2081Q78.8451-13.8766 78.8451-13.3752Q78.8451-12.8696 79.2098-12.5027Q79.5745-12.1359 80.076-12.1359ZM25.3208-12.1359L68.0439-12.1359Q68.7535-12.1359 69.0063-12.5133Q69.2591-12.8907 69.2591-13.6087Q69.2591-15.4906 67.8842-18.5711Q66.5092-21.6515 63.7261-24.7632Q60.9429-27.8748 56.6892-30.0143Q52.4356-32.1539 46.6824-32.1539Q40.9291-32.1539 36.6755-30.0143Q32.4218-27.8748 29.6387-24.7632Q26.8555-21.6515 25.4784-18.5711Q24.1014-15.4906 24.1014-13.6087Q24.1014-12.8907 24.3896-12.5133Q24.6778-12.1359 25.3208-12.1359ZM46.6824-35.7845Q51.3722-35.7845 54.6247-39.253Q57.8773-42.7215 57.8773-47.9763Q57.8773-52.853 54.6247-56.4504Q51.3722-60.0477 46.6824-60.0477Q41.9883-60.0477 38.7067-56.4504Q35.4251-52.853 35.4251-47.9763Q35.4251-42.7215 38.7067-39.253Q41.9883-35.7845 46.6824-35.7845ZM25.0215 7.427L112.614 7.427Q118.855 7.427 122.015 4.2005Q125.175 0.973998 125.175-5.07975L125.175-65.3835Q125.175-71.4372 122.015-74.697Q118.855-77.9568 112.614-77.9568L25.0215-77.9568Q18.8389-77.9568 15.6499-74.7635Q12.4609-71.5703 12.4609-65.3835L12.4609-5.07975Q12.4609 1.04054 15.6499 4.23377Q18.8389 7.427 25.0215 7.427ZM25.1461 5.04705Q20.0516 5.04705 17.4483 2.44171Q14.8451-0.163636 14.8451-5.24971L14.8451-65.2801Q14.8451-70.3619 17.4483-72.9694Q20.0516-75.5768 25.1461-75.5768L112.49-75.5768Q117.451-75.5768 120.121-72.9694Q122.791-70.3619 122.791-65.2801L122.791-5.24971Q122.791-0.163636 120.121 2.44171Q117.451 5.04705 112.49 5.04705Z"/>
  </g>
  <g id="Black-S" transform="matrix(1 0 0 1 2877.35 696)">
   <path d="M65.7715-46.0449L80.4688-46.0449Q81.6406-46.0449 82.4219-46.8506Q83.2031-47.6562 83.2031-48.8281Q83.2031-49.9512 82.4219-50.7324Q81.6406-51.5137 80.4688-51.5137L65.7715-51.5137Q64.5508-51.5137 63.7695-50.7324Q62.9883-49.9512 62.9883-48.8281Q62.9883-47.6562 63.7695-46.8506Q64.5508-46.0449 65.7715-46.0449ZM65.7715-32.4219L80.4688-32.4219Q81.6406-32.4219 82.4219-33.2275Q83.2031-34.0332 83.2031-35.2051Q83.2031-36.3281 82.4219-37.1094Q81.6406-37.8906 80.4688-37.8906L65.7715-37.8906Q64.5508-37.8906 63.7695-37.1094Q62.9883-36.3281 62.9883-35.2051Q62.9883-34.0332 63.7695-33.2275Q64.5508-32.4219 65.7715-32.4219ZM65.7715-18.8965L80.4688-18.8965Q81.6406-18.8965 82.4219-19.6777Q83.2031-20.459 83.2031-21.582Q83.2031-22.7539 82.4219-23.5596Q81.6406-24.3652 80.4688-24.3652L65.7715-24.3652Q64.5508-24.3652 63.7695-23.5596Q62.9883-22.7539 62.9883-21.582Q62.9883-20.459 63.7695-19.6777Q64.5508-18.8965 65.7715-18.8965ZM31.3477-18.8965L55.2246-18.8965Q56.6895-18.8965 57.4463-19.8486Q58.2031-20.8008 58.2031-22.1191Q58.2031-23.3398 57.3486-25.2441Q56.4941-27.1484 54.7119-29.0283Q52.9297-30.9082 50.0977-32.2021Q47.2656-33.4961 43.3105-33.4961Q39.3555-33.4961 36.5234-32.2021Q33.6914-30.9082 31.8848-29.0283Q30.0781-27.1484 29.2236-25.2441Q28.3691-23.3398 28.3691-22.1191Q28.3691-20.8008 29.126-19.8486Q29.8828-18.8965 31.3477-18.8965ZM43.3105-35.5469Q46.4844-35.5469 48.7305-37.9395Q50.9766-40.332 50.9766-43.8965Q50.9766-47.2656 48.7305-49.6826Q46.4844-52.0996 43.3105-52.0996Q40.1367-52.0996 37.8906-49.6826Q35.6445-47.2656 35.6445-43.8965Q35.6445-40.332 37.8906-37.9395Q40.1367-35.5469 43.3105-35.5469ZM25 2.92969L87.1094 2.92969Q94.2871 2.92969 98.3154-1.09863Q102.344-5.12695 102.344-12.3047L102.344-58.1055Q102.344-65.2832 98.3154-69.3115Q94.2871-73.3398 87.1094-73.3398L25-73.3398Q17.8223-73.3398 13.7939-69.3115Q9.76562-65.2832 9.76562-58.1055L9.76562-12.3047Q9.76562-5.12695 13.7939-1.09863Q17.8223 2.92969 25 2.92969ZM27.2461-11.2305Q25.5859-11.2305 24.7559-11.9873Q23.9258-12.7441 23.9258-14.5508L23.9258-55.8594Q23.9258-57.7148 24.7559-58.4473Q25.5859-59.1797 27.2461-59.1797L84.8633-59.1797Q86.5723-59.1797 87.3779-58.4473Q88.1836-57.7148 88.1836-55.8594L88.1836-14.5508Q88.1836-12.7441 87.3779-11.9873Q86.5723-11.2305 84.8633-11.2305Z"/>
  </g>
  <g id="Heavy-S" transform="matrix(1 0 0 1 2580.87 696)">
   <path d="M65.3797-46.2985L81.4483-46.2985Q82.6087-46.2985 83.3842-47.0984Q84.1597-47.8983 84.1597-49.0586Q84.1597-50.1701 83.3842-50.9456Q82.6087-51.7211 81.4483-51.7211L65.3797-51.7211Q64.182-51.7211 63.4007-50.9456Q62.6195-50.1701 62.6195-49.0586Q62.6195-47.8983 63.4007-47.0984Q64.182-46.2985 65.3797-46.2985ZM65.3797-32.4564L81.4483-32.4564Q82.6087-32.4564 83.3842-33.2564Q84.1597-34.0563 84.1597-35.2166Q84.1597-36.3281 83.3842-37.1036Q82.6087-37.8791 81.4483-37.8791L65.3797-37.8791Q64.182-37.8791 63.4007-37.1036Q62.6195-36.3281 62.6195-35.2166Q62.6195-34.0563 63.4007-33.2564Q64.182-32.4564 65.3797-32.4564ZM65.3797-18.689L81.4483-18.689Q82.6087-18.689 83.3842-19.4645Q84.1597-20.24 84.1597-21.3515Q84.1597-22.5119 83.3842-23.3118Q82.6087-24.1117 81.4483-24.1117L65.3797-24.1117Q64.182-24.1117 63.4007-23.3118Q62.6195-22.5119 62.6195-21.3515Q62.6195-20.24 63.4007-19.4645Q64.182-18.689 65.3797-18.689ZM29.8264-18.689L54.9365-18.689Q56.2976-18.689 57.0026-19.5663Q57.7076-20.4435 57.7076-21.6697Q57.7076-22.9134 56.8127-24.8581Q55.9179-26.8027 54.0723-28.7344Q52.2267-30.6662 49.3255-31.9889Q46.4243-33.3117 42.4001-33.3117Q38.3759-33.3117 35.4747-31.9889Q32.5735-30.6662 30.7093-28.7344Q28.845-26.8027 27.9559-24.8581Q27.0669-22.9134 27.0669-21.6697Q27.0669-20.4435 27.7661-19.5663Q28.4653-18.689 29.8264-18.689ZM42.4001-35.5008Q45.6431-35.5008 47.9238-37.9395Q50.2044-40.3781 50.2044-44.0117Q50.2044-47.4385 47.9238-49.9073Q45.6431-52.3762 42.4001-52.3762Q39.1687-52.3762 36.8765-49.9073Q34.5843-47.4385 34.5843-44.0117Q34.5843-40.3781 36.8765-37.9395Q39.1687-35.5008 42.4001-35.5008ZM24.3431 2.33042L87.2938 2.33042Q94.2641 2.33042 98.0677-1.47318Q101.871-5.27677 101.871-12.2125L101.871-58.1977Q101.871-65.1334 98.0677-68.937Q94.2641-72.7406 87.2938-72.7406L24.3431-72.7406Q17.3959-72.7406 13.5807-68.937Q9.76562-65.1334 9.76562-58.1977L9.76562-12.2125Q9.76562-5.27677 13.5807-1.47318Q17.3959 2.33042 24.3431 2.33042ZM26.0821-10.1587Q24.1915-10.1587 23.2173-11.0711Q22.2432-11.9835 22.2432-14.0091L22.2432-56.401Q22.2432-58.4755 23.2173-59.3635Q24.1915-60.2515 26.0821-60.2515L85.5547-60.2515Q87.4827-60.2515 88.4382-59.3635Q89.3937-58.4755 89.3937-56.401L89.3937-14.0091Q89.3937-11.9835 88.4382-11.0711Q87.4827-10.1587 85.5547-10.1587Z"/>
  </g>
  <g id="Bold-S" transform="matrix(1 0 0 1 2284.42 696)">
   <path d="M64.9414-46.582L82.5439-46.582Q83.6914-46.582 84.4604-47.3755Q85.2295-48.1689 85.2295-49.3164Q85.2295-50.415 84.4604-51.1841Q83.6914-51.9531 82.5439-51.9531L64.9414-51.9531Q63.7695-51.9531 62.9883-51.1841Q62.207-50.415 62.207-49.3164Q62.207-48.1689 62.9883-47.3755Q63.7695-46.582 64.9414-46.582ZM64.9414-32.4951L82.5439-32.4951Q83.6914-32.4951 84.4604-33.2886Q85.2295-34.082 85.2295-35.2295Q85.2295-36.3281 84.4604-37.0972Q83.6914-37.8662 82.5439-37.8662L64.9414-37.8662Q63.7695-37.8662 62.9883-37.0972Q62.207-36.3281 62.207-35.2295Q62.207-34.082 62.9883-33.2886Q63.7695-32.4951 64.9414-32.4951ZM64.9414-18.457L82.5439-18.457Q83.6914-18.457 84.4604-19.2261Q85.2295-19.9951 85.2295-21.0938Q85.2295-22.2412 84.4604-23.0347Q83.6914-23.8281 82.5439-23.8281L64.9414-23.8281Q63.7695-23.8281 62.9883-23.0347Q62.207-22.2412 62.207-21.0938Q62.207-19.9951 62.9883-19.2261Q63.7695-18.457 64.9414-18.457ZM28.125-18.457L54.6143-18.457Q55.8594-18.457 56.5063-19.2505Q57.1533-20.0439 57.1533-21.167Q57.1533-22.4365 56.2134-24.4263Q55.2734-26.416 53.3569-28.4058Q51.4404-30.3955 48.4619-31.7505Q45.4834-33.1055 41.3818-33.1055Q37.2803-33.1055 34.3018-31.7505Q31.3232-30.3955 29.3945-28.4058Q27.4658-26.416 26.5381-24.4263Q25.6104-22.4365 25.6104-21.167Q25.6104-20.0439 26.2451-19.2505Q26.8799-18.457 28.125-18.457ZM41.3818-35.4492Q44.7021-35.4492 47.0215-37.9395Q49.3408-40.4297 49.3408-44.1406Q49.3408-47.6318 47.0215-50.1587Q44.7021-52.6855 41.3818-52.6855Q38.0859-52.6855 35.7422-50.1587Q33.3984-47.6318 33.3984-44.1406Q33.3984-40.4297 35.7422-37.9395Q38.0859-35.4492 41.3818-35.4492ZM23.6084 1.66016L87.5 1.66016Q94.2383 1.66016 97.7905-1.89209Q101.343-5.44434 101.343-12.1094L101.343-58.3008Q101.343-64.9658 97.7905-68.5181Q94.2383-72.0703 87.5-72.0703L23.6084-72.0703Q16.9189-72.0703 13.3423-68.5181Q9.76562-64.9658 9.76562-58.3008L9.76562-12.1094Q9.76562-5.44434 13.3423-1.89209Q16.9189 1.66016 23.6084 1.66016ZM24.7803-8.95996Q22.6318-8.95996 21.4966-10.0464Q20.3613-11.1328 20.3613-13.4033L20.3613-57.0068Q20.3613-59.3262 21.4966-60.3882Q22.6318-61.4502 24.7803-61.4502L86.3281-61.4502Q88.501-61.4502 89.624-60.3882Q90.7471-59.3262 90.7471-57.0068L90.7471-13.4033Q90.7471-11.1328 89.624-10.0464Q88.501-8.95996 86.3281-8.95996Z"/>
  </g>
  <g id="Semibold-S" transform="matrix(1 0 0 1 1987.89 696)">
   <path d="M64.6393-46.7775L83.2993-46.7775Q84.4379-46.7775 85.2025-47.5666Q85.9671-48.3556 85.9671-49.4941Q85.9671-50.5839 85.2025-51.3485Q84.4379-52.1131 83.2993-52.1131L64.6393-52.1131Q63.4852-52.1131 62.7039-51.3485Q61.9227-50.5839 61.9227-49.4941Q61.9227-48.3556 62.7039-47.5666Q63.4852-46.7775 64.6393-46.7775ZM64.6393-32.5218L83.2993-32.5218Q84.4379-32.5218 85.2025-33.3108Q85.9671-34.0998 85.9671-35.2384Q85.9671-36.3281 85.2025-37.0927Q84.4379-37.8573 83.2993-37.8573L64.6393-37.8573Q63.4852-37.8573 62.7039-37.0927Q61.9227-36.3281 61.9227-35.2384Q61.9227-34.0998 62.7039-33.3108Q63.4852-32.5218 64.6393-32.5218ZM64.6393-18.2971L83.2993-18.2971Q84.4379-18.2971 85.2025-19.0617Q85.9671-19.8263 85.9671-20.916Q85.9671-22.0546 85.2025-22.8436Q84.4379-23.6326 83.2993-23.6326L64.6393-23.6326Q63.4852-23.6326 62.7039-22.8436Q61.9227-22.0546 61.9227-20.916Q61.9227-19.8263 62.7039-19.0617Q63.4852-18.2971 64.6393-18.2971ZM26.952-18.2971L54.3921-18.2971Q55.5572-18.2971 56.1642-19.0328Q56.7712-19.7685 56.7712-20.8204Q56.7712-22.1077 55.8001-24.1286Q54.8291-26.1494 52.8637-28.1792Q50.8983-30.2089 47.8665-31.5861Q44.8347-32.9633 40.6798-32.9633Q36.5249-32.9633 33.4931-31.5861Q30.4612-30.2089 28.4881-28.1792Q26.5149-26.1494 25.5605-24.1286Q24.6062-22.1077 24.6062-20.8204Q24.6062-19.7685 25.1965-19.0328Q25.7868-18.2971 26.952-18.2971ZM40.6798-35.4137Q44.0534-35.4137 46.3994-37.9395Q48.7454-40.4652 48.7454-44.2295Q48.7454-47.7651 46.3994-50.332Q44.0534-52.8988 40.6798-52.8988Q37.3395-52.8988 34.9602-50.332Q32.5809-47.7651 32.5809-44.2295Q32.5809-40.4652 34.9602-37.9395Q37.3395-35.4137 40.6798-35.4137ZM23.1019 1.19805L87.6422 1.19805Q94.2205 1.19805 97.5995-2.18091Q100.978-5.55986 100.978-12.0383L100.978-58.3719Q100.978-64.8503 97.5995-68.2292Q94.2205-71.6082 87.6422-71.6082L23.1019-71.6082Q16.5901-71.6082 13.1779-68.2292Q9.76562-64.8503 9.76562-58.3719L9.76562-12.0383Q9.76562-5.55986 13.1779-2.18091Q16.5901 1.19805 23.1019 1.19805ZM23.8827-8.1335Q21.5565-8.1335 20.3102-9.33989Q19.0639-10.5463 19.0639-12.9856L19.0639-57.4245Q19.0639-59.9127 20.3102-61.0947Q21.5565-62.2767 23.8827-62.2767L86.8613-62.2767Q89.203-62.2767 90.4416-61.0947Q91.6802-59.9127 91.6802-57.4245L91.6802-12.9856Q91.6802-10.5463 90.4416-9.33989Q89.203-8.1335 86.8613-8.1335Z"/>
  </g>
  <g id="Medium-S" transform="matrix(1 0 0 1 1691.32 696)">
   <path d="M64.4102-46.9258L83.8721-46.9258Q85.0039-46.9258 85.7651-47.7114Q86.5264-48.4971 86.5264-49.6289Q86.5264-50.7119 85.7651-51.4731Q85.0039-52.2344 83.8721-52.2344L64.4102-52.2344Q63.2695-52.2344 62.4883-51.4731Q61.707-50.7119 61.707-49.6289Q61.707-48.4971 62.4883-47.7114Q63.2695-46.9258 64.4102-46.9258ZM64.4102-32.542L83.8721-32.542Q85.0039-32.542 85.7651-33.3276Q86.5264-34.1133 86.5264-35.2451Q86.5264-36.3281 85.7651-37.0894Q85.0039-37.8506 83.8721-37.8506L64.4102-37.8506Q63.2695-37.8506 62.4883-37.0894Q61.707-36.3281 61.707-35.2451Q61.707-34.1133 62.4883-33.3276Q63.2695-32.542 64.4102-32.542ZM64.4102-18.1758L83.8721-18.1758Q85.0039-18.1758 85.7651-18.937Q86.5264-19.6982 86.5264-20.7812Q86.5264-21.9131 85.7651-22.6987Q85.0039-23.4844 83.8721-23.4844L64.4102-23.4844Q63.2695-23.4844 62.4883-22.6987Q61.707-21.9131 61.707-20.7812Q61.707-19.6982 62.4883-18.937Q63.2695-18.1758 64.4102-18.1758ZM26.0625-18.1758L54.2236-18.1758Q55.3281-18.1758 55.9048-18.8677Q56.4814-19.5596 56.4814-20.5576Q56.4814-21.8584 55.4868-23.9028Q54.4922-25.9473 52.4897-28.0073Q50.4873-30.0674 47.415-31.4614Q44.3428-32.8555 40.1475-32.8555Q35.9521-32.8555 32.8799-31.4614Q29.8076-30.0674 27.8008-28.0073Q25.7939-25.9473 24.8193-23.9028Q23.8447-21.8584 23.8447-20.5576Q23.8447-19.5596 24.4014-18.8677Q24.958-18.1758 26.0625-18.1758ZM40.1475-35.3867Q43.5615-35.3867 45.9277-37.9395Q48.2939-40.4922 48.2939-44.2969Q48.2939-47.8662 45.9277-50.4634Q43.5615-53.0605 40.1475-53.0605Q36.7734-53.0605 34.3672-50.4634Q31.9609-47.8662 31.9609-44.2969Q31.9609-40.4922 34.3672-37.9395Q36.7734-35.3867 40.1475-35.3867ZM22.7178 0.847656L87.75 0.847656Q94.207 0.847656 97.4546-2.3999Q100.702-5.64746 100.702-11.9844L100.702-58.4258Q100.702-64.7627 97.4546-68.0103Q94.207-71.2578 87.75-71.2578L22.7178-71.2578Q16.3408-71.2578 13.0532-68.0103Q9.76562-64.7627 9.76562-58.4258L9.76562-11.9844Q9.76562-5.64746 13.0532-2.3999Q16.3408 0.847656 22.7178 0.847656ZM23.2021-7.50684Q20.7412-7.50684 19.4106-8.8042Q18.0801-10.1016 18.0801-12.6689L18.0801-57.7412Q18.0801-60.3574 19.4106-61.6304Q20.7412-62.9033 23.2021-62.9033L87.2656-62.9033Q89.7354-62.9033 91.0615-61.6304Q92.3877-60.3574 92.3877-57.7412L92.3877-12.6689Q92.3877-10.1016 91.0615-8.8042Q89.7354-7.50684 87.2656-7.50684Z"/>
  </g>
  <g id="Regular-S" transform="matrix(1 0 0 1 1394.79 696)">
   <path d="M64.1113-47.1191L84.6191-47.1191Q85.7422-47.1191 86.499-47.9004Q87.2559-48.6816 87.2559-49.8047Q87.2559-50.8789 86.499-51.6357Q85.7422-52.3926 84.6191-52.3926L64.1113-52.3926Q62.9883-52.3926 62.207-51.6357Q61.4258-50.8789 61.4258-49.8047Q61.4258-48.6816 62.207-47.9004Q62.9883-47.1191 64.1113-47.1191ZM64.1113-32.5684L84.6191-32.5684Q85.7422-32.5684 86.499-33.3496Q87.2559-34.1309 87.2559-35.2539Q87.2559-36.3281 86.499-37.085Q85.7422-37.8418 84.6191-37.8418L64.1113-37.8418Q62.9883-37.8418 62.207-37.085Q61.4258-36.3281 61.4258-35.2539Q61.4258-34.1309 62.207-33.3496Q62.9883-32.5684 64.1113-32.5684ZM64.1113-18.0176L84.6191-18.0176Q85.7422-18.0176 86.499-18.7744Q87.2559-19.5312 87.2559-20.6055Q87.2559-21.7285 86.499-22.5098Q85.7422-23.291 84.6191-23.291L64.1113-23.291Q62.9883-23.291 62.207-22.5098Q61.4258-21.7285 61.4258-20.6055Q61.4258-19.5312 62.207-18.7744Q62.9883-18.0176 64.1113-18.0176ZM24.9023-18.0176L54.0039-18.0176Q55.0293-18.0176 55.5664-18.6523Q56.1035-19.2871 56.1035-20.2148Q56.1035-21.5332 55.0781-23.6084Q54.0527-25.6836 52.002-27.7832Q49.9512-29.8828 46.8262-31.2988Q43.7012-32.7148 39.4531-32.7148Q35.2051-32.7148 32.0801-31.2988Q28.9551-29.8828 26.9043-27.7832Q24.8535-25.6836 23.8525-23.6084Q22.8516-21.5332 22.8516-20.2148Q22.8516-19.2871 23.3643-18.6523Q23.877-18.0176 24.9023-18.0176ZM39.4531-35.3516Q42.9199-35.3516 45.3125-37.9395Q47.7051-40.5273 47.7051-44.3848Q47.7051-47.998 45.3125-50.6348Q42.9199-53.2715 39.4531-53.2715Q36.0352-53.2715 33.5938-50.6348Q31.1523-47.998 31.1523-44.3848Q31.1523-40.5273 33.5938-37.9395Q36.0352-35.3516 39.4531-35.3516ZM22.2168 0.390625L87.8906 0.390625Q94.1895 0.390625 97.2656-2.68555Q100.342-5.76172 100.342-11.9141L100.342-58.4961Q100.342-64.6484 97.2656-67.7246Q94.1895-70.8008 87.8906-70.8008L22.2168-70.8008Q16.0156-70.8008 12.8906-67.7246Q9.76562-64.6484 9.76562-58.4961L9.76562-11.9141Q9.76562-5.76172 12.8906-2.68555Q16.0156 0.390625 22.2168 0.390625ZM22.3145-6.68945Q19.6777-6.68945 18.2373-8.10547Q16.7969-9.52148 16.7969-12.2559L16.7969-58.1543Q16.7969-60.9375 18.2373-62.3291Q19.6777-63.7207 22.3145-63.7207L87.793-63.7207Q90.4297-63.7207 91.8701-62.3291Q93.3105-60.9375 93.3105-58.1543L93.3105-12.2559Q93.3105-9.52148 91.8701-8.10547Q90.4297-6.68945 87.793-6.68945Z"/>
  </g>
  <g id="Light-S" transform="matrix(1 0 0 1 1098.43 696)">
   <path d="M63.6882-48.4212L84.9121-48.4212Q85.8236-48.4212 86.4339-49.0397Q87.0443-49.6582 87.0443-50.5534Q87.0443-51.416 86.4339-52.0264Q85.8236-52.6367 84.9121-52.6367L63.6882-52.6367Q62.793-52.6367 62.1663-52.0264Q61.5397-51.416 61.5397-50.5534Q61.5397-49.6582 62.1663-49.0397Q62.793-48.4212 63.6882-48.4212ZM63.6882-33.0892L84.9121-33.0892Q85.8236-33.0892 86.4339-33.7077Q87.0443-34.3262 87.0443-35.2214Q87.0443-36.084 86.4339-36.6943Q85.8236-37.3047 84.9121-37.3047L63.6882-37.3047Q62.793-37.3047 62.1663-36.6943Q61.5397-36.084 61.5397-35.2214Q61.5397-34.3262 62.1663-33.7077Q62.793-33.0892 63.6882-33.0892ZM63.6882-17.7409L84.9121-17.7409Q85.8236-17.7409 86.4339-18.3512Q87.0443-18.9616 87.0443-19.8242Q87.0443-20.7194 86.4339-21.3379Q85.8236-21.9564 84.9121-21.9564L63.6882-21.9564Q62.793-21.9564 62.1663-21.3379Q61.5397-20.7194 61.5397-19.8242Q61.5397-18.9616 62.1663-18.3512Q62.793-17.7409 63.6882-17.7409ZM23.3236-17.7409L53.7923-17.7409Q54.6712-17.7409 55.1025-18.2699Q55.5339-18.7988 55.5339-19.6126Q55.5339-20.9798 54.4922-23.1608Q53.4505-25.3418 51.359-27.5472Q49.2676-29.7526 46.0775-31.25Q42.8874-32.7474 38.5579-32.7474Q34.2285-32.7474 31.0384-31.25Q27.8483-29.7526 25.7568-27.5472Q23.6654-25.3418 22.64-23.1608Q21.6146-20.9798 21.6146-19.6126Q21.6146-18.7988 22.0378-18.2699Q22.4609-17.7409 23.3236-17.7409ZM38.5579-35.4492Q42.0898-35.4492 44.5312-38.0778Q46.9727-40.7064 46.9727-44.6452Q46.9727-48.3236 44.5312-51.0173Q42.0898-53.7109 38.5579-53.7109Q35.0586-53.7109 32.5765-51.0173Q30.0944-48.3236 30.0944-44.6452Q30.0944-40.7064 32.5765-38.0778Q35.0586-35.4492 38.5579-35.4492ZM21.403-0.292969L88.0046-0.292969Q93.8639-0.292969 96.7529-3.19824Q99.6419-6.10352 99.6419-11.8164L99.6419-58.61Q99.6419-64.3229 96.7529-67.2363Q93.8639-70.1497 88.0046-70.1497L21.403-70.1497Q15.625-70.1497 12.6953-67.2526Q9.76562-64.3555 9.76562-58.61L9.76562-11.8164Q9.76562-6.08724 12.6953-3.1901Q15.625-0.292969 21.403-0.292969ZM21.5007-5.74544Q18.4408-5.74544 16.8132-7.35677Q15.1855-8.9681 15.1855-12.0931L15.1855-58.3496Q15.1855-61.5072 16.8132-63.1022Q18.4408-64.6973 21.5007-64.6973L87.9069-64.6973Q90.9342-64.6973 92.5781-63.1022Q94.222-61.5072 94.222-58.3496L94.222-12.0931Q94.222-8.9681 92.5781-7.35677Q90.9342-5.74544 87.9069-5.74544Z"/>
  </g>
  <g id="Thin-S" transform="matrix(1 0 0 1 802.181 696)">
   <path d="M63.1285-50.1433L85.2996-50.1433Q85.9312-50.1433 86.3478-50.5466Q86.7644-50.9498 86.7644-51.5436Q86.7644-52.1264 86.3478-52.543Q85.9312-52.9596 85.2996-52.9596L63.1285-52.9596Q62.5347-52.9596 62.1125-52.543Q61.6904-52.1264 61.6904-51.5436Q61.6904-50.9498 62.1125-50.5466Q62.5347-50.1433 63.1285-50.1433ZM63.1285-33.778L85.2996-33.778Q85.9312-33.778 86.3478-34.1813Q86.7644-34.5845 86.7644-35.1783Q86.7644-35.7611 86.3478-36.1777Q85.9312-36.5943 85.2996-36.5943L63.1285-36.5943Q62.5347-36.5943 62.1125-36.1777Q61.6904-35.7611 61.6904-35.1783Q61.6904-34.5845 62.1125-34.1813Q62.5347-33.778 63.1285-33.778ZM63.1285-17.3749L85.2996-17.3749Q85.9312-17.3749 86.3478-17.7916Q86.7644-18.2082 86.7644-18.791Q86.7644-19.3848 86.3478-19.788Q85.9312-20.1912 85.2996-20.1912L63.1285-20.1912Q62.5347-20.1912 62.1125-19.788Q61.6904-19.3848 61.6904-18.791Q61.6904-18.2082 62.1125-17.7916Q62.5347-17.3749 63.1285-17.3749ZM21.2355-17.3749L53.5125-17.3749Q54.1976-17.3749 54.489-17.764Q54.7804-18.153 54.7804-18.8162Q54.7804-20.2479 53.7172-22.5688Q52.654-24.8897 50.5088-27.2351Q48.3635-29.5804 45.0873-31.1854Q41.8111-32.7904 37.374-32.7904Q32.9369-32.7904 29.6607-31.1854Q26.3845-29.5804 24.2392-27.2351Q22.0939-24.8897 21.0363-22.5688Q19.9786-20.2479 19.9786-18.8162Q19.9786-18.153 20.2834-17.764Q20.5881-17.3749 21.2355-17.3749ZM37.374-35.5784Q40.992-35.5784 43.498-38.2608Q46.004-40.9432 46.004-44.9896Q46.004-48.7541 43.498-51.5231Q40.992-54.2921 37.374-54.2921Q33.767-54.2921 31.2311-51.5231Q28.6952-48.7541 28.6952-44.9896Q28.6952-40.9432 31.2311-38.2608Q33.767-35.5784 37.374-35.5784ZM20.3267-1.19708L88.1552-1.19708Q93.4334-1.19708 96.0748-3.87632Q98.7163-6.55557 98.7163-11.6872L98.7163-58.7607Q98.7163-63.8924 96.0748-66.5905Q93.4334-69.2887 88.1552-69.2887L20.3267-69.2887Q15.1084-69.2887 12.437-66.6283Q9.76562-63.968 9.76562-58.7607L9.76562-11.6872Q9.76562-6.51777 12.437-3.85742Q15.1084-1.19708 20.3267-1.19708ZM20.4243-4.49691Q16.8048-4.49691 14.9296-6.36656Q13.0544-8.2362 13.0544-11.8778L13.0544-58.6079Q13.0544-62.2606 14.9296-64.1247Q16.8048-65.9888 20.4243-65.9888L88.0576-65.9888Q91.6016-65.9888 93.5145-64.1247Q95.4275-62.2606 95.4275-58.6079L95.4275-11.8778Q95.4275-8.2362 93.5145-6.36656Q91.6016-4.49691 88.0576-4.49691Z"/>
  </g>
  <g id="Ultralight-S" transform="matrix(1 0 0 1 505.707 696)">
   <path d="M62.8418-51.0254L85.498-51.0254Q85.9863-51.0254 86.3037-51.3184Q86.6211-51.6113 86.6211-52.0508Q86.6211-52.4902 86.3037-52.8076Q85.9863-53.125 85.498-53.125L62.8418-53.125Q62.4023-53.125 62.085-52.8076Q61.7676-52.4902 61.7676-52.0508Q61.7676-51.6113 62.085-51.3184Q62.4023-51.0254 62.8418-51.0254ZM62.8418-34.1309L85.498-34.1309Q85.9863-34.1309 86.3037-34.4238Q86.6211-34.7168 86.6211-35.1562Q86.6211-35.5957 86.3037-35.9131Q85.9863-36.2305 85.498-36.2305L62.8418-36.2305Q62.4023-36.2305 62.085-35.9131Q61.7676-35.5957 61.7676-35.1562Q61.7676-34.7168 62.085-34.4238Q62.4023-34.1309 62.8418-34.1309ZM62.8418-17.1875L85.498-17.1875Q85.9863-17.1875 86.3037-17.5049Q86.6211-17.8223 86.6211-18.2617Q86.6211-18.7012 86.3037-18.9941Q85.9863-19.2871 85.498-19.2871L62.8418-19.2871Q62.4023-19.2871 62.085-18.9941Q61.7676-18.7012 61.7676-18.2617Q61.7676-17.8223 62.085-17.5049Q62.4023-17.1875 62.8418-17.1875ZM20.166-17.1875L53.3691-17.1875Q53.9551-17.1875 54.1748-17.5049Q54.3945-17.8223 54.3945-18.4082Q54.3945-19.873 53.3203-22.2656Q52.2461-24.6582 50.0732-27.0752Q47.9004-29.4922 44.5801-31.1523Q41.2598-32.8125 36.7676-32.8125Q32.2754-32.8125 28.9551-31.1523Q25.6348-29.4922 23.4619-27.0752Q21.2891-24.6582 20.2148-22.2656Q19.1406-19.873 19.1406-18.4082Q19.1406-17.8223 19.3848-17.5049Q19.6289-17.1875 20.166-17.1875ZM36.7676-35.6445Q40.4297-35.6445 42.9688-38.3545Q45.5078-41.0645 45.5078-45.166Q45.5078-48.9746 42.9688-51.7822Q40.4297-54.5898 36.7676-54.5898Q33.1055-54.5898 30.542-51.7822Q27.9785-48.9746 27.9785-45.166Q27.9785-41.0645 30.542-38.3545Q33.1055-35.6445 36.7676-35.6445ZM19.7754-1.66016L88.2324-1.66016Q93.2129-1.66016 95.7275-4.22363Q98.2422-6.78711 98.2422-11.6211L98.2422-58.8379Q98.2422-63.6719 95.7275-66.2598Q93.2129-68.8477 88.2324-68.8477L19.7754-68.8477Q14.8438-68.8477 12.3047-66.3086Q9.76562-63.7695 9.76562-58.8379L9.76562-11.6211Q9.76562-6.73828 12.3047-4.19922Q14.8438-1.66016 19.7754-1.66016ZM19.873-3.85742Q15.9668-3.85742 13.9648-5.85938Q11.9629-7.86133 11.9629-11.7676L11.9629-58.7402Q11.9629-62.6465 13.9648-64.6484Q15.9668-66.6504 19.873-66.6504L88.1348-66.6504Q91.9434-66.6504 93.9941-64.6484Q96.0449-62.6465 96.0449-58.7402L96.0449-11.7676Q96.0449-7.86133 93.9941-5.85938Q91.9434-3.85742 88.1348-3.85742Z"/>
  </g>
 </g>
</svg>
