<?xml version="1.0" encoding="UTF-8"?>
<!--Generator: Apple Native CoreSVG 175-->
<!DOCTYPE svg
PUBLIC "-//W3C//DTD SVG 1.1//EN"
       "http://www.w3.org/Graphics/SVG/1.1/DTD/svg11.dtd">
<svg version="1.1" xmlns="http://www.w3.org/2000/svg" xmlns:xlink="http://www.w3.org/1999/xlink" width="3300" height="2200">
 <!--glyph: "uni10070B.medium", point size: 100.0, font version: "17.1d1e1", template writer version: "65.1"-->
 <g id="Notes">
  <rect height="2200" id="artboard" style="fill:white;opacity:1" width="3300" x="0" y="0"/>
  <line style="fill:none;stroke:black;opacity:1;stroke-width:0.5;" x1="263" x2="3036" y1="292" y2="292"/>
  <text style="stroke:none;fill:black;font-family:sans-serif;font-size:13;font-weight:bold;" transform="matrix(1 0 0 1 263 322)">Weight/Scale Variations</text>
  <text style="stroke:none;fill:black;font-family:sans-serif;font-size:13;text-anchor:middle;" transform="matrix(1 0 0 1 559.711 322)">Ultralight</text>
  <text style="stroke:none;fill:black;font-family:sans-serif;font-size:13;text-anchor:middle;" transform="matrix(1 0 0 1 856.422 322)">Thin</text>
  <text style="stroke:none;fill:black;font-family:sans-serif;font-size:13;text-anchor:middle;" transform="matrix(1 0 0 1 1153.13 322)">Light</text>
  <text style="stroke:none;fill:black;font-family:sans-serif;font-size:13;text-anchor:middle;" transform="matrix(1 0 0 1 1449.84 322)">Regular</text>
  <text style="stroke:none;fill:black;font-family:sans-serif;font-size:13;text-anchor:middle;" transform="matrix(1 0 0 1 1746.56 322)">Medium</text>
  <text style="stroke:none;fill:black;font-family:sans-serif;font-size:13;text-anchor:middle;" transform="matrix(1 0 0 1 2043.27 322)">Semibold</text>
  <text style="stroke:none;fill:black;font-family:sans-serif;font-size:13;text-anchor:middle;" transform="matrix(1 0 0 1 2339.98 322)">Bold</text>
  <text style="stroke:none;fill:black;font-family:sans-serif;font-size:13;text-anchor:middle;" transform="matrix(1 0 0 1 2636.69 322)">Heavy</text>
  <text style="stroke:none;fill:black;font-family:sans-serif;font-size:13;text-anchor:middle;" transform="matrix(1 0 0 1 2933.4 322)">Black</text>
  <line style="fill:none;stroke:black;opacity:1;stroke-width:0.5;" x1="263" x2="3036" y1="1903" y2="1903"/>
  <g transform="matrix(1 0 0 1 263 1933)">
   <path d="M9.24805 0.830078Q10.8691 0.830078 12.2949 0.214844Q13.7207-0.400391 14.8096-1.49414Q15.8984-2.58789 16.5186-4.01367Q17.1387-5.43945 17.1387-7.05078Q17.1387-8.66211 16.5186-10.0879Q15.8984-11.5137 14.8047-12.6074Q13.7109-13.7012 12.2852-14.3164Q10.8594-14.9316 9.23828-14.9316Q7.62695-14.9316 6.20117-14.3164Q4.77539-13.7012 3.69141-12.6074Q2.60742-11.5137 1.9873-10.0879Q1.36719-8.66211 1.36719-7.05078Q1.36719-5.43945 1.9873-4.01367Q2.60742-2.58789 3.69629-1.49414Q4.78516-0.400391 6.21094 0.214844Q7.63672 0.830078 9.24805 0.830078ZM9.24805-0.654297Q7.91992-0.654297 6.7627-1.14746Q5.60547-1.64062 4.73145-2.51953Q3.85742-3.39844 3.36426-4.56055Q2.87109-5.72266 2.87109-7.05078Q2.87109-8.37891 3.35938-9.54102Q3.84766-10.7031 4.72168-11.582Q5.5957-12.4609 6.75293-12.9541Q7.91016-13.4473 9.23828-13.4473Q10.5762-13.4473 11.7334-12.9541Q12.8906-12.4609 13.7695-11.582Q14.6484-10.7031 15.1465-9.54102Q15.6445-8.37891 15.6445-7.05078Q15.6445-5.72266 15.1514-4.56055Q14.6582-3.39844 13.7842-2.51953Q12.9102-1.64062 11.748-1.14746Q10.5859-0.654297 9.24805-0.654297ZM5.6543-7.05078Q5.6543-6.72852 5.85938-6.52832Q6.06445-6.32812 6.40625-6.32812L8.51562-6.32812L8.51562-4.20898Q8.51562-3.88672 8.71094-3.67676Q8.90625-3.4668 9.23828-3.4668Q9.56055-3.4668 9.77051-3.67676Q9.98047-3.88672 9.98047-4.20898L9.98047-6.32812L12.0898-6.32812Q12.4219-6.32812 12.627-6.52832Q12.832-6.72852 12.832-7.05078Q12.832-7.38281 12.627-7.58789Q12.4219-7.79297 12.0898-7.79297L9.98047-7.79297L9.98047-9.90234Q9.98047-10.2344 9.77051-10.4443Q9.56055-10.6543 9.23828-10.6543Q8.90625-10.6543 8.71094-10.4443Q8.51562-10.2344 8.51562-9.90234L8.51562-7.79297L6.40625-7.79297Q6.06445-7.79297 5.85938-7.58789Q5.6543-7.38281 5.6543-7.05078Z"/>
  </g>
  <g transform="matrix(1 0 0 1 281.867 1933)">
   <path d="M11.709 2.91016Q13.75 2.91016 15.5518 2.12891Q17.3535 1.34766 18.7305-0.0292969Q20.1074-1.40625 20.8887-3.20801Q21.6699-5.00977 21.6699-7.05078Q21.6699-9.0918 20.8887-10.8936Q20.1074-12.6953 18.7305-14.0723Q17.3535-15.4492 15.5469-16.2305Q13.7402-17.0117 11.6992-17.0117Q9.6582-17.0117 7.85645-16.2305Q6.05469-15.4492 4.68262-14.0723Q3.31055-12.6953 2.5293-10.8936Q1.74805-9.0918 1.74805-7.05078Q1.74805-5.00977 2.5293-3.20801Q3.31055-1.40625 4.6875-0.0292969Q6.06445 1.34766 7.86621 2.12891Q9.66797 2.91016 11.709 2.91016ZM11.709 1.25Q9.98047 1.25 8.47656 0.605469Q6.97266-0.0390625 5.83496-1.17676Q4.69727-2.31445 4.05762-3.81836Q3.41797-5.32227 3.41797-7.05078Q3.41797-8.7793 4.05762-10.2832Q4.69727-11.7871 5.83008-12.9297Q6.96289-14.0723 8.4668-14.7119Q9.9707-15.3516 11.6992-15.3516Q13.4277-15.3516 14.9316-14.7119Q16.4355-14.0723 17.5781-12.9297Q18.7207-11.7871 19.3652-10.2832Q20.0098-8.7793 20.0098-7.05078Q20.0098-5.32227 19.3701-3.81836Q18.7305-2.31445 17.5928-1.17676Q16.4551-0.0390625 14.9463 0.605469Q13.4375 1.25 11.709 1.25ZM7.17773-7.05078Q7.17773-6.69922 7.41211-6.47461Q7.64648-6.25 8.01758-6.25L10.8887-6.25L10.8887-3.36914Q10.8887-2.99805 11.1133-2.76855Q11.3379-2.53906 11.6895-2.53906Q12.0605-2.53906 12.29-2.76855Q12.5195-2.99805 12.5195-3.36914L12.5195-6.25L15.4004-6.25Q15.7715-6.25 16.001-6.47461Q16.2305-6.69922 16.2305-7.05078Q16.2305-7.42188 16.001-7.65137Q15.7715-7.88086 15.4004-7.88086L12.5195-7.88086L12.5195-10.752Q12.5195-11.1328 12.29-11.3623Q12.0605-11.5918 11.6895-11.5918Q11.3379-11.5918 11.1133-11.3574Q10.8887-11.123 10.8887-10.752L10.8887-7.88086L8.01758-7.88086Q7.63672-7.88086 7.40723-7.65137Q7.17773-7.42188 7.17773-7.05078Z"/>
  </g>
  <g transform="matrix(1 0 0 1 305.646 1933)">
   <path d="M14.9707 5.66406Q17.0605 5.66406 18.96 5.01465Q20.8594 4.36523 22.4512 3.19336Q24.043 2.02148 25.2197 0.429688Q26.3965-1.16211 27.0459-3.06641Q27.6953-4.9707 27.6953-7.05078Q27.6953-9.14062 27.0459-11.04Q26.3965-12.9395 25.2197-14.5312Q24.043-16.123 22.4512-17.2998Q20.8594-18.4766 18.9551-19.126Q17.0508-19.7754 14.9609-19.7754Q12.8711-19.7754 10.9717-19.126Q9.07227-18.4766 7.48535-17.2998Q5.89844-16.123 4.72168-14.5312Q3.54492-12.9395 2.90039-11.04Q2.25586-9.14062 2.25586-7.05078Q2.25586-4.9707 2.90527-3.06641Q3.55469-1.16211 4.72656 0.429688Q5.89844 2.02148 7.49023 3.19336Q9.08203 4.36523 10.9814 5.01465Q12.8809 5.66406 14.9707 5.66406ZM14.9707 3.84766Q13.1641 3.84766 11.5283 3.2959Q9.89258 2.74414 8.53516 1.74805Q7.17773 0.751953 6.17676-0.610352Q5.17578-1.97266 4.62891-3.6084Q4.08203-5.24414 4.08203-7.05078Q4.08203-8.86719 4.62891-10.5029Q5.17578-12.1387 6.17188-13.501Q7.16797-14.8633 8.52539-15.8594Q9.88281-16.8555 11.5186-17.4023Q13.1543-17.9492 14.9609-17.9492Q16.7773-17.9492 18.4131-17.4023Q20.0488-16.8555 21.4111-15.8594Q22.7734-14.8633 23.7695-13.501Q24.7656-12.1387 25.3174-10.5029Q25.8691-8.86719 25.8691-7.05078Q25.8789-5.24414 25.332-3.6084Q24.7852-1.97266 23.7842-0.610352Q22.7832 0.751953 21.4209 1.74805Q20.0586 2.74414 18.4229 3.2959Q16.7871 3.84766 14.9707 3.84766ZM9.19922-7.05078Q9.19922-6.66992 9.45801-6.4209Q9.7168-6.17188 10.1172-6.17188L14.0625-6.17188L14.0625-2.2168Q14.0625-1.81641 14.3115-1.55762Q14.5605-1.29883 14.9512-1.29883Q15.3516-1.29883 15.6104-1.55273Q15.8691-1.80664 15.8691-2.2168L15.8691-6.17188L19.8242-6.17188Q20.2246-6.17188 20.4785-6.4209Q20.7324-6.66992 20.7324-7.05078Q20.7324-7.46094 20.4785-7.71484Q20.2246-7.96875 19.8242-7.96875L15.8691-7.96875L15.8691-11.9141Q15.8691-12.3242 15.6104-12.583Q15.3516-12.8418 14.9512-12.8418Q14.5605-12.8418 14.3115-12.583Q14.0625-12.3242 14.0625-11.9141L14.0625-7.96875L10.1172-7.96875Q9.70703-7.96875 9.45312-7.71484Q9.19922-7.46094 9.19922-7.05078Z"/>
  </g>
  <text style="stroke:none;fill:black;font-family:sans-serif;font-size:13;font-weight:bold;" transform="matrix(1 0 0 1 263 1953)">Design Variations</text>
  <text style="stroke:none;fill:black;font-family:sans-serif;font-size:13;" transform="matrix(1 0 0 1 263 1971)">Symbols are supported in up to nine weights and three scales.</text>
  <text style="stroke:none;fill:black;font-family:sans-serif;font-size:13;" transform="matrix(1 0 0 1 263 1989)">For optimal layout with text and other symbols, vertically align</text>
  <text style="stroke:none;fill:black;font-family:sans-serif;font-size:13;" transform="matrix(1 0 0 1 263 2007)">symbols with the adjacent text.</text>
  <line style="fill:none;stroke:#00AEEF;stroke-width:0.5;opacity:1.0;" x1="776" x2="776" y1="1919" y2="1933"/>
  <g transform="matrix(1 0 0 1 776 1933)">
   <path d="M3.31055 0.15625Q3.70117 0.15625 3.91602-0.00976562Q4.13086-0.175781 4.26758-0.585938L5.52734-4.0332L11.2891-4.0332L12.5488-0.585938Q12.6855-0.175781 12.9004-0.00976562Q13.1152 0.15625 13.4961 0.15625Q13.8867 0.15625 14.1162-0.0585938Q14.3457-0.273438 14.3457-0.644531Q14.3457-0.869141 14.2383-1.17188L9.6582-13.3691Q9.48242-13.8184 9.17969-14.043Q8.87695-14.2676 8.4082-14.2676Q7.5-14.2676 7.17773-13.3789L2.59766-1.16211Q2.49023-0.859375 2.49023-0.634766Q2.49023-0.263672 2.70996-0.0537109Q2.92969 0.15625 3.31055 0.15625ZM6.00586-5.51758L8.37891-12.0898L8.42773-12.0898L10.8008-5.51758Z"/>
  </g>
  <line style="fill:none;stroke:#00AEEF;stroke-width:0.5;opacity:1.0;" x1="793.197" x2="793.197" y1="1919" y2="1933"/>
  <text style="stroke:none;fill:black;font-family:sans-serif;font-size:13;font-weight:bold;" transform="matrix(1 0 0 1 776 1953)">Margins</text>
  <text style="stroke:none;fill:black;font-family:sans-serif;font-size:13;" transform="matrix(1 0 0 1 776 1971)">Leading and trailing margins on the left and right side of each symbol</text>
  <text style="stroke:none;fill:black;font-family:sans-serif;font-size:13;" transform="matrix(1 0 0 1 776 1989)">can be adjusted by modifying the x-location of the margin guidelines.</text>
  <text style="stroke:none;fill:black;font-family:sans-serif;font-size:13;" transform="matrix(1 0 0 1 776 2007)">Modifications are automatically applied proportionally to all</text>
  <text style="stroke:none;fill:black;font-family:sans-serif;font-size:13;" transform="matrix(1 0 0 1 776 2025)">scales and weights.</text>
  <g transform="matrix(1 0 0 1 1289 1933)">
   <path d="M2.8418 1.86523L4.54102 3.57422Q5.18555 4.22852 5.90332 4.17969Q6.62109 4.13086 7.31445 3.35938L18.0078-8.42773L17.041-9.4043L6.42578 2.27539Q6.16211 2.57812 5.89355 2.61719Q5.625 2.65625 5.27344 2.30469L4.10156 1.14258Q3.75 0.791016 3.79395 0.522461Q3.83789 0.253906 4.14062-0.0195312L15.6152-10.8203L14.6387-11.7871L3.04688-0.898438Q2.30469-0.214844 2.25098 0.498047Q2.19727 1.21094 2.8418 1.86523ZM9.25781-16.3281Q8.94531-16.0254 8.90625-15.6348Q8.86719-15.2441 9.04297-14.9512Q9.21875-14.6777 9.55566-14.541Q9.89258-14.4043 10.3809-14.5215Q11.4746-14.7754 12.5977-14.7314Q13.7207-14.6875 14.7949-13.9844L14.209-12.5293Q13.9551-11.9043 14.0674-11.4404Q14.1797-10.9766 14.5801-10.5664L16.875-8.25195Q17.2363-7.88086 17.5781-7.82227Q17.9199-7.76367 18.3398-7.8418L19.4043-8.03711L20.0684-7.36328L20.0293-6.80664Q20-6.43555 20.1221-6.12305Q20.2441-5.81055 20.6055-5.44922L21.3672-4.70703Q21.7285-4.3457 22.1533-4.33105Q22.5781-4.31641 22.9297-4.66797L25.8398-7.58789Q26.1914-7.93945 26.1816-8.35449Q26.1719-8.76953 25.8105-9.13086L25.0391-9.89258Q24.6875-10.2539 24.3799-10.3857Q24.0723-10.5176 23.7109-10.4883L23.1348-10.4395L22.4902-11.0742L22.7344-12.1973Q22.832-12.6172 22.6953-12.9834Q22.5586-13.3496 22.1191-13.7891L19.9219-15.9766Q18.6719-17.2168 17.2607-17.8369Q15.8496-18.457 14.4189-18.4814Q12.9883-18.5059 11.665-17.959Q10.3418-17.4121 9.25781-16.3281ZM10.752-15.957Q11.6602-16.6211 12.7002-16.9043Q13.7402-17.1875 14.8047-17.085Q15.8691-16.9824 16.8701-16.5137Q17.8711-16.0449 18.7012-15.2051L21.1328-12.793Q21.3086-12.6172 21.3525-12.4512Q21.3965-12.2852 21.3379-12.0312L21.0156-10.5469L22.5195-9.0625L23.5059-9.12109Q23.6914-9.13086 23.7891-9.09668Q23.8867-9.0625 24.0332-8.91602L24.6094-8.33984L22.168-5.89844L21.5918-6.47461Q21.4453-6.62109 21.4062-6.71875Q21.3672-6.81641 21.377-7.01172L21.4453-7.98828L19.9512-9.47266L18.4277-9.21875Q18.1836-9.16992 18.042-9.2041Q17.9004-9.23828 17.7148-9.41406L15.7129-11.416Q15.5176-11.5918 15.4932-11.7529Q15.4688-11.9141 15.5859-12.1875L16.4648-14.2773Q15.293-15.3711 13.8281-15.791Q12.3633-16.2109 10.8398-15.7617Q10.7227-15.7324 10.6885-15.8057Q10.6543-15.8789 10.752-15.957Z"/>
  </g>
  <text style="stroke:none;fill:black;font-family:sans-serif;font-size:13;font-weight:bold;" transform="matrix(1 0 0 1 1289 1953)">Exporting</text>
  <text style="stroke:none;fill:black;font-family:sans-serif;font-size:13;" transform="matrix(1 0 0 1 1289 1971)">Symbols should be outlined when exporting to ensure the</text>
  <text style="stroke:none;fill:black;font-family:sans-serif;font-size:13;" transform="matrix(1 0 0 1 1289 1989)">design is preserved when submitting to Xcode.</text>
  <text id="template-version" style="stroke:none;fill:black;font-family:sans-serif;font-size:13;text-anchor:end;" transform="matrix(1 0 0 1 3036 1933)">Template v.2.0</text>
  <text style="stroke:none;fill:black;font-family:sans-serif;font-size:13;text-anchor:end;" transform="matrix(1 0 0 1 3036 1951)">Requires Xcode 12 or greater</text>
  <text id="descriptive-name" style="stroke:none;fill:black;font-family:sans-serif;font-size:13;text-anchor:end;" transform="matrix(1 0 0 1 3036 1969)">Generated from chart.pie.fill</text>
  <text style="stroke:none;fill:black;font-family:sans-serif;font-size:13;text-anchor:end;" transform="matrix(1 0 0 1 3036 1987)">Typeset at 100 points</text>
  <text style="stroke:none;fill:black;font-family:sans-serif;font-size:13;" transform="matrix(1 0 0 1 263 726)">Small</text>
  <text style="stroke:none;fill:black;font-family:sans-serif;font-size:13;" transform="matrix(1 0 0 1 263 1156)">Medium</text>
  <text style="stroke:none;fill:black;font-family:sans-serif;font-size:13;" transform="matrix(1 0 0 1 263 1586)">Large</text>
 </g>
 <g id="Guides">
  <g id="H-reference" style="fill:#27AAE1;stroke:none;" transform="matrix(1 0 0 1 339 696)">
   <path d="M0.976562 0L3.66211 0L29.3457-67.1387L30.0293-67.1387L30.0293-70.459L28.125-70.459ZM11.6699-24.4629L46.9727-24.4629L46.2402-26.709L12.4512-26.709ZM55.127 0L57.7637 0L30.6152-70.459L29.4434-70.459L29.4434-67.1387Z"/>
  </g>
  <line id="Baseline-S" style="fill:none;stroke:#27AAE1;opacity:1;stroke-width:0.5;" x1="263" x2="3036" y1="696" y2="696"/>
  <line id="Capline-S" style="fill:none;stroke:#27AAE1;opacity:1;stroke-width:0.5;" x1="263" x2="3036" y1="625.541" y2="625.541"/>
  <g id="H-reference" style="fill:#27AAE1;stroke:none;" transform="matrix(1 0 0 1 339 1126)">
   <path d="M0.976562 0L3.66211 0L29.3457-67.1387L30.0293-67.1387L30.0293-70.459L28.125-70.459ZM11.6699-24.4629L46.9727-24.4629L46.2402-26.709L12.4512-26.709ZM55.127 0L57.7637 0L30.6152-70.459L29.4434-70.459L29.4434-67.1387Z"/>
  </g>
  <line id="Baseline-M" style="fill:none;stroke:#27AAE1;opacity:1;stroke-width:0.5;" x1="263" x2="3036" y1="1126" y2="1126"/>
  <line id="Capline-M" style="fill:none;stroke:#27AAE1;opacity:1;stroke-width:0.5;" x1="263" x2="3036" y1="1055.54" y2="1055.54"/>
  <g id="H-reference" style="fill:#27AAE1;stroke:none;" transform="matrix(1 0 0 1 339 1556)">
   <path d="M0.976562 0L3.66211 0L29.3457-67.1387L30.0293-67.1387L30.0293-70.459L28.125-70.459ZM11.6699-24.4629L46.9727-24.4629L46.2402-26.709L12.4512-26.709ZM55.127 0L57.7637 0L30.6152-70.459L29.4434-70.459L29.4434-67.1387Z"/>
  </g>
  <line id="Baseline-L" style="fill:none;stroke:#27AAE1;opacity:1;stroke-width:0.5;" x1="263" x2="3036" y1="1556" y2="1556"/>
  <line id="Capline-L" style="fill:none;stroke:#27AAE1;opacity:1;stroke-width:0.5;" x1="263" x2="3036" y1="1485.54" y2="1485.54"/>
  <line id="left-margin" style="fill:none;stroke:#00AEEF;stroke-width:0.5;opacity:1.0;" x1="1391.32" x2="1391.32" y1="1030.79" y2="1150.12"/>
  <line id="right-margin" style="fill:none;stroke:#00AEEF;stroke-width:0.5;opacity:1.0;" x1="1508.37" x2="1508.37" y1="1030.79" y2="1150.12"/>
 </g>
 <g id="Symbols">
  <g id="Black-L" transform="matrix(1 0 0 1 2854.19 1556)">
   <path d="M79.1953 32.7278Q90.467 32.7278 100.821 29.1799Q111.175 25.632 119.799 19.164L72.298-26.7932Q71.181-27.9089 70.5686-29.1232Q69.9562-30.3374 69.9562-32.499L69.9562-102.478Q57.5558-100.759 46.8691-94.9096Q36.1823-89.0601 28.1968-79.9795Q20.2113-70.8989 15.735-59.4609Q11.2588-48.023 11.2588-35.2087Q11.2588-21.1904 16.5647-8.90392Q21.8707 3.3826 31.238 12.7603Q40.6053 22.1379 52.8912 27.4329Q65.177 32.7278 79.1953 32.7278ZM147.155-35.2113Q147.155-41.5874 145.972-47.7486Q144.789-53.9099 142.572-59.4935L91.6877-30.4493L131.414 8.1172Q138.769-0.695483 142.962-11.8051Q147.155-22.9147 147.155-35.2113ZM85.4845-44.9073L135.307-73.3612Q129.777-81.5559 122.039-87.8402Q114.302-94.1245 105.021-98.0075Q95.7408-101.89 85.4845-102.832Z"/>
  </g>
  <g id="Heavy-L" transform="matrix(1 0 0 1 2558.42 1556)">
   <path d="M78.2511 31.7793Q89.5702 31.7793 99.9909 28.1223Q110.412 24.4653 119.067 17.7625L72.1245-27.7661Q71.0674-28.8171 70.5286-29.953Q69.9899-31.0888 69.9899-33.0389L69.9899-101.64Q57.6262-100.092 46.9392-94.3612Q36.2521-88.63 28.2457-79.649Q20.2393-70.668 15.749-59.3039Q11.2588-47.9398 11.2588-35.213Q11.2588-21.4119 16.4975-9.29195Q21.7362 2.828 30.9761 12.0828Q40.2161 21.3377 52.333 26.5585Q64.45 31.7793 78.2511 31.7793ZM145.285-35.2251Q145.285-41.7666 143.985-48.1503Q142.684-54.534 140.288-60.2322L89.2659-31.0606L129.313 7.98365Q136.76-0.74587 141.022-11.8647Q145.285-22.9836 145.285-35.2251ZM83.7242-43.8215L133.81-72.4636Q128.284-80.7904 120.456-87.1308Q112.628-93.4711 103.269-97.3101Q93.9098-101.149 83.7242-101.952Z"/>
  </g>
  <g id="Bold-L" transform="matrix(1 0 0 1 2262.88 1556)">
   <path d="M77.0653 30.5944Q88.4663 30.5944 98.9646 26.7953Q109.463 22.9962 118.13 16.0221L71.9505-28.9177Q70.9633-29.8907 70.5098-30.933Q70.0564-31.9754 70.0564-33.686L70.0564-100.579Q57.7307-99.2517 47.0391-93.6744Q36.3476-88.0971 28.3134-79.2418Q20.2793-70.3866 15.769-59.1123Q11.2588-47.8381 11.2588-35.212Q11.2588-21.6769 16.4108-9.76488Q21.5627 2.14716 30.6415 11.2444Q39.7203 20.3417 51.6252 25.4681Q63.5301 30.5944 77.0653 30.5944ZM142.937-35.2405Q142.937-41.967 141.501-48.5924Q140.065-55.2177 137.469-61.0383L86.2919-31.7472L126.674 7.82849Q134.239-0.799356 138.588-11.93Q142.937-23.0607 142.937-35.2405ZM81.5738-42.4083L131.98-71.2581Q126.453-79.7959 118.502-86.2162Q110.55-92.6366 101.098-96.4206Q91.6456-100.205 81.5738-100.836Z"/>
  </g>
  <g id="Semibold-L" transform="matrix(1 0 0 1 1966.98 1556)">
   <path d="M76.2478 29.7776Q87.7053 29.7776 98.257 25.8805Q108.809 21.9834 117.484 14.8223L71.8306-29.7116Q70.8916-30.6308 70.4969-31.6087Q70.1022-32.5867 70.1022-34.1321L70.1022-99.8467Q57.8028-98.672 47.1081-93.2009Q36.4133-87.7297 28.3601-78.9611Q20.3069-70.1926 15.7828-58.9803Q11.2588-47.768 11.2588-35.2114Q11.2588-21.8596 16.351-10.0909Q21.4432 1.6778 30.4108 10.6664Q39.3785 19.6551 51.1372 24.7164Q62.896 29.7776 76.2478 29.7776ZM141.318-35.2511Q141.318-42.1052 139.789-48.8971Q138.259-55.6891 135.525-61.5941L84.2417-32.2206L124.855 7.72153Q132.502-0.83623 136.91-11.975Q141.318-23.1138 141.318-35.2511ZM80.0913-41.434L130.718-70.427Q125.191-79.1103 117.155-85.5858Q109.118-92.0612 99.6015-95.8075Q90.0847-99.5537 80.0913-100.066Z"/>
  </g>
  <g id="Medium-L" transform="matrix(1 0 0 1 1670.88 1556)">
   <path d="M75.6279 29.1583Q87.1283 29.1583 97.7205 25.1868Q108.313 21.2154 116.994 13.9126L71.7397-30.3136Q70.8371-31.1919 70.4871-32.121Q70.137-33.0501 70.137-34.4704L70.137-99.2919Q57.8574-98.2325 47.1603-92.8418Q36.4632-87.4511 28.3955-78.7483Q20.3278-70.0455 15.7933-58.8802Q11.2588-47.7149 11.2588-35.2109Q11.2588-21.9982 16.3056-10.3381Q21.3525 1.3219 30.2359 10.2282Q39.1193 19.1345 50.7673 24.1464Q62.4152 29.1583 75.6279 29.1583ZM140.091-35.2592Q140.091-42.21 138.49-49.1282Q136.89-56.0465 134.051-62.0155L82.6872-32.5795L123.476 7.64043Q131.184-0.864189 135.638-12.0092Q140.091-23.1541 140.091-35.2592ZM78.9672-40.6953L129.761-69.7968Q124.234-78.5904 116.133-85.1077Q108.033-91.625 98.4669-95.3425Q88.9011-99.06 78.9672-99.4817Z"/>
  </g>
  <g id="Regular-L" transform="matrix(1 0 0 1 1374.97 1556)">
   <path d="M74.8194 28.3504Q86.3756 28.3504 97.0208 24.2821Q107.666 20.2138 116.355 12.7259L71.6211-31.0988Q70.7662-31.9239 70.4742-32.7892Q70.1823-33.6546 70.1823-34.9116L70.1823-98.5681Q57.9287-97.6592 47.2285-92.3735Q36.5282-87.0878 28.4416-78.4707Q20.355-69.8536 15.8069-58.7496Q11.2588-47.6456 11.2588-35.2102Q11.2588-22.1788 16.2465-10.6606Q21.2342 0.857692 30.0077 9.65655Q38.7813 18.4554 50.2847 23.4029Q61.7881 28.3504 74.8194 28.3504ZM138.49-35.2697Q138.49-42.3467 136.797-49.4297Q135.104-56.5127 132.128-62.5651L80.6595-33.0477L121.677 7.53464Q129.466-0.900657 133.978-12.0537Q138.49-23.2067 138.49-35.2697ZM77.5009-39.7318L128.514-68.9749Q122.986-77.9124 114.801-84.4842Q106.616-91.056 96.9868-94.736Q87.3574-98.4161 77.5009-98.7202Z"/>
  </g>
  <g id="Light-L" transform="matrix(1 0 0 1 1079.17 1556)">
   <path d="M73.8959 27.468Q85.6573 27.468 96.323 23.256Q106.989 19.044 115.513 11.4946L71.7647-31.5502Q70.9304-32.3343 70.6589-33.1586Q70.3875-33.983 70.3875-35.2194L70.3875-97.6857Q58.1134-96.982 47.3824-91.8502Q36.6514-86.7184 28.534-78.2039Q20.4166-69.6894 15.8377-58.6367Q11.2588-47.584 11.2588-35.1692Q11.2588-22.302 16.1644-10.9376Q21.07 0.426731 29.7102 9.08194Q38.3503 17.7371 49.6895 22.6026Q61.0287 27.468 73.8959 27.468ZM136.664-35.2697Q136.664-42.3467 134.94-49.3784Q133.216-56.4101 130.24-62.4215L78.7715-33.0682L119.625 7.4936Q127.516-0.880135 132.09-12.0434Q136.664-23.2067 136.664-35.2697ZM76.208-38.3157L127.405-67.5383Q121.836-76.9273 113.498-83.6223Q105.159-90.3172 95.4887-93.9562Q85.8183-97.5952 76.208-97.7762Z"/>
  </g>
  <g id="Thin-L" transform="matrix(1 0 0 1 783.669 1556)">
   <path d="M72.6746 26.3009Q84.7074 26.3009 95.4002 21.8989Q106.093 17.4969 114.4 9.86608L71.9547-32.1474Q71.1475-32.8772 70.9032-33.6472Q70.6589-34.4172 70.6589-35.6265L70.6589-96.5186Q58.3577-96.0863 47.586-91.1581Q36.8142-86.2298 28.6561-77.8511Q20.498-69.4723 15.8784-58.4874Q11.2588-47.5026 11.2588-35.1149Q11.2588-22.4648 16.0558-11.304Q20.8529-0.143251 29.3166 8.32196Q37.7803 16.7872 48.9024 21.544Q60.0245 26.3009 72.6746 26.3009ZM134.248-35.2697Q134.248-42.3467 132.483-49.3105Q130.719-56.2744 127.743-62.2315L76.2744-33.0953L116.911 7.43931Q124.938-0.852993 129.593-12.0299Q134.248-23.2067 134.248-35.2697ZM74.4981-36.4429L125.94-65.6384Q120.316-75.6245 111.774-82.4823Q103.232-89.3401 93.5074-92.9248Q83.7826-96.5095 74.4981-96.5276Z"/>
  </g>
  <g id="Ultralight-L" transform="matrix(1 0 0 1 487.576 1556)">
   <path d="M72.049 25.7031Q84.2208 25.7031 94.9275 21.2038Q105.634 16.7045 113.83 9.03196L72.052-32.4532Q71.2587-33.1552 71.0283-33.8974Q70.798-34.6397 70.798-35.8351L70.798-95.9208Q58.4828-95.6276 47.6902-90.8036Q36.8976-85.9796 28.7187-77.6703Q20.5397-69.3611 15.8993-58.411Q11.2588-47.4609 11.2588-35.0871Q11.2588-22.5482 16.0002-11.4917Q20.7417-0.435192 29.115 7.93271Q37.4884 16.3006 48.4992 21.0018Q59.5101 25.7031 72.049 25.7031ZM133.011-35.2697Q133.011-42.3467 131.225-49.2758Q129.44-56.2049 126.464-62.1342L74.9954-33.1092L115.52 7.41151Q123.617-0.839091 128.314-12.0229Q133.011-23.2067 133.011-35.2697ZM73.6223-35.4837L125.189-64.6653Q119.538-74.9572 110.891-81.8984Q102.245-88.8396 92.4925-92.3965Q82.74-95.9535 73.6223-95.8882Z"/>
  </g>
  <g id="Black-M" transform="matrix(1 0 0 1 2871.36 1126)">
   <path d="M62.0423 18.1155Q70.762 18.1155 78.7289 15.4411Q86.6959 12.7666 93.3287 7.94902L56.1809-27.9186Q55.2668-28.8329 54.7318-29.8355Q54.1968-30.8381 54.1968-32.6918L54.1968-87.9308Q44.5555-86.4793 36.2721-81.8666Q27.9886-77.2539 21.8157-70.1471Q15.6428-63.0404 12.1827-54.1223Q8.72266-45.2043 8.72266-35.2042Q8.72266-24.1792 12.8801-14.538Q17.0375-4.89683 24.3861 2.45455Q31.7347 9.80593 41.376 13.9607Q51.0174 18.1155 62.0423 18.1155ZM115.367-35.2035Q115.367-40.0012 114.547-44.5764Q113.727-49.1517 112.164-53.3736L72.8598-31.0036L103.34-1.53777Q108.972-8.42846 112.169-17.029Q115.367-25.6295 115.367-35.2035ZM67.5661-43.4686L105.964-65.3485Q101.671-71.645 95.7334-76.4822Q89.7959-81.3194 82.6677-84.3599Q75.5396-87.4004 67.5661-88.2328Z"/>
  </g>
  <g id="Heavy-M" transform="matrix(1 0 0 1 2575.47 1126)">
   <path d="M61.2045 17.2697Q69.9516 17.2697 77.9819 14.5019Q86.0123 11.734 92.6905 6.69261L55.998-28.828Q55.1406-29.6829 54.6757-30.6127Q54.2108-31.5424 54.2108-33.1911L54.2108-87.1928Q44.6072-85.8901 36.3264-81.3788Q28.0455-76.8675 21.855-69.8486Q15.6645-62.8297 12.1936-53.9792Q8.72266-45.1286 8.72266-35.2121Q8.72266-24.3843 12.8219-14.8918Q16.9211-5.39923 24.1576 1.84532Q31.394 9.08987 40.8853 13.1798Q50.3767 17.2697 61.2045 17.2697ZM113.707-35.217Q113.707-40.1764 112.775-44.9738Q111.844-49.7713 110.105-54.1089L70.6665-31.5992L101.475-1.66454Q107.188-8.47961 110.448-17.0882Q113.707-25.6968 113.707-35.217ZM65.9646-42.5378L104.603-64.6036Q100.318-70.9875 94.3057-75.8681Q88.2936-80.7488 81.0926-83.7501Q73.8916-86.7515 65.9646-87.4596Z"/>
  </g>
  <g id="Bold-M" transform="matrix(1 0 0 1 2279.69 1126)">
   <path d="M60.2672 16.3235Q69.045 16.3235 77.1463 13.4512Q85.2476 10.579 91.9765 5.28713L55.7934-29.8453Q54.9994-30.6338 54.613-31.482Q54.2265-32.3302 54.2265-33.7498L54.2265-86.3671Q44.665-85.2308 36.3871-80.8331Q28.1092-76.4353 21.899-69.5147Q15.6888-62.5941 12.2057-53.8191Q8.72266-45.0441 8.72266-35.2211Q8.72266-24.6138 12.7568-15.2875Q16.791-5.96124 23.902 1.1638Q31.0129 8.28885 40.3364 12.3062Q49.6599 16.3235 60.2672 16.3235ZM111.851-35.2321Q111.851-40.3723 110.794-45.4183Q109.737-50.4643 107.803-54.9315L68.213-32.2655L99.3889-1.80635Q105.193-8.53683 108.522-17.1545Q111.851-25.7722 111.851-35.2321ZM64.173-41.4966L103.08-63.7703Q98.8039-70.252 92.7085-75.1813Q86.6132-80.1105 79.3306-83.068Q72.048-86.0255 64.173-86.5946Z"/>
  </g>
  <g id="Semibold-M" transform="matrix(1 0 0 1 1983.62 1126)">
   <path d="M59.621 15.6711Q68.4201 15.6711 76.5702 12.7269Q84.7204 9.78265 91.4843 4.3182L55.6524-30.5466Q54.9021-31.2893 54.5697-32.0813Q54.2373-32.8733 54.2373-34.1349L54.2373-85.798Q44.7049-84.7764 36.429-80.4569Q28.1531-76.1374 21.9293-69.2845Q15.7055-62.4316 12.2141-53.7087Q8.72266-44.9857 8.72266-35.2272Q8.72266-24.772 12.712-15.5604Q16.7013-6.34869 23.7257 0.69397Q30.7501 7.73663 39.958 11.7039Q49.1658 15.6711 59.621 15.6711ZM110.571-35.2425Q110.571-40.5074 109.428-45.7248Q108.284-50.9421 106.215-55.4986L66.5216-32.7249L97.9507-1.90412Q103.817-8.57628 107.194-17.2002Q110.571-25.8242 110.571-35.2425ZM62.938-40.7787L102.03-63.1958Q97.7603-69.745 91.6075-74.7077Q85.4546-79.6705 78.1159-82.5978Q70.7771-85.525 62.938-85.9983Z"/>
  </g>
  <g id="Medium-M" transform="matrix(1 0 0 1 1687.39 1126)">
   <path d="M59.1311 15.1765Q67.9462 15.1765 76.1334 12.1777Q84.3206 9.17886 91.1111 3.58352L55.5455-31.0784Q54.8282-31.7863 54.5369-32.5357Q54.2455-33.2851 54.2455-34.4269L54.2455-85.3664Q44.7351-84.4318 36.4608-80.1716Q28.1864-75.9115 21.9523-69.11Q15.7182-62.3085 12.2205-53.625Q8.72266-44.9415 8.72266-35.2319Q8.72266-24.892 12.678-15.7672Q16.6333-6.64247 23.5921 0.337724Q30.5509 7.31791 39.671 11.2472Q48.7912 15.1765 59.1311 15.1765ZM109.601-35.2504Q109.601-40.6099 108.392-45.9571Q107.183-51.3044 105.011-55.9286L65.239-33.0732L96.8602-1.97825Q102.774-8.60619 106.187-17.2349Q109.601-25.8636 109.601-35.2504ZM62.0015-40.2344L101.235-62.7602Q96.969-69.3605 90.7726-74.3487Q84.5762-79.3368 77.1948-82.2412Q69.8135-85.1456 62.0015-85.5461Z"/>
  </g>
  <g id="Regular-M" transform="matrix(1 0 0 1 1391.32 1126)">
   <path d="M58.492 14.5314Q67.3281 14.5314 75.5637 11.4613Q83.7992 8.39131 90.6243 2.62524L55.406-31.772Q54.732-32.4346 54.4941-33.1284Q54.2562-33.8222 54.2562-34.8078L54.2562-84.8035Q44.7746-83.9823 36.5022-79.7996Q28.2298-75.6168 21.9823-68.8823Q15.7348-62.1478 12.2287-53.5158Q8.72266-44.8838 8.72266-35.238Q8.72266-25.0484 12.6336-16.037Q16.5446-7.02565 23.4178-0.126945Q30.291 6.77176 39.2968 10.6516Q48.3025 14.5314 58.492 14.5314ZM108.335-35.2606Q108.335-40.7435 107.041-46.2602Q105.746-51.777 103.441-56.4894L63.5662-33.5275L95.4377-2.07494Q101.413-8.6452 104.874-17.2801Q108.335-25.9149 108.335-35.2606ZM60.78-39.5245L100.196-62.1921Q95.9369-68.859 89.6837-73.8803Q83.4304-78.9016 75.9935-81.7761Q68.5565-84.6506 60.78-84.9563Z"/>
  </g>
  <g id="Light-M" transform="matrix(1 0 0 1 1095.42 1126)">
   <path d="M57.664 13.7402Q66.6841 13.7402 74.9381 10.5414Q83.1921 7.34256 89.8699 1.5213L55.5348-32.1767Q54.8792-32.8026 54.6597-33.4596Q54.4402-34.1166 54.4402-35.0838L54.4402-84.0123Q44.9402-83.3752 36.6402-79.3304Q28.3402-75.2856 22.0651-68.6431Q15.79-62.0006 12.2563-53.4146Q8.72266-44.8286 8.72266-35.2012Q8.72266-25.1588 12.56-16.2854Q16.3974-7.41203 23.151-0.642118Q29.9047 6.1278 38.7632 9.93402Q47.6217 13.7402 57.664 13.7402ZM106.697-35.2606Q106.697-40.7435 105.376-46.2142Q104.054-51.685 101.748-56.3606L61.8735-33.5459L93.5978-2.11173Q99.6655-8.6268 103.181-17.2709Q106.697-25.9149 106.697-35.2606ZM59.6208-38.255L99.2028-60.9041Q94.9066-67.9759 88.5153-73.1076Q82.1241-78.2393 74.6503-81.0769Q67.1766-83.9146 59.6208-84.11Z"/>
  </g>
  <g id="Thin-M" transform="matrix(1 0 0 1 799.795 1126)">
   <path d="M56.569 12.6939Q65.8324 12.6939 74.1107 9.32469Q82.389 5.95552 88.8722 0.0612494L55.7051-32.7121Q55.0738-33.2893 54.8787-33.8976Q54.6836-34.506 54.6836-35.4488L54.6836-82.9659Q45.1592-82.5721 36.8227-78.7099Q28.4862-74.8476 22.1746-68.3268Q15.863-61.8059 12.2928-53.2808Q8.72266-44.7556 8.72266-35.1525Q8.72266-25.3048 12.4627-16.6139Q16.2027-7.92305 22.7982-1.32347Q29.3936 5.2761 38.0575 8.98498Q46.7214 12.6939 56.569 12.6939ZM104.532-35.2606Q104.532-40.7435 103.173-46.1534Q101.815-51.5633 99.5097-56.1903L59.6347-33.5702L91.1644-2.1604Q97.3538-8.60246 100.943-17.2587Q104.532-25.9149 104.532-35.2606ZM58.0878-36.5759L97.8887-59.2007Q93.5439-66.8078 86.9701-72.0855Q80.3964-77.3632 72.874-80.1522Q65.3515-82.9413 58.0878-82.9906Z"/>
  </g>
  <g id="Ultralight-M" transform="matrix(1 0 0 1 503.639 1126)">
   <path d="M56.0081 12.1579Q65.3962 12.1579 73.687 8.7015Q81.9777 5.24508 88.3612-0.686581L55.7924-32.9863Q55.1735-33.5386 54.9909-34.122Q54.8082-34.7054 54.8082-35.6357L54.8082-82.43Q45.2713-82.1608 36.9162-78.392Q28.561-74.6232 22.2307-68.1647Q15.9004-61.7062 12.3115-53.2122Q8.72266-44.7182 8.72266-35.1276Q8.72266-25.3796 12.4128-16.7822Q16.103-8.18479 22.6175-1.67246Q29.1319 4.83987 37.6961 8.49889Q46.2602 12.1579 56.0081 12.1579ZM103.422-35.2606Q103.422-40.7435 102.045-46.1222Q100.668-51.501 98.3631-56.1031L58.4881-33.5827L89.918-2.18533Q96.1697-8.59 99.7961-17.2525Q103.422-25.9149 103.422-35.2606ZM57.3026-35.7159L97.2157-58.3283Q92.8459-66.2096 86.1787-71.5621Q79.5114-76.9145 71.9641-79.6786Q64.4167-82.4427 57.3026-82.4173Z"/>
  </g>
  <g id="Black-S" transform="matrix(1 0 0 1 2884.57 696)">
   <path d="M48.8281 6.78711Q55.6641 6.78711 61.8896 4.71191Q68.1152 2.63672 73.291-1.07422L44.0918-29.248Q43.3594-29.9805 42.9199-30.7861Q42.4805-31.5918 42.4805-33.1055L42.4805-76.709Q34.9121-75.5371 28.418-71.8994Q21.9238-68.2617 17.0898-62.6709Q12.2559-57.0801 9.5459-50.0732Q6.83594-43.0664 6.83594-35.2051Q6.83594-26.5137 10.1074-18.9209Q13.3789-11.3281 19.165-5.54199Q24.9512 0.244141 32.5439 3.51562Q40.1367 6.78711 48.8281 6.78711ZM90.8203-35.2051Q90.8203-38.916 90.21-42.4316Q89.5996-45.9473 88.4277-49.2188L57.666-31.7383L81.4453-8.78906Q85.8398-14.209 88.3301-20.9473Q90.8203-27.6855 90.8203-35.2051ZM53.3691-41.8945L83.3984-58.9844Q80.0293-63.916 75.3906-67.7002Q70.752-71.4844 65.1855-73.877Q59.6191-76.2695 53.3691-76.9531Z"/>
  </g>
  <g id="Heavy-S" transform="matrix(1 0 0 1 2588.47 696)">
   <path d="M48.2173 6.16479Q55.0533 6.16479 61.3307 4.02621Q67.6082 1.88763 72.8416-2.0077L43.9189-29.9741Q43.2326-30.6604 42.8508-31.4085Q42.4689-32.1565 42.4689-33.4973L42.4689-76.1789Q34.9352-75.1107 28.4468-71.5422Q21.9584-67.9736 17.1129-62.4462Q12.2674-56.9187 9.55166-49.9638Q6.83594-43.0088 6.83594-35.2166Q6.83594-26.675 10.0671-19.1917Q13.2982-11.7084 19.0037-5.99721Q24.7092-0.285985 32.1924 2.9394Q39.6757 6.16479 48.2173 6.16479ZM89.6102-35.2166Q89.6102-39.0658 88.9077-42.7774Q88.2051-46.4889 86.8835-49.8641L56.0065-32.2454L80.0854-8.89278Q84.5376-14.2551 87.0739-20.9991Q89.6102-27.7432 89.6102-35.2166ZM52.1475-41.2607L82.3612-58.5119Q79.0036-63.4666 74.3188-67.2738Q69.6341-71.081 64.0101-73.4448Q58.386-75.8086 52.1475-76.4Z"/>
  </g>
  <g id="Bold-S" transform="matrix(1 0 0 1 2292.43 696)">
   <path d="M47.5342 5.46875Q54.3701 5.46875 60.7056 3.25928Q67.041 1.0498 72.3389-3.05176L43.7256-30.7861Q43.0908-31.4209 42.7734-32.1045Q42.4561-32.7881 42.4561-33.9355L42.4561-75.5859Q34.9609-74.6338 28.479-71.1426Q21.9971-67.6514 17.1387-62.1948Q12.2803-56.7383 9.55811-49.8413Q6.83594-42.9443 6.83594-35.2295Q6.83594-26.8555 10.022-19.4946Q13.208-12.1338 18.8232-6.50635Q24.4385-0.878906 31.7993 2.29492Q39.1602 5.46875 47.5342 5.46875ZM88.2568-35.2295Q88.2568-39.2334 87.4512-43.1641Q86.6455-47.0947 85.1562-50.5859L54.1504-32.8125L78.5645-9.00879Q83.0811-14.3066 85.6689-21.0571Q88.2568-27.8076 88.2568-35.2295ZM50.7812-40.5518L81.2012-57.9834Q77.8564-62.9639 73.1201-66.7969Q68.3838-70.6299 62.6953-72.9614Q57.0068-75.293 50.7812-75.7812Z"/>
  </g>
  <g id="Semibold-S" transform="matrix(1 0 0 1 1996.19 696)">
   <path d="M47.0632 4.98887Q53.8991 4.98887 60.2746 2.73052Q66.65 0.472168 71.9923-3.77158L43.5923-31.346Q42.9931-31.9452 42.7201-32.5844Q42.4472-33.2235 42.4472-34.2377L42.4472-75.1771Q34.9787-74.305 28.5012-70.8671Q22.0237-67.4292 17.1564-62.0215Q12.2892-56.6139 9.56255-49.7569Q6.83594-42.8999 6.83594-35.2384Q6.83594-26.9799 9.99087-19.7035Q13.1458-12.4271 18.6988-6.85737Q24.2519-1.2877 31.5283 1.85059Q38.8047 4.98887 47.0632 4.98887ZM87.3237-35.2384Q87.3237-39.3489 86.447-43.4307Q85.5702-47.5124 83.9654-51.0836L52.8707-33.2035L77.5158-9.08877Q82.0769-14.3422 84.7003-21.0971Q87.3237-27.8521 87.3237-35.2384ZM49.8393-40.063L80.4014-57.619Q77.0655-62.6173 72.2937-66.4681Q67.5218-70.3188 61.7889-72.6282Q56.056-74.9375 49.8393-75.3547Z"/>
  </g>
  <g id="Medium-S" transform="matrix(1 0 0 1 1699.83 696)">
   <path d="M46.7061 4.625Q53.542 4.625 59.9478 2.32959Q66.3535 0.0341797 71.7295-4.31738L43.4912-31.7705Q42.9189-32.3428 42.6797-32.9482Q42.4404-33.5537 42.4404-34.4668L42.4404-74.8672Q34.9922-74.0557 28.5181-70.6582Q22.0439-67.2607 17.1699-61.8901Q12.2959-56.5195 9.56592-49.6929Q6.83594-42.8662 6.83594-35.2451Q6.83594-27.0742 9.96729-19.8618Q13.0986-12.6494 18.6045-7.12354Q24.1104-1.59766 31.3228 1.51367Q38.5352 4.625 46.7061 4.625ZM86.6162-35.2451Q86.6162-39.4365 85.6855-43.6328Q84.7549-47.8291 83.0625-51.4609L51.9004-33.5L76.7207-9.14941Q81.3154-14.3691 83.9658-21.1274Q86.6162-27.8857 86.6162-35.2451ZM49.125-39.6924L79.7949-57.3428Q76.4658-62.3545 71.667-66.2188Q66.8682-70.083 61.1016-72.3755Q55.335-74.668 49.125-75.0312Z"/>
  </g>
  <g id="Regular-S" transform="matrix(1 0 0 1 1403.58 696)">
   <path d="M46.2402 4.15039Q53.0762 4.15039 59.5215 1.80664Q65.9668-0.537109 71.3867-5.0293L43.3594-32.3242Q42.8223-32.8613 42.627-33.4229Q42.4316-33.9844 42.4316-34.7656L42.4316-74.4629Q35.0098-73.7305 28.54-70.3857Q22.0703-67.041 17.1875-61.7188Q12.3047-56.3965 9.57031-49.6094Q6.83594-42.8223 6.83594-35.2539Q6.83594-27.1973 9.93652-20.0684Q13.0371-12.9395 18.4814-7.4707Q23.9258-2.00195 31.0547 1.07422Q38.1836 4.15039 46.2402 4.15039ZM85.6934-35.2539Q85.6934-39.5508 84.6924-43.8965Q83.6914-48.2422 81.8848-51.9531L50.6348-33.8867L75.6836-9.22852Q80.3223-14.4043 83.0078-21.167Q85.6934-27.9297 85.6934-35.2539ZM48.1934-39.209L79.0039-56.9824Q75.6836-62.0117 70.8496-65.8936Q66.0156-69.7754 60.2051-72.0459Q54.3945-74.3164 48.1934-74.6094Z"/>
  </g>
  <g id="Light-S" transform="matrix(1 0 0 1 1107.59 696)">
   <path d="M45.5078 3.45052Q52.5065 3.45052 58.9681 0.992839Q65.4297-1.46484 70.7194-6.00586L43.4733-32.6823Q42.9525-33.1868 42.7734-33.7158Q42.5944-34.2448 42.5944-35.0098L42.5944-73.763Q35.1562-73.1934 28.6621-69.9707Q22.168-66.748 17.2607-61.5072Q12.3535-56.2663 9.59473-49.5199Q6.83594-42.7734 6.83594-35.2214Q6.83594-27.2949 9.87142-20.2881Q12.9069-13.2812 18.2454-7.92643Q23.584-2.57161 30.5827 0.439453Q37.5814 3.45052 45.5078 3.45052ZM84.2448-35.2539Q84.2448-39.5508 83.2194-43.8558Q82.194-48.1608 80.3874-51.8392L49.1374-33.903L74.056-9.26107Q78.776-14.388 81.5104-21.1589Q84.2448-27.9297 84.2448-35.2539ZM47.168-38.0859L78.125-55.8431Q74.7721-61.2305 69.8161-65.21Q64.86-69.1895 59.0169-71.4274Q53.1738-73.6654 47.168-73.8607Z"/>
  </g>
  <g id="Thin-S" transform="matrix(1 0 0 1 811.84 696)">
   <path d="M44.5391 2.52489Q51.7531 2.52489 58.2362-0.0834803Q64.7193-2.69185 69.8368-7.29744L43.624-33.1559Q43.1247-33.6174 42.9672-34.1033Q42.8097-34.5892 42.8097-35.3327L42.8097-72.8374Q35.35-72.483 28.8236-69.4218Q22.2971-66.3606 17.3576-61.2273Q12.4181-56.0941 9.62702-49.4015Q6.83594-42.7089 6.83594-35.1783Q6.83594-27.4241 9.78531-20.5787Q12.7347-13.7333 17.9333-8.52917Q23.1319-3.32504 29.9584-0.400076Q36.7849 2.52489 44.5391 2.52489ZM82.3289-35.2539Q82.3289-39.5508 81.2713-43.802Q80.2136-48.0532 78.4069-51.6885L47.1569-33.9245L71.9034-9.30412Q76.731-14.3665 79.53-21.1481Q82.3289-27.9297 82.3289-35.2539ZM45.8118-36.6006L76.9626-54.3363Q73.5667-60.1972 68.4492-64.3059Q63.3317-68.4145 57.4455-70.6094Q51.5593-72.8043 45.8118-72.8705Z"/>
  </g>
  <g id="Ultralight-S" transform="matrix(1 0 0 1 515.619 696)">
   <path d="M44.043 2.05078Q51.3672 2.05078 57.8613-0.634766Q64.3555-3.32031 69.3848-7.95898L43.7012-33.3984Q43.2129-33.8379 43.0664-34.3018Q42.9199-34.7656 42.9199-35.498L42.9199-72.3633Q35.4492-72.1191 28.9062-69.1406Q22.3633-66.1621 17.4072-61.084Q12.4512-56.0059 9.64355-49.3408Q6.83594-42.6758 6.83594-35.1562Q6.83594-27.4902 9.74121-20.7275Q12.6465-13.9648 17.7734-8.83789Q22.9004-3.71094 29.6387-0.830078Q36.377 2.05078 44.043 2.05078ZM81.3477-35.2539Q81.3477-39.5508 80.2734-43.7744Q79.1992-47.998 77.3926-51.6113L46.1426-33.9355L70.8008-9.32617Q75.6836-14.3555 78.5156-21.1426Q81.3477-27.9297 81.3477-35.2539ZM45.1172-35.8398L76.3672-53.5645Q72.9492-59.668 67.749-63.8428Q62.5488-68.0176 56.6406-70.1904Q50.7324-72.3633 45.1172-72.3633Z"/>
  </g>
 </g>
</svg>
