<?xml version="1.0" encoding="UTF-8"?>
<!--Generator: Apple Native CoreSVG 175-->
<!DOCTYPE svg
PUBLIC "-//W3C//DTD SVG 1.1//EN"
       "http://www.w3.org/Graphics/SVG/1.1/DTD/svg11.dtd">
<svg version="1.1" xmlns="http://www.w3.org/2000/svg" xmlns:xlink="http://www.w3.org/1999/xlink" width="3300" height="2200">
 <!--glyph: "uni10064A.medium", point size: 100.0, font version: "17.1d1e1", template writer version: "65.1"-->
 <g id="Notes">
  <rect height="2200" id="artboard" style="fill:white;opacity:1" width="3300" x="0" y="0"/>
  <line style="fill:none;stroke:black;opacity:1;stroke-width:0.5;" x1="263" x2="3036" y1="292" y2="292"/>
  <text style="stroke:none;fill:black;font-family:sans-serif;font-size:13;font-weight:bold;" transform="matrix(1 0 0 1 263 322)">Weight/Scale Variations</text>
  <text style="stroke:none;fill:black;font-family:sans-serif;font-size:13;text-anchor:middle;" transform="matrix(1 0 0 1 559.711 322)">Ultralight</text>
  <text style="stroke:none;fill:black;font-family:sans-serif;font-size:13;text-anchor:middle;" transform="matrix(1 0 0 1 856.422 322)">Thin</text>
  <text style="stroke:none;fill:black;font-family:sans-serif;font-size:13;text-anchor:middle;" transform="matrix(1 0 0 1 1153.13 322)">Light</text>
  <text style="stroke:none;fill:black;font-family:sans-serif;font-size:13;text-anchor:middle;" transform="matrix(1 0 0 1 1449.84 322)">Regular</text>
  <text style="stroke:none;fill:black;font-family:sans-serif;font-size:13;text-anchor:middle;" transform="matrix(1 0 0 1 1746.56 322)">Medium</text>
  <text style="stroke:none;fill:black;font-family:sans-serif;font-size:13;text-anchor:middle;" transform="matrix(1 0 0 1 2043.27 322)">Semibold</text>
  <text style="stroke:none;fill:black;font-family:sans-serif;font-size:13;text-anchor:middle;" transform="matrix(1 0 0 1 2339.98 322)">Bold</text>
  <text style="stroke:none;fill:black;font-family:sans-serif;font-size:13;text-anchor:middle;" transform="matrix(1 0 0 1 2636.69 322)">Heavy</text>
  <text style="stroke:none;fill:black;font-family:sans-serif;font-size:13;text-anchor:middle;" transform="matrix(1 0 0 1 2933.4 322)">Black</text>
  <line style="fill:none;stroke:black;opacity:1;stroke-width:0.5;" x1="263" x2="3036" y1="1903" y2="1903"/>
  <g transform="matrix(1 0 0 1 263 1933)">
   <path d="M9.24805 0.830078Q10.8691 0.830078 12.2949 0.214844Q13.7207-0.400391 14.8096-1.49414Q15.8984-2.58789 16.5186-4.01367Q17.1387-5.43945 17.1387-7.05078Q17.1387-8.66211 16.5186-10.0879Q15.8984-11.5137 14.8047-12.6074Q13.7109-13.7012 12.2852-14.3164Q10.8594-14.9316 9.23828-14.9316Q7.62695-14.9316 6.20117-14.3164Q4.77539-13.7012 3.69141-12.6074Q2.60742-11.5137 1.9873-10.0879Q1.36719-8.66211 1.36719-7.05078Q1.36719-5.43945 1.9873-4.01367Q2.60742-2.58789 3.69629-1.49414Q4.78516-0.400391 6.21094 0.214844Q7.63672 0.830078 9.24805 0.830078ZM9.24805-0.654297Q7.91992-0.654297 6.7627-1.14746Q5.60547-1.64062 4.73145-2.51953Q3.85742-3.39844 3.36426-4.56055Q2.87109-5.72266 2.87109-7.05078Q2.87109-8.37891 3.35938-9.54102Q3.84766-10.7031 4.72168-11.582Q5.5957-12.4609 6.75293-12.9541Q7.91016-13.4473 9.23828-13.4473Q10.5762-13.4473 11.7334-12.9541Q12.8906-12.4609 13.7695-11.582Q14.6484-10.7031 15.1465-9.54102Q15.6445-8.37891 15.6445-7.05078Q15.6445-5.72266 15.1514-4.56055Q14.6582-3.39844 13.7842-2.51953Q12.9102-1.64062 11.748-1.14746Q10.5859-0.654297 9.24805-0.654297ZM5.6543-7.05078Q5.6543-6.72852 5.85938-6.52832Q6.06445-6.32812 6.40625-6.32812L8.51562-6.32812L8.51562-4.20898Q8.51562-3.88672 8.71094-3.67676Q8.90625-3.4668 9.23828-3.4668Q9.56055-3.4668 9.77051-3.67676Q9.98047-3.88672 9.98047-4.20898L9.98047-6.32812L12.0898-6.32812Q12.4219-6.32812 12.627-6.52832Q12.832-6.72852 12.832-7.05078Q12.832-7.38281 12.627-7.58789Q12.4219-7.79297 12.0898-7.79297L9.98047-7.79297L9.98047-9.90234Q9.98047-10.2344 9.77051-10.4443Q9.56055-10.6543 9.23828-10.6543Q8.90625-10.6543 8.71094-10.4443Q8.51562-10.2344 8.51562-9.90234L8.51562-7.79297L6.40625-7.79297Q6.06445-7.79297 5.85938-7.58789Q5.6543-7.38281 5.6543-7.05078Z"/>
  </g>
  <g transform="matrix(1 0 0 1 281.867 1933)">
   <path d="M11.709 2.91016Q13.75 2.91016 15.5518 2.12891Q17.3535 1.34766 18.7305-0.0292969Q20.1074-1.40625 20.8887-3.20801Q21.6699-5.00977 21.6699-7.05078Q21.6699-9.0918 20.8887-10.8936Q20.1074-12.6953 18.7305-14.0723Q17.3535-15.4492 15.5469-16.2305Q13.7402-17.0117 11.6992-17.0117Q9.6582-17.0117 7.85645-16.2305Q6.05469-15.4492 4.68262-14.0723Q3.31055-12.6953 2.5293-10.8936Q1.74805-9.0918 1.74805-7.05078Q1.74805-5.00977 2.5293-3.20801Q3.31055-1.40625 4.6875-0.0292969Q6.06445 1.34766 7.86621 2.12891Q9.66797 2.91016 11.709 2.91016ZM11.709 1.25Q9.98047 1.25 8.47656 0.605469Q6.97266-0.0390625 5.83496-1.17676Q4.69727-2.31445 4.05762-3.81836Q3.41797-5.32227 3.41797-7.05078Q3.41797-8.7793 4.05762-10.2832Q4.69727-11.7871 5.83008-12.9297Q6.96289-14.0723 8.4668-14.7119Q9.9707-15.3516 11.6992-15.3516Q13.4277-15.3516 14.9316-14.7119Q16.4355-14.0723 17.5781-12.9297Q18.7207-11.7871 19.3652-10.2832Q20.0098-8.7793 20.0098-7.05078Q20.0098-5.32227 19.3701-3.81836Q18.7305-2.31445 17.5928-1.17676Q16.4551-0.0390625 14.9463 0.605469Q13.4375 1.25 11.709 1.25ZM7.17773-7.05078Q7.17773-6.69922 7.41211-6.47461Q7.64648-6.25 8.01758-6.25L10.8887-6.25L10.8887-3.36914Q10.8887-2.99805 11.1133-2.76855Q11.3379-2.53906 11.6895-2.53906Q12.0605-2.53906 12.29-2.76855Q12.5195-2.99805 12.5195-3.36914L12.5195-6.25L15.4004-6.25Q15.7715-6.25 16.001-6.47461Q16.2305-6.69922 16.2305-7.05078Q16.2305-7.42188 16.001-7.65137Q15.7715-7.88086 15.4004-7.88086L12.5195-7.88086L12.5195-10.752Q12.5195-11.1328 12.29-11.3623Q12.0605-11.5918 11.6895-11.5918Q11.3379-11.5918 11.1133-11.3574Q10.8887-11.123 10.8887-10.752L10.8887-7.88086L8.01758-7.88086Q7.63672-7.88086 7.40723-7.65137Q7.17773-7.42188 7.17773-7.05078Z"/>
  </g>
  <g transform="matrix(1 0 0 1 305.646 1933)">
   <path d="M14.9707 5.66406Q17.0605 5.66406 18.96 5.01465Q20.8594 4.36523 22.4512 3.19336Q24.043 2.02148 25.2197 0.429688Q26.3965-1.16211 27.0459-3.06641Q27.6953-4.9707 27.6953-7.05078Q27.6953-9.14062 27.0459-11.04Q26.3965-12.9395 25.2197-14.5312Q24.043-16.123 22.4512-17.2998Q20.8594-18.4766 18.9551-19.126Q17.0508-19.7754 14.9609-19.7754Q12.8711-19.7754 10.9717-19.126Q9.07227-18.4766 7.48535-17.2998Q5.89844-16.123 4.72168-14.5312Q3.54492-12.9395 2.90039-11.04Q2.25586-9.14062 2.25586-7.05078Q2.25586-4.9707 2.90527-3.06641Q3.55469-1.16211 4.72656 0.429688Q5.89844 2.02148 7.49023 3.19336Q9.08203 4.36523 10.9814 5.01465Q12.8809 5.66406 14.9707 5.66406ZM14.9707 3.84766Q13.1641 3.84766 11.5283 3.2959Q9.89258 2.74414 8.53516 1.74805Q7.17773 0.751953 6.17676-0.610352Q5.17578-1.97266 4.62891-3.6084Q4.08203-5.24414 4.08203-7.05078Q4.08203-8.86719 4.62891-10.5029Q5.17578-12.1387 6.17188-13.501Q7.16797-14.8633 8.52539-15.8594Q9.88281-16.8555 11.5186-17.4023Q13.1543-17.9492 14.9609-17.9492Q16.7773-17.9492 18.4131-17.4023Q20.0488-16.8555 21.4111-15.8594Q22.7734-14.8633 23.7695-13.501Q24.7656-12.1387 25.3174-10.5029Q25.8691-8.86719 25.8691-7.05078Q25.8789-5.24414 25.332-3.6084Q24.7852-1.97266 23.7842-0.610352Q22.7832 0.751953 21.4209 1.74805Q20.0586 2.74414 18.4229 3.2959Q16.7871 3.84766 14.9707 3.84766ZM9.19922-7.05078Q9.19922-6.66992 9.45801-6.4209Q9.7168-6.17188 10.1172-6.17188L14.0625-6.17188L14.0625-2.2168Q14.0625-1.81641 14.3115-1.55762Q14.5605-1.29883 14.9512-1.29883Q15.3516-1.29883 15.6104-1.55273Q15.8691-1.80664 15.8691-2.2168L15.8691-6.17188L19.8242-6.17188Q20.2246-6.17188 20.4785-6.4209Q20.7324-6.66992 20.7324-7.05078Q20.7324-7.46094 20.4785-7.71484Q20.2246-7.96875 19.8242-7.96875L15.8691-7.96875L15.8691-11.9141Q15.8691-12.3242 15.6104-12.583Q15.3516-12.8418 14.9512-12.8418Q14.5605-12.8418 14.3115-12.583Q14.0625-12.3242 14.0625-11.9141L14.0625-7.96875L10.1172-7.96875Q9.70703-7.96875 9.45312-7.71484Q9.19922-7.46094 9.19922-7.05078Z"/>
  </g>
  <text style="stroke:none;fill:black;font-family:sans-serif;font-size:13;font-weight:bold;" transform="matrix(1 0 0 1 263 1953)">Design Variations</text>
  <text style="stroke:none;fill:black;font-family:sans-serif;font-size:13;" transform="matrix(1 0 0 1 263 1971)">Symbols are supported in up to nine weights and three scales.</text>
  <text style="stroke:none;fill:black;font-family:sans-serif;font-size:13;" transform="matrix(1 0 0 1 263 1989)">For optimal layout with text and other symbols, vertically align</text>
  <text style="stroke:none;fill:black;font-family:sans-serif;font-size:13;" transform="matrix(1 0 0 1 263 2007)">symbols with the adjacent text.</text>
  <line style="fill:none;stroke:#00AEEF;stroke-width:0.5;opacity:1.0;" x1="776" x2="776" y1="1919" y2="1933"/>
  <g transform="matrix(1 0 0 1 776 1933)">
   <path d="M3.31055 0.15625Q3.70117 0.15625 3.91602-0.00976562Q4.13086-0.175781 4.26758-0.585938L5.52734-4.0332L11.2891-4.0332L12.5488-0.585938Q12.6855-0.175781 12.9004-0.00976562Q13.1152 0.15625 13.4961 0.15625Q13.8867 0.15625 14.1162-0.0585938Q14.3457-0.273438 14.3457-0.644531Q14.3457-0.869141 14.2383-1.17188L9.6582-13.3691Q9.48242-13.8184 9.17969-14.043Q8.87695-14.2676 8.4082-14.2676Q7.5-14.2676 7.17773-13.3789L2.59766-1.16211Q2.49023-0.859375 2.49023-0.634766Q2.49023-0.263672 2.70996-0.0537109Q2.92969 0.15625 3.31055 0.15625ZM6.00586-5.51758L8.37891-12.0898L8.42773-12.0898L10.8008-5.51758Z"/>
  </g>
  <line style="fill:none;stroke:#00AEEF;stroke-width:0.5;opacity:1.0;" x1="793.197" x2="793.197" y1="1919" y2="1933"/>
  <text style="stroke:none;fill:black;font-family:sans-serif;font-size:13;font-weight:bold;" transform="matrix(1 0 0 1 776 1953)">Margins</text>
  <text style="stroke:none;fill:black;font-family:sans-serif;font-size:13;" transform="matrix(1 0 0 1 776 1971)">Leading and trailing margins on the left and right side of each symbol</text>
  <text style="stroke:none;fill:black;font-family:sans-serif;font-size:13;" transform="matrix(1 0 0 1 776 1989)">can be adjusted by modifying the x-location of the margin guidelines.</text>
  <text style="stroke:none;fill:black;font-family:sans-serif;font-size:13;" transform="matrix(1 0 0 1 776 2007)">Modifications are automatically applied proportionally to all</text>
  <text style="stroke:none;fill:black;font-family:sans-serif;font-size:13;" transform="matrix(1 0 0 1 776 2025)">scales and weights.</text>
  <g transform="matrix(1 0 0 1 1289 1933)">
   <path d="M2.8418 1.86523L4.54102 3.57422Q5.18555 4.22852 5.90332 4.17969Q6.62109 4.13086 7.31445 3.35938L18.0078-8.42773L17.041-9.4043L6.42578 2.27539Q6.16211 2.57812 5.89355 2.61719Q5.625 2.65625 5.27344 2.30469L4.10156 1.14258Q3.75 0.791016 3.79395 0.522461Q3.83789 0.253906 4.14062-0.0195312L15.6152-10.8203L14.6387-11.7871L3.04688-0.898438Q2.30469-0.214844 2.25098 0.498047Q2.19727 1.21094 2.8418 1.86523ZM9.25781-16.3281Q8.94531-16.0254 8.90625-15.6348Q8.86719-15.2441 9.04297-14.9512Q9.21875-14.6777 9.55566-14.541Q9.89258-14.4043 10.3809-14.5215Q11.4746-14.7754 12.5977-14.7314Q13.7207-14.6875 14.7949-13.9844L14.209-12.5293Q13.9551-11.9043 14.0674-11.4404Q14.1797-10.9766 14.5801-10.5664L16.875-8.25195Q17.2363-7.88086 17.5781-7.82227Q17.9199-7.76367 18.3398-7.8418L19.4043-8.03711L20.0684-7.36328L20.0293-6.80664Q20-6.43555 20.1221-6.12305Q20.2441-5.81055 20.6055-5.44922L21.3672-4.70703Q21.7285-4.3457 22.1533-4.33105Q22.5781-4.31641 22.9297-4.66797L25.8398-7.58789Q26.1914-7.93945 26.1816-8.35449Q26.1719-8.76953 25.8105-9.13086L25.0391-9.89258Q24.6875-10.2539 24.3799-10.3857Q24.0723-10.5176 23.7109-10.4883L23.1348-10.4395L22.4902-11.0742L22.7344-12.1973Q22.832-12.6172 22.6953-12.9834Q22.5586-13.3496 22.1191-13.7891L19.9219-15.9766Q18.6719-17.2168 17.2607-17.8369Q15.8496-18.457 14.4189-18.4814Q12.9883-18.5059 11.665-17.959Q10.3418-17.4121 9.25781-16.3281ZM10.752-15.957Q11.6602-16.6211 12.7002-16.9043Q13.7402-17.1875 14.8047-17.085Q15.8691-16.9824 16.8701-16.5137Q17.8711-16.0449 18.7012-15.2051L21.1328-12.793Q21.3086-12.6172 21.3525-12.4512Q21.3965-12.2852 21.3379-12.0312L21.0156-10.5469L22.5195-9.0625L23.5059-9.12109Q23.6914-9.13086 23.7891-9.09668Q23.8867-9.0625 24.0332-8.91602L24.6094-8.33984L22.168-5.89844L21.5918-6.47461Q21.4453-6.62109 21.4062-6.71875Q21.3672-6.81641 21.377-7.01172L21.4453-7.98828L19.9512-9.47266L18.4277-9.21875Q18.1836-9.16992 18.042-9.2041Q17.9004-9.23828 17.7148-9.41406L15.7129-11.416Q15.5176-11.5918 15.4932-11.7529Q15.4688-11.9141 15.5859-12.1875L16.4648-14.2773Q15.293-15.3711 13.8281-15.791Q12.3633-16.2109 10.8398-15.7617Q10.7227-15.7324 10.6885-15.8057Q10.6543-15.8789 10.752-15.957Z"/>
  </g>
  <text style="stroke:none;fill:black;font-family:sans-serif;font-size:13;font-weight:bold;" transform="matrix(1 0 0 1 1289 1953)">Exporting</text>
  <text style="stroke:none;fill:black;font-family:sans-serif;font-size:13;" transform="matrix(1 0 0 1 1289 1971)">Symbols should be outlined when exporting to ensure the</text>
  <text style="stroke:none;fill:black;font-family:sans-serif;font-size:13;" transform="matrix(1 0 0 1 1289 1989)">design is preserved when submitting to Xcode.</text>
  <text id="template-version" style="stroke:none;fill:black;font-family:sans-serif;font-size:13;text-anchor:end;" transform="matrix(1 0 0 1 3036 1933)">Template v.2.0</text>
  <text style="stroke:none;fill:black;font-family:sans-serif;font-size:13;text-anchor:end;" transform="matrix(1 0 0 1 3036 1951)">Requires Xcode 12 or greater</text>
  <text id="descriptive-name" style="stroke:none;fill:black;font-family:sans-serif;font-size:13;text-anchor:end;" transform="matrix(1 0 0 1 3036 1969)">Generated from map</text>
  <text style="stroke:none;fill:black;font-family:sans-serif;font-size:13;text-anchor:end;" transform="matrix(1 0 0 1 3036 1987)">Typeset at 100 points</text>
  <text style="stroke:none;fill:black;font-family:sans-serif;font-size:13;" transform="matrix(1 0 0 1 263 726)">Small</text>
  <text style="stroke:none;fill:black;font-family:sans-serif;font-size:13;" transform="matrix(1 0 0 1 263 1156)">Medium</text>
  <text style="stroke:none;fill:black;font-family:sans-serif;font-size:13;" transform="matrix(1 0 0 1 263 1586)">Large</text>
 </g>
 <g id="Guides">
  <g id="H-reference" style="fill:#27AAE1;stroke:none;" transform="matrix(1 0 0 1 339 696)">
   <path d="M0.976562 0L3.66211 0L29.3457-67.1387L30.0293-67.1387L30.0293-70.459L28.125-70.459ZM11.6699-24.4629L46.9727-24.4629L46.2402-26.709L12.4512-26.709ZM55.127 0L57.7637 0L30.6152-70.459L29.4434-70.459L29.4434-67.1387Z"/>
  </g>
  <line id="Baseline-S" style="fill:none;stroke:#27AAE1;opacity:1;stroke-width:0.5;" x1="263" x2="3036" y1="696" y2="696"/>
  <line id="Capline-S" style="fill:none;stroke:#27AAE1;opacity:1;stroke-width:0.5;" x1="263" x2="3036" y1="625.541" y2="625.541"/>
  <g id="H-reference" style="fill:#27AAE1;stroke:none;" transform="matrix(1 0 0 1 339 1126)">
   <path d="M0.976562 0L3.66211 0L29.3457-67.1387L30.0293-67.1387L30.0293-70.459L28.125-70.459ZM11.6699-24.4629L46.9727-24.4629L46.2402-26.709L12.4512-26.709ZM55.127 0L57.7637 0L30.6152-70.459L29.4434-70.459L29.4434-67.1387Z"/>
  </g>
  <line id="Baseline-M" style="fill:none;stroke:#27AAE1;opacity:1;stroke-width:0.5;" x1="263" x2="3036" y1="1126" y2="1126"/>
  <line id="Capline-M" style="fill:none;stroke:#27AAE1;opacity:1;stroke-width:0.5;" x1="263" x2="3036" y1="1055.54" y2="1055.54"/>
  <g id="H-reference" style="fill:#27AAE1;stroke:none;" transform="matrix(1 0 0 1 339 1556)">
   <path d="M0.976562 0L3.66211 0L29.3457-67.1387L30.0293-67.1387L30.0293-70.459L28.125-70.459ZM11.6699-24.4629L46.9727-24.4629L46.2402-26.709L12.4512-26.709ZM55.127 0L57.7637 0L30.6152-70.459L29.4434-70.459L29.4434-67.1387Z"/>
  </g>
  <line id="Baseline-L" style="fill:none;stroke:#27AAE1;opacity:1;stroke-width:0.5;" x1="263" x2="3036" y1="1556" y2="1556"/>
  <line id="Capline-L" style="fill:none;stroke:#27AAE1;opacity:1;stroke-width:0.5;" x1="263" x2="3036" y1="1485.54" y2="1485.54"/>
  <line id="left-margin" style="fill:none;stroke:#00AEEF;stroke-width:0.5;opacity:1.0;" x1="1386.61" x2="1386.61" y1="1030.79" y2="1150.12"/>
  <line id="right-margin" style="fill:none;stroke:#00AEEF;stroke-width:0.5;opacity:1.0;" x1="1513.08" x2="1513.08" y1="1030.79" y2="1150.12"/>
 </g>
 <g id="Symbols">
  <g id="Black-L" transform="matrix(1 0 0 1 2848.97 1556)">
   <path d="M28.964 30.1063Q31.6435 30.1063 33.9653 29.1987Q36.2872 28.2911 39.2468 26.6536L65.6196 12.2681L94.9551 28.4926Q100.411 31.5311 106.197 31.5311Q112.017 31.5311 117.541 28.46L143.9 13.7704Q148.628 11.1573 150.707 7.49734Q152.785 3.83733 152.785-1.15768L152.785-84.9468Q152.785-90.5114 149.26-93.951Q145.736-97.3906 139.885-97.3906Q137.205-97.3906 134.912-96.337Q132.619-95.2833 129.601-93.6471L102.638-78.6589L72.9915-95.6055Q67.6017-98.5818 61.6166-98.5818Q56.0586-98.5818 51.4658-95.9559L24.9701-81.2105Q20.2409-78.5974 18.1624-75.1412Q16.084-71.685 16.084-66.7107L16.084 17.8948Q16.084 23.4595 19.6378 26.7829Q23.1917 30.1063 28.964 30.1063ZM55.1063-2.89587L36.9446 7.09458Q35.895 7.6486 35.1242 7.6486Q33.1441 7.6486 33.1441 5.06119L33.1441-61.0274Q33.1441-63.0293 33.8109-64.0593Q34.4778-65.0893 36.1683-66.0247L53.6774-75.8351Q54.0639-76.0594 54.3919-76.2629Q54.7199-76.4665 55.1063-76.6675ZM72.8894-4.68503L72.8894-74.4995Q73.3719-74.2608 73.8654-73.9703Q74.359-73.6797 74.8402-73.4177L95.9809-61.3295L95.9809 8.10808Q95.4946 7.80721 94.9486 7.53422Q94.4026 7.26123 93.9176 6.97851ZM113.742 8.40461L113.742-64.0288L131.866-73.97Q132.683-74.4072 133.336-74.4072Q134.383-74.4072 135.044-73.6968Q135.704-72.9864 135.704-71.9963L135.704-7.28883Q135.704-5.34526 135.018-4.28606Q134.333-3.22687 132.702-2.29148L116.721 6.70793Q116.001 7.12818 115.242 7.56727Q114.483 8.00637 113.742 8.40461Z"/>
  </g>
  <g id="Heavy-L" transform="matrix(1 0 0 1 2553.06 1556)">
   <path d="M27.5278 28.6972Q29.8433 28.6972 31.9044 27.907Q33.9656 27.1168 36.5697 25.6822L64.2999 10.5772L94.9051 27.6035Q99.8678 30.3754 105.128 30.3754Q110.358 30.3754 115.261 27.6393L143.157 11.9982Q147.404 9.64366 149.288 6.33103Q151.172 3.0184 151.172-1.52417L151.172-85.5519Q151.172-90.5942 148.056-93.6555Q144.94-96.7168 139.705-96.7168Q137.383-96.7168 135.345-95.815Q133.306-94.9132 130.657-93.4847L102.192-77.6571L71.4921-95.5339Q66.6899-98.2165 61.3075-98.2165Q56.2285-98.2165 52.0212-95.8016L24.1056-80.1279Q19.8522-77.7734 17.9681-74.6139Q16.084-71.4545 16.084-66.9417L16.084 17.7048Q16.084 22.7471 19.2225 25.7222Q22.3609 28.6972 27.5278 28.6972ZM55.3641-3.20167L34.6882 8.17842Q33.7445 8.67255 33.0836 8.67255Q31.3507 8.67255 31.3507 6.45163L31.3507-62.0439Q31.3507-63.8391 31.9759-64.8323Q32.6012-65.8254 34.1496-66.6919L53.7612-77.8343Q54.1842-78.0905 54.5626-78.3169Q54.941-78.5433 55.3641-78.7576ZM71.2021-4.34959L71.2021-76.8176Q71.6846-76.5884 72.185-76.2981Q72.6854-76.0078 73.1619-75.7368L96.0604-62.3821L96.0604 9.50559Q95.5332 9.18711 94.9554 8.89819Q94.3776 8.60927 93.8564 8.30849ZM111.863 9.97898L111.863-64.5748L132.524-75.8857Q133.295-76.2905 133.861-76.2905Q134.766-76.2905 135.321-75.6833Q135.876-75.076 135.876-74.2095L135.876-6.7552Q135.876-5.0046 135.243-3.98913Q134.611-2.97366 133.113-2.10719L114.789 8.32076Q114.084 8.74055 113.341 9.16777Q112.598 9.59499 111.863 9.97898Z"/>
  </g>
  <g id="Bold-L" transform="matrix(1 0 0 1 2257.51 1556)">
   <path d="M25.786 26.9771Q27.674 26.9771 29.4234 26.3225Q31.1728 25.6679 33.3476 24.4747L62.6337 8.51299L94.6016 26.4794Q98.99 28.9501 103.609 28.9501Q108.138 28.9501 112.348 26.5832L141.917 9.86889Q145.578 7.82663 147.219 4.9544Q148.859 2.08217 148.859-1.914L148.859-86.2029Q148.859-90.6034 146.235-93.2127Q143.61-95.8221 139.135-95.8221Q137.232-95.8221 135.497-95.0945Q133.763-94.3669 131.559-93.188L101.431-76.4472L69.6164-95.3186Q65.4598-97.6783 60.7659-97.6783Q56.2459-97.6783 52.4612-95.4938L23.0407-78.7788Q19.3655-76.7365 17.7247-73.9594Q16.084-71.1822 16.084-67.2231L16.084 17.4605Q16.084 21.861 18.7233 24.419Q21.3625 26.9771 25.786 26.9771ZM55.5747-3.41999L31.8993 9.63836Q31.08 10.0626 30.5332 10.0626Q29.0596 10.0626 29.0596 8.23153L29.0596-63.2875Q29.0596-64.8514 29.634-65.802Q30.2084-66.7525 31.6035-67.5419L53.7887-80.3384Q54.2498-80.6244 54.6817-80.8735Q55.1136-81.1225 55.5747-81.3431ZM68.9519-3.888L68.9519-79.713Q69.4344-79.5002 69.9426-79.2145Q70.4507-78.9287 70.919-78.6505L96.0055-63.738L96.0055 11.3394Q95.4413 11.0157 94.8335 10.7118Q94.2258 10.4079 93.6758 10.0927ZM109.332 11.9675L109.332-65.3409L133.015-78.2789Q133.731-78.6448 134.206-78.6448Q134.957-78.6448 135.402-78.1486Q135.847-77.6524 135.847-76.9155L135.847-6.06039Q135.847-4.52567 135.276-3.56055Q134.706-2.59544 133.354-1.80606L112.159 10.384Q111.478 10.7946 110.764 11.2014Q110.05 11.6081 109.332 11.9675Z"/>
  </g>
  <g id="Semibold-L" transform="matrix(1 0 0 1 1961.59 1556)">
   <path d="M24.5852 25.7912Q26.1785 25.7912 27.713 25.2301Q29.2475 24.669 31.1263 23.6423L61.4851 7.08994L94.3924 25.7044Q98.3848 27.9675 102.562 27.9675Q106.608 27.9675 110.339 25.855L141.062 8.40099Q144.319 6.57398 145.792 4.00535Q147.265 1.43673 147.265-2.18274L147.265-86.6517Q147.265-90.6097 144.979-92.9075Q142.693-95.2052 138.741-95.2052Q137.128-95.2052 135.603-94.5977Q134.078-93.9902 132.18-92.9834L100.906-75.6131L68.3232-95.1701Q64.6118-97.3073 60.3926-97.3073Q56.2579-97.3073 52.7645-95.2815L22.3066-77.8487Q19.03-76.0216 17.557-73.5081Q16.084-70.9945 16.084-67.417L16.084 17.2921Q16.084 21.2501 18.3791 23.5206Q20.6743 25.7912 24.5852 25.7912ZM55.7199-3.5705L29.9767 10.6448Q29.243 11.0209 28.775 11.0209Q27.4801 11.0209 27.4801 9.45858L27.4801-64.1449Q27.4801-65.5493 28.0195-66.4705Q28.5588-67.3916 29.8483-68.1278L53.8076-82.0647Q54.295-82.3714 54.7637-82.636Q55.2325-82.9007 55.7199-83.1256ZM67.4007-3.56978L67.4007-81.709Q67.8832-81.5075 68.3967-81.225Q68.9101-80.9424 69.3727-80.6591L95.9677-64.6727L95.9677 12.6037Q95.3778 12.2762 94.7495 11.9621Q94.1212 11.6479 93.5512 11.3227ZM107.587 13.3384L107.587-65.869L133.353-79.9289Q134.032-80.2678 134.444-80.2678Q135.09-80.2678 135.458-79.8482Q135.826-79.4285 135.826-78.7811L135.826-5.5814Q135.826-4.1955 135.299-3.26509Q134.771-2.33469 133.52-1.59846L110.346 11.8063Q109.682 12.2107 108.987 12.6033Q108.293 12.9959 107.587 13.3384Z"/>
  </g>
  <g id="Medium-L" transform="matrix(1 0 0 1 1665.49 1556)">
   <path d="M23.6746 24.892Q25.0446 24.892 26.4161 24.4018Q27.7876 23.9116 29.4421 23.0111L60.6141 6.01092L94.2337 25.1168Q97.9259 27.2225 101.768 27.2225Q105.448 27.2225 108.817 25.3029L140.414 7.28796Q143.364 5.62416 144.71 3.28575Q146.055 0.947336 146.055-2.38651L146.055-86.992Q146.055-90.6145 144.026-92.676Q141.997-94.7375 138.443-94.7375Q137.049-94.7375 135.683-94.221Q134.316-93.7046 132.652-92.8282L100.509-74.9806L67.3427-95.0575Q63.9688-97.026 60.1095-97.026Q56.267-97.026 52.9945-95.1206L21.75-77.1434Q18.7756-75.4796 17.4298-73.1659Q16.084-70.8522 16.084-67.5641L16.084 17.1644Q16.084 20.7869 18.1182 22.8395Q20.1524 24.892 23.6746 24.892ZM55.8299-3.68462L28.5188 11.408Q27.8502 11.7476 27.4419 11.7476Q26.2825 11.7476 26.2825 10.389L26.2825-64.795Q26.2825-66.0785 26.7952-66.9774Q27.308-67.8762 28.5174-68.5721L53.822-83.3737Q54.3292-83.6959 54.826-83.9724Q55.3227-84.2489 55.8299-84.4771ZM66.2245-3.32849L66.2245-83.2225Q66.707-83.0296 67.2245-82.7494Q67.7419-82.4692 68.2003-82.1822L95.939-65.3815L95.939 13.5623Q95.3298 13.2321 94.6858 12.9101Q94.0419 12.5881 93.4568 12.2554ZM106.264 14.3779L106.264-66.2695L133.61-81.1799Q134.261-81.4985 134.624-81.4985Q135.19-81.4985 135.501-81.1369Q135.811-80.7753 135.811-80.1956L135.811-5.21821Q135.811-3.94514 135.316-3.04106Q134.821-2.13698 133.646-1.44106L108.971 12.8848Q108.32 13.2844 107.64 13.6663Q106.961 14.0482 106.264 14.3779Z"/>
  </g>
  <g id="Regular-L" transform="matrix(1 0 0 1 1369.56 1556)">
   <path d="M22.487 23.7191Q23.5656 23.7191 24.7245 23.3214Q25.8835 22.9237 27.2452 22.1878L59.4781 4.6035L94.0268 24.3504Q97.3274 26.2507 100.733 26.2507Q103.935 26.2507 106.83 24.5828L139.568 5.83619Q142.118 4.38528 143.298 2.34714Q144.478 0.308993 144.478-2.6523L144.478-87.4358Q144.478-90.6208 142.784-92.3741Q141.09-94.1275 138.054-94.1275Q136.946-94.1275 135.787-93.7298Q134.628-93.332 133.266-92.6259L99.99-74.1557L66.0637-94.9107Q63.1301-96.659 59.7403-96.659Q56.2789-96.659 53.2945-94.9107L21.0239-76.2235Q18.4438-74.7726 17.2639-72.7196Q16.084-70.6666 16.084-67.756L16.084 16.9978Q16.084 20.1828 17.7778 21.951Q19.4717 23.7191 22.487 23.7191ZM55.9735-3.83347L26.6173 12.4034Q26.0334 12.6953 25.703 12.6953Q24.7203 12.6953 24.7203 11.6025L24.7203-65.6429Q24.7203-66.7688 25.1985-67.6385Q25.6766-68.5083 26.7815-69.1516L53.8407-85.081Q54.3739-85.4237 54.9071-85.7156Q55.4403-86.0075 55.9735-86.24ZM64.6903-3.01377L64.6903-85.1966Q65.1728-85.0149 65.6955-84.7378Q66.2183-84.4607 66.6711-84.1688L95.9016-66.3059L95.9016 14.8126Q95.267 14.4788 94.6027 14.1467Q93.9384 13.8145 93.3336 13.4719ZM104.538 15.7337L104.538-66.7918L133.945-82.8117Q134.558-83.1036 134.859-83.1036Q135.321-83.1036 135.556-82.8178Q135.791-82.5319 135.791-82.0406L135.791-4.74448Q135.791-3.6186 135.338-2.74885Q134.886-1.8791 133.81-1.23574L107.178 14.2916Q106.543 14.6849 105.883 15.0529Q105.223 15.4208 104.538 15.7337Z"/>
  </g>
  <g id="Light-L" transform="matrix(1 0 0 1 1074.67 1556)">
   <path d="M21.5225 22.6931Q22.4574 22.6931 23.4727 22.3261Q24.488 21.9592 25.6239 21.3259L58.1236 3.37218L92.2619 23.4269Q95.3983 25.3067 98.4342 25.3067Q101.349 25.3067 104.245 23.5978L136.654 4.78957Q138.855 3.50283 139.851 1.83409Q140.846 0.165339 140.846-2.50865L140.846-87.2511Q140.846-90.0257 139.398-91.5738Q137.951-93.1219 135.427-93.1219Q134.442-93.1219 133.427-92.755Q132.412-92.388 131.276-91.805L98.1225-73.5195L64.6477-93.9462Q61.632-95.7355 58.3448-95.7355Q55.0476-95.7355 52.0017-93.9462L20.3262-75.2385Q18.0744-73.9518 17.0792-72.2579Q16.084-70.564 16.084-67.9202L16.084 16.7721Q16.084 19.5466 17.5316 21.1198Q18.9791 22.6931 21.5225 22.6931ZM55.4194-2.95103L24.7293 14.1683Q24.1865 14.4397 23.7944 14.4397Q22.6887 14.4397 22.6887 13.2033L22.6887-66.4022Q22.6887-67.5281 23.136-68.3876Q23.5833-69.2471 24.7293-69.8904L53.3687-86.9896Q53.8814-87.2912 54.3941-87.5626Q54.9068-87.834 55.4194-88.0049ZM62.1045-2.39812L62.1045-87.3515Q62.587-87.2107 63.1098-86.9644Q63.6325-86.7181 64.0648-86.4467L94.8755-67.5783L94.8755 16.7417Q94.3025 16.5105 93.6792 16.1989Q93.056 15.8872 92.5332 15.5857ZM101.48 17.3549L101.48-67.9L132.2-84.5971Q132.794-84.8685 133.135-84.8685Q133.638-84.8685 133.924-84.5519Q134.211-84.2352 134.211-83.6823L134.211-4.04673Q134.211-2.92085 133.779-2.06136Q133.346-1.20188 132.251-0.558516L103.832 16.1386Q103.259 16.4703 102.671 16.787Q102.083 17.1036 101.48 17.3549Z"/>
  </g>
  <g id="Thin-L" transform="matrix(1 0 0 1 780.359 1556)">
   <path d="M20.2468 21.336Q20.9917 21.336 21.817 21.0097Q22.6423 20.6835 23.4797 20.1859L56.3323 1.74367L89.9277 22.2055Q92.847 24.0582 95.3943 24.0582Q97.9296 24.0582 100.825 22.295L132.8 3.40533Q134.54 2.33573 135.291 1.15554Q136.042-0.0246545 136.042-2.31866L136.042-87.0069Q136.042-89.2386 134.92-90.5152Q133.798-91.7919 131.953-91.7919Q131.131-91.7919 130.306-91.4657Q129.48-91.1395 128.643-90.7193L95.6526-72.6781L62.7749-92.6705Q59.6506-94.5141 56.4991-94.5141Q53.419-94.5141 50.2917-92.6705L19.4034-73.9357Q17.5859-72.8661 16.8349-71.6472Q16.084-70.4283 16.084-68.1373L16.084 16.4735Q16.084 18.7052 17.2059 20.0206Q18.3277 21.336 20.2468 21.336ZM54.6866-1.78392L22.2322 16.5025Q21.7437 16.7468 21.2702 16.7468Q20.0016 16.7468 20.0016 15.3203L20.0016-67.4064Q20.0016-68.5323 20.4082-69.3782Q20.8149-70.2242 22.0151-70.8675L52.7444-89.5138Q53.23-89.7611 53.7155-90.0054Q54.2011-90.2496 54.6866-90.3391ZM58.6846-1.58386L58.6846-90.2014Q59.1672-90.1149 59.6899-89.9093Q60.2126-89.7038 60.6177-89.4595L93.5184-69.2611L93.5184 19.293Q93.0268 19.1975 92.4579 18.9131Q91.8889 18.6286 91.4747 18.3813ZM97.436 19.4991L97.436-69.3656L129.893-86.9585Q130.459-87.2027 130.855-87.2027Q131.412-87.2027 131.767-86.8454Q132.121-86.488 132.121-85.8537L132.121-3.12391Q132.121-1.99803 131.716-1.15211Q131.311-0.306191 130.188 0.337169L99.4083 18.5813Q98.9168 18.8317 98.4237 19.0805Q97.9306 19.3293 97.436 19.4991Z"/>
  </g>
  <g id="Ultralight-L" transform="matrix(1 0 0 1 484.879 1556)">
   <path d="M19.5934 20.6409Q20.241 20.6409 20.969 20.3355Q21.697 20.0301 22.3815 19.6021L55.4147 0.909548L88.7321 21.5799Q91.5402 23.4187 93.8373 23.4187Q96.1779 23.4187 99.073 21.6277L130.826 2.69633Q132.329 1.73795 132.955 0.807988Q133.581-0.121968 133.581-2.22134L133.581-86.8818Q133.581-88.8354 132.626-89.9731Q131.671-91.1107 130.174-91.1107Q129.435-91.1107 128.707-90.8054Q127.979-90.5 127.294-90.1632L94.3875-72.2471L61.8157-92.0171Q58.6357-93.8885 55.5538-93.8885Q52.5849-93.8885 49.4159-92.0171L18.9307-73.2684Q17.3356-72.31 16.7098-71.3344Q16.084-70.3588 16.084-68.2485L16.084 16.3206Q16.084 18.2742 17.039 19.4575Q17.9941 20.6409 19.5934 20.6409ZM54.3112-1.18614L20.9533 17.6981Q20.4925 17.9284 19.9773 17.9284Q18.6253 17.9284 18.6253 16.4047L18.6253-67.9208Q18.6253-69.0467 19.0111-69.8857Q19.3969-70.7246 20.6249-71.368L52.4247-90.8067Q52.8963-91.0262 53.368-91.2565Q53.8396-91.4869 54.3112-91.5347ZM56.933-1.1668L56.933-91.6611Q57.4155-91.6024 57.9382-91.4177Q58.461-91.233 58.8522-91.0026L92.8233-70.123L92.8233 20.5998Q92.3734 20.5738 91.8323 20.3033Q91.2911 20.0327 90.9325 19.8132ZM95.3646 20.5974L95.3646-70.1164L128.712-88.1679Q129.264-88.3983 129.688-88.3983Q130.272-88.3983 130.661-88.0201Q131.051-87.6419 131.051-86.9659L131.051-2.65124Q131.051-1.52536 130.659-0.686393Q130.268 0.152574 129.131 0.795934L97.1423 19.8325Q96.6925 20.0411 96.248 20.2552Q95.8036 20.4692 95.3646 20.5974Z"/>
  </g>
  <g id="Black-M" transform="matrix(1 0 0 1 2867.54 1126)">
   <path d="M23.5433 16.4609Q25.9126 16.4609 27.916 15.661Q29.9194 14.8611 32.4873 13.432L51.7889 2.85527L73.3696 14.7777Q77.9976 17.3582 82.8831 17.3582Q87.8607 17.3582 92.6731 14.6853L111.729 4.11406Q115.758 1.88968 117.51-1.19438Q119.263-4.27844 119.263-8.49819L119.263-73.2025Q119.263-77.9069 116.214-80.869Q113.166-83.8312 108.174-83.8312Q105.805-83.8312 103.831-82.8885Q101.856-81.9459 99.2308-80.5164L79.6479-69.6509L57.6463-81.9361Q52.9546-84.5001 47.8136-84.5001Q43.1181-84.5001 39.2202-82.2787L19.9937-71.6498Q15.9655-69.4254 14.2132-66.5414Q12.4609-63.6573 12.4609-59.443L12.4609 6.06093Q12.4609 10.7653 15.5379 13.6131Q18.6148 16.4609 23.5433 16.4609ZM42.3966-9.79691L30.3059-3.13161Q29.4072-2.6537 28.7073-2.6537Q26.9442-2.6537 26.9442-4.99272L26.9442-54.4454Q26.9442-56.1741 27.4924-57.0024Q28.0406-57.8306 29.478-58.6145L41.4502-65.2287Q41.7154-65.3695 41.9234-65.5049Q42.1315-65.6402 42.3966-65.7761ZM57.5703-11.7703L57.5703-63.9533Q57.9441-63.7658 58.3205-63.5446Q58.6969-63.3235 59.0711-63.1311L74.153-54.7181L74.153-2.59375Q73.8197-2.79781 73.4296-2.99284Q73.0396-3.18787 72.706-3.38581ZM89.3214-2.55774L89.3214-57.2225L101.361-63.839Q102.031-64.2027 102.617-64.2027Q103.555-64.2027 104.165-63.5595Q104.774-62.9162 104.774-62.0347L104.774-13.9468Q104.774-12.2752 104.2-11.4184Q103.626-10.5616 102.245-9.77765L91.6361-3.87469Q91.0745-3.55705 90.4815-3.21361Q89.8886-2.87017 89.3214-2.55774Z"/>
  </g>
  <g id="Heavy-M" transform="matrix(1 0 0 1 2571.45 1126)">
   <path d="M22.2283 15.1781Q24.255 15.1781 26.0168 14.4901Q27.7786 13.8021 30.0198 12.5619L50.6238 1.31589L73.4835 13.9937Q77.6449 16.3154 82.0497 16.3154Q86.4768 16.3154 90.6827 13.9739L111.272 2.47815Q114.863 0.491362 116.442-2.28719Q118.021-5.06574 118.021-8.86971L118.021-73.8111Q118.021-78.0428 115.35-80.654Q112.678-83.2652 108.24-83.2652Q106.211-83.2652 104.471-82.4682Q102.731-81.6712 100.446-80.4334L79.3842-68.7302L56.3112-81.9552Q52.2014-84.2281 47.6401-84.2281Q43.3978-84.2281 39.8824-82.2169L19.2131-70.6824Q15.6196-68.6956 14.0403-66.0685Q12.4609-63.4414 12.4609-59.6537L12.4609 5.89594Q12.4609 10.1276 15.1545 12.6529Q17.8481 15.1781 22.2283 15.1781ZM42.6997-10.1773L28.2743-2.23491Q27.4754-1.81365 26.8886-1.81365Q25.3784-1.81365 25.3784-3.78114L25.3784-55.3691Q25.3784-56.8957 25.8888-57.6889Q26.3992-58.4821 27.6939-59.1986L41.5756-67.007Q41.8785-67.1828 42.1377-67.3423Q42.3969-67.5019 42.6997-67.6565ZM56.1593-11.4992L56.1593-66.0206Q56.5332-65.8386 56.9163-65.6149Q57.2995-65.3911 57.6709-65.188L74.3254-55.6296L74.3254-1.40555Q73.9465-1.63629 73.5215-1.84879Q73.0965-2.06128 72.7201-2.28067ZM87.7664-1.16824L87.7664-57.654L102.164-65.5469Q102.791-65.8809 103.288-65.8809Q104.085-65.8809 104.586-65.3414Q105.088-64.8018 105.088-64.0468L105.088-13.4895Q105.088-12.0065 104.564-11.1915Q104.04-10.3765 102.791-9.65998L90.0561-2.46842Q89.5027-2.14555 88.9194-1.80899Q88.336-1.47243 87.7664-1.16824Z"/>
  </g>
  <g id="Bold-M" transform="matrix(1 0 0 1 2275.43 1126)">
   <path d="M20.7573 13.7431Q22.4007 13.7431 23.8922 13.1803Q25.3838 12.6175 27.2596 11.5886L49.3204-0.40613L73.6109 13.1167Q77.2502 15.149 81.1174 15.149Q84.9286 15.149 88.4562 13.1781L110.76 0.648144Q113.861-1.07286 115.247-3.50966Q116.633-5.94646 116.633-9.28532L116.633-74.4919Q116.633-78.1948 114.382-80.4135Q112.132-82.6322 108.314-82.6322Q106.665-82.6322 105.188-81.998Q103.71-81.3639 101.806-80.3405L79.0893-67.7003L54.8178-81.9764Q51.3589-83.9239 47.4461-83.9239Q43.7107-83.9239 40.6232-82.1477L18.3397-69.6002Q15.2326-67.8792 13.8468-65.5396Q12.4609-63.1999 12.4609-59.8893L12.4609 5.71138Q12.4609 9.41428 14.7257 11.5787Q16.9905 13.7431 20.7573 13.7431ZM43.0387-10.6027L26.0017-1.23182Q25.3145-0.873925 24.854-0.873925Q23.6269-0.873925 23.6269-2.42582L23.6269-56.4024Q23.6269-57.7029 24.095-58.4568Q24.5631-59.2108 25.6981-59.852L41.7159-68.9963Q42.0609-69.2112 42.3773-69.3978Q42.6937-69.5844 43.0387-69.7599ZM54.581-11.1959L54.581-68.3333Q54.9548-68.1574 55.3456-67.9307Q55.7363-67.7041 56.1046-67.4889L74.5183-56.6494L74.5183-0.0763891Q74.0884-0.33697 73.6243-0.568999Q73.1602-0.801027 72.7358-1.04441ZM86.0269 0.386116L86.0269-58.1366L103.064-67.4575Q103.642-67.7583 104.04-67.7583Q104.677-67.7583 105.058-67.3347Q105.439-66.9111 105.439-66.2976L105.439-12.9779Q105.439-11.706 104.97-10.9378Q104.502-10.1695 103.401-9.52834L88.2886-0.895313Q87.7445-0.566595 87.1719-0.23772Q86.5993 0.0911544 86.0269 0.386116Z"/>
  </g>
  <g id="Semibold-M" transform="matrix(1 0 0 1 1979.2 1126)">
   <path d="M19.7432 12.7538Q21.1223 12.7538 22.4276 12.2773Q23.7329 11.8008 25.3567 10.9176L48.4219-1.59328L73.6988 12.5122Q76.9782 14.3448 80.4746 14.3448Q83.8613 14.3448 86.9213 12.6295L110.407-0.613449Q113.171-2.15123 114.423-4.35242Q115.676-6.55361 115.676-9.57183L115.676-74.9612Q115.676-78.2995 113.716-80.2477Q111.756-82.1958 108.365-82.1958Q106.978-82.1958 105.682-81.6739Q104.385-81.1521 102.743-80.2765L78.8859-66.9903L53.7882-81.9911Q50.7781-83.7142 47.3123-83.7142Q43.9264-83.7142 41.1339-82.1L17.7377-68.8542Q14.9658-67.3164 13.7134-65.1749Q12.4609-63.0335 12.4609-60.0518L12.4609 5.58414Q12.4609 8.9225 14.4301 10.8381Q16.3992 12.7538 19.7432 12.7538ZM43.2724-10.896L24.4349-0.54029Q23.8247-0.226085 23.4514-0.226085Q22.4194-0.226085 22.4194-1.49146L22.4194-57.1147Q22.4194-58.2593 22.8583-58.9862Q23.2972-59.7132 24.3222-60.3024L41.8126-70.3678Q42.1867-70.6095 42.5425-70.8148Q42.8984-71.0201 43.2724-71.2101ZM53.4929-10.9868L53.4929-69.9276Q53.8668-69.7559 54.2627-69.5273Q54.6586-69.2986 55.0248-69.0752L74.6513-57.3524L74.6513 0.839929Q74.1861 0.558775 73.6952 0.313279Q73.2042 0.0677837 72.7466-0.192145ZM84.8277 1.45768L84.8277-58.4693L103.684-68.7746Q104.229-69.0525 104.558-69.0525Q105.085-69.0525 105.383-68.7089Q105.681-68.3653 105.681-67.8493L105.681-12.6253Q105.681-11.4988 105.251-10.7628Q104.821-10.0268 103.822-9.43759L87.0702 0.18918Q86.5323 0.52193 85.9672 0.845504Q85.402 1.16908 84.8277 1.45768Z"/>
  </g>
  <g id="Medium-M" transform="matrix(1 0 0 1 1682.85 1126)">
   <path d="M18.9742 12.0036Q20.153 12.0036 21.317 11.5926Q22.4811 11.1816 23.9138 10.4089L47.7406-2.49343L73.7654 12.0537Q76.7719 13.7351 79.9873 13.7351Q83.052 13.7351 85.7575 12.2135L110.139-1.57004Q112.647-2.96889 113.799-4.99144Q114.95-7.01399 114.95-9.78907L114.95-75.317Q114.95-78.379 113.21-80.1219Q111.47-81.8649 108.403-81.8649Q107.215-81.8649 106.056-81.4282Q104.897-80.9914 103.454-80.228L78.7318-66.452L53.0075-82.0022Q50.3376-83.5552 47.2108-83.5552Q44.0899-83.5552 41.5212-82.0638L17.2812-68.2885Q14.7635-66.8896 13.6122-64.8984Q12.4609-62.9072 12.4609-60.1749L12.4609 5.48766Q12.4609 8.54961 14.2059 10.2766Q15.9509 12.0036 18.9742 12.0036ZM43.4496-11.1184L23.247-0.0159464Q22.6951 0.265133 22.3879 0.265133Q21.5039 0.265133 21.5039-0.783L21.5039-57.6548Q21.5039-58.6812 21.9207-59.3877Q22.3375-60.0941 23.279-60.6439L41.886-71.4076Q42.282-71.6698 42.6678-71.8893Q43.0536-72.1087 43.4496-72.3096ZM52.6679-10.8282L52.6679-71.1364Q53.0417-70.968 53.4416-70.7378Q53.8414-70.5076 54.206-70.2779L74.7522-57.8854L74.7522 1.53472Q74.2603 1.23797 73.7489 0.982259Q73.2375 0.726552 72.7548 0.45408ZM83.9184 2.27018L83.9184-58.7216L104.154-69.7733Q104.674-70.0339 104.951-70.0339Q105.394-70.0339 105.629-69.7509Q105.864-69.4679 105.864-69.0258L105.864-12.3579Q105.864-11.3417 105.464-10.6302Q105.063-9.9186 104.141-9.36878L86.1462 1.01149Q85.6132 1.34729 85.0537 1.66685Q84.4942 1.9864 83.9184 2.27018Z"/>
  </g>
  <g id="Regular-M" transform="matrix(1 0 0 1 1386.61 1126)">
   <path d="M17.9713 11.0252Q18.8887 11.0252 19.8685 10.6996Q20.8482 10.3739 22.0318 9.74528L46.852-3.66753L73.8522 11.4558Q76.5029 12.9397 79.3516 12.9397Q81.9965 12.9397 84.2394 11.671L109.79-2.81777Q111.964-4.03541 112.984-5.82494Q114.003-7.61448 114.003-10.0724L114.003-75.7812Q114.003-78.4826 112.551-79.9579Q111.098-81.4332 108.453-81.4332Q107.524-81.4332 106.545-81.1076Q105.565-80.7819 104.381-80.1646L78.5307-65.7498L51.9892-82.0167Q49.7632-83.3478 47.0785-83.3478Q44.3033-83.3478 42.0263-82.0167L16.6857-67.5506Q14.4997-66.333 13.4803-64.5378Q12.4609-62.7426 12.4609-60.3356L12.4609 5.36182Q12.4609 8.06324 13.9136 9.54423Q15.3662 11.0252 17.9713 11.0252ZM43.6808-11.4085L21.6974 0.66798Q21.2217 0.905854 21.0007 0.905854Q20.3096 0.905854 20.3096 0.141085L20.3096-58.3593Q20.3096-59.2316 20.6976-59.9113Q21.0856-60.591 21.9182-61.0894L41.9816-72.764Q42.4064-73.0528 42.8312-73.2907Q43.256-73.5286 43.6808-73.7438ZM51.5918-10.6215L51.5918-72.7132Q51.9656-72.549 52.3706-72.3168Q52.7756-72.0846 53.1381-71.8467L74.8837-58.5807L74.8837 2.44097Q74.357 2.12387 73.819 1.85484Q73.2809 1.58582 72.7655 1.29698ZM82.7324 3.32997L82.7324-59.0506L104.767-71.076Q105.254-71.3139 105.463-71.3139Q105.798-71.3139 105.951-71.1099Q106.104-70.906 106.104-70.5605L106.104-12.0091Q106.104-11.1368 105.741-10.4571Q105.379-9.77746 104.557-9.27902L84.9411 2.08406Q84.4144 2.42386 83.8623 2.73817Q83.3101 3.05248 82.7324 3.32997Z"/>
  </g>
  <g id="Light-M" transform="matrix(1 0 0 1 1091.53 1126)">
   <path d="M17.1065 10.1053Q17.8952 10.1053 18.7461 9.80721Q19.5971 9.50915 20.5783 8.97252L45.6377-4.77147L72.2699 10.6278Q74.7734 12.0934 77.2909 12.0934Q79.6782 12.0934 81.9212 10.7878L107.177-3.75612Q109.039-4.82656 109.893-6.28492Q110.747-7.74327 110.747-9.94365L110.747-75.6156Q110.747-77.949 109.515-79.2404Q108.283-80.5317 106.098-80.5317Q105.28-80.5317 104.429-80.2336Q103.578-79.9356 102.597-79.4287L76.8564-65.1794L50.7197-81.1519Q48.4201-82.5198 45.8274-82.5198Q43.1993-82.5198 40.8671-81.1519L16.0602-66.6675Q14.1685-65.597 13.3147-64.1238Q12.4609-62.6506 12.4609-60.4828L12.4609 5.15943Q12.4609 7.49287 13.6928 8.79907Q14.9246 10.1053 17.1065 10.1053ZM43.184-10.6174L20.0047 2.25029Q19.5658 2.46977 19.2896 2.46977Q18.4881 2.46977 18.4881 1.57621L18.4881-59.0401Q18.4881-59.9124 18.8485-60.5828Q19.2089-61.2533 20.0783-61.7518L41.5585-74.4751Q41.9648-74.7271 42.3712-74.9466Q42.7776-75.1661 43.184-75.3261ZM49.2735-10.0695L49.2735-74.6451Q49.6473-74.5177 50.0523-74.3131Q50.4573-74.1085 50.8014-73.889L73.9638-59.7214L73.9638 4.17048Q73.4923 3.94537 72.991 3.69474Q72.4897 3.44412 72.048 3.19208ZM79.991 4.78349L79.991-60.0442L103.203-72.6767Q103.671-72.8962 103.918-72.8962Q104.289-72.8962 104.488-72.6647Q104.687-72.4331 104.687-72.0324L104.687-11.3835Q104.687-10.5113 104.343-9.84077Q103.999-9.17029 103.159-8.67186L81.9421 3.73997Q81.4706 4.02457 80.9828 4.29289Q80.495 4.5612 79.991 4.78349Z"/>
  </g>
  <g id="Thin-M" transform="matrix(1 0 0 1 796.972 1126)">
   <path d="M15.9628 8.88856Q16.5811 8.88856 17.2618 8.627Q17.9424 8.36544 18.6559 7.95048L44.0316-6.23152L70.1772 9.53278Q72.486 10.974 74.5655 10.974Q76.6121 10.974 78.8551 9.61976L103.722-4.99716Q105.17-5.87293 105.805-6.89327Q106.439-7.91361 106.439-9.77331L106.439-75.3966Q106.439-77.2433 105.5-78.2913Q104.56-79.3393 102.983-79.3393Q102.311-79.3393 101.63-79.0778Q100.95-78.8162 100.236-78.4553L74.6419-64.425L49.0407-80.0082Q46.6437-81.4248 44.1727-81.4248Q41.7393-81.4248 39.3341-80.0082L15.2328-65.4994Q13.7305-64.6237 13.0957-63.5763Q12.4609-62.5289 12.4609-60.6775L12.4609 4.89176Q12.4609 6.73851 13.4008 7.81353Q14.3406 8.88856 15.9628 8.88856ZM42.527-9.57101L17.766 4.34303Q17.3757 4.53817 17.0266 4.53817Q16.079 4.53817 16.079 3.47427L16.079-59.9405Q16.079-60.8127 16.4029-61.471Q16.7268-62.1293 17.6449-62.6278L40.9988-76.7382Q41.3808-76.9416 41.7629-77.1367Q42.1449-77.3318 42.527-77.4188ZM46.2074-9.33946L46.2074-77.2002Q46.5812-77.1215 46.9862-76.9534Q47.3912-76.7853 47.7109-76.5901L72.7471-61.2301L72.7471 6.45789Q72.3485 6.35445 71.896 6.12816Q71.4434 5.90187 71.0989 5.6985ZM76.3652 6.70589L76.3652-61.3582L101.134-74.7938Q101.579-74.9889 101.874-74.9889Q102.293-74.9889 102.553-74.7209Q102.813-74.4529 102.813-73.9791L102.813-10.5562Q102.813-9.68389 102.493-9.02558Q102.174-8.36727 101.31-7.86883L77.9756 5.93005Q77.5771 6.14164 77.1745 6.34912Q76.7719 6.5566 76.3652 6.70589Z"/>
  </g>
  <g id="Ultralight-M" transform="matrix(1 0 0 1 501.364 1126)">
   <path d="M15.377 8.26537Q15.9081 8.26537 16.5015 8.0225Q17.0949 7.77964 17.6713 7.427L43.209-6.97935L69.1053 8.97191Q71.3144 10.4007 73.1695 10.4007Q75.0416 10.4007 77.2846 9.0215L101.952-5.63282Q103.188-6.40888 103.711-7.20487Q104.233-8.00085 104.233-9.68606L104.233-75.2844Q104.233-76.8819 103.443-77.8052Q102.653-78.7286 101.388-78.7286Q100.79-78.7286 100.197-78.4857Q99.6037-78.2429 99.0272-77.9568L73.5077-64.0387L48.1807-79.4224Q45.7338-80.8639 43.3251-80.8639Q40.9914-80.8639 38.5489-79.4224L14.809-64.9012Q13.5061-64.1251 12.9835-63.2959Q12.4609-62.4666 12.4609-60.7772L12.4609 4.75466Q12.4609 6.35213 13.2512 7.30875Q14.0415 8.26537 15.377 8.26537ZM42.1905-9.03507L16.6193 5.41492Q16.254 5.5976 15.8674 5.5976Q14.8451 5.5976 14.8451 4.44645L14.8451-60.4016Q14.8451-61.2739 15.1503-61.926Q15.4555-62.578 16.3985-63.0765L40.7121-77.8973Q41.0817-78.0758 41.4513-78.2584Q41.8209-78.4411 42.1905-78.4907ZM44.637-8.96555L44.637-78.5089Q45.0108-78.4551 45.4158-78.3057Q45.8207-78.1563 46.128-77.9736L72.1239-62.0029L72.1239 7.62949Q71.7627 7.58837 71.3351 7.37454Q70.9074 7.16071 70.6129 6.98228ZM74.508 7.69053L74.508-62.0313L100.075-75.8781Q100.507-76.0608 100.827-76.0608Q101.271-76.0608 101.562-75.7741Q101.853-75.4874 101.853-74.9762L101.853-10.1324Q101.853-9.26012 101.546-8.60804Q101.239-7.95596 100.362-7.45752L75.944 7.0518Q75.5829 7.226 75.2239 7.40232Q74.8649 7.57864 74.508 7.69053Z"/>
  </g>
  <g id="Black-S" transform="matrix(1 0 0 1 2881.69 696)">
   <path d="M18.7988 5.61523Q20.752 5.61523 22.3877 4.95605Q24.0234 4.29688 26.123 3.125L40.8691-4.98047L57.373 4.15039Q61.1328 6.25 65.0879 6.25Q69.1406 6.25 73.0957 4.05273L87.5488-3.95508Q90.8203-5.76172 92.2363-8.25195Q93.6523-10.7422 93.6523-14.1602L93.6523-64.7949Q93.6523-68.6035 91.1621-71.0205Q88.6719-73.4375 84.6191-73.4375Q82.666-73.4375 81.0547-72.6562Q79.4434-71.875 77.2949-70.7031L62.4023-62.4512L45.5078-71.7773Q41.6504-73.877 37.4512-73.877Q33.6426-73.877 30.4688-72.0703L15.8691-64.0137Q12.5977-62.207 11.1816-59.8877Q9.76562-57.5684 9.76562-54.1504L9.76562-2.83203Q9.76562 0.976562 12.2803 3.2959Q14.7949 5.61523 18.7988 5.61523ZM33.1055-15.1367L24.2676-10.2539Q23.5352-9.86328 22.9492-9.86328Q21.4844-9.86328 21.4844-11.8164L21.4844-50.0488Q21.4844-51.4648 21.9238-52.124Q22.3633-52.7832 23.5352-53.418L32.4219-58.3008Q32.6172-58.3984 32.7637-58.4961Q32.9102-58.5938 33.1055-58.6914ZM45.4102-16.8945L45.4102-57.2266Q45.7031-57.0801 45.9961-56.9092Q46.2891-56.7383 46.582-56.5918L58.0078-50.293L58.0078-9.91211Q57.7637-10.0586 57.4707-10.2051Q57.1777-10.3516 56.9336-10.498ZM70.3125-9.96094L70.3125-52.3926L79.1016-57.2266Q79.6387-57.5195 80.127-57.5195Q80.9082-57.5195 81.4209-56.9824Q81.9336-56.4453 81.9336-55.7129L81.9336-18.6523Q81.9336-17.2852 81.4697-16.6016Q81.0059-15.918 79.8828-15.2832L72.1191-10.9863Q71.6797-10.7422 71.2158-10.4736Q70.752-10.2051 70.3125-9.96094Z"/>
  </g>
  <g id="Heavy-S" transform="matrix(1 0 0 1 2585.3 696)">
   <path d="M17.7847 4.63565Q19.4612 4.63565 20.9068 4.06867Q22.3524 3.50169 24.1985 2.47963L40.0279-6.15596L57.6727 3.58569Q61.0521 5.46634 64.6384 5.46634Q68.2532 5.46634 71.6897 3.55718L87.4912-5.23429Q90.4285-6.85654 91.7177-9.12781Q93.007-11.3991 93.007-14.4944L93.007-65.3366Q93.007-68.7879 90.8106-70.9283Q88.6143-73.0687 84.9764-73.0687Q83.2999-73.0687 81.8729-72.4085Q80.446-71.7482 78.5626-70.7262L62.3908-61.7367L44.5282-71.9041Q41.1779-73.7502 37.4627-73.7502Q34.0229-73.7502 31.1833-72.1279L15.2814-63.2992Q12.3441-61.6769 11.0549-59.5362Q9.76562-57.3955 9.76562-54.3117L9.76562-2.94728Q9.76562 0.504059 11.9806 2.56986Q14.1956 4.63565 17.7847 4.63565ZM33.4282-15.5631L22.7463-9.68921Q22.0946-9.34468 21.6124-9.34468Q20.378-9.34468 20.378-10.9636L20.378-50.7518Q20.378-51.995 20.7887-52.6253Q21.1993-53.2557 22.2444-53.8328L32.5832-59.603Q32.8131-59.7353 33.0057-59.856Q33.1983-59.9767 33.4282-60.0974ZM44.4997-16.7332L44.4997-58.7478Q44.7927-58.6013 45.0914-58.4246Q45.3902-58.248 45.6831-58.09L58.2729-50.9268L58.2729-9.11692Q57.9826-9.29798 57.6551-9.46175Q57.3276-9.62552 57.0373-9.79505ZM69.3329-8.95831L69.3329-52.6346L79.9889-58.4827Q80.4915-58.7526 80.8991-58.7526Q81.5536-58.7526 81.9683-58.3077Q82.383-57.8628 82.383-57.2456L82.383-18.3412Q82.383-17.1353 81.9595-16.4863Q81.536-15.8373 80.5282-15.2602L71.1511-9.99522Q70.7116-9.73956 70.2478-9.471Q69.7839-9.20245 69.3329-8.95831Z"/>
  </g>
  <g id="Bold-S" transform="matrix(1 0 0 1 2288.95 696)">
   <path d="M16.6504 3.54004Q18.0176 3.54004 19.2505 3.07617Q20.4834 2.6123 22.0459 1.75781L39.0869-7.4707L58.0078 2.9541Q60.9619 4.58984 64.1357 4.58984Q67.2607 4.58984 70.1172 3.00293L87.4268-6.66504Q89.9902-8.08105 91.1377-10.1074Q92.2852-12.1338 92.2852-14.8682L92.2852-65.9424Q92.2852-68.9941 90.4175-70.8252Q88.5498-72.6562 85.376-72.6562Q84.0088-72.6562 82.7881-72.1313Q81.5674-71.6064 79.9805-70.752L62.3779-60.9375L43.4326-72.0459Q40.6494-73.6084 37.4756-73.6084Q34.4482-73.6084 31.9824-72.1924L14.624-62.5Q12.0605-61.084 10.9131-59.1431Q9.76562-57.2021 9.76562-54.4922L9.76562-3.07617Q9.76562-0.0244141 11.6455 1.75781Q13.5254 3.54004 16.6504 3.54004ZM33.7891-16.04L21.0449-9.05762Q20.4834-8.76465 20.1172-8.76465Q19.1406-8.76465 19.1406-10.0098L19.1406-51.5381Q19.1406-52.5879 19.519-53.186Q19.8975-53.7842 20.8008-54.2969L32.7637-61.0596Q33.0322-61.2305 33.2764-61.377Q33.5205-61.5234 33.7891-61.6699ZM43.4814-16.5527L43.4814-60.4492Q43.7744-60.3027 44.0796-60.1196Q44.3848-59.9365 44.6777-59.7656L58.5693-51.6357L58.5693-8.22754Q58.2275-8.44727 57.8613-8.63037Q57.4951-8.81348 57.1533-9.00879ZM68.2373-7.83691L68.2373-52.9053L80.9814-59.8877Q81.4453-60.1318 81.7627-60.1318Q82.2754-60.1318 82.5806-59.79Q82.8857-59.4482 82.8857-58.96L82.8857-17.9932Q82.8857-16.9678 82.5073-16.3574Q82.1289-15.7471 81.25-15.2344L70.0684-8.88672Q69.6289-8.61816 69.165-8.34961Q68.7012-8.08105 68.2373-7.83691Z"/>
  </g>
  <g id="Semibold-S" transform="matrix(1 0 0 1 1992.49 696)">
   <path d="M15.8684 2.78467Q17.0223 2.78467 18.1085 2.39189Q19.1948 1.99912 20.5618 1.26016L38.4382-8.37715L58.2389 2.51865Q60.8997 3.98555 63.7892 3.98555Q66.5765 3.98555 69.033 2.6208L87.3823-7.65146Q89.6881-8.92529 90.7378-10.7828Q91.7875-12.6403 91.7875-15.1259L91.7875-66.3601Q91.7875-69.1363 90.1464-70.7541Q88.5054-72.3719 85.6515-72.3719Q84.4976-72.3719 83.419-71.9403Q82.3405-71.5087 80.958-70.7697L62.369-60.3865L42.6772-72.1437Q40.2851-73.5106 37.4845-73.5106Q34.7415-73.5106 32.5334-72.2368L14.1708-61.949Q11.865-60.6752 10.8153-58.872Q9.76562-57.0688 9.76562-54.6166L9.76562-3.16504Q9.76562-0.38877 11.4145 1.19795Q13.0633 2.78467 15.8684 2.78467ZM34.0379-16.3688L19.8719-8.62217Q19.3726-8.36475 19.0863-8.36475Q18.2875-8.36475 18.2875-9.35215L18.2875-52.0802Q18.2875-52.9967 18.6437-53.5726Q18.9999-54.1485 19.8055-54.6168L32.8881-62.0638Q33.1833-62.2613 33.463-62.4256Q33.7427-62.5898 34.0379-62.7541ZM42.7794-16.4283L42.7794-61.6223Q43.0724-61.4758 43.382-61.2882Q43.6916-61.1007 43.9846-60.9209L58.7737-52.1245L58.7737-7.61436Q58.3964-7.86074 58.0035-8.05718Q57.6106-8.25361 57.2333-8.4667ZM67.4819-7.06377L67.4819-53.0919L81.6657-60.8563Q82.1029-61.0827 82.3581-61.0827Q82.773-61.0827 83.0027-60.812Q83.2323-60.5413 83.2323-60.1419L83.2323-17.7532Q83.2323-16.8522 82.885-16.2686Q82.5377-15.6849 81.7477-15.2166L69.3219-8.12246Q68.8824-7.84502 68.4186-7.57646Q67.9547-7.30791 67.4819-7.06377Z"/>
  </g>
  <g id="Medium-S" transform="matrix(1 0 0 1 1695.97 696)">
   <path d="M15.2754 2.21191Q16.2676 2.21191 17.2427 1.87305Q18.2178 1.53418 19.4365 0.882812L37.9463-9.06445L58.4141 2.18848Q60.8525 3.52734 63.5264 3.52734Q66.0576 3.52734 68.2109 2.33105L87.3486-8.39941Q89.459-9.56543 90.4346-11.2949Q91.4102-13.0244 91.4102-15.3213L91.4102-66.6768Q91.4102-69.2441 89.9409-70.7002Q88.4717-72.1562 85.8604-72.1562Q84.8682-72.1562 83.8975-71.7954Q82.9268-71.4346 81.6992-70.7832L62.3623-59.9688L42.1045-72.2178Q40.0088-73.4365 37.4912-73.4365Q34.9639-73.4365 32.9512-72.2705L13.8271-61.5312Q11.7168-60.3652 10.7412-58.6665Q9.76562-56.9678 9.76562-54.7109L9.76562-3.23242Q9.76562-0.665039 11.2393 0.773438Q12.7129 2.21191 15.2754 2.21191ZM34.2266-16.6182L18.9824-8.29199Q18.5303-8.06152 18.3047-8.06152Q17.6406-8.06152 17.6406-8.85352L17.6406-52.4912Q17.6406-53.3066 17.98-53.8657Q18.3193-54.4248 19.0508-54.8594L32.9824-62.8252Q33.2979-63.043 33.6045-63.2207Q33.9111-63.3984 34.2266-63.5762ZM42.2471-16.334L42.2471-62.5117Q42.54-62.3652 42.853-62.1743Q43.166-61.9834 43.459-61.7969L58.9287-52.4951L58.9287-7.14941Q58.5244-7.41602 58.1113-7.62256Q57.6982-7.8291 57.2939-8.05566ZM66.9092-6.47754L66.9092-53.2334L82.1846-61.5908Q82.6016-61.8037 82.8096-61.8037Q83.1504-61.8037 83.3228-61.5869Q83.4951-61.3701 83.4951-61.0381L83.4951-17.5713Q83.4951-16.7646 83.1714-16.2012Q82.8477-15.6377 82.125-15.2031L68.7559-7.54297Q68.3164-7.25879 67.8525-6.99023Q67.3887-6.72168 66.9092-6.47754Z"/>
  </g>
  <g id="Regular-S" transform="matrix(1 0 0 1 1399.5 696)">
   <path d="M14.502 1.46484Q15.2832 1.46484 16.1133 1.19629Q16.9434 0.927734 17.9688 0.390625L37.3047-9.96094L58.6426 1.75781Q60.791 2.92969 63.1836 2.92969Q65.3809 2.92969 67.1387 1.95312L87.3047-9.375Q89.1602-10.4004 90.0391-11.9629Q90.918-13.5254 90.918-15.5762L90.918-67.0898Q90.918-69.3848 89.6729-70.6299Q88.4277-71.875 86.1328-71.875Q85.3516-71.875 84.5215-71.6064Q83.6914-71.3379 82.666-70.8008L62.3535-59.4238L41.3574-72.3145Q39.6484-73.3398 37.5-73.3398Q35.2539-73.3398 33.4961-72.3145L13.3789-60.9863Q11.5234-59.9609 10.6445-58.3984Q9.76562-56.8359 9.76562-54.834L9.76562-3.32031Q9.76562-1.02539 11.0107 0.219727Q12.2559 1.46484 14.502 1.46484ZM34.4727-16.9434L17.8223-7.86133Q17.4316-7.66602 17.2852-7.66602Q16.7969-7.66602 16.7969-8.20312L16.7969-53.0273Q16.7969-53.7109 17.1143-54.248Q17.4316-54.7852 18.0664-55.1758L33.1055-63.8184Q33.4473-64.0625 33.7891-64.2578Q34.1309-64.4531 34.4727-64.6484ZM41.5527-16.2109L41.5527-63.6719Q41.8457-63.5254 42.1631-63.3301Q42.4805-63.1348 42.7734-62.9395L59.1309-52.9785L59.1309-6.54297Q58.6914-6.83594 58.252-7.05566Q57.8125-7.27539 57.373-7.51953ZM66.1621-5.71289L66.1621-53.418L82.8613-62.5488Q83.252-62.7441 83.3984-62.7441Q83.6426-62.7441 83.7402-62.5977Q83.8379-62.4512 83.8379-62.207L83.8379-17.334Q83.8379-16.6504 83.5449-16.1133Q83.252-15.5762 82.6172-15.1855L68.0176-6.78711Q67.5781-6.49414 67.1143-6.22559Q66.6504-5.95703 66.1621-5.71289Z"/>
  </g>
  <g id="Light-S" transform="matrix(1 0 0 1 1104.23 696)">
   <path d="M13.737 0.651042Q14.4043 0.651042 15.1204 0.406901Q15.8366 0.16276 16.6829-0.292969L36.2305-10.9375L57.2428 1.02539Q59.2611 2.18099 61.3607 2.18099Q63.3301 2.18099 65.0879 1.17188L84.9935-10.2051Q86.5723-11.1003 87.3047-12.3698Q88.0371-13.6393 88.0371-15.4622L88.0371-66.9434Q88.0371-68.9128 86.9873-69.9951Q85.9375-71.0775 84.0495-71.0775Q83.3659-71.0775 82.6497-70.8333Q81.9336-70.5892 81.0872-70.1497L60.8724-58.9193L40.2344-71.5495Q38.4603-72.6074 36.3932-72.6074Q34.2773-72.6074 32.4707-71.5495L12.8255-60.2051Q11.2305-59.3099 10.498-58.0322Q9.76562-56.7546 9.76562-54.9642L9.76562-3.49935Q9.76562-1.52995 10.8154-0.439453Q11.8652 0.651042 13.737 0.651042ZM34.0332-16.2435L16.3249-6.46159Q15.9668-6.28255 15.7715-6.28255Q15.1855-6.28255 15.1855-6.93359L15.1855-53.6296Q15.1855-54.3132 15.4785-54.8421Q15.7715-55.3711 16.4388-55.7617L32.7311-65.332Q33.0566-65.5436 33.3822-65.7227Q33.7077-65.9017 34.0332-66.0482ZM39.502-15.7227L39.502-65.3809Q39.7949-65.2669 40.1123-65.096Q40.4297-64.9251 40.7064-64.7461L58.3171-53.9876L58.3171-5.01302Q57.9264-5.22461 57.5195-5.42806Q57.1126-5.63151 56.7383-5.8431ZM63.737-4.42708L63.737-54.2969L81.4779-63.9648Q81.8522-64.1439 82.0312-64.1439Q82.3079-64.1439 82.4463-63.973Q82.5846-63.8021 82.5846-63.5091L82.5846-16.7806Q82.5846-16.097 82.3079-15.568Q82.0312-15.0391 81.3802-14.6484L65.3646-5.32227Q64.974-5.07812 64.5671-4.85026Q64.1602-4.6224 63.737-4.42708Z"/>
  </g>
  <g id="Thin-S" transform="matrix(1 0 0 1 809.426 696)">
   <path d="M12.7252-0.425277Q13.2419-0.425277 13.8073-0.637128Q14.3728-0.848979 14.9824-1.19708L34.8097-12.2291L55.3916 0.0567036Q57.2376 1.19078 58.9497 1.19078Q60.6178 1.19078 62.3756 0.138609L81.9367-11.3029Q83.1496-12.0259 83.6883-12.908Q84.2269-13.79 84.2269-15.3116L84.2269-66.7496Q84.2269-68.2885 83.4355-69.1556Q82.644-70.0227 81.2941-70.0227Q80.7397-70.0227 80.1742-69.8108Q79.6087-69.599 78.9992-69.2887L58.9135-58.252L38.7491-70.5377Q36.8889-71.6387 34.9294-71.6387Q32.9858-71.6387 31.1145-70.5377L12.0936-59.1718Q10.843-58.4488 10.3043-57.5479Q9.76562-56.6469 9.76562-55.1364L9.76562-3.73614Q9.76562-2.19727 10.5571-1.31127Q11.3486-0.425277 12.7252-0.425277ZM33.452-15.3179L14.3444-4.61032Q14.0294-4.45281 13.7695-4.45281Q13.0544-4.45281 13.0544-5.25454L13.0544-54.426Q13.0544-55.1096 13.3151-55.6278Q13.5758-56.146 14.2862-56.5367L32.236-67.334Q32.54-67.5025 32.844-67.66Q33.148-67.8175 33.452-67.8994ZM36.7896-15.0769L36.7896-67.6411Q37.0826-67.5702 37.4-67.4316Q37.7174-67.293 37.9725-67.1355L57.2407-55.3223L57.2407-2.98954Q56.9147-3.0935 56.5508-3.27542Q56.187-3.45735 55.8988-3.62588ZM60.5295-2.7265L60.5295-55.4593L79.6481-65.8376Q80.0009-65.9951 80.223-65.9951Q80.5428-65.9951 80.7349-65.792Q80.9271-65.5888 80.9271-65.2312L80.9271-16.0487Q80.9271-15.3651 80.6719-14.8469Q80.4168-14.3287 79.7442-13.9381L61.8558-3.38489Q61.5297-3.20533 61.1982-3.03128Q60.8666-2.85723 60.5295-2.7265Z"/>
  </g>
  <g id="Ultralight-S" transform="matrix(1 0 0 1 513.691 696)">
   <path d="M12.207-0.976562Q12.6465-0.976562 13.1348-1.17188Q13.623-1.36719 14.1113-1.66016L34.082-12.8906L54.4434-0.439453Q56.2012 0.683594 57.7148 0.683594Q59.2285 0.683594 60.9863-0.390625L80.3711-11.8652Q81.3965-12.5 81.8359-13.1836Q82.2754-13.8672 82.2754-15.2344L82.2754-66.6504Q82.2754-67.9688 81.6162-68.7256Q80.957-69.4824 79.8828-69.4824Q79.3945-69.4824 78.9062-69.2871Q78.418-69.0918 77.9297-68.8477L57.9102-57.9102L37.9883-70.0195Q36.084-71.1426 34.1797-71.1426Q32.3242-71.1426 30.4199-70.0195L11.7188-58.6426Q10.6445-58.0078 10.2051-57.2998Q9.76562-56.5918 9.76562-55.2246L9.76562-3.85742Q9.76562-2.53906 10.4248-1.75781Q11.084-0.976562 12.207-0.976562ZM33.1543-14.8438L13.3301-3.66211Q13.0371-3.51562 12.7441-3.51562Q11.9629-3.51562 11.9629-4.39453L11.9629-54.834Q11.9629-55.5176 12.207-56.0303Q12.4512-56.543 13.1836-56.9336L31.9824-68.3594Q32.2754-68.5059 32.5684-68.6523Q32.8613-68.7988 33.1543-68.8477ZM35.4004-14.7461L35.4004-68.7988Q35.6934-68.75 36.0107-68.6279Q36.3281-68.5059 36.5723-68.3594L56.6895-56.0059L56.6895-1.95312Q56.3965-2.00195 56.0547-2.17285Q55.7129-2.34375 55.4688-2.49023ZM58.8867-1.85547L58.8867-56.0547L78.7109-66.7969Q79.0527-66.9434 79.2969-66.9434Q79.6387-66.9434 79.8584-66.7236Q80.0781-66.5039 80.0781-66.1133L80.0781-15.6738Q80.0781-14.9902 79.834-14.4775Q79.5898-13.9648 78.9062-13.5742L60.0586-2.39258Q59.7656-2.24609 59.4727-2.09961Q59.1797-1.95312 58.8867-1.85547Z"/>
  </g>
 </g>
</svg>
