<?xml version="1.0" encoding="UTF-8"?>
<!--Generator: Apple Native CoreSVG 175-->
<!DOCTYPE svg
PUBLIC "-//W3C//DTD SVG 1.1//EN"
       "http://www.w3.org/Graphics/SVG/1.1/DTD/svg11.dtd">
<svg version="1.1" xmlns="http://www.w3.org/2000/svg" xmlns:xlink="http://www.w3.org/1999/xlink" width="3300" height="2200">
 <!--glyph: "uni1004A4.medium", point size: 100.0, font version: "17.1d1e1", template writer version: "65.1"-->
 <g id="Notes">
  <rect height="2200" id="artboard" style="fill:white;opacity:1" width="3300" x="0" y="0"/>
  <line style="fill:none;stroke:black;opacity:1;stroke-width:0.5;" x1="263" x2="3036" y1="292" y2="292"/>
  <text style="stroke:none;fill:black;font-family:sans-serif;font-size:13;font-weight:bold;" transform="matrix(1 0 0 1 263 322)">Weight/Scale Variations</text>
  <text style="stroke:none;fill:black;font-family:sans-serif;font-size:13;text-anchor:middle;" transform="matrix(1 0 0 1 559.711 322)">Ultralight</text>
  <text style="stroke:none;fill:black;font-family:sans-serif;font-size:13;text-anchor:middle;" transform="matrix(1 0 0 1 856.422 322)">Thin</text>
  <text style="stroke:none;fill:black;font-family:sans-serif;font-size:13;text-anchor:middle;" transform="matrix(1 0 0 1 1153.13 322)">Light</text>
  <text style="stroke:none;fill:black;font-family:sans-serif;font-size:13;text-anchor:middle;" transform="matrix(1 0 0 1 1449.84 322)">Regular</text>
  <text style="stroke:none;fill:black;font-family:sans-serif;font-size:13;text-anchor:middle;" transform="matrix(1 0 0 1 1746.56 322)">Medium</text>
  <text style="stroke:none;fill:black;font-family:sans-serif;font-size:13;text-anchor:middle;" transform="matrix(1 0 0 1 2043.27 322)">Semibold</text>
  <text style="stroke:none;fill:black;font-family:sans-serif;font-size:13;text-anchor:middle;" transform="matrix(1 0 0 1 2339.98 322)">Bold</text>
  <text style="stroke:none;fill:black;font-family:sans-serif;font-size:13;text-anchor:middle;" transform="matrix(1 0 0 1 2636.69 322)">Heavy</text>
  <text style="stroke:none;fill:black;font-family:sans-serif;font-size:13;text-anchor:middle;" transform="matrix(1 0 0 1 2933.4 322)">Black</text>
  <line style="fill:none;stroke:black;opacity:1;stroke-width:0.5;" x1="263" x2="3036" y1="1903" y2="1903"/>
  <g transform="matrix(1 0 0 1 263 1933)">
   <path d="M9.24805 0.830078Q10.8691 0.830078 12.2949 0.214844Q13.7207-0.400391 14.8096-1.49414Q15.8984-2.58789 16.5186-4.01367Q17.1387-5.43945 17.1387-7.05078Q17.1387-8.66211 16.5186-10.0879Q15.8984-11.5137 14.8047-12.6074Q13.7109-13.7012 12.2852-14.3164Q10.8594-14.9316 9.23828-14.9316Q7.62695-14.9316 6.20117-14.3164Q4.77539-13.7012 3.69141-12.6074Q2.60742-11.5137 1.9873-10.0879Q1.36719-8.66211 1.36719-7.05078Q1.36719-5.43945 1.9873-4.01367Q2.60742-2.58789 3.69629-1.49414Q4.78516-0.400391 6.21094 0.214844Q7.63672 0.830078 9.24805 0.830078ZM9.24805-0.654297Q7.91992-0.654297 6.7627-1.14746Q5.60547-1.64062 4.73145-2.51953Q3.85742-3.39844 3.36426-4.56055Q2.87109-5.72266 2.87109-7.05078Q2.87109-8.37891 3.35938-9.54102Q3.84766-10.7031 4.72168-11.582Q5.5957-12.4609 6.75293-12.9541Q7.91016-13.4473 9.23828-13.4473Q10.5762-13.4473 11.7334-12.9541Q12.8906-12.4609 13.7695-11.582Q14.6484-10.7031 15.1465-9.54102Q15.6445-8.37891 15.6445-7.05078Q15.6445-5.72266 15.1514-4.56055Q14.6582-3.39844 13.7842-2.51953Q12.9102-1.64062 11.748-1.14746Q10.5859-0.654297 9.24805-0.654297ZM5.6543-7.05078Q5.6543-6.72852 5.85938-6.52832Q6.06445-6.32812 6.40625-6.32812L8.51562-6.32812L8.51562-4.20898Q8.51562-3.88672 8.71094-3.67676Q8.90625-3.4668 9.23828-3.4668Q9.56055-3.4668 9.77051-3.67676Q9.98047-3.88672 9.98047-4.20898L9.98047-6.32812L12.0898-6.32812Q12.4219-6.32812 12.627-6.52832Q12.832-6.72852 12.832-7.05078Q12.832-7.38281 12.627-7.58789Q12.4219-7.79297 12.0898-7.79297L9.98047-7.79297L9.98047-9.90234Q9.98047-10.2344 9.77051-10.4443Q9.56055-10.6543 9.23828-10.6543Q8.90625-10.6543 8.71094-10.4443Q8.51562-10.2344 8.51562-9.90234L8.51562-7.79297L6.40625-7.79297Q6.06445-7.79297 5.85938-7.58789Q5.6543-7.38281 5.6543-7.05078Z"/>
  </g>
  <g transform="matrix(1 0 0 1 281.867 1933)">
   <path d="M11.709 2.91016Q13.75 2.91016 15.5518 2.12891Q17.3535 1.34766 18.7305-0.0292969Q20.1074-1.40625 20.8887-3.20801Q21.6699-5.00977 21.6699-7.05078Q21.6699-9.0918 20.8887-10.8936Q20.1074-12.6953 18.7305-14.0723Q17.3535-15.4492 15.5469-16.2305Q13.7402-17.0117 11.6992-17.0117Q9.6582-17.0117 7.85645-16.2305Q6.05469-15.4492 4.68262-14.0723Q3.31055-12.6953 2.5293-10.8936Q1.74805-9.0918 1.74805-7.05078Q1.74805-5.00977 2.5293-3.20801Q3.31055-1.40625 4.6875-0.0292969Q6.06445 1.34766 7.86621 2.12891Q9.66797 2.91016 11.709 2.91016ZM11.709 1.25Q9.98047 1.25 8.47656 0.605469Q6.97266-0.0390625 5.83496-1.17676Q4.69727-2.31445 4.05762-3.81836Q3.41797-5.32227 3.41797-7.05078Q3.41797-8.7793 4.05762-10.2832Q4.69727-11.7871 5.83008-12.9297Q6.96289-14.0723 8.4668-14.7119Q9.9707-15.3516 11.6992-15.3516Q13.4277-15.3516 14.9316-14.7119Q16.4355-14.0723 17.5781-12.9297Q18.7207-11.7871 19.3652-10.2832Q20.0098-8.7793 20.0098-7.05078Q20.0098-5.32227 19.3701-3.81836Q18.7305-2.31445 17.5928-1.17676Q16.4551-0.0390625 14.9463 0.605469Q13.4375 1.25 11.709 1.25ZM7.17773-7.05078Q7.17773-6.69922 7.41211-6.47461Q7.64648-6.25 8.01758-6.25L10.8887-6.25L10.8887-3.36914Q10.8887-2.99805 11.1133-2.76855Q11.3379-2.53906 11.6895-2.53906Q12.0605-2.53906 12.29-2.76855Q12.5195-2.99805 12.5195-3.36914L12.5195-6.25L15.4004-6.25Q15.7715-6.25 16.001-6.47461Q16.2305-6.69922 16.2305-7.05078Q16.2305-7.42188 16.001-7.65137Q15.7715-7.88086 15.4004-7.88086L12.5195-7.88086L12.5195-10.752Q12.5195-11.1328 12.29-11.3623Q12.0605-11.5918 11.6895-11.5918Q11.3379-11.5918 11.1133-11.3574Q10.8887-11.123 10.8887-10.752L10.8887-7.88086L8.01758-7.88086Q7.63672-7.88086 7.40723-7.65137Q7.17773-7.42188 7.17773-7.05078Z"/>
  </g>
  <g transform="matrix(1 0 0 1 305.646 1933)">
   <path d="M14.9707 5.66406Q17.0605 5.66406 18.96 5.01465Q20.8594 4.36523 22.4512 3.19336Q24.043 2.02148 25.2197 0.429688Q26.3965-1.16211 27.0459-3.06641Q27.6953-4.9707 27.6953-7.05078Q27.6953-9.14062 27.0459-11.04Q26.3965-12.9395 25.2197-14.5312Q24.043-16.123 22.4512-17.2998Q20.8594-18.4766 18.9551-19.126Q17.0508-19.7754 14.9609-19.7754Q12.8711-19.7754 10.9717-19.126Q9.07227-18.4766 7.48535-17.2998Q5.89844-16.123 4.72168-14.5312Q3.54492-12.9395 2.90039-11.04Q2.25586-9.14062 2.25586-7.05078Q2.25586-4.9707 2.90527-3.06641Q3.55469-1.16211 4.72656 0.429688Q5.89844 2.02148 7.49023 3.19336Q9.08203 4.36523 10.9814 5.01465Q12.8809 5.66406 14.9707 5.66406ZM14.9707 3.84766Q13.1641 3.84766 11.5283 3.2959Q9.89258 2.74414 8.53516 1.74805Q7.17773 0.751953 6.17676-0.610352Q5.17578-1.97266 4.62891-3.6084Q4.08203-5.24414 4.08203-7.05078Q4.08203-8.86719 4.62891-10.5029Q5.17578-12.1387 6.17188-13.501Q7.16797-14.8633 8.52539-15.8594Q9.88281-16.8555 11.5186-17.4023Q13.1543-17.9492 14.9609-17.9492Q16.7773-17.9492 18.4131-17.4023Q20.0488-16.8555 21.4111-15.8594Q22.7734-14.8633 23.7695-13.501Q24.7656-12.1387 25.3174-10.5029Q25.8691-8.86719 25.8691-7.05078Q25.8789-5.24414 25.332-3.6084Q24.7852-1.97266 23.7842-0.610352Q22.7832 0.751953 21.4209 1.74805Q20.0586 2.74414 18.4229 3.2959Q16.7871 3.84766 14.9707 3.84766ZM9.19922-7.05078Q9.19922-6.66992 9.45801-6.4209Q9.7168-6.17188 10.1172-6.17188L14.0625-6.17188L14.0625-2.2168Q14.0625-1.81641 14.3115-1.55762Q14.5605-1.29883 14.9512-1.29883Q15.3516-1.29883 15.6104-1.55273Q15.8691-1.80664 15.8691-2.2168L15.8691-6.17188L19.8242-6.17188Q20.2246-6.17188 20.4785-6.4209Q20.7324-6.66992 20.7324-7.05078Q20.7324-7.46094 20.4785-7.71484Q20.2246-7.96875 19.8242-7.96875L15.8691-7.96875L15.8691-11.9141Q15.8691-12.3242 15.6104-12.583Q15.3516-12.8418 14.9512-12.8418Q14.5605-12.8418 14.3115-12.583Q14.0625-12.3242 14.0625-11.9141L14.0625-7.96875L10.1172-7.96875Q9.70703-7.96875 9.45312-7.71484Q9.19922-7.46094 9.19922-7.05078Z"/>
  </g>
  <text style="stroke:none;fill:black;font-family:sans-serif;font-size:13;font-weight:bold;" transform="matrix(1 0 0 1 263 1953)">Design Variations</text>
  <text style="stroke:none;fill:black;font-family:sans-serif;font-size:13;" transform="matrix(1 0 0 1 263 1971)">Symbols are supported in up to nine weights and three scales.</text>
  <text style="stroke:none;fill:black;font-family:sans-serif;font-size:13;" transform="matrix(1 0 0 1 263 1989)">For optimal layout with text and other symbols, vertically align</text>
  <text style="stroke:none;fill:black;font-family:sans-serif;font-size:13;" transform="matrix(1 0 0 1 263 2007)">symbols with the adjacent text.</text>
  <line style="fill:none;stroke:#00AEEF;stroke-width:0.5;opacity:1.0;" x1="776" x2="776" y1="1919" y2="1933"/>
  <g transform="matrix(1 0 0 1 776 1933)">
   <path d="M3.31055 0.15625Q3.70117 0.15625 3.91602-0.00976562Q4.13086-0.175781 4.26758-0.585938L5.52734-4.0332L11.2891-4.0332L12.5488-0.585938Q12.6855-0.175781 12.9004-0.00976562Q13.1152 0.15625 13.4961 0.15625Q13.8867 0.15625 14.1162-0.0585938Q14.3457-0.273438 14.3457-0.644531Q14.3457-0.869141 14.2383-1.17188L9.6582-13.3691Q9.48242-13.8184 9.17969-14.043Q8.87695-14.2676 8.4082-14.2676Q7.5-14.2676 7.17773-13.3789L2.59766-1.16211Q2.49023-0.859375 2.49023-0.634766Q2.49023-0.263672 2.70996-0.0537109Q2.92969 0.15625 3.31055 0.15625ZM6.00586-5.51758L8.37891-12.0898L8.42773-12.0898L10.8008-5.51758Z"/>
  </g>
  <line style="fill:none;stroke:#00AEEF;stroke-width:0.5;opacity:1.0;" x1="793.197" x2="793.197" y1="1919" y2="1933"/>
  <text style="stroke:none;fill:black;font-family:sans-serif;font-size:13;font-weight:bold;" transform="matrix(1 0 0 1 776 1953)">Margins</text>
  <text style="stroke:none;fill:black;font-family:sans-serif;font-size:13;" transform="matrix(1 0 0 1 776 1971)">Leading and trailing margins on the left and right side of each symbol</text>
  <text style="stroke:none;fill:black;font-family:sans-serif;font-size:13;" transform="matrix(1 0 0 1 776 1989)">can be adjusted by modifying the x-location of the margin guidelines.</text>
  <text style="stroke:none;fill:black;font-family:sans-serif;font-size:13;" transform="matrix(1 0 0 1 776 2007)">Modifications are automatically applied proportionally to all</text>
  <text style="stroke:none;fill:black;font-family:sans-serif;font-size:13;" transform="matrix(1 0 0 1 776 2025)">scales and weights.</text>
  <g transform="matrix(1 0 0 1 1289 1933)">
   <path d="M2.8418 1.86523L4.54102 3.57422Q5.18555 4.22852 5.90332 4.17969Q6.62109 4.13086 7.31445 3.35938L18.0078-8.42773L17.041-9.4043L6.42578 2.27539Q6.16211 2.57812 5.89355 2.61719Q5.625 2.65625 5.27344 2.30469L4.10156 1.14258Q3.75 0.791016 3.79395 0.522461Q3.83789 0.253906 4.14062-0.0195312L15.6152-10.8203L14.6387-11.7871L3.04688-0.898438Q2.30469-0.214844 2.25098 0.498047Q2.19727 1.21094 2.8418 1.86523ZM9.25781-16.3281Q8.94531-16.0254 8.90625-15.6348Q8.86719-15.2441 9.04297-14.9512Q9.21875-14.6777 9.55566-14.541Q9.89258-14.4043 10.3809-14.5215Q11.4746-14.7754 12.5977-14.7314Q13.7207-14.6875 14.7949-13.9844L14.209-12.5293Q13.9551-11.9043 14.0674-11.4404Q14.1797-10.9766 14.5801-10.5664L16.875-8.25195Q17.2363-7.88086 17.5781-7.82227Q17.9199-7.76367 18.3398-7.8418L19.4043-8.03711L20.0684-7.36328L20.0293-6.80664Q20-6.43555 20.1221-6.12305Q20.2441-5.81055 20.6055-5.44922L21.3672-4.70703Q21.7285-4.3457 22.1533-4.33105Q22.5781-4.31641 22.9297-4.66797L25.8398-7.58789Q26.1914-7.93945 26.1816-8.35449Q26.1719-8.76953 25.8105-9.13086L25.0391-9.89258Q24.6875-10.2539 24.3799-10.3857Q24.0723-10.5176 23.7109-10.4883L23.1348-10.4395L22.4902-11.0742L22.7344-12.1973Q22.832-12.6172 22.6953-12.9834Q22.5586-13.3496 22.1191-13.7891L19.9219-15.9766Q18.6719-17.2168 17.2607-17.8369Q15.8496-18.457 14.4189-18.4814Q12.9883-18.5059 11.665-17.959Q10.3418-17.4121 9.25781-16.3281ZM10.752-15.957Q11.6602-16.6211 12.7002-16.9043Q13.7402-17.1875 14.8047-17.085Q15.8691-16.9824 16.8701-16.5137Q17.8711-16.0449 18.7012-15.2051L21.1328-12.793Q21.3086-12.6172 21.3525-12.4512Q21.3965-12.2852 21.3379-12.0312L21.0156-10.5469L22.5195-9.0625L23.5059-9.12109Q23.6914-9.13086 23.7891-9.09668Q23.8867-9.0625 24.0332-8.91602L24.6094-8.33984L22.168-5.89844L21.5918-6.47461Q21.4453-6.62109 21.4062-6.71875Q21.3672-6.81641 21.377-7.01172L21.4453-7.98828L19.9512-9.47266L18.4277-9.21875Q18.1836-9.16992 18.042-9.2041Q17.9004-9.23828 17.7148-9.41406L15.7129-11.416Q15.5176-11.5918 15.4932-11.7529Q15.4688-11.9141 15.5859-12.1875L16.4648-14.2773Q15.293-15.3711 13.8281-15.791Q12.3633-16.2109 10.8398-15.7617Q10.7227-15.7324 10.6885-15.8057Q10.6543-15.8789 10.752-15.957Z"/>
  </g>
  <text style="stroke:none;fill:black;font-family:sans-serif;font-size:13;font-weight:bold;" transform="matrix(1 0 0 1 1289 1953)">Exporting</text>
  <text style="stroke:none;fill:black;font-family:sans-serif;font-size:13;" transform="matrix(1 0 0 1 1289 1971)">Symbols should be outlined when exporting to ensure the</text>
  <text style="stroke:none;fill:black;font-family:sans-serif;font-size:13;" transform="matrix(1 0 0 1 1289 1989)">design is preserved when submitting to Xcode.</text>
  <text id="template-version" style="stroke:none;fill:black;font-family:sans-serif;font-size:13;text-anchor:end;" transform="matrix(1 0 0 1 3036 1933)">Template v.2.0</text>
  <text style="stroke:none;fill:black;font-family:sans-serif;font-size:13;text-anchor:end;" transform="matrix(1 0 0 1 3036 1951)">Requires Xcode 12 or greater</text>
  <text id="descriptive-name" style="stroke:none;fill:black;font-family:sans-serif;font-size:13;text-anchor:end;" transform="matrix(1 0 0 1 3036 1969)">Generated from bubble.left.and.bubble.right</text>
  <text style="stroke:none;fill:black;font-family:sans-serif;font-size:13;text-anchor:end;" transform="matrix(1 0 0 1 3036 1987)">Typeset at 100 points</text>
  <text style="stroke:none;fill:black;font-family:sans-serif;font-size:13;" transform="matrix(1 0 0 1 263 726)">Small</text>
  <text style="stroke:none;fill:black;font-family:sans-serif;font-size:13;" transform="matrix(1 0 0 1 263 1156)">Medium</text>
  <text style="stroke:none;fill:black;font-family:sans-serif;font-size:13;" transform="matrix(1 0 0 1 263 1586)">Large</text>
 </g>
 <g id="Guides">
  <g id="H-reference" style="fill:#27AAE1;stroke:none;" transform="matrix(1 0 0 1 339 696)">
   <path d="M0.976562 0L3.66211 0L29.3457-67.1387L30.0293-67.1387L30.0293-70.459L28.125-70.459ZM11.6699-24.4629L46.9727-24.4629L46.2402-26.709L12.4512-26.709ZM55.127 0L57.7637 0L30.6152-70.459L29.4434-70.459L29.4434-67.1387Z"/>
  </g>
  <line id="Baseline-S" style="fill:none;stroke:#27AAE1;opacity:1;stroke-width:0.5;" x1="263" x2="3036" y1="696" y2="696"/>
  <line id="Capline-S" style="fill:none;stroke:#27AAE1;opacity:1;stroke-width:0.5;" x1="263" x2="3036" y1="625.541" y2="625.541"/>
  <g id="H-reference" style="fill:#27AAE1;stroke:none;" transform="matrix(1 0 0 1 339 1126)">
   <path d="M0.976562 0L3.66211 0L29.3457-67.1387L30.0293-67.1387L30.0293-70.459L28.125-70.459ZM11.6699-24.4629L46.9727-24.4629L46.2402-26.709L12.4512-26.709ZM55.127 0L57.7637 0L30.6152-70.459L29.4434-70.459L29.4434-67.1387Z"/>
  </g>
  <line id="Baseline-M" style="fill:none;stroke:#27AAE1;opacity:1;stroke-width:0.5;" x1="263" x2="3036" y1="1126" y2="1126"/>
  <line id="Capline-M" style="fill:none;stroke:#27AAE1;opacity:1;stroke-width:0.5;" x1="263" x2="3036" y1="1055.54" y2="1055.54"/>
  <g id="H-reference" style="fill:#27AAE1;stroke:none;" transform="matrix(1 0 0 1 339 1556)">
   <path d="M0.976562 0L3.66211 0L29.3457-67.1387L30.0293-67.1387L30.0293-70.459L28.125-70.459ZM11.6699-24.4629L46.9727-24.4629L46.2402-26.709L12.4512-26.709ZM55.127 0L57.7637 0L30.6152-70.459L29.4434-70.459L29.4434-67.1387Z"/>
  </g>
  <line id="Baseline-L" style="fill:none;stroke:#27AAE1;opacity:1;stroke-width:0.5;" x1="263" x2="3036" y1="1556" y2="1556"/>
  <line id="Capline-L" style="fill:none;stroke:#27AAE1;opacity:1;stroke-width:0.5;" x1="263" x2="3036" y1="1485.54" y2="1485.54"/>
  <line id="left-margin" style="fill:none;stroke:#00AEEF;stroke-width:0.5;opacity:1.0;" x1="1367.29" x2="1367.29" y1="1030.79" y2="1150.12"/>
  <line id="right-margin" style="fill:none;stroke:#00AEEF;stroke-width:0.5;opacity:1.0;" x1="1532.4" x2="1532.4" y1="1030.79" y2="1150.12"/>
 </g>
 <g id="Symbols">
  <g id="Black-L" transform="matrix(1 0 0 1 2817.33 1556)">
   <path d="M62.345 31.3971Q65.7129 31.3971 69.8312 29.4936Q73.9495 27.5902 77.9115 24.1627L100.328 4.68822L94.7696-16.4311L67.0964 10.0661L67.0964-6.27226Q67.0964-9.64521 65.0959-11.6036Q63.0953-13.5621 59.9102-13.5621L49.7462-13.5621Q43.5487-13.5621 39.8066-17.1745Q36.0645-20.787 36.0645-27.0906L36.0645-78.5778Q36.0645-84.8813 39.8072-88.5145Q43.55-92.1477 49.7462-92.1477L138.957-92.1477Q145.172-92.1477 148.915-88.5145Q152.658-84.8813 152.658-78.5778L152.658-73.7435L172.639-73.7435L172.639-82.9956Q172.639-95.9499 164.613-103.642Q156.588-111.334 143.223-111.334L45.4998-111.334Q32.2999-111.334 24.1919-103.642Q16.084-95.9499 16.084-82.9956L16.084-20.962Q16.084-8.82541 23.6663-1.59009Q31.2486 5.64523 43.6307 5.64523L50.4564 5.64523L50.4564 18.4577Q50.4564 24.3467 53.6735 27.8719Q56.8906 31.3971 62.345 31.3971ZM173.347 40.8791Q178.777 40.8791 181.991 37.3156Q185.206 33.7522 185.206 27.8865L185.206 15.5711L188.612 15.5711Q200.939 15.5711 208.493 8.37513Q216.048 1.17919 216.048-10.9045L216.048-52.8619Q216.048-65.7425 207.968-73.4063Q199.888-81.0702 186.743-81.0702L116.689-81.0702Q103.4-81.0702 95.4018-73.4063Q87.4039-65.7425 87.4039-52.8619L87.4039-10.9019Q87.4039 1.18176 95.4018 8.37642Q103.4 15.5711 116.689 15.5711L137.047 15.5711L157.955 33.5255Q161.931 36.909 165.977 38.894Q170.023 40.8791 173.347 40.8791ZM168.571 20.0674L150.132 2.66984Q147.357-0.0404838 143.989-1.54632Q140.622-3.05216 137.289-3.05216L120.349-3.05216Q114.208-3.05216 110.504-6.63433Q106.799-10.2165 106.799-16.4659L106.8-49.0319Q106.8-55.2787 110.504-58.8732Q114.208-62.4677 120.349-62.4677L183.082-62.4677Q189.225-62.4677 192.929-58.8732Q196.633-55.2787 196.633-49.0319L196.633-16.4464Q196.633-10.2191 192.929-6.63562Q189.224-3.05216 183.082-3.05216L175.772-3.05216Q172.59-3.05216 170.58-1.09502Q168.571 0.862119 168.571 4.2325Z"/>
  </g>
  <g id="Heavy-L" transform="matrix(1 0 0 1 2523.13 1556)">
   <path d="M61.2433 30.8253Q64.3594 30.8253 67.9602 29.1484Q71.561 27.4714 75.2512 24.2781L98.5624 3.81208L92.7535-13.9151L65.4392 12.0654L65.4392-4.71259Q65.4392-7.87936 63.5969-9.65911Q61.7546-11.4389 58.8617-11.4389L48.2592-11.4389Q41.5305-11.4389 37.5562-15.2704Q33.5818-19.102 33.5818-26.0182L33.5818-78.7871Q33.5818-85.7033 37.5592-89.5646Q41.5365-93.4259 48.2592-93.4259L137.238-93.4259Q143.985-93.4259 147.962-89.5646Q151.94-85.7033 151.94-78.7871L151.94-72.9482L169.437-72.9482L169.437-82.2686Q169.437-95.1393 161.644-102.654Q153.85-110.168 140.654-110.168L44.867-110.168Q31.9099-110.168 23.9969-102.654Q16.084-95.1393 16.084-82.2686L16.084-21.2576Q16.084-9.01155 23.5953-1.83936Q31.1067 5.33284 43.439 5.33284L50.6188 5.33284L50.6188 19.2246Q50.6188 24.5339 53.4728 27.6796Q56.3269 30.8253 61.2433 30.8253ZM170.223 39.7535Q175.092 39.7535 177.934 36.5634Q180.776 33.3732 180.776 28.1058L180.776 15.1287L184.06 15.1287Q196.2 15.1287 203.615 8.07379Q211.03 1.01887 211.03-11.0465L211.03-52.0201Q211.03-64.6804 203.213-72.0954Q195.396-79.5103 182.632-79.5103L114.571-79.5103Q101.598-79.5103 93.8977-72.0954Q86.1971-64.6804 86.1971-52.0201L86.1971-11.0344Q86.1971 1.03095 93.8977 8.07983Q101.598 15.1287 114.571 15.1287L135.606 15.1287L156.496 33.0519Q160.159 36.1736 163.669 37.9636Q167.179 39.7535 170.223 39.7535ZM165.979 21.3384L147.189 3.84182Q144.641 1.39525 141.728 0.0992387Q138.814-1.19677 135.701-1.19677L117.505-1.19677Q110.975-1.19677 107.109-4.91991Q103.243-8.64306 103.243-15.3725L103.249-49.003Q103.249-55.7204 107.112-59.4675Q110.975-63.2146 117.505-63.2146L179.692-63.2146Q186.234-63.2146 190.097-59.4675Q193.96-55.7204 193.96-49.003L193.96-15.3488Q193.96-8.65513 190.094-4.92595Q186.228-1.19677 179.692-1.19677L172.563-1.19677Q169.682-1.19677 167.831 0.57695Q165.979 2.35067 165.979 5.50537Z"/>
  </g>
  <g id="Bold-L" transform="matrix(1 0 0 1 2229.71 1556)">
   <path d="M59.6022 29.8059Q62.3675 29.8059 65.3347 28.4067Q68.3019 27.0075 71.5903 24.1596L95.793 2.60173L90.0033-11.2215L63.099 14.227L63.099-3.10026Q63.099-5.96156 61.4711-7.50835Q59.8432-9.05514 57.3291-9.05514L46.3714-9.05514Q38.9936-9.05514 34.7567-13.1476Q30.5198-17.2401 30.5198-24.8704L30.5198-78.8975Q30.5198-86.5277 34.7638-90.6572Q39.0079-94.7867 46.3714-94.7867L134.801-94.7867Q142.187-94.7867 146.431-90.6572Q150.675-86.5277 150.675-78.8975L150.675-71.7938L165.111-71.7938L165.111-81.3487Q165.111-94.0253 157.645-101.279Q150.179-108.532 137.269-108.532L43.926-108.532Q31.3125-108.532 23.6982-101.279Q16.084-94.0253 16.084-81.3487L16.084-21.617Q16.084-9.34929 23.4354-2.31103Q30.7868 4.72723 42.9915 4.72723L50.5731 4.72723L50.5731 19.9041Q50.5731 24.4641 52.9764 27.135Q55.3796 29.8059 59.6022 29.8059ZM166.231 38.1549Q170.374 38.1549 172.749 35.4456Q175.124 32.7363 175.124 28.2417L175.124 14.5245L178.389 14.5245Q190.173 14.5245 197.314 7.72951Q204.455 0.93452 204.455-10.9406L204.455-51.0612Q204.455-63.3082 197.051-70.3439Q189.647-77.3796 177.455-77.3796L111.427-77.3796Q98.9757-77.3796 91.7129-70.3439Q84.45-63.3082 84.45-51.0612L84.45-10.9121Q84.45 0.962972 91.7129 7.74374Q98.9757 14.5245 111.427 14.5245L133.856 14.5245L154.639 32.3436Q157.854 35.089 160.711 36.6219Q163.568 38.1549 166.231 38.1549ZM162.655 22.7286L143.592 5.24495Q141.335 3.12795 138.963 2.08106Q136.591 1.03417 133.789 1.03417L113.552 1.03417Q106.61 1.03417 102.595-2.81933Q98.5796-6.67282 98.5796-13.8962L98.5938-48.9447Q98.5938-56.1396 102.602-60.033Q106.61-63.9263 113.552-63.9263L175.316-63.9263Q182.286-63.9263 186.294-60.033Q190.302-56.1396 190.302-48.9447L190.302-13.8735Q190.302-6.70127 186.287-2.83355Q182.272 1.03417 175.316 1.03417L168.405 1.03417Q165.919 1.03417 164.287 2.56673Q162.655 4.09929 162.655 6.93214Z"/>
  </g>
  <g id="Semibold-L" transform="matrix(1 0 0 1 1935.26 1556)">
   <path d="M58.4709 29.103Q60.9944 29.103 63.5248 27.8953Q66.0551 26.6876 69.0665 24.078L93.8837 1.76733L88.1073-9.36456L61.4856 15.7172L61.4856-1.98873Q61.4856-4.63944 60.0056-6.02562Q58.5255-7.41181 56.2724-7.41181L45.0699-7.41181Q37.2447-7.41181 32.8267-11.6842Q28.4088-15.9565 28.4088-24.0791L28.4088-78.9736Q28.4088-87.0961 32.8367-91.4105Q37.2646-95.7248 45.0699-95.7248L133.12-95.7248Q140.948-95.7248 145.376-91.4105Q149.804-87.0961 149.804-78.9736L149.804-70.9979L162.129-70.9979L162.129-80.7146Q162.129-93.2573 154.888-100.331Q147.648-107.404 134.935-107.404L43.2773-107.404Q30.9006-107.404 23.4923-100.331Q16.084-93.2573 16.084-80.7146L16.084-21.8648Q16.084-9.58212 23.3251-2.6362Q30.5663 4.30973 42.6829 4.30973L50.5416 4.30973L50.5416 20.3725Q50.5416 24.416 52.6341 26.7595Q54.7266 29.103 58.4709 29.103ZM163.479 37.0527Q167.122 37.0527 169.175 34.675Q171.227 32.2972 171.227 28.3354L171.227 14.108L174.48 14.108Q186.018 14.108 192.97 7.49216Q199.922 0.876366 199.922-10.8675L199.922-50.4002Q199.922-62.3622 192.803-69.1365Q185.684-75.9108 173.885-75.9108L109.26-75.9108Q97.1678-75.9108 90.2067-69.1365Q83.2456-62.3622 83.2456-50.4002L83.2456-10.8278Q83.2456 0.916112 90.2067 7.51204Q97.1678 14.108 109.26 14.108L132.65 14.108L153.358 31.8553Q156.265 34.3413 158.672 35.697Q161.079 37.0527 163.479 37.0527ZM160.363 23.687L141.112 6.21226Q139.056 4.32247 137.057 3.44732Q135.058 2.57216 132.472 2.57216L110.827 2.57216Q103.6 2.57216 99.4825-1.3712Q95.3648-5.31455 95.3648-12.8785L95.3847-48.9045Q95.3847-56.4287 99.4924-60.4228Q103.6-64.417 110.827-64.417L172.298-64.417Q179.565-64.417 183.673-60.4228Q187.78-56.4287 187.78-48.9045L187.78-12.8564Q187.78-5.3543 183.663-1.39107Q179.545 2.57216 172.298 2.57216L165.539 2.57216Q163.325 2.57216 161.844 3.93847Q160.363 5.30478 160.363 7.91574Z"/>
  </g>
  <g id="Medium-L" transform="matrix(1 0 0 1 1640.27 1556)">
   <path d="M57.6131 28.5701Q59.9532 28.5701 62.1524 27.5076Q64.3515 26.4451 67.1529 24.016L92.4361 1.13465L86.6696-7.95654L60.2624 16.8471L60.2624-1.14593Q60.2624-3.63696 58.8944-4.90136Q57.5264-6.16577 55.4713-6.16577L44.0831-6.16577Q35.9186-6.16577 31.3634-10.5745Q26.8081-14.9833 26.8081-23.4791L26.8081-79.0313Q26.8081-87.5271 31.3755-91.9816Q35.9428-96.4361 44.0831-96.4361L131.846-96.4361Q140.008-96.4361 144.576-91.9816Q149.143-87.5271 149.143-79.0313L149.143-70.3945L159.867-70.3945L159.867-80.2338Q159.867-92.675 152.798-99.6122Q145.729-106.549 133.166-106.549L42.7854-106.549Q30.5883-106.549 23.3361-99.6122Q16.084-92.675 16.084-80.2338L16.084-22.0527Q16.084-9.75867 23.2415-2.88275Q30.399 3.99316 42.449 3.99316L50.5177 3.99316L50.5177 20.7277Q50.5177 24.3795 52.3746 26.4748Q54.2315 28.5701 57.6131 28.5701ZM161.392 36.2171Q164.656 36.2171 166.464 34.0906Q168.273 31.9642 168.273 28.4064L168.273 13.7921L171.516 13.7921Q182.868 13.7921 189.676 7.3122Q196.485 0.832272 196.485-10.8122L196.485-49.899Q196.485-61.6448 189.582-68.2209Q182.678-74.7971 171.179-74.7971L107.616-74.7971Q95.7969-74.7971 89.0646-68.2209Q82.3324-61.6448 82.3324-49.899L82.3324-10.7639Q82.3324 0.88058 89.0646 7.33635Q95.7969 13.7921 107.616 13.7921L131.735 13.7921L152.388 31.4851Q155.06 33.7744 157.126 34.9957Q159.192 36.2171 161.392 36.2171ZM158.625 24.4136L139.231 6.94571Q137.328 5.22821 135.612 4.48327Q133.896 3.73833 131.473 3.73833L108.761 3.73833Q101.318 3.73833 97.1227-0.273163Q92.9272-4.28466 92.9272-12.1067L92.9514-48.874Q92.9514-56.6478 97.1348-60.7184Q101.318-64.789 108.761-64.789L170.011-64.789Q177.501-64.789 181.685-60.7184Q185.868-56.6478 185.868-48.874L185.868-12.0852Q185.868-4.33296 181.673-0.297317Q177.477 3.73833 170.011 3.73833L163.365 3.73833Q161.358 3.73833 159.992 4.97858Q158.625 6.21883 158.625 8.66156Z"/>
  </g>
  <g id="Regular-L" transform="matrix(1 0 0 1 1345.8 1556)">
   <path d="M56.4942 27.875Q58.5951 27.875 60.3623 27.0019Q62.1294 26.1288 64.6568 23.9353L90.5478 0.309414L84.7944-6.11999L58.6668 18.321L58.6668-0.0466127Q58.6668-2.32937 57.445-3.43493Q56.2232-4.5405 54.4263-4.5405L42.796-4.5405Q34.1889-4.5405 29.4546-9.12715Q24.7203-13.7138 24.7203-22.6965L24.7203-79.1065Q24.7203-88.0893 29.4695-92.7266Q34.2187-97.3639 42.796-97.3639L130.184-97.3639Q138.783-97.3639 143.532-92.7266Q148.281-88.0893 148.281-79.1065L148.281-69.6073L156.917-69.6073L156.917-79.6066Q156.917-91.9155 150.072-98.6747Q143.226-105.434 130.857-105.434L42.1438-105.434Q30.1809-105.434 23.1325-98.6747Q16.084-91.9155 16.084-79.6066L16.084-22.2978Q16.084-9.98894 23.1325-3.20435Q30.1809 3.58024 42.1438 3.58024L50.4865 3.58024L50.4865 21.1909Q50.4865 24.3319 52.0361 26.1035Q53.5856 27.875 56.4942 27.875ZM158.671 35.1271Q161.439 35.1271 162.929 33.3285Q164.419 31.5299 164.419 28.4991L164.419 13.3802L167.649 13.3802Q178.758 13.3802 185.38 7.07746Q192.002 0.774757 192.002-10.74L192.002-49.2452Q192.002-60.7092 185.38-67.0268Q178.758-73.3444 167.649-73.3444L105.473-73.3444Q94.0088-73.3444 87.575-67.0268Q81.1412-60.7092 81.1412-49.2452L81.1412-10.6805Q81.1412 0.834234 87.575 7.1072Q94.0088 13.3802 105.473 13.3802L130.542 13.3802L151.122 31.0022Q153.488 33.0349 155.109 34.081Q156.73 35.1271 158.671 35.1271ZM156.358 25.3615L136.778 7.90239Q135.074 6.4096 133.727 5.83451Q132.38 5.25942 130.169 5.25942L106.066 5.25942Q98.3418 5.25942 94.0448 1.15905Q89.7478-2.94131 89.7478-11.1002L89.7775-48.8343Q89.7775-56.9337 94.0597-61.104Q98.3418-65.2743 106.066-65.2743L167.027-65.2743Q174.81-65.2743 179.092-61.104Q183.374-56.9337 183.374-48.8343L183.374-11.0792Q183.374-3.00079 179.077 1.12932Q174.78 5.25942 167.027 5.25942L160.53 5.25942Q158.793 5.25942 157.576 6.33525Q156.358 7.41108 156.358 9.63435Z"/>
  </g>
  <g id="Light-L" transform="matrix(1 0 0 1 1052.52 1556)">
   <path d="M53.58 25.1661Q55.1885 25.1661 56.5657 24.4675Q57.9429 23.7688 59.7726 22.1704L84.8838-1.33234L81.2647-6.98191L55.1985 17.7874L55.1985-0.990623Q55.1985-2.73981 54.2435-3.60937Q53.2885-4.47893 51.861-4.47893L41.1953-4.47893Q32.1983-4.47893 27.4435-9.17846Q22.6887-13.878 22.6887-23.0659L22.6887-78.2241Q22.6887-87.412 27.4686-92.1417Q32.2486-96.8714 41.1953-96.8714L126.511-96.8714Q135.438-96.8714 140.217-92.1417Q144.997-87.412 144.997-78.2241L144.997-67.7193L151.602-67.7193L151.602-78.8473Q151.602-90.4379 145.249-96.7559Q138.896-103.074 127.205-103.074L40.4815-103.074Q29.0317-103.074 22.5578-96.7559Q16.084-90.4379 16.084-78.8473L16.084-22.503Q16.084-10.9124 22.5578-4.57932Q29.0317 1.75379 40.4815 1.75379L48.8653 1.75379L48.8653 19.9186Q48.8653 22.3413 50.0968 23.7537Q51.3282 25.1661 53.58 25.1661ZM155.12 32.7055Q157.191 32.7055 158.322 31.3584Q159.453 30.0113 159.453 27.7193L159.453 12.6003L163.524 12.6003Q173.587 12.6003 179.367 7.02616Q185.147 1.45198 185.147-8.85193L185.147-49.122Q185.147-59.3958 179.367-64.9951Q173.587-70.5944 163.524-70.5944L99.9524-70.5944Q89.6787-70.5944 83.9939-64.9951Q78.3092-59.3958 78.3092-49.122L78.3092-8.75141Q78.3092 1.5525 83.9939 7.07642Q89.6787 12.6003 99.9524 12.6003L129.557 12.6003L149.521 29.7298Q151.19 31.1674 152.431 31.9364Q153.673 32.7055 155.12 32.7055ZM153.321 25.1357L134.603 8.55909Q133.166 7.31256 132.055 6.84009Q130.944 6.36761 129.205 6.36761L100.566 6.36761Q93.0061 6.36761 88.9349 2.4622Q84.8636-1.44321 84.8636-9.29423L84.9138-48.6496Q84.9138-56.4001 88.96-60.396Q93.0061-64.3918 100.566-64.3918L162.861-64.3918Q170.521-64.3918 174.567-60.396Q178.613-56.4001 178.613-48.6496L178.613-9.31434Q178.613-1.54373 174.542 2.41194Q170.471 6.36761 162.861 6.36761L156.487 6.36761Q155.161 6.36761 154.241 7.18691Q153.321 8.00621 153.321 9.65487Z"/>
  </g>
  <g id="Thin-L" transform="matrix(1 0 0 1 760.339 1556)">
   <path d="M49.7259 21.5834Q50.6829 21.5834 51.5445 21.1154Q52.406 20.6475 53.3128 19.8362L77.3926-3.5037L76.5962-8.12188L50.6116 17.0817L50.6116-2.23915Q50.6116-3.28264 50.0094-3.84007Q49.4072-4.3975 48.4683-4.3975L39.0782-4.3975Q29.5655-4.3975 24.7836-9.24631Q20.0016-14.0951 20.0016-23.5545L20.0016-77.057Q20.0016-86.5163 24.8223-91.3682Q29.6429-96.22 39.0782-96.22L121.653-96.22Q131.013-96.22 135.834-91.3682Q140.655-86.5163 140.655-77.057L140.655-65.2223L144.572-65.2223L144.572-77.8431Q144.572-88.4837 138.871-94.2182Q133.169-99.9526 122.373-99.9526L38.283-99.9526Q27.5117-99.9526 21.7979-94.2182Q16.084-88.4837 16.084-77.8431L16.084-22.7744Q16.084-12.1338 21.7979-6.39783Q27.5117-0.661846 38.283-0.661846L46.7211-0.661846L46.7211 18.2358Q46.7211 19.7085 47.5318 20.646Q48.3426 21.5834 49.7259 21.5834ZM150.425 29.5027Q151.573 29.5027 152.229 28.7528Q152.885 28.0028 152.885 26.6879L152.885 11.5689L158.069 11.5689Q166.747 11.5689 171.415 6.9583Q176.082 2.34767 176.082-6.35487L176.082-48.9592Q176.082-57.6587 171.415-62.3081Q166.747-66.9574 158.069-66.9574L92.6512-66.9574Q83.9517-66.9574 79.2576-62.3081Q74.5636-57.6587 74.5636-48.9592L74.5636-6.20007Q74.5636 2.50247 79.2576 7.0357Q83.9517 11.5689 92.6512 11.5689L128.254 11.5689L147.404 28.047Q148.15 28.6975 148.889 29.1001Q149.629 29.5027 150.425 29.5027ZM149.304 24.8372L131.726 9.42764Q130.641 8.50681 129.843 8.17004Q129.044 7.83328 127.929 7.83328L93.2916 7.83328Q85.9492 7.83328 82.1765 4.18571Q78.4038 0.538152 78.4038-6.90574L78.4812-48.4053Q78.4812-55.6944 82.2152-59.4596Q85.9492-63.2247 93.2916-63.2247L157.351-63.2247Q164.848-63.2247 168.582-59.4596Q172.316-55.6944 172.316-48.4053L172.316-6.98013Q172.316 0.383347 168.543 4.10831Q164.771 7.83328 157.351 7.83328L151.141 7.83328Q150.356 7.83328 149.83 8.3133Q149.304 8.79333 149.304 9.68202Z"/>
  </g>
  <g id="Ultralight-L" transform="matrix(1 0 0 1 465.95 1556)">
   <path d="M47.7518 19.7483Q48.3752 19.7483 48.9726 19.3985Q49.57 19.0487 50.0041 18.6406L73.5556-4.61586L74.2051-8.70576L48.2621 16.7202L48.2621-2.87864Q48.2621-3.56068 47.8407-3.95824Q47.4192-4.3558 46.7305-4.3558L37.9938-4.3558Q28.217-4.3558 23.4212-9.28107Q18.6253-14.2063 18.6253-23.8047L18.6253-76.4592Q18.6253-86.0576 23.4668-90.972Q28.3084-95.8864 37.9938-95.8864L119.164-95.8864Q128.747-95.8864 133.589-90.972Q138.43-86.0576 138.43-76.4592L138.43-63.9433L140.972-63.9433L140.972-77.3287Q140.972-87.4827 135.604-92.9183Q130.235-98.3539 119.899-98.3539L37.157-98.3539Q26.7332-98.3539 21.4086-92.9183Q16.084-87.4827 16.084-77.3287L16.084-22.9135Q16.084-12.7594 21.4086-7.32927Q26.7332-1.89912 37.157-1.89912L45.6228-1.89912L45.6228 17.3739Q45.6228 18.36 46.2181 19.0542Q46.8134 19.7483 47.7518 19.7483ZM148.02 27.8623Q148.695 27.8623 149.108 27.4182Q149.52 26.9741 149.52 26.1596L149.52 11.0407L155.274 11.0407Q163.244 11.0407 167.341 6.92355Q171.439 2.80643 171.439-5.07589L171.439-48.8758Q171.439-56.769 167.341-60.9318Q163.244-65.0945 155.274-65.0945L88.9116-65.0945Q81.0184-65.0945 76.8317-60.9318Q72.6451-56.769 72.6451-48.8758L72.6451-4.89328Q72.6451 2.98904 76.8317 7.01485Q81.0184 11.0407 88.9116 11.0407L127.586 11.0407L146.319 27.1851Q146.593 27.4324 147.075 27.6473Q147.557 27.8623 148.02 27.8623ZM147.246 24.6842L130.252 9.8725Q129.348 9.1185 128.71 8.85124Q128.071 8.58398 127.276 8.58398L89.5658 8.58398Q82.3347 8.58398 78.7149 5.06849Q75.0951 1.553 75.0951-5.68237L75.1864-48.2802Q75.1864-55.3329 78.7606-58.98Q82.3347-62.627 89.5658-62.627L154.529-62.627Q161.943-62.627 165.517-58.98Q169.091-55.3329 169.091-48.2802L169.091-5.78456Q169.091 1.37039 165.471 4.97718Q161.851 8.58398 154.529 8.58398L148.402 8.58398Q147.896 8.58398 147.571 8.89023Q147.246 9.19649 147.246 9.69592Z"/>
  </g>
  <g id="Black-M" transform="matrix(1 0 0 1 2841.79 1126)">
   <path d="M48.8532 16.5133Q51.6122 16.5133 55.1948 14.8676Q58.7774 13.2219 61.9859 10.4459L78.4783-3.77301L74.6764-22.9447L52.9367-1.9276L52.9367-14.2634Q52.9367-16.9815 51.287-18.6204Q49.6373-20.2592 46.9685-20.2592L39.6015-20.2592Q35.2039-20.2592 32.5014-22.8849Q29.799-25.5107 29.799-29.8956L29.799-68.5138Q29.799-72.8987 32.5013-75.5299Q35.2036-78.1612 39.6015-78.1612L108.635-78.1612Q113.039-78.1612 115.741-75.5299Q118.443-72.8987 118.443-68.5138L118.443-65.4956L135.781-65.4956L135.781-72.7579Q135.781-82.7686 129.432-88.8212Q123.083-94.8738 112.673-94.8738L35.5692-94.8738Q25.2036-94.8738 18.8323-88.8212Q12.4609-82.7686 12.4609-72.7579L12.4609-23.9496Q12.4609-14.7383 18.3184-9.1397Q24.1758-3.54111 33.7421-3.54111L38.7315-3.54111L38.7315 5.53271Q38.7315 10.4961 41.4928 13.5047Q44.2542 16.5133 48.8532 16.5133ZM136.502 24.3742Q141.097 24.3742 143.859 21.3539Q146.621 18.3335 146.621 13.375L146.621 4.40235L149.479 4.40235Q159.048 4.40235 164.907-1.19514Q170.766-6.79263 170.766-16.006L170.766-49.5968Q170.766-59.604 164.393-65.6581Q158.02-71.7122 147.652-71.7122L91.4767-71.7122Q81.0698-71.7122 74.7193-65.6581Q68.3688-59.604 68.3688-49.5968L68.3688-16.0066Q68.3688-6.79324 74.7193-1.19544Q81.0698 4.40235 91.4767 4.40235L107.281 4.40235L123.412 18.2725Q126.667 21.0382 130.21 22.7062Q133.754 24.3742 136.502 24.3742ZM132.414 6.48841L118.548-6.78555Q116.239-9.07866 113.272-10.4117Q110.304-11.7448 107.597-11.7448L94.9386-11.7448Q90.538-11.7448 87.8371-14.3725Q85.1362-17.0002 85.1362-21.3875L85.1359-45.9227Q85.1359-50.3106 87.837-52.9406Q90.538-55.5706 94.9386-55.5706L144.19-55.5706Q148.59-55.5706 151.291-52.9406Q153.992-50.3106 153.992-45.9227L153.992-21.3817Q153.992-16.9996 151.292-14.3722Q148.591-11.7448 144.19-11.7448L138.389-11.7448Q135.72-11.7448 134.067-10.1056Q132.414-8.46648 132.414-5.7478Z"/>
  </g>
  <g id="Heavy-M" transform="matrix(1 0 0 1 2547.21 1126)">
   <path d="M48.0451 16.2042Q50.6033 16.2042 53.716 14.7639Q56.8286 13.3235 59.8359 10.7215L77.2749-4.47805L73.0312-20.4056L51.6367 0.0760268L51.6367-12.6517Q51.6367-15.2174 50.117-16.7034Q48.5973-18.1893 46.1802-18.1893L38.2956-18.1893Q33.4145-18.1893 30.487-21.0188Q27.5595-23.8483 27.5595-28.8132L27.5595-68.7998Q27.5595-73.7647 30.4883-76.6104Q33.417-79.4561 38.2956-79.4561L107.294-79.4561Q112.186-79.4561 115.115-76.6104Q118.044-73.7647 118.044-68.7998L118.044-64.8923L133.142-64.8923L133.142-72.1172Q133.142-82.1125 126.974-88.0319Q120.805-93.9512 110.499-93.9512L35.1039-93.9512Q24.9283-93.9512 18.6946-88.0319Q12.4609-82.1125 12.4609-72.1172L12.4609-24.2196Q12.4609-14.8351 18.302-9.25653Q24.1431-3.678 33.7081-3.678L39.0398-3.678L39.0398 6.3998Q39.0398 10.8627 41.4756 13.5335Q43.9113 16.2042 48.0451 16.2042ZM133.776 23.4973Q137.887 23.4973 140.318 20.8002Q142.748 18.1031 142.748 13.6613L142.748 4.04186L145.41 4.04186Q154.892 4.04186 160.692-1.48498Q166.492-7.01182 166.492-16.319L166.492-48.7853Q166.492-58.687 160.3-64.564Q154.107-70.441 144.014-70.441L89.9151-70.441Q79.7081-70.441 73.5793-64.564Q67.4504-58.687 67.4504-48.7853L67.4504-16.3141Q67.4504-7.00693 73.5793-1.48254Q79.7081 4.04186 89.9151 4.04186L105.963 4.04186L122.133 17.9269Q125.146 20.4916 128.201 21.9945Q131.256 23.4973 133.776 23.4973ZM130.161 7.75174L115.872-5.70044Q113.76-7.75844 111.215-8.89585Q108.67-10.0333 106.134-10.0333L92.6657-10.0333Q87.8693-10.0333 84.9898-12.8167Q82.1103-15.6002 82.1103-20.4853L82.1128-45.9114Q82.1128-50.7916 84.9911-53.5869Q87.8693-56.3821 92.6657-56.3821L141.261-56.3821Q146.062-56.3821 148.94-53.5869Q151.819-50.7916 151.819-45.9114L151.819-20.4715Q151.819-15.6051 148.939-12.8192Q146.06-10.0333 141.261-10.0333L135.624-10.0333Q133.212-10.0333 131.687-8.54974Q130.161-7.06622 130.161-4.50537Z"/>
  </g>
  <g id="Bold-M" transform="matrix(1 0 0 1 2252.89 1126)">
   <path d="M47.1411 15.8586Q49.4748 15.8586 52.0617 14.6478Q54.6487 13.4371 57.4308 11.0298L75.9286-5.26673L71.1908-17.5653L50.1823 2.31737L50.1823-10.8487Q50.1823-13.244 48.8082-14.5589Q47.434-15.8739 45.2983-15.8739L36.8347-15.8739Q31.4129-15.8739 28.2336-18.9313Q25.0543-21.9888 25.0543-27.6024L25.0543-69.1197Q25.0543-74.7334 28.2364-77.8191Q31.4184-80.9047 36.8347-80.9047L105.794-80.9047Q111.233-80.9047 114.415-77.8191Q117.597-74.7334 117.597-69.1197L117.597-64.2175L130.19-64.2175L130.19-71.4005Q130.19-81.3785 124.223-87.1489Q118.257-92.9192 108.068-92.9192L34.5835-92.9192Q24.6204-92.9192 18.5407-87.1489Q12.4609-81.3785 12.4609-71.4005L12.4609-24.5217Q12.4609-14.9433 18.2838-9.38722Q24.1066-3.83113 33.67-3.83113L39.3847-3.83113L39.3847 7.36978Q39.3847 11.2728 41.4562 13.5657Q43.5278 15.8586 47.1411 15.8586ZM130.727 22.5164Q134.296 22.5164 136.356 20.1809Q138.417 17.8454 138.417 13.9816L138.417 3.63859L140.857 3.63859Q150.243 3.63859 155.978-1.80921Q161.712-7.25702 161.712-16.6692L161.712-47.8775Q161.712-57.6611 155.721-63.34Q149.73-69.019 139.944-69.019L88.1683-69.019Q78.1849-69.019 72.304-63.34Q66.4231-57.6611 66.4231-47.8775L66.4231-16.6581Q66.4231-7.24598 72.304-1.80369Q78.1849 3.63859 88.1683 3.63859L104.489 3.63859L120.702 17.5403Q123.445 19.8801 125.953 21.1983Q128.461 22.5164 130.727 22.5164ZM127.641 9.16496L112.878-4.48659Q110.987-6.28158 108.914-7.20012Q106.842-8.11866 104.497-8.11866L90.1231-8.11866Q84.884-8.11866 81.8048-11.0764Q78.7255-14.0342 78.7255-19.476L78.731-45.8988Q78.731-51.3296 81.8075-54.3098Q84.884-57.29 90.1231-57.29L137.984-57.29Q143.234-57.29 146.31-54.3098Q149.387-51.3296 149.387-45.8988L149.387-19.4533Q149.387-14.0452 146.307-11.0819Q143.228-8.11866 137.984-8.11866L132.531-8.11866Q130.407-8.11866 129.024-6.80925Q127.641-5.49983 127.641-3.11554Z"/>
  </g>
  <g id="Semibold-M" transform="matrix(1 0 0 1 1957.83 1126)">
   <path d="M46.5179 15.6203Q48.6968 15.6203 50.9213 14.5678Q53.1458 13.5154 55.7727 11.2423L75.0005-5.81045L69.9221-15.6072L49.1797 3.86254L49.1797-9.60569Q49.1797-11.8836 47.9059-13.0806Q46.632-14.2776 44.6904-14.2776L35.8276-14.2776Q30.033-14.2776 26.6801-17.4922Q23.3273-20.7068 23.3273-26.7677L23.3273-69.3403Q23.3273-75.4012 26.684-78.6523Q30.0407-81.9034 35.8276-81.9034L104.76-81.9034Q110.575-81.9034 113.932-78.6523Q117.289-75.4012 117.289-69.3403L117.289-63.7522L128.155-63.7522L128.155-70.9064Q128.155-80.8726 122.328-86.5402Q116.5-92.2078 106.391-92.2078L34.2247-92.2078Q24.4082-92.2078 18.4346-86.5402Q12.4609-80.8726 12.4609-70.9064L12.4609-24.73Q12.4609-15.0179 18.2712-9.47732Q24.0814-3.9367 33.6437-3.9367L39.6225-3.9367L39.6225 8.03847Q39.6225 11.5556 41.4429 13.5879Q43.2634 15.6203 46.5179 15.6203ZM128.625 21.8402Q131.82 21.8402 133.625 19.7539Q135.43 17.6677 135.43 14.2023L135.43 3.36059L137.719 3.36059Q147.038 3.36059 152.727-2.03273Q158.416-7.42605 158.416-16.9106L158.416-47.2517Q158.416-56.9538 152.564-62.4962Q146.712-68.0386 137.138-68.0386L86.9641-68.0386Q77.1348-68.0386 71.4248-62.4962Q65.7148-56.9538 65.7148-47.2517L65.7148-16.8953Q65.7148-7.41077 71.4248-2.02509Q77.1348 3.36059 86.9641 3.36059L103.473 3.36059L119.716 17.2737Q122.272 19.4585 124.403 20.6494Q126.534 21.8402 128.625 21.8402ZM125.904 10.1392L110.814-3.64977Q109.075-5.26344 107.328-6.03109Q105.581-6.79875 103.369-6.79875L88.3702-6.79875Q82.826-6.79875 79.609-9.87665Q76.3919-12.9546 76.3919-18.7803L76.3996-45.8901Q76.3996-51.7006 79.6128-54.8082Q82.826-57.9158 88.3702-57.9158L135.724-57.9158Q141.284-57.9158 144.497-54.8082Q147.71-51.7006 147.71-45.8901L147.71-18.7514Q147.71-12.9698 144.493-9.88429Q141.276-6.79875 135.724-6.79875L130.399-6.79875Q128.473-6.79875 127.188-5.60936Q125.904-4.41998 125.904-2.1574Z"/>
  </g>
  <g id="Medium-M" transform="matrix(1 0 0 1 1662.37 1126)">
   <path d="M46.0454 15.4396Q48.1068 15.4396 50.0566 14.5072Q52.0063 13.5748 54.5155 11.4035L74.2968-6.22272L68.9601-14.1225L48.4195 5.03416L48.4195-8.66321Q48.4195-10.852 47.2217-11.9596Q46.0239-13.0672 44.2294-13.0672L35.064-13.0672Q28.9867-13.0672 25.5022-16.401Q22.0177-19.7347 22.0177-26.1347L22.0177-69.5076Q22.0177-75.9076 25.5068-79.2841Q28.996-82.6606 35.064-82.6606L103.975-82.6606Q110.077-82.6606 113.566-79.2841Q117.055-75.9076 117.055-69.5076L117.055-63.3995L126.612-63.3995L126.612-70.5317Q126.612-80.4889 120.89-86.0786Q115.168-91.6684 105.12-91.6684L33.9527-91.6684Q24.2472-91.6684 18.3541-86.0786Q12.4609-80.4889 12.4609-70.5317L12.4609-24.8879Q12.4609-15.0745 18.2616-9.54564Q24.0623-4.01675 33.6238-4.01675L39.8027-4.01675L39.8027 8.5455Q39.8027 11.77 41.4328 13.6048Q43.0629 15.4396 46.0454 15.4396ZM127.031 21.3274Q129.943 21.3274 131.555 19.4302Q133.166 17.533 133.166 14.3698L133.166 3.14979L135.339 3.14979Q144.608 3.14979 150.263-2.20222Q155.917-7.55423 155.917-17.0936L155.917-46.7771Q155.917-56.4176 150.17-61.8564Q144.423-67.2953 135.01-67.2953L86.051-67.2953Q76.3386-67.2953 70.7582-61.8564Q65.1778-56.4176 65.1778-46.7771L65.1778-17.0751Q65.1778-7.53573 70.7582-2.19297Q76.3386 3.14979 86.051 3.14979L102.702 3.14979L118.968 17.0716Q121.383 19.1389 123.228 20.2332Q125.074 21.3274 127.031 21.3274ZM124.586 10.878L109.249-3.01526Q107.626-4.49145 106.126-5.14469Q104.626-5.79794 102.513-5.79794L87.0411-5.79794Q81.2655-5.79794 77.944-8.96694Q74.6225-12.1359 74.6225-18.2527L74.6318-45.8835Q74.6318-51.9818 77.9487-55.1861Q81.2655-58.3904 87.0411-58.3904L134.011-58.3904Q139.805-58.3904 143.122-55.1861Q146.439-51.9818 146.439-45.8835L146.439-18.2192Q146.439-12.1544 143.117-8.97619Q139.796-5.79794 134.011-5.79794L128.782-5.79794Q127.006-5.79794 125.796-4.69956Q124.586-3.60118 124.586-1.4309Z"/>
  </g>
  <g id="Regular-M" transform="matrix(1 0 0 1 1367.29 1126)">
   <path d="M45.429 15.2039Q47.3374 15.2039 48.9287 14.4281Q50.5199 13.6522 52.8756 11.6137L73.3789-6.76046L67.7053-12.186L47.428 6.56235L47.428-7.4339Q47.428-9.5065 46.3294-10.4975Q45.2307-11.4885 43.6281-11.4885L34.068-11.4885Q27.622-11.4885 23.9658-14.9777Q20.3096-18.4668 20.3096-25.3092L20.3096-69.7257Q20.3096-76.5681 23.9715-80.1082Q27.6333-83.6483 34.068-83.6483L102.953-83.6483Q109.427-83.6483 113.089-80.1082Q116.751-76.5681 116.751-69.7257L116.751-62.9393L124.599-62.9393L124.599-70.043Q124.599-79.9885 119.015-85.4766Q113.431-90.9647 103.462-90.9647L33.5978-90.9647Q24.0373-90.9647 18.2491-85.4766Q12.4609-79.9885 12.4609-70.043L12.4609-25.0938Q12.4609-15.1483 18.2491-9.63474Q24.0373-4.12116 33.5978-4.12116L40.0379-4.12116L40.0379 9.20685Q40.0379 12.0496 41.4197 13.6267Q42.8014 15.2039 45.429 15.2039ZM124.952 20.6586Q127.494 20.6586 128.854 19.0079Q130.213 17.3572 130.213 14.5881L130.213 2.87484L132.235 2.87484Q141.439 2.87484 147.048-2.42329Q152.658-7.72141 152.658-17.3323L152.658-46.1582Q152.658-55.7181 147.048-61.0219Q141.439-66.3257 132.235-66.3257L84.86-66.3257Q75.3001-66.3257 69.8887-61.0219Q64.4773-55.7181 64.4773-46.1582L64.4773-17.3096Q64.4773-7.69872 69.8887-2.41194Q75.3001 2.87484 84.86 2.87484L101.697 2.87484L117.992 16.808Q120.223 18.722 121.696 19.6903Q123.168 20.6586 124.952 20.6586ZM122.868 11.8415L107.208-2.18763Q105.735-3.4845 104.557-3.98851Q103.379-4.49253 101.397-4.49253L85.3075-4.49253Q79.2301-4.49253 75.7724-7.78036Q72.3147-11.0682 72.3147-17.5646L72.326-45.8749Q72.326-52.3487 75.7781-55.679Q79.2301-59.0093 85.3075-59.0093L131.777-59.0093Q137.877-59.0093 141.329-55.679Q144.781-52.3487 144.781-45.8749L144.781-17.525Q144.781-11.0909 141.323-7.7917Q137.865-4.49253 131.777-4.49253L126.673-4.49253Q125.093-4.49253 123.981-3.51286Q122.868-2.53319 122.868-0.483284Z"/>
  </g>
  <g id="Light-M" transform="matrix(1 0 0 1 1073.65 1126)">
   <path d="M42.8163 12.7752Q44.2832 12.7752 45.5248 12.1558Q46.7665 11.5363 48.4966 10.0313L68.3007-8.23238L64.5406-12.9587L44.3185 6.08397L44.3185-8.28025Q44.3185-9.87448 43.4591-10.6539Q42.5997-11.4333 41.3283-11.4333L32.6329-11.4333Q25.8373-11.4333 22.1627-15.0237Q18.4881-18.614 18.4881-25.6404L18.4881-68.9346Q18.4881-75.9609 22.1776-79.5838Q25.867-83.2067 32.6329-83.2067L99.6592-83.2067Q106.428-83.2067 110.117-79.5838Q113.807-75.9609 113.807-68.9346L113.807-61.2466L119.834-61.2466L119.834-69.3623Q119.834-78.6638 114.691-83.7563Q109.548-88.8488 100.187-88.8488L32.1075-88.8488Q23.007-88.8488 17.734-83.7563Q12.4609-78.6638 12.4609-69.3623L12.4609-25.2778Q12.4609-15.9763 17.734-10.8675Q23.007-5.75867 32.1075-5.75867L38.5844-5.75867L38.5844 8.06611Q38.5844 10.2649 39.681 11.5201Q40.7775 12.7752 42.8163 12.7752ZM121.769 18.4875Q123.686 18.4875 124.723 17.2416Q125.76 15.9957 125.76 13.889L125.76 2.17567L128.537 2.17567Q136.802 2.17567 141.657-2.46928Q146.512-7.11424 146.512-15.6396L146.512-46.0478Q146.512-54.5406 141.657-59.2004Q136.802-63.8603 128.537-63.8603L79.9107-63.8603Q71.4179-63.8603 66.6781-59.2004Q61.9383-54.5406 61.9383-46.0478L61.9383-15.5801Q61.9383-7.05475 66.6781-2.43954Q71.4179 2.17567 79.9107 2.17567L100.814 2.17567L116.557 15.6673Q118.163 17.0477 119.295 17.7676Q120.427 18.4875 121.769 18.4875ZM120.145 11.6391L105.257-1.59887Q104.024-2.67494 103.058-3.08696Q102.091-3.49898 100.532-3.49898L80.3766-3.49898Q74.4464-3.49898 71.191-6.61202Q67.9357-9.72505 67.9357-15.9455L67.9654-45.7094Q67.9654-51.8703 71.2059-55.0442Q74.4464-58.2182 80.3766-58.2182L128.042-58.2182Q134.031-58.2182 137.272-55.0442Q140.512-51.8703 140.512-45.7094L140.512-15.9427Q140.512-9.78454 137.257-6.64176Q134.002-3.49898 128.042-3.49898L123.049-3.49898Q121.837-3.49898 120.991-2.7493Q120.145-1.99962 120.145-0.464885Z"/>
  </g>
  <g id="Thin-M" transform="matrix(1 0 0 1 780.999 1126)">
   <path d="M39.3609 9.56311Q40.2437 9.56311 41.023 9.15051Q41.8024 8.73791 42.7051 7.93861L61.5845-10.1791L60.3551-13.9808L40.2061 5.45128L40.2061-9.39962Q40.2061-10.3612 39.663-10.8607Q39.1199-11.3603 38.2865-11.3603L30.7348-11.3603Q23.4769-11.3603 19.7779-15.0845Q16.079-18.8087 16.079-26.0784L16.079-67.8882Q16.079-75.1579 19.805-78.8903Q23.5309-82.6227 30.7348-82.6227L95.3034-82.6227Q102.461-82.6227 106.187-78.8903Q109.913-75.1579 109.913-67.8882L109.913-59.0079L113.531-59.0079L113.531-68.4619Q113.531-76.9117 108.973-81.4811Q104.414-86.0504 95.8559-86.0504L30.1364-86.0504Q21.6443-86.0504 17.0526-81.4811Q12.4609-76.9117 12.4609-68.4619L12.4609-25.5212Q12.4609-17.0713 17.0526-12.4979Q21.6443-7.92441 30.1364-7.92441L36.662-7.92441L36.662 6.55739Q36.662 7.90449 37.3814 8.7338Q38.1008 9.56311 39.3609 9.56311ZM117.559 15.6161Q118.649 15.6161 119.26 14.9055Q119.871 14.195 119.871 12.9643L119.871 1.25098L123.646 1.25098Q130.67 1.25098 134.527-2.53012Q138.385-6.31121 138.385-13.4009L138.385-45.9018Q138.385-52.9832 134.527-56.7913Q130.67-60.5995 123.646-60.5995L73.3648-60.5995Q66.2834-60.5995 62.4318-56.7913Q58.5801-52.9832 58.5801-45.9018L58.5801-13.2927Q58.5801-6.20305 62.4318-2.47604Q66.2834 1.25098 73.3648 1.25098L99.6462 1.25098L114.659 14.1586Q115.437 14.8333 116.119 15.2247Q116.801 15.6161 117.559 15.6161ZM116.543 11.3714L102.678-0.820173Q101.761-1.60424 101.074-1.89459Q100.388-2.18494 99.3888-2.18494L73.855-2.18494Q68.1195-2.18494 65.1318-5.0668Q62.1442-7.94866 62.1442-13.8041L62.1982-45.4903Q62.1982-51.2376 65.1589-54.2047Q68.1195-57.1718 73.855-57.1718L123.102-57.1718Q128.945-57.1718 131.906-54.2047Q134.867-51.2376 134.867-45.4903L134.867-13.8499Q134.867-8.05682 131.879-5.12088Q128.891-2.18494 123.102-2.18494L118.255-2.18494Q117.53-2.18494 117.037-1.73944Q116.543-1.29393 116.543-0.44055Z"/>
  </g>
  <g id="Ultralight-M" transform="matrix(1 0 0 1 486.37 1126)">
   <path d="M37.591 7.91788Q38.1747 7.91788 38.7172 7.61122Q39.2597 7.30457 39.7387 6.86672L58.1445-11.1762L58.2114-14.5042L38.0997 5.12722L38.0997-9.97296Q38.0997-10.6104 37.7186-10.9667Q37.3376-11.3229 36.7285-11.3229L29.7626-11.3229Q22.2679-11.3229 18.5565-15.1157Q14.8451-18.9084 14.8451-26.3027L14.8451-67.3523Q14.8451-74.7466 18.5898-78.5351Q22.3344-82.3236 29.7626-82.3236L93.0723-82.3236Q100.43-82.3236 104.174-78.5351Q107.919-74.7466 107.919-67.3523L107.919-57.8612L110.303-57.8612L110.303-68.0007Q110.303-76.0143 106.044-80.3157Q101.784-84.6171 93.6373-84.6171L29.1269-84.6171Q20.9463-84.6171 16.7036-80.3157Q12.4609-76.0143 12.4609-68.0007L12.4609-25.6458Q12.4609-17.6322 16.7036-13.3329Q20.9463-9.03369 29.1269-9.03369L35.6773-9.03369L35.6773 5.78463Q35.6773 6.69549 36.2035 7.30669Q36.7298 7.91788 37.591 7.91788ZM115.403 14.1454Q116.069 14.1454 116.462 13.709Q116.855 13.2726 116.855 12.4906L116.855 0.77735L121.141 0.77735Q127.529 0.77735 130.875-2.56128Q134.222-5.8999 134.222-12.2542L134.222-45.827Q134.222-52.1855 130.875-55.5574Q127.529-58.9293 121.141-58.9293L70.012-58.9293Q63.6535-58.9293 60.2568-55.5574Q56.8601-52.1855 56.8601-45.827L56.8601-12.1211Q56.8601-5.76682 60.2568-2.49474Q63.6535 0.77735 70.012 0.77735L99.048 0.77735L113.687 13.3858Q114.041 13.699 114.493 13.9222Q114.944 14.1454 115.403 14.1454ZM114.699 11.2343L101.357-0.42133Q100.602-1.05583 100.059-1.28386Q99.5155-1.51189 98.803-1.51189L70.5147-1.51189Q64.8789-1.51189 62.0283-4.27535Q59.1778-7.0388 59.1778-12.7073L59.2443-45.3782Q59.2443-50.9136 62.0616-53.7747Q64.8789-56.6358 70.5147-56.6358L120.572-56.6358Q126.341-56.6358 129.158-53.7747Q131.975-50.9136 131.975-45.3782L131.975-12.778Q131.975-7.17188 129.125-4.34189Q126.274-1.51189 120.572-1.51189L115.8-1.51189Q115.324-1.51189 115.011-1.22219Q114.699-0.93248 114.699-0.428087Z"/>
  </g>
  <g id="Black-S" transform="matrix(1 0 0 1 2861.13 696)">
   <path d="M38.3789 5.27344Q40.5762 5.27344 43.5059 3.93066Q46.4355 2.58789 48.9746 0.390625L61.5723-10.4492L58.8379-26.416L41.6992-9.76562L41.6992-19.3359Q41.6992-21.4844 40.3809-22.8027Q39.0625-24.1211 36.9141-24.1211L31.3477-24.1211Q28.0273-24.1211 25.9766-26.123Q23.9258-28.125 23.9258-31.3965L23.9258-61.1816Q23.9258-64.4531 25.9766-66.4551Q28.0273-68.457 31.3477-68.457L85.3516-68.457Q88.6719-68.457 90.7227-66.4551Q92.7734-64.4531 92.7734-61.1816L92.7734-59.0332L106.934-59.0332L106.934-64.7949Q106.934-72.6074 101.929-77.3682Q96.9238-82.1289 88.7695-82.1289L27.9297-82.1289Q19.7754-82.1289 14.7705-77.3682Q9.76562-72.6074 9.76562-64.7949L9.76562-26.3184Q9.76562-19.1895 14.3311-14.8193Q18.8965-10.4492 26.3672-10.4492L30.1758-10.4492L30.1758-3.61328Q30.1758 0.390625 32.4219 2.83203Q34.668 5.27344 38.3789 5.27344ZM107.617 11.6211Q111.328 11.6211 113.574 9.17969Q115.82 6.73828 115.82 2.73438L115.82-4.10156L118.164-4.10156Q125.635-4.10156 130.2-8.47168Q134.766-12.8418 134.766-19.9707L134.766-46.7285Q134.766-54.541 129.761-59.3018Q124.756-64.0625 116.602-64.0625L71.875-64.0625Q63.7207-64.0625 58.7158-59.3018Q53.7109-54.541 53.7109-46.7285L53.7109-19.9707Q53.7109-12.8418 58.7158-8.47168Q63.7207-4.10156 71.875-4.10156L84.4238-4.10156L97.0215 6.73828Q99.6094 8.93555 102.515 10.2783Q105.42 11.6211 107.617 11.6211ZM104.297-2.92969L93.6035-13.2324Q91.748-15.0879 89.3066-16.1865Q86.8652-17.2852 84.7168-17.2852L74.8047-17.2852Q71.4844-17.2852 69.4336-19.2871Q67.3828-21.2891 67.3828-24.5605L67.3828-43.6035Q67.3828-46.875 69.4336-48.877Q71.4844-50.8789 74.8047-50.8789L113.672-50.8789Q116.992-50.8789 119.043-48.877Q121.094-46.875 121.094-43.6035L121.094-24.5605Q121.094-21.2891 119.043-19.2871Q116.992-17.2852 113.672-17.2852L109.082-17.2852Q106.934-17.2852 105.615-15.9668Q104.297-14.6484 104.297-12.5Z"/>
  </g>
  <g id="Heavy-S" transform="matrix(1 0 0 1 2565.86 696)">
   <path d="M38.0216 5.31954Q40.1037 5.31954 42.6761 4.13234Q45.2485 2.94515 47.6954 0.828555L61.192-10.8641L57.8353-24.1457L40.9847-7.99086L40.9847-17.8493Q40.9847-19.9286 39.747-21.1432Q38.5093-22.3579 36.5338-22.3579L30.4142-22.3579Q26.7251-22.3579 24.4841-24.5211Q22.2432-26.6844 22.2432-30.4284L22.2432-61.5274Q22.2432-65.2714 24.4841-67.4462Q26.7251-69.621 30.4142-69.621L84.6255-69.621Q88.3261-69.621 90.5671-67.4462Q92.808-65.2714 92.808-61.5274L92.808-58.7336L105.286-58.7336L105.286-64.3339Q105.286-72.2156 100.379-76.9129Q95.4717-81.6103 87.329-81.6103L27.7222-81.6103Q19.6717-81.6103 14.7186-76.9129Q9.76562-72.2156 9.76562-64.3339L9.76562-26.5258Q9.76562-19.1664 14.3829-14.7617Q19.0002-10.357 26.5285-10.357L30.6252-10.357L30.6252-2.7259Q30.6252 0.932275 32.6293 3.12591Q34.6334 5.31954 38.0216 5.31954ZM105.693 11.1486Q109.069 11.1486 111.073 8.93191Q113.077 6.71523 113.077 3.06858L113.077-4.32053L115.156-4.32053Q122.673-4.32053 127.285-8.71369Q131.896-13.1069 131.896-20.4547L131.896-46.0486Q131.896-53.9072 126.949-58.5988Q122.002-63.2904 113.962-63.2904L71.172-63.2904Q63.0523-63.2904 58.1511-58.5988Q53.25-53.9072 53.25-46.0486L53.25-20.4547Q53.25-13.1069 58.1511-8.71369Q63.0523-4.32053 71.172-4.32053L83.4097-4.32053L96.1111 6.58846Q98.5722 8.68201 101.103 9.9153Q103.634 11.1486 105.693 11.1486ZM102.718-1.82334L91.5637-12.3796Q89.8465-14.0622 87.7393-15.0053Q85.6321-15.9483 83.5759-15.9483L73.4909-15.9483Q69.8133-15.9483 67.5839-18.1059Q65.3545-20.2634 65.3545-23.9958L65.3545-43.615Q65.3545-47.3475 67.5839-49.5108Q69.8133-51.6741 73.4909-51.6741L111.644-51.6741Q115.321-51.6741 117.551-49.5108Q119.78-47.3475 119.78-43.615L119.78-23.9843Q119.78-20.2634 117.551-18.1059Q115.321-15.9483 111.644-15.9483L107.18-15.9483Q105.205-15.9483 103.961-14.7337Q102.718-13.519 102.718-11.4397Z"/>
  </g>
  <g id="Bold-S" transform="matrix(1 0 0 1 2270.75 696)">
   <path d="M37.6221 5.37109Q39.5752 5.37109 41.748 4.35791Q43.9209 3.34473 46.2646 1.31836L60.7666-11.3281L56.7139-21.6064L40.1855-6.00586L40.1855-16.1865Q40.1855-18.1885 39.0381-19.2871Q37.8906-20.3857 36.1084-20.3857L29.3701-20.3857Q25.2686-20.3857 22.8149-22.7295Q20.3613-25.0732 20.3613-29.3457L20.3613-61.9141Q20.3613-66.1865 22.8149-68.5547Q25.2686-70.9229 29.3701-70.9229L83.8135-70.9229Q87.9395-70.9229 90.3931-68.5547Q92.8467-66.1865 92.8467-61.9141L92.8467-58.3984L103.442-58.3984L103.442-63.8184Q103.442-71.7773 98.645-76.4038Q93.8477-81.0303 85.7178-81.0303L27.4902-81.0303Q19.5557-81.0303 14.6606-76.4038Q9.76562-71.7773 9.76562-63.8184L9.76562-26.7578Q9.76562-19.1406 14.4409-14.6973Q19.1162-10.2539 26.709-10.2539L31.1279-10.2539L31.1279-1.7334Q31.1279 1.53809 32.8613 3.45459Q34.5947 5.37109 37.6221 5.37109ZM103.54 10.6201Q106.543 10.6201 108.276 8.65479Q110.01 6.68945 110.01 3.44238L110.01-4.56543L111.792-4.56543Q119.36-4.56543 124.023-8.98438Q128.687-13.4033 128.687-20.9961L128.687-45.2881Q128.687-53.1982 123.804-57.8125Q118.921-62.4268 111.011-62.4268L70.3857-62.4268Q62.3047-62.4268 57.5195-57.8125Q52.7344-53.1982 52.7344-45.2881L52.7344-20.9961Q52.7344-13.4033 57.5195-8.98438Q62.3047-4.56543 70.3857-4.56543L82.2754-4.56543L95.0928 6.4209Q97.4121 8.39844 99.5239 9.50928Q101.636 10.6201 103.54 10.6201ZM100.952-0.585938L89.2822-11.4258Q87.7197-12.915 85.9863-13.6841Q84.2529-14.4531 82.2998-14.4531L72.0215-14.4531Q67.9443-14.4531 65.5151-16.7847Q63.0859-19.1162 63.0859-23.3643L63.0859-43.6279Q63.0859-47.876 65.5151-50.2197Q67.9443-52.5635 72.0215-52.5635L109.375-52.5635Q113.452-52.5635 115.881-50.2197Q118.311-47.876 118.311-43.6279L118.311-23.3398Q118.311-19.1162 115.881-16.7847Q113.452-14.4531 109.375-14.4531L105.054-14.4531Q103.271-14.4531 102.112-13.3545Q100.952-12.2559 100.952-10.2539Z"/>
  </g>
  <g id="Semibold-S" transform="matrix(1 0 0 1 1975.15 696)">
   <path d="M37.3466 5.40664Q39.2108 5.40664 41.1082 4.51343Q43.0056 3.62021 45.2782 1.65605L60.4733-11.648L55.9407-19.8558L39.6346-4.6373L39.6346-15.0401Q39.6346-16.9888 38.5493-18.0074Q37.4641-19.0261 35.8151-19.0261L28.6503-19.0261Q24.2644-19.0261 21.6641-21.4942Q19.0639-23.9624 19.0639-28.5992L19.0639-62.1807Q19.0639-66.8175 21.6641-69.3189Q24.2644-71.8204 28.6503-71.8204L83.2536-71.8204Q87.6729-71.8204 90.2731-69.3189Q92.8733-66.8175 92.8733-62.1807L92.8733-58.1674L102.172-58.1674L102.172-63.4629Q102.172-71.4752 97.4498-76.0528Q92.7279-80.6304 84.6069-80.6304L27.3303-80.6304Q19.4757-80.6304 14.6207-76.0528Q9.76562-71.4752 9.76562-63.4629L9.76562-26.9178Q9.76562-19.1229 14.4809-14.6528Q19.1962-10.1828 26.8334-10.1828L31.4745-10.1828L31.4745-1.04912Q31.4745 1.95576 33.0213 3.6812Q34.5681 5.40664 37.3466 5.40664ZM102.056 10.2558Q104.801 10.2558 106.348 8.46372Q107.895 6.67168 107.895 3.7001L107.895-4.73428L109.473-4.73428Q117.076-4.73428 121.775-9.171Q126.474-13.6077 126.474-21.3693L126.474-44.7638Q126.474-52.7095 121.635-57.2704Q116.797-61.8313 108.976-61.8313L69.8437-61.8313Q61.7893-61.8313 57.0841-57.2704Q52.3789-52.7095 52.3789-44.7638L52.3789-21.3693Q52.3789-13.6077 57.0841-9.171Q61.7893-4.73428 69.8437-4.73428L81.4934-4.73428L94.3907 6.30537Q96.6123 8.20293 98.4353 9.22935Q100.258 10.2558 102.056 10.2558ZM99.7347 0.267187L87.7093-10.7682Q86.2534-12.1241 84.7777-12.7732Q83.3021-13.4223 81.42-13.4223L71.0084-13.4223Q66.6558-13.4223 64.0888-15.8738Q61.5219-18.3253 61.5219-22.9288L61.5219-43.6368Q61.5219-48.2403 64.0888-50.7085Q66.6558-53.1767 71.0084-53.1767L107.811-53.1767Q112.164-53.1767 114.731-50.7085Q117.297-48.2403 117.297-43.6368L117.297-22.8955Q117.297-18.3253 114.731-15.8738Q112.164-13.4223 107.811-13.4223L103.587-13.4223Q101.938-13.4223 100.837-12.4036Q99.7347-11.385 99.7347-9.43633Z"/>
  </g>
  <g id="Medium-S" transform="matrix(1 0 0 1 1679.27 696)">
   <path d="M37.1377 5.43359Q38.9346 5.43359 40.623 4.63135Q42.3115 3.8291 44.5303 1.91211L60.251-11.8906L55.3545-18.5283L39.2168-3.59961L39.2168-14.1709Q39.2168-16.0791 38.1787-17.0371Q37.1406-17.9951 35.5928-17.9951L28.1045-17.9951Q23.5029-17.9951 20.7915-20.5576Q18.0801-23.1201 18.0801-28.0332L18.0801-62.3828Q18.0801-67.2959 20.7915-69.8984Q23.5029-72.501 28.1045-72.501L82.8291-72.501Q87.4707-72.501 90.1821-69.8984Q92.8936-67.2959 92.8936-62.3828L92.8936-57.9922L101.208-57.9922L101.208-63.1934Q101.208-71.2461 96.5435-75.7866Q91.8789-80.3271 83.7646-80.3271L27.209-80.3271Q19.415-80.3271 14.5903-75.7866Q9.76562-71.2461 9.76562-63.1934L9.76562-27.0391Q9.76562-19.1094 14.5112-14.6191Q19.2568-10.1289 26.9277-10.1289L31.7373-10.1289L31.7373-0.530273Q31.7373 2.27246 33.1426 3.85303Q34.5479 5.43359 37.1377 5.43359ZM100.931 9.97949Q103.48 9.97949 104.886 8.31885Q106.291 6.6582 106.291 3.89551L106.291-4.8623L107.714-4.8623Q115.345-4.8623 120.07-9.3125Q124.796-13.7627 124.796-21.6523L124.796-44.3662Q124.796-52.3389 119.991-56.8594Q115.187-61.3799 107.433-61.3799L69.4326-61.3799Q61.3984-61.3799 56.7539-56.8594Q52.1094-52.3389 52.1094-44.3662L52.1094-21.6523Q52.1094-13.7627 56.7539-9.3125Q61.3984-4.8623 69.4326-4.8623L80.9004-4.8623L93.8584 6.21777Q96.0059 8.05469 97.6099 9.01709Q99.2139 9.97949 100.931 9.97949ZM98.8115 0.914062L86.5166-10.2695Q85.1416-11.5244 83.8613-12.0825Q82.5811-12.6406 80.7529-12.6406L70.2402-12.6406Q65.6787-12.6406 63.0073-15.1831Q60.3359-17.7256 60.3359-22.5986L60.3359-43.6436Q60.3359-48.5166 63.0073-51.0791Q65.6787-53.6416 70.2402-53.6416L106.625-53.6416Q111.187-53.6416 113.858-51.0791Q116.529-48.5166 116.529-43.6436L116.529-22.5586Q116.529-17.7256 113.858-15.1831Q111.187-12.6406 106.625-12.6406L102.476-12.6406Q100.928-12.6406 99.8696-11.6826Q98.8115-10.7246 98.8115-8.81641Z"/>
  </g>
  <g id="Regular-S" transform="matrix(1 0 0 1 1383.66 696)">
   <path d="M36.8652 5.46875Q38.5742 5.46875 39.9902 4.78516Q41.4062 4.10156 43.5547 2.24609L59.9609-12.207L54.5898-16.7969L38.6719-2.24609L38.6719-13.0371Q38.6719-14.8926 37.6953-15.7715Q36.7188-16.6504 35.3027-16.6504L27.3926-16.6504Q22.5098-16.6504 19.6533-19.3359Q16.7969-22.0215 16.7969-27.2949L16.7969-62.6465Q16.7969-67.9199 19.6533-70.6543Q22.5098-73.3887 27.3926-73.3887L82.2754-73.3887Q87.207-73.3887 90.0635-70.6543Q92.9199-67.9199 92.9199-62.6465L92.9199-57.7637L99.9512-57.7637L99.9512-62.8418Q99.9512-70.9473 95.3613-75.4395Q90.7715-79.9316 82.666-79.9316L27.0508-79.9316Q19.3359-79.9316 14.5508-75.4395Q9.76562-70.9473 9.76562-62.8418L9.76562-27.1973Q9.76562-19.0918 14.5508-14.5752Q19.3359-10.0586 27.0508-10.0586L32.0801-10.0586L32.0801 0.146484Q32.0801 2.68555 33.3008 4.07715Q34.5215 5.46875 36.8652 5.46875ZM99.4629 9.61914Q101.758 9.61914 102.979 8.12988Q104.199 6.64062 104.199 4.15039L104.199-5.0293L105.42-5.0293Q113.086-5.0293 117.847-9.49707Q122.607-13.9648 122.607-22.0215L122.607-43.8477Q122.607-51.8555 117.847-56.3232Q113.086-60.791 105.42-60.791L68.8965-60.791Q60.8887-60.791 56.3232-56.3232Q51.7578-51.8555 51.7578-43.8477L51.7578-22.0215Q51.7578-13.9648 56.3232-9.49707Q60.8887-5.0293 68.8965-5.0293L80.127-5.0293L93.1641 6.10352Q95.2148 7.86133 96.5332 8.74023Q97.8516 9.61914 99.4629 9.61914ZM97.6074 1.75781L84.9609-9.61914Q83.6914-10.7422 82.666-11.1816Q81.6406-11.6211 79.8828-11.6211L69.2383-11.6211Q64.4043-11.6211 61.5967-14.2822Q58.7891-16.9434 58.7891-22.168L58.7891-43.6523Q58.7891-48.877 61.5967-51.5625Q64.4043-54.248 69.2383-54.248L105.078-54.248Q109.912-54.248 112.72-51.5625Q115.527-48.877 115.527-43.6523L115.527-22.1191Q115.527-16.9434 112.72-14.2822Q109.912-11.6211 105.078-11.6211L101.025-11.6211Q99.6094-11.6211 98.6084-10.7422Q97.6074-9.86328 97.6074-8.00781Z"/>
  </g>
  <g id="Light-S" transform="matrix(1 0 0 1 1089.66 696)">
   <path d="M34.554 3.32031Q35.8724 3.32031 36.9792 2.77507Q38.0859 2.22982 39.681 0.846354L55.4688-13.5091L51.7904-17.4805L35.9212-2.66927L35.9212-13.7858Q35.9212-15.2181 35.1562-15.9098Q34.3913-16.6016 33.2682-16.6016L26.123-16.6016Q20.931-16.6016 18.0583-19.3766Q15.1855-22.1517 15.1855-27.5879L15.1855-61.9466Q15.1855-67.3828 18.0664-70.1904Q20.9473-72.998 26.123-72.998L79.362-72.998Q84.554-72.998 87.4349-70.1904Q90.3158-67.3828 90.3158-61.9466L90.3158-56.2663L95.7357-56.2663L95.7357-62.2396Q95.7357-69.7754 91.5365-73.9176Q87.3372-78.0599 79.7689-78.0599L25.7324-78.0599Q18.4245-78.0599 14.0951-73.9176Q9.76562-69.7754 9.76562-62.2396L9.76562-27.36Q9.76562-19.8242 14.0951-15.6657Q18.4245-11.5072 25.7324-11.5072L30.7943-11.5072L30.7943-0.86263Q30.7943 1.10677 31.7627 2.21354Q32.7311 3.32031 34.554 3.32031ZM96.6471 7.69857Q98.3887 7.69857 99.3245 6.56738Q100.26 5.4362 100.26 3.5319L100.26-5.64779L102.148-5.64779Q108.984-5.64779 113.078-9.53776Q117.171-13.4277 117.171-20.5241L117.171-43.75Q117.171-50.8138 113.078-54.7119Q108.984-58.61 102.148-58.61L64.5182-58.61Q57.4544-58.61 53.4831-54.7119Q49.5117-50.8138 49.5117-43.75L49.5117-20.4915Q49.5117-13.3952 53.4831-9.52148Q57.4544-5.64779 64.5182-5.64779L79.3457-5.64779L91.8945 5.0944Q93.3919 6.38021 94.4092 7.03939Q95.4264 7.69857 96.6471 7.69857ZM95.1986 1.57878L83.2357-9.09831Q82.1777-10.026 81.3395-10.3841Q80.5013-10.7422 79.1178-10.7422L64.8763-10.7422Q60.1725-10.7422 57.5439-13.2487Q54.9154-15.7552 54.9154-20.7357L54.9316-43.5059Q54.9316-48.4538 57.5521-51.001Q60.1725-53.5482 64.8763-53.5482L101.774-53.5482Q106.51-53.5482 109.131-51.001Q111.751-48.4538 111.751-43.5059L111.751-20.7194Q111.751-15.7878 109.123-13.265Q106.494-10.7422 101.774-10.7422L97.819-10.7422Q96.7285-10.7422 95.9635-10.0667Q95.1986-9.39128 95.1986-7.99154Z"/>
  </g>
  <g id="Thin-S" transform="matrix(1 0 0 1 796.549 696)">
   <path d="M31.4973 0.478831Q32.299 0.478831 32.9968 0.116557Q33.6946-0.245716 34.5577-1.00491L49.5275-15.2312L48.0878-18.3846L32.2833-3.22896L32.2833-14.776Q32.2833-15.6486 31.7981-16.0928Q31.313-16.537 30.5774-16.537L24.444-16.537Q18.8429-16.537 15.9487-19.4304Q13.0544-22.3239 13.0544-27.9754L13.0544-61.021Q13.0544-66.6724 15.9676-69.5769Q18.8807-72.4814 24.444-72.4814L75.5088-72.4814Q81.0452-72.4814 83.9584-69.5769Q86.8715-66.6724 86.8715-61.021L86.8715-54.2858L90.1603-54.2858L90.1603-61.4431Q90.1603-68.2255 86.4778-71.9049Q82.7952-75.5844 75.9372-75.5844L23.9888-75.5844Q17.219-75.5844 13.4923-71.9049Q9.76562-68.2255 9.76562-61.4431L9.76562-27.5753Q9.76562-20.7929 13.4923-17.108Q17.219-13.423 23.9888-13.423L29.0937-13.423L29.0937-2.19727Q29.0937-0.981288 29.7285-0.251229Q30.3632 0.478831 31.4973 0.478831ZM92.9231 5.15846Q93.9327 5.15846 94.4919 4.50085Q95.051 3.84325 95.051 2.7139L95.051-6.46579L97.8216-6.46579Q103.56-6.46579 106.771-9.59158Q109.981-12.7174 109.981-18.5437L109.981-43.6208Q109.981-49.4361 106.771-52.5808Q103.56-55.7255 97.8216-55.7255L58.7276-55.7255Q52.9124-55.7255 49.7267-52.5808Q46.5411-49.4361 46.5411-43.6208L46.5411-18.4681Q46.5411-12.6418 49.7267-9.55377Q52.9124-6.46579 58.7276-6.46579L78.3124-6.46579L90.2155 3.75977Q90.981 4.42131 91.6 4.78988Q92.219 5.15846 92.9231 5.15846ZM92.0127 1.34199L80.9539-8.40946Q80.1758-9.07888 79.5851-9.32932Q78.9945-9.57976 78.1061-9.57976L59.1072-9.57976Q54.5757-9.57976 52.1839-11.8818Q49.7921-14.1838 49.7921-18.8414L49.8299-43.3121Q49.8299-47.8941 52.2028-50.2583Q54.5757-52.6225 59.1072-52.6225L97.4042-52.6225Q102.011-52.6225 104.384-50.2583Q106.757-47.8941 106.757-43.3121L106.757-18.8681Q106.757-14.2594 104.365-11.9196Q101.974-9.57976 97.4042-9.57976L93.5783-9.57976Q92.9183-9.57976 92.4655-9.17339Q92.0127-8.76701 92.0127-7.97001Z"/>
  </g>
  <g id="Ultralight-S" transform="matrix(1 0 0 1 501.679 696)">
   <path d="M29.9316-0.976562Q30.4688-0.976562 30.957-1.24512Q31.4453-1.51367 31.9336-1.95312L46.4844-16.1133L46.1914-18.8477L30.4199-3.51562L30.4199-15.2832Q30.4199-15.8691 30.0781-16.1865Q29.7363-16.5039 29.1992-16.5039L23.584-16.5039Q17.7734-16.5039 14.8682-19.458Q11.9629-22.4121 11.9629-28.1738L11.9629-60.5469Q11.9629-66.3086 14.8926-69.2627Q17.8223-72.2168 23.584-72.2168L73.5352-72.2168Q79.248-72.2168 82.1777-69.2627Q85.1074-66.3086 85.1074-60.5469L85.1074-53.2715L87.3047-53.2715L87.3047-61.0352Q87.3047-67.4316 83.8867-70.874Q80.4688-74.3164 73.9746-74.3164L23.0957-74.3164Q16.6016-74.3164 13.1836-70.874Q9.76562-67.4316 9.76562-61.0352L9.76562-27.6855Q9.76562-21.2891 13.1836-17.8467Q16.6016-14.4043 23.0957-14.4043L28.2227-14.4043L28.2227-2.88086Q28.2227-2.05078 28.6865-1.51367Q29.1504-0.976562 29.9316-0.976562ZM91.0156 3.85742Q91.6504 3.85742 92.0166 3.44238Q92.3828 3.02734 92.3828 2.29492L92.3828-6.88477L95.6055-6.88477Q100.781-6.88477 103.54-9.61914Q106.299-12.3535 106.299-17.5293L106.299-43.5547Q106.299-48.7305 103.54-51.4893Q100.781-54.248 95.6055-54.248L55.7617-54.248Q50.5859-54.248 47.8027-51.4893Q45.0195-48.7305 45.0195-43.5547L45.0195-17.4316Q45.0195-12.2559 47.8027-9.57031Q50.5859-6.88477 55.7617-6.88477L77.7832-6.88477L89.3555 3.07617Q89.7461 3.41797 90.1611 3.6377Q90.5762 3.85742 91.0156 3.85742ZM90.3809 1.2207L79.7852-8.05664Q79.1504-8.59375 78.6865-8.78906Q78.2227-8.98438 77.5879-8.98438L56.1523-8.98438Q51.709-8.98438 49.4385-11.1816Q47.168-13.3789 47.168-17.8711L47.2168-43.2129Q47.2168-47.6074 49.4629-49.8779Q51.709-52.1484 56.1523-52.1484L95.166-52.1484Q99.707-52.1484 101.953-49.8779Q104.199-47.6074 104.199-43.2129L104.199-17.9199Q104.199-13.4766 101.929-11.2305Q99.6582-8.98438 95.166-8.98438L91.4062-8.98438Q90.9668-8.98438 90.6738-8.71582Q90.3809-8.44727 90.3809-7.95898Z"/>
  </g>
 </g>
</svg>
