<?xml version="1.0" encoding="UTF-8"?>
<!-- Generator: CustomSymbols v2.6.5.44 by @serious_bret https://bretlester.com/app_content/CustomSymbols/ -->
<!-- Guides: Left/Right 0.016999999999999998/0.144 Cap/Base 0.153/0.153 -->
<!-- Settings: RefScale 1.0 Min/Max Stroke Scales 0.5/2.75 -->
<!DOCTYPE svg
PUBLIC "-//W3C//DTD SVG 1.1//EN"
       "http://www.w3.org/Graphics/SVG/1.1/DTD/svg11.dtd">
<svg version="1.1" xmlns="http://www.w3.org/2000/svg" xmlns:xlink="http://www.w3.org/1999/xlink" width="3300" height="2200">
<![CDATA[<?xml version="1.0" encoding="utf-8"?><!-- Uploaded to: SVG Repo, www.svgrepo.com, Generator: SVG Repo Mixer Tools -->
<svg width="800px" height="800px" viewBox="0 0 24 24" fill="none" xmlns="http://www.w3.org/2000/svg">
<path d="M6 13H5C3.89543 13 3 12.1046 3 11V7C3 5.89543 3.89543 5 5 5H13C13.5523 5 14 5.44772 14 6V12C14 12.5523 13.5523 13 13 13H11M6 13L5.32612 17.7172C5.154 18.922 6.08892 20 7.30602 20H8.26541C9.26071 20 10.1046 19.2681 10.2453 18.2828L11 13M6 13H11M18 9C18 10.6569 16.6569 12 15 12H14M18 9C18 7.34315 16.6569 6 15 6H14M18 9H23" stroke="#000000" stroke-width="2" stroke-linecap="round" stroke-linejoin="round"/>
</svg>]]>
 <g id="Notes">
  <rect height="2200" id="artboard" style="fill:white;opacity:1" width="3300" x="0" y="0"/>
  <line id="" style="fill:none;stroke:black;opacity:1;stroke-width:0.5;" x1="263" x2="3036" y1="292" y2="292"/>
  <text id="reftext1" style="stroke:none;fill:black;font-family:-apple-system,&quot;SF Pro Display&quot;,&quot;SF Pro Text&quot;,Helvetica,sans-serif;font-weight:bold;" transform="matrix(1 0 0 1 263 322)">Weight/Scale Variations</text>
  <text id="reftext2" style="stroke:none;fill:black;font-family:-apple-system,&quot;SF Pro Display&quot;,&quot;SF Pro Text&quot;,Helvetica,sans-serif;text-anchor:middle;" transform="matrix(1 0 0 1 559.711 322)">Ultralight</text>
  <text style="stroke:none;fill:black;font-family:-apple-system,&quot;SF Pro Display&quot;,&quot;SF Pro Text&quot;,Helvetica,sans-serif;text-anchor:middle;" transform="matrix(1 0 0 1 856.422 322)">Thin</text>
  <text style="stroke:none;fill:black;font-family:-apple-system,&quot;SF Pro Display&quot;,&quot;SF Pro Text&quot;,Helvetica,sans-serif;text-anchor:middle;" transform="matrix(1 0 0 1 1153.13 322)">Light</text>
  <text style="stroke:none;fill:black;font-family:-apple-system,&quot;SF Pro Display&quot;,&quot;SF Pro Text&quot;,Helvetica,sans-serif;text-anchor:middle;" transform="matrix(1 0 0 1 1449.84 322)">Regular</text>
  <text style="stroke:none;fill:black;font-family:-apple-system,&quot;SF Pro Display&quot;,&quot;SF Pro Text&quot;,Helvetica,sans-serif;text-anchor:middle;" transform="matrix(1 0 0 1 1746.56 322)">Medium</text>
  <text style="stroke:none;fill:black;font-family:-apple-system,&quot;SF Pro Display&quot;,&quot;SF Pro Text&quot;,Helvetica,sans-serif;text-anchor:middle;" transform="matrix(1 0 0 1 2043.27 322)">Semibold</text>
  <text style="stroke:none;fill:black;font-family:-apple-system,&quot;SF Pro Display&quot;,&quot;SF Pro Text&quot;,Helvetica,sans-serif;text-anchor:middle;" transform="matrix(1 0 0 1 2339.98 322)">Bold</text>
  <text style="stroke:none;fill:black;font-family:-apple-system,&quot;SF Pro Display&quot;,&quot;SF Pro Text&quot;,Helvetica,sans-serif;text-anchor:middle;" transform="matrix(1 0 0 1 2636.69 322)">Heavy</text>
  <text style="stroke:none;fill:black;font-family:-apple-system,&quot;SF Pro Display&quot;,&quot;SF Pro Text&quot;,Helvetica,sans-serif;text-anchor:middle;" transform="matrix(1 0 0 1 2933.4 322)">Black</text>
  <line id="" style="fill:none;stroke:black;opacity:1;stroke-width:0.5;" x1="263" x2="3036" y1="1903" y2="1903"/>
  <g id="" transform="matrix(1 0 0 1 263 1933)">
   <path d="M9.24805 0.830078C13.5547 0.830078 17.1387-2.74414 17.1387-7.05078C17.1387-11.3574 13.5449-14.9316 9.23828-14.9316C4.94141-14.9316 1.36719-11.3574 1.36719-7.05078C1.36719-2.74414 4.95117 0.830078 9.24805 0.830078ZM9.24805-0.654297C5.70312-0.654297 2.87109-3.49609 2.87109-7.05078C2.87109-10.6055 5.69336-13.4473 9.23828-13.4473C12.793-13.4473 15.6348-10.6055 15.6445-7.05078C15.6543-3.49609 12.8027-0.654297 9.24805-0.654297ZM6.39648-6.31836L8.50586-6.31836L8.50586-4.19922C8.50586-3.75977 8.79883-3.45703 9.22852-3.45703C9.67773-3.45703 9.9707-3.75977 9.9707-4.19922L9.9707-6.31836L12.0996-6.31836C12.5391-6.31836 12.8418-6.61133 12.8418-7.04102C12.8418-7.48047 12.5391-7.7832 12.0996-7.7832L9.9707-7.7832L9.9707-9.89258C9.9707-10.3418 9.67773-10.6445 9.22852-10.6445C8.79883-10.6445 8.50586-10.3418 8.50586-9.89258L8.50586-7.7832L6.39648-7.7832C5.94727-7.7832 5.64453-7.48047 5.64453-7.04102C5.64453-6.61133 5.94727-6.31836 6.39648-6.31836Z"/>
  </g>
  <g id="" transform="matrix(1 0 0 1 281.506 1933)">
   <path d="M11.709 2.91016C17.1582 2.91016 21.6699-1.61133 21.6699-7.05078C21.6699-12.5 17.1484-17.0117 11.6992-17.0117C6.25977-17.0117 1.74805-12.5 1.74805-7.05078C1.74805-1.61133 6.26953 2.91016 11.709 2.91016ZM11.709 1.25C7.09961 1.25 3.41797-2.44141 3.41797-7.05078C3.41797-11.6602 7.08984-15.3516 11.6992-15.3516C16.3086-15.3516 20-11.6602 20.0098-7.05078C20.0195-2.44141 16.3184 1.25 11.709 1.25ZM7.98828-6.23047L10.8789-6.23047L10.8789-3.32031C10.8789-2.83203 11.2109-2.5 11.6895-2.5C12.1777-2.5 12.5195-2.83203 12.5195-3.32031L12.5195-6.23047L15.4297-6.23047C15.918-6.23047 16.25-6.5625 16.25-7.04102C16.25-7.5293 15.918-7.87109 15.4297-7.87109L12.5195-7.87109L12.5195-10.7617C12.5195-11.2695 12.1777-11.6016 11.6895-11.6016C11.2109-11.6016 10.8789-11.2598 10.8789-10.7617L10.8789-7.87109L7.98828-7.87109C7.48047-7.87109 7.14844-7.5293 7.14844-7.04102C7.14844-6.5625 7.49023-6.23047 7.98828-6.23047Z"/>
  </g>
  <g id="" transform="matrix(1 0 0 1 304.924 1933)">
   <path d="M14.9707 5.66406C21.9336 5.66406 27.6953-0.0976562 27.6953-7.05078C27.6953-14.0137 21.9238-19.7754 14.9609-19.7754C8.00781-19.7754 2.25586-14.0137 2.25586-7.05078C2.25586-0.0976562 8.01758 5.66406 14.9707 5.66406ZM14.9707 3.84766C8.93555 3.84766 4.08203-1.01562 4.08203-7.05078C4.08203-13.0957 8.92578-17.9492 14.9609-17.9492C21.0059-17.9492 25.8594-13.0957 25.8691-7.05078C25.8789-1.01562 21.0156 3.84766 14.9707 3.84766ZM10.0586-6.14258L14.0625-6.14258L14.0625-2.12891C14.0625-1.5918 14.4336-1.2207 14.9512-1.2207C15.4883-1.2207 15.8594-1.5918 15.8594-2.12891L15.8594-6.14258L19.8828-6.14258C20.4102-6.14258 20.791-6.51367 20.791-7.03125C20.791-7.56836 20.4199-7.94922 19.8828-7.94922L15.8594-7.94922L15.8594-11.9531C15.8594-12.5098 15.4883-12.8809 14.9512-12.8809C14.4336-12.8809 14.0625-12.5 14.0625-11.9531L14.0625-7.94922L10.0586-7.94922C9.50195-7.94922 9.13086-7.56836 9.13086-7.03125C9.13086-6.51367 9.51172-6.14258 10.0586-6.14258Z"/>
  </g>
  <text style="stroke:none;fill:black;font-family:-apple-system,&quot;SF Pro Display&quot;,&quot;SF Pro Text&quot;,Helvetica,sans-serif;font-weight:bold;" transform="matrix(1 0 0 1 263 1953)">Design Variations</text>
  <text style="stroke:none;fill:black;font-family:-apple-system,&quot;SF Pro Display&quot;,&quot;SF Pro Text&quot;,Helvetica,sans-serif;" transform="matrix(1 0 0 1 263 1971)">Symbols are supported in up to nine weights and three scales.</text>
  <text style="stroke:none;fill:black;font-family:-apple-system,&quot;SF Pro Display&quot;,&quot;SF Pro Text&quot;,Helvetica,sans-serif;" transform="matrix(1 0 0 1 263 1989)">For optimal layout with text and other symbols, vertically align</text>
  <text style="stroke:none;fill:black;font-family:-apple-system,&quot;SF Pro Display&quot;,&quot;SF Pro Text&quot;,Helvetica,sans-serif;" transform="matrix(1 0 0 1 263 2007)">symbols with the adjacent text.</text>
  <line id="" style="fill:none;stroke:#00AEEF;stroke-width:0.5;opacity:1.0;" x1="776" x2="776" y1="1919" y2="1933"/>
  <g id="" transform="matrix(1 0 0 1 776 1933)">
   <path d="M3.31055 0.126953C3.82812 0.126953 4.08203-0.0683594 4.26758-0.605469L5.52734-4.0625L11.2891-4.0625L12.5488-0.605469C12.7344-0.0683594 12.9883 0.126953 13.4961 0.126953C14.0137 0.126953 14.3457-0.185547 14.3457-0.673828C14.3457-0.839844 14.3164-0.986328 14.2383-1.20117L9.6582-13.3887C9.43359-13.9941 9.0332-14.2871 8.4082-14.2871C7.80273-14.2871 7.39258-13.9941 7.17773-13.3984L2.59766-1.19141C2.51953-0.976562 2.49023-0.830078 2.49023-0.664062C2.49023-0.175781 2.80273 0.126953 3.31055 0.126953ZM6.00586-5.53711L8.37891-12.1094L8.42773-12.1094L10.8008-5.53711Z"/>
  </g>
  <line id="" style="fill:none;stroke:#00AEEF;stroke-width:0.5;opacity:1.0;" x1="792.836" x2="792.836" y1="1919" y2="1933"/>
  <text style="stroke:none;fill:black;font-family:-apple-system,&quot;SF Pro Display&quot;,&quot;SF Pro Text&quot;,Helvetica,sans-serif;font-weight:bold;" transform="matrix(1 0 0 1 776 1953)">Margins</text>
  <text style="stroke:none;fill:black;font-family:-apple-system,&quot;SF Pro Display&quot;,&quot;SF Pro Text&quot;,Helvetica,sans-serif;" transform="matrix(1 0 0 1 776 1971)">Leading and trailing margins on the left and right side of each symbol</text>
  <text style="stroke:none;fill:black;font-family:-apple-system,&quot;SF Pro Display&quot;,&quot;SF Pro Text&quot;,Helvetica,sans-serif;" transform="matrix(1 0 0 1 776 1989)">can be adjusted by modifying the x-location of the margin guidelines.</text>
  <text style="stroke:none;fill:black;font-family:-apple-system,&quot;SF Pro Display&quot;,&quot;SF Pro Text&quot;,Helvetica,sans-serif;" transform="matrix(1 0 0 1 776 2007)">Modifications are automatically applied proportionally to all</text>
  <text style="stroke:none;fill:black;font-family:-apple-system,&quot;SF Pro Display&quot;,&quot;SF Pro Text&quot;,Helvetica,sans-serif;" transform="matrix(1 0 0 1 776 2025)">scales and weights.</text>
  <g id="" transform="matrix(1 0 0 1 1289 1933)">
   <path d="M2.8418 1.86523L4.54102 3.57422C5.40039 4.44336 6.38672 4.38477 7.31445 3.35938L17.4902-7.85156C17.7539-7.76367 18.0273-7.7832 18.3398-7.8418L19.4043-8.03711L20.0684-7.36328L20.0293-6.80664C19.9902-6.30859 20.1172-5.92773 20.6055-5.44922L21.3672-4.70703C21.8457-4.22852 22.4609-4.19922 22.9297-4.66797L25.8398-7.58789C26.3086-8.05664 26.2891-8.65234 25.8105-9.13086L25.0391-9.89258C24.5605-10.3711 24.1895-10.5273 23.7109-10.4883L23.1348-10.4395L22.4902-11.0742L22.7344-12.1973C22.8613-12.7637 22.7051-13.2031 22.1191-13.7891L19.9219-15.9766C16.582-19.2969 12.1484-19.2188 9.25781-16.3281C8.83789-15.918 8.80859-15.3418 9.04297-14.9512C9.27734-14.5898 9.73633-14.3555 10.3809-14.5215C11.8457-14.8633 13.3691-14.9219 14.7949-13.9844L14.209-12.5293C14.0137-12.0508 13.9844-11.6504 14.1113-11.2891L3.04688-0.898438C2.06055 0.0195312 1.98242 0.996094 2.8418 1.86523ZM10.752-15.957C13.1836-17.7344 16.4746-17.4316 18.7012-15.2051L21.1328-12.793C21.3672-12.5586 21.4062-12.373 21.3379-12.0312L21.0156-10.5469L22.5195-9.0625L23.5059-9.12109C23.7598-9.13086 23.8379-9.11133 24.0332-8.91602L24.6094-8.33984L22.168-5.89844L21.5918-6.47461C21.3965-6.66992 21.3672-6.74805 21.377-7.01172L21.4453-7.98828L19.9512-9.47266L18.4277-9.21875C18.1055-9.15039 17.959-9.17969 17.7148-9.41406L15.7129-11.416C15.459-11.6504 15.4297-11.8164 15.5859-12.1875L16.4648-14.2773C14.9023-15.7324 12.8711-16.3574 10.8398-15.7617C10.6836-15.7227 10.625-15.8496 10.752-15.957ZM5.27344 2.30469L4.10156 1.14258C3.63281 0.683594 3.74023 0.341797 4.14062-0.0195312L14.9512-10.1953L16.416-8.71094L6.42578 2.27539C6.07422 2.67578 5.74219 2.77344 5.27344 2.30469Z"/>
  </g>
  <text style="stroke:none;fill:black;font-family:-apple-system,&quot;SF Pro Display&quot;,&quot;SF Pro Text&quot;,Helvetica,sans-serif;font-weight:bold;" transform="matrix(1 0 0 1 1289 1953)">Exporting</text>
  <text style="stroke:none;fill:black;font-family:-apple-system,&quot;SF Pro Display&quot;,&quot;SF Pro Text&quot;,Helvetica,sans-serif;" transform="matrix(1 0 0 1 1289 1971)">Symbols should be outlined when exporting to ensure the</text>
  <text style="stroke:none;fill:black;font-family:-apple-system,&quot;SF Pro Display&quot;,&quot;SF Pro Text&quot;,Helvetica,sans-serif;" transform="matrix(1 0 0 1 1289 1989)">design is preserved when submitting to Xcode.</text>
  <text id="template-version" style="stroke:none;fill:black;font-family:-apple-system,&quot;SF Pro Display&quot;,&quot;SF Pro Text&quot;,Helvetica,sans-serif;text-anchor:end;" transform="matrix(1 0 0 1 3036 1933)">Template v.2.0</text>
  <text style="stroke:none;fill:black;font-family:-apple-system,&quot;SF Pro Display&quot;,&quot;SF Pro Text&quot;,Helvetica,sans-serif;text-anchor:end;" transform="matrix(1 0 0 1 3036 1951)">Requires Xcode 12 or greater</text>
  <text style="stroke:none;fill:black;font-family:-apple-system,&quot;SF Pro Display&quot;,&quot;SF Pro Text&quot;,Helvetica,sans-serif;" transform="matrix(1 0 0 1 263 726)">Small</text>
  <text style="stroke:none;fill:black;font-family:-apple-system,&quot;SF Pro Display&quot;,&quot;SF Pro Text&quot;,Helvetica,sans-serif;" transform="matrix(1 0 0 1 263 1156)">Medium</text>
  <text style="stroke:none;fill:black;font-family:-apple-system,&quot;SF Pro Display&quot;,&quot;SF Pro Text&quot;,Helvetica,sans-serif;" transform="matrix(1 0 0 1 263 1586)">Large</text>
 </g>
 <g id="Guides">
  <g id="H-reference" style="fill:#27AAE1;stroke:none;" transform="matrix(1 0 0 1 339 696)">
   <path d="M0.976562 0L3.66211 0L12.9883-24.4629L45.752-24.4629L55.127 0L57.7637 0L30.6152-70.459L28.125-70.459ZM29.3457-67.1387L29.4434-67.1387L44.873-26.709L13.8672-26.709Z"/>
  </g>
  <line id="Baseline-S" style="fill:none;stroke:#27AAE1;opacity:1;stroke-width:0.5;" x1="263" x2="3036" y1="696" y2="696"/>
  <line id="Capline-S" style="fill:none;stroke:#27AAE1;opacity:1;stroke-width:0.5;" x1="263" x2="3036" y1="625.541" y2="625.541"/>
  <g id="H-reference" style="fill:#27AAE1;stroke:none;" transform="matrix(1 0 0 1 339 1126)">
   <path d="M0.976562 0L3.66211 0L12.9883-24.4629L45.752-24.4629L55.127 0L57.7637 0L30.6152-70.459L28.125-70.459ZM29.3457-67.1387L29.4434-67.1387L44.873-26.709L13.8672-26.709Z"/>
  </g>
  <line id="Baseline-M" style="fill:none;stroke:#27AAE1;opacity:1;stroke-width:0.5;" x1="263" x2="3036" y1="1126" y2="1126"/>
  <line id="Capline-M" style="fill:none;stroke:#27AAE1;opacity:1;stroke-width:0.5;" x1="263" x2="3036" y1="1055.54" y2="1055.54"/>
  <g id="H-reference" style="fill:#27AAE1;stroke:none;" transform="matrix(1 0 0 1 339 1556)">
   <path d="M0.976562 0L3.66211 0L12.9883-24.4629L45.752-24.4629L55.127 0L57.7637 0L30.6152-70.459L28.125-70.459ZM29.3457-67.1387L29.4434-67.1387L44.873-26.709L13.8672-26.709Z"/>
  </g>
  <line id="Baseline-L" style="fill:none;stroke:#27AAE1;opacity:1;stroke-width:0.5;" x1="263" x2="3036" y1="1556" y2="1556"/>
  <line id="Capline-L" style="fill:none;stroke:#27AAE1;opacity:1;stroke-width:0.5;" x1="263" x2="3036" y1="1485.54" y2="1485.54"/>
  <line id="left-margin" x1="1402.0923038432095" x2="1402.0923038432095" y1="1030.79" y2="1150.12" style="fill:none;stroke:#00AEEF;stroke-width:0.5;opacity:1.0;"/>
  <line id="right-margin" x1="1487.2737263598704" x2="1487.2737263598704" y1="1030.79" y2="1150.12" style="fill:none;stroke:#00AEEF;stroke-width:0.5;opacity:1.0;"/>
 </g>
 <g id="Symbols">
  <g id="Black-L" transform="matrix(1.0,0.0,0.0,1.0,2869.1948778030437,1455.2848973342939)">  <path stroke-dasharray="none" stroke-miterlimit="4" stroke-linejoin="round" fill="#000000" stroke-width="2px" fill-rule="nonzero" stroke-linecap="round" stroke="none" fill-opacity="1" stroke-opacity="1" d="M32.743,55.935L27.285,55.935C29.546,55.935,31.378,57.768,31.378,60.028L31.378,38.2C31.378,40.46,29.546,42.292,27.285,42.292L70.942,42.292C65.668,42.292,61.392,38.017,61.392,32.743L61.392,65.485C61.392,60.211,65.668,55.935,70.942,55.935L60.028,55.935C51.74,55.935,45.021,62.654,45.021,70.942C45.021,79.23,51.74,85.949,60.028,85.949L70.942,85.949C82.244,85.949,91.406,76.787,91.406,65.485L91.406,32.743C91.406,21.441,82.244,12.278,70.942,12.278L27.285,12.278C12.97,12.278,1.364,23.884,1.364,38.2L1.364,60.028C1.364,74.344,12.97,85.949,27.285,85.949L32.743,85.949C41.031,85.949,47.75,79.23,47.75,70.942C47.75,62.654,41.031,55.935,32.743,55.935ZM17.886,68.82L14.209,94.562C11.978,110.178,24.095,124.149,39.87,124.149L45.105,124.149C58.005,124.149,68.942,114.663,70.766,101.892L74.884,73.065C76.056,64.86,70.355,57.258,62.15,56.086C53.946,54.914,46.344,60.615,45.172,68.82L41.053,97.649C41.341,95.633,43.068,94.135,45.105,94.135L39.87,94.135C42.36,94.135,44.274,96.341,43.921,98.807L47.599,73.065C48.771,64.86,43.07,57.258,34.865,56.086C26.66,54.914,19.058,60.615,17.886,68.82ZM32.743,85.949L60.028,85.949C68.316,85.949,75.035,79.23,75.035,70.942C75.035,62.654,68.316,55.935,60.028,55.935L32.743,55.935C24.454,55.935,17.736,62.654,17.736,70.942C17.736,79.23,24.454,85.949,32.743,85.949ZM83.221,49.114C83.221,49.868,82.61,50.478,81.856,50.478L76.399,50.478C68.111,50.478,61.392,57.197,61.392,65.485C61.392,73.773,68.111,80.492,76.399,80.492L81.856,80.492C99.186,80.492,113.235,66.444,113.235,49.114C113.235,40.826,106.516,34.107,98.228,34.107C89.94,34.107,83.221,40.826,83.221,49.114ZM113.235,49.114C113.235,31.784,99.186,17.736,81.856,17.736L76.399,17.736C68.111,17.736,61.392,24.454,61.392,32.743C61.392,41.031,68.111,47.75,76.399,47.75L81.856,47.75C82.61,47.75,83.221,48.36,83.221,49.114C83.221,57.402,89.94,64.121,98.228,64.121C106.516,64.121,113.235,57.402,113.235,49.114ZM98.228,64.121L125.513,64.121C133.801,64.121,140.52,57.402,140.52,49.114C140.52,40.826,133.801,34.107,125.513,34.107L98.228,34.107C89.94,34.107,83.221,40.826,83.221,49.114C83.221,57.402,89.94,64.121,98.228,64.121Z"/>
</g>
  <g id="Heavy-L" transform="matrix(1.0,0.0,0.0,1.0,2572.4848778030437,1455.2848973342939)">  <path stroke-linejoin="round" fill-rule="nonzero" stroke-dasharray="none" stroke-width="2px" stroke-miterlimit="4" stroke="none" fill="#000000" stroke-linecap="round" fill-opacity="1" stroke-opacity="1" d="M32.743,57.845L27.285,57.845C28.491,57.845,29.468,58.823,29.468,60.028L29.468,38.2C29.468,39.405,28.491,40.382,27.285,40.382L70.942,40.382C66.723,40.382,63.302,36.962,63.302,32.743L63.302,65.485C63.302,61.266,66.723,57.845,70.942,57.845L60.028,57.845C52.795,57.845,46.931,63.709,46.931,70.942C46.931,78.176,52.795,84.039,60.028,84.039L70.942,84.039C81.189,84.039,89.496,75.732,89.496,65.485L89.496,32.743C89.496,22.495,81.189,14.188,70.942,14.188L27.285,14.188C14.024,14.188,3.274,24.939,3.274,38.2L3.274,60.028C3.274,73.289,14.024,84.039,27.285,84.039L32.743,84.039C39.976,84.039,45.84,78.176,45.84,70.942C45.84,63.709,39.976,57.845,32.743,57.845ZM19.777,69.09L16.1,94.832C14.033,109.297,25.258,122.239,39.87,122.239L45.105,122.239C57.055,122.239,67.186,113.452,68.875,101.622L72.993,72.794C74.016,65.634,69.041,59,61.88,57.977C54.72,56.954,48.086,61.929,47.063,69.09L42.944,97.919C43.098,96.844,44.019,96.045,45.105,96.045L39.87,96.045C41.198,96.045,42.218,97.221,42.031,98.537L45.708,72.794C46.731,65.634,41.755,59,34.595,57.977C27.434,56.954,20.8,61.929,19.777,69.09ZM32.743,84.039L60.028,84.039C67.261,84.039,73.125,78.176,73.125,70.942C73.125,63.709,67.261,57.845,60.028,57.845L32.743,57.845C25.509,57.845,19.646,63.709,19.646,70.942C19.646,78.176,25.509,84.039,32.743,84.039ZM85.131,49.114C85.131,50.922,83.665,52.388,81.856,52.388L76.399,52.388C69.166,52.388,63.302,58.252,63.302,65.485C63.302,72.718,69.166,78.582,76.399,78.582L81.856,78.582C98.132,78.582,111.325,65.389,111.325,49.114C111.325,41.881,105.461,36.017,98.228,36.017C90.994,36.017,85.131,41.881,85.131,49.114ZM111.325,49.114C111.325,32.839,98.131,19.646,81.856,19.646L76.399,19.646C69.166,19.646,63.302,25.509,63.302,32.743C63.302,39.976,69.166,45.84,76.399,45.84L81.856,45.84C83.665,45.84,85.131,47.305,85.131,49.114C85.131,56.347,90.994,62.211,98.228,62.211C105.461,62.211,111.325,56.347,111.325,49.114ZM98.228,62.211L125.513,62.211C132.746,62.211,138.61,56.347,138.61,49.114C138.61,41.881,132.746,36.017,125.513,36.017L98.228,36.017C90.994,36.017,85.131,41.881,85.131,49.114C85.131,56.347,90.994,62.211,98.228,62.211Z"/>
</g>
  <g id="Bold-L" transform="matrix(1.0,0.0,0.0,1.0,2275.7748778030436,1455.2848973342939)">  <path fill="#000000" fill-opacity="1" fill-rule="nonzero" stroke-linejoin="round" stroke-miterlimit="4" stroke-opacity="1" stroke-dasharray="none" stroke-linecap="round" stroke-width="2px" stroke="none" d="M32.743,59.755L27.285,59.755C27.436,59.755,27.558,59.877,27.558,60.028L27.558,38.2C27.558,38.35,27.436,38.473,27.285,38.473L70.942,38.473C67.778,38.473,65.212,35.907,65.212,32.743L65.212,65.485C65.212,62.321,67.778,59.755,70.942,59.755L60.028,59.755C53.85,59.755,48.841,64.764,48.841,70.942C48.841,77.121,53.85,82.129,60.028,82.129L70.942,82.129C80.135,82.129,87.586,74.678,87.586,65.485L87.586,32.743C87.586,23.55,80.135,16.098,70.942,16.098L27.285,16.098C15.079,16.098,5.184,25.993,5.184,38.2L5.184,60.028C5.184,72.234,15.079,82.129,27.285,82.129L32.743,82.129C38.921,82.129,43.93,77.121,43.93,70.942C43.93,64.764,38.921,59.755,32.743,59.755ZM21.668,69.36L17.991,95.102C16.088,108.417,26.42,120.329,39.87,120.329L45.105,120.329C56.104,120.329,65.429,112.241,66.984,101.352L71.103,72.524C71.976,66.408,67.726,60.741,61.61,59.868C55.494,58.994,49.827,63.244,48.953,69.36L44.835,98.189C44.854,98.055,44.969,97.955,45.105,97.955L39.87,97.955C40.036,97.955,40.163,98.102,40.14,98.267L43.817,72.524C44.691,66.408,40.441,60.741,34.325,59.868C28.208,58.994,22.542,63.244,21.668,69.36ZM32.743,82.129L60.028,82.129C66.206,82.129,71.215,77.121,71.215,70.942C71.215,64.764,66.206,59.755,60.028,59.755L32.743,59.755C26.564,59.755,21.556,64.764,21.556,70.942C21.556,77.121,26.564,82.129,32.743,82.129ZM87.041,49.114C87.041,51.977,84.72,54.298,81.856,54.298L76.399,54.298C70.221,54.298,65.212,59.307,65.212,65.485C65.212,71.664,70.221,76.672,76.399,76.672L81.856,76.672C97.077,76.672,109.415,64.334,109.415,49.114C109.415,42.935,104.406,37.927,98.228,37.927C92.049,37.927,87.041,42.935,87.041,49.114ZM109.415,49.114C109.415,33.894,97.077,21.556,81.856,21.556L76.399,21.556C70.221,21.556,65.212,26.564,65.212,32.743C65.212,38.921,70.221,43.93,76.399,43.93L81.856,43.93C84.72,43.93,87.041,46.251,87.041,49.114C87.041,55.292,92.049,60.301,98.228,60.301C104.406,60.301,109.415,55.292,109.415,49.114ZM98.228,60.301L125.513,60.301C131.692,60.301,136.7,55.292,136.7,49.114C136.7,42.935,131.692,37.927,125.513,37.927L98.228,37.927C92.049,37.927,87.041,42.935,87.041,49.114C87.041,55.292,92.049,60.301,98.228,60.301Z"/>
</g>
  <g id="Semibold-L" transform="matrix(1.0,0.0,0.0,1.0,1979.0648778030438,1455.2848973342939)">  <path fill="#000000" stroke-miterlimit="4" stroke="none" stroke-linecap="round" fill-opacity="1" stroke-dasharray="none" stroke-opacity="1" fill-rule="nonzero" stroke-linejoin="round" stroke-width="2px" d="M32.743,61.665L27.285,61.665C26.381,61.665,25.648,60.932,25.648,60.028L25.648,38.2C25.648,37.295,26.381,36.563,27.285,36.563L70.942,36.563C68.833,36.563,67.122,34.852,67.122,32.743L67.122,65.485C67.122,63.375,68.833,61.665,70.942,61.665L60.028,61.665C54.904,61.665,50.751,65.819,50.751,70.942C50.751,76.066,54.904,80.219,60.028,80.219L70.942,80.219C79.08,80.219,85.676,73.623,85.676,65.485L85.676,32.743C85.676,24.605,79.08,18.008,70.942,18.008L27.285,18.008C16.134,18.008,7.094,27.048,7.094,38.2L7.094,60.028C7.094,71.179,16.134,80.219,27.285,80.219L32.743,80.219C37.866,80.219,42.02,76.066,42.02,70.942C42.02,65.819,37.866,61.665,32.743,61.665ZM23.559,69.63L19.881,95.372C18.144,107.536,27.582,118.419,39.87,118.419L45.105,118.419C55.153,118.419,63.673,111.03,65.093,101.082L69.212,72.254C69.936,67.182,66.412,62.483,61.34,61.758C56.268,61.034,51.569,64.558,50.844,69.63L46.726,98.459C46.611,99.266,45.92,99.865,45.105,99.865L39.87,99.865C38.873,99.865,38.108,98.982,38.249,97.996L41.926,72.254C42.651,67.182,39.127,62.483,34.055,61.758C28.982,61.034,24.283,64.558,23.559,69.63ZM32.743,80.219L60.028,80.219C65.152,80.219,69.305,76.066,69.305,70.942C69.305,65.819,65.152,61.665,60.028,61.665L32.743,61.665C27.619,61.665,23.466,65.819,23.466,70.942C23.466,76.066,27.619,80.219,32.743,80.219ZM88.951,49.114C88.951,53.032,85.775,56.208,81.856,56.208L76.399,56.208C71.276,56.208,67.122,60.362,67.122,65.485C67.122,70.609,71.276,74.762,76.399,74.762L81.856,74.762C96.022,74.762,107.505,63.279,107.505,49.114C107.505,43.99,103.351,39.837,98.228,39.837C93.104,39.837,88.951,43.99,88.951,49.114ZM107.505,49.114C107.505,34.949,96.022,23.466,81.856,23.466L76.399,23.466C71.276,23.466,67.122,27.619,67.122,32.743C67.122,37.866,71.276,42.02,76.399,42.02L81.856,42.02C85.775,42.02,88.951,45.196,88.951,49.114C88.951,54.237,93.104,58.391,98.228,58.391C103.351,58.391,107.505,54.237,107.505,49.114ZM98.228,58.391L125.513,58.391C130.637,58.391,134.79,54.237,134.79,49.114C134.79,43.99,130.637,39.837,125.513,39.837L98.228,39.837C93.104,39.837,88.951,43.99,88.951,49.114C88.951,54.237,93.104,58.391,98.228,58.391Z"/>
</g>
  <g id="Medium-L" transform="matrix(1.0,0.0,0.0,1.0,1682.3548778030438,1455.2848973342939)">  <path stroke-miterlimit="4" stroke-opacity="1" stroke-width="2px" stroke-dasharray="none" stroke-linejoin="round" stroke-linecap="round" fill-opacity="1" fill="#000000" stroke="none" fill-rule="nonzero" d="M32.743,63.575L27.285,63.575C25.326,63.575,23.738,61.987,23.738,60.028L23.738,38.2C23.738,36.241,25.326,34.653,27.285,34.653L70.942,34.653C69.887,34.653,69.032,33.797,69.032,32.743L69.032,65.485C69.032,64.43,69.887,63.575,70.942,63.575L60.028,63.575C55.959,63.575,52.661,66.873,52.661,70.942C52.661,75.011,55.959,78.309,60.028,78.309L70.942,78.309C78.025,78.309,83.766,72.568,83.766,65.485L83.766,32.743C83.766,25.66,78.025,19.918,70.942,19.918L27.285,19.918C17.189,19.918,9.004,28.103,9.004,38.2L9.004,60.028C9.004,70.125,17.189,78.309,27.285,78.309L32.743,78.309C36.811,78.309,40.11,75.011,40.11,70.942C40.11,66.873,36.811,63.575,32.743,63.575ZM25.45,69.9L21.772,95.643C20.199,106.656,28.745,116.509,39.87,116.509L45.105,116.509C54.203,116.509,61.917,109.819,63.203,100.812L67.321,71.984C67.896,67.956,65.098,64.225,61.07,63.649C57.042,63.074,53.31,65.873,52.735,69.9L48.617,98.729C48.367,100.477,46.87,101.775,45.105,101.775L39.87,101.775C37.711,101.775,36.053,99.863,36.358,97.726L40.036,71.984C40.611,67.956,37.812,64.225,33.784,63.649C29.757,63.074,26.025,65.873,25.45,69.9ZM32.743,78.309L60.028,78.309C64.097,78.309,67.395,75.011,67.395,70.942C67.395,66.873,64.097,63.575,60.028,63.575L32.743,63.575C28.674,63.575,25.375,66.873,25.375,70.942C25.375,75.011,28.674,78.309,32.743,78.309ZM90.861,49.114C90.861,54.087,86.83,58.118,81.856,58.118L76.399,58.118C72.331,58.118,69.032,61.416,69.032,65.485C69.032,69.554,72.331,72.852,76.399,72.852L81.856,72.852C94.967,72.852,105.595,62.224,105.595,49.114C105.595,45.045,102.296,41.747,98.228,41.747C94.159,41.747,90.861,45.045,90.861,49.114ZM105.595,49.114C105.595,36.003,94.967,25.375,81.856,25.375L76.399,25.375C72.331,25.375,69.032,28.674,69.032,32.743C69.032,36.811,72.331,40.11,76.399,40.11L81.856,40.11C86.829,40.11,90.861,44.141,90.861,49.114C90.861,53.183,94.159,56.481,98.228,56.481C102.296,56.481,105.595,53.183,105.595,49.114ZM98.228,56.481L125.513,56.481C129.582,56.481,132.88,53.183,132.88,49.114C132.88,45.045,129.582,41.747,125.513,41.747L98.228,41.747C94.159,41.747,90.861,45.045,90.861,49.114C90.861,53.183,94.159,56.481,98.228,56.481Z"/>
</g>
  <g id="Regular-L" transform="matrix(1.0,0.0,0.0,1.0,1385.6448778030438,1455.2848973342939)">  <path stroke="none" fill-opacity="1" stroke-width="2px" stroke-linejoin="round" stroke-opacity="1" stroke-miterlimit="4" stroke-dasharray="none" fill-rule="nonzero" fill="#000000" stroke-linecap="round" d="M32.743,65.485L27.285,65.485C24.272,65.485,21.828,63.042,21.828,60.028L21.828,38.2C21.828,35.186,24.272,32.743,27.285,32.743L70.942,32.743C70.942,32.743,70.942,32.743,70.942,32.743L70.942,65.485C70.942,65.485,70.942,65.485,70.942,65.485L60.028,65.485C57.014,65.485,54.571,67.928,54.571,70.942C54.571,73.956,57.014,76.399,60.028,76.399L70.942,76.399C76.97,76.399,81.856,71.513,81.856,65.485L81.856,32.743C81.856,26.715,76.97,21.828,70.942,21.828L27.285,21.828C18.244,21.828,10.914,29.158,10.914,38.2L10.914,60.028C10.914,69.07,18.244,76.399,27.285,76.399L32.743,76.399C35.756,76.399,38.2,73.956,38.2,70.942C38.2,67.928,35.756,65.485,32.743,65.485ZM27.34,70.17L23.663,95.913C22.254,105.775,29.907,114.599,39.87,114.599L45.105,114.599C53.252,114.599,60.16,108.608,61.312,100.542L65.43,71.714C65.857,68.73,63.783,65.966,60.8,65.54C57.816,65.114,55.052,67.187,54.626,70.17L50.507,98.999C50.123,101.688,47.821,103.685,45.105,103.685L39.87,103.685C36.549,103.685,33.998,100.743,34.467,97.456L38.145,71.714C38.571,68.73,36.498,65.966,33.514,65.54C30.531,65.114,27.767,67.187,27.34,70.17ZM32.743,76.399L60.028,76.399C63.042,76.399,65.485,73.956,65.485,70.942C65.485,67.928,63.042,65.485,60.028,65.485L32.743,65.485C29.729,65.485,27.285,67.928,27.285,70.942C27.285,73.956,29.729,76.399,32.743,76.399ZM92.771,49.114C92.771,55.142,87.884,60.028,81.856,60.028L76.399,60.028C73.385,60.028,70.942,62.471,70.942,65.485C70.942,68.499,73.385,70.942,76.399,70.942L81.856,70.942C93.912,70.942,103.685,61.17,103.685,49.114C103.685,46.1,101.242,43.657,98.228,43.657C95.214,43.657,92.771,46.1,92.771,49.114ZM103.685,49.114C103.685,37.058,93.912,27.285,81.856,27.285L76.399,27.285C73.385,27.285,70.942,29.729,70.942,32.743C70.942,35.756,73.385,38.2,76.399,38.2L81.856,38.2C87.884,38.2,92.771,43.086,92.771,49.114C92.771,52.128,95.214,54.571,98.228,54.571C101.242,54.571,103.685,52.128,103.685,49.114ZM98.228,54.571L125.513,54.571C128.527,54.571,130.97,52.128,130.97,49.114C130.97,46.1,128.527,43.657,125.513,43.657L98.228,43.657C95.214,43.657,92.771,46.1,92.771,49.114C92.771,52.128,95.214,54.571,98.228,54.571Z"/>
</g>
  <g id="Light-L" transform="matrix(1.0,0.0,0.0,1.0,1088.934877803044,1455.2848973342939)">  <path fill-rule="nonzero" stroke="none" stroke-opacity="1" stroke-width="2px" fill-opacity="1" stroke-dasharray="none" stroke-miterlimit="4" fill="#000000" stroke-linejoin="round" stroke-linecap="round" d="M32.743,66.395L27.285,66.395C23.769,66.395,20.919,63.544,20.919,60.028L20.919,38.2C20.919,34.683,23.769,31.833,27.285,31.833L70.942,31.833C71.445,31.833,71.852,32.24,71.852,32.743L71.852,65.485C71.852,65.988,71.445,66.395,70.942,66.395L60.028,66.395C57.516,66.395,55.48,68.431,55.48,70.942C55.48,73.454,57.516,75.49,60.028,75.49L70.942,75.49C76.468,75.49,80.947,71.011,80.947,65.485L80.947,32.743C80.947,27.217,76.468,22.738,70.942,22.738L27.285,22.738C18.746,22.738,11.824,29.66,11.824,38.2L11.824,60.028C11.824,68.567,18.746,75.49,27.285,75.49L32.743,75.49C35.254,75.49,37.29,73.454,37.29,70.942C37.29,68.431,35.254,66.395,32.743,66.395ZM28.241,70.299L24.563,96.041C23.233,105.356,30.46,113.689,39.87,113.689L45.105,113.689C52.8,113.689,59.324,108.031,60.411,100.414L64.53,71.585C64.885,69.099,63.157,66.796,60.671,66.44C58.185,66.085,55.881,67.813,55.526,70.299L51.408,99.128C50.96,102.264,48.273,104.594,45.105,104.594L39.87,104.594C35.995,104.594,33.019,101.163,33.567,97.328L37.244,71.585C37.6,69.099,35.872,66.796,33.386,66.44C30.899,66.085,28.596,67.813,28.241,70.299ZM32.743,75.49L60.028,75.49C62.54,75.49,64.576,73.454,64.576,70.942C64.576,68.431,62.54,66.395,60.028,66.395L32.743,66.395C30.231,66.395,28.195,68.431,28.195,70.942C28.195,73.454,30.231,75.49,32.743,75.49ZM93.68,49.114C93.68,55.644,88.387,60.938,81.856,60.938L76.399,60.938C73.888,60.938,71.852,62.974,71.852,65.485C71.852,67.997,73.888,70.033,76.399,70.033L81.856,70.033C93.41,70.033,102.775,60.667,102.775,49.114C102.775,46.602,100.739,44.566,98.228,44.566C95.716,44.566,93.68,46.602,93.68,49.114ZM102.775,49.114C102.775,37.561,93.41,28.195,81.856,28.195L76.399,28.195C73.888,28.195,71.852,30.231,71.852,32.743C71.852,35.254,73.888,37.29,76.399,37.29L81.856,37.29C88.387,37.29,93.68,42.584,93.68,49.114C93.68,51.625,95.716,53.661,98.228,53.661C100.739,53.661,102.775,51.625,102.775,49.114ZM98.228,53.661L125.513,53.661C128.025,53.661,130.061,51.625,130.061,49.114C130.061,46.602,128.025,44.566,125.513,44.566L98.228,44.566C95.716,44.566,93.68,46.602,93.68,49.114C93.68,51.625,95.716,53.661,98.228,53.661Z"/>
</g>
  <g id="Thin-L" transform="matrix(1.0,0.0,0.0,1.0,792.224877803044,1455.2848973342939)">  <path stroke-dasharray="none" fill-opacity="1" stroke="none" fill-rule="nonzero" fill="#000000" stroke-linecap="round" stroke-linejoin="round" stroke-width="2px" stroke-opacity="1" stroke-miterlimit="4" d="M32.743,67.304L27.285,67.304C23.267,67.304,20.009,64.047,20.009,60.028L20.009,38.2C20.009,34.181,23.267,30.924,27.285,30.924L70.942,30.924C71.947,30.924,72.761,31.738,72.761,32.743L72.761,65.485C72.761,66.49,71.947,67.304,70.942,67.304L60.028,67.304C58.019,67.304,56.39,68.933,56.39,70.942C56.39,72.951,58.019,74.58,60.028,74.58L70.942,74.58C75.965,74.58,80.037,70.508,80.037,65.485L80.037,32.743C80.037,27.719,75.965,23.647,70.942,23.647L27.285,23.647C19.248,23.647,12.733,30.163,12.733,38.2L12.733,60.028C12.733,68.065,19.248,74.58,27.285,74.58L32.743,74.58C34.752,74.58,36.381,72.951,36.381,70.942C36.381,68.933,34.752,67.304,32.743,67.304ZM29.141,70.428L25.464,96.17C24.211,104.936,31.014,112.78,39.87,112.78L45.105,112.78C52.347,112.78,58.487,107.454,59.511,100.285L63.63,71.457C63.914,69.468,62.532,67.625,60.543,67.341C58.553,67.057,56.711,68.439,56.427,70.428L52.308,99.256C51.796,102.841,48.726,105.504,45.105,105.504L39.87,105.504C35.442,105.504,32.04,101.582,32.667,97.199L36.344,71.457C36.628,69.468,35.246,67.625,33.257,67.341C31.268,67.057,29.425,68.439,29.141,70.428ZM32.743,74.58L60.028,74.58C62.037,74.58,63.666,72.951,63.666,70.942C63.666,68.933,62.037,67.304,60.028,67.304L32.743,67.304C30.733,67.304,29.104,68.933,29.104,70.942C29.104,72.951,30.733,74.58,32.743,74.58ZM94.59,49.114C94.59,56.146,88.889,61.847,81.856,61.847L76.399,61.847C74.39,61.847,72.761,63.476,72.761,65.485C72.761,67.494,74.39,69.123,76.399,69.123L81.856,69.123C92.908,69.123,101.866,60.165,101.866,49.114C101.866,47.105,100.237,45.476,98.228,45.476C96.218,45.476,94.59,47.105,94.59,49.114ZM101.866,49.114C101.866,38.063,92.907,29.104,81.856,29.104L76.399,29.104C74.39,29.104,72.761,30.733,72.761,32.743C72.761,34.752,74.39,36.381,76.399,36.381L81.856,36.381C88.889,36.381,94.59,42.081,94.59,49.114C94.59,51.123,96.218,52.752,98.228,52.752C100.237,52.752,101.866,51.123,101.866,49.114ZM98.228,52.752L125.513,52.752C127.522,52.752,129.151,51.123,129.151,49.114C129.151,47.105,127.522,45.476,125.513,45.476L98.228,45.476C96.218,45.476,94.59,47.105,94.59,49.114C94.59,51.123,96.218,52.752,98.228,52.752Z"/>
</g>
  <g id="Ultralight-L" transform="matrix(1.0,0.0,0.0,1.0,495.51487780304393,1455.2848973342939)">  <path fill="#000000" fill-opacity="1" stroke-miterlimit="4" stroke-opacity="1" stroke-linecap="round" stroke-linejoin="round" stroke-dasharray="none" stroke-width="2px" fill-rule="nonzero" stroke="none" d="M32.743,68.214L27.285,68.214C22.765,68.214,19.1,64.549,19.1,60.028L19.1,38.2C19.1,33.679,22.765,30.014,27.285,30.014L70.942,30.014C72.449,30.014,73.671,31.236,73.671,32.743L73.671,65.485C73.671,66.992,72.449,68.214,70.942,68.214L60.028,68.214C58.521,68.214,57.299,69.435,57.299,70.942C57.299,72.449,58.521,73.671,60.028,73.671L70.942,73.671C75.463,73.671,79.128,70.006,79.128,65.485L79.128,32.743C79.128,28.222,75.463,24.557,70.942,24.557L27.285,24.557C19.751,24.557,13.643,30.665,13.643,38.2L13.643,60.028C13.643,67.563,19.751,73.671,27.285,73.671L32.743,73.671C34.249,73.671,35.471,72.449,35.471,70.942C35.471,69.435,34.249,68.214,32.743,68.214ZM30.041,70.556L26.364,96.299C25.19,104.517,31.567,111.87,39.87,111.87L45.105,111.87C51.895,111.87,57.651,106.878,58.611,100.157L62.729,71.328C62.942,69.836,61.906,68.454,60.414,68.241C58.922,68.028,57.54,69.065,57.327,70.556L53.208,99.385C52.633,103.418,49.179,106.413,45.105,106.413L39.87,106.413C34.888,106.413,31.062,102.001,31.766,97.07L35.444,71.328C35.657,69.836,34.62,68.454,33.128,68.241C31.637,68.028,30.255,69.065,30.041,70.556ZM32.743,73.671L60.028,73.671C61.535,73.671,62.757,72.449,62.757,70.942C62.757,69.435,61.535,68.214,60.028,68.214L32.743,68.214C31.236,68.214,30.014,69.435,30.014,70.942C30.014,72.449,31.236,73.671,32.743,73.671ZM95.499,49.114C95.499,56.649,89.391,62.757,81.856,62.757L76.399,62.757C74.892,62.757,73.671,63.978,73.671,65.485C73.671,66.992,74.892,68.214,76.399,68.214L81.856,68.214C92.405,68.214,100.956,59.663,100.956,49.114C100.956,47.607,99.735,46.385,98.228,46.385C96.721,46.385,95.499,47.607,95.499,49.114ZM100.956,49.114C100.956,38.565,92.405,30.014,81.856,30.014L76.399,30.014C74.892,30.014,73.671,31.236,73.671,32.743C73.671,34.249,74.892,35.471,76.399,35.471L81.856,35.471C89.391,35.471,95.499,41.579,95.499,49.114C95.499,50.621,96.721,51.842,98.228,51.842C99.735,51.842,100.956,50.621,100.956,49.114ZM98.228,51.842L125.513,51.842C127.02,51.842,128.242,50.621,128.242,49.114C128.242,47.607,127.02,46.385,125.513,46.385L98.228,46.385C96.721,46.385,95.499,47.607,95.499,49.114C95.499,50.621,96.721,51.842,98.228,51.842Z"/>
</g>
  <g id="Black-M" transform="matrix(1.0,0.0,0.0,1.0,2883.9163393822046,1040.0063589134545)">  <path stroke-dasharray="none" stroke-miterlimit="4" stroke-linejoin="round" fill="#000000" stroke-width="2px" fill-rule="nonzero" stroke-linecap="round" stroke="none" fill-opacity="1" stroke-opacity="1" d="M25.382,43.361L21.152,43.361C22.904,43.361,24.324,44.781,24.324,46.533L24.324,29.612C24.324,31.364,22.904,32.785,21.152,32.785L54.994,32.785C50.905,32.785,47.591,29.47,47.591,25.382L47.591,50.764C47.591,46.675,50.905,43.361,54.994,43.361L46.533,43.361C40.108,43.361,34.9,48.569,34.9,54.994C34.9,61.419,40.108,66.627,46.533,66.627L54.994,66.627C63.755,66.627,70.858,59.525,70.858,50.764L70.858,25.382C70.858,16.621,63.755,9.518,54.994,9.518L21.152,9.518C10.054,9.518,1.058,18.515,1.058,29.612L1.058,46.533C1.058,57.631,10.054,66.627,21.152,66.627L25.382,66.627C31.807,66.627,37.015,61.419,37.015,54.994C37.015,48.569,31.807,43.361,25.382,43.361ZM13.865,53.349L11.015,73.304C9.285,85.409,18.679,96.239,30.907,96.239L34.965,96.239C44.965,96.239,53.444,88.886,54.857,78.986L58.05,56.639C58.958,50.279,54.539,44.386,48.179,43.478C41.818,42.569,35.926,46.988,35.017,53.349L31.824,75.697C32.047,74.134,33.386,72.973,34.965,72.973L30.907,72.973C32.838,72.973,34.321,74.683,34.048,76.594L36.898,56.639C37.807,50.279,33.387,44.386,27.027,43.478C20.667,42.569,14.774,46.988,13.865,53.349ZM25.382,66.627L46.533,66.627C52.958,66.627,58.167,61.419,58.167,54.994C58.167,48.569,52.958,43.361,46.533,43.361L25.382,43.361C18.957,43.361,13.748,48.569,13.748,54.994C13.748,61.419,18.957,66.627,25.382,66.627ZM64.512,38.073C64.512,38.657,64.039,39.13,63.455,39.13L59.224,39.13C52.799,39.13,47.591,44.339,47.591,50.764C47.591,57.189,52.799,62.397,59.224,62.397L63.455,62.397C76.889,62.397,87.779,51.507,87.779,38.073C87.779,31.648,82.57,26.439,76.145,26.439C69.721,26.439,64.512,31.648,64.512,38.073ZM87.779,38.073C87.779,24.639,76.889,13.748,63.455,13.748L59.224,13.748C52.799,13.748,47.591,18.957,47.591,25.382C47.591,31.807,52.799,37.015,59.224,37.015L63.455,37.015C64.039,37.015,64.512,37.489,64.512,38.073C64.512,44.498,69.721,49.706,76.145,49.706C82.57,49.706,87.779,44.498,87.779,38.073ZM76.145,49.706L97.297,49.706C103.722,49.706,108.93,44.498,108.93,38.073C108.93,31.648,103.722,26.439,97.297,26.439L76.145,26.439C69.721,26.439,64.512,31.648,64.512,38.073C64.512,44.498,69.721,49.706,76.145,49.706Z"/>
</g>
  <g id="Heavy-M" transform="matrix(1.0,0.0,0.0,1.0,2587.2063393822045,1040.0063589134545)">  <path stroke-linejoin="round" fill-rule="nonzero" stroke-dasharray="none" stroke-width="2px" stroke-miterlimit="4" stroke="none" fill="#000000" stroke-linecap="round" fill-opacity="1" stroke-opacity="1" d="M25.382,44.841L21.152,44.841C22.086,44.841,22.844,45.599,22.844,46.533L22.844,29.612C22.844,30.547,22.086,31.304,21.152,31.304L54.994,31.304C51.723,31.304,49.072,28.653,49.072,25.382L49.072,50.764C49.072,47.493,51.723,44.841,54.994,44.841L46.533,44.841C40.926,44.841,36.381,49.387,36.381,54.994C36.381,60.601,40.926,65.147,46.533,65.147L54.994,65.147C62.938,65.147,69.377,58.707,69.377,50.764L69.377,25.382C69.377,17.438,62.938,10.999,54.994,10.999L21.152,10.999C10.872,10.999,2.538,19.332,2.538,29.612L2.538,46.533C2.538,56.813,10.872,65.147,21.152,65.147L25.382,65.147C30.989,65.147,35.535,60.601,35.535,54.994C35.535,49.387,30.989,44.841,25.382,44.841ZM15.331,53.558L12.48,73.513C10.879,84.726,19.58,94.759,30.907,94.759L34.965,94.759C44.228,94.759,52.082,87.947,53.392,78.777L56.584,56.43C57.377,50.879,53.52,45.736,47.969,44.943C42.418,44.15,37.276,48.007,36.483,53.558L33.29,75.906C33.409,75.073,34.123,74.453,34.965,74.453L30.907,74.453C31.936,74.453,32.727,75.365,32.582,76.385L35.433,56.43C36.225,50.879,32.368,45.736,26.818,44.943C21.267,44.15,16.124,48.007,15.331,53.558ZM25.382,65.147L46.533,65.147C52.141,65.147,56.686,60.601,56.686,54.994C56.686,49.387,52.141,44.841,46.533,44.841L25.382,44.841C19.775,44.841,15.229,49.387,15.229,54.994C15.229,60.601,19.775,65.147,25.382,65.147ZM65.993,38.073C65.993,39.475,64.857,40.611,63.455,40.611L59.224,40.611C53.617,40.611,49.072,45.156,49.072,50.764C49.072,56.371,53.617,60.916,59.224,60.916L63.455,60.916C76.071,60.916,86.298,50.689,86.298,38.073C86.298,32.466,81.753,27.92,76.145,27.92C70.538,27.92,65.993,32.466,65.993,38.073ZM86.298,38.073C86.298,25.457,76.071,15.229,63.455,15.229L59.224,15.229C53.617,15.229,49.072,19.775,49.072,25.382C49.072,30.989,53.617,35.535,59.224,35.535L63.455,35.535C64.856,35.535,65.993,36.671,65.993,38.073C65.993,43.68,70.538,48.225,76.145,48.225C81.753,48.225,86.298,43.68,86.298,38.073ZM76.145,48.225L97.297,48.225C102.904,48.225,107.45,43.68,107.45,38.073C107.45,32.466,102.904,27.92,97.297,27.92L76.145,27.92C70.538,27.92,65.993,32.466,65.993,38.073C65.993,43.68,70.538,48.225,76.145,48.225Z"/>
</g>
  <g id="Bold-M" transform="matrix(1.0,0.0,0.0,1.0,2290.4963393822045,1040.0063589134545)">  <path fill="#000000" fill-opacity="1" fill-rule="nonzero" stroke-linejoin="round" stroke-miterlimit="4" stroke-opacity="1" stroke-dasharray="none" stroke-linecap="round" stroke-width="2px" stroke="none" d="M25.382,46.322L21.152,46.322C21.268,46.322,21.363,46.417,21.363,46.533L21.363,29.612C21.363,29.729,21.268,29.824,21.152,29.824L54.994,29.824C52.541,29.824,50.552,27.835,50.552,25.382L50.552,50.764C50.552,48.311,52.541,46.322,54.994,46.322L46.533,46.322C41.744,46.322,37.861,50.204,37.861,54.994C37.861,59.783,41.744,63.666,46.533,63.666L54.994,63.666C62.12,63.666,67.896,57.89,67.896,50.764L67.896,25.382C67.896,18.256,62.12,12.479,54.994,12.479L21.152,12.479C11.689,12.479,4.019,20.15,4.019,29.612L4.019,46.533C4.019,55.996,11.689,63.666,21.152,63.666L25.382,63.666C30.171,63.666,34.054,59.783,34.054,54.994C34.054,50.204,30.171,46.322,25.382,46.322ZM16.797,53.768L13.946,73.723C12.472,84.044,20.481,93.278,30.907,93.278L34.965,93.278C43.491,93.278,50.72,87.008,51.926,78.568L55.118,56.22C55.796,51.479,52.501,47.086,47.76,46.409C43.018,45.732,38.626,49.026,37.948,53.768L34.756,76.115C34.771,76.011,34.86,75.934,34.965,75.934L30.907,75.934C31.035,75.934,31.134,76.048,31.116,76.176L33.967,56.22C34.644,51.479,31.35,47.086,26.608,46.409C21.867,45.732,17.474,49.026,16.797,53.768ZM25.382,63.666L46.533,63.666C51.323,63.666,55.205,59.783,55.205,54.994C55.205,50.204,51.323,46.322,46.533,46.322L25.382,46.322C20.592,46.322,16.71,50.204,16.71,54.994C16.71,59.783,20.592,63.666,25.382,63.666ZM67.473,38.073C67.473,40.292,65.674,42.092,63.455,42.092L59.224,42.092C54.435,42.092,50.552,45.974,50.552,50.764C50.552,55.553,54.435,59.436,59.224,59.436L63.455,59.436C75.253,59.436,84.818,49.871,84.818,38.073C84.818,33.283,80.935,29.401,76.145,29.401C71.356,29.401,67.473,33.283,67.473,38.073ZM84.818,38.073C84.818,26.274,75.253,16.71,63.455,16.71L59.224,16.71C54.435,16.71,50.552,20.592,50.552,25.382C50.552,30.171,54.435,34.054,59.224,34.054L63.455,34.054C65.674,34.054,67.473,35.853,67.473,38.073C67.473,42.862,71.356,46.745,76.145,46.745C80.935,46.745,84.818,42.862,84.818,38.073ZM76.145,46.745L97.297,46.745C102.086,46.745,105.969,42.862,105.969,38.073C105.969,33.283,102.086,29.401,97.297,29.401L76.145,29.401C71.356,29.401,67.473,33.283,67.473,38.073C67.473,42.862,71.356,46.745,76.145,46.745Z"/>
</g>
  <g id="Semibold-M" transform="matrix(1.0,0.0,0.0,1.0,1993.7863393822045,1040.0063589134545)">  <path fill="#000000" stroke-miterlimit="4" stroke="none" stroke-linecap="round" fill-opacity="1" stroke-dasharray="none" stroke-opacity="1" fill-rule="nonzero" stroke-linejoin="round" stroke-width="2px" d="M25.382,47.802L21.152,47.802C20.451,47.802,19.882,47.234,19.882,46.533L19.882,29.612C19.882,28.911,20.451,28.343,21.152,28.343L54.994,28.343C53.359,28.343,52.033,27.017,52.033,25.382L52.033,50.764C52.033,49.128,53.359,47.802,54.994,47.802L46.533,47.802C42.562,47.802,39.342,51.022,39.342,54.994C39.342,58.966,42.562,62.185,46.533,62.185L54.994,62.185C61.302,62.185,66.416,57.072,66.416,50.764L66.416,25.382C66.416,19.074,61.302,13.96,54.994,13.96L21.152,13.96C12.507,13.96,5.499,20.968,5.499,29.612L5.499,46.533C5.499,55.178,12.507,62.185,21.152,62.185L25.382,62.185C29.354,62.185,32.573,58.966,32.573,54.994C32.573,51.022,29.354,47.802,25.382,47.802ZM18.263,53.977L15.412,73.932C14.065,83.361,21.382,91.798,30.907,91.798L34.965,91.798C42.755,91.798,49.359,86.07,50.46,78.358L53.653,56.011C54.214,52.079,51.482,48.436,47.55,47.875C43.619,47.313,39.976,50.045,39.414,53.977L36.222,76.325C36.132,76.95,35.597,77.415,34.965,77.415L30.907,77.415C30.134,77.415,29.541,76.731,29.65,75.966L32.501,56.011C33.063,52.079,30.331,48.436,26.399,47.875C22.467,47.313,18.824,50.045,18.263,53.977ZM25.382,62.185L46.533,62.185C50.505,62.185,53.725,58.966,53.725,54.994C53.725,51.022,50.505,47.802,46.533,47.802L25.382,47.802C21.41,47.802,18.19,51.022,18.19,54.994C18.19,58.966,21.41,62.185,25.382,62.185ZM68.954,38.073C68.954,41.11,66.492,43.572,63.455,43.572L59.224,43.572C55.253,43.572,52.033,46.792,52.033,50.764C52.033,54.735,55.253,57.955,59.224,57.955L63.455,57.955C74.436,57.955,83.337,49.054,83.337,38.073C83.337,34.101,80.117,30.881,76.145,30.881C72.174,30.881,68.954,34.101,68.954,38.073ZM83.337,38.073C83.337,27.092,74.435,18.19,63.455,18.19L59.224,18.19C55.253,18.19,52.033,21.41,52.033,25.382C52.033,29.354,55.253,32.573,59.224,32.573L63.455,32.573C66.492,32.573,68.954,35.035,68.954,38.073C68.954,42.045,72.174,45.264,76.145,45.264C80.117,45.264,83.337,42.045,83.337,38.073ZM76.145,45.264L97.297,45.264C101.269,45.264,104.489,42.045,104.489,38.073C104.489,34.101,101.269,30.881,97.297,30.881L76.145,30.881C72.174,30.881,68.954,34.101,68.954,38.073C68.954,42.045,72.174,45.264,76.145,45.264Z"/>
</g>
  <g id="Medium-M" transform="matrix(1.0,0.0,0.0,1.0,1697.0763393822044,1040.0063589134545)">  <path stroke-miterlimit="4" stroke-opacity="1" stroke-width="2px" stroke-dasharray="none" stroke-linejoin="round" stroke-linecap="round" fill-opacity="1" fill="#000000" stroke="none" fill-rule="nonzero" d="M25.382,49.283L21.152,49.283C19.633,49.283,18.402,48.052,18.402,46.533L18.402,29.612C18.402,28.094,19.633,26.862,21.152,26.862L54.994,26.862C54.176,26.862,53.513,26.2,53.513,25.382L53.513,50.764C53.513,49.946,54.176,49.283,54.994,49.283L46.533,49.283C43.379,49.283,40.822,51.84,40.822,54.994C40.822,58.148,43.379,60.705,46.533,60.705L54.994,60.705C60.484,60.705,64.935,56.254,64.935,50.764L64.935,25.382C64.935,19.891,60.484,15.441,54.994,15.441L21.152,15.441C13.325,15.441,6.98,21.785,6.98,29.612L6.98,46.533C6.98,54.36,13.325,60.705,21.152,60.705L25.382,60.705C28.536,60.705,31.093,58.148,31.093,54.994C31.093,51.84,28.536,49.283,25.382,49.283ZM19.728,54.186L16.878,74.142C15.658,82.679,22.283,90.317,30.907,90.317L34.965,90.317C42.018,90.317,47.997,85.131,48.994,78.149L52.187,55.802C52.633,52.679,50.463,49.787,47.341,49.34C44.219,48.894,41.326,51.064,40.88,54.186L37.687,76.534C37.494,77.889,36.334,78.895,34.965,78.895L30.907,78.895C29.233,78.895,27.948,77.413,28.185,75.757L31.035,55.802C31.481,52.679,29.312,49.786,26.189,49.34C23.067,48.894,20.174,51.064,19.728,54.186ZM25.382,60.705L46.533,60.705C49.687,60.705,52.244,58.148,52.244,54.994C52.244,51.84,49.687,49.283,46.533,49.283L25.382,49.283C22.228,49.283,19.671,51.84,19.671,54.994C19.671,58.148,22.228,60.705,25.382,60.705ZM70.435,38.073C70.435,41.928,67.31,45.053,63.455,45.053L59.224,45.053C56.07,45.053,53.513,47.61,53.513,50.764C53.513,53.918,56.07,56.475,59.224,56.475L63.455,56.475C73.618,56.475,81.856,48.236,81.856,38.073C81.856,34.919,79.3,32.362,76.145,32.362C72.991,32.362,70.435,34.919,70.435,38.073ZM81.856,38.073C81.856,27.91,73.618,19.671,63.455,19.671L59.224,19.671C56.07,19.671,53.513,22.228,53.513,25.382C53.513,28.536,56.07,31.093,59.224,31.093L63.455,31.093C67.31,31.093,70.435,34.218,70.435,38.073C70.435,41.227,72.991,43.784,76.145,43.784C79.3,43.784,81.856,41.227,81.856,38.073ZM76.145,43.784L97.297,43.784C100.451,43.784,103.008,41.227,103.008,38.073C103.008,34.919,100.451,32.362,97.297,32.362L76.145,32.362C72.991,32.362,70.435,34.919,70.435,38.073C70.435,41.227,72.991,43.784,76.145,43.784Z"/>
</g>
  <g id="Regular-M" transform="matrix(1.0,0.0,0.0,1.0,1400.3663393822044,1040.0063589134545)">  <path stroke="none" fill-opacity="1" stroke-width="2px" stroke-linejoin="round" stroke-opacity="1" stroke-miterlimit="4" stroke-dasharray="none" fill-rule="nonzero" fill="#000000" stroke-linecap="round" d="M25.382,50.764L21.152,50.764C18.815,50.764,16.921,48.87,16.921,46.533L16.921,29.612C16.921,27.276,18.815,25.382,21.152,25.382L54.994,25.382C54.994,25.382,54.994,25.382,54.994,25.382L54.994,50.764C54.994,50.764,54.994,50.764,54.994,50.764L46.533,50.764C44.197,50.764,42.303,52.658,42.303,54.994C42.303,57.33,44.197,59.224,46.533,59.224L54.994,59.224C59.667,59.224,63.455,55.436,63.455,50.764L63.455,25.382C63.455,20.709,59.667,16.921,54.994,16.921L21.152,16.921C14.143,16.921,8.461,22.603,8.461,29.612L8.461,46.533C8.461,53.542,14.142,59.224,21.152,59.224L25.382,59.224C27.718,59.224,29.612,57.33,29.612,54.994C29.612,52.658,27.718,50.764,25.382,50.764ZM21.194,54.396L18.343,74.351C17.251,81.996,23.184,88.836,30.907,88.836L34.965,88.836C41.281,88.836,46.636,84.192,47.529,77.94L50.721,55.592C51.052,53.279,49.444,51.137,47.132,50.806C44.819,50.476,42.676,52.083,42.346,54.396L39.153,76.744C38.855,78.828,37.07,80.376,34.965,80.376L30.907,80.376C28.332,80.376,26.355,78.096,26.719,75.547L29.57,55.592C29.9,53.279,28.293,51.137,25.98,50.806C23.667,50.476,21.524,52.083,21.194,54.396ZM25.382,59.224L46.533,59.224C48.87,59.224,50.764,57.33,50.764,54.994C50.764,52.658,48.87,50.764,46.533,50.764L25.382,50.764C23.045,50.764,21.152,52.658,21.152,54.994C21.152,57.33,23.045,59.224,25.382,59.224ZM71.915,38.073C71.915,42.746,68.127,46.533,63.455,46.533L59.224,46.533C56.888,46.533,54.994,48.427,54.994,50.764C54.994,53.1,56.888,54.994,59.224,54.994L63.455,54.994C72.8,54.994,80.376,47.418,80.376,38.073C80.376,35.736,78.482,33.842,76.145,33.842C73.809,33.842,71.915,35.736,71.915,38.073ZM80.376,38.073C80.376,28.727,72.8,21.152,63.455,21.152L59.224,21.152C56.888,21.152,54.994,23.045,54.994,25.382C54.994,27.718,56.888,29.612,59.224,29.612L63.455,29.612C68.127,29.612,71.915,33.4,71.915,38.073C71.915,40.409,73.809,42.303,76.145,42.303C78.482,42.303,80.376,40.409,80.376,38.073ZM76.145,42.303L97.297,42.303C99.633,42.303,101.527,40.409,101.527,38.073C101.527,35.736,99.633,33.842,97.297,33.842L76.145,33.842C73.809,33.842,71.915,35.736,71.915,38.073C71.915,40.409,73.809,42.303,76.145,42.303Z"/>
</g>
  <g id="Light-M" transform="matrix(1.0,0.0,0.0,1.0,1103.6563393822046,1040.0063589134545)">  <path fill-rule="nonzero" stroke="none" stroke-opacity="1" stroke-width="2px" fill-opacity="1" stroke-dasharray="none" stroke-miterlimit="4" fill="#000000" stroke-linejoin="round" stroke-linecap="round" d="M25.382,51.469L21.152,51.469C18.426,51.469,16.216,49.259,16.216,46.533L16.216,29.612C16.216,26.886,18.426,24.677,21.152,24.677L54.994,24.677C55.383,24.677,55.699,24.992,55.699,25.382L55.699,50.764C55.699,51.153,55.383,51.469,54.994,51.469L46.533,51.469C44.586,51.469,43.008,53.047,43.008,54.994C43.008,56.941,44.586,58.519,46.533,58.519L54.994,58.519C59.277,58.519,62.75,55.047,62.75,50.764L62.75,25.382C62.75,21.099,59.277,17.626,54.994,17.626L21.152,17.626C14.532,17.626,9.166,22.993,9.166,29.612L9.166,46.533C9.166,53.153,14.532,58.519,21.152,58.519L25.382,58.519C27.329,58.519,28.907,56.941,28.907,54.994C28.907,53.047,27.329,51.469,25.382,51.469ZM21.892,54.495L19.041,74.451C18.01,81.671,23.613,88.131,30.907,88.131L34.965,88.131C40.93,88.131,45.987,83.745,46.831,77.84L50.023,55.493C50.299,53.565,48.959,51.779,47.032,51.504C45.105,51.229,43.319,52.568,43.044,54.495L39.851,76.843C39.504,79.275,37.421,81.081,34.965,81.081L30.907,81.081C27.903,81.081,25.596,78.421,26.021,75.448L28.872,55.493C29.147,53.565,27.808,51.779,25.88,51.504C23.953,51.229,22.167,52.568,21.892,54.495ZM25.382,58.519L46.533,58.519C48.48,58.519,50.059,56.941,50.059,54.994C50.059,53.047,48.48,51.469,46.533,51.469L25.382,51.469C23.435,51.469,21.857,53.047,21.857,54.994C21.857,56.941,23.435,58.519,25.382,58.519ZM72.62,38.073C72.62,43.135,68.517,47.238,63.455,47.238L59.224,47.238C57.277,47.238,55.699,48.817,55.699,50.764C55.699,52.711,57.277,54.289,59.224,54.289L63.455,54.289C72.411,54.289,79.671,47.029,79.671,38.073C79.671,36.126,78.092,34.547,76.145,34.547C74.199,34.547,72.62,36.126,72.62,38.073ZM79.671,38.073C79.671,29.117,72.411,21.857,63.455,21.857L59.224,21.857C57.277,21.857,55.699,23.435,55.699,25.382C55.699,27.329,57.277,28.907,59.224,28.907L63.455,28.907C68.517,28.907,72.62,33.011,72.62,38.073C72.62,40.02,74.199,41.598,76.145,41.598C78.092,41.598,79.671,40.02,79.671,38.073ZM76.145,41.598L97.297,41.598C99.244,41.598,100.822,40.02,100.822,38.073C100.822,36.126,99.244,34.547,97.297,34.547L76.145,34.547C74.199,34.547,72.62,36.126,72.62,38.073C72.62,40.02,74.199,41.598,76.145,41.598Z"/>
</g>
  <g id="Thin-M" transform="matrix(1.0,0.0,0.0,1.0,806.9463393822047,1040.0063589134545)">  <path stroke-dasharray="none" fill-opacity="1" stroke="none" fill-rule="nonzero" fill="#000000" stroke-linecap="round" stroke-linejoin="round" stroke-width="2px" stroke-opacity="1" stroke-miterlimit="4" d="M25.382,52.174L21.152,52.174C18.036,52.174,15.511,49.649,15.511,46.533L15.511,29.612C15.511,26.497,18.036,23.972,21.152,23.972L54.994,23.972C55.773,23.972,56.404,24.603,56.404,25.382L56.404,50.764C56.404,51.543,55.773,52.174,54.994,52.174L46.533,52.174C44.976,52.174,43.713,53.436,43.713,54.994C43.713,56.552,44.976,57.814,46.533,57.814L54.994,57.814C58.888,57.814,62.044,54.658,62.044,50.764L62.044,25.382C62.044,21.488,58.888,18.331,54.994,18.331L21.152,18.331C14.921,18.331,9.871,23.382,9.871,29.612L9.871,46.533C9.871,52.764,14.921,57.814,21.152,57.814L25.382,57.814C26.939,57.814,28.202,56.552,28.202,54.994C28.202,53.436,26.939,52.174,25.382,52.174ZM22.59,54.595L19.739,74.55C18.768,81.346,24.042,87.426,30.907,87.426L34.965,87.426C40.579,87.426,45.339,83.298,46.133,77.741L49.325,55.393C49.545,53.851,48.474,52.422,46.932,52.202C45.39,51.982,43.962,53.053,43.741,54.595L40.549,76.943C40.152,79.722,37.772,81.786,34.965,81.786L30.907,81.786C27.474,81.786,24.838,78.746,25.323,75.348L28.174,55.393C28.394,53.851,27.323,52.422,25.781,52.202C24.239,51.982,22.81,53.053,22.59,54.595ZM25.382,57.814L46.533,57.814C48.091,57.814,49.354,56.552,49.354,54.994C49.354,53.436,48.091,52.174,46.533,52.174L25.382,52.174C23.824,52.174,22.562,53.436,22.562,54.994C22.562,56.552,23.824,57.814,25.382,57.814ZM73.325,38.073C73.325,43.524,68.906,47.943,63.455,47.943L59.224,47.943C57.667,47.943,56.404,49.206,56.404,50.764C56.404,52.321,57.667,53.584,59.224,53.584L63.455,53.584C72.021,53.584,78.966,46.639,78.966,38.073C78.966,36.515,77.703,35.253,76.145,35.253C74.588,35.253,73.325,36.515,73.325,38.073ZM78.966,38.073C78.966,29.506,72.021,22.562,63.455,22.562L59.224,22.562C57.667,22.562,56.404,23.824,56.404,25.382C56.404,26.939,57.667,28.202,59.224,28.202L63.455,28.202C68.906,28.202,73.325,32.621,73.325,38.073C73.325,39.63,74.588,40.893,76.145,40.893C77.703,40.893,78.966,39.63,78.966,38.073ZM76.145,40.893L97.297,40.893C98.855,40.893,100.117,39.63,100.117,38.073C100.117,36.515,98.855,35.253,97.297,35.253L76.145,35.253C74.588,35.253,73.325,36.515,73.325,38.073C73.325,39.63,74.588,40.893,76.145,40.893Z"/>
</g>
  <g id="Ultralight-M" transform="matrix(1.0,0.0,0.0,1.0,510.2363393822046,1040.0063589134545)">  <path fill="#000000" fill-opacity="1" stroke-miterlimit="4" stroke-opacity="1" stroke-linecap="round" stroke-linejoin="round" stroke-dasharray="none" stroke-width="2px" fill-rule="nonzero" stroke="none" d="M25.382,52.879L21.152,52.879C17.647,52.879,14.806,50.038,14.806,46.533L14.806,29.612C14.806,26.108,17.647,23.267,21.152,23.267L54.994,23.267C56.162,23.267,57.109,24.214,57.109,25.382L57.109,50.764C57.109,51.932,56.162,52.879,54.994,52.879L46.533,52.879C45.365,52.879,44.418,53.826,44.418,54.994C44.418,56.162,45.365,57.109,46.533,57.109L54.994,57.109C58.499,57.109,61.339,54.268,61.339,50.764L61.339,25.382C61.339,21.877,58.499,19.036,54.994,19.036L21.152,19.036C15.311,19.036,10.576,23.771,10.576,29.612L10.576,46.533C10.576,52.374,15.311,57.109,21.152,57.109L25.382,57.109C26.55,57.109,27.497,56.162,27.497,54.994C27.497,53.826,26.55,52.879,25.382,52.879ZM23.288,54.695L20.437,74.65C19.527,81.021,24.471,86.721,30.907,86.721L34.965,86.721C40.228,86.721,44.691,82.851,45.435,77.641L48.627,55.293C48.792,54.137,47.989,53.065,46.832,52.9C45.676,52.735,44.605,53.538,44.439,54.695L41.247,77.043C40.8,80.169,38.123,82.491,34.965,82.491L30.907,82.491C27.045,82.491,24.079,79.071,24.625,75.248L27.476,55.293C27.641,54.137,26.837,53.065,25.681,52.9C24.525,52.735,23.453,53.538,23.288,54.695ZM25.382,57.109L46.533,57.109C47.702,57.109,48.649,56.162,48.649,54.994C48.649,53.826,47.702,52.879,46.533,52.879L25.382,52.879C24.214,52.879,23.267,53.826,23.267,54.994C23.267,56.162,24.214,57.109,25.382,57.109ZM74.03,38.073C74.03,43.914,69.296,48.649,63.455,48.649L59.224,48.649C58.056,48.649,57.109,49.595,57.109,50.764C57.109,51.932,58.056,52.879,59.224,52.879L63.455,52.879C71.632,52.879,78.261,46.25,78.261,38.073C78.261,36.905,77.314,35.958,76.145,35.958C74.977,35.958,74.03,36.905,74.03,38.073ZM78.261,38.073C78.261,29.896,71.632,23.267,63.455,23.267L59.224,23.267C58.056,23.267,57.109,24.214,57.109,25.382C57.109,26.55,58.056,27.497,59.224,27.497L63.455,27.497C69.296,27.497,74.03,32.232,74.03,38.073C74.03,39.241,74.977,40.188,76.145,40.188C77.314,40.188,78.261,39.241,78.261,38.073ZM76.145,40.188L97.297,40.188C98.465,40.188,99.412,39.241,99.412,38.073C99.412,36.905,98.465,35.958,97.297,35.958L76.145,35.958C74.977,35.958,74.03,36.905,74.03,38.073C74.03,39.241,74.977,40.188,76.145,40.188Z"/>
</g>
  <g id="Black-S" transform="matrix(1.0,0.0,0.0,1.0,2894.932053736266,621.0220732675162)">  <path stroke-dasharray="none" stroke-miterlimit="4" stroke-linejoin="round" fill="#000000" stroke-width="2px" fill-rule="nonzero" stroke-linecap="round" stroke="none" fill-opacity="1" stroke-opacity="1" d="M19.874,33.951L16.562,33.951C17.934,33.951,19.046,35.064,19.046,36.436L19.046,23.186C19.046,24.558,17.934,25.671,16.562,25.671L43.06,25.671C39.859,25.671,37.264,23.075,37.264,19.874L37.264,39.748C37.264,36.547,39.859,33.951,43.06,33.951L36.436,33.951C31.405,33.951,27.327,38.03,27.327,43.06C27.327,48.091,31.405,52.169,36.436,52.169L43.06,52.169C49.92,52.169,55.482,46.608,55.482,39.748L55.482,19.874C55.482,13.014,49.92,7.453,43.06,7.453L16.562,7.453C7.872,7.453,0.828,14.497,0.828,23.186L0.828,36.436C0.828,45.125,7.872,52.169,16.562,52.169L19.874,52.169C24.905,52.169,28.983,48.091,28.983,43.06C28.983,38.03,24.905,33.951,19.874,33.951ZM10.857,41.772L8.625,57.397C7.27,66.875,14.625,75.355,24.2,75.355L27.378,75.355C35.208,75.355,41.846,69.598,42.953,61.846L45.453,44.348C46.164,39.368,42.704,34.754,37.724,34.043C32.744,33.331,28.13,36.792,27.418,41.772L24.918,59.27C25.093,58.047,26.141,57.138,27.378,57.138L24.2,57.138C25.712,57.138,26.873,58.477,26.659,59.973L28.891,44.348C29.603,39.368,26.142,34.754,21.162,34.043C16.182,33.331,11.568,36.792,10.857,41.772ZM19.874,52.169L36.436,52.169C41.466,52.169,45.545,48.091,45.545,43.06C45.545,38.03,41.466,33.951,36.436,33.951L19.874,33.951C14.843,33.951,10.765,38.03,10.765,43.06C10.765,48.091,14.843,52.169,19.874,52.169ZM50.513,29.811C50.513,30.268,50.142,30.639,49.685,30.639L46.373,30.639C41.342,30.639,37.264,34.717,37.264,39.748C37.264,44.779,41.342,48.857,46.373,48.857L49.685,48.857C60.204,48.857,68.731,40.33,68.731,29.811C68.731,24.78,64.653,20.702,59.622,20.702C54.591,20.702,50.513,24.78,50.513,29.811ZM68.731,29.811C68.731,19.292,60.204,10.765,49.685,10.765L46.373,10.765C41.342,10.765,37.264,14.843,37.264,19.874C37.264,24.905,41.342,28.983,46.373,28.983L49.685,28.983C50.142,28.983,50.513,29.354,50.513,29.811C50.513,34.842,54.591,38.92,59.622,38.92C64.653,38.92,68.731,34.842,68.731,29.811ZM59.622,38.92L76.184,38.92C81.214,38.92,85.292,34.842,85.292,29.811C85.292,24.78,81.214,20.702,76.184,20.702L59.622,20.702C54.591,20.702,50.513,24.78,50.513,29.811C50.513,34.842,54.591,38.92,59.622,38.92Z"/>
</g>
  <g id="Heavy-S" transform="matrix(1.0,0.0,0.0,1.0,2598.222053736266,621.0220732675162)">  <path stroke-linejoin="round" fill-rule="nonzero" stroke-dasharray="none" stroke-width="2px" stroke-miterlimit="4" stroke="none" fill="#000000" stroke-linecap="round" fill-opacity="1" stroke-opacity="1" d="M19.874,35.111L16.562,35.111C17.293,35.111,17.887,35.704,17.887,36.436L17.887,23.186C17.887,23.918,17.293,24.511,16.562,24.511L43.06,24.511C40.499,24.511,38.423,22.435,38.423,19.874L38.423,39.748C38.423,37.187,40.499,35.111,43.06,35.111L36.436,35.111C32.045,35.111,28.486,38.67,28.486,43.06C28.486,47.451,32.045,51.01,36.436,51.01L43.06,51.01C49.28,51.01,54.322,45.968,54.322,39.748L54.322,19.874C54.322,13.654,49.28,8.612,43.06,8.612L16.562,8.612C8.513,8.612,1.987,15.137,1.987,23.186L1.987,36.436C1.987,44.485,8.512,51.01,16.562,51.01L19.874,51.01C24.264,51.01,27.824,47.451,27.824,43.06C27.824,38.67,24.264,35.111,19.874,35.111ZM12.004,41.936L9.772,57.561C8.518,66.341,15.331,74.196,24.2,74.196L27.378,74.196C34.631,74.196,40.78,68.863,41.806,61.682L44.305,44.185C44.926,39.838,41.906,35.811,37.56,35.191C33.214,34.57,29.187,37.59,28.566,41.936L26.066,59.434C26.159,58.782,26.718,58.297,27.378,58.297L24.2,58.297C25.006,58.297,25.626,59.011,25.512,59.809L27.744,44.185C28.365,39.838,25.345,35.811,20.998,35.191C16.652,34.57,12.625,37.59,12.004,41.936ZM19.874,51.01L36.436,51.01C40.826,51.01,44.385,47.451,44.385,43.06C44.385,38.67,40.826,35.111,36.436,35.111L19.874,35.111C15.484,35.111,11.924,38.67,11.924,43.06C11.924,47.451,15.484,51.01,19.874,51.01ZM51.672,29.811C51.672,30.909,50.783,31.798,49.685,31.798L46.373,31.798C41.982,31.798,38.423,35.358,38.423,39.748C38.423,44.138,41.982,47.698,46.373,47.698L49.685,47.698C59.564,47.698,67.572,39.69,67.572,29.811C67.572,25.421,64.012,21.861,59.622,21.861C55.231,21.861,51.672,25.421,51.672,29.811ZM67.572,29.811C67.572,19.932,59.564,11.924,49.685,11.924L46.373,11.924C41.982,11.924,38.423,15.484,38.423,19.874C38.423,24.264,41.982,27.824,46.373,27.824L49.685,27.824C50.783,27.824,51.672,28.713,51.672,29.811C51.672,34.201,55.231,37.761,59.622,37.761C64.012,37.761,67.572,34.201,67.572,29.811ZM59.622,37.761L76.184,37.761C80.574,37.761,84.133,34.201,84.133,29.811C84.133,25.421,80.574,21.861,76.184,21.861L59.622,21.861C55.231,21.861,51.672,25.421,51.672,29.811C51.672,34.201,55.231,37.761,59.622,37.761Z"/>
</g>
  <g id="Bold-S" transform="matrix(1.0,0.0,0.0,1.0,2301.512053736266,621.0220732675162)">  <path fill="#000000" fill-opacity="1" fill-rule="nonzero" stroke-linejoin="round" stroke-miterlimit="4" stroke-opacity="1" stroke-dasharray="none" stroke-linecap="round" stroke-width="2px" stroke="none" d="M19.874,36.27L16.562,36.27C16.653,36.27,16.727,36.344,16.727,36.436L16.727,23.186C16.727,23.278,16.653,23.352,16.562,23.352L43.06,23.352C41.139,23.352,39.582,21.795,39.582,19.874L39.582,39.748C39.582,37.827,41.14,36.27,43.06,36.27L36.436,36.27C32.685,36.27,29.645,39.31,29.645,43.06C29.645,46.81,32.685,49.851,36.436,49.851L43.06,49.851C48.64,49.851,53.163,45.328,53.163,39.748L53.163,19.874C53.163,14.294,48.64,9.771,43.06,9.771L16.562,9.771C9.153,9.771,3.147,15.777,3.147,23.186L3.147,36.436C3.147,43.845,9.153,49.851,16.562,49.851L19.874,49.851C23.624,49.851,26.664,46.81,26.664,43.06C26.664,39.31,23.624,36.27,19.874,36.27ZM13.152,42.1L10.92,57.725C9.765,65.806,16.036,73.037,24.2,73.037L27.378,73.037C34.054,73.037,39.714,68.128,40.658,61.519L43.158,44.021C43.688,40.308,41.108,36.869,37.396,36.338C33.683,35.808,30.244,38.387,29.714,42.1L27.214,59.598C27.225,59.517,27.295,59.456,27.378,59.456L24.2,59.456C24.301,59.456,24.378,59.546,24.364,59.646L26.596,44.021C27.126,40.308,24.547,36.869,20.834,36.338C17.122,35.808,13.682,38.388,13.152,42.1ZM19.874,49.851L36.436,49.851C40.186,49.851,43.226,46.81,43.226,43.06C43.226,39.31,40.186,36.27,36.436,36.27L19.874,36.27C16.124,36.27,13.084,39.31,13.084,43.06C13.084,46.81,16.124,49.851,19.874,49.851ZM52.832,29.811C52.832,31.549,51.423,32.958,49.685,32.958L46.373,32.958C42.622,32.958,39.582,35.998,39.582,39.748C39.582,43.498,42.622,46.538,46.373,46.538L49.685,46.538C58.923,46.538,66.412,39.049,66.412,29.811C66.412,26.061,63.372,23.021,59.622,23.021C55.872,23.021,52.832,26.061,52.832,29.811ZM66.412,29.811C66.412,20.573,58.923,13.084,49.685,13.084L46.373,13.084C42.622,13.084,39.582,16.124,39.582,19.874C39.582,23.624,42.622,26.664,46.373,26.664L49.685,26.664C51.423,26.664,52.832,28.073,52.832,29.811C52.832,33.561,55.872,36.601,59.622,36.601C63.372,36.601,66.412,33.561,66.412,29.811ZM59.622,36.601L76.184,36.601C79.934,36.601,82.974,33.561,82.974,29.811C82.974,26.061,79.934,23.021,76.184,23.021L59.622,23.021C55.872,23.021,52.832,26.061,52.832,29.811C52.832,33.561,55.872,36.601,59.622,36.601Z"/>
</g>
  <g id="Semibold-S" transform="matrix(1.0,0.0,0.0,1.0,2004.802053736266,621.0220732675162)">  <path fill="#000000" stroke-miterlimit="4" stroke="none" stroke-linecap="round" fill-opacity="1" stroke-dasharray="none" stroke-opacity="1" fill-rule="nonzero" stroke-linejoin="round" stroke-width="2px" d="M19.874,37.429L16.562,37.429C16.013,37.429,15.568,36.984,15.568,36.436L15.568,23.186C15.568,22.637,16.013,22.193,16.562,22.193L43.06,22.193C41.78,22.193,40.742,21.154,40.742,19.874L40.742,39.748C40.742,38.467,41.78,37.429,43.06,37.429L36.436,37.429C33.326,37.429,30.805,39.95,30.805,43.06C30.805,46.17,33.326,48.691,36.436,48.691L43.06,48.691C48,48.691,52.004,44.687,52.004,39.748L52.004,19.874C52.004,14.935,48,10.931,43.06,10.931L16.562,10.931C9.793,10.931,4.306,16.418,4.306,23.186L4.306,36.436C4.306,43.204,9.793,48.691,16.562,48.691L19.874,48.691C22.984,48.691,25.505,46.17,25.505,43.06C25.505,39.95,22.984,37.429,19.874,37.429ZM14.3,42.264L12.067,57.889C11.013,65.272,16.742,71.878,24.2,71.878L27.378,71.878C33.477,71.878,38.648,67.393,39.51,61.355L42.01,43.857C42.45,40.778,40.311,37.926,37.232,37.486C34.153,37.046,31.301,39.185,30.861,42.264L28.361,59.762C28.292,60.252,27.872,60.616,27.378,60.616L24.2,60.616C23.595,60.616,23.131,60.08,23.216,59.482L25.448,43.857C25.888,40.778,23.749,37.926,20.67,37.486C17.592,37.046,14.739,39.185,14.3,42.264ZM19.874,48.691L36.436,48.691C39.546,48.691,42.067,46.17,42.067,43.06C42.067,39.95,39.546,37.429,36.436,37.429L19.874,37.429C16.764,37.429,14.243,39.95,14.243,43.06C14.243,46.17,16.764,48.691,19.874,48.691ZM53.991,29.811C53.991,32.189,52.063,34.117,49.685,34.117L46.373,34.117C43.263,34.117,40.742,36.638,40.742,39.748C40.742,42.858,43.263,45.379,46.373,45.379L49.685,45.379C58.283,45.379,65.253,38.409,65.253,29.811C65.253,26.701,62.732,24.18,59.622,24.18C56.512,24.18,53.991,26.701,53.991,29.811ZM65.253,29.811C65.253,21.213,58.283,14.243,49.685,14.243L46.373,14.243C43.263,14.243,40.742,16.764,40.742,19.874C40.742,22.984,43.263,25.505,46.373,25.505L49.685,25.505C52.063,25.505,53.991,27.433,53.991,29.811C53.991,32.921,56.512,35.442,59.622,35.442C62.732,35.442,65.253,32.921,65.253,29.811ZM59.622,35.442L76.184,35.442C79.293,35.442,81.815,32.921,81.815,29.811C81.815,26.701,79.293,24.18,76.184,24.18L59.622,24.18C56.512,24.18,53.991,26.701,53.991,29.811C53.991,32.921,56.512,35.442,59.622,35.442Z"/>
</g>
  <g id="Medium-S" transform="matrix(1.0,0.0,0.0,1.0,1708.092053736266,621.0220732675162)">  <path stroke-miterlimit="4" stroke-opacity="1" stroke-width="2px" stroke-dasharray="none" stroke-linejoin="round" stroke-linecap="round" fill-opacity="1" fill="#000000" stroke="none" fill-rule="nonzero" d="M19.874,38.589L16.562,38.589C15.373,38.589,14.409,37.625,14.409,36.436L14.409,23.186C14.409,21.997,15.373,21.033,16.562,21.033L43.06,21.033C42.42,21.033,41.901,20.514,41.901,19.874L41.901,39.748C41.901,39.108,42.42,38.589,43.06,38.589L36.436,38.589C33.966,38.589,31.964,40.591,31.964,43.06C31.964,45.53,33.966,47.532,36.436,47.532L43.06,47.532C47.359,47.532,50.844,44.047,50.844,39.748L50.844,19.874C50.844,15.575,47.359,12.09,43.06,12.09L16.562,12.09C10.433,12.09,5.465,17.058,5.465,23.186L5.465,36.436C5.465,42.564,10.433,47.532,16.562,47.532L19.874,47.532C22.344,47.532,24.346,45.53,24.346,43.06C24.346,40.591,22.344,38.589,19.874,38.589ZM15.447,42.428L13.215,58.053C12.26,64.737,17.447,70.718,24.2,70.718L27.378,70.718C32.9,70.718,37.582,66.657,38.363,61.191L40.862,43.693C41.212,41.248,39.513,38.983,37.068,38.634C34.623,38.284,32.358,39.983,32.009,42.428L29.509,59.926C29.358,60.987,28.449,61.775,27.378,61.775L24.2,61.775C22.89,61.775,21.883,60.614,22.069,59.318L24.301,43.693C24.65,41.248,22.951,38.983,20.506,38.634C18.062,38.284,15.797,39.983,15.447,42.428ZM19.874,47.532L36.436,47.532C38.905,47.532,40.907,45.53,40.907,43.06C40.907,40.591,38.905,38.589,36.436,38.589L19.874,38.589C17.404,38.589,15.402,40.591,15.402,43.06C15.402,45.53,17.404,47.532,19.874,47.532ZM55.15,29.811C55.15,32.83,52.704,35.276,49.685,35.276L46.373,35.276C43.903,35.276,41.901,37.278,41.901,39.748C41.901,42.218,43.903,44.22,46.373,44.22L49.685,44.22C57.643,44.22,64.094,37.769,64.094,29.811C64.094,27.341,62.092,25.339,59.622,25.339C57.152,25.339,55.15,27.341,55.15,29.811ZM64.094,29.811C64.094,21.853,57.643,15.402,49.685,15.402L46.373,15.402C43.903,15.402,41.901,17.404,41.901,19.874C41.901,22.344,43.903,24.346,46.373,24.346L49.685,24.346C52.703,24.346,55.15,26.792,55.15,29.811C55.15,32.281,57.152,34.283,59.622,34.283C62.092,34.283,64.094,32.281,64.094,29.811ZM59.622,34.283L76.184,34.283C78.653,34.283,80.655,32.281,80.655,29.811C80.655,27.341,78.653,25.339,76.184,25.339L59.622,25.339C57.152,25.339,55.15,27.341,55.15,29.811C55.15,32.281,57.152,34.283,59.622,34.283Z"/>
</g>
  <g id="Regular-S" transform="matrix(1.0,0.0,0.0,1.0,1411.382053736266,621.0220732675162)">  <path stroke="none" fill-opacity="1" stroke-width="2px" stroke-linejoin="round" stroke-opacity="1" stroke-miterlimit="4" stroke-dasharray="none" fill-rule="nonzero" fill="#000000" stroke-linecap="round" d="M19.874,39.748L16.562,39.748C14.732,39.748,13.249,38.265,13.249,36.436L13.249,23.186C13.249,21.357,14.732,19.874,16.562,19.874L43.06,19.874C43.06,19.874,43.06,19.874,43.06,19.874L43.06,39.748C43.06,39.748,43.06,39.748,43.06,39.748L36.436,39.748C34.606,39.748,33.123,41.231,33.123,43.06C33.123,44.89,34.606,46.373,36.436,46.373L43.06,46.373C46.719,46.373,49.685,43.407,49.685,39.748L49.685,19.874C49.685,16.215,46.719,13.249,43.06,13.249L16.562,13.249C11.074,13.249,6.625,17.698,6.625,23.186L6.625,36.436C6.625,41.924,11.074,46.373,16.562,46.373L19.874,46.373C21.703,46.373,23.186,44.89,23.186,43.06C23.186,41.231,21.703,39.748,19.874,39.748ZM16.595,42.592L14.363,58.217C13.508,64.203,18.153,69.559,24.2,69.559L27.378,69.559C32.323,69.559,36.516,65.922,37.215,61.027L39.715,43.529C39.973,41.718,38.715,40.04,36.904,39.781C35.093,39.523,33.415,40.781,33.157,42.592L30.657,60.09C30.424,61.722,29.026,62.934,27.378,62.934L24.2,62.934C22.184,62.934,20.636,61.149,20.921,59.154L23.153,43.529C23.412,41.718,22.153,40.04,20.342,39.781C18.531,39.523,16.854,40.781,16.595,42.592ZM19.874,46.373L36.436,46.373C38.265,46.373,39.748,44.89,39.748,43.06C39.748,41.231,38.265,39.748,36.436,39.748L19.874,39.748C18.045,39.748,16.562,41.231,16.562,43.06C16.562,44.89,18.045,46.373,19.874,46.373ZM56.31,29.811C56.31,33.47,53.344,36.436,49.685,36.436L46.373,36.436C44.543,36.436,43.06,37.919,43.06,39.748C43.06,41.577,44.543,43.06,46.373,43.06L49.685,43.06C57.002,43.06,62.934,37.129,62.934,29.811C62.934,27.982,61.451,26.499,59.622,26.499C57.793,26.499,56.31,27.982,56.31,29.811ZM62.934,29.811C62.934,22.494,57.002,16.562,49.685,16.562L46.373,16.562C44.543,16.562,43.06,18.045,43.06,19.874C43.06,21.703,44.543,23.186,46.373,23.186L49.685,23.186C53.344,23.186,56.31,26.152,56.31,29.811C56.31,31.64,57.793,33.123,59.622,33.123C61.451,33.123,62.934,31.64,62.934,29.811ZM59.622,33.123L76.184,33.123C78.013,33.123,79.496,31.64,79.496,29.811C79.496,27.982,78.013,26.499,76.184,26.499L59.622,26.499C57.793,26.499,56.31,27.982,56.31,29.811C56.31,31.64,57.793,33.123,59.622,33.123Z"/>
</g>
  <g id="Light-S" transform="matrix(1.0,0.0,0.0,1.0,1114.6720537362662,621.0220732675162)">  <path fill-rule="nonzero" stroke="none" stroke-opacity="1" stroke-width="2px" fill-opacity="1" stroke-dasharray="none" stroke-miterlimit="4" fill="#000000" stroke-linejoin="round" stroke-linecap="round" d="M19.874,40.3L16.562,40.3C14.427,40.3,12.697,38.57,12.697,36.436L12.697,23.186C12.697,21.052,14.427,19.322,16.562,19.322L43.06,19.322C43.365,19.322,43.612,19.569,43.612,19.874L43.612,39.748C43.612,40.053,43.365,40.3,43.06,40.3L36.436,40.3C34.911,40.3,33.675,41.536,33.675,43.06C33.675,44.585,34.911,45.821,36.436,45.821L43.06,45.821C46.414,45.821,49.133,43.102,49.133,39.748L49.133,19.874C49.133,16.52,46.414,13.801,43.06,13.801L16.562,13.801C11.378,13.801,7.177,18.003,7.177,23.186L7.177,36.436C7.177,41.619,11.378,45.821,16.562,45.821L19.874,45.821C21.398,45.821,22.634,44.585,22.634,43.06C22.634,41.536,21.398,40.3,19.874,40.3ZM17.141,42.67L14.909,58.295C14.102,63.948,18.489,69.007,24.2,69.007L27.378,69.007C32.048,69.007,36.008,65.572,36.668,60.949L39.168,43.451C39.384,41.942,38.335,40.543,36.826,40.328C35.317,40.112,33.919,41.161,33.703,42.67L31.203,60.168C30.931,62.072,29.301,63.486,27.378,63.486L24.2,63.486C21.848,63.486,20.042,61.403,20.374,59.076L22.607,43.451C22.822,41.941,21.773,40.543,20.264,40.328C18.755,40.112,17.357,41.161,17.141,42.67ZM19.874,45.821L36.436,45.821C37.96,45.821,39.196,44.585,39.196,43.06C39.196,41.536,37.96,40.3,36.436,40.3L19.874,40.3C18.35,40.3,17.114,41.536,17.114,43.06C17.114,44.585,18.35,45.821,19.874,45.821ZM56.862,29.811C56.862,33.775,53.649,36.988,49.685,36.988L46.373,36.988C44.848,36.988,43.612,38.223,43.612,39.748C43.612,41.272,44.848,42.508,46.373,42.508L49.685,42.508C56.698,42.508,62.382,36.824,62.382,29.811C62.382,28.287,61.146,27.051,59.622,27.051C58.097,27.051,56.862,28.287,56.862,29.811ZM62.382,29.811C62.382,22.798,56.698,17.114,49.685,17.114L46.373,17.114C44.848,17.114,43.612,18.35,43.612,19.874C43.612,21.398,44.848,22.634,46.373,22.634L49.685,22.634C53.649,22.634,56.862,25.847,56.862,29.811C56.862,31.335,58.097,32.571,59.622,32.571C61.146,32.571,62.382,31.335,62.382,29.811ZM59.622,32.571L76.184,32.571C77.708,32.571,78.944,31.335,78.944,29.811C78.944,28.287,77.708,27.051,76.184,27.051L59.622,27.051C58.097,27.051,56.862,28.287,56.862,29.811C56.862,31.335,58.097,32.571,59.622,32.571Z"/>
</g>
  <g id="Thin-S" transform="matrix(1.0,0.0,0.0,1.0,817.9620537362663,621.0220732675162)">  <path stroke-dasharray="none" fill-opacity="1" stroke="none" fill-rule="nonzero" fill="#000000" stroke-linecap="round" stroke-linejoin="round" stroke-width="2px" stroke-opacity="1" stroke-miterlimit="4" d="M19.874,40.852L16.562,40.852C14.122,40.852,12.145,38.875,12.145,36.436L12.145,23.186C12.145,20.747,14.123,18.77,16.562,18.77L43.06,18.77C43.67,18.77,44.164,19.264,44.164,19.874L44.164,39.748C44.164,40.358,43.67,40.852,43.06,40.852L36.436,40.852C35.216,40.852,34.227,41.841,34.227,43.06C34.227,44.28,35.216,45.268,36.436,45.268L43.06,45.268C46.109,45.268,48.581,42.797,48.581,39.748L48.581,19.874C48.581,16.825,46.109,14.353,43.06,14.353L16.562,14.353C11.683,14.353,7.729,18.308,7.729,23.186L7.729,36.436C7.729,41.314,11.683,45.268,16.562,45.268L19.874,45.268C21.094,45.268,22.082,44.28,22.082,43.06C22.082,41.841,21.094,40.852,19.874,40.852ZM17.688,42.748L15.456,58.373C14.696,63.694,18.825,68.455,24.2,68.455L27.378,68.455C31.773,68.455,35.5,65.222,36.122,60.871L38.622,43.373C38.794,42.165,37.955,41.047,36.748,40.874C35.541,40.702,34.422,41.541,34.25,42.748L31.75,60.246C31.439,62.422,29.576,64.038,27.378,64.038L24.2,64.038C21.512,64.038,19.448,61.658,19.828,58.997L22.06,43.373C22.232,42.165,21.394,41.047,20.186,40.874C18.979,40.702,17.86,41.541,17.688,42.748ZM19.874,45.268L36.436,45.268C37.655,45.268,38.644,44.28,38.644,43.06C38.644,41.841,37.655,40.852,36.436,40.852L19.874,40.852C18.654,40.852,17.666,41.841,17.666,43.06C17.666,44.28,18.654,45.268,19.874,45.268ZM57.414,29.811C57.414,34.08,53.954,37.54,49.685,37.54L46.373,37.54C45.153,37.54,44.164,38.528,44.164,39.748C44.164,40.968,45.153,41.956,46.373,41.956L49.685,41.956C56.393,41.956,61.83,36.519,61.83,29.811C61.83,28.591,60.841,27.603,59.622,27.603C58.402,27.603,57.414,28.591,57.414,29.811ZM61.83,29.811C61.83,23.103,56.393,17.666,49.685,17.666L46.373,17.666C45.153,17.666,44.164,18.654,44.164,19.874C44.164,21.094,45.153,22.082,46.373,22.082L49.685,22.082C53.954,22.082,57.414,25.542,57.414,29.811C57.414,31.031,58.402,32.019,59.622,32.019C60.841,32.019,61.83,31.031,61.83,29.811ZM59.622,32.019L76.184,32.019C77.403,32.019,78.392,31.031,78.392,29.811C78.392,28.591,77.403,27.603,76.184,27.603L59.622,27.603C58.402,27.603,57.414,28.591,57.414,29.811C57.414,31.031,58.402,32.019,59.622,32.019Z"/>
</g>
  <g id="Ultralight-S" transform="matrix(1.0,0.0,0.0,1.0,521.2520537362662,621.0220732675162)">  <path fill="#000000" fill-opacity="1" stroke-miterlimit="4" stroke-opacity="1" stroke-linecap="round" stroke-linejoin="round" stroke-dasharray="none" stroke-width="2px" fill-rule="nonzero" stroke="none" d="M19.874,41.404L16.562,41.404C13.818,41.404,11.593,39.18,11.593,36.436L11.593,23.186C11.593,20.442,13.818,18.218,16.562,18.218L43.06,18.218C43.975,18.218,44.716,18.959,44.716,19.874L44.716,39.748C44.716,40.663,43.975,41.404,43.06,41.404L36.436,41.404C35.521,41.404,34.779,42.146,34.779,43.06C34.779,43.975,35.521,44.716,36.436,44.716L43.06,44.716C45.804,44.716,48.029,42.492,48.029,39.748L48.029,19.874C48.029,17.13,45.804,14.905,43.06,14.905L16.562,14.905C11.988,14.905,8.281,18.613,8.281,23.186L8.281,36.436C8.281,41.009,11.988,44.716,16.562,44.716L19.874,44.716C20.789,44.716,21.53,43.975,21.53,43.06C21.53,42.146,20.789,41.404,19.874,41.404ZM18.234,42.826L16.002,58.451C15.29,63.439,19.161,67.903,24.2,67.903L27.378,67.903C31.499,67.903,34.993,64.872,35.575,60.793L38.075,43.294C38.204,42.389,37.575,41.55,36.67,41.421C35.764,41.291,34.925,41.921,34.796,42.826L32.296,60.324C31.947,62.772,29.85,64.59,27.378,64.59L24.2,64.59C21.176,64.59,18.854,61.912,19.281,58.919L21.513,43.294C21.643,42.389,21.014,41.55,20.108,41.421C19.203,41.291,18.364,41.921,18.234,42.826ZM19.874,44.716L36.436,44.716C37.35,44.716,38.092,43.975,38.092,43.06C38.092,42.146,37.35,41.404,36.436,41.404L19.874,41.404C18.959,41.404,18.218,42.146,18.218,43.06C18.218,43.975,18.959,44.716,19.874,44.716ZM57.966,29.811C57.966,34.384,54.258,38.092,49.685,38.092L46.373,38.092C45.458,38.092,44.716,38.833,44.716,39.748C44.716,40.663,45.458,41.404,46.373,41.404L49.685,41.404C56.088,41.404,61.278,36.214,61.278,29.811C61.278,28.896,60.537,28.155,59.622,28.155C58.707,28.155,57.966,28.896,57.966,29.811ZM61.278,29.811C61.278,23.408,56.088,18.218,49.685,18.218L46.373,18.218C45.458,18.218,44.716,18.959,44.716,19.874C44.716,20.789,45.458,21.53,46.373,21.53L49.685,21.53C54.258,21.53,57.966,25.238,57.966,29.811C57.966,30.726,58.707,31.467,59.622,31.467C60.537,31.467,61.278,30.726,61.278,29.811ZM59.622,31.467L76.184,31.467C77.098,31.467,77.84,30.726,77.84,29.811C77.84,28.896,77.098,28.155,76.184,28.155L59.622,28.155C58.707,28.155,57.966,28.896,57.966,29.811C57.966,30.726,58.707,31.467,59.622,31.467Z"/>
</g>
 </g>
</svg>
