<?xml version="1.0" encoding="UTF-8"?>
<!--Generator: Apple Native CoreSVG 175-->
<!DOCTYPE svg
PUBLIC "-//W3C//DTD SVG 1.1//EN"
       "http://www.w3.org/Graphics/SVG/1.1/DTD/svg11.dtd">
<svg version="1.1" xmlns="http://www.w3.org/2000/svg" xmlns:xlink="http://www.w3.org/1999/xlink" width="3300" height="2200">
 <!--glyph: "uni10039A.medium", point size: 100.0, font version: "17.1d1e1", template writer version: "65.1"-->
 <g id="Notes">
  <rect height="2200" id="artboard" style="fill:white;opacity:1" width="3300" x="0" y="0"/>
  <line style="fill:none;stroke:black;opacity:1;stroke-width:0.5;" x1="263" x2="3036" y1="292" y2="292"/>
  <text style="stroke:none;fill:black;font-family:sans-serif;font-size:13;font-weight:bold;" transform="matrix(1 0 0 1 263 322)">Weight/Scale Variations</text>
  <text style="stroke:none;fill:black;font-family:sans-serif;font-size:13;text-anchor:middle;" transform="matrix(1 0 0 1 559.711 322)">Ultralight</text>
  <text style="stroke:none;fill:black;font-family:sans-serif;font-size:13;text-anchor:middle;" transform="matrix(1 0 0 1 856.422 322)">Thin</text>
  <text style="stroke:none;fill:black;font-family:sans-serif;font-size:13;text-anchor:middle;" transform="matrix(1 0 0 1 1153.13 322)">Light</text>
  <text style="stroke:none;fill:black;font-family:sans-serif;font-size:13;text-anchor:middle;" transform="matrix(1 0 0 1 1449.84 322)">Regular</text>
  <text style="stroke:none;fill:black;font-family:sans-serif;font-size:13;text-anchor:middle;" transform="matrix(1 0 0 1 1746.56 322)">Medium</text>
  <text style="stroke:none;fill:black;font-family:sans-serif;font-size:13;text-anchor:middle;" transform="matrix(1 0 0 1 2043.27 322)">Semibold</text>
  <text style="stroke:none;fill:black;font-family:sans-serif;font-size:13;text-anchor:middle;" transform="matrix(1 0 0 1 2339.98 322)">Bold</text>
  <text style="stroke:none;fill:black;font-family:sans-serif;font-size:13;text-anchor:middle;" transform="matrix(1 0 0 1 2636.69 322)">Heavy</text>
  <text style="stroke:none;fill:black;font-family:sans-serif;font-size:13;text-anchor:middle;" transform="matrix(1 0 0 1 2933.4 322)">Black</text>
  <line style="fill:none;stroke:black;opacity:1;stroke-width:0.5;" x1="263" x2="3036" y1="1903" y2="1903"/>
  <g transform="matrix(1 0 0 1 263 1933)">
   <path d="M9.24805 0.830078Q10.8691 0.830078 12.2949 0.214844Q13.7207-0.400391 14.8096-1.49414Q15.8984-2.58789 16.5186-4.01367Q17.1387-5.43945 17.1387-7.05078Q17.1387-8.66211 16.5186-10.0879Q15.8984-11.5137 14.8047-12.6074Q13.7109-13.7012 12.2852-14.3164Q10.8594-14.9316 9.23828-14.9316Q7.62695-14.9316 6.20117-14.3164Q4.77539-13.7012 3.69141-12.6074Q2.60742-11.5137 1.9873-10.0879Q1.36719-8.66211 1.36719-7.05078Q1.36719-5.43945 1.9873-4.01367Q2.60742-2.58789 3.69629-1.49414Q4.78516-0.400391 6.21094 0.214844Q7.63672 0.830078 9.24805 0.830078ZM9.24805-0.654297Q7.91992-0.654297 6.7627-1.14746Q5.60547-1.64062 4.73145-2.51953Q3.85742-3.39844 3.36426-4.56055Q2.87109-5.72266 2.87109-7.05078Q2.87109-8.37891 3.35938-9.54102Q3.84766-10.7031 4.72168-11.582Q5.5957-12.4609 6.75293-12.9541Q7.91016-13.4473 9.23828-13.4473Q10.5762-13.4473 11.7334-12.9541Q12.8906-12.4609 13.7695-11.582Q14.6484-10.7031 15.1465-9.54102Q15.6445-8.37891 15.6445-7.05078Q15.6445-5.72266 15.1514-4.56055Q14.6582-3.39844 13.7842-2.51953Q12.9102-1.64062 11.748-1.14746Q10.5859-0.654297 9.24805-0.654297ZM5.6543-7.05078Q5.6543-6.72852 5.85938-6.52832Q6.06445-6.32812 6.40625-6.32812L8.51562-6.32812L8.51562-4.20898Q8.51562-3.88672 8.71094-3.67676Q8.90625-3.4668 9.23828-3.4668Q9.56055-3.4668 9.77051-3.67676Q9.98047-3.88672 9.98047-4.20898L9.98047-6.32812L12.0898-6.32812Q12.4219-6.32812 12.627-6.52832Q12.832-6.72852 12.832-7.05078Q12.832-7.38281 12.627-7.58789Q12.4219-7.79297 12.0898-7.79297L9.98047-7.79297L9.98047-9.90234Q9.98047-10.2344 9.77051-10.4443Q9.56055-10.6543 9.23828-10.6543Q8.90625-10.6543 8.71094-10.4443Q8.51562-10.2344 8.51562-9.90234L8.51562-7.79297L6.40625-7.79297Q6.06445-7.79297 5.85938-7.58789Q5.6543-7.38281 5.6543-7.05078Z"/>
  </g>
  <g transform="matrix(1 0 0 1 281.867 1933)">
   <path d="M11.709 2.91016Q13.75 2.91016 15.5518 2.12891Q17.3535 1.34766 18.7305-0.0292969Q20.1074-1.40625 20.8887-3.20801Q21.6699-5.00977 21.6699-7.05078Q21.6699-9.0918 20.8887-10.8936Q20.1074-12.6953 18.7305-14.0723Q17.3535-15.4492 15.5469-16.2305Q13.7402-17.0117 11.6992-17.0117Q9.6582-17.0117 7.85645-16.2305Q6.05469-15.4492 4.68262-14.0723Q3.31055-12.6953 2.5293-10.8936Q1.74805-9.0918 1.74805-7.05078Q1.74805-5.00977 2.5293-3.20801Q3.31055-1.40625 4.6875-0.0292969Q6.06445 1.34766 7.86621 2.12891Q9.66797 2.91016 11.709 2.91016ZM11.709 1.25Q9.98047 1.25 8.47656 0.605469Q6.97266-0.0390625 5.83496-1.17676Q4.69727-2.31445 4.05762-3.81836Q3.41797-5.32227 3.41797-7.05078Q3.41797-8.7793 4.05762-10.2832Q4.69727-11.7871 5.83008-12.9297Q6.96289-14.0723 8.4668-14.7119Q9.9707-15.3516 11.6992-15.3516Q13.4277-15.3516 14.9316-14.7119Q16.4355-14.0723 17.5781-12.9297Q18.7207-11.7871 19.3652-10.2832Q20.0098-8.7793 20.0098-7.05078Q20.0098-5.32227 19.3701-3.81836Q18.7305-2.31445 17.5928-1.17676Q16.4551-0.0390625 14.9463 0.605469Q13.4375 1.25 11.709 1.25ZM7.17773-7.05078Q7.17773-6.69922 7.41211-6.47461Q7.64648-6.25 8.01758-6.25L10.8887-6.25L10.8887-3.36914Q10.8887-2.99805 11.1133-2.76855Q11.3379-2.53906 11.6895-2.53906Q12.0605-2.53906 12.29-2.76855Q12.5195-2.99805 12.5195-3.36914L12.5195-6.25L15.4004-6.25Q15.7715-6.25 16.001-6.47461Q16.2305-6.69922 16.2305-7.05078Q16.2305-7.42188 16.001-7.65137Q15.7715-7.88086 15.4004-7.88086L12.5195-7.88086L12.5195-10.752Q12.5195-11.1328 12.29-11.3623Q12.0605-11.5918 11.6895-11.5918Q11.3379-11.5918 11.1133-11.3574Q10.8887-11.123 10.8887-10.752L10.8887-7.88086L8.01758-7.88086Q7.63672-7.88086 7.40723-7.65137Q7.17773-7.42188 7.17773-7.05078Z"/>
  </g>
  <g transform="matrix(1 0 0 1 305.646 1933)">
   <path d="M14.9707 5.66406Q17.0605 5.66406 18.96 5.01465Q20.8594 4.36523 22.4512 3.19336Q24.043 2.02148 25.2197 0.429688Q26.3965-1.16211 27.0459-3.06641Q27.6953-4.9707 27.6953-7.05078Q27.6953-9.14062 27.0459-11.04Q26.3965-12.9395 25.2197-14.5312Q24.043-16.123 22.4512-17.2998Q20.8594-18.4766 18.9551-19.126Q17.0508-19.7754 14.9609-19.7754Q12.8711-19.7754 10.9717-19.126Q9.07227-18.4766 7.48535-17.2998Q5.89844-16.123 4.72168-14.5312Q3.54492-12.9395 2.90039-11.04Q2.25586-9.14062 2.25586-7.05078Q2.25586-4.9707 2.90527-3.06641Q3.55469-1.16211 4.72656 0.429688Q5.89844 2.02148 7.49023 3.19336Q9.08203 4.36523 10.9814 5.01465Q12.8809 5.66406 14.9707 5.66406ZM14.9707 3.84766Q13.1641 3.84766 11.5283 3.2959Q9.89258 2.74414 8.53516 1.74805Q7.17773 0.751953 6.17676-0.610352Q5.17578-1.97266 4.62891-3.6084Q4.08203-5.24414 4.08203-7.05078Q4.08203-8.86719 4.62891-10.5029Q5.17578-12.1387 6.17188-13.501Q7.16797-14.8633 8.52539-15.8594Q9.88281-16.8555 11.5186-17.4023Q13.1543-17.9492 14.9609-17.9492Q16.7773-17.9492 18.4131-17.4023Q20.0488-16.8555 21.4111-15.8594Q22.7734-14.8633 23.7695-13.501Q24.7656-12.1387 25.3174-10.5029Q25.8691-8.86719 25.8691-7.05078Q25.8789-5.24414 25.332-3.6084Q24.7852-1.97266 23.7842-0.610352Q22.7832 0.751953 21.4209 1.74805Q20.0586 2.74414 18.4229 3.2959Q16.7871 3.84766 14.9707 3.84766ZM9.19922-7.05078Q9.19922-6.66992 9.45801-6.4209Q9.7168-6.17188 10.1172-6.17188L14.0625-6.17188L14.0625-2.2168Q14.0625-1.81641 14.3115-1.55762Q14.5605-1.29883 14.9512-1.29883Q15.3516-1.29883 15.6104-1.55273Q15.8691-1.80664 15.8691-2.2168L15.8691-6.17188L19.8242-6.17188Q20.2246-6.17188 20.4785-6.4209Q20.7324-6.66992 20.7324-7.05078Q20.7324-7.46094 20.4785-7.71484Q20.2246-7.96875 19.8242-7.96875L15.8691-7.96875L15.8691-11.9141Q15.8691-12.3242 15.6104-12.583Q15.3516-12.8418 14.9512-12.8418Q14.5605-12.8418 14.3115-12.583Q14.0625-12.3242 14.0625-11.9141L14.0625-7.96875L10.1172-7.96875Q9.70703-7.96875 9.45312-7.71484Q9.19922-7.46094 9.19922-7.05078Z"/>
  </g>
  <text style="stroke:none;fill:black;font-family:sans-serif;font-size:13;font-weight:bold;" transform="matrix(1 0 0 1 263 1953)">Design Variations</text>
  <text style="stroke:none;fill:black;font-family:sans-serif;font-size:13;" transform="matrix(1 0 0 1 263 1971)">Symbols are supported in up to nine weights and three scales.</text>
  <text style="stroke:none;fill:black;font-family:sans-serif;font-size:13;" transform="matrix(1 0 0 1 263 1989)">For optimal layout with text and other symbols, vertically align</text>
  <text style="stroke:none;fill:black;font-family:sans-serif;font-size:13;" transform="matrix(1 0 0 1 263 2007)">symbols with the adjacent text.</text>
  <line style="fill:none;stroke:#00AEEF;stroke-width:0.5;opacity:1.0;" x1="776" x2="776" y1="1919" y2="1933"/>
  <g transform="matrix(1 0 0 1 776 1933)">
   <path d="M3.31055 0.15625Q3.70117 0.15625 3.91602-0.00976562Q4.13086-0.175781 4.26758-0.585938L5.52734-4.0332L11.2891-4.0332L12.5488-0.585938Q12.6855-0.175781 12.9004-0.00976562Q13.1152 0.15625 13.4961 0.15625Q13.8867 0.15625 14.1162-0.0585938Q14.3457-0.273438 14.3457-0.644531Q14.3457-0.869141 14.2383-1.17188L9.6582-13.3691Q9.48242-13.8184 9.17969-14.043Q8.87695-14.2676 8.4082-14.2676Q7.5-14.2676 7.17773-13.3789L2.59766-1.16211Q2.49023-0.859375 2.49023-0.634766Q2.49023-0.263672 2.70996-0.0537109Q2.92969 0.15625 3.31055 0.15625ZM6.00586-5.51758L8.37891-12.0898L8.42773-12.0898L10.8008-5.51758Z"/>
  </g>
  <line style="fill:none;stroke:#00AEEF;stroke-width:0.5;opacity:1.0;" x1="793.197" x2="793.197" y1="1919" y2="1933"/>
  <text style="stroke:none;fill:black;font-family:sans-serif;font-size:13;font-weight:bold;" transform="matrix(1 0 0 1 776 1953)">Margins</text>
  <text style="stroke:none;fill:black;font-family:sans-serif;font-size:13;" transform="matrix(1 0 0 1 776 1971)">Leading and trailing margins on the left and right side of each symbol</text>
  <text style="stroke:none;fill:black;font-family:sans-serif;font-size:13;" transform="matrix(1 0 0 1 776 1989)">can be adjusted by modifying the x-location of the margin guidelines.</text>
  <text style="stroke:none;fill:black;font-family:sans-serif;font-size:13;" transform="matrix(1 0 0 1 776 2007)">Modifications are automatically applied proportionally to all</text>
  <text style="stroke:none;fill:black;font-family:sans-serif;font-size:13;" transform="matrix(1 0 0 1 776 2025)">scales and weights.</text>
  <g transform="matrix(1 0 0 1 1289 1933)">
   <path d="M2.8418 1.86523L4.54102 3.57422Q5.18555 4.22852 5.90332 4.17969Q6.62109 4.13086 7.31445 3.35938L18.0078-8.42773L17.041-9.4043L6.42578 2.27539Q6.16211 2.57812 5.89355 2.61719Q5.625 2.65625 5.27344 2.30469L4.10156 1.14258Q3.75 0.791016 3.79395 0.522461Q3.83789 0.253906 4.14062-0.0195312L15.6152-10.8203L14.6387-11.7871L3.04688-0.898438Q2.30469-0.214844 2.25098 0.498047Q2.19727 1.21094 2.8418 1.86523ZM9.25781-16.3281Q8.94531-16.0254 8.90625-15.6348Q8.86719-15.2441 9.04297-14.9512Q9.21875-14.6777 9.55566-14.541Q9.89258-14.4043 10.3809-14.5215Q11.4746-14.7754 12.5977-14.7314Q13.7207-14.6875 14.7949-13.9844L14.209-12.5293Q13.9551-11.9043 14.0674-11.4404Q14.1797-10.9766 14.5801-10.5664L16.875-8.25195Q17.2363-7.88086 17.5781-7.82227Q17.9199-7.76367 18.3398-7.8418L19.4043-8.03711L20.0684-7.36328L20.0293-6.80664Q20-6.43555 20.1221-6.12305Q20.2441-5.81055 20.6055-5.44922L21.3672-4.70703Q21.7285-4.3457 22.1533-4.33105Q22.5781-4.31641 22.9297-4.66797L25.8398-7.58789Q26.1914-7.93945 26.1816-8.35449Q26.1719-8.76953 25.8105-9.13086L25.0391-9.89258Q24.6875-10.2539 24.3799-10.3857Q24.0723-10.5176 23.7109-10.4883L23.1348-10.4395L22.4902-11.0742L22.7344-12.1973Q22.832-12.6172 22.6953-12.9834Q22.5586-13.3496 22.1191-13.7891L19.9219-15.9766Q18.6719-17.2168 17.2607-17.8369Q15.8496-18.457 14.4189-18.4814Q12.9883-18.5059 11.665-17.959Q10.3418-17.4121 9.25781-16.3281ZM10.752-15.957Q11.6602-16.6211 12.7002-16.9043Q13.7402-17.1875 14.8047-17.085Q15.8691-16.9824 16.8701-16.5137Q17.8711-16.0449 18.7012-15.2051L21.1328-12.793Q21.3086-12.6172 21.3525-12.4512Q21.3965-12.2852 21.3379-12.0312L21.0156-10.5469L22.5195-9.0625L23.5059-9.12109Q23.6914-9.13086 23.7891-9.09668Q23.8867-9.0625 24.0332-8.91602L24.6094-8.33984L22.168-5.89844L21.5918-6.47461Q21.4453-6.62109 21.4062-6.71875Q21.3672-6.81641 21.377-7.01172L21.4453-7.98828L19.9512-9.47266L18.4277-9.21875Q18.1836-9.16992 18.042-9.2041Q17.9004-9.23828 17.7148-9.41406L15.7129-11.416Q15.5176-11.5918 15.4932-11.7529Q15.4688-11.9141 15.5859-12.1875L16.4648-14.2773Q15.293-15.3711 13.8281-15.791Q12.3633-16.2109 10.8398-15.7617Q10.7227-15.7324 10.6885-15.8057Q10.6543-15.8789 10.752-15.957Z"/>
  </g>
  <text style="stroke:none;fill:black;font-family:sans-serif;font-size:13;font-weight:bold;" transform="matrix(1 0 0 1 1289 1953)">Exporting</text>
  <text style="stroke:none;fill:black;font-family:sans-serif;font-size:13;" transform="matrix(1 0 0 1 1289 1971)">Symbols should be outlined when exporting to ensure the</text>
  <text style="stroke:none;fill:black;font-family:sans-serif;font-size:13;" transform="matrix(1 0 0 1 1289 1989)">design is preserved when submitting to Xcode.</text>
  <text id="template-version" style="stroke:none;fill:black;font-family:sans-serif;font-size:13;text-anchor:end;" transform="matrix(1 0 0 1 3036 1933)">Template v.2.0</text>
  <text style="stroke:none;fill:black;font-family:sans-serif;font-size:13;text-anchor:end;" transform="matrix(1 0 0 1 3036 1951)">Requires Xcode 12 or greater</text>
  <text id="descriptive-name" style="stroke:none;fill:black;font-family:sans-serif;font-size:13;text-anchor:end;" transform="matrix(1 0 0 1 3036 1969)">Generated from printer</text>
  <text style="stroke:none;fill:black;font-family:sans-serif;font-size:13;text-anchor:end;" transform="matrix(1 0 0 1 3036 1987)">Typeset at 100 points</text>
  <text style="stroke:none;fill:black;font-family:sans-serif;font-size:13;" transform="matrix(1 0 0 1 263 726)">Small</text>
  <text style="stroke:none;fill:black;font-family:sans-serif;font-size:13;" transform="matrix(1 0 0 1 263 1156)">Medium</text>
  <text style="stroke:none;fill:black;font-family:sans-serif;font-size:13;" transform="matrix(1 0 0 1 263 1586)">Large</text>
 </g>
 <g id="Guides">
  <g id="H-reference" style="fill:#27AAE1;stroke:none;" transform="matrix(1 0 0 1 339 696)">
   <path d="M0.976562 0L3.66211 0L29.3457-67.1387L30.0293-67.1387L30.0293-70.459L28.125-70.459ZM11.6699-24.4629L46.9727-24.4629L46.2402-26.709L12.4512-26.709ZM55.127 0L57.7637 0L30.6152-70.459L29.4434-70.459L29.4434-67.1387Z"/>
  </g>
  <line id="Baseline-S" style="fill:none;stroke:#27AAE1;opacity:1;stroke-width:0.5;" x1="263" x2="3036" y1="696" y2="696"/>
  <line id="Capline-S" style="fill:none;stroke:#27AAE1;opacity:1;stroke-width:0.5;" x1="263" x2="3036" y1="625.541" y2="625.541"/>
  <g id="H-reference" style="fill:#27AAE1;stroke:none;" transform="matrix(1 0 0 1 339 1126)">
   <path d="M0.976562 0L3.66211 0L29.3457-67.1387L30.0293-67.1387L30.0293-70.459L28.125-70.459ZM11.6699-24.4629L46.9727-24.4629L46.2402-26.709L12.4512-26.709ZM55.127 0L57.7637 0L30.6152-70.459L29.4434-70.459L29.4434-67.1387Z"/>
  </g>
  <line id="Baseline-M" style="fill:none;stroke:#27AAE1;opacity:1;stroke-width:0.5;" x1="263" x2="3036" y1="1126" y2="1126"/>
  <line id="Capline-M" style="fill:none;stroke:#27AAE1;opacity:1;stroke-width:0.5;" x1="263" x2="3036" y1="1055.54" y2="1055.54"/>
  <g id="H-reference" style="fill:#27AAE1;stroke:none;" transform="matrix(1 0 0 1 339 1556)">
   <path d="M0.976562 0L3.66211 0L29.3457-67.1387L30.0293-67.1387L30.0293-70.459L28.125-70.459ZM11.6699-24.4629L46.9727-24.4629L46.2402-26.709L12.4512-26.709ZM55.127 0L57.7637 0L30.6152-70.459L29.4434-70.459L29.4434-67.1387Z"/>
  </g>
  <line id="Baseline-L" style="fill:none;stroke:#27AAE1;opacity:1;stroke-width:0.5;" x1="263" x2="3036" y1="1556" y2="1556"/>
  <line id="Capline-L" style="fill:none;stroke:#27AAE1;opacity:1;stroke-width:0.5;" x1="263" x2="3036" y1="1485.54" y2="1485.54"/>
  <line id="left-margin" style="fill:none;stroke:#00AEEF;stroke-width:0.5;opacity:1.0;" x1="1382.24" x2="1382.24" y1="1030.79" y2="1150.12"/>
  <line id="right-margin" style="fill:none;stroke:#00AEEF;stroke-width:0.5;opacity:1.0;" x1="1517.45" x2="1517.45" y1="1030.79" y2="1150.12"/>
 </g>
 <g id="Symbols">
  <g id="Black-L" transform="matrix(1 0 0 1 2842.41 1556)">
   <path d="M39.3543 15.5951L54.2712 15.5951L54.2712-1.27717L39.7217-1.27717Q36.8404-1.27717 35.2856-2.83199Q33.7308-4.38682 33.7308-7.26935L33.7308-62.4253Q33.7308-65.365 35.2856-66.9204Q36.8404-68.4759 39.7217-68.4759L142.262-68.4759Q145.18-68.4759 146.705-66.9204Q148.231-65.365 148.231-62.4253L148.231-7.26935Q148.231-4.38682 146.705-2.83199Q145.18-1.27717 142.262-1.27717L128.909-1.27717L128.909 15.5951L142.628 15.5951Q153.725 15.5951 159.812 9.55042Q165.898 3.50569 165.898-7.58838L165.898-62.1634Q165.898-73.2588 159.812-79.3035Q153.725-85.3482 142.628-85.3482L39.3543-85.3482Q28.3833-85.3482 22.2336-79.3035Q16.084-73.2588 16.084-62.1634L16.084-7.58838Q16.084 3.50569 22.1611 9.55042Q28.2382 15.5951 39.3543 15.5951ZM63.1189 37.0262L118.865 37.0262Q127.942 37.0262 132.295 32.6969Q136.648 28.3675 136.648 19.2433L136.648-24.5406Q136.648-33.7026 132.295-38.0124Q127.942-42.3223 118.865-42.3223L63.1189-42.3223Q54.1812-42.3223 49.7586-38.0124Q45.336-33.7026 45.336-24.5406L45.336 19.2433Q45.336 28.3675 49.7171 32.6969Q54.0983 37.0262 63.1189 37.0262ZM64.0956 21.3999Q62.7747 21.3999 62.0027 20.6667Q61.2306 19.9336 61.2306 18.5115L61.2306-23.7712Q61.2306-25.1725 62.0027-25.905Q62.7747-26.6375 64.0956-26.6375L117.887-26.6375Q119.288-26.6375 120.01-25.905Q120.732-25.1725 120.732-23.7712L120.732 18.5115Q120.732 19.9336 120.01 20.6667Q119.288 21.3999 117.887 21.3999ZM43.6139-78.731L61.1571-78.731L61.1571-90.288Q61.1571-92.4543 62.3324-93.6205Q63.5077-94.7868 65.6376-94.7868L116.346-94.7868Q118.475-94.7868 119.651-93.6205Q120.828-92.4543 120.828-90.288L120.828-78.7725L138.348-78.7725L138.348-88.7738Q138.348-99.7264 132.944-105.057Q127.54-110.387 116.713-110.387L65.2702-110.387Q54.6455-110.387 49.1297-105.057Q43.6139-99.7264 43.6139-88.7738ZM73.7493-6.66048L108.395-6.66048Q110.754-6.66048 112.368-8.31398Q113.982-9.96747 113.982-12.3248Q113.982-14.6821 112.368-16.2565Q110.754-17.8308 108.395-17.8308L73.7493-17.8308Q71.3103-17.8308 69.6964-16.2565Q68.0825-14.6821 68.0825-12.3248Q68.0825-9.96747 69.7256-8.31398Q71.3687-6.66048 73.7493-6.66048ZM73.7493 12.8852L108.395 12.8852Q110.754 12.8852 112.368 11.2816Q113.982 9.67806 113.982 7.37916Q113.982 5.02185 112.368 3.36771Q110.754 1.71357 108.395 1.71357L73.7493 1.71357Q71.3687 1.71357 69.7256 3.36771Q68.0825 5.02185 68.0825 7.37916Q68.0825 9.67806 69.6964 11.2816Q71.3103 12.8852 73.7493 12.8852ZM117.935-55.505Q117.935-51.6652 120.654-48.9592Q123.373-46.2532 127.192-46.3297Q131.006-46.3868 133.695-49.0273Q136.385-51.6678 136.385-55.505Q136.385-59.2397 133.666-61.96Q130.947-64.6802 127.192-64.6802Q123.431-64.6802 120.683-61.96Q117.935-59.2397 117.935-55.505Z"/>
  </g>
  <g id="Heavy-L" transform="matrix(1 0 0 1 2546.68 1556)">
   <path d="M38.2066 15.3359L52.4996 15.3359L52.4996 0.343081L38.4595 0.343081Q35.2247 0.343081 33.5168-1.36475Q31.809-3.07259 31.809-6.31339L31.809-62.5845Q31.809-65.8638 33.5168-67.5747Q35.2247-69.2856 38.4595-69.2856L141.571-69.2856Q144.814-69.2856 146.5-67.5747Q148.185-65.8638 148.185-62.5845L148.185-6.31339Q148.185-3.07259 146.5-1.36475Q144.814 0.343081 141.571 0.343081L128.595 0.343081L128.595 15.3359L141.817 15.3359Q152.424 15.3359 158.182 9.64025Q163.94 3.94457 163.94-6.64956L163.94-62.2869Q163.94-72.887 158.182-78.5827Q152.424-84.2784 141.817-84.2784L38.2066-84.2784Q27.785-84.2784 21.9345-78.5827Q16.084-72.887 16.084-62.2869L16.084-6.64956Q16.084 3.94457 21.8303 9.64025Q27.5767 15.3359 38.2066 15.3359ZM60.8541 36.13L119.176 36.13Q127.544 36.13 131.589 32.1398Q135.634 28.1497 135.634 19.6719L135.634-25.8073Q135.634-34.2999 131.589-38.2796Q127.544-42.2594 119.176-42.2594L60.8541-42.2594Q52.6441-42.2594 48.52-38.2796Q44.3959-34.2999 44.3959-25.8073L44.3959 19.6719Q44.3959 28.1497 48.4605 32.1398Q52.5251 36.13 60.8541 36.13ZM62.2649 22.098Q60.602 22.098 59.6921 21.2223Q58.7823 20.3466 58.7823 18.5735L58.7823-24.694Q58.7823-26.4374 59.6921-27.31Q60.602-28.1827 62.2649-28.1827L117.759-28.1827Q119.503-28.1827 120.36-27.31Q121.218-26.4374 121.218-24.694L121.218 18.5735Q121.218 20.3466 120.36 21.2223Q119.503 22.098 117.759 22.098ZM42.9828-77.9685L58.559-77.9685L58.559-89.0882Q58.559-91.6946 59.9301-93.0568Q61.3012-94.4191 63.8987-94.4191L116.131-94.4191Q118.723-94.4191 120.1-93.0568Q121.477-91.6946 121.477-89.0882L121.477-78.028L137.012-78.028L137.012-87.7731Q137.012-98.2567 131.847-103.314Q126.683-108.371 116.384-108.371L63.6459-108.371Q53.5938-108.371 48.2883-103.314Q42.9828-98.2567 42.9828-87.7731ZM71.5934-7.86837L108.598-7.86837Q110.77-7.86837 112.25-9.38478Q113.729-10.9012 113.729-13.068Q113.729-15.2347 112.25-16.6767Q110.77-18.1188 108.598-18.1188L71.5934-18.1188Q69.3401-18.1188 67.8609-16.6767Q66.3817-15.2347 66.3817-13.068Q66.3817-10.9012 67.8832-9.38478Q69.3848-7.86837 71.5934-7.86837ZM71.5934 12.2572L108.598 12.2572Q110.77 12.2572 112.25 10.7928Q113.729 9.32849 113.729 7.20634Q113.729 5.03958 112.25 3.52015Q110.77 2.00072 108.598 2.00072L71.5934 2.00072Q69.3848 2.00072 67.8832 3.52015Q66.3817 5.03958 66.3817 7.20634Q66.3817 9.32849 67.8609 10.7928Q69.3401 12.2572 71.5934 12.2572ZM117.756-55.8104Q117.756-52.0999 120.378-49.5049Q123-46.9098 126.68-46.9721Q130.337-47.0107 132.937-49.5613Q135.536-52.112 135.536-55.8104Q135.536-59.3926 132.914-62.0206Q130.292-64.6487 126.68-64.6487Q123.044-64.6487 120.4-62.0206Q117.756-59.3926 117.756-55.8104Z"/>
  </g>
  <g id="Bold-L" transform="matrix(1 0 0 1 2251.24 1556)">
   <path d="M36.7703 14.8387L50.2961 14.8387L50.2961 2.21025L36.9007 2.21025Q33.1899 2.21025 31.285 0.305343Q29.3801-1.59956 29.3801-5.3246L29.3801-62.8172Q29.3801-66.5572 31.285-68.4692Q33.1899-70.3812 36.9007-70.3812L140.587-70.3812Q144.276-70.3812 146.166-68.4692Q148.057-66.5572 148.057-62.8172L148.057-5.3246Q148.057-1.59956 146.166 0.305343Q144.276 2.21025 140.587 2.21025L128.055 2.21025L128.055 14.8387L140.703 14.8387Q150.698 14.8387 156.044 9.5738Q161.39 4.3089 161.39-5.65692L161.39-62.4998Q161.39-72.4799 156.044-77.7448Q150.698-83.0097 140.703-83.0097L36.7703-83.0097Q27.0122-83.0097 21.5481-77.7448Q16.084-72.4799 16.084-62.4998L16.084-5.65692Q16.084 4.3089 21.4186 9.5738Q26.7532 14.8387 36.7703 14.8387ZM58.3262 34.9519L119.162 34.9519Q126.772 34.9519 130.484 31.3253Q134.196 27.6987 134.196 19.9182L134.196-27.2817Q134.196-35.0545 130.484-38.6779Q126.772-42.3013 119.162-42.3013L58.3262-42.3013Q50.8786-42.3013 47.0855-38.6779Q43.2925-35.0545 43.2925-27.2817L43.2925 19.9182Q43.2925 27.6987 47.0116 31.3253Q50.7307 34.9519 58.3262 34.9519ZM60.0933 22.9595Q57.9239 22.9595 56.8182 21.8798Q55.7125 20.8 55.7125 18.5133L55.7125-25.8846Q55.7125-28.1344 56.8182-29.207Q57.9239-30.2796 60.0933-30.2796L117.381-30.2796Q119.63-30.2796 120.684-29.207Q121.739-28.1344 121.739-25.8846L121.739 18.5133Q121.739 20.8 120.684 21.8798Q119.63 22.9595 117.381 22.9595ZM42.2451-77.2047L55.3562-77.2047L55.3562-87.8209Q55.3562-90.9857 56.9564-92.5817Q58.5566-94.1776 61.7435-94.1776L115.745-94.1776Q118.917-94.1776 120.532-92.5817Q122.146-90.9857 122.146-87.8209L122.146-77.2787L135.192-77.2787L135.192-86.7573Q135.192-96.6242 130.349-101.331Q125.506-106.037 115.875-106.037L61.613-106.037Q52.2563-106.037 47.2507-101.331Q42.2451-96.6242 42.2451-86.7573ZM68.819-9.46708L108.83-9.46708Q110.757-9.46708 112.059-10.8014Q113.36-12.1356 113.36-14.049Q113.36-15.9623 112.059-17.2304Q110.757-18.4985 108.83-18.4985L68.819-18.4985Q66.811-18.4985 65.5098-17.2304Q64.2086-15.9623 64.2086-14.049Q64.2086-12.1356 65.5244-10.8014Q66.8402-9.46708 68.819-9.46708ZM68.819 11.3244L108.83 11.3244Q110.757 11.3244 112.059 10.0417Q113.36 8.75899 113.36 6.87487Q113.36 4.96155 112.059 3.62016Q110.757 2.27876 108.83 2.27876L68.819 2.27876Q66.8402 2.27876 65.5244 3.62016Q64.2086 4.96155 64.2086 6.87487Q64.2086 8.75899 65.5098 10.0417Q66.811 11.3244 68.819 11.3244ZM117.296-56.2787Q117.296-52.7244 119.801-50.2664Q122.306-47.8084 125.823-47.8461Q129.284-47.8611 131.774-50.307Q134.264-52.7528 134.264-56.2787Q134.264-59.673 131.759-62.1922Q129.254-64.7113 125.823-64.7113Q122.335-64.7113 119.815-62.1922Q117.296-59.673 117.296-56.2787Z"/>
  </g>
  <g id="Semibold-L" transform="matrix(1 0 0 1 1955.41 1556)">
   <path d="M35.78 14.4959L48.7771 14.4959L48.7771 3.49746L35.8261 3.49746Q31.7871 3.49746 29.7463 1.4567Q27.7056-0.584068 27.7056-4.64294L27.7056-62.9776Q27.7056-67.0352 29.7463-69.0859Q31.7871-71.1366 35.8261-71.1366L139.909-71.1366Q143.905-71.1366 145.937-69.0859Q147.968-67.0352 147.968-62.9776L147.968-4.64294Q147.968-0.584068 145.937 1.4567Q143.905 3.49746 139.909 3.49746L127.682 3.49746L127.682 14.4959L139.936 14.4959Q149.508 14.4959 154.57 9.528Q159.632 4.56006 159.632-4.9726L159.632-62.6466Q159.632-72.1992 154.57-77.1671Q149.508-82.1351 139.936-82.1351L35.78-82.1351Q26.4794-82.1351 21.2817-77.1671Q16.084-72.1992 16.084-62.6466L16.084-4.9726Q16.084 4.56006 21.1348 9.528Q26.1855 14.4959 35.78 14.4959ZM56.5836 34.1398L119.152 34.1398Q126.241 34.1398 129.722 30.7638Q133.204 27.3878 133.204 20.088L133.204-28.2982Q133.204-35.5746 129.722-38.9524Q126.241-42.3301 119.152-42.3301L56.5836-42.3301Q49.6615-42.3301 46.0966-38.9524Q42.5318-35.5746 42.5318-28.2982L42.5318 20.088Q42.5318 27.3878 46.0127 30.7638Q49.4936 34.1398 56.5836 34.1398ZM58.5961 23.5534Q56.0777 23.5534 54.8369 22.333Q53.5962 21.1126 53.5962 18.4718L53.5962-26.7054Q53.5962-29.3043 54.8369-30.5147Q56.0777-31.7252 58.5961-31.7252L117.119-31.7252Q119.718-31.7252 120.908-30.5147Q122.097-29.3043 122.097-26.7054L122.097 18.4718Q122.097 21.1126 120.908 22.333Q119.718 23.5534 117.119 23.5534ZM41.7365-76.6782L53.1482-76.6782L53.1482-86.9473Q53.1482-90.497 54.9064-92.2541Q56.6646-94.0112 60.2576-94.0112L115.478-94.0112Q119.051-94.0112 120.829-92.2541Q122.607-90.497 122.607-86.9473L122.607-76.7621L133.937-76.7621L133.937-86.0571Q133.937-95.4987 129.315-99.9635Q124.694-104.428 115.524-104.428L60.2116-104.428Q51.3341-104.428 46.5353-99.9635Q41.7365-95.4987 41.7365-86.0571ZM66.9063-10.5692L108.99-10.5692Q110.748-10.5692 111.927-11.7779Q113.105-12.9867 113.105-14.7253Q113.105-16.4639 111.927-17.612Q110.748-18.7602 108.99-18.7602L66.9063-18.7602Q65.0674-18.7602 63.889-17.612Q62.7105-16.4639 62.7105-14.7253Q62.7105-12.9867 63.8983-11.7779Q65.086-10.5692 66.9063-10.5692ZM66.9063 10.6813L108.99 10.6813Q110.748 10.6813 111.927 9.52384Q113.105 8.36638 113.105 6.64636Q113.105 4.90776 111.927 3.6891Q110.748 2.47045 108.99 2.47045L66.9063 2.47045Q65.086 2.47045 63.8983 3.6891Q62.7105 4.90776 62.7105 6.64636Q62.7105 8.36638 63.889 9.52384Q65.0674 10.6813 66.9063 10.6813ZM116.979-56.6016Q116.979-53.1549 119.403-50.7914Q121.827-48.4279 125.232-48.4487Q128.557-48.4474 130.972-50.821Q133.387-53.1946 133.387-56.6016Q133.387-59.8663 130.963-62.3104Q128.539-64.7545 125.232-64.7545Q121.846-64.7545 119.413-62.3104Q116.979-59.8663 116.979-56.6016Z"/>
  </g>
  <g id="Medium-L" transform="matrix(1 0 0 1 1659.36 1556)">
   <path d="M35.0292 14.236L47.6253 14.236L47.6253 4.47348L35.0113 4.47348Q30.7235 4.47348 28.5797 2.3297Q26.4359 0.185924 26.4359-4.12607L26.4359-63.0993Q26.4359-67.3976 28.5797-69.5535Q30.7235-71.7093 35.0113-71.7093L139.395-71.7093Q143.624-71.7093 145.762-69.5535Q147.901-67.3976 147.901-63.0993L147.901-4.12607Q147.901 0.185924 145.762 2.3297Q143.624 4.47348 139.395 4.47348L127.399 4.47348L127.399 14.236L139.353 14.236Q148.606 14.236 153.452 9.49327Q158.298 4.7505 158.298-4.45372L158.298-62.758Q158.298-71.9863 153.452-76.7291Q148.606-81.4719 139.353-81.4719L35.0292-81.4719Q26.0754-81.4719 21.0797-76.7291Q16.084-71.9863 16.084-62.758L16.084-4.45372Q16.084 4.7505 20.9195 9.49327Q25.7551 14.236 35.0292 14.236ZM55.2622 33.524L119.144 33.524Q125.837 33.524 129.144 30.338Q132.452 27.1521 132.452 20.2167L132.452-29.0689Q132.452-35.9691 129.144-39.1605Q125.837-42.352 119.144-42.352L55.2622-42.352Q48.7386-42.352 45.3468-39.1605Q41.955-35.9691 41.955-29.0689L41.955 20.2167Q41.955 27.1521 45.2553 30.338Q48.5556 33.524 55.2622 33.524ZM57.4609 24.0038Q54.6778 24.0038 53.3346 22.6767Q51.9915 21.3497 51.9915 18.4403L51.9915-27.3278Q51.9915-30.1913 53.3346-31.5063Q54.6778-32.8213 57.4609-32.8213L116.922-32.8213Q119.785-32.8213 121.077-31.5063Q122.369-30.1913 122.369-27.3278L122.369 18.4403Q122.369 21.3497 121.077 22.6767Q119.785 24.0038 116.922 24.0038ZM41.3509-76.279L51.474-76.279L51.474-86.2848Q51.474-90.1265 53.352-92.0057Q55.2299-93.885 59.131-93.885L115.276-93.885Q119.153-93.885 121.055-92.0057Q122.957-90.1265 122.957-86.2848L122.957-76.3705L132.986-76.3705L132.986-85.5261Q132.986-94.6453 128.532-98.9269Q124.078-103.208 115.258-103.208L59.1489-103.208Q50.635-103.208 45.9929-98.9269Q41.3509-94.6453 41.3509-85.5261ZM65.456-11.4049L109.111-11.4049Q110.742-11.4049 111.827-12.5184Q112.912-13.6319 112.912-15.2381Q112.912-16.8442 111.827-17.9014Q110.742-18.9587 109.111-18.9587L65.456-18.9587Q63.7454-18.9587 62.66-17.9014Q61.5746-16.8442 61.5746-15.2381Q61.5746-13.6319 62.6652-12.5184Q63.7559-11.4049 65.456-11.4049ZM65.456 10.1937L109.111 10.1937Q110.742 10.1937 111.827 9.1312Q112.912 8.06869 112.912 6.47309Q112.912 4.86697 111.827 3.74138Q110.742 2.61579 109.111 2.61579L65.456 2.61579Q63.7559 2.61579 62.6652 3.74138Q61.5746 4.86697 61.5746 6.47309Q61.5746 8.06869 62.66 9.1312Q63.7454 10.1937 65.456 10.1937ZM116.739-56.8464Q116.739-53.4813 119.102-51.1894Q121.465-48.8976 124.784-48.9056Q128.007-48.8919 130.365-51.2108Q132.722-53.5296 132.722-56.8464Q132.722-60.0129 130.359-62.4Q127.996-64.7872 124.784-64.7872Q121.475-64.7872 119.107-62.4Q116.739-60.0129 116.739-56.8464Z"/>
  </g>
  <g id="Regular-L" transform="matrix(1 0 0 1 1363.52 1556)">
   <path d="M34.0499 13.897L46.1229 13.897L46.1229 5.74655L33.9485 5.74655Q29.3361 5.74655 27.058 3.46841Q24.7798 1.19026 24.7798-3.45189L24.7798-63.2579Q24.7798-67.8703 27.058-70.1634Q29.3361-72.4564 33.9485-72.4564L138.725-72.4564Q143.257-72.4564 145.535-70.1634Q147.813-67.8703 147.813-63.2579L147.813-3.45189Q147.813 1.19026 145.535 3.46841Q143.257 5.74655 138.725 5.74655L127.031 5.74655L127.031 13.897L138.594 13.897Q147.429 13.897 151.994 9.44796Q156.56 4.9989 156.56-3.77693L156.56-62.9032Q156.56-71.7087 151.994-76.1578Q147.429-80.6069 138.594-80.6069L34.0499-80.6069Q25.5484-80.6069 20.8162-76.1578Q16.084-71.7087 16.084-62.9032L16.084-3.77693Q16.084 4.9989 20.6388 9.44796Q25.1936 13.897 34.0499 13.897ZM53.5387 32.7207L119.135 32.7207Q125.311 32.7207 128.391 29.7827Q131.471 26.8446 131.471 20.3847L131.471-30.0742Q131.471-36.4835 128.391-39.4321Q125.311-42.3806 119.135-42.3806L53.5387-42.3806Q47.5349-42.3806 44.3688-39.4321Q41.2026-36.4835 41.2026-30.0742L41.2026 20.3847Q41.2026 26.8446 44.2674 29.7827Q47.3322 32.7207 53.5387 32.7207ZM55.9802 24.5912Q52.8518 24.5912 51.3751 23.125Q49.8985 21.6588 49.8985 18.3993L49.8985-28.1396Q49.8985-31.3484 51.3751-32.7997Q52.8518-34.251 55.9802-34.251L116.663-34.251Q119.872-34.251 121.298-32.7997Q122.724-31.3484 122.724-28.1396L122.724 18.3993Q122.724 21.6588 121.298 23.125Q119.872 24.5912 116.663 24.5912ZM40.8479-75.7582L49.2903-75.7582L49.2903-85.4207Q49.2903-89.6432 51.3245-91.6818Q53.3586-93.7203 57.6615-93.7203L115.012-93.7203Q119.285-93.7203 121.349-91.6818Q123.413-89.6432 123.413-85.4207L123.413-75.8596L131.745-75.8596L131.745-84.8335Q131.745-93.5323 127.51-97.5748Q123.275-101.617 114.91-101.617L57.7629-101.617Q49.723-101.617 45.2854-97.5748Q40.8479-93.5323 40.8479-84.8335ZM63.5644-12.4949L109.27-12.4949Q110.733-12.4949 111.697-13.4843Q112.661-14.4736 112.661-15.9069Q112.661-17.3402 111.697-18.2789Q110.733-19.2176 109.27-19.2176L63.5644-19.2176Q62.0209-19.2176 61.0569-18.2789Q60.093-17.3402 60.093-15.9069Q60.093-14.4736 61.0569-13.4843Q62.0209-12.4949 63.5644-12.4949ZM63.5644 9.5577L109.27 9.5577Q110.733 9.5577 111.697 8.61905Q112.661 7.6804 112.661 6.24708Q112.661 4.81377 111.697 3.80956Q110.733 2.80536 109.27 2.80536L63.5644 2.80536Q62.0209 2.80536 61.0569 3.80956Q60.093 4.81377 60.093 6.24708Q60.093 7.6804 61.0569 8.61905Q62.0209 9.5577 63.5644 9.5577ZM116.425-57.1657Q116.425-53.907 118.709-51.7087Q120.992-49.5103 124.2-49.5015Q127.289-49.4718 129.572-51.7191Q131.855-53.9665 131.855-57.1657Q131.855-60.2041 129.572-62.517Q127.289-64.8299 124.2-64.8299Q120.992-64.8299 118.709-62.517Q116.425-60.2041 116.425-57.1657Z"/>
  </g>
  <g id="Light-L" transform="matrix(1 0 0 1 1068.09 1556)">
   <path d="M32.9622 12.4194L44.5427 12.4194L44.5427 6.13647L32.9019 6.13647Q27.7149 6.13647 25.252 3.67363Q22.7892 1.21078 22.7892-4.02651L22.7892-63.6478Q22.7892-68.8349 25.252-71.3229Q27.7149-73.8108 32.9019-73.8108L137.227-73.8108Q142.333-73.8108 144.796-71.3229Q147.259-68.8349 147.259-63.6478L147.259-4.02651Q147.259 1.21078 144.796 3.67363Q142.333 6.13647 137.227 6.13647L125.676 6.13647L125.676 12.4194L137.116 12.4194Q145.5 12.4194 149.747 8.25769Q153.994 4.09593 153.994-4.18736L153.994-63.4367Q153.994-71.7703 149.747-75.932Q145.5-80.0938 137.116-80.0938L32.9622-80.0938Q24.8096-80.0938 20.4468-75.932Q16.084-71.7703 16.084-63.4367L16.084-4.18736Q16.084 4.09593 20.3412 8.25769Q24.5985 12.4194 32.9622 12.4194ZM53.5798 31.4689L116.549 31.4689Q122.992 31.4689 126.144 28.418Q129.295 25.3671 129.295 18.7224L129.295-30.4847Q129.295-37.0992 126.144-40.1401Q122.992-43.1809 116.549-43.1809L53.5798-43.1809Q47.2065-43.1809 44.0199-40.1401Q40.8332-37.0992 40.8332-30.4847L40.8332 18.7224Q40.8332 25.3671 43.9596 28.418Q47.0859 31.4689 53.5798 31.4689ZM55.0978 25.1658Q51.0869 25.1658 49.3127 23.3815Q47.5384 21.5972 47.5384 17.4758L47.5384-29.2683Q47.5384-33.3595 49.3127-35.1187Q51.0869-36.8779 55.0978-36.8779L114.981-36.8779Q119.072-36.8779 120.816-35.1187Q122.56-33.3595 122.56-29.2683L122.56 17.4758Q122.56 21.5972 120.816 23.3815Q119.072 25.1658 114.981 25.1658ZM40.6221-76.3944L47.1765-76.3944L47.1765-85.9543Q47.1765-90.6488 49.2825-92.7899Q51.3885-94.9311 56.1634-94.9311L113.965-94.9311Q118.69-94.9311 120.846-92.7899Q123.002-90.6488 123.002-85.9543L123.002-76.4547L129.426-76.4547L129.426-85.5723Q129.426-93.6143 125.571-97.3388Q121.716-101.063 113.905-101.063L56.2237-101.063Q48.5737-101.063 44.5979-97.3388Q40.6221-93.6143 40.6221-85.5723ZM60.9786-14.2598L109.311-14.2598Q110.507-14.2598 111.276-15.0439Q112.045-15.8281 112.045-16.9741Q112.045-18.1201 111.276-18.874Q110.507-19.628 109.311-19.628L60.9786-19.628Q59.702-19.628 58.9329-18.874Q58.1639-18.1201 58.1639-16.9741Q58.1639-15.8281 58.9329-15.0439Q59.702-14.2598 60.9786-14.2598ZM60.9786 7.91595L109.311 7.91595Q110.507 7.91595 111.276 7.16199Q112.045 6.40804 112.045 5.26203Q112.045 4.11602 111.276 3.30678Q110.507 2.49753 109.311 2.49753L60.9786 2.49753Q59.702 2.49753 58.9329 3.30678Q58.1639 4.11602 58.1639 5.26203Q58.1639 6.40804 58.9329 7.16199Q59.702 7.91595 60.9786 7.91595ZM114.578-58.0687Q114.578-54.8921 116.8-52.7861Q119.022-50.6801 122.168-50.6097Q125.113-50.5594 127.335-52.776Q129.557-54.9926 129.557-58.0687Q129.557-60.9839 127.335-63.2558Q125.113-65.5276 122.168-65.5276Q119.022-65.5276 116.8-63.2558Q114.578-60.9839 114.578-58.0687Z"/>
  </g>
  <g id="Thin-L" transform="matrix(1 0 0 1 773.079 1556)">
   <path d="M31.5237 10.4652L42.4528 10.4652L42.4528 6.65217L31.5177 6.65217Q25.5707 6.65217 22.8635 3.94505Q20.1564 1.23792 20.1564-4.78648L20.1564-64.1635Q20.1564-70.1105 22.8635-72.8564Q25.5707-75.6022 31.5177-75.6022L135.245-75.6022Q141.112-75.6022 143.819-72.8564Q146.526-70.1105 146.526-64.1635L146.526-4.78648Q146.526 1.23792 143.819 3.94505Q141.112 6.65217 135.245 6.65217L123.885 6.65217L123.885 10.4652L135.162 10.4652Q142.949 10.4652 146.775 6.68346Q150.602 2.90169 150.602-4.7302L150.602-64.1424Q150.602-71.8517 146.775-75.6335Q142.949-79.4153 135.162-79.4153L31.5237-79.4153Q23.8325-79.4153 19.9582-75.6335Q16.084-71.8517 16.084-64.1424L16.084-4.7302Q16.084 2.90169 19.9477 6.68346Q23.8114 10.4652 31.5237 10.4652ZM53.6341 29.8132L113.129 29.8132Q119.925 29.8132 123.172 26.613Q126.418 23.4128 126.418 16.5239L126.418-31.0275Q126.418-37.9135 123.172-41.0765Q119.925-44.2395 113.129-44.2395L53.6341-44.2395Q46.7723-44.2395 43.5585-41.0765Q40.3447-37.9135 40.3447-31.0275L40.3447 16.5239Q40.3447 23.4128 43.5524 26.613Q46.7602 29.8132 53.6341 29.8132ZM53.9307 25.9258Q48.7527 25.9258 46.5849 23.7208Q44.4171 21.5158 44.4171 16.2544L44.4171-30.7611Q44.4171-36.0195 46.5849-38.1857Q48.7527-40.352 53.9307-40.352L112.755-40.352Q118.013-40.352 120.178-38.1857Q122.343-36.0195 122.343-30.7611L122.343 16.2544Q122.343 21.5158 120.178 23.7208Q118.013 25.9258 112.755 25.9258ZM40.3236-77.2358L44.3809-77.2358L44.3809-86.66Q44.3809-91.9787 46.5819-94.2556Q48.7829-96.5325 54.182-96.5325L112.581-96.5325Q117.903-96.5325 120.181-94.2556Q122.459-91.9787 122.459-86.66L122.459-77.2418L126.359-77.2418L126.359-86.5494Q126.359-93.7229 123.006-97.0267Q119.653-100.33 112.575-100.33L54.1881-100.33Q47.0538-100.33 43.6887-97.0267Q40.3236-93.7229 40.3236-86.5494ZM57.5588-16.594L109.365-16.594Q110.208-16.594 110.72-17.1067Q111.231-17.6194 111.231-18.3855Q111.231-19.1515 110.72-19.6612Q110.208-20.1708 109.365-20.1708L57.5588-20.1708Q56.6349-20.1708 56.1237-19.6612Q55.6125-19.1515 55.6125-18.3855Q55.6125-17.6194 56.1237-17.1067Q56.6349-16.594 57.5588-16.594ZM57.5588 5.74459L109.365 5.74459Q110.208 5.74459 110.72 5.23492Q111.231 4.72524 111.231 3.95922Q111.231 3.19319 110.72 2.6418Q110.208 2.0904 109.365 2.0904L57.5588 2.0904Q56.6349 2.0904 56.1237 2.6418Q55.6125 3.19319 55.6125 3.95922Q55.6125 4.72524 56.1237 5.23492Q56.6349 5.74459 57.5588 5.74459ZM112.136-59.2629Q112.136-56.1949 114.276-54.211Q116.416-52.2272 119.481-52.0754Q122.236-51.998 124.377-54.1738Q126.517-56.3497 126.517-59.2629Q126.517-62.0153 124.377-64.2329Q122.236-66.4505 119.481-66.4505Q116.416-66.4505 114.276-64.2329Q112.136-62.0153 112.136-59.2629Z"/>
  </g>
  <g id="Ultralight-L" transform="matrix(1 0 0 1 477.237 1556)">
   <path d="M30.7869 9.46429L41.3823 9.46429L41.3823 6.9163L30.8087 6.9163Q24.4724 6.9163 21.6402 4.08407Q18.8079 1.25183 18.8079-5.17574L18.8079-64.4277Q18.8079-70.7639 21.6402-73.6418Q24.4724-76.5197 30.8087-76.5197L134.23-76.5197Q140.486-76.5197 143.319-73.6418Q146.151-70.7639 146.151-64.4277L146.151-5.17574Q146.151 1.25183 143.319 4.08407Q140.486 6.9163 134.23 6.9163L122.967 6.9163L122.967 9.46429L134.161 9.46429Q141.642 9.46429 145.253 5.87714Q148.864 2.29 148.864-5.00824L148.864-64.5039Q148.864-71.8934 145.253-75.4806Q141.642-79.0677 134.161-79.0677L30.7869-79.0677Q23.332-79.0677 19.708-75.4806Q16.084-71.8934 16.084-64.5039L16.084-5.00824Q16.084 2.29 19.7461 5.87714Q23.4082 9.46429 30.7869 9.46429ZM53.6619 28.9652L111.377 28.9652Q118.354 28.9652 121.65 25.6886Q124.945 22.4119 124.945 15.3978L124.945-31.3056Q124.945-38.3305 121.65-41.5561Q118.354-44.7817 111.377-44.7817L53.6619-44.7817Q46.5498-44.7817 43.3221-41.5561Q40.0945-38.3305 40.0945-31.3056L40.0945 15.3978Q40.0945 22.4119 43.3439 25.6886Q46.5934 28.9652 53.6619 28.9652ZM53.3329 26.315Q47.5571 26.315 45.1878 23.8946Q42.8184 21.4741 42.8184 15.6288L42.8184-31.5257Q42.8184-37.3818 45.1878-39.7567Q47.5571-42.1315 53.3329-42.1315L111.615-42.1315Q117.471-42.1315 119.851-39.7567Q122.232-37.3818 122.232-31.5257L122.232 15.6288Q122.232 21.4741 119.851 23.8946Q117.471 26.315 111.615 26.315ZM40.1707-77.6667L42.949-77.6667L42.949-87.0215Q42.949-92.6599 45.1987-95.0063Q47.4483-97.3527 53.1672-97.3527L111.872-97.3527Q117.5-97.3527 119.84-95.0063Q122.181-92.6599 122.181-87.0215L122.181-77.645L124.788-77.645L124.788-87.0499Q124.788-93.7785 121.692-96.8668Q118.596-99.9551 111.894-99.9551L53.1454-99.9551Q46.2753-99.9551 43.223-96.8668Q40.1707-93.7785 40.1707-87.0499ZM55.8071-17.7896L109.393-17.7896Q110.056-17.7896 110.435-18.1633Q110.814-18.537 110.814-19.1084Q110.814-19.6798 110.435-20.0643Q110.056-20.4489 109.393-20.4489L55.8071-20.4489Q55.064-20.4489 54.6849-20.0643Q54.3058-19.6798 54.3058-19.1084Q54.3058-18.537 54.6849-18.1633Q55.064-17.7896 55.8071-17.7896ZM55.8071 4.63243L109.393 4.63243Q110.056 4.63243 110.435 4.24787Q110.814 3.86332 110.814 3.29192Q110.814 2.72053 110.435 2.3012Q110.056 1.88187 109.393 1.88187L55.8071 1.88187Q55.064 1.88187 54.6849 2.3012Q54.3058 2.72053 54.3058 3.29192Q54.3058 3.86332 54.6849 4.24787Q55.064 4.63243 55.8071 4.63243ZM110.885-59.8746Q110.885-56.8622 112.983-54.9409Q115.081-53.0196 118.105-52.8261Q120.763-52.7348 122.861-54.8898Q124.96-57.0448 124.96-59.8746Q124.96-62.5436 122.861-64.7333Q120.763-66.9231 118.105-66.9231Q115.081-66.9231 112.983-64.7333Q110.885-62.5436 110.885-59.8746Z"/>
  </g>
  <g id="Black-M" transform="matrix(1 0 0 1 2862.24 1126)">
   <path d="M31.3284 4.16908L43.3547 4.16908L43.3547-10.2649L31.717-10.2649Q29.7108-10.2649 28.6127-11.363Q27.5145-12.4611 27.5145-14.467L27.5145-56.2153Q27.5145-58.2786 28.6127-59.3766Q29.7108-60.4745 31.717-60.4745L110.607-60.4745Q112.666-60.4745 113.735-59.3766Q114.805-58.2786 114.805-56.2153L114.805-14.467Q114.805-12.4611 113.735-11.363Q112.666-10.2649 110.607-10.2649L99.9568-10.2649L99.9568 4.16908L110.996 4.16908Q119.954 4.16908 124.909-0.775088Q129.864-5.71926 129.864-14.6772L129.864-56.0625Q129.864-65.0201 124.909-69.9643Q119.954-74.9085 110.996-74.9085L31.3284-74.9085Q22.4038-74.9085 17.4324-69.9643Q12.4609-65.0201 12.4609-56.0625L12.4609-14.6772Q12.4609-5.71926 17.4131-0.775088Q22.3652 4.16908 31.3284 4.16908ZM50.8529 21.3506L91.4716 21.3506Q99.1509 21.3506 102.797 17.6897Q106.443 14.0288 106.443 6.37931L106.443-25.9154Q106.443-33.6166 102.797-37.2518Q99.1509-40.8871 91.4716-40.8871L50.8529-40.8871Q43.253-40.8871 39.5673-37.2518Q35.8816-33.6166 35.8816-25.9154L35.8816 6.37931Q35.8816 14.0288 39.5563 17.6897Q43.2309 21.3506 50.8529 21.3506ZM51.1114 8.12152Q50.2624 8.12152 49.7424 7.63291Q49.2223 7.14431 49.2223 6.22753L49.2223-25.7121Q49.2223-26.6233 49.7424-27.1121Q50.2624-27.6009 51.1114-27.6009L91.2134-27.6009Q92.1246-27.6009 92.6106-27.1121Q93.0966-26.6233 93.0966-25.7121L93.0966 6.22753Q93.0966 7.14431 92.6106 7.63291Q92.1246 8.12152 91.2134 8.12152ZM34.3014-69.6735L49.3274-69.6735L49.3274-78.9891Q49.3274-80.3532 50.0794-81.1021Q50.8314-81.851 52.1436-81.851L90.1808-81.851Q91.4933-81.851 92.245-81.1021Q92.9967-80.3532 92.9967-78.9891L92.9967-69.6845L108.018-69.6845L108.018-77.6726Q108.018-86.4721 103.677-90.7938Q99.3362-95.1155 90.5695-95.1155L51.755-95.1155Q43.0842-95.1155 38.6928-90.7938Q34.3014-86.4721 34.3014-77.6726ZM58.6393-12.2969L83.8098-12.2969Q85.7606-12.2969 87.1004-13.6679Q88.4401-15.039 88.4401-16.9901Q88.4401-18.9413 87.1004-20.2497Q85.7606-21.5581 83.8098-21.5581L58.6393-21.5581Q56.6261-21.5581 55.2864-20.2497Q53.9466-18.9413 53.9466-16.9901Q53.9466-15.039 55.3149-13.6679Q56.6832-12.2969 58.6393-12.2969ZM58.6393 2.36429L83.8098 2.36429Q85.7606 2.36429 87.1004 1.02731Q88.4401-0.309677 88.4401-2.20372Q88.4401-4.15485 87.1004-5.52575Q85.7606-6.89664 83.8098-6.89664L58.6393-6.89664Q56.6832-6.89664 55.3149-5.52575Q53.9466-4.15485 53.9466-2.20372Q53.9466-0.309677 55.2864 1.02731Q56.6261 2.36429 58.6393 2.36429ZM91.2729-50.7976Q91.2729-47.7228 93.4544-45.5435Q95.6359-43.3641 98.7051-43.4273Q101.776-43.4847 103.929-45.6035Q106.081-47.7222 106.081-50.7976Q106.081-53.8055 103.9-55.9866Q101.719-58.1678 98.7051-58.1678Q95.693-58.1678 93.4829-55.9866Q91.2729-53.8055 91.2729-50.7976Z"/>
  </g>
  <g id="Heavy-M" transform="matrix(1 0 0 1 2566.37 1126)">
   <path d="M30.3068 4.05198L41.7686 4.05198L41.7686-8.71693L30.5797-8.71693Q28.2808-8.71693 27.0502-9.94758Q25.8195-11.1782 25.8195-13.4795L25.8195-56.3349Q25.8195-58.6773 27.0502-59.9092Q28.2808-61.1411 30.5797-61.1411L110.07-61.1411Q112.394-61.1411 113.602-59.9092Q114.811-58.6773 114.811-56.3349L114.811-13.4795Q114.811-11.1782 113.602-9.94758Q112.394-8.71693 110.07-8.71693L99.7754-8.71693L99.7754 4.05198L110.34 4.05198Q118.86 4.05198 123.523-0.577468Q128.186-5.20691 128.186-13.7216L128.186-56.134Q128.186-64.6511 123.523-69.2806Q118.86-73.91 110.34-73.91L30.3068-73.91Q21.8871-73.91 17.174-69.2806Q12.4609-64.6511 12.4609-56.134L12.4609-13.7216Q12.4609-5.20691 17.1172-0.577468Q21.7734 4.05198 30.3068 4.05198ZM48.6351 20.59L92.0145 20.59Q98.975 20.59 102.314 17.2711Q105.653 13.9522 105.653 6.95162L105.653-27.1158Q105.653-34.1437 102.314-37.4477Q98.975-40.7517 92.0145-40.7517L48.6351-40.7517Q41.7807-40.7517 38.3887-37.4477Q34.9967-34.1437 34.9967-27.1158L34.9967 6.95162Q34.9967 13.9522 38.3562 17.2711Q41.7157 20.59 48.6351 20.59ZM49.4032 8.75097Q48.3012 8.75097 47.6739 8.15237Q47.0466 7.55377 47.0466 6.37331L47.0466-26.5101Q47.0466-27.6743 47.6739-28.2717Q48.3012-28.869 49.4032-28.869L91.2439-28.869Q92.4082-28.869 92.9974-28.2717Q93.5867-27.6743 93.5867-26.5101L93.5867 6.37331Q93.5867 7.55377 92.9974 8.15237Q92.4082 8.75097 91.2439 8.75097ZM33.7052-68.8694L46.9826-68.8694L46.9826-77.767Q46.9826-79.5177 47.9194-80.4488Q48.8562-81.3799 50.582-81.3799L90.0676-81.3799Q91.7909-81.3799 92.7301-80.4488Q93.6694-79.5177 93.6694-77.767L93.6694-68.9018L106.926-68.9018L106.926-76.6262Q106.926-85.0278 102.784-89.1115Q98.6422-93.1952 90.3404-93.1952L50.3091-93.1952Q42.1622-93.1952 37.9337-89.1115Q33.7052-85.0278 33.7052-76.6262ZM56.7702-13.3149L84.004-13.3149Q85.7978-13.3149 87.0238-14.5708Q88.2498-15.8268 88.2498-17.6182Q88.2498-19.4096 87.0238-20.6057Q85.7978-21.8018 84.004-21.8018L56.7702-21.8018Q54.9141-21.8018 53.688-20.6057Q52.462-19.4096 52.462-17.6182Q52.462-15.8268 53.7099-14.5708Q54.9577-13.3149 56.7702-13.3149ZM56.7702 1.9018L84.004 1.9018Q85.7978 1.9018 87.0238 0.683883Q88.2498-0.534034 88.2498-2.28179Q88.2498-4.07316 87.0238-5.33035Q85.7978-6.58754 84.004-6.58754L56.7702-6.58754Q54.9577-6.58754 53.7099-5.33035Q52.462-4.07316 52.462-2.28179Q52.462-0.534034 53.688 0.683883Q54.9141 1.9018 56.7702 1.9018ZM91.268-51.0129Q91.268-48.0569 93.3604-45.9775Q95.4528-43.8981 98.3925-43.9531Q101.322-43.9943 103.393-46.028Q105.464-48.0618 105.464-51.0129Q105.464-53.883 103.371-55.9778Q101.279-58.0726 98.3925-58.0726Q95.4964-58.0726 93.3822-55.9778Q91.268-53.883 91.268-51.0129Z"/>
  </g>
  <g id="Bold-M" transform="matrix(1 0 0 1 2270.59 1126)">
   <path d="M29.164 3.92098L39.9943 3.92098L39.9943-6.98535L29.3074-6.98535Q26.6813-6.98535 25.3024-8.36426Q23.9234-9.74318 23.9234-12.3748L23.9234-56.4687Q23.9234-59.1234 25.3024-60.505Q26.6813-61.8867 29.3074-61.8867L109.469-61.8867Q112.089-61.8867 113.454-60.505Q114.819-59.1234 114.819-56.4687L114.819-12.3748Q114.819-9.74318 113.454-8.36426Q112.089-6.98535 109.469-6.98535L99.5724-6.98535L99.5724 3.92098L109.606 3.92098Q117.636 3.92098 121.973-0.356401Q126.309-4.63379 126.309-12.6526L126.309-56.2139Q126.309-64.2383 121.973-68.5157Q117.636-72.793 109.606-72.793L29.164-72.793Q21.3091-72.793 16.885-68.5157Q12.4609-64.2383 12.4609-56.2139L12.4609-12.6526Q12.4609-4.63379 16.7862-0.356401Q21.1115 3.92098 29.164 3.92098ZM46.1541 19.7392L92.6218 19.7392Q98.7782 19.7392 101.774 16.8028Q104.769 13.8664 104.769 7.59184L104.769-28.4585Q104.769-34.7334 101.774-37.6669Q98.7782-40.6004 92.6218-40.6004L46.1541-40.6004Q40.1337-40.6004 37.0702-37.6669Q34.0068-34.7334 34.0068-28.4585L34.0068 7.59184Q34.0068 13.8664 37.0137 16.8028Q40.0207 19.7392 46.1541 19.7392ZM47.4922 9.45509Q46.1073 9.45509 45.3601 8.73346Q44.6128 8.01182 44.6128 6.53638L44.6128-27.4027Q44.6128-28.85 45.3601-29.5688Q46.1073-30.2877 47.4922-30.2877L91.2781-30.2877Q92.7254-30.2877 93.4301-29.5688Q94.1349-28.85 94.1349-27.4027L94.1349 6.53638Q94.1349 8.01182 93.4301 8.73346Q92.7254 9.45509 91.2781 9.45509ZM33.0383-67.9699L44.3596-67.9699L44.3596-76.3999Q44.3596-78.5831 45.5031-79.718Q46.6466-80.8529 48.8351-80.8529L89.9409-80.8529Q92.1238-80.8529 93.2728-79.718Q94.4218-78.5831 94.4218-76.3999L94.4218-68.0263L105.704-68.0263L105.704-75.4557Q105.704-83.4122 101.785-87.2297Q97.8658-91.0471 90.0842-91.0471L48.6917-91.0471Q41.1308-91.0471 37.0845-87.2297Q33.0383-83.4122 33.0383-75.4557ZM54.6794-14.4536L84.2211-14.4536Q85.8393-14.4536 86.9381-15.5809Q88.037-16.7081 88.037-18.3208Q88.037-19.9334 86.9381-21.0039Q85.8393-22.0743 84.2211-22.0743L54.6794-22.0743Q52.9989-22.0743 51.9001-21.0039Q50.8012-19.9334 50.8012-18.3208Q50.8012-16.7081 51.9143-15.5809Q53.0275-14.4536 54.6794-14.4536ZM54.6794 1.38444L84.2211 1.38444Q85.8393 1.38444 86.9381 0.299714Q88.037-0.78501 88.037-2.36912Q88.037-3.98177 86.9381-5.11176Q85.8393-6.24176 84.2211-6.24176L54.6794-6.24176Q53.0275-6.24176 51.9143-5.11176Q50.8012-3.98177 50.8012-2.36912Q50.8012-0.78501 51.9001 0.299714Q52.9989 1.38444 54.6794 1.38444ZM91.2625-51.2537Q91.2625-48.4306 93.2552-46.4631Q95.248-44.4955 98.0428-44.5412Q100.816-44.5643 102.794-46.503Q104.772-48.4416 104.772-51.2537Q104.772-53.9697 102.78-55.9679Q100.787-57.9662 98.0428-57.9662Q95.2765-57.9662 93.2695-55.9679Q91.2625-53.9697 91.2625-51.2537Z"/>
  </g>
  <g id="Semibold-M" transform="matrix(1 0 0 1 1974.53 1126)">
   <path d="M28.3762 3.83068L38.7711 3.83068L38.7711-5.7916L28.4303-5.7916Q25.5785-5.7916 24.0974-7.27273Q22.6163-8.75386 22.6163-11.6133L22.6163-56.5609Q22.6163-59.4308 24.0974-60.9158Q25.5785-62.4007 28.4303-62.4007L109.054-62.4007Q111.88-62.4007 113.352-60.9158Q114.824-59.4308 114.824-56.5609L114.824-11.6133Q114.824-8.75386 113.352-7.27273Q111.88-5.7916 109.054-5.7916L99.4324-5.7916L99.4324 3.83068L109.1 3.83068Q116.793 3.83068 120.904-0.203999Q125.016-4.23867 125.016-11.9156L125.016-56.2691Q125.016-63.9537 120.904-67.9883Q116.793-72.023 109.1-72.023L28.3762-72.023Q20.9106-72.023 16.6858-67.9883Q12.4609-63.9537 12.4609-56.2691L12.4609-11.9156Q12.4609-4.23867 16.558-0.203999Q20.6551 3.83068 28.3762 3.83068ZM44.4437 19.1526L93.0405 19.1526Q98.6425 19.1526 101.401 16.4799Q104.16 13.8073 104.16 8.0332L104.16-29.3842Q104.16-35.1399 101.401-37.818Q98.6425-40.496 93.0405-40.496L44.4437-40.496Q38.9983-40.496 36.1613-37.818Q33.3243-35.1399 33.3243-29.3842L33.3243 8.0332Q33.3243 13.8073 36.0883 16.4799Q38.8522 19.1526 44.4437 19.1526ZM46.1749 9.94051Q44.5949 9.94051 43.7649 9.13406Q42.9349 8.3276 42.9349 6.6488L42.9349-28.0182Q42.9349-29.6604 43.7649-30.4631Q44.5949-31.2657 46.1749-31.2657L91.3017-31.2657Q92.944-31.2657 93.7284-30.4631Q94.5128-29.6604 94.5128-28.0182L94.5128 6.6488Q94.5128 8.3276 93.7284 9.13406Q92.944 9.94051 91.3017 9.94051ZM32.5785-67.3498L42.5513-67.3498L42.5513-75.4574Q42.5513-77.9388 43.8373-79.2142Q45.1234-80.4896 47.6307-80.4896L89.8535-80.4896Q92.3532-80.4896 93.6469-79.2142Q94.9406-77.9388 94.9406-75.4574L94.9406-67.4228L104.862-67.4228L104.862-74.6488Q104.862-82.2984 101.096-85.9323Q97.3306-89.5662 89.9076-89.5662L47.5767-89.5662Q40.4197-89.5662 36.4991-85.9323Q32.5785-82.2984 32.5785-74.6488ZM53.238-15.2387L84.3709-15.2387Q85.8679-15.2387 86.8791-16.2772Q87.8903-17.3157 87.8903-18.8051Q87.8903-20.2946 86.8791-21.2784Q85.8679-22.2622 84.3709-22.2622L53.238-22.2622Q51.6786-22.2622 50.6674-21.2784Q49.6563-20.2946 49.6563-18.8051Q49.6563-17.3157 50.6765-16.2772Q51.6968-15.2387 53.238-15.2387ZM53.238 1.02777L84.3709 1.02777Q85.8679 1.02777 86.8791 0.0348701Q87.8903-0.95803 87.8903-2.42932Q87.8903-3.91877 86.8791-4.96108Q85.8679-6.00338 84.3709-6.00338L53.238-6.00338Q51.6968-6.00338 50.6765-4.96108Q49.6563-3.91877 49.6563-2.42932Q49.6563-0.95803 50.6674 0.0348701Q51.6786 1.02777 53.238 1.02777ZM91.2588-51.4197Q91.2588-48.6883 93.1828-46.7978Q95.1068-44.9073 97.8018-44.9467Q100.466-44.9572 102.381-46.8304Q104.296-48.7035 104.296-51.4197Q104.296-54.0295 102.372-55.9611Q100.448-57.8928 97.8018-57.8928Q95.1249-57.8928 93.1918-55.9611Q91.2588-54.0295 91.2588-51.4197Z"/>
  </g>
  <g id="Medium-M" transform="matrix(1 0 0 1 1678.31 1126)">
   <path d="M27.7788 3.7622L37.8436 3.7622L37.8436-4.88645L27.7652-4.88645Q24.7424-4.88645 23.1838-6.44509Q21.6251-8.00372 21.6251-11.0358L21.6251-56.6309Q21.6251-59.664 23.1838-61.2272Q24.7424-62.7905 27.7652-62.7905L108.74-62.7905Q111.721-62.7905 113.274-61.2272Q114.828-59.664 114.828-56.6309L114.828-11.0358Q114.828-8.00372 113.274-6.44509Q111.721-4.88645 108.74-4.88645L99.3263-4.88645L99.3263 3.7622L108.717 3.7622Q116.153 3.7622 120.094-0.0884416Q124.035-3.93908 124.035-11.3568L124.035-56.3109Q124.035-63.7379 120.094-67.5885Q116.153-71.4392 108.717-71.4392L27.7788-71.4392Q20.6085-71.4392 16.5347-67.5885Q12.4609-63.7379 12.4609-56.3109L12.4609-11.3568Q12.4609-3.93908 16.385-0.0884416Q20.3091 3.7622 27.7788 3.7622ZM43.1469 18.7079L93.358 18.7079Q98.5397 18.7079 101.119 16.2352Q103.698 13.7624 103.698 8.36786L103.698-30.0861Q103.698-35.4482 101.119-37.9325Q98.5397-40.4169 93.358-40.4169L43.1469-40.4169Q38.1373-40.4169 35.4721-37.9325Q32.8069-35.4482 32.8069-30.0861L32.8069 8.36786Q32.8069 13.7624 35.3865 16.2352Q37.9662 18.7079 43.1469 18.7079ZM45.176 10.3086Q43.4481 10.3086 42.5554 9.43781Q41.6627 8.56704 41.6627 6.73404L41.6627-28.4848Q41.6627-30.275 42.5554-31.1411Q43.4481-32.0073 45.176-32.0073L91.3196-32.0073Q93.1098-32.0073 93.9546-31.1411Q94.7993-30.275 94.7993-28.4848L94.7993 6.73404Q94.7993 8.56704 93.9546 9.43781Q93.1098 10.3086 91.3196 10.3086ZM32.2299-66.8796L41.1802-66.8796L41.1802-74.7428Q41.1802-77.4503 42.5743-78.8322Q43.9684-80.2141 46.7176-80.2141L89.7873-80.2141Q92.5272-80.2141 93.9306-78.8322Q95.3339-77.4503 95.3339-74.7428L95.3339-66.9651L104.223-66.9651L104.223-74.0369Q104.223-81.4539 100.574-84.9486Q96.9247-88.4433 89.7737-88.4433L46.7312-88.4433Q39.8806-88.4433 36.0553-84.9486Q32.2299-81.4539 32.2299-74.0369ZM52.1451-15.8339L84.4844-15.8339Q85.8897-15.8339 86.8343-16.8051Q87.779-17.7763 87.779-19.1724Q87.779-20.5684 86.8343-21.4865Q85.8897-22.4047 84.4844-22.4047L52.1451-22.4047Q50.6775-22.4047 49.7328-21.4865Q48.7882-20.5684 48.7882-19.1724Q48.7882-17.7763 49.738-16.8051Q50.6878-15.8339 52.1451-15.8339ZM52.1451 0.757331L84.4844 0.757331Q85.8897 0.757331 86.8343-0.165946Q87.779-1.08922 87.779-2.47497Q87.779-3.871 86.8343-4.84682Q85.8897-5.82264 84.4844-5.82264L52.1451-5.82264Q50.6878-5.82264 49.738-4.84682Q48.7882-3.871 48.7882-2.47497Q48.7882-1.08922 49.7328-0.165946Q50.6775 0.757331 52.1451 0.757331ZM91.2559-51.5456Q91.2559-48.8836 93.1278-47.0516Q94.9997-45.2196 97.619-45.2541Q100.201-45.2552 102.068-47.0786Q103.935-48.9021 103.935-51.5456Q103.935-54.0748 102.063-55.956Q100.191-57.8371 97.619-57.8371Q95.01-57.8371 93.1329-55.956Q91.2559-54.0748 91.2559-51.5456Z"/>
  </g>
  <g id="Regular-M" transform="matrix(1 0 0 1 1382.24 1126)">
   <path d="M26.9997 3.67289L36.6338 3.67289L36.6338-3.70583L26.8978-3.70583Q23.6518-3.70583 21.992-5.36555Q20.3323-7.02528 20.3323-10.2826L20.3323-56.7221Q20.3323-59.9681 21.992-61.6335Q23.6518-63.2989 26.8978-63.2989L108.33-63.2989Q111.513-63.2989 113.173-61.6335Q114.833-59.9681 114.833-56.7221L114.833-10.2826Q114.833-7.02528 113.173-5.36555Q111.513-3.70583 108.33-3.70583L99.1879-3.70583L99.1879 3.67289L108.216 3.67289Q115.319 3.67289 119.037 0.0622856Q122.755-3.54831 122.755-10.628L122.755-56.3654Q122.755-63.4564 119.037-67.067Q115.319-70.6776 108.216-70.6776L26.9997-70.6776Q20.2144-70.6776 16.3377-67.067Q12.4609-63.4564 12.4609-56.3654L12.4609-10.628Q12.4609-3.54831 16.1593 0.0622856Q19.8577 3.67289 26.9997 3.67289ZM41.4553 18.1278L93.7721 18.1278Q98.4055 18.1278 100.75 15.9159Q103.095 13.7039 103.095 8.80437L103.095-31.0016Q103.095-35.8502 100.75-38.0819Q98.4055-40.3137 93.7721-40.3137L41.4553-40.3137Q37.0144-40.3137 34.5731-38.0819Q32.1319-35.8502 32.1319-31.0016L32.1319 8.80437Q32.1319 13.7039 34.4712 15.9159Q36.8105 18.1278 41.4553 18.1278ZM43.8731 10.7887Q41.9522 10.7887 40.9778 9.834Q40.0033 8.87934 40.0033 6.84522L40.0033-29.0934Q40.0033-31.0766 40.9778-32.0256Q41.9522-32.9746 43.8731-32.9746L91.3429-32.9746Q93.3261-32.9746 94.2496-32.0256Q95.1731-31.0766 95.1731-29.0934L95.1731 6.84522Q95.1731 8.87934 94.2496 9.834Q93.3261 10.7887 91.3429 10.7887ZM31.7752-66.2663L39.3918-66.2663L39.3918-73.8107Q39.3918-76.813 40.9268-78.3339Q42.4618-79.8548 45.5265-79.8548L89.7009-79.8548Q92.7542-79.8548 94.3006-78.3339Q95.8469-76.813 95.8469-73.8107L95.8469-66.3682L103.39-66.3682L103.39-73.2388Q103.39-80.3523 99.8926-83.6655Q96.3954-86.9787 89.599-86.9787L45.6284-86.9787Q39.1774-86.9787 35.4763-83.6655Q31.7752-80.3523 31.7752-73.2388ZM50.7195-16.6104L84.6325-16.6104Q85.918-16.6104 86.7759-17.4938Q87.6339-18.3772 87.6339-19.6514Q87.6339-20.9256 86.7759-21.758Q85.918-22.5905 84.6325-22.5905L50.7195-22.5905Q49.3717-22.5905 48.5138-21.758Q47.6558-20.9256 47.6558-19.6514Q47.6558-18.3772 48.5138-17.4938Q49.3717-16.6104 50.7195-16.6104ZM50.7195 0.404584L84.6325 0.404584Q85.918 0.404584 86.7759-0.427879Q87.6339-1.26034 87.6339-2.53452Q87.6339-3.80869 86.7759-4.69778Q85.918-5.58688 84.6325-5.58688L50.7195-5.58688Q49.3717-5.58688 48.5138-4.69778Q47.6558-3.80869 47.6558-2.53452Q47.6558-1.26034 48.5138-0.427879Q49.3717 0.404584 50.7195 0.404584ZM91.2522-51.7098Q91.2522-49.1384 93.0561-47.3826Q94.8601-45.6269 97.3805-45.6551Q99.8556-45.6438 101.66-47.4024Q103.464-49.1611 103.464-51.7098Q103.464-54.134 101.66-55.9493Q99.8556-57.7645 97.3805-57.7645Q94.8601-57.7645 93.0561-55.9493Q91.2522-54.134 91.2522-51.7098Z"/>
  </g>
  <g id="Light-M" transform="matrix(1 0 0 1 1086.68 1126)">
   <path d="M26.0245 2.34816L35.2171 2.34816L35.2171-3.35625L25.9594-3.35625Q22.1982-3.35625 20.3729-5.18156Q18.5476-7.00688 18.5476-10.7978L18.5476-57.0717Q18.5476-60.8328 20.3729-62.673Q22.1982-64.5132 25.9594-64.5132L106.986-64.5132Q110.685-64.5132 112.511-62.673Q114.336-60.8328 114.336-57.0717L114.336-10.7978Q114.336-7.00688 112.511-5.18156Q110.685-3.35625 106.986-3.35625L97.9736-3.35625L97.9736 2.34816L106.892 2.34816Q113.589 2.34816 117.022-1.00486Q120.455-4.35787 120.455-10.996L120.455-56.8438Q120.455-63.5116 117.022-66.8646Q113.589-70.2176 106.892-70.2176L26.0245-70.2176Q19.5521-70.2176 16.0065-66.8646Q12.4609-63.5116 12.4609-56.8438L12.4609-10.996Q12.4609-4.35787 15.8925-1.00486Q19.3241 2.34816 26.0245 2.34816ZM41.4921 17.0054L91.4538 17.0054Q96.3264 17.0054 98.7358 14.6923Q101.145 12.3792 101.145 7.31405L101.145-31.3696Q101.145-36.4022 98.7358-38.7167Q96.3264-41.0312 91.4538-41.0312L41.4921-41.0312Q36.72-41.0312 34.2604-38.7167Q31.8007-36.4022 31.8007-31.3696L31.8007 7.31405Q31.8007 12.3792 34.1952 14.6923Q36.5897 17.0054 41.4921 17.0054ZM43.0819 11.3038Q40.3699 11.3038 39.1287 10.064Q37.8874 8.82415 37.8874 6.01727L37.8874-30.1054Q37.8874-32.8797 39.1287-34.1047Q40.3699-35.3296 43.0819-35.3296L89.8342-35.3296Q92.6085-35.3296 93.8172-34.1047Q95.0259-32.8797 95.0259-30.1054L95.0259 6.01727Q95.0259 8.82415 93.8172 10.064Q92.6085 11.3038 89.8342 11.3038ZM31.5728-66.8366L37.4967-66.8366L37.4967-74.2891Q37.4967-77.7146 39.0961-79.3275Q40.6955-80.9404 44.1834-80.9404L88.7625-80.9404Q92.2206-80.9404 93.8498-79.3275Q95.4789-77.7146 95.4789-74.2891L95.4789-66.9017L101.311-66.9017L101.311-73.9012Q101.311-80.4259 98.1539-83.4539Q94.9971-86.482 88.6974-86.482L44.2485-86.482Q38.147-86.482 34.8599-83.4539Q31.5728-80.4259 31.5728-73.9012ZM48.4012-18.1927L84.6693-18.1927Q85.7156-18.1927 86.3987-18.8921Q87.0819-19.5915 87.0819-20.6081Q87.0819-21.6247 86.3987-22.2916Q85.7156-22.9585 84.6693-22.9585L48.4012-22.9585Q47.2926-22.9585 46.6095-22.2916Q45.9263-21.6247 45.9263-20.6081Q45.9263-19.5915 46.6095-18.8921Q47.2926-18.1927 48.4012-18.1927ZM48.4012-1.06734L84.6693-1.06734Q85.7156-1.06734 86.3987-1.73421Q87.0819-2.40108 87.0819-3.41767Q87.0819-4.43426 86.3987-5.14856Q85.7156-5.86286 84.6693-5.86286L48.4012-5.86286Q47.2926-5.86286 46.6095-5.14856Q45.9263-4.43426 45.9263-3.41767Q45.9263-2.40108 46.6095-1.73421Q47.2926-1.06734 48.4012-1.06734ZM89.5963-52.5194Q89.5963-50.0216 91.345-48.3486Q93.0938-46.6756 95.559-46.6487Q97.9053-46.6189 99.6541-48.35Q101.403-50.0811 101.403-52.5194Q101.403-54.8331 99.6541-56.6116Q97.9053-58.3901 95.559-58.3901Q93.0938-58.3901 91.345-56.6116Q89.5963-54.8331 89.5963-52.5194Z"/>
  </g>
  <g id="Thin-M" transform="matrix(1 0 0 1 791.485 1126)">
   <path d="M24.7348 0.596097L33.3434 0.596097L33.3434-2.8939L24.7184-2.8939Q20.2758-2.8939 18.2315-4.93822Q16.1872-6.98254 16.1872-11.4791L16.1872-57.534Q16.1872-61.9766 18.2315-64.0479Q20.2758-66.1193 24.7184-66.1193L105.21-66.1193Q109.59-66.1193 111.635-64.0479Q113.679-61.9766 113.679-57.534L113.679-11.4791Q113.679-6.98254 111.635-4.93822Q109.59-2.8939 105.21-2.8939L96.3675-2.8939L96.3675 0.596097L105.14 0.596097Q111.302 0.596097 114.358-2.41624Q117.413-5.42857 117.413-11.4826L117.413-57.4765Q117.413-63.5846 114.358-66.5969Q111.302-69.6093 105.14-69.6093L24.7348-69.6093Q18.676-69.6093 15.5685-66.5969Q12.4609-63.5846 12.4609-57.4765L12.4609-11.4826Q12.4609-5.42857 15.5397-2.41624Q18.6184 0.596097 24.7348 0.596097ZM41.5408 15.521L88.3877 15.521Q93.5766 15.521 96.0712 13.0741Q98.5657 10.6272 98.5657 5.34298L98.5657-31.8563Q98.5657-37.1322 96.0712-39.5562Q93.5766-41.9803 88.3877-41.9803L41.5408-41.9803Q36.3306-41.9803 33.8467-39.5562Q31.3627-37.1322 31.3627-31.8563L31.3627 5.34298Q31.3627 10.6272 33.8302 13.0741Q36.2977 15.521 41.5408 15.521ZM42.0356 11.9852Q38.2772 11.9852 36.6831 10.3682Q35.089 8.75114 35.089 4.92223L35.089-31.4437Q35.089-35.2644 36.6831-36.8544Q38.2772-38.4444 42.0356-38.4444L87.8388-38.4444Q91.6595-38.4444 93.2454-36.8544Q94.8312-35.2644 94.8312-31.4437L94.8312 4.92223Q94.8312 8.75114 93.2454 10.3682Q91.6595 11.9852 87.8388 11.9852ZM31.3051-67.591L34.9903-67.591L34.9903-74.9218Q34.9903-78.907 36.6749-80.6415Q38.3594-82.3761 42.407-82.3761L87.5215-82.3761Q91.5149-82.3761 93.2536-80.6415Q94.9923-78.907 94.9923-74.9218L94.9923-67.6074L98.561-67.6074L98.561-74.7772Q98.561-80.5232 95.8543-83.1741Q93.1477-85.8249 87.505-85.8249L42.4234-85.8249Q36.7843-85.8249 34.0447-83.1741Q31.3051-80.5232 31.3051-74.7772ZM45.3351-20.2854L84.7179-20.2854Q85.4479-20.2854 85.8999-20.7415Q86.3519-21.1976 86.3519-21.8735Q86.3519-22.5494 85.8999-22.9973Q85.4479-23.4451 84.7179-23.4451L45.3351-23.4451Q44.5428-23.4451 44.0909-22.9973Q43.6389-22.5494 43.6389-21.8735Q43.6389-21.1976 44.0909-20.7415Q44.5428-20.2854 45.3351-20.2854ZM45.3351-3.01407L84.7179-3.01407Q85.4479-3.01407 85.8999-3.46193Q86.3519-3.9098 86.3519-4.58571Q86.3519-5.26162 85.8999-5.74475Q85.4479-6.22788 84.7179-6.22788L45.3351-6.22788Q44.5428-6.22788 44.0909-5.74475Q43.6389-5.26162 43.6389-4.58571Q43.6389-3.9098 44.0909-3.46193Q44.5428-3.01407 45.3351-3.01407ZM87.4062-53.5901Q87.4062-51.1896 89.0819-49.6261Q90.7577-48.0626 93.1499-47.9627Q95.3259-47.9086 97.0016-49.6032Q98.6774-51.2978 98.6774-53.5901Q98.6774-55.7578 97.0016-57.4876Q95.3259-59.2175 93.1499-59.2175Q90.7577-59.2175 89.0819-57.4876Q87.4062-55.7578 87.4062-53.5901Z"/>
  </g>
  <g id="Ultralight-M" transform="matrix(1 0 0 1 495.553 1126)">
   <path d="M24.0742-0.3013L32.3837-0.3013L32.3837-2.65708L24.0827-2.65708Q19.2912-2.65708 17.1347-4.81358Q14.9782-6.97008 14.9782-11.8281L14.9782-57.7708Q14.9782-62.5624 17.1347-64.7521Q19.2912-66.9419 24.0827-66.9419L104.3-66.9419Q109.029-66.9419 111.186-64.7521Q113.342-62.5624 113.342-57.7708L113.342-11.8281Q113.342-6.97008 111.186-4.81358Q109.029-2.65708 104.3-2.65708L95.5449-2.65708L95.5449-0.3013L104.242-0.3013Q110.13-0.3013 112.993-3.13914Q115.855-5.97698 115.855-11.7319L115.855-57.8005Q115.855-63.622 112.993-66.4598Q110.13-69.2977 104.242-69.2977L24.0742-69.2977Q18.2273-69.2977 15.3441-66.4598Q12.4609-63.622 12.4609-57.8005L12.4609-11.7319Q12.4609-5.97698 15.359-3.13914Q18.257-0.3013 24.0742-0.3013ZM41.5657 14.7607L86.8172 14.7607Q92.1682 14.7607 94.7064 12.2452Q97.2446 9.72976 97.2446 4.33341L97.2446-32.1056Q97.2446-37.5061 94.7064-39.9862Q92.1682-42.4663 86.8172-42.4663L41.5657-42.4663Q36.1312-42.4663 33.6348-39.9862Q31.1384-37.5061 31.1384-32.1056L31.1384 4.33341Q31.1384 9.72976 33.6433 12.2452Q36.1482 14.7607 41.5657 14.7607ZM41.4996 12.3342Q37.2053 12.3342 35.4305 10.524Q33.6556 8.71375 33.6556 4.36136L33.6556-32.1293Q33.6556-36.4859 35.4305-38.2628Q37.2053-40.0398 41.4996-40.0398L86.8168-40.0398Q91.1734-40.0398 92.9525-38.2628Q94.7315-36.4859 94.7315-32.1293L94.7315 4.36136Q94.7315 8.71375 92.9525 10.524Q91.1734 12.3342 86.8168 12.3342ZM31.168-67.9774L33.7065-67.9774L33.7065-75.2458Q33.7065-79.5177 35.4347-81.3146Q37.1629-83.1114 41.4971-83.1114L86.8858-83.1114Q91.1535-83.1114 92.9482-81.3146Q94.743-79.5177 94.743-75.2458L94.743-67.9689L97.1526-67.9689L97.1526-75.2259Q97.1526-80.5731 94.6765-83.0308Q92.2004-85.4884 86.8943-85.4884L41.4886-85.4884Q36.0863-85.4884 33.6272-83.0308Q31.168-80.5731 31.168-75.2259ZM43.7647-21.3573L84.7429-21.3573Q85.3108-21.3573 85.6444-21.6888Q85.9779-22.0202 85.9779-22.5216Q85.9779-23.023 85.6444-23.3587Q85.3108-23.6944 84.7429-23.6944L43.7647-23.6944Q43.1344-23.6944 42.8009-23.3587Q42.4673-23.023 42.4673-22.5216Q42.4673-22.0202 42.8009-21.6888Q43.1344-21.3573 43.7647-21.3573ZM43.7647-4.01118L84.7429-4.01118Q85.3108-4.01118 85.6444-4.34687Q85.9779-4.68256 85.9779-5.18397Q85.9779-5.68539 85.6444-6.05011Q85.3108-6.41483 84.7429-6.41483L43.7647-6.41483Q43.1344-6.41483 42.8009-6.05011Q42.4673-5.68539 42.4673-5.18397Q42.4673-4.68256 42.8009-4.34687Q43.1344-4.01118 43.7647-4.01118ZM86.2844-54.1385Q86.2844-51.7879 87.9228-50.2805Q89.5612-48.7731 91.916-48.6358Q94.0047-48.5692 95.6431-50.2451Q97.2814-51.921 97.2814-54.1385Q97.2814-56.2314 95.6431-57.9363Q94.0047-59.6412 91.916-59.6412Q89.5612-59.6412 87.9228-57.9363Q86.2844-56.2314 86.2844-54.1385Z"/>
  </g>
  <g id="Black-S" transform="matrix(1 0 0 1 2877.44 696)">
   <path d="M24.8047-4.39453L34.375-4.39453L34.375-16.1133L25.1465-16.1133Q23.6328-16.1133 22.8027-16.9434Q21.9727-17.7734 21.9727-19.2871L21.9727-51.6602Q21.9727-53.2227 22.8027-54.0527Q23.6328-54.8828 25.1465-54.8828L86.7676-54.8828Q88.3301-54.8828 89.1357-54.0527Q89.9414-53.2227 89.9414-51.6602L89.9414-19.2871Q89.9414-17.7734 89.1357-16.9434Q88.3301-16.1133 86.7676-16.1133L78.3203-16.1133L78.3203-4.39453L87.1094-4.39453Q94.2383-4.39453 98.1934-8.34961Q102.148-12.3047 102.148-19.4336L102.148-51.5625Q102.148-58.6914 98.1934-62.6465Q94.2383-66.6016 87.1094-66.6016L24.8047-66.6016Q17.6758-66.6016 13.7207-62.6465Q9.76562-58.6914 9.76562-51.5625L9.76562-19.4336Q9.76562-12.3047 13.7207-8.34961Q17.6758-4.39453 24.8047-4.39453ZM40.5273 9.27734L71.3867 9.27734Q77.6367 9.27734 80.5908 6.29883Q83.5449 3.32031 83.5449-2.88086L83.5449-27.5879Q83.5449-33.8379 80.5908-36.792Q77.6367-39.7461 71.3867-39.7461L40.5273-39.7461Q34.3262-39.7461 31.3477-36.792Q28.3691-33.8379 28.3691-27.5879L28.3691-2.88086Q28.3691 3.32031 31.3477 6.29883Q34.3262 9.27734 40.5273 9.27734ZM40.5273-1.41602Q39.8926-1.41602 39.502-1.78223Q39.1113-2.14844 39.1113-2.83203L39.1113-27.5879Q39.1113-28.2715 39.502-28.6377Q39.8926-29.0039 40.5273-29.0039L71.3867-29.0039Q72.0703-29.0039 72.4365-28.6377Q72.8027-28.2715 72.8027-27.5879L72.8027-2.83203Q72.8027-2.14844 72.4365-1.78223Q72.0703-1.41602 71.3867-1.41602ZM27.0508-62.5L39.2578-62.5L39.2578-69.9219Q39.2578-70.8984 39.7949-71.4355Q40.332-71.9727 41.2598-71.9727L70.6543-71.9727Q71.582-71.9727 72.1191-71.4355Q72.6562-70.8984 72.6562-69.9219L72.6562-62.5L84.8633-62.5L84.8633-68.8477Q84.8633-75.8301 81.4209-79.2725Q77.9785-82.7148 70.9961-82.7148L40.918-82.7148Q33.9844-82.7148 30.5176-79.2725Q27.0508-75.8301 27.0508-68.8477ZM46.3867-17.041L65.625-17.041Q67.1875-17.041 68.2617-18.1396Q69.3359-19.2383 69.3359-20.8008Q69.3359-22.3633 68.2617-23.4131Q67.1875-24.4629 65.625-24.4629L46.3867-24.4629Q44.7754-24.4629 43.7012-23.4131Q42.627-22.3633 42.627-20.8008Q42.627-19.2383 43.7256-18.1396Q44.8242-17.041 46.3867-17.041ZM46.3867-5.71289L65.625-5.71289Q67.1875-5.71289 68.2617-6.78711Q69.3359-7.86133 69.3359-9.375Q69.3359-10.9375 68.2617-12.0361Q67.1875-13.1348 65.625-13.1348L46.3867-13.1348Q44.8242-13.1348 43.7256-12.0361Q42.627-10.9375 42.627-9.375Q42.627-7.86133 43.7012-6.78711Q44.7754-5.71289 46.3867-5.71289ZM71.4355-47.4121Q71.4355-44.9707 73.1689-43.2373Q74.9023-41.5039 77.3438-41.5527Q79.7852-41.6016 81.4941-43.2861Q83.2031-44.9707 83.2031-47.4121Q83.2031-49.8047 81.4697-51.5381Q79.7363-53.2715 77.3438-53.2715Q74.9512-53.2715 73.1934-51.5381Q71.4355-49.8047 71.4355-47.4121Z"/>
  </g>
  <g id="Heavy-S" transform="matrix(1 0 0 1 2581.3 696)">
   <path d="M24.0556-4.32538L33.1995-4.32538L33.1995-14.8341L24.2937-14.8341Q22.5956-14.8341 21.6733-15.7563Q20.7511-16.6786 20.7511-18.3767L20.7511-51.7178Q20.7511-53.4531 21.6733-54.3754Q22.5956-55.2977 24.2937-55.2977L86.4795-55.2977Q88.2033-55.2977 89.1069-54.3754Q90.0106-53.4531 90.0106-51.7178L90.0106-18.3767Q90.0106-16.6786 89.1069-15.7563Q88.2033-14.8341 86.4795-14.8341L78.3203-14.8341L78.3203-4.32538L86.7175-4.32538Q93.5238-4.32538 97.2656-8.04421Q101.008-11.763 101.008-18.5693L101.008-51.5625Q101.008-58.3687 97.2656-62.0875Q93.5238-65.8064 86.7175-65.8064L24.0556-65.8064Q17.3185-65.8064 13.5421-62.0875Q9.76562-58.3687 9.76562-51.5625L9.76562-18.5693Q9.76562-11.763 13.5017-8.04421Q17.2379-4.32538 24.0556-4.32538ZM38.6258 8.77027L72.1473 8.77027Q77.752 8.77027 80.4352 6.09715Q83.1185 3.42403 83.1185-2.20092L83.1185-28.5675Q83.1185-34.2182 80.4352-36.8784Q77.752-39.5387 72.1473-39.5387L38.6258-39.5387Q33.1046-39.5387 30.3796-36.8784Q27.6546-34.2182 27.6546-28.5675L27.6546-2.20092Q27.6546 3.42403 30.3566 6.09715Q33.0585 8.77027 38.6258 8.77027ZM39.1675-0.943513Q38.4174-0.943513 37.9692-1.36735Q37.521-1.79118 37.521-2.60154L37.521-28.1411Q37.521-28.9399 37.9692-29.3637Q38.4174-29.7876 39.1675-29.7876L71.6057-29.7876Q72.4045-29.7876 72.8226-29.3637Q73.2407-28.9399 73.2407-28.1411L73.2407-2.60154Q73.2407-1.79118 72.8226-1.36735Q72.4045-0.943513 71.6057-0.943513ZM26.5668-61.7394L37.4946-61.7394L37.4946-68.8155Q37.4946-70.0687 38.1815-70.7498Q38.8684-71.431 40.0958-71.431L70.6773-71.431Q71.9047-71.431 72.5916-70.7498Q73.2786-70.0687 73.2786-68.8155L73.2786-61.7624L84.1949-61.7624L84.1949-67.8681Q84.1949-74.5854 80.8792-77.8607Q77.5636-81.136 70.9154-81.136L39.8577-81.136Q33.3275-81.136 29.9471-77.8607Q26.5668-74.5854 26.5668-67.8681ZM45.0845-17.7094L65.7863-17.7094Q67.2451-17.7094 68.2444-18.7332Q69.2437-19.7569 69.2437-21.2157Q69.2437-22.6744 68.2444-23.6493Q67.2451-24.6242 65.7863-24.6242L45.0845-24.6242Q43.5768-24.6242 42.5775-23.6493Q41.5782-22.6744 41.5782-21.2157Q41.5782-19.7569 42.5962-18.7332Q43.6141-17.7094 45.0845-17.7094ZM45.0845-5.92033L65.7863-5.92033Q67.2451-5.92033 68.2444-6.91388Q69.2437-7.90743 69.2437-9.3289Q69.2437-10.7877 68.2444-11.8114Q67.2451-12.8351 65.7863-12.8351L45.0845-12.8351Q43.6141-12.8351 42.5962-11.8114Q41.5782-10.7877 41.5782-9.3289Q41.5782-7.90743 42.5775-6.91388Q43.5768-5.92033 45.0845-5.92033ZM71.643-47.4928Q71.643-45.1436 73.3072-43.4851Q74.9715-41.8266 77.3092-41.8754Q79.6469-41.9127 81.2925-43.5281Q82.9381-45.1436 82.9381-47.4928Q82.9381-49.7816 81.2738-51.4459Q79.6096-53.1101 77.3092-53.1101Q75.0088-53.1101 73.3259-51.4459Q71.643-49.7816 71.643-47.4928Z"/>
  </g>
  <g id="Bold-S" transform="matrix(1 0 0 1 2285.23 696)">
   <path d="M23.2178-4.24805L31.8848-4.24805L31.8848-13.4033L23.3398-13.4033Q21.4355-13.4033 20.4102-14.4287Q19.3848-15.4541 19.3848-17.3584L19.3848-51.7822Q19.3848-53.7109 20.4102-54.7363Q21.4355-55.7617 23.3398-55.7617L86.1572-55.7617Q88.0615-55.7617 89.0747-54.7363Q90.0879-53.7109 90.0879-51.7822L90.0879-17.3584Q90.0879-15.4541 89.0747-14.4287Q88.0615-13.4033 86.1572-13.4033L78.3203-13.4033L78.3203-4.24805L86.2793-4.24805Q92.7246-4.24805 96.228-7.70264Q99.7314-11.1572 99.7314-17.6025L99.7314-51.5625Q99.7314-58.0078 96.228-61.4624Q92.7246-64.917 86.2793-64.917L23.2178-64.917Q16.9189-64.917 13.3423-61.4624Q9.76562-58.0078 9.76562-51.5625L9.76562-17.6025Q9.76562-11.1572 13.2568-7.70264Q16.748-4.24805 23.2178-4.24805ZM36.499 8.20312L72.998 8.20312Q77.8809 8.20312 80.2612 5.87158Q82.6416 3.54004 82.6416-1.44043L82.6416-29.6631Q82.6416-34.6436 80.2612-36.9751Q77.8809-39.3066 72.998-39.3066L36.499-39.3066Q31.7383-39.3066 29.2969-36.9751Q26.8555-34.6436 26.8555-29.6631L26.8555-1.44043Q26.8555 3.54004 29.248 5.87158Q31.6406 8.20312 36.499 8.20312ZM37.6465-0.415039Q36.7676-0.415039 36.2549-0.90332Q35.7422-1.3916 35.7422-2.34375L35.7422-28.7598Q35.7422-29.6875 36.2549-30.1758Q36.7676-30.6641 37.6465-30.6641L71.8506-30.6641Q72.7783-30.6641 73.2544-30.1758Q73.7305-29.6875 73.7305-28.7598L73.7305-2.34375Q73.7305-1.3916 73.2544-0.90332Q72.7783-0.415039 71.8506-0.415039ZM26.0254-60.8887L35.5225-60.8887L35.5225-67.5781Q35.5225-69.1406 36.377-69.9829Q37.2314-70.8252 38.7939-70.8252L70.7031-70.8252Q72.2656-70.8252 73.1201-69.9829Q73.9746-69.1406 73.9746-67.5781L73.9746-60.9375L83.4473-60.9375L83.4473-66.7725Q83.4473-73.1934 80.2734-76.2817Q77.0996-79.3701 70.8252-79.3701L38.6719-79.3701Q32.5928-79.3701 29.3091-76.2817Q26.0254-73.1934 26.0254-66.7725ZM43.6279-18.457L65.9668-18.457Q67.3096-18.457 68.2251-19.397Q69.1406-20.3369 69.1406-21.6797Q69.1406-23.0225 68.2251-23.9136Q67.3096-24.8047 65.9668-24.8047L43.6279-24.8047Q42.2363-24.8047 41.3208-23.9136Q40.4053-23.0225 40.4053-21.6797Q40.4053-20.3369 41.333-19.397Q42.2607-18.457 43.6279-18.457ZM43.6279-6.15234L65.9668-6.15234Q67.3096-6.15234 68.2251-7.05566Q69.1406-7.95898 69.1406-9.27734Q69.1406-10.6201 68.2251-11.5601Q67.3096-12.5 65.9668-12.5L43.6279-12.5Q42.2607-12.5 41.333-11.5601Q40.4053-10.6201 40.4053-9.27734Q40.4053-7.95898 41.3208-7.05566Q42.2363-6.15234 43.6279-6.15234ZM71.875-47.583Q71.875-45.3369 73.4619-43.7622Q75.0488-42.1875 77.2705-42.2363Q79.4922-42.2607 81.0669-43.7988Q82.6416-45.3369 82.6416-47.583Q82.6416-49.7559 81.0547-51.3428Q79.4678-52.9297 77.2705-52.9297Q75.0732-52.9297 73.4741-51.3428Q71.875-49.7559 71.875-47.583Z"/>
  </g>
  <g id="Semibold-S" transform="matrix(1 0 0 1 1988.96 696)">
   <path d="M22.6401-4.19473L30.9783-4.19473L30.9783-12.4169L22.6822-12.4169Q20.6357-12.4169 19.5393-13.5134Q18.4428-14.6099 18.4428-16.6563L18.4428-51.8267Q18.4428-53.8887 19.5393-54.9852Q20.6357-56.0816 22.6822-56.0816L85.9351-56.0816Q87.9638-56.0816 89.0525-54.9852Q90.1412-53.8887 90.1412-51.8267L90.1412-16.6563Q90.1412-14.6099 89.0525-13.5134Q87.9638-12.4169 85.9351-12.4169L78.3203-12.4169L78.3203-4.19473L85.9771-4.19473Q92.1736-4.19473 95.5126-7.46714Q98.8517-10.7396 98.8517-16.936L98.8517-51.5625Q98.8517-57.759 95.5126-61.0314Q92.1736-64.3038 85.9771-64.3038L22.6401-64.3038Q16.6435-64.3038 13.2045-61.0314Q9.76562-57.759 9.76562-51.5625L9.76562-16.936Q9.76562-10.7396 13.088-7.46714Q16.4104-4.19473 22.6401-4.19473ZM35.0327 7.81211L73.5846 7.81211Q77.9697 7.81211 80.1413 5.71606Q82.3128 3.62002 82.3128-0.916113L82.3128-30.4185Q82.3128-34.9368 80.1413-37.0417Q77.9697-39.1467 73.5846-39.1467L35.0327-39.1467Q30.7963-39.1467 28.5504-37.0417Q26.3045-34.9368 26.3045-30.4185L26.3045-0.916113Q26.3045 3.62002 28.4838 5.71606Q30.6631 7.81211 35.0327 7.81211ZM36.5979-0.0506836Q35.6301-0.0506836 35.0729-0.583398Q34.5158-1.11611 34.5158-2.16602L34.5158-29.1863Q34.5158-30.2029 35.0729-30.7356Q35.6301-31.2684 36.5979-31.2684L72.0194-31.2684Q73.036-31.2684 73.5521-30.7356Q74.0682-30.2029 74.0682-29.1863L74.0682-2.16602Q74.0682-1.11611 73.5521-0.583398Q73.036-0.0506836 72.0194-0.0506836ZM25.6521-60.3021L34.1628-60.3021L34.1628-66.725Q34.1628-68.5008 35.1328-69.4542Q36.1028-70.4075 37.8964-70.4075L70.7209-70.4075Q72.5145-70.4075 73.4845-69.4542Q74.4545-68.5008 74.4545-66.725L74.4545-60.3687L82.9318-60.3687L82.9318-66.0171Q82.9318-72.2336 79.8558-75.1931Q76.7797-78.1526 70.763-78.1526L37.8543-78.1526Q32.0862-78.1526 28.8692-75.1931Q25.6521-72.2336 25.6521-66.0171ZM42.6237-18.9725L66.0912-18.9725Q67.354-18.9725 68.2118-19.8546Q69.0695-20.7368 69.0695-21.9996Q69.0695-23.2624 68.2118-24.0958Q67.354-24.9291 66.0912-24.9291L42.6237-24.9291Q41.3121-24.9291 40.4543-24.0958Q39.5966-23.2624 39.5966-21.9996Q39.5966-20.7368 40.4621-19.8546Q41.3276-18.9725 42.6237-18.9725ZM42.6237-6.3123L66.0912-6.3123Q67.354-6.3123 68.2118-7.15342Q69.0695-7.99453 69.0695-9.2418Q69.0695-10.5046 68.2118-11.3868Q67.354-12.2689 66.0912-12.2689L42.6237-12.2689Q41.3276-12.2689 40.4621-11.3868Q39.5966-10.5046 39.5966-9.2418Q39.5966-7.99453 40.4543-7.15342Q41.3121-6.3123 42.6237-6.3123ZM72.035-47.6452Q72.035-45.4702 73.5686-43.9533Q75.1021-42.4363 77.2438-42.4852Q79.3855-42.5007 80.9114-43.9854Q82.4372-45.4702 82.4372-47.6452Q82.4372-49.7381 80.9036-51.2717Q79.37-52.8053 77.2438-52.8053Q75.1177-52.8053 73.5763-51.2717Q72.035-49.7381 72.035-47.6452Z"/>
  </g>
  <g id="Medium-S" transform="matrix(1 0 0 1 1692.58 696)">
   <path d="M22.2021-4.1543L30.291-4.1543L30.291-11.6689L22.1836-11.6689Q20.0293-11.6689 18.8789-12.8193Q17.7285-13.9697 17.7285-16.124L17.7285-51.8604Q17.7285-54.0234 18.8789-55.1738Q20.0293-56.3242 22.1836-56.3242L85.7666-56.3242Q87.8896-56.3242 89.0356-55.1738Q90.1816-54.0234 90.1816-51.8604L90.1816-16.124Q90.1816-13.9697 89.0356-12.8193Q87.8896-11.6689 85.7666-11.6689L78.3203-11.6689L78.3203-4.1543L85.748-4.1543Q91.7559-4.1543 94.9702-7.28857Q98.1846-10.4229 98.1846-16.4307L98.1846-51.5625Q98.1846-57.5703 94.9702-60.7046Q91.7559-63.8389 85.748-63.8389L22.2021-63.8389Q16.4346-63.8389 13.1001-60.7046Q9.76562-57.5703 9.76562-51.5625L9.76562-16.4307Q9.76562-10.4229 12.96-7.28857Q16.1543-4.1543 22.2021-4.1543ZM33.9209 7.51562L74.0293 7.51562Q78.0371 7.51562 80.0503 5.59814Q82.0635 3.68066 82.0635-0.518555L82.0635-30.9912Q82.0635-35.1592 80.0503-37.0923Q78.0371-39.0254 74.0293-39.0254L33.9209-39.0254Q30.082-39.0254 27.9844-37.0923Q25.8867-35.1592 25.8867-30.9912L25.8867-0.518555Q25.8867 3.68066 27.9043 5.59814Q29.9219 7.51562 33.9209 7.51562ZM35.8027 0.225586Q34.7676 0.225586 34.1768-0.34082Q33.5859-0.907227 33.5859-2.03125L33.5859-29.5098Q33.5859-30.5938 34.1768-31.1602Q34.7676-31.7266 35.8027-31.7266L72.1475-31.7266Q73.2314-31.7266 73.7778-31.1602Q74.3242-30.5938 74.3242-29.5098L74.3242-2.03125Q74.3242-0.907227 73.7778-0.34082Q73.2314 0.225586 72.1475 0.225586ZM25.3691-59.8574L33.1318-59.8574L33.1318-66.0781Q33.1318-68.0156 34.1895-69.0532Q35.2471-70.0908 37.2158-70.0908L70.7344-70.0908Q72.7031-70.0908 73.7607-69.0532Q74.8184-68.0156 74.8184-66.0781L74.8184-59.9375L82.541-59.9375L82.541-65.4443Q82.541-71.5059 79.5391-74.3677Q76.5371-77.2295 70.7158-77.2295L37.2344-77.2295Q31.7021-77.2295 28.5356-74.3677Q25.3691-71.5059 25.3691-65.4443ZM41.8623-19.3633L66.1855-19.3633Q67.3877-19.3633 68.2017-20.2017Q69.0156-21.04 69.0156-22.2422Q69.0156-23.4443 68.2017-24.2339Q67.3877-25.0234 66.1855-25.0234L41.8623-25.0234Q40.6113-25.0234 39.7974-24.2339Q38.9834-23.4443 38.9834-22.2422Q38.9834-21.04 39.8018-20.2017Q40.6201-19.3633 41.8623-19.3633ZM41.8623-6.43359L66.1855-6.43359Q67.3877-6.43359 68.2017-7.22754Q69.0156-8.02148 69.0156-9.21484Q69.0156-10.417 68.2017-11.2554Q67.3877-12.0938 66.1855-12.0938L41.8623-12.0938Q40.6201-12.0938 39.8018-11.2554Q38.9834-10.417 38.9834-9.21484Q38.9834-8.02148 39.7974-7.22754Q40.6113-6.43359 41.8623-6.43359ZM72.1562-47.6924Q72.1562-45.5713 73.6494-44.0981Q75.1426-42.625 77.2236-42.6738Q79.3047-42.6826 80.7935-44.127Q82.2822-45.5713 82.2822-47.6924Q82.2822-49.7246 80.7891-51.2178Q79.2959-52.7109 77.2236-52.7109Q75.1514-52.7109 73.6538-51.2178Q72.1562-49.7246 72.1562-47.6924Z"/>
  </g>
  <g id="Regular-S" transform="matrix(1 0 0 1 1396.3 696)">
   <path d="M21.6309-4.10156L29.3945-4.10156L29.3945-10.6934L21.5332-10.6934Q19.2383-10.6934 18.0176-11.9141Q16.7969-13.1348 16.7969-15.4297L16.7969-51.9043Q16.7969-54.1992 18.0176-55.4199Q19.2383-56.6406 21.5332-56.6406L85.5469-56.6406Q87.793-56.6406 89.0137-55.4199Q90.2344-54.1992 90.2344-51.9043L90.2344-15.4297Q90.2344-13.1348 89.0137-11.9141Q87.793-10.6934 85.5469-10.6934L78.3203-10.6934L78.3203-4.10156L85.4492-4.10156Q91.2109-4.10156 94.2627-7.05566Q97.3145-10.0098 97.3145-15.7715L97.3145-51.5625Q97.3145-57.3242 94.2627-60.2783Q91.2109-63.2324 85.4492-63.2324L21.6309-63.2324Q16.1621-63.2324 12.9639-60.2783Q9.76562-57.3242 9.76562-51.5625L9.76562-15.7715Q9.76562-10.0098 12.793-7.05566Q15.8203-4.10156 21.6309-4.10156ZM32.4707 7.12891L74.6094 7.12891Q78.125 7.12891 79.9316 5.44434Q81.7383 3.75977 81.7383 0L81.7383-31.7383Q81.7383-35.4492 79.9316-37.1582Q78.125-38.8672 74.6094-38.8672L32.4707-38.8672Q29.1504-38.8672 27.2461-37.1582Q25.3418-35.4492 25.3418-31.7383L25.3418 0Q25.3418 3.75977 27.1484 5.44434Q28.9551 7.12891 32.4707 7.12891ZM34.7656 0.585938Q33.6426 0.585938 33.0078-0.0244141Q32.373-0.634766 32.373-1.85547L32.373-29.9316Q32.373-31.1035 33.0078-31.7139Q33.6426-32.3242 34.7656-32.3242L72.3145-32.3242Q73.4863-32.3242 74.0723-31.7139Q74.6582-31.1035 74.6582-29.9316L74.6582-1.85547Q74.6582-0.634766 74.0723-0.0244141Q73.4863 0.585938 72.3145 0.585938ZM25-59.2773L31.7871-59.2773L31.7871-65.2344Q31.7871-67.3828 32.959-68.5303Q34.1309-69.6777 36.3281-69.6777L70.752-69.6777Q72.9492-69.6777 74.1211-68.5303Q75.293-67.3828 75.293-65.2344L75.293-59.375L82.0312-59.375L82.0312-64.6973Q82.0312-70.5566 79.126-73.291Q76.2207-76.0254 70.6543-76.0254L36.4258-76.0254Q31.2012-76.0254 28.1006-73.291Q25-70.5566 25-64.6973ZM40.8691-19.873L66.3086-19.873Q67.4316-19.873 68.1885-20.6543Q68.9453-21.4355 68.9453-22.5586Q68.9453-23.6816 68.1885-24.4141Q67.4316-25.1465 66.3086-25.1465L40.8691-25.1465Q39.6973-25.1465 38.9404-24.4141Q38.1836-23.6816 38.1836-22.5586Q38.1836-21.4355 38.9404-20.6543Q39.6973-19.873 40.8691-19.873ZM40.8691-6.5918L66.3086-6.5918Q67.4316-6.5918 68.1885-7.32422Q68.9453-8.05664 68.9453-9.17969Q68.9453-10.3027 68.1885-11.084Q67.4316-11.8652 66.3086-11.8652L40.8691-11.8652Q39.6973-11.8652 38.9404-11.084Q38.1836-10.3027 38.1836-9.17969Q38.1836-8.05664 38.9404-7.32422Q39.6973-6.5918 40.8691-6.5918ZM72.3145-47.7539Q72.3145-45.7031 73.7549-44.2871Q75.1953-42.8711 77.1973-42.9199Q79.1992-42.9199 80.6396-44.3115Q82.0801-45.7031 82.0801-47.7539Q82.0801-49.707 80.6396-51.1475Q79.1992-52.5879 77.1973-52.5879Q75.1953-52.5879 73.7549-51.1475Q72.3145-49.707 72.3145-47.7539Z"/>
  </g>
  <g id="Light-S" transform="matrix(1 0 0 1 1100.61 696)">
   <path d="M20.7682-5.27344L28.1413-5.27344L28.1413-10.3841L20.7031-10.3841Q17.9525-10.3841 16.5853-11.7513Q15.2181-13.1185 15.2181-15.8854L15.2181-52.2135Q15.2181-54.9642 16.5853-56.3395Q17.9525-57.7148 20.7031-57.7148L84.3587-57.7148Q87.0605-57.7148 88.4277-56.3395Q89.7949-54.9642 89.7949-52.2135L89.7949-15.8854Q89.7949-13.1185 88.4277-11.7513Q87.0605-10.3841 84.3587-10.3841L77.2461-10.3841L77.2461-5.27344L84.2773-5.27344Q89.681-5.27344 92.4805-7.99967Q95.2799-10.7259 95.2799-16.097L95.2799-51.9857Q95.2799-57.373 92.4805-60.0993Q89.681-62.8255 84.2773-62.8255L20.7682-62.8255Q15.5762-62.8255 12.6709-60.0993Q9.76562-57.373 9.76562-51.9857L9.76562-16.097Q9.76562-10.7259 12.557-7.99967Q15.3483-5.27344 20.7682-5.27344ZM32.5033 6.13607L72.5586 6.13607Q76.2858 6.13607 78.1494 4.36198Q80.013 2.58789 80.013-1.31836L80.013-32.0638Q80.013-35.9375 78.1494-37.7197Q76.2858-39.502 72.5586-39.502L32.5033-39.502Q28.89-39.502 26.9694-37.7197Q25.0488-35.9375 25.0488-32.0638L25.0488-1.31836Q25.0488 2.58789 26.9043 4.36198Q28.7598 6.13607 32.5033 6.13607ZM34.0658 1.04167Q32.2428 1.04167 31.3721 0.179036Q30.5013-0.683594 30.5013-2.58789L30.5013-30.8268Q30.5013-32.6986 31.3721-33.5531Q32.2428-34.4076 34.0658-34.4076L70.9798-34.4076Q72.8516-34.4076 73.6898-33.5531Q74.528-32.6986 74.528-30.8268L74.528-2.58789Q74.528-0.683594 73.6898 0.179036Q72.8516 1.04167 70.9798 1.04167ZM24.821-59.7819L30.1107-59.7819L30.1107-65.6576Q30.1107-68.1803 31.3395-69.4092Q32.5684-70.638 35.14-70.638L69.9219-70.638Q72.4772-70.638 73.7223-69.4092Q74.9674-68.1803 74.9674-65.6576L74.9674-59.847L80.1921-59.847L80.1921-65.2832Q80.1921-70.6217 77.5879-73.1038Q74.9837-75.5859 69.8568-75.5859L35.2051-75.5859Q30.2897-75.5859 27.5553-73.1038Q24.821-70.6217 24.821-65.2832ZM38.8184-21.2728L66.3411-21.2728Q67.2526-21.2728 67.8548-21.8913Q68.457-22.5098 68.457-23.4049Q68.457-24.3001 67.8548-24.8861Q67.2526-25.472 66.3411-25.472L38.8184-25.472Q37.8581-25.472 37.2559-24.8861Q36.6536-24.3001 36.6536-23.4049Q36.6536-22.5098 37.2559-21.8913Q37.8581-21.2728 38.8184-21.2728ZM38.8184-7.89388L66.3411-7.89388Q67.2526-7.89388 67.8548-8.47982Q68.457-9.06576 68.457-9.96094Q68.457-10.8561 67.8548-11.4827Q67.2526-12.1094 66.3411-12.1094L38.8184-12.1094Q37.8581-12.1094 37.2559-11.4827Q36.6536-10.8561 36.6536-9.96094Q36.6536-9.06576 37.2559-8.47982Q37.8581-7.89388 38.8184-7.89388ZM70.8496-48.4701Q70.8496-46.4844 72.2412-45.1416Q73.6328-43.7988 75.5859-43.7988Q77.474-43.7826 78.8656-45.1497Q80.2572-46.5169 80.2572-48.4701Q80.2572-50.3255 78.8656-51.7334Q77.474-53.1413 75.5859-53.1413Q73.6328-53.1413 72.2412-51.7334Q70.8496-50.3255 70.8496-48.4701Z"/>
  </g>
  <g id="Thin-S" transform="matrix(1 0 0 1 805.245 696)">
   <path d="M19.6273-6.82334L26.4837-6.82334L26.4837-9.97511L19.6053-9.97511Q16.2519-9.97511 14.691-11.536Q13.13-13.097 13.13-16.4882L13.13-52.6225Q13.13-55.9759 14.691-57.5558Q16.2519-59.1356 19.6053-59.1356L82.7873-59.1356Q86.0919-59.1356 87.6528-57.5558Q89.2137-55.9759 89.2137-52.6225L89.2137-16.4882Q89.2137-13.097 87.6528-11.536Q86.0919-9.97511 82.7873-9.97511L75.8254-9.97511L75.8254-6.82334L82.7274-6.82334Q87.6575-6.82334 90.1233-9.2482Q92.5892-11.6731 92.5892-16.5275L92.5892-52.5454Q92.5892-57.4376 90.1233-59.8625Q87.6575-62.2874 82.7274-62.2874L19.6273-62.2874Q14.8012-62.2874 12.2834-59.8625Q9.76562-57.4376 9.76562-52.5454L9.76562-16.5275Q9.76562-11.6731 12.2448-9.2482Q14.724-6.82334 19.6273-6.82334ZM32.5463 4.82296L69.8463 4.82296Q73.8533 4.82296 75.7923 2.93048Q77.7312 1.03799 77.7312-3.062L77.7312-32.4943Q77.7312-36.5833 75.7923-38.4624Q73.8533-40.3415 69.8463-40.3415L32.5463-40.3415Q28.5456-40.3415 26.6035-38.4624Q24.6614-36.5833 24.6614-32.4943L24.6614-3.062Q24.6614 1.03799 26.5814 2.93048Q28.5014 4.82296 32.5463 4.82296ZM33.1401 1.64441Q30.3916 1.64441 29.2087 0.448116Q28.0258-0.748173 28.0258-3.55658L28.0258-32.0108Q28.0258-34.8082 29.2087-35.9855Q30.3916-37.1629 33.1401-37.1629L69.2147-37.1629Q72.012-37.1629 73.1839-35.9855Q74.3558-34.8082 74.3558-32.0108L74.3558-3.55658Q74.3558-0.748173 73.1839 0.448116Q72.012 1.64441 69.2147 1.64441ZM24.5842-60.4492L27.8935-60.4492L27.8935-66.2172Q27.8935-69.2351 29.1976-70.5716Q30.5018-71.9081 33.5685-71.9081L68.824-71.9081Q71.8529-71.9081 73.1949-70.5716Q74.5369-69.2351 74.5369-66.2172L74.5369-60.4713L77.7596-60.4713L77.7596-66.0582Q77.7596-70.7079 75.5536-72.8563Q73.3477-75.0047 68.802-75.0047L33.5906-75.0047Q29.0842-75.0047 26.8342-72.8563Q24.5842-70.7079 24.5842-66.0582ZM36.106-23.1241L66.3842-23.1241Q67.0158-23.1241 67.4135-23.5273Q67.8112-23.9305 67.8112-24.5243Q67.8112-25.1181 67.4135-25.5103Q67.0158-25.9025 66.3842-25.9025L36.106-25.9025Q35.4256-25.9025 35.0279-25.5103Q34.6302-25.1181 34.6302-24.5243Q34.6302-23.9305 35.0279-23.5273Q35.4256-23.1241 36.106-23.1241ZM36.106-9.61599L66.3842-9.61599Q67.0158-9.61599 67.4135-10.0082Q67.8112-10.4004 67.8112-10.9942Q67.8112-11.588 67.4135-12.0101Q67.0158-12.4323 66.3842-12.4323L36.106-12.4323Q35.4256-12.4323 35.0279-12.0101Q34.6302-11.588 34.6302-10.9942Q34.6302-10.4004 35.0279-10.0082Q35.4256-9.61599 36.106-9.61599ZM68.9122-49.4172Q68.9122-47.5176 70.2393-46.2717Q71.5663-45.0258 73.4548-44.9613Q75.1922-44.9235 76.5192-46.2583Q77.8462-47.5932 77.8462-49.4172Q77.8462-51.1435 76.5192-52.5083Q75.1922-53.8732 73.4548-53.8732Q71.5663-53.8732 70.2393-52.5083Q68.9122-51.1435 68.9122-49.4172Z"/>
  </g>
  <g id="Ultralight-S" transform="matrix(1 0 0 1 509.223 696)">
   <path d="M19.043-7.61719L25.6348-7.61719L25.6348-9.76562L19.043-9.76562Q15.3809-9.76562 13.7207-11.4258Q12.0605-13.0859 12.0605-16.7969L12.0605-52.832Q12.0605-56.4941 13.7207-58.1787Q15.3809-59.8633 19.043-59.8633L81.9824-59.8633Q85.5957-59.8633 87.2559-58.1787Q88.916-56.4941 88.916-52.832L88.916-16.7969Q88.916-13.0859 87.2559-11.4258Q85.5957-9.76562 81.9824-9.76562L75.0977-9.76562L75.0977-7.61719L81.9336-7.61719Q86.6211-7.61719 88.916-9.8877Q91.2109-12.1582 91.2109-16.748L91.2109-52.832Q91.2109-57.4707 88.916-59.7412Q86.6211-62.0117 81.9336-62.0117L19.043-62.0117Q14.4043-62.0117 12.085-59.7412Q9.76562-57.4707 9.76562-52.832L9.76562-16.748Q9.76562-12.1582 12.085-9.8877Q14.4043-7.61719 19.043-7.61719ZM32.5684 4.15039L68.457 4.15039Q72.6074 4.15039 74.585 2.19727Q76.5625 0.244141 76.5625-3.95508L76.5625-32.7148Q76.5625-36.9141 74.585-38.8428Q72.6074-40.7715 68.457-40.7715L32.5684-40.7715Q28.3691-40.7715 26.416-38.8428Q24.4629-36.9141 24.4629-32.7148L24.4629-3.95508Q24.4629 0.244141 26.416 2.19727Q28.3691 4.15039 32.5684 4.15039ZM32.666 1.95312Q29.4434 1.95312 28.1006 0.585938Q26.7578-0.78125 26.7578-4.05273L26.7578-32.6172Q26.7578-35.8887 28.1006-37.2314Q29.4434-38.5742 32.666-38.5742L68.3105-38.5742Q71.582-38.5742 72.9248-37.2314Q74.2676-35.8887 74.2676-32.6172L74.2676-4.05273Q74.2676-0.78125 72.9248 0.585938Q71.582 1.95312 68.3105 1.95312ZM24.4629-60.791L26.7578-60.791L26.7578-66.5039Q26.7578-69.7754 28.1006-71.167Q29.4434-72.5586 32.7637-72.5586L68.2617-72.5586Q71.5332-72.5586 72.9248-71.167Q74.3164-69.7754 74.3164-66.5039L74.3164-60.791L76.5137-60.791L76.5137-66.4551Q76.5137-70.752 74.5117-72.7295Q72.5098-74.707 68.2617-74.707L32.7637-74.707Q28.4668-74.707 26.4648-72.7295Q24.4629-70.752 24.4629-66.4551ZM34.7168-24.0723L66.4062-24.0723Q66.8945-24.0723 67.1875-24.3652Q67.4805-24.6582 67.4805-25.0977Q67.4805-25.5371 67.1875-25.8301Q66.8945-26.123 66.4062-26.123L34.7168-26.123Q34.1797-26.123 33.8867-25.8301Q33.5938-25.5371 33.5938-25.0977Q33.5938-24.6582 33.8867-24.3652Q34.1797-24.0723 34.7168-24.0723ZM34.7168-10.498L66.4062-10.498Q66.8945-10.498 67.1875-10.791Q67.4805-11.084 67.4805-11.5234Q67.4805-11.9629 67.1875-12.2803Q66.8945-12.5977 66.4062-12.5977L34.7168-12.5977Q34.1797-12.5977 33.8867-12.2803Q33.5938-11.9629 33.5938-11.5234Q33.5938-11.084 33.8867-10.791Q34.1797-10.498 34.7168-10.498ZM67.9199-49.9023Q67.9199-48.0469 69.2139-46.8506Q70.5078-45.6543 72.3633-45.5566Q74.0234-45.5078 75.3174-46.8262Q76.6113-48.1445 76.6113-49.9023Q76.6113-51.5625 75.3174-52.9053Q74.0234-54.248 72.3633-54.248Q70.5078-54.248 69.2139-52.9053Q67.9199-51.5625 67.9199-49.9023Z"/>
  </g>
 </g>
</svg>
