<?xml version="1.0" encoding="UTF-8"?>
<!--Generator: Apple Native CoreSVG 175-->
<!DOCTYPE svg
PUBLIC "-//W3C//DTD SVG 1.1//EN"
       "http://www.w3.org/Graphics/SVG/1.1/DTD/svg11.dtd">
<svg version="1.1" xmlns="http://www.w3.org/2000/svg" xmlns:xlink="http://www.w3.org/1999/xlink" width="3300" height="2200">
 <!--glyph: "uni100237.medium", point size: 100.0, font version: "17.1d1e1", template writer version: "65.1"-->
 <g id="Notes">
  <rect height="2200" id="artboard" style="fill:white;opacity:1" width="3300" x="0" y="0"/>
  <line style="fill:none;stroke:black;opacity:1;stroke-width:0.5;" x1="263" x2="3036" y1="292" y2="292"/>
  <text style="stroke:none;fill:black;font-family:sans-serif;font-size:13;font-weight:bold;" transform="matrix(1 0 0 1 263 322)">Weight/Scale Variations</text>
  <text style="stroke:none;fill:black;font-family:sans-serif;font-size:13;text-anchor:middle;" transform="matrix(1 0 0 1 559.711 322)">Ultralight</text>
  <text style="stroke:none;fill:black;font-family:sans-serif;font-size:13;text-anchor:middle;" transform="matrix(1 0 0 1 856.422 322)">Thin</text>
  <text style="stroke:none;fill:black;font-family:sans-serif;font-size:13;text-anchor:middle;" transform="matrix(1 0 0 1 1153.13 322)">Light</text>
  <text style="stroke:none;fill:black;font-family:sans-serif;font-size:13;text-anchor:middle;" transform="matrix(1 0 0 1 1449.84 322)">Regular</text>
  <text style="stroke:none;fill:black;font-family:sans-serif;font-size:13;text-anchor:middle;" transform="matrix(1 0 0 1 1746.56 322)">Medium</text>
  <text style="stroke:none;fill:black;font-family:sans-serif;font-size:13;text-anchor:middle;" transform="matrix(1 0 0 1 2043.27 322)">Semibold</text>
  <text style="stroke:none;fill:black;font-family:sans-serif;font-size:13;text-anchor:middle;" transform="matrix(1 0 0 1 2339.98 322)">Bold</text>
  <text style="stroke:none;fill:black;font-family:sans-serif;font-size:13;text-anchor:middle;" transform="matrix(1 0 0 1 2636.69 322)">Heavy</text>
  <text style="stroke:none;fill:black;font-family:sans-serif;font-size:13;text-anchor:middle;" transform="matrix(1 0 0 1 2933.4 322)">Black</text>
  <line style="fill:none;stroke:black;opacity:1;stroke-width:0.5;" x1="263" x2="3036" y1="1903" y2="1903"/>
  <g transform="matrix(1 0 0 1 263 1933)">
   <path d="M9.24805 0.830078Q10.8691 0.830078 12.2949 0.214844Q13.7207-0.400391 14.8096-1.49414Q15.8984-2.58789 16.5186-4.01367Q17.1387-5.43945 17.1387-7.05078Q17.1387-8.66211 16.5186-10.0879Q15.8984-11.5137 14.8047-12.6074Q13.7109-13.7012 12.2852-14.3164Q10.8594-14.9316 9.23828-14.9316Q7.62695-14.9316 6.20117-14.3164Q4.77539-13.7012 3.69141-12.6074Q2.60742-11.5137 1.9873-10.0879Q1.36719-8.66211 1.36719-7.05078Q1.36719-5.43945 1.9873-4.01367Q2.60742-2.58789 3.69629-1.49414Q4.78516-0.400391 6.21094 0.214844Q7.63672 0.830078 9.24805 0.830078ZM9.24805-0.654297Q7.91992-0.654297 6.7627-1.14746Q5.60547-1.64062 4.73145-2.51953Q3.85742-3.39844 3.36426-4.56055Q2.87109-5.72266 2.87109-7.05078Q2.87109-8.37891 3.35938-9.54102Q3.84766-10.7031 4.72168-11.582Q5.5957-12.4609 6.75293-12.9541Q7.91016-13.4473 9.23828-13.4473Q10.5762-13.4473 11.7334-12.9541Q12.8906-12.4609 13.7695-11.582Q14.6484-10.7031 15.1465-9.54102Q15.6445-8.37891 15.6445-7.05078Q15.6445-5.72266 15.1514-4.56055Q14.6582-3.39844 13.7842-2.51953Q12.9102-1.64062 11.748-1.14746Q10.5859-0.654297 9.24805-0.654297ZM5.6543-7.05078Q5.6543-6.72852 5.85938-6.52832Q6.06445-6.32812 6.40625-6.32812L8.51562-6.32812L8.51562-4.20898Q8.51562-3.88672 8.71094-3.67676Q8.90625-3.4668 9.23828-3.4668Q9.56055-3.4668 9.77051-3.67676Q9.98047-3.88672 9.98047-4.20898L9.98047-6.32812L12.0898-6.32812Q12.4219-6.32812 12.627-6.52832Q12.832-6.72852 12.832-7.05078Q12.832-7.38281 12.627-7.58789Q12.4219-7.79297 12.0898-7.79297L9.98047-7.79297L9.98047-9.90234Q9.98047-10.2344 9.77051-10.4443Q9.56055-10.6543 9.23828-10.6543Q8.90625-10.6543 8.71094-10.4443Q8.51562-10.2344 8.51562-9.90234L8.51562-7.79297L6.40625-7.79297Q6.06445-7.79297 5.85938-7.58789Q5.6543-7.38281 5.6543-7.05078Z"/>
  </g>
  <g transform="matrix(1 0 0 1 281.867 1933)">
   <path d="M11.709 2.91016Q13.75 2.91016 15.5518 2.12891Q17.3535 1.34766 18.7305-0.0292969Q20.1074-1.40625 20.8887-3.20801Q21.6699-5.00977 21.6699-7.05078Q21.6699-9.0918 20.8887-10.8936Q20.1074-12.6953 18.7305-14.0723Q17.3535-15.4492 15.5469-16.2305Q13.7402-17.0117 11.6992-17.0117Q9.6582-17.0117 7.85645-16.2305Q6.05469-15.4492 4.68262-14.0723Q3.31055-12.6953 2.5293-10.8936Q1.74805-9.0918 1.74805-7.05078Q1.74805-5.00977 2.5293-3.20801Q3.31055-1.40625 4.6875-0.0292969Q6.06445 1.34766 7.86621 2.12891Q9.66797 2.91016 11.709 2.91016ZM11.709 1.25Q9.98047 1.25 8.47656 0.605469Q6.97266-0.0390625 5.83496-1.17676Q4.69727-2.31445 4.05762-3.81836Q3.41797-5.32227 3.41797-7.05078Q3.41797-8.7793 4.05762-10.2832Q4.69727-11.7871 5.83008-12.9297Q6.96289-14.0723 8.4668-14.7119Q9.9707-15.3516 11.6992-15.3516Q13.4277-15.3516 14.9316-14.7119Q16.4355-14.0723 17.5781-12.9297Q18.7207-11.7871 19.3652-10.2832Q20.0098-8.7793 20.0098-7.05078Q20.0098-5.32227 19.3701-3.81836Q18.7305-2.31445 17.5928-1.17676Q16.4551-0.0390625 14.9463 0.605469Q13.4375 1.25 11.709 1.25ZM7.17773-7.05078Q7.17773-6.69922 7.41211-6.47461Q7.64648-6.25 8.01758-6.25L10.8887-6.25L10.8887-3.36914Q10.8887-2.99805 11.1133-2.76855Q11.3379-2.53906 11.6895-2.53906Q12.0605-2.53906 12.29-2.76855Q12.5195-2.99805 12.5195-3.36914L12.5195-6.25L15.4004-6.25Q15.7715-6.25 16.001-6.47461Q16.2305-6.69922 16.2305-7.05078Q16.2305-7.42188 16.001-7.65137Q15.7715-7.88086 15.4004-7.88086L12.5195-7.88086L12.5195-10.752Q12.5195-11.1328 12.29-11.3623Q12.0605-11.5918 11.6895-11.5918Q11.3379-11.5918 11.1133-11.3574Q10.8887-11.123 10.8887-10.752L10.8887-7.88086L8.01758-7.88086Q7.63672-7.88086 7.40723-7.65137Q7.17773-7.42188 7.17773-7.05078Z"/>
  </g>
  <g transform="matrix(1 0 0 1 305.646 1933)">
   <path d="M14.9707 5.66406Q17.0605 5.66406 18.96 5.01465Q20.8594 4.36523 22.4512 3.19336Q24.043 2.02148 25.2197 0.429688Q26.3965-1.16211 27.0459-3.06641Q27.6953-4.9707 27.6953-7.05078Q27.6953-9.14062 27.0459-11.04Q26.3965-12.9395 25.2197-14.5312Q24.043-16.123 22.4512-17.2998Q20.8594-18.4766 18.9551-19.126Q17.0508-19.7754 14.9609-19.7754Q12.8711-19.7754 10.9717-19.126Q9.07227-18.4766 7.48535-17.2998Q5.89844-16.123 4.72168-14.5312Q3.54492-12.9395 2.90039-11.04Q2.25586-9.14062 2.25586-7.05078Q2.25586-4.9707 2.90527-3.06641Q3.55469-1.16211 4.72656 0.429688Q5.89844 2.02148 7.49023 3.19336Q9.08203 4.36523 10.9814 5.01465Q12.8809 5.66406 14.9707 5.66406ZM14.9707 3.84766Q13.1641 3.84766 11.5283 3.2959Q9.89258 2.74414 8.53516 1.74805Q7.17773 0.751953 6.17676-0.610352Q5.17578-1.97266 4.62891-3.6084Q4.08203-5.24414 4.08203-7.05078Q4.08203-8.86719 4.62891-10.5029Q5.17578-12.1387 6.17188-13.501Q7.16797-14.8633 8.52539-15.8594Q9.88281-16.8555 11.5186-17.4023Q13.1543-17.9492 14.9609-17.9492Q16.7773-17.9492 18.4131-17.4023Q20.0488-16.8555 21.4111-15.8594Q22.7734-14.8633 23.7695-13.501Q24.7656-12.1387 25.3174-10.5029Q25.8691-8.86719 25.8691-7.05078Q25.8789-5.24414 25.332-3.6084Q24.7852-1.97266 23.7842-0.610352Q22.7832 0.751953 21.4209 1.74805Q20.0586 2.74414 18.4229 3.2959Q16.7871 3.84766 14.9707 3.84766ZM9.19922-7.05078Q9.19922-6.66992 9.45801-6.4209Q9.7168-6.17188 10.1172-6.17188L14.0625-6.17188L14.0625-2.2168Q14.0625-1.81641 14.3115-1.55762Q14.5605-1.29883 14.9512-1.29883Q15.3516-1.29883 15.6104-1.55273Q15.8691-1.80664 15.8691-2.2168L15.8691-6.17188L19.8242-6.17188Q20.2246-6.17188 20.4785-6.4209Q20.7324-6.66992 20.7324-7.05078Q20.7324-7.46094 20.4785-7.71484Q20.2246-7.96875 19.8242-7.96875L15.8691-7.96875L15.8691-11.9141Q15.8691-12.3242 15.6104-12.583Q15.3516-12.8418 14.9512-12.8418Q14.5605-12.8418 14.3115-12.583Q14.0625-12.3242 14.0625-11.9141L14.0625-7.96875L10.1172-7.96875Q9.70703-7.96875 9.45312-7.71484Q9.19922-7.46094 9.19922-7.05078Z"/>
  </g>
  <text style="stroke:none;fill:black;font-family:sans-serif;font-size:13;font-weight:bold;" transform="matrix(1 0 0 1 263 1953)">Design Variations</text>
  <text style="stroke:none;fill:black;font-family:sans-serif;font-size:13;" transform="matrix(1 0 0 1 263 1971)">Symbols are supported in up to nine weights and three scales.</text>
  <text style="stroke:none;fill:black;font-family:sans-serif;font-size:13;" transform="matrix(1 0 0 1 263 1989)">For optimal layout with text and other symbols, vertically align</text>
  <text style="stroke:none;fill:black;font-family:sans-serif;font-size:13;" transform="matrix(1 0 0 1 263 2007)">symbols with the adjacent text.</text>
  <line style="fill:none;stroke:#00AEEF;stroke-width:0.5;opacity:1.0;" x1="776" x2="776" y1="1919" y2="1933"/>
  <g transform="matrix(1 0 0 1 776 1933)">
   <path d="M3.31055 0.15625Q3.70117 0.15625 3.91602-0.00976562Q4.13086-0.175781 4.26758-0.585938L5.52734-4.0332L11.2891-4.0332L12.5488-0.585938Q12.6855-0.175781 12.9004-0.00976562Q13.1152 0.15625 13.4961 0.15625Q13.8867 0.15625 14.1162-0.0585938Q14.3457-0.273438 14.3457-0.644531Q14.3457-0.869141 14.2383-1.17188L9.6582-13.3691Q9.48242-13.8184 9.17969-14.043Q8.87695-14.2676 8.4082-14.2676Q7.5-14.2676 7.17773-13.3789L2.59766-1.16211Q2.49023-0.859375 2.49023-0.634766Q2.49023-0.263672 2.70996-0.0537109Q2.92969 0.15625 3.31055 0.15625ZM6.00586-5.51758L8.37891-12.0898L8.42773-12.0898L10.8008-5.51758Z"/>
  </g>
  <line style="fill:none;stroke:#00AEEF;stroke-width:0.5;opacity:1.0;" x1="793.197" x2="793.197" y1="1919" y2="1933"/>
  <text style="stroke:none;fill:black;font-family:sans-serif;font-size:13;font-weight:bold;" transform="matrix(1 0 0 1 776 1953)">Margins</text>
  <text style="stroke:none;fill:black;font-family:sans-serif;font-size:13;" transform="matrix(1 0 0 1 776 1971)">Leading and trailing margins on the left and right side of each symbol</text>
  <text style="stroke:none;fill:black;font-family:sans-serif;font-size:13;" transform="matrix(1 0 0 1 776 1989)">can be adjusted by modifying the x-location of the margin guidelines.</text>
  <text style="stroke:none;fill:black;font-family:sans-serif;font-size:13;" transform="matrix(1 0 0 1 776 2007)">Modifications are automatically applied proportionally to all</text>
  <text style="stroke:none;fill:black;font-family:sans-serif;font-size:13;" transform="matrix(1 0 0 1 776 2025)">scales and weights.</text>
  <g transform="matrix(1 0 0 1 1289 1933)">
   <path d="M2.8418 1.86523L4.54102 3.57422Q5.18555 4.22852 5.90332 4.17969Q6.62109 4.13086 7.31445 3.35938L18.0078-8.42773L17.041-9.4043L6.42578 2.27539Q6.16211 2.57812 5.89355 2.61719Q5.625 2.65625 5.27344 2.30469L4.10156 1.14258Q3.75 0.791016 3.79395 0.522461Q3.83789 0.253906 4.14062-0.0195312L15.6152-10.8203L14.6387-11.7871L3.04688-0.898438Q2.30469-0.214844 2.25098 0.498047Q2.19727 1.21094 2.8418 1.86523ZM9.25781-16.3281Q8.94531-16.0254 8.90625-15.6348Q8.86719-15.2441 9.04297-14.9512Q9.21875-14.6777 9.55566-14.541Q9.89258-14.4043 10.3809-14.5215Q11.4746-14.7754 12.5977-14.7314Q13.7207-14.6875 14.7949-13.9844L14.209-12.5293Q13.9551-11.9043 14.0674-11.4404Q14.1797-10.9766 14.5801-10.5664L16.875-8.25195Q17.2363-7.88086 17.5781-7.82227Q17.9199-7.76367 18.3398-7.8418L19.4043-8.03711L20.0684-7.36328L20.0293-6.80664Q20-6.43555 20.1221-6.12305Q20.2441-5.81055 20.6055-5.44922L21.3672-4.70703Q21.7285-4.3457 22.1533-4.33105Q22.5781-4.31641 22.9297-4.66797L25.8398-7.58789Q26.1914-7.93945 26.1816-8.35449Q26.1719-8.76953 25.8105-9.13086L25.0391-9.89258Q24.6875-10.2539 24.3799-10.3857Q24.0723-10.5176 23.7109-10.4883L23.1348-10.4395L22.4902-11.0742L22.7344-12.1973Q22.832-12.6172 22.6953-12.9834Q22.5586-13.3496 22.1191-13.7891L19.9219-15.9766Q18.6719-17.2168 17.2607-17.8369Q15.8496-18.457 14.4189-18.4814Q12.9883-18.5059 11.665-17.959Q10.3418-17.4121 9.25781-16.3281ZM10.752-15.957Q11.6602-16.6211 12.7002-16.9043Q13.7402-17.1875 14.8047-17.085Q15.8691-16.9824 16.8701-16.5137Q17.8711-16.0449 18.7012-15.2051L21.1328-12.793Q21.3086-12.6172 21.3525-12.4512Q21.3965-12.2852 21.3379-12.0312L21.0156-10.5469L22.5195-9.0625L23.5059-9.12109Q23.6914-9.13086 23.7891-9.09668Q23.8867-9.0625 24.0332-8.91602L24.6094-8.33984L22.168-5.89844L21.5918-6.47461Q21.4453-6.62109 21.4062-6.71875Q21.3672-6.81641 21.377-7.01172L21.4453-7.98828L19.9512-9.47266L18.4277-9.21875Q18.1836-9.16992 18.042-9.2041Q17.9004-9.23828 17.7148-9.41406L15.7129-11.416Q15.5176-11.5918 15.4932-11.7529Q15.4688-11.9141 15.5859-12.1875L16.4648-14.2773Q15.293-15.3711 13.8281-15.791Q12.3633-16.2109 10.8398-15.7617Q10.7227-15.7324 10.6885-15.8057Q10.6543-15.8789 10.752-15.957Z"/>
  </g>
  <text style="stroke:none;fill:black;font-family:sans-serif;font-size:13;font-weight:bold;" transform="matrix(1 0 0 1 1289 1953)">Exporting</text>
  <text style="stroke:none;fill:black;font-family:sans-serif;font-size:13;" transform="matrix(1 0 0 1 1289 1971)">Symbols should be outlined when exporting to ensure the</text>
  <text style="stroke:none;fill:black;font-family:sans-serif;font-size:13;" transform="matrix(1 0 0 1 1289 1989)">design is preserved when submitting to Xcode.</text>
  <text id="template-version" style="stroke:none;fill:black;font-family:sans-serif;font-size:13;text-anchor:end;" transform="matrix(1 0 0 1 3036 1933)">Template v.2.0</text>
  <text style="stroke:none;fill:black;font-family:sans-serif;font-size:13;text-anchor:end;" transform="matrix(1 0 0 1 3036 1951)">Requires Xcode 12 or greater</text>
  <text id="descriptive-name" style="stroke:none;fill:black;font-family:sans-serif;font-size:13;text-anchor:end;" transform="matrix(1 0 0 1 3036 1969)">Generated from doc</text>
  <text style="stroke:none;fill:black;font-family:sans-serif;font-size:13;text-anchor:end;" transform="matrix(1 0 0 1 3036 1987)">Typeset at 100 points</text>
  <text style="stroke:none;fill:black;font-family:sans-serif;font-size:13;" transform="matrix(1 0 0 1 263 726)">Small</text>
  <text style="stroke:none;fill:black;font-family:sans-serif;font-size:13;" transform="matrix(1 0 0 1 263 1156)">Medium</text>
  <text style="stroke:none;fill:black;font-family:sans-serif;font-size:13;" transform="matrix(1 0 0 1 263 1586)">Large</text>
 </g>
 <g id="Guides">
  <g id="H-reference" style="fill:#27AAE1;stroke:none;" transform="matrix(1 0 0 1 339 696)">
   <path d="M0.976562 0L3.66211 0L29.3457-67.1387L30.0293-67.1387L30.0293-70.459L28.125-70.459ZM11.6699-24.4629L46.9727-24.4629L46.2402-26.709L12.4512-26.709ZM55.127 0L57.7637 0L30.6152-70.459L29.4434-70.459L29.4434-67.1387Z"/>
  </g>
  <line id="Baseline-S" style="fill:none;stroke:#27AAE1;opacity:1;stroke-width:0.5;" x1="263" x2="3036" y1="696" y2="696"/>
  <line id="Capline-S" style="fill:none;stroke:#27AAE1;opacity:1;stroke-width:0.5;" x1="263" x2="3036" y1="625.541" y2="625.541"/>
  <g id="H-reference" style="fill:#27AAE1;stroke:none;" transform="matrix(1 0 0 1 339 1126)">
   <path d="M0.976562 0L3.66211 0L29.3457-67.1387L30.0293-67.1387L30.0293-70.459L28.125-70.459ZM11.6699-24.4629L46.9727-24.4629L46.2402-26.709L12.4512-26.709ZM55.127 0L57.7637 0L30.6152-70.459L29.4434-70.459L29.4434-67.1387Z"/>
  </g>
  <line id="Baseline-M" style="fill:none;stroke:#27AAE1;opacity:1;stroke-width:0.5;" x1="263" x2="3036" y1="1126" y2="1126"/>
  <line id="Capline-M" style="fill:none;stroke:#27AAE1;opacity:1;stroke-width:0.5;" x1="263" x2="3036" y1="1055.54" y2="1055.54"/>
  <g id="H-reference" style="fill:#27AAE1;stroke:none;" transform="matrix(1 0 0 1 339 1556)">
   <path d="M0.976562 0L3.66211 0L29.3457-67.1387L30.0293-67.1387L30.0293-70.459L28.125-70.459ZM11.6699-24.4629L46.9727-24.4629L46.2402-26.709L12.4512-26.709ZM55.127 0L57.7637 0L30.6152-70.459L29.4434-70.459L29.4434-67.1387Z"/>
  </g>
  <line id="Baseline-L" style="fill:none;stroke:#27AAE1;opacity:1;stroke-width:0.5;" x1="263" x2="3036" y1="1556" y2="1556"/>
  <line id="Capline-L" style="fill:none;stroke:#27AAE1;opacity:1;stroke-width:0.5;" x1="263" x2="3036" y1="1485.54" y2="1485.54"/>
  <line id="left-margin" style="fill:none;stroke:#00AEEF;stroke-width:0.5;opacity:1.0;" x1="1396.32" x2="1396.32" y1="1030.79" y2="1150.12"/>
  <line id="right-margin" style="fill:none;stroke:#00AEEF;stroke-width:0.5;opacity:1.0;" x1="1503.37" x2="1503.37" y1="1030.79" y2="1150.12"/>
 </g>
 <g id="Symbols">
  <g id="Black-L" transform="matrix(1 0 0 1 2859.72 1556)">
   <path d="M39.773 35.1917L107.573 35.1917Q118.9 35.1917 125.091 28.9791Q131.282 22.7665 131.282 11.4198L131.282-45.4951Q131.282-53.6942 129.499-58.8065Q127.716-63.9189 122.48-69.1964L95.0576-96.8065Q89.8617-102.022 84.739-103.815Q79.6163-105.609 71.6465-105.609L39.773-105.609Q28.447-105.609 22.2655-99.3972Q16.084-93.1852 16.084-81.8385L16.084 11.4198Q16.084 22.7872 22.2655 28.9895Q28.447 35.1917 39.773 35.1917ZM42.6074 15.2112Q39.1827 15.2112 37.6236 13.5535Q36.0645 11.8957 36.0645 8.68904L36.0645-79.1078Q36.0645-82.369 37.6236-83.9988Q39.1827-85.6287 42.6281-85.6287L65.3692-85.6287L65.3692-58.1803Q65.3692-48.6067 69.9315-44.0476Q74.4937-39.4886 84.0609-39.4886L111.281-39.4886L111.281 8.68904Q111.281 11.8957 109.751 13.5535Q108.221 15.2112 104.738 15.2112ZM85.3516-55.1941Q81.0539-55.1941 81.0539-59.4905L81.0539-84.7032L110.356-55.1941Z"/>
  </g>
  <g id="Heavy-L" transform="matrix(1 0 0 1 2564.15 1556)">
   <path d="M38.7137 34.4864L106.332 34.4864Q117.251 34.4864 123.122 28.5834Q128.992 22.6804 128.992 11.7376L128.992-45.378Q128.992-53.0102 127.372-57.6849Q125.753-62.3596 120.916-67.256L91.6093-96.8368Q86.8258-101.644 82.1363-103.278Q77.4467-104.912 70.1479-104.912L38.7137-104.912Q27.8007-104.912 21.9423-99.0124Q16.084-93.1125 16.084-82.1697L16.084 11.7376Q16.084 22.7102 21.9423 28.5983Q27.8007 34.4864 38.7137 34.4864ZM40.9868 16.9885Q37.1862 16.9885 35.384 15.1015Q33.5818 13.2145 33.5818 9.61337L33.5818-80.0454Q33.5818-83.673 35.384-85.5438Q37.1862-87.4146 41.0165-87.4146L65.0949-87.4146L65.0949-57.7154Q65.0949-49.0319 69.267-44.8749Q73.4391-40.7179 82.0924-40.7179L111.464-40.7179L111.464 9.61337Q111.464 13.2145 109.684 15.1015Q107.904 16.9885 104.059 16.9885ZM83.3304-54.8243Q79.1716-54.8243 79.1716-58.9771L79.1716-86.2708L110.32-54.8243Z"/>
  </g>
  <g id="Bold-L" transform="matrix(1 0 0 1 2268.83 1556)">
   <path d="M37.3964 33.6543L104.861 33.6543Q115.252 33.6543 120.731 28.1307Q126.211 22.6072 126.211 12.1939L126.211-45.3765Q126.211-52.2566 124.791-56.3769Q123.37-60.4972 119.055-64.8868L87.3662-96.9226Q83.1104-101.201 78.9716-102.64Q74.8327-104.078 68.3738-104.078L37.3964-104.078Q27.0201-104.078 21.552-98.5619Q16.084-93.0455 16.084-82.6322L16.084 12.1939Q16.084 22.6442 21.552 28.1492Q27.0201 33.6543 37.3964 33.6543ZM39.0271 19.2185Q34.737 19.2185 32.6284 17.0404Q30.5198 14.8624 30.5198 10.7481L30.5198-81.1864Q30.5198-85.2872 32.6284-87.4649Q34.737-89.6426 39.0641-89.6426L64.814-89.6426L64.814-57.2643Q64.814-49.64 68.5136-45.9759Q72.2132-42.3118 79.7665-42.3118L111.738-42.3118L111.738 10.7481Q111.738 14.8624 109.644 17.0404Q107.55 19.2185 103.23 19.2185ZM80.9053-54.3704Q76.8356-54.3704 76.8356-58.4259L76.8356-88.2979L110.393-54.3704Z"/>
  </g>
  <g id="Semibold-L" transform="matrix(1 0 0 1 1973.08 1556)">
   <path d="M36.4882 33.0806L103.847 33.0806Q113.873 33.0806 119.083 27.8186Q124.293 22.5567 124.293 12.5084L124.293-45.3755Q124.293-51.7371 123.011-55.4752Q121.728-59.2134 117.772-63.2535L84.4411-96.9817Q80.5489-100.896 76.7898-102.2Q73.0307-103.503 67.1507-103.503L36.4882-103.503Q26.482-103.503 21.283-98.2513Q16.084-92.9993 16.084-82.9511L16.084 12.5084Q16.084 22.5987 21.283 27.8396Q26.482 33.0806 36.4882 33.0806ZM37.6761 20.7558Q33.0486 20.7558 30.7287 18.3771Q28.4088 15.9984 28.4088 11.5304L28.4088-81.973Q28.4088-86.4 30.7287-88.7893Q33.0486-91.1786 37.7181-91.1786L64.6203-91.1786L64.6203-56.9534Q64.6203-50.0592 67.9942-46.7349Q71.3682-43.4106 78.163-43.4106L111.927-43.4106L111.927 11.5304Q111.927 15.9984 109.616 18.3771Q107.305 20.7558 102.659 20.7558ZM79.2334-54.0575Q75.2252-54.0575 75.2252-58.0458L75.2252-89.6954L110.443-54.0575Z"/>
  </g>
  <g id="Medium-L" transform="matrix(1 0 0 1 1677.09 1556)">
   <path d="M35.7996 32.6456L103.078 32.6456Q112.828 32.6456 117.834 27.582Q122.839 22.5184 122.839 12.747L122.839-45.3747Q122.839-51.3431 121.661-54.7915Q120.482-58.2399 116.799-62.015L82.2231-97.0265Q78.6068-100.664 75.1355-101.866Q71.6643-103.067 66.2233-103.067L35.7996-103.067Q26.0739-103.067 21.079-98.0158Q16.084-92.9643 16.084-83.1929L16.084 12.747Q16.084 22.5641 21.079 27.6049Q26.0739 32.6456 35.7996 32.6456ZM36.6518 21.9214Q31.7683 21.9214 29.2882 19.3906Q26.8081 16.8598 26.8081 12.1235L26.8081-82.5695Q26.8081-87.2438 29.2882-89.7935Q31.7683-92.3432 36.6975-92.3432L64.4734-92.3432L64.4734-56.7176Q64.4734-50.377 67.6004-47.3104Q70.7274-44.2438 76.9472-44.2438L112.07-44.2438L112.07 12.1235Q112.07 16.8598 109.595 19.3906Q107.12 21.9214 102.226 21.9214ZM77.9657-53.8203Q74.0041-53.8203 74.0041-57.7577L74.0041-90.755L110.481-53.8203Z"/>
  </g>
  <g id="Regular-L" transform="matrix(1 0 0 1 1381.33 1556)">
   <path d="M34.9014 32.0782L102.075 32.0782Q111.465 32.0782 116.204 27.2733Q120.943 22.4685 120.943 13.0581L120.943-45.3737Q120.943-50.8293 119.9-53.8997Q118.858-56.9701 115.53-60.3997L79.3301-97.085Q76.0735-100.363 72.9777-101.431Q69.882-102.499 65.0136-102.499L34.9014-102.499Q25.5417-102.499 20.8128-97.7087Q16.084-92.9186 16.084-83.5083L16.084 13.0581Q16.084 22.5191 20.8128 27.2987Q25.5417 32.0782 34.9014 32.0782ZM35.3157 23.4419Q30.0984 23.4419 27.4094 20.7126Q24.7203 17.9834 24.7203 12.8972L24.7203-83.3474Q24.7203-88.3443 27.4094-91.1033Q30.0984-93.8623 35.3663-93.8623L64.2819-93.8623L64.2819-56.4101Q64.2819-50.7916 67.0868-48.0611Q69.8916-45.3306 75.3614-45.3306L112.256-45.3306L112.256 12.8972Q112.256 17.9834 109.567 20.7126Q106.878 23.4419 101.661 23.4419ZM76.3122-53.5108Q72.4114-53.5108 72.4114-57.3818L72.4114-92.1371L110.531-53.5108Z"/>
  </g>
  <g id="Light-L" transform="matrix(1 0 0 1 1085.4 1556)">
   <path d="M33.9574 31.7704L101.48 31.7704Q110.356 31.7704 114.87 27.2015Q119.384 22.6326 119.384 13.7763L119.384-46.2972Q119.384-50.9114 118.454-53.52Q117.524-56.1287 114.729-58.9837L76.5801-97.4544Q73.7955-100.219 71.1718-101.164Q68.5481-102.109 64.3159-102.109L33.9574-102.109Q25.1313-102.109 20.6076-97.565Q16.084-93.0212 16.084-84.165L16.084 13.7763Q16.084 22.6628 20.6076 27.2166Q25.1313 31.7704 33.9574 31.7704ZM34.269 25.1657Q28.5593 25.1657 25.624 22.1902Q22.6887 19.2147 22.6887 13.6155L22.6887-84.0041Q22.6887-89.4525 25.624-92.4783Q28.5593-95.5041 34.2992-95.5041L64.4666-95.5041L64.4666-56.9026Q64.4666-51.7356 67.0149-49.3129Q69.5633-46.8902 74.479-46.8902L112.749-46.8902L112.749 13.6155Q112.749 19.2147 109.813 22.1902Q106.878 25.1657 101.168 25.1657ZM75.1425-53.2235Q70.7697-53.2235 70.7697-57.546L70.7697-94.0866L111.331-53.2235Z"/>
  </g>
  <g id="Thin-L" transform="matrix(1 0 0 1 789.72 1556)">
   <path d="M32.7089 31.3633L100.693 31.3633Q108.891 31.3633 113.106 27.1065Q117.321 22.8498 117.321 14.7263L117.321-47.5186Q117.321-51.0199 116.54-53.0179Q115.76-55.0159 113.671-57.1109L72.9431-97.9429Q70.7828-100.029 68.7833-100.811Q66.7838-101.593 63.3931-101.593L32.7089-101.593Q24.5884-101.593 20.3362-97.375Q16.084-93.157 16.084-85.0335L16.084 14.7263Q16.084 22.8528 20.3362 27.108Q24.5884 31.3633 32.7089 31.3633ZM32.8848 27.4456Q26.5236 27.4456 23.2626 24.1444Q20.0016 20.8432 20.0016 14.5655L20.0016-84.8727Q20.0016-90.9182 23.2626-94.2968Q26.5236-97.6754 32.8878-97.6754L64.7109-97.6754L64.7109-57.554Q64.7109-52.9841 66.9199-50.9686Q69.129-48.953 73.3119-48.953L113.4-48.953L113.4 14.5655Q113.4 20.8432 110.139 24.1444Q106.878 27.4456 100.517 27.4456ZM73.5954-52.8435Q68.5983-52.8435 68.5983-57.7631L68.5983-96.6651L112.39-52.8435Z"/>
  </g>
  <g id="Ultralight-L" transform="matrix(1 0 0 1 493.537 1556)">
   <path d="M32.0694 31.1547L100.29 31.1547Q108.14 31.1547 112.202 27.0579Q116.264 22.961 116.264 15.2129L116.264-48.1442Q116.264-51.0755 115.56-52.7607Q114.856-54.4459 113.128-56.1516L71.0802-98.1932Q69.2397-99.9315 67.5599-100.63Q65.8802-101.329 62.9204-101.329L32.0694-101.329Q24.3104-101.329 20.1972-97.2777Q16.084-93.2265 16.084-85.4784L16.084 15.2129Q16.084 22.9501 20.1972 27.0524Q24.3104 31.1547 32.0694 31.1547ZM32.1758 28.6134Q25.481 28.6134 22.0531 25.1454Q18.6253 21.6773 18.6253 15.052L18.6253-85.3175Q18.6253-91.6689 22.0531-95.2282Q25.481-98.7876 32.1649-98.7876L64.836-98.7876L64.836-57.8877Q64.836-53.6236 66.8713-51.8166Q68.9066-50.0096 72.7141-50.0096L113.734-50.0096L113.734 15.052Q113.734 21.6773 110.306 25.1454Q106.878 28.6134 100.183 28.6134ZM72.803-52.6489Q67.4862-52.6489 67.4862-57.8744L67.4862-97.9858L112.932-52.6489Z"/>
  </g>
  <g id="Black-M" transform="matrix(1 0 0 1 2875.44 1126)">
   <path d="M31.5963 19.8932L84.3265 19.8932Q93.3836 19.8932 98.4255 14.8459Q103.467 9.79864 103.467 0.735799L103.467-43.4085Q103.467-50.1338 101.96-54.4082Q100.453-58.6825 96.1256-63.0209L76.2361-82.9597Q71.92-87.2816 67.643-88.7916Q63.3659-90.3015 56.7008-90.3015L31.5963-90.3015Q22.539-90.3015 17.5-85.2541Q12.4609-80.2066 12.4609-71.1438L12.4609 0.735799Q12.4609 9.80415 17.5 14.8487Q22.539 19.8932 31.5963 19.8932ZM34.2607 2.55513Q31.8638 2.55513 30.8314 1.4345Q29.799 0.313867 29.799-1.90105L29.799-68.507Q29.799-70.7799 30.8314-71.8717Q31.8638-72.9634 34.2662-72.9634L50.905-72.9634L50.905-53.4768Q50.905-45.3558 54.7402-41.5199Q58.5753-37.684 66.6978-37.684L86.1238-37.684L86.1238-1.90105Q86.1238 0.313867 85.12 1.4345Q84.1161 2.55513 81.6621 2.55513ZM67.7041-50.9757Q64.1912-50.9757 64.1912-54.4889L64.1912-72.4757L85.636-50.9757Z"/>
  </g>
  <g id="Heavy-M" transform="matrix(1 0 0 1 2579.77 1126)">
   <path d="M30.6479 19.2321L83.1688 19.2321Q91.8741 19.2321 96.6231 14.4657Q101.372 9.69936 101.372 0.980247L101.372-43.2088Q101.372-49.4576 100.015-53.3467Q98.6573-57.2358 94.6709-61.2547L73.1188-82.9553Q69.1625-86.9255 65.2653-88.2909Q61.3681-89.6564 55.3003-89.6564L30.6479-89.6564Q21.945-89.6564 17.203-84.8912Q12.4609-80.1261 12.4609-71.407L12.4609 0.980247Q12.4609 9.7156 17.203 14.4739Q21.945 19.2321 30.6479 19.2321ZM32.773 4.13355Q30.0541 4.13355 28.8068 2.81149Q27.5595 1.48943 27.5595-1.06371L27.5595-69.363Q27.5595-71.9524 28.8068-73.2551Q30.0541-74.5578 32.7893-74.5578L50.6198-74.5578L50.6198-52.9768Q50.6198-45.6844 54.0972-42.2131Q57.5746-38.7419 64.8548-38.7419L86.2572-38.7419L86.2572-1.06371Q86.2572 1.48943 85.0317 2.81149Q83.8062 4.13355 81.0437 4.13355ZM65.8361-50.6408Q62.5025-50.6408 62.5025-53.9719L62.5025-73.8283L85.5277-50.6408Z"/>
  </g>
  <g id="Bold-M" transform="matrix(1 0 0 1 2284.23 1126)">
   <path d="M29.5869 18.4926L81.8738 18.4926Q90.1857 18.4926 94.6068 14.0405Q99.028 9.5883 99.028 1.2537L99.028-42.9854Q99.028-48.7012 97.8383-52.1593Q96.6486-55.6174 93.0436-59.2789L69.6317-82.9504Q66.0777-86.5271 62.6055-87.7309Q59.1333-88.9347 53.7336-88.9347L29.5869-88.9347Q21.2805-88.9347 16.8707-84.4853Q12.4609-80.0359 12.4609-71.7013L12.4609 1.2537Q12.4609 9.61654 16.8707 14.0546Q21.2805 18.4926 29.5869 18.4926ZM31.1088 5.89923Q28.0297 5.89923 26.542 4.35185Q25.0543 2.80447 25.0543-0.127031L25.0543-70.3206Q25.0543-73.2641 26.542-74.8027Q28.0297-76.3413 31.1371-76.3413L50.3008-76.3413L50.3008-52.4175Q50.3008-46.052 53.378-42.9886Q56.4552-39.9252 62.7932-39.9252L86.4064-39.9252L86.4064-0.127031Q86.4064 2.80447 84.9329 4.35185Q83.4595 5.89923 80.3519 5.89923ZM63.7465-50.2661Q60.6135-50.2661 60.6135-53.3936L60.6135-75.3414L85.4064-50.2661Z"/>
  </g>
  <g id="Semibold-M" transform="matrix(1 0 0 1 1988.33 1126)">
   <path d="M28.8555 17.9828L80.981 17.9828Q89.0216 17.9828 93.2168 13.7473Q97.412 9.51174 97.412 1.44221L97.412-42.8314Q97.412-48.1797 96.3379-51.3407Q95.2638-54.5017 91.9218-57.9167L67.2278-82.947Q63.9511-86.2525 60.7719-87.3448Q57.5926-88.4372 52.6536-88.4372L28.8555-88.4372Q20.8225-88.4372 16.6417-84.2055Q12.4609-79.9738 12.4609-71.9043L12.4609 1.44221Q12.4609 9.54825 16.6417 13.7655Q20.8225 17.9828 28.8555 17.9828ZM29.9615 7.11649Q26.6341 7.11649 24.9807 5.41377Q23.3273 3.71105 23.3273 0.518712L23.3273-70.9808Q23.3273-74.1683 24.9807-75.8696Q26.6341-77.5709 29.998-77.5709L50.0809-77.5709L50.0809-52.032Q50.0809-46.3054 52.8822-43.5232Q55.6835-40.741 61.3719-40.741L86.5092-40.741L86.5092 0.518712Q86.5092 3.71105 84.8649 5.41377Q83.2205 7.11649 79.8749 7.11649ZM62.3059-50.0078Q59.3112-50.0078 59.3112-52.9949L59.3112-76.3846L85.3229-50.0078Z"/>
  </g>
  <g id="Medium-M" transform="matrix(1 0 0 1 1692.23 1126)">
   <path d="M28.3009 17.5962L80.304 17.5962Q88.139 17.5962 92.1629 13.525Q96.1867 9.45369 96.1867 1.58515L96.1867-42.7147Q96.1867-47.7843 95.2003-50.72Q94.2138-53.6558 91.0712-56.8839L65.405-82.9444Q62.3386-86.0442 59.3815-87.0521Q56.4244-88.06 51.8346-88.06L28.3009-88.06Q20.4752-88.06 16.468-83.9933Q12.4609-79.9267 12.4609-72.0581L12.4609 1.58515Q12.4609 9.49647 16.468 13.5464Q20.4752 17.5962 28.3009 17.5962ZM29.0916 8.03946Q25.5759 8.03946 23.7968 6.21896Q22.0177 4.39846 22.0177 1.00834L22.0177-71.4813Q22.0177-74.854 23.7968-76.6786Q25.5759-78.5032 29.1344-78.5032L49.9141-78.5032L49.9141-51.7396Q49.9141-46.4975 52.5062-43.9286Q55.0983-41.3596 60.2942-41.3596L86.5872-41.3596L86.5872 1.00834Q86.5872 4.39846 84.8132 6.21896Q83.0393 8.03946 79.5133 8.03946ZM61.2136-49.812Q58.3237-49.812 58.3237-52.6926L58.3237-77.1755L85.2595-49.812Z"/>
  </g>
  <g id="Regular-M" transform="matrix(1 0 0 1 1396.32 1126)">
   <path d="M27.5775 17.092L79.421 17.092Q86.9877 17.092 90.7881 13.235Q94.5885 9.37797 94.5885 1.7716L94.5885-42.5624Q94.5885-47.2685 93.7164-49.9104Q92.8442-52.5523 89.9616-55.5368L63.0274-82.941Q60.2354-85.7726 57.568-86.6703Q54.9006-87.5679 50.7664-87.5679L27.5775-87.5679Q20.0221-87.5679 16.2415-83.7166Q12.4609-79.8652 12.4609-72.2589L12.4609 1.7716Q12.4609 9.42893 16.2415 13.2605Q20.0221 17.092 27.5775 17.092ZM27.9569 9.24334Q24.1956 9.24334 22.2526 7.2692Q20.3096 5.29507 20.3096 1.64699L20.3096-72.1342Q20.3096-75.7483 22.2526-77.7338Q24.1956-79.7192 28.0079-79.7192L49.6966-79.7192L49.6966-51.3583Q49.6966-46.7482 52.0159-44.4573Q54.3351-42.1664 58.8885-42.1664L86.6889-42.1664L86.6889 1.64699Q86.6889 5.29507 84.7459 7.2692Q82.8029 9.24334 79.0416 9.24334ZM59.7889-49.5565Q57.0357-49.5565 57.0357-52.2983L57.0357-78.2072L85.1768-49.5565Z"/>
  </g>
  <g id="Light-M" transform="matrix(1 0 0 1 1100.31 1126)">
   <path d="M26.7312 16.816L78.8874 16.816Q85.9942 16.816 89.5922 13.1706Q93.1902 9.52516 93.1902 2.41556L93.1902-43.3903Q93.1902-47.3421 92.4192-49.57Q91.6483-51.798 89.2441-54.2673L60.5619-83.2722Q58.1931-85.6438 55.9489-86.4311Q53.7047-87.2184 50.1408-87.2184L26.7312-87.2184Q19.6541-87.2184 16.0575-83.5878Q12.4609-79.9572 12.4609-72.8476L12.4609 2.41556Q12.4609 9.55772 16.0575 13.1869Q19.6541 16.816 26.7312 16.816ZM27.0186 10.7889Q22.8157 10.7889 20.6519 8.59393Q18.4881 6.39901 18.4881 2.29095L18.4881-72.723Q18.4881-76.7418 20.6519-78.9665Q22.8157-81.1912 27.0511-81.1912L49.8622-81.1912L49.8622-51.7999Q49.8622-47.5945 51.9515-45.5796Q54.0407-43.5648 58.0974-43.5648L87.1305-43.5648L87.1305 2.29095Q87.1305 6.39901 84.9667 8.59393Q82.8029 10.7889 78.6 10.7889ZM58.7401-49.2989Q55.5638-49.2989 55.5638-52.4455L55.5638-79.9551L85.8944-49.2989Z"/>
  </g>
  <g id="Thin-M" transform="matrix(1 0 0 1 804.521 1126)">
   <path d="M25.6118 16.451L78.1817 16.451Q84.6802 16.451 88.0105 13.0854Q91.3408 9.71983 91.3408 3.26726L91.3408-44.4854Q91.3408-47.4395 90.7037-49.1199Q90.0665-50.8003 88.295-52.5882L57.3011-83.7102Q55.492-85.4735 53.8075-86.1148Q52.123-86.756 49.3135-86.756L25.6118-86.756Q19.1675-86.756 15.8142-83.4174Q12.4609-80.0789 12.4609-73.6263L12.4609 3.26726Q12.4609 9.72806 15.8142 13.0895Q19.1675 16.451 25.6118 16.451ZM25.7775 12.8329Q20.9906 12.8329 18.5348 10.346Q16.079 7.85906 16.079 3.14265L16.079-73.5017Q16.079-78.0559 18.5348-80.5969Q20.9906-83.1379 25.7858-83.1379L50.0812-83.1379L50.0812-52.3839Q50.0812-48.7139 51.8663-47.064Q53.6513-45.4142 57.051-45.4142L87.7145-45.4142L87.7145 3.14265Q87.7145 7.85906 85.2587 10.346Q82.8029 12.8329 78.016 12.8329ZM57.3531-48.9582Q53.6171-48.9582 53.6171-52.6401L53.6171-82.2668L86.8434-48.9582Z"/>
  </g>
  <g id="Ultralight-M" transform="matrix(1 0 0 1 508.284 1126)">
   <path d="M25.0385 16.2641L77.8203 16.2641Q84.0071 16.2641 87.2003 13.0418Q90.3936 9.81955 90.3936 3.70349L90.3936-45.0463Q90.3936-47.4893 89.825-48.8893Q89.2564-50.2892 87.809-51.7282L55.631-83.9346Q54.1085-85.3863 52.7107-85.9527Q51.3128-86.5192 48.8897-86.5192L25.0385-86.5192Q18.9182-86.5192 15.6896-83.3302Q12.4609-80.1412 12.4609-74.0252L12.4609 3.70349Q12.4609 9.81531 15.6896 13.0397Q18.9182 16.2641 25.0385 16.2641ZM25.1419 13.8799Q20.0558 13.8799 17.4505 11.2434Q14.8451 8.60689 14.8451 3.57888L14.8451-73.9005Q14.8451-78.7289 17.4505-81.432Q20.0558-84.135 25.1377-84.135L50.1934-84.135L50.1934-52.6831Q50.1934-49.2872 51.8227-47.8243Q53.4519-46.3614 56.515-46.3614L88.0136-46.3614L88.0136 3.57888Q88.0136 8.60689 85.4083 11.2434Q82.8029 13.8799 77.7169 13.8799ZM56.6426-48.7837Q52.62-48.7837 52.62-52.7399L52.62-83.4509L87.3295-48.7837Z"/>
  </g>
  <g id="Black-S" transform="matrix(1 0 0 1 2887.7 696)">
   <path d="M25 8.1543L66.4062 8.1543Q73.584 8.1543 77.6123 4.12598Q81.6406 0.0976562 81.6406-7.08008L81.6406-41.748Q81.6406-47.1191 80.4199-50.5615Q79.1992-54.0039 75.7324-57.4707L60.5469-72.6562Q57.0801-76.123 53.6377-77.3438Q50.1953-78.5645 44.8242-78.5645L25-78.5645Q17.8223-78.5645 13.7939-74.5361Q9.76562-70.5078 9.76562-63.3301L9.76562-7.08008Q9.76562 0.0976562 13.7939 4.12598Q17.8223 8.1543 25 8.1543ZM27.2461-6.00586Q25.4395-6.00586 24.6826-6.83594Q23.9258-7.66602 23.9258-9.32617L23.9258-61.084Q23.9258-62.793 24.6826-63.5986Q25.4395-64.4043 27.2461-64.4043L39.9902-64.4043L39.9902-49.707Q39.9902-43.1152 43.0908-40.0146Q46.1914-36.9141 52.7832-36.9141L67.4805-36.9141L67.4805-9.32617Q67.4805-7.66602 66.748-6.83594Q66.0156-6.00586 64.1602-6.00586ZM53.5645-47.6562Q50.7324-47.6562 50.7324-50.4883L50.7324-64.1113L67.1875-47.6562Z"/>
  </g>
  <g id="Heavy-S" transform="matrix(1 0 0 1 2591.79 696)">
   <path d="M24.297 7.62417L65.4843 7.62417Q72.42 7.62417 76.2236 3.80905Q80.0272-0.00606394 80.0272-6.95331L80.0272-41.4715Q80.0272-46.5314 78.9217-49.6972Q77.8163-52.863 74.58-56.1223L58.1959-72.6102Q54.9826-75.8349 51.8111-76.9462Q48.6395-78.0574 43.7063-78.0574L24.297-78.0574Q17.3613-78.0574 13.5635-74.2423Q9.76562-70.4271 9.76562-63.4799L9.76562-6.95331Q9.76562 0.00546053 13.5635 3.81482Q17.3613 7.62417 24.297 7.62417ZM26.0936-4.85341Q24.068-4.85341 23.1556-5.82755Q22.2432-6.80168 22.2432-8.69233L22.2432-61.7409Q22.2432-63.6688 23.1556-64.6243Q24.068-65.5798 26.1052-65.5798L39.7252-65.5798L39.7252-49.223Q39.7252-43.2881 42.5492-40.4641Q45.3732-37.6401 51.3081-37.6401L67.5381-37.6401L67.5381-8.69233Q67.5381-6.80168 66.6443-5.82755Q65.7506-4.85341 63.6877-4.85341ZM52.1008-47.4027Q49.4763-47.4027 49.4763-50.0273L49.4763-65.0448L67.0031-47.4027Z"/>
  </g>
  <g id="Bold-S" transform="matrix(1 0 0 1 2295.98 696)">
   <path d="M23.5107 7.03125L64.4531 7.03125Q71.1182 7.03125 74.6704 3.45459Q78.2227-0.12207 78.2227-6.81152L78.2227-41.1621Q78.2227-45.874 77.2461-48.7305Q76.2695-51.5869 73.291-54.6143L55.5664-72.5586Q52.6367-75.5127 49.7681-76.5015Q46.8994-77.4902 42.4561-77.4902L23.5107-77.4902Q16.8457-77.4902 13.3057-73.9136Q9.76562-70.3369 9.76562-63.6475L9.76562-6.81152Q9.76562-0.0976562 13.3057 3.4668Q16.8457 7.03125 23.5107 7.03125ZM24.8047-3.56445Q22.5342-3.56445 21.4478-4.69971Q20.3613-5.83496 20.3613-7.9834L20.3613-62.4756Q20.3613-64.6484 21.4478-65.7715Q22.5342-66.8945 24.8291-66.8945L39.4287-66.8945L39.4287-48.6816Q39.4287-43.4814 41.9434-40.9668Q44.458-38.4521 49.6582-38.4521L67.6025-38.4521L67.6025-7.9834Q67.6025-5.83496 66.5283-4.69971Q65.4541-3.56445 63.1592-3.56445ZM50.4639-47.1191Q48.0713-47.1191 48.0713-49.5117L48.0713-66.0889L66.7969-47.1191Z"/>
  </g>
  <g id="Semibold-S" transform="matrix(1 0 0 1 1999.89 696)">
   <path d="M22.9687 6.62246L63.7422 6.62246Q70.2206 6.62246 73.5996 3.21021Q76.9785-0.202051 76.9785-6.71377L76.9785-40.9488Q76.9785-45.4208 76.0908-48.064Q75.2031-50.7071 72.4023-53.5745L53.7535-72.523Q51.0193-75.2905 48.3595-76.1949Q45.6997-77.0992 41.594-77.0992L22.9687-77.0992Q16.4902-77.0992 13.1279-73.687Q9.76562-70.2747 9.76562-63.763L9.76562-6.71377Q9.76562-0.16875 13.1279 3.22686Q16.4902 6.62246 22.9687 6.62246ZM23.916-2.67578Q21.4767-2.67578 20.2703-3.92212Q19.0639-5.16846 19.0639-7.49463L19.0639-62.9821Q19.0639-65.3238 20.2703-66.5624Q21.4767-67.801 23.9493-67.801L39.2243-67.801L39.2243-48.3084Q39.2243-43.6147 41.5257-41.3134Q43.8271-39.012 48.5207-39.012L67.647-39.012L67.647-7.49463Q67.647-5.16846 66.4483-3.92212Q65.2497-2.67578 62.7948-2.67578ZM49.3353-46.9236Q47.1026-46.9236 47.1026-49.1562L47.1026-66.8087L66.6547-46.9236Z"/>
  </g>
  <g id="Medium-S" transform="matrix(1 0 0 1 1703.66 696)">
   <path d="M22.5576 6.3125L63.2031 6.3125Q69.54 6.3125 72.7876 3.0249Q76.0352-0.262695 76.0352-6.63965L76.0352-40.7871Q76.0352-45.0771 75.2148-47.5586Q74.3945-50.04 71.7285-52.7861L52.3789-72.4961Q49.793-75.1221 47.2915-75.9624Q44.79-76.8027 40.9404-76.8027L22.5576-76.8027Q16.2207-76.8027 12.9932-73.5151Q9.76562-70.2275 9.76562-63.8506L9.76562-6.63965Q9.76562-0.222656 12.9932 3.04492Q16.2207 6.3125 22.5576 6.3125ZM23.2422-2.00195Q20.6748-2.00195 19.3774-3.33252Q18.0801-4.66309 18.0801-7.12402L18.0801-63.3662Q18.0801-65.8359 19.3774-67.1621Q20.6748-68.4883 23.2822-68.4883L39.0693-68.4883L39.0693-48.0254Q39.0693-43.7158 41.209-41.5762Q43.3486-39.4365 47.6582-39.4365L67.6807-39.4365L67.6807-7.12402Q67.6807-4.66309 66.3877-3.33252Q65.0947-2.00195 62.5186-2.00195ZM48.4795-46.7754Q46.3682-46.7754 46.3682-48.8867L46.3682-67.3545L66.5469-46.7754Z"/>
  </g>
  <g id="Regular-S" transform="matrix(1 0 0 1 1407.56 696)">
   <path d="M22.0215 5.9082L62.5 5.9082Q68.6523 5.9082 71.7285 2.7832Q74.8047-0.341797 74.8047-6.54297L74.8047-40.5762Q74.8047-44.6289 74.0723-46.8994Q73.3398-49.1699 70.8496-51.7578L50.5859-72.4609Q48.1934-74.9023 45.8984-75.6592Q43.6035-76.416 40.0879-76.416L22.0215-76.416Q15.8691-76.416 12.8174-73.291Q9.76562-70.166 9.76562-63.9648L9.76562-6.54297Q9.76562-0.292969 12.8174 2.80762Q15.8691 5.9082 22.0215 5.9082ZM22.3633-1.12305Q19.6289-1.12305 18.2129-2.56348Q16.7969-4.00391 16.7969-6.64062L16.7969-63.8672Q16.7969-66.5039 18.2129-67.9443Q19.6289-69.3848 22.4121-69.3848L38.8672-69.3848L38.8672-47.6562Q38.8672-43.8477 40.7959-41.9189Q42.7246-39.9902 46.5332-39.9902L67.7246-39.9902L67.7246-6.64062Q67.7246-4.00391 66.3086-2.56348Q64.8926-1.12305 62.1582-1.12305ZM47.3633-46.582Q45.4102-46.582 45.4102-48.5352L45.4102-68.0664L66.4062-46.582Z"/>
  </g>
  <g id="Light-S" transform="matrix(1 0 0 1 1111.47 696)">
   <path d="M21.2728 5.66406L62.028 5.66406Q67.7734 5.66406 70.6706 2.72624Q73.5677-0.211589 73.5677-5.97331L73.5677-41.3086Q73.5677-44.694 72.9248-46.5983Q72.2819-48.5026 70.2148-50.6348L48.4049-72.7539Q46.3867-74.7884 44.4661-75.4476Q42.5456-76.1068 39.5345-76.1068L21.2728-76.1068Q15.5436-76.1068 12.6546-73.1771Q9.76562-70.2474 9.76562-64.4857L9.76562-5.97331Q9.76562-0.179036 12.6546 2.74251Q15.5436 5.66406 21.2728 5.66406ZM21.5332 0.244141Q18.4082 0.244141 16.7969-1.3916Q15.1855-3.02734 15.1855-6.07096L15.1855-64.388Q15.1855-67.3828 16.7969-69.0348Q18.4082-70.6868 21.5658-70.6868L39.0137-70.6868L39.0137-48.0469Q39.0137-44.5964 40.7389-42.9118Q42.4642-41.2272 45.8333-41.2272L68.1152-41.2272L68.1152-6.07096Q68.1152-3.02734 66.5039-1.3916Q64.8926 0.244141 61.7676 0.244141ZM46.4355-46.3542Q44.1081-46.3542 44.1081-48.6654L44.1081-69.6126L67.041-46.3542Z"/>
  </g>
  <g id="Thin-S" transform="matrix(1 0 0 1 815.574 696)">
   <path d="M20.2826 5.34117L61.4037 5.34117Q66.611 5.34117 69.2714 2.65089Q71.9317-0.0393775 71.9317-5.21988L71.9317-42.2773Q71.9317-44.7801 71.4072-46.2001Q70.8827-47.62 69.3753-49.1494L45.5204-73.1414Q43.9973-74.6377 42.5718-75.1677Q41.1464-75.6978 38.8026-75.6978L20.2826-75.6978Q15.1131-75.6978 12.4394-73.0264Q9.76562-70.355 9.76562-65.1745L9.76562-5.21988Q9.76562-0.0283518 12.4394 2.65641Q15.1131 5.34117 20.2826 5.34117ZM20.4354 2.05236Q16.7937 2.05236 14.9241 0.158298Q13.0544-1.73576 13.0544-5.31754L13.0544-65.0769Q13.0544-68.5452 14.9241-70.4771Q16.7937-72.409 20.4464-72.409L39.2074-72.409L39.2074-48.5635Q39.2074-45.5866 40.6636-44.2249Q42.1198-42.8632 44.9077-42.8632L68.6319-42.8632L68.6319-5.31754Q68.6319-1.73576 66.7622 0.158298Q64.8926 2.05236 61.2509 2.05236ZM45.2085-46.0528Q42.386-46.0528 42.386-48.8376L42.386-71.6576L67.8805-46.0528Z"/>
  </g>
  <g id="Ultralight-S" transform="matrix(1 0 0 1 519.281 696)">
   <path d="M19.7754 5.17578L61.084 5.17578Q66.0156 5.17578 68.5547 2.6123Q71.0938 0.0488281 71.0938-4.83398L71.0938-42.7734Q71.0938-44.8242 70.6299-45.9961Q70.166-47.168 68.9453-48.3887L44.043-73.3398Q42.7734-74.5605 41.6016-75.0244Q40.4297-75.4883 38.4277-75.4883L19.7754-75.4883Q14.8926-75.4883 12.3291-72.9492Q9.76562-70.4102 9.76562-65.5273L9.76562-4.83398Q9.76562 0.0488281 12.3291 2.6123Q14.8926 5.17578 19.7754 5.17578ZM19.873 2.97852Q15.9668 2.97852 13.9648 0.952148Q11.9629-1.07422 11.9629-4.93164L11.9629-65.4297Q11.9629-69.1406 13.9648-71.2158Q15.9668-73.291 19.873-73.291L39.3066-73.291L39.3066-48.8281Q39.3066-46.0938 40.625-44.8975Q41.9434-43.7012 44.4336-43.7012L68.8965-43.7012L68.8965-4.93164Q68.8965-1.07422 66.8945 0.952148Q64.8926 2.97852 60.9863 2.97852ZM44.5801-45.8984Q41.5039-45.8984 41.5039-48.9258L41.5039-72.7051L68.3105-45.8984Z"/>
  </g>
 </g>
</svg>
