<?xml version="1.0" encoding="UTF-8"?>
<!-- Generator: CustomSymbols v2.6.5.44 by @serious_bret https://bretlester.com/app_content/CustomSymbols/ -->
<!-- Guides: Left/Right 0.017000000923871994/0.196 Cap/Base 0.199/0.199 -->
<!-- Settings: RefScale 1.0 Min/Max Stroke Scales 0.5/2.21 -->
<!DOCTYPE svg
PUBLIC "-//W3C//DTD SVG 1.1//EN"
       "http://www.w3.org/Graphics/SVG/1.1/DTD/svg11.dtd">
<svg version="1.1" xmlns="http://www.w3.org/2000/svg" xmlns:xlink="http://www.w3.org/1999/xlink" width="3300" height="2200">
<![CDATA[<?xml version="1.0" encoding="utf-8"?>
<svg viewBox="0 0 40.064 41.336" fill="#000000" xmlns="http://www.w3.org/2000/svg" xmlns:bx="https://boxy-svg.com">
  <g style="" transform="matrix(0.73433, 0.000953, 0, 1.003727, 5.381535, -3.074862)">
    <g>
      <path d="M 35.107 5.716 L 4.955 5.724 C 3.891 5.724 -0.098 5.624 -0.101 7.268 C -0.104 8.912 3.79 9.119 4.854 9.119 L 6.801 9.138 L 7.965 37.256 C 7.965 38.588 9.356 39.585 10.686 39.585 L 29.55 39.641 C 30.88 39.641 31.997 38.704 31.997 37.373 L 33.143 9.138 L 35.074 9.138 C 36.139 9.138 40.017 9.07 40.031 7.331 C 40.045 5.592 36.171 5.716 35.107 5.716 Z M 13.765 36.786 C 13.765 37.585 12.969 37.784 12.17 37.784 C 11.373 37.784 10.79 37.621 10.79 36.822 L 10.748 11.6 C 10.748 10.801 11.373 10.651 12.17 10.651 C 12.969 10.651 13.787 10.873 13.787 11.672 L 13.765 36.786 Z M 21.444 36.715 C 21.444 37.514 20.635 37.784 19.836 37.784 C 19.039 37.784 18.422 37.467 18.422 36.668 L 18.463 11.722 C 18.463 10.923 19.186 10.718 19.983 10.718 C 20.782 10.718 21.484 10.922 21.484 11.721 L 21.444 36.715 Z M 29.022 36.702 C 29.022 37.501 28.431 37.729 27.634 37.729 C 26.836 37.729 26.132 37.526 26.132 36.727 L 26.222 11.673 C 26.222 10.874 26.923 10.663 27.721 10.663 C 28.518 10.663 29.162 10.898 29.162 11.697 L 29.022 36.702 Z" transform="matrix(1.000001, -0.000894, 0.00167, 0.999998, -0.040235, 0.019531)" bx:origin="0.544017 0.541266"/>
    </g>
  </g>
</svg>]]>
 <g id="Notes">
  <rect height="2200" id="artboard" style="fill:white;opacity:1" width="3300" x="0" y="0"/>
  <line id="" style="fill:none;stroke:black;opacity:1;stroke-width:0.5;" x1="263" x2="3036" y1="292" y2="292"/>
  <text id="reftext1" style="stroke:none;fill:black;font-family:-apple-system,&quot;SF Pro Display&quot;,&quot;SF Pro Text&quot;,Helvetica,sans-serif;font-weight:bold;" transform="matrix(1 0 0 1 263 322)">Weight/Scale Variations</text>
  <text id="reftext2" style="stroke:none;fill:black;font-family:-apple-system,&quot;SF Pro Display&quot;,&quot;SF Pro Text&quot;,Helvetica,sans-serif;text-anchor:middle;" transform="matrix(1 0 0 1 559.711 322)">Ultralight</text>
  <text style="stroke:none;fill:black;font-family:-apple-system,&quot;SF Pro Display&quot;,&quot;SF Pro Text&quot;,Helvetica,sans-serif;text-anchor:middle;" transform="matrix(1 0 0 1 856.422 322)">Thin</text>
  <text style="stroke:none;fill:black;font-family:-apple-system,&quot;SF Pro Display&quot;,&quot;SF Pro Text&quot;,Helvetica,sans-serif;text-anchor:middle;" transform="matrix(1 0 0 1 1153.13 322)">Light</text>
  <text style="stroke:none;fill:black;font-family:-apple-system,&quot;SF Pro Display&quot;,&quot;SF Pro Text&quot;,Helvetica,sans-serif;text-anchor:middle;" transform="matrix(1 0 0 1 1449.84 322)">Regular</text>
  <text style="stroke:none;fill:black;font-family:-apple-system,&quot;SF Pro Display&quot;,&quot;SF Pro Text&quot;,Helvetica,sans-serif;text-anchor:middle;" transform="matrix(1 0 0 1 1746.56 322)">Medium</text>
  <text style="stroke:none;fill:black;font-family:-apple-system,&quot;SF Pro Display&quot;,&quot;SF Pro Text&quot;,Helvetica,sans-serif;text-anchor:middle;" transform="matrix(1 0 0 1 2043.27 322)">Semibold</text>
  <text style="stroke:none;fill:black;font-family:-apple-system,&quot;SF Pro Display&quot;,&quot;SF Pro Text&quot;,Helvetica,sans-serif;text-anchor:middle;" transform="matrix(1 0 0 1 2339.98 322)">Bold</text>
  <text style="stroke:none;fill:black;font-family:-apple-system,&quot;SF Pro Display&quot;,&quot;SF Pro Text&quot;,Helvetica,sans-serif;text-anchor:middle;" transform="matrix(1 0 0 1 2636.69 322)">Heavy</text>
  <text style="stroke:none;fill:black;font-family:-apple-system,&quot;SF Pro Display&quot;,&quot;SF Pro Text&quot;,Helvetica,sans-serif;text-anchor:middle;" transform="matrix(1 0 0 1 2933.4 322)">Black</text>
  <line id="" style="fill:none;stroke:black;opacity:1;stroke-width:0.5;" x1="263" x2="3036" y1="1903" y2="1903"/>
  <g id="" transform="matrix(1 0 0 1 263 1933)">
   <path d="M9.24805 0.830078C13.5547 0.830078 17.1387-2.74414 17.1387-7.05078C17.1387-11.3574 13.5449-14.9316 9.23828-14.9316C4.94141-14.9316 1.36719-11.3574 1.36719-7.05078C1.36719-2.74414 4.95117 0.830078 9.24805 0.830078ZM9.24805-0.654297C5.70312-0.654297 2.87109-3.49609 2.87109-7.05078C2.87109-10.6055 5.69336-13.4473 9.23828-13.4473C12.793-13.4473 15.6348-10.6055 15.6445-7.05078C15.6543-3.49609 12.8027-0.654297 9.24805-0.654297ZM6.39648-6.31836L8.50586-6.31836L8.50586-4.19922C8.50586-3.75977 8.79883-3.45703 9.22852-3.45703C9.67773-3.45703 9.9707-3.75977 9.9707-4.19922L9.9707-6.31836L12.0996-6.31836C12.5391-6.31836 12.8418-6.61133 12.8418-7.04102C12.8418-7.48047 12.5391-7.7832 12.0996-7.7832L9.9707-7.7832L9.9707-9.89258C9.9707-10.3418 9.67773-10.6445 9.22852-10.6445C8.79883-10.6445 8.50586-10.3418 8.50586-9.89258L8.50586-7.7832L6.39648-7.7832C5.94727-7.7832 5.64453-7.48047 5.64453-7.04102C5.64453-6.61133 5.94727-6.31836 6.39648-6.31836Z"/>
  </g>
  <g id="" transform="matrix(1 0 0 1 281.506 1933)">
   <path d="M11.709 2.91016C17.1582 2.91016 21.6699-1.61133 21.6699-7.05078C21.6699-12.5 17.1484-17.0117 11.6992-17.0117C6.25977-17.0117 1.74805-12.5 1.74805-7.05078C1.74805-1.61133 6.26953 2.91016 11.709 2.91016ZM11.709 1.25C7.09961 1.25 3.41797-2.44141 3.41797-7.05078C3.41797-11.6602 7.08984-15.3516 11.6992-15.3516C16.3086-15.3516 20-11.6602 20.0098-7.05078C20.0195-2.44141 16.3184 1.25 11.709 1.25ZM7.98828-6.23047L10.8789-6.23047L10.8789-3.32031C10.8789-2.83203 11.2109-2.5 11.6895-2.5C12.1777-2.5 12.5195-2.83203 12.5195-3.32031L12.5195-6.23047L15.4297-6.23047C15.918-6.23047 16.25-6.5625 16.25-7.04102C16.25-7.5293 15.918-7.87109 15.4297-7.87109L12.5195-7.87109L12.5195-10.7617C12.5195-11.2695 12.1777-11.6016 11.6895-11.6016C11.2109-11.6016 10.8789-11.2598 10.8789-10.7617L10.8789-7.87109L7.98828-7.87109C7.48047-7.87109 7.14844-7.5293 7.14844-7.04102C7.14844-6.5625 7.49023-6.23047 7.98828-6.23047Z"/>
  </g>
  <g id="" transform="matrix(1 0 0 1 304.924 1933)">
   <path d="M14.9707 5.66406C21.9336 5.66406 27.6953-0.0976562 27.6953-7.05078C27.6953-14.0137 21.9238-19.7754 14.9609-19.7754C8.00781-19.7754 2.25586-14.0137 2.25586-7.05078C2.25586-0.0976562 8.01758 5.66406 14.9707 5.66406ZM14.9707 3.84766C8.93555 3.84766 4.08203-1.01562 4.08203-7.05078C4.08203-13.0957 8.92578-17.9492 14.9609-17.9492C21.0059-17.9492 25.8594-13.0957 25.8691-7.05078C25.8789-1.01562 21.0156 3.84766 14.9707 3.84766ZM10.0586-6.14258L14.0625-6.14258L14.0625-2.12891C14.0625-1.5918 14.4336-1.2207 14.9512-1.2207C15.4883-1.2207 15.8594-1.5918 15.8594-2.12891L15.8594-6.14258L19.8828-6.14258C20.4102-6.14258 20.791-6.51367 20.791-7.03125C20.791-7.56836 20.4199-7.94922 19.8828-7.94922L15.8594-7.94922L15.8594-11.9531C15.8594-12.5098 15.4883-12.8809 14.9512-12.8809C14.4336-12.8809 14.0625-12.5 14.0625-11.9531L14.0625-7.94922L10.0586-7.94922C9.50195-7.94922 9.13086-7.56836 9.13086-7.03125C9.13086-6.51367 9.51172-6.14258 10.0586-6.14258Z"/>
  </g>
  <text style="stroke:none;fill:black;font-family:-apple-system,&quot;SF Pro Display&quot;,&quot;SF Pro Text&quot;,Helvetica,sans-serif;font-weight:bold;" transform="matrix(1 0 0 1 263 1953)">Design Variations</text>
  <text style="stroke:none;fill:black;font-family:-apple-system,&quot;SF Pro Display&quot;,&quot;SF Pro Text&quot;,Helvetica,sans-serif;" transform="matrix(1 0 0 1 263 1971)">Symbols are supported in up to nine weights and three scales.</text>
  <text style="stroke:none;fill:black;font-family:-apple-system,&quot;SF Pro Display&quot;,&quot;SF Pro Text&quot;,Helvetica,sans-serif;" transform="matrix(1 0 0 1 263 1989)">For optimal layout with text and other symbols, vertically align</text>
  <text style="stroke:none;fill:black;font-family:-apple-system,&quot;SF Pro Display&quot;,&quot;SF Pro Text&quot;,Helvetica,sans-serif;" transform="matrix(1 0 0 1 263 2007)">symbols with the adjacent text.</text>
  <line id="" style="fill:none;stroke:#00AEEF;stroke-width:0.5;opacity:1.0;" x1="776" x2="776" y1="1919" y2="1933"/>
  <g id="" transform="matrix(1 0 0 1 776 1933)">
   <path d="M3.31055 0.126953C3.82812 0.126953 4.08203-0.0683594 4.26758-0.605469L5.52734-4.0625L11.2891-4.0625L12.5488-0.605469C12.7344-0.0683594 12.9883 0.126953 13.4961 0.126953C14.0137 0.126953 14.3457-0.185547 14.3457-0.673828C14.3457-0.839844 14.3164-0.986328 14.2383-1.20117L9.6582-13.3887C9.43359-13.9941 9.0332-14.2871 8.4082-14.2871C7.80273-14.2871 7.39258-13.9941 7.17773-13.3984L2.59766-1.19141C2.51953-0.976562 2.49023-0.830078 2.49023-0.664062C2.49023-0.175781 2.80273 0.126953 3.31055 0.126953ZM6.00586-5.53711L8.37891-12.1094L8.42773-12.1094L10.8008-5.53711Z"/>
  </g>
  <line id="" style="fill:none;stroke:#00AEEF;stroke-width:0.5;opacity:1.0;" x1="792.836" x2="792.836" y1="1919" y2="1933"/>
  <text style="stroke:none;fill:black;font-family:-apple-system,&quot;SF Pro Display&quot;,&quot;SF Pro Text&quot;,Helvetica,sans-serif;font-weight:bold;" transform="matrix(1 0 0 1 776 1953)">Margins</text>
  <text style="stroke:none;fill:black;font-family:-apple-system,&quot;SF Pro Display&quot;,&quot;SF Pro Text&quot;,Helvetica,sans-serif;" transform="matrix(1 0 0 1 776 1971)">Leading and trailing margins on the left and right side of each symbol</text>
  <text style="stroke:none;fill:black;font-family:-apple-system,&quot;SF Pro Display&quot;,&quot;SF Pro Text&quot;,Helvetica,sans-serif;" transform="matrix(1 0 0 1 776 1989)">can be adjusted by modifying the x-location of the margin guidelines.</text>
  <text style="stroke:none;fill:black;font-family:-apple-system,&quot;SF Pro Display&quot;,&quot;SF Pro Text&quot;,Helvetica,sans-serif;" transform="matrix(1 0 0 1 776 2007)">Modifications are automatically applied proportionally to all</text>
  <text style="stroke:none;fill:black;font-family:-apple-system,&quot;SF Pro Display&quot;,&quot;SF Pro Text&quot;,Helvetica,sans-serif;" transform="matrix(1 0 0 1 776 2025)">scales and weights.</text>
  <g id="" transform="matrix(1 0 0 1 1289 1933)">
   <path d="M2.8418 1.86523L4.54102 3.57422C5.40039 4.44336 6.38672 4.38477 7.31445 3.35938L17.4902-7.85156C17.7539-7.76367 18.0273-7.7832 18.3398-7.8418L19.4043-8.03711L20.0684-7.36328L20.0293-6.80664C19.9902-6.30859 20.1172-5.92773 20.6055-5.44922L21.3672-4.70703C21.8457-4.22852 22.4609-4.19922 22.9297-4.66797L25.8398-7.58789C26.3086-8.05664 26.2891-8.65234 25.8105-9.13086L25.0391-9.89258C24.5605-10.3711 24.1895-10.5273 23.7109-10.4883L23.1348-10.4395L22.4902-11.0742L22.7344-12.1973C22.8613-12.7637 22.7051-13.2031 22.1191-13.7891L19.9219-15.9766C16.582-19.2969 12.1484-19.2188 9.25781-16.3281C8.83789-15.918 8.80859-15.3418 9.04297-14.9512C9.27734-14.5898 9.73633-14.3555 10.3809-14.5215C11.8457-14.8633 13.3691-14.9219 14.7949-13.9844L14.209-12.5293C14.0137-12.0508 13.9844-11.6504 14.1113-11.2891L3.04688-0.898438C2.06055 0.0195312 1.98242 0.996094 2.8418 1.86523ZM10.752-15.957C13.1836-17.7344 16.4746-17.4316 18.7012-15.2051L21.1328-12.793C21.3672-12.5586 21.4062-12.373 21.3379-12.0312L21.0156-10.5469L22.5195-9.0625L23.5059-9.12109C23.7598-9.13086 23.8379-9.11133 24.0332-8.91602L24.6094-8.33984L22.168-5.89844L21.5918-6.47461C21.3965-6.66992 21.3672-6.74805 21.377-7.01172L21.4453-7.98828L19.9512-9.47266L18.4277-9.21875C18.1055-9.15039 17.959-9.17969 17.7148-9.41406L15.7129-11.416C15.459-11.6504 15.4297-11.8164 15.5859-12.1875L16.4648-14.2773C14.9023-15.7324 12.8711-16.3574 10.8398-15.7617C10.6836-15.7227 10.625-15.8496 10.752-15.957ZM5.27344 2.30469L4.10156 1.14258C3.63281 0.683594 3.74023 0.341797 4.14062-0.0195312L14.9512-10.1953L16.416-8.71094L6.42578 2.27539C6.07422 2.67578 5.74219 2.77344 5.27344 2.30469Z"/>
  </g>
  <text style="stroke:none;fill:black;font-family:-apple-system,&quot;SF Pro Display&quot;,&quot;SF Pro Text&quot;,Helvetica,sans-serif;font-weight:bold;" transform="matrix(1 0 0 1 1289 1953)">Exporting</text>
  <text style="stroke:none;fill:black;font-family:-apple-system,&quot;SF Pro Display&quot;,&quot;SF Pro Text&quot;,Helvetica,sans-serif;" transform="matrix(1 0 0 1 1289 1971)">Symbols should be outlined when exporting to ensure the</text>
  <text style="stroke:none;fill:black;font-family:-apple-system,&quot;SF Pro Display&quot;,&quot;SF Pro Text&quot;,Helvetica,sans-serif;" transform="matrix(1 0 0 1 1289 1989)">design is preserved when submitting to Xcode.</text>
  <text id="template-version" style="stroke:none;fill:black;font-family:-apple-system,&quot;SF Pro Display&quot;,&quot;SF Pro Text&quot;,Helvetica,sans-serif;text-anchor:end;" transform="matrix(1 0 0 1 3036 1933)">Template v.2.0</text>
  <text style="stroke:none;fill:black;font-family:-apple-system,&quot;SF Pro Display&quot;,&quot;SF Pro Text&quot;,Helvetica,sans-serif;text-anchor:end;" transform="matrix(1 0 0 1 3036 1951)">Requires Xcode 12 or greater</text>
  <text style="stroke:none;fill:black;font-family:-apple-system,&quot;SF Pro Display&quot;,&quot;SF Pro Text&quot;,Helvetica,sans-serif;" transform="matrix(1 0 0 1 263 726)">Small</text>
  <text style="stroke:none;fill:black;font-family:-apple-system,&quot;SF Pro Display&quot;,&quot;SF Pro Text&quot;,Helvetica,sans-serif;" transform="matrix(1 0 0 1 263 1156)">Medium</text>
  <text style="stroke:none;fill:black;font-family:-apple-system,&quot;SF Pro Display&quot;,&quot;SF Pro Text&quot;,Helvetica,sans-serif;" transform="matrix(1 0 0 1 263 1586)">Large</text>
 </g>
 <g id="Guides">
  <g id="H-reference" style="fill:#27AAE1;stroke:none;" transform="matrix(1 0 0 1 339 696)">
   <path d="M0.976562 0L3.66211 0L12.9883-24.4629L45.752-24.4629L55.127 0L57.7637 0L30.6152-70.459L28.125-70.459ZM29.3457-67.1387L29.4434-67.1387L44.873-26.709L13.8672-26.709Z"/>
  </g>
  <line id="Baseline-S" style="fill:none;stroke:#27AAE1;opacity:1;stroke-width:0.5;" x1="263" x2="3036" y1="696" y2="696"/>
  <line id="Capline-S" style="fill:none;stroke:#27AAE1;opacity:1;stroke-width:0.5;" x1="263" x2="3036" y1="625.541" y2="625.541"/>
  <g id="H-reference" style="fill:#27AAE1;stroke:none;" transform="matrix(1 0 0 1 339 1126)">
   <path d="M0.976562 0L3.66211 0L12.9883-24.4629L45.752-24.4629L55.127 0L57.7637 0L30.6152-70.459L28.125-70.459ZM29.3457-67.1387L29.4434-67.1387L44.873-26.709L13.8672-26.709Z"/>
  </g>
  <line id="Baseline-M" style="fill:none;stroke:#27AAE1;opacity:1;stroke-width:0.5;" x1="263" x2="3036" y1="1126" y2="1126"/>
  <line id="Capline-M" style="fill:none;stroke:#27AAE1;opacity:1;stroke-width:0.5;" x1="263" x2="3036" y1="1055.54" y2="1055.54"/>
  <g id="H-reference" style="fill:#27AAE1;stroke:none;" transform="matrix(1 0 0 1 339 1556)">
   <path d="M0.976562 0L3.66211 0L12.9883-24.4629L45.752-24.4629L55.127 0L57.7637 0L30.6152-70.459L28.125-70.459ZM29.3457-67.1387L29.4434-67.1387L44.873-26.709L13.8672-26.709Z"/>
  </g>
  <line id="Baseline-L" style="fill:none;stroke:#27AAE1;opacity:1;stroke-width:0.5;" x1="263" x2="3036" y1="1556" y2="1556"/>
  <line id="Capline-L" style="fill:none;stroke:#27AAE1;opacity:1;stroke-width:0.5;" x1="263" x2="3036" y1="1485.54" y2="1485.54"/>
  <line id="left-margin" x1="1396.3377801987938" x2="1396.3377801987938" y1="1030.79" y2="1150.12" style="fill:none;stroke:#00AEEF;stroke-width:0.5;opacity:1.0;"/>
  <line id="right-margin" x1="1485.6162005205538" x2="1485.6162005205538" y1="1030.79" y2="1150.12" style="fill:none;stroke:#00AEEF;stroke-width:0.5;opacity:1.0;"/>
 </g>
 <g id="Symbols">
  <g id="Black-L" transform="matrix(1.0,0.0,0.0,1.0,2861.510265342904,1445.2772042410716)">  <path xmlns:bx="https://boxy-svg.com" bx:origin="0.544017 0.541266" fill-opacity="1" stroke-miterlimit="4" fill-rule="nonzero" fill="#000000" stroke-width="1px" stroke-dasharray="none" stroke-linecap="butt" stroke-opacity="1" stroke="none" stroke-linejoin="miter" d="M113.74,9.804L32.865,9.827C30.011,9.827,19.311,9.459,19.311,15.486C19.31,21.514,29.755,22.273,32.609,22.274L37.832,22.344L41.08,125.432C41.086,130.315,44.821,133.971,48.389,133.971L98.987,134.18C102.554,134.18,105.546,130.745,105.54,125.866L108.488,22.349L113.667,22.349C116.524,22.35,126.925,22.101,126.955,15.726C126.985,9.35,116.594,9.804,113.74,9.804ZM56.635,123.71C56.638,126.639,54.504,127.368,52.361,127.368C50.223,127.368,48.659,126.77,48.655,123.841L48.43,31.371C48.426,28.441,50.102,27.892,52.24,27.892C54.383,27.892,56.578,28.706,56.581,31.635L56.635,123.71ZM77.231,123.451C77.235,126.38,75.066,127.37,72.923,127.37C70.785,127.37,69.129,126.207,69.126,123.278L69.124,31.82C69.12,28.89,71.059,28.139,73.196,28.139C75.339,28.139,77.223,28.887,77.227,31.817L77.231,123.451ZM97.557,123.405C97.561,126.334,95.977,127.17,93.839,127.17C91.699,127.17,89.809,126.425,89.806,123.496L89.935,31.642C89.932,28.712,91.811,27.939,93.951,27.939C96.089,27.939,97.817,28.801,97.821,31.73L97.557,123.405ZM97.557,123.405"/>
</g>
  <g id="Heavy-L" transform="matrix(1.0,0.0,0.0,1.0,2564.800265342904,1445.2772042410716)">  <path stroke-miterlimit="4" stroke="none" stroke-linecap="butt" stroke-width="1px" bx:origin="0.544017 0.541266" stroke-opacity="1" fill-rule="nonzero" fill-opacity="1" fill="#000000" xmlns:bx="https://boxy-svg.com" stroke-dasharray="none" stroke-linejoin="miter" d="M113.74,9.804L32.865,9.827C30.011,9.827,19.311,9.459,19.311,15.486C19.31,21.514,29.755,22.273,32.609,22.274L37.832,22.344L41.08,125.432C41.086,130.315,44.821,133.971,48.389,133.971L98.987,134.18C102.554,134.18,105.546,130.745,105.54,125.866L108.488,22.349L113.667,22.349C116.524,22.35,126.925,22.101,126.955,15.726C126.985,9.35,116.594,9.804,113.74,9.804ZM56.635,123.71C56.638,126.639,54.504,127.368,52.361,127.368C50.223,127.368,48.659,126.77,48.655,123.841L48.43,31.371C48.426,28.441,50.102,27.892,52.24,27.892C54.383,27.892,56.578,28.706,56.581,31.635L56.635,123.71ZM77.231,123.451C77.235,126.38,75.066,127.37,72.923,127.37C70.785,127.37,69.129,126.207,69.126,123.278L69.124,31.82C69.12,28.89,71.059,28.139,73.196,28.139C75.339,28.139,77.223,28.887,77.227,31.817L77.231,123.451ZM97.557,123.405C97.561,126.334,95.977,127.17,93.839,127.17C91.699,127.17,89.809,126.425,89.806,123.496L89.935,31.642C89.932,28.712,91.811,27.939,93.951,27.939C96.089,27.939,97.817,28.801,97.821,31.73L97.557,123.405ZM97.557,123.405"/>
</g>
  <g id="Bold-L" transform="matrix(1.0,0.0,0.0,1.0,2268.090265342904,1445.2772042410716)">  <path fill="#000000" stroke-opacity="1" stroke-miterlimit="4" stroke-dasharray="none" bx:origin="0.544017 0.541266" stroke-width="1px" stroke-linecap="butt" fill-opacity="1" stroke="none" xmlns:bx="https://boxy-svg.com" fill-rule="nonzero" stroke-linejoin="miter" d="M113.74,9.804L32.865,9.827C30.011,9.827,19.311,9.459,19.311,15.486C19.31,21.514,29.755,22.273,32.609,22.274L37.832,22.344L41.08,125.432C41.086,130.315,44.821,133.971,48.389,133.971L98.987,134.18C102.554,134.18,105.546,130.745,105.54,125.866L108.488,22.349L113.667,22.349C116.524,22.35,126.925,22.101,126.955,15.726C126.985,9.35,116.594,9.804,113.74,9.804ZM56.635,123.71C56.638,126.639,54.504,127.368,52.361,127.368C50.223,127.368,48.659,126.77,48.655,123.841L48.43,31.371C48.426,28.441,50.102,27.892,52.24,27.892C54.383,27.892,56.578,28.706,56.581,31.635L56.635,123.71ZM77.231,123.451C77.235,126.38,75.066,127.37,72.923,127.37C70.785,127.37,69.129,126.207,69.126,123.278L69.124,31.82C69.12,28.89,71.059,28.139,73.196,28.139C75.339,28.139,77.223,28.887,77.227,31.817L77.231,123.451ZM97.557,123.405C97.561,126.334,95.977,127.17,93.839,127.17C91.699,127.17,89.809,126.425,89.806,123.496L89.935,31.642C89.932,28.712,91.811,27.939,93.951,27.939C96.089,27.939,97.817,28.801,97.821,31.73L97.557,123.405ZM97.557,123.405"/>
</g>
  <g id="Semibold-L" transform="matrix(1.0,0.0,0.0,1.0,1971.380265342904,1445.2772042410716)">  <path stroke-dasharray="none" fill-opacity="1" fill="#000000" stroke-linecap="butt" stroke-miterlimit="4" xmlns:bx="https://boxy-svg.com" stroke-linejoin="miter" stroke-opacity="1" stroke="none" bx:origin="0.544017 0.541266" stroke-width="1px" fill-rule="nonzero" d="M113.74,9.804L32.865,9.827C30.011,9.827,19.311,9.459,19.311,15.486C19.31,21.514,29.755,22.273,32.609,22.274L37.832,22.344L41.08,125.432C41.086,130.315,44.821,133.971,48.389,133.971L98.987,134.18C102.554,134.18,105.546,130.745,105.54,125.866L108.488,22.349L113.667,22.349C116.524,22.35,126.925,22.101,126.955,15.726C126.985,9.35,116.594,9.804,113.74,9.804ZM56.635,123.71C56.638,126.639,54.504,127.368,52.361,127.368C50.223,127.368,48.659,126.77,48.655,123.841L48.43,31.371C48.426,28.441,50.102,27.892,52.24,27.892C54.383,27.892,56.578,28.706,56.581,31.635L56.635,123.71ZM77.231,123.451C77.235,126.38,75.066,127.37,72.923,127.37C70.785,127.37,69.129,126.207,69.126,123.278L69.124,31.82C69.12,28.89,71.059,28.139,73.196,28.139C75.339,28.139,77.223,28.887,77.227,31.817L77.231,123.451ZM97.557,123.405C97.561,126.334,95.977,127.17,93.839,127.17C91.699,127.17,89.809,126.425,89.806,123.496L89.935,31.642C89.932,28.712,91.811,27.939,93.951,27.939C96.089,27.939,97.817,28.801,97.821,31.73L97.557,123.405ZM97.557,123.405"/>
</g>
  <g id="Medium-L" transform="matrix(1.0,0.0,0.0,1.0,1674.670265342904,1445.2772042410716)">  <path stroke-dasharray="none" stroke-miterlimit="4" fill="#000000" stroke="none" bx:origin="0.544017 0.541266" fill-rule="nonzero" stroke-linejoin="miter" stroke-width="1px" stroke-linecap="butt" stroke-opacity="1" fill-opacity="1" xmlns:bx="https://boxy-svg.com" d="M113.74,9.804L32.865,9.827C30.011,9.827,19.311,9.459,19.311,15.486C19.31,21.514,29.755,22.273,32.609,22.274L37.832,22.344L41.08,125.432C41.086,130.315,44.821,133.971,48.389,133.971L98.987,134.18C102.554,134.18,105.546,130.745,105.54,125.866L108.488,22.349L113.667,22.349C116.524,22.35,126.925,22.101,126.955,15.726C126.985,9.35,116.594,9.804,113.74,9.804ZM56.635,123.71C56.638,126.639,54.504,127.368,52.361,127.368C50.223,127.368,48.659,126.77,48.655,123.841L48.43,31.371C48.426,28.441,50.102,27.892,52.24,27.892C54.383,27.892,56.578,28.706,56.581,31.635L56.635,123.71ZM77.231,123.451C77.235,126.38,75.066,127.37,72.923,127.37C70.785,127.37,69.129,126.207,69.126,123.278L69.124,31.82C69.12,28.89,71.059,28.139,73.196,28.139C75.339,28.139,77.223,28.887,77.227,31.817L77.231,123.451ZM97.557,123.405C97.561,126.334,95.977,127.17,93.839,127.17C91.699,127.17,89.809,126.425,89.806,123.496L89.935,31.642C89.932,28.712,91.811,27.939,93.951,27.939C96.089,27.939,97.817,28.801,97.821,31.73L97.557,123.405ZM97.557,123.405"/>
</g>
  <g id="Regular-L" transform="matrix(1.0,0.0,0.0,1.0,1377.960265342904,1445.2772042410716)">  <path bx:origin="0.544017 0.541266" xmlns:bx="https://boxy-svg.com" stroke-dasharray="none" stroke-linejoin="miter" stroke-miterlimit="4" fill-rule="nonzero" stroke-opacity="1" stroke-linecap="butt" fill-opacity="1" stroke-width="1px" stroke="none" fill="#000000" d="M113.74,9.804L32.865,9.827C30.011,9.827,19.311,9.459,19.311,15.486C19.31,21.514,29.755,22.273,32.609,22.274L37.832,22.344L41.08,125.432C41.086,130.315,44.821,133.971,48.389,133.971L98.987,134.18C102.554,134.18,105.546,130.745,105.54,125.866L108.488,22.349L113.667,22.349C116.524,22.35,126.925,22.101,126.955,15.726C126.985,9.35,116.594,9.804,113.74,9.804ZM56.635,123.71C56.638,126.639,54.504,127.368,52.361,127.368C50.223,127.368,48.659,126.77,48.655,123.841L48.43,31.371C48.426,28.441,50.102,27.892,52.24,27.892C54.383,27.892,56.578,28.706,56.581,31.635L56.635,123.71ZM77.231,123.451C77.235,126.38,75.066,127.37,72.923,127.37C70.785,127.37,69.129,126.207,69.126,123.278L69.124,31.82C69.12,28.89,71.059,28.139,73.196,28.139C75.339,28.139,77.223,28.887,77.227,31.817L77.231,123.451ZM97.557,123.405C97.561,126.334,95.977,127.17,93.839,127.17C91.699,127.17,89.809,126.425,89.806,123.496L89.935,31.642C89.932,28.712,91.811,27.939,93.951,27.939C96.089,27.939,97.817,28.801,97.821,31.73L97.557,123.405ZM97.557,123.405"/>
</g>
  <g id="Light-L" transform="matrix(1.0,0.0,0.0,1.0,1081.2502653429042,1445.2772042410716)">  <path stroke-miterlimit="4" stroke-opacity="1" fill-rule="nonzero" stroke="none" stroke-width="1px" fill-opacity="1" bx:origin="0.544017 0.541266" stroke-dasharray="none" fill="#000000" stroke-linecap="butt" xmlns:bx="https://boxy-svg.com" stroke-linejoin="miter" d="M113.74,9.804L32.865,9.827C30.011,9.827,19.311,9.459,19.311,15.486C19.31,21.514,29.755,22.273,32.609,22.274L37.832,22.344L41.08,125.432C41.086,130.315,44.821,133.971,48.389,133.971L98.987,134.18C102.554,134.18,105.546,130.745,105.54,125.866L108.488,22.349L113.667,22.349C116.524,22.35,126.925,22.101,126.955,15.726C126.985,9.35,116.594,9.804,113.74,9.804ZM56.635,123.71C56.638,126.639,54.504,127.368,52.361,127.368C50.223,127.368,48.659,126.77,48.655,123.841L48.43,31.371C48.426,28.441,50.102,27.892,52.24,27.892C54.383,27.892,56.578,28.706,56.581,31.635L56.635,123.71ZM77.231,123.451C77.235,126.38,75.066,127.37,72.923,127.37C70.785,127.37,69.129,126.207,69.126,123.278L69.124,31.82C69.12,28.89,71.059,28.139,73.196,28.139C75.339,28.139,77.223,28.887,77.227,31.817L77.231,123.451ZM97.557,123.405C97.561,126.334,95.977,127.17,93.839,127.17C91.699,127.17,89.809,126.425,89.806,123.496L89.935,31.642C89.932,28.712,91.811,27.939,93.951,27.939C96.089,27.939,97.817,28.801,97.821,31.73L97.557,123.405ZM97.557,123.405"/>
</g>
  <g id="Thin-L" transform="matrix(1.0,0.0,0.0,1.0,784.5402653429041,1445.2772042410716)">  <path stroke-linejoin="miter" stroke-width="1px" stroke-dasharray="none" fill-opacity="1" stroke-opacity="1" fill="#000000" fill-rule="nonzero" stroke-linecap="butt" stroke-miterlimit="4" xmlns:bx="https://boxy-svg.com" bx:origin="0.544017 0.541266" stroke="none" d="M113.74,9.804L32.865,9.827C30.011,9.827,19.311,9.459,19.311,15.486C19.31,21.514,29.755,22.273,32.609,22.274L37.832,22.344L41.08,125.432C41.086,130.315,44.821,133.971,48.389,133.971L98.987,134.18C102.554,134.18,105.546,130.745,105.54,125.866L108.488,22.349L113.667,22.349C116.524,22.35,126.925,22.101,126.955,15.726C126.985,9.35,116.594,9.804,113.74,9.804ZM56.635,123.71C56.638,126.639,54.504,127.368,52.361,127.368C50.223,127.368,48.659,126.77,48.655,123.841L48.43,31.371C48.426,28.441,50.102,27.892,52.24,27.892C54.383,27.892,56.578,28.706,56.581,31.635L56.635,123.71ZM77.231,123.451C77.235,126.38,75.066,127.37,72.923,127.37C70.785,127.37,69.129,126.207,69.126,123.278L69.124,31.82C69.12,28.89,71.059,28.139,73.196,28.139C75.339,28.139,77.223,28.887,77.227,31.817L77.231,123.451ZM97.557,123.405C97.561,126.334,95.977,127.17,93.839,127.17C91.699,127.17,89.809,126.425,89.806,123.496L89.935,31.642C89.932,28.712,91.811,27.939,93.951,27.939C96.089,27.939,97.817,28.801,97.821,31.73L97.557,123.405ZM97.557,123.405"/>
</g>
  <g id="Ultralight-L" transform="matrix(1.0,0.0,0.0,1.0,487.83026534290417,1445.2772042410716)">  <path xmlns:bx="https://boxy-svg.com" bx:origin="0.544017 0.541266" fill-rule="nonzero" stroke-linecap="butt" stroke-opacity="1" stroke-width="1px" stroke-linejoin="miter" stroke="none" fill="#000000" fill-opacity="1" stroke-dasharray="none" stroke-miterlimit="4" d="M113.74,9.804L32.865,9.827C30.011,9.827,19.311,9.459,19.311,15.486C19.31,21.514,29.755,22.273,32.609,22.274L37.832,22.344L41.08,125.432C41.086,130.315,44.821,133.971,48.389,133.971L98.987,134.18C102.554,134.18,105.546,130.745,105.54,125.866L108.488,22.349L113.667,22.349C116.524,22.35,126.925,22.101,126.955,15.726C126.985,9.35,116.594,9.804,113.74,9.804ZM56.635,123.71C56.638,126.639,54.504,127.368,52.361,127.368C50.223,127.368,48.659,126.77,48.655,123.841L48.43,31.371C48.426,28.441,50.102,27.892,52.24,27.892C54.383,27.892,56.578,28.706,56.581,31.635L56.635,123.71ZM77.231,123.451C77.235,126.38,75.066,127.37,72.923,127.37C70.785,127.37,69.129,126.207,69.126,123.278L69.124,31.82C69.12,28.89,71.059,28.139,73.196,28.139C75.339,28.139,77.223,28.887,77.227,31.817L77.231,123.451ZM97.557,123.405C97.561,126.334,95.977,127.17,93.839,127.17C91.699,127.17,89.809,126.425,89.806,123.496L89.935,31.642C89.932,28.712,91.811,27.939,93.951,27.939C96.089,27.939,97.817,28.801,97.821,31.73L97.557,123.405ZM97.557,123.405"/>
</g>
  <g id="Black-M" transform="matrix(1.0,0.0,0.0,1.0,2877.9592754596156,1032.2484572908015)">  <path xmlns:bx="https://boxy-svg.com" bx:origin="0.544017 0.541266" fill-opacity="1" stroke-miterlimit="4" fill-rule="nonzero" fill="#000000" stroke-width="1px" stroke-dasharray="none" stroke-linecap="butt" stroke-opacity="1" stroke="none" stroke-linejoin="miter" d="M88.171,7.6L25.477,7.618C23.264,7.617,14.97,7.333,14.969,12.005C14.969,16.677,23.066,17.266,25.279,17.266L29.327,17.321L31.845,97.234C31.849,101.019,34.745,103.853,37.511,103.853L76.734,104.016C79.499,104.016,81.819,101.353,81.814,97.57L84.099,17.325L88.114,17.325C90.328,17.325,98.391,17.133,98.415,12.19C98.438,7.248,90.383,7.6,88.171,7.6ZM43.903,95.899C43.906,98.17,42.251,98.735,40.59,98.735C38.933,98.735,37.72,98.272,37.717,96.001L37.542,24.318C37.54,22.048,38.839,21.621,40.496,21.622C42.157,21.622,43.859,22.253,43.861,24.524L43.903,95.899ZM59.869,95.698C59.872,97.969,58.191,98.736,56.53,98.736C54.872,98.736,53.588,97.835,53.586,95.564L53.584,24.666C53.582,22.396,55.084,21.813,56.741,21.813C58.403,21.813,59.863,22.393,59.866,24.664L59.869,95.698ZM75.626,95.663C75.629,97.933,74.401,98.581,72.744,98.581C71.084,98.581,69.62,98.004,69.617,95.733L69.717,24.528C69.714,22.258,71.171,21.658,72.83,21.658C74.488,21.658,75.827,22.326,75.83,24.597L75.626,95.663ZM75.626,95.663"/>
</g>
  <g id="Heavy-M" transform="matrix(1.0,0.0,0.0,1.0,2581.2492754596155,1032.2484572908015)">  <path stroke-miterlimit="4" stroke="none" stroke-linecap="butt" stroke-width="1px" bx:origin="0.544017 0.541266" stroke-opacity="1" fill-rule="nonzero" fill-opacity="1" fill="#000000" xmlns:bx="https://boxy-svg.com" stroke-dasharray="none" stroke-linejoin="miter" d="M88.171,7.6L25.477,7.618C23.264,7.617,14.97,7.333,14.969,12.005C14.969,16.677,23.066,17.266,25.279,17.266L29.327,17.321L31.845,97.234C31.849,101.019,34.745,103.853,37.511,103.853L76.734,104.016C79.499,104.016,81.819,101.353,81.814,97.57L84.099,17.325L88.114,17.325C90.328,17.325,98.391,17.133,98.415,12.19C98.438,7.248,90.383,7.6,88.171,7.6ZM43.903,95.899C43.906,98.17,42.251,98.735,40.59,98.735C38.933,98.735,37.72,98.272,37.717,96.001L37.542,24.318C37.54,22.048,38.839,21.621,40.496,21.622C42.157,21.622,43.859,22.253,43.861,24.524L43.903,95.899ZM59.869,95.698C59.872,97.969,58.191,98.736,56.53,98.736C54.872,98.736,53.588,97.835,53.586,95.564L53.584,24.666C53.582,22.396,55.084,21.813,56.741,21.813C58.403,21.813,59.863,22.393,59.866,24.664L59.869,95.698ZM75.626,95.663C75.629,97.933,74.401,98.581,72.744,98.581C71.084,98.581,69.62,98.004,69.617,95.733L69.717,24.528C69.714,22.258,71.171,21.658,72.83,21.658C74.488,21.658,75.827,22.326,75.83,24.597L75.626,95.663ZM75.626,95.663"/>
</g>
  <g id="Bold-M" transform="matrix(1.0,0.0,0.0,1.0,2284.5392754596155,1032.2484572908015)">  <path fill="#000000" stroke-opacity="1" stroke-miterlimit="4" stroke-dasharray="none" bx:origin="0.544017 0.541266" stroke-width="1px" stroke-linecap="butt" fill-opacity="1" stroke="none" xmlns:bx="https://boxy-svg.com" fill-rule="nonzero" stroke-linejoin="miter" d="M88.171,7.6L25.477,7.618C23.264,7.617,14.97,7.333,14.969,12.005C14.969,16.677,23.066,17.266,25.279,17.266L29.327,17.321L31.845,97.234C31.849,101.019,34.745,103.853,37.511,103.853L76.734,104.016C79.499,104.016,81.819,101.353,81.814,97.57L84.099,17.325L88.114,17.325C90.328,17.325,98.391,17.133,98.415,12.19C98.438,7.248,90.383,7.6,88.171,7.6ZM43.903,95.899C43.906,98.17,42.251,98.735,40.59,98.735C38.933,98.735,37.72,98.272,37.717,96.001L37.542,24.318C37.54,22.048,38.839,21.621,40.496,21.622C42.157,21.622,43.859,22.253,43.861,24.524L43.903,95.899ZM59.869,95.698C59.872,97.969,58.191,98.736,56.53,98.736C54.872,98.736,53.588,97.835,53.586,95.564L53.584,24.666C53.582,22.396,55.084,21.813,56.741,21.813C58.403,21.813,59.863,22.393,59.866,24.664L59.869,95.698ZM75.626,95.663C75.629,97.933,74.401,98.581,72.744,98.581C71.084,98.581,69.62,98.004,69.617,95.733L69.717,24.528C69.714,22.258,71.171,21.658,72.83,21.658C74.488,21.658,75.827,22.326,75.83,24.597L75.626,95.663ZM75.626,95.663"/>
</g>
  <g id="Semibold-M" transform="matrix(1.0,0.0,0.0,1.0,1987.8292754596155,1032.2484572908015)">  <path stroke-dasharray="none" fill-opacity="1" fill="#000000" stroke-linecap="butt" stroke-miterlimit="4" xmlns:bx="https://boxy-svg.com" stroke-linejoin="miter" stroke-opacity="1" stroke="none" bx:origin="0.544017 0.541266" stroke-width="1px" fill-rule="nonzero" d="M88.171,7.6L25.477,7.618C23.264,7.617,14.97,7.333,14.969,12.005C14.969,16.677,23.066,17.266,25.279,17.266L29.327,17.321L31.845,97.234C31.849,101.019,34.745,103.853,37.511,103.853L76.734,104.016C79.499,104.016,81.819,101.353,81.814,97.57L84.099,17.325L88.114,17.325C90.328,17.325,98.391,17.133,98.415,12.19C98.438,7.248,90.383,7.6,88.171,7.6ZM43.903,95.899C43.906,98.17,42.251,98.735,40.59,98.735C38.933,98.735,37.72,98.272,37.717,96.001L37.542,24.318C37.54,22.048,38.839,21.621,40.496,21.622C42.157,21.622,43.859,22.253,43.861,24.524L43.903,95.899ZM59.869,95.698C59.872,97.969,58.191,98.736,56.53,98.736C54.872,98.736,53.588,97.835,53.586,95.564L53.584,24.666C53.582,22.396,55.084,21.813,56.741,21.813C58.403,21.813,59.863,22.393,59.866,24.664L59.869,95.698ZM75.626,95.663C75.629,97.933,74.401,98.581,72.744,98.581C71.084,98.581,69.62,98.004,69.617,95.733L69.717,24.528C69.714,22.258,71.171,21.658,72.83,21.658C74.488,21.658,75.827,22.326,75.83,24.597L75.626,95.663ZM75.626,95.663"/>
</g>
  <g id="Medium-M" transform="matrix(1.0,0.0,0.0,1.0,1691.1192754596154,1032.2484572908015)">  <path stroke-dasharray="none" stroke-miterlimit="4" fill="#000000" stroke="none" bx:origin="0.544017 0.541266" fill-rule="nonzero" stroke-linejoin="miter" stroke-width="1px" stroke-linecap="butt" stroke-opacity="1" fill-opacity="1" xmlns:bx="https://boxy-svg.com" d="M88.171,7.6L25.477,7.618C23.264,7.617,14.97,7.333,14.969,12.005C14.969,16.677,23.066,17.266,25.279,17.266L29.327,17.321L31.845,97.234C31.849,101.019,34.745,103.853,37.511,103.853L76.734,104.016C79.499,104.016,81.819,101.353,81.814,97.57L84.099,17.325L88.114,17.325C90.328,17.325,98.391,17.133,98.415,12.19C98.438,7.248,90.383,7.6,88.171,7.6ZM43.903,95.899C43.906,98.17,42.251,98.735,40.59,98.735C38.933,98.735,37.72,98.272,37.717,96.001L37.542,24.318C37.54,22.048,38.839,21.621,40.496,21.622C42.157,21.622,43.859,22.253,43.861,24.524L43.903,95.899ZM59.869,95.698C59.872,97.969,58.191,98.736,56.53,98.736C54.872,98.736,53.588,97.835,53.586,95.564L53.584,24.666C53.582,22.396,55.084,21.813,56.741,21.813C58.403,21.813,59.863,22.393,59.866,24.664L59.869,95.698ZM75.626,95.663C75.629,97.933,74.401,98.581,72.744,98.581C71.084,98.581,69.62,98.004,69.617,95.733L69.717,24.528C69.714,22.258,71.171,21.658,72.83,21.658C74.488,21.658,75.827,22.326,75.83,24.597L75.626,95.663ZM75.626,95.663"/>
</g>
  <g id="Regular-M" transform="matrix(1.0,0.0,0.0,1.0,1394.4092754596154,1032.2484572908015)">  <path bx:origin="0.544017 0.541266" xmlns:bx="https://boxy-svg.com" stroke-dasharray="none" stroke-linejoin="miter" stroke-miterlimit="4" fill-rule="nonzero" stroke-opacity="1" stroke-linecap="butt" fill-opacity="1" stroke-width="1px" stroke="none" fill="#000000" d="M88.171,7.6L25.477,7.618C23.264,7.617,14.97,7.333,14.969,12.005C14.969,16.677,23.066,17.266,25.279,17.266L29.327,17.321L31.845,97.234C31.849,101.019,34.745,103.853,37.511,103.853L76.734,104.016C79.499,104.016,81.819,101.353,81.814,97.57L84.099,17.325L88.114,17.325C90.328,17.325,98.391,17.133,98.415,12.19C98.438,7.248,90.383,7.6,88.171,7.6ZM43.903,95.899C43.906,98.17,42.251,98.735,40.59,98.735C38.933,98.735,37.72,98.272,37.717,96.001L37.542,24.318C37.54,22.048,38.839,21.621,40.496,21.622C42.157,21.622,43.859,22.253,43.861,24.524L43.903,95.899ZM59.869,95.698C59.872,97.969,58.191,98.736,56.53,98.736C54.872,98.736,53.588,97.835,53.586,95.564L53.584,24.666C53.582,22.396,55.084,21.813,56.741,21.813C58.403,21.813,59.863,22.393,59.866,24.664L59.869,95.698ZM75.626,95.663C75.629,97.933,74.401,98.581,72.744,98.581C71.084,98.581,69.62,98.004,69.617,95.733L69.717,24.528C69.714,22.258,71.171,21.658,72.83,21.658C74.488,21.658,75.827,22.326,75.83,24.597L75.626,95.663ZM75.626,95.663"/>
</g>
  <g id="Light-M" transform="matrix(1.0,0.0,0.0,1.0,1097.6992754596156,1032.2484572908015)">  <path stroke-miterlimit="4" stroke-opacity="1" fill-rule="nonzero" stroke="none" stroke-width="1px" fill-opacity="1" bx:origin="0.544017 0.541266" stroke-dasharray="none" fill="#000000" stroke-linecap="butt" xmlns:bx="https://boxy-svg.com" stroke-linejoin="miter" d="M88.171,7.6L25.477,7.618C23.264,7.617,14.97,7.333,14.969,12.005C14.969,16.677,23.066,17.266,25.279,17.266L29.327,17.321L31.845,97.234C31.849,101.019,34.745,103.853,37.511,103.853L76.734,104.016C79.499,104.016,81.819,101.353,81.814,97.57L84.099,17.325L88.114,17.325C90.328,17.325,98.391,17.133,98.415,12.19C98.438,7.248,90.383,7.6,88.171,7.6ZM43.903,95.899C43.906,98.17,42.251,98.735,40.59,98.735C38.933,98.735,37.72,98.272,37.717,96.001L37.542,24.318C37.54,22.048,38.839,21.621,40.496,21.622C42.157,21.622,43.859,22.253,43.861,24.524L43.903,95.899ZM59.869,95.698C59.872,97.969,58.191,98.736,56.53,98.736C54.872,98.736,53.588,97.835,53.586,95.564L53.584,24.666C53.582,22.396,55.084,21.813,56.741,21.813C58.403,21.813,59.863,22.393,59.866,24.664L59.869,95.698ZM75.626,95.663C75.629,97.933,74.401,98.581,72.744,98.581C71.084,98.581,69.62,98.004,69.617,95.733L69.717,24.528C69.714,22.258,71.171,21.658,72.83,21.658C74.488,21.658,75.827,22.326,75.83,24.597L75.626,95.663ZM75.626,95.663"/>
</g>
  <g id="Thin-M" transform="matrix(1.0,0.0,0.0,1.0,800.9892754596157,1032.2484572908015)">  <path stroke-linejoin="miter" stroke-width="1px" stroke-dasharray="none" fill-opacity="1" stroke-opacity="1" fill="#000000" fill-rule="nonzero" stroke-linecap="butt" stroke-miterlimit="4" xmlns:bx="https://boxy-svg.com" bx:origin="0.544017 0.541266" stroke="none" d="M88.171,7.6L25.477,7.618C23.264,7.617,14.97,7.333,14.969,12.005C14.969,16.677,23.066,17.266,25.279,17.266L29.327,17.321L31.845,97.234C31.849,101.019,34.745,103.853,37.511,103.853L76.734,104.016C79.499,104.016,81.819,101.353,81.814,97.57L84.099,17.325L88.114,17.325C90.328,17.325,98.391,17.133,98.415,12.19C98.438,7.248,90.383,7.6,88.171,7.6ZM43.903,95.899C43.906,98.17,42.251,98.735,40.59,98.735C38.933,98.735,37.72,98.272,37.717,96.001L37.542,24.318C37.54,22.048,38.839,21.621,40.496,21.622C42.157,21.622,43.859,22.253,43.861,24.524L43.903,95.899ZM59.869,95.698C59.872,97.969,58.191,98.736,56.53,98.736C54.872,98.736,53.588,97.835,53.586,95.564L53.584,24.666C53.582,22.396,55.084,21.813,56.741,21.813C58.403,21.813,59.863,22.393,59.866,24.664L59.869,95.698ZM75.626,95.663C75.629,97.933,74.401,98.581,72.744,98.581C71.084,98.581,69.62,98.004,69.617,95.733L69.717,24.528C69.714,22.258,71.171,21.658,72.83,21.658C74.488,21.658,75.827,22.326,75.83,24.597L75.626,95.663ZM75.626,95.663"/>
</g>
  <g id="Ultralight-M" transform="matrix(1.0,0.0,0.0,1.0,504.27927545961563,1032.2484572908015)">  <path xmlns:bx="https://boxy-svg.com" bx:origin="0.544017 0.541266" fill-rule="nonzero" stroke-linecap="butt" stroke-opacity="1" stroke-width="1px" stroke-linejoin="miter" stroke="none" fill="#000000" fill-opacity="1" stroke-dasharray="none" stroke-miterlimit="4" d="M88.171,7.6L25.477,7.618C23.264,7.617,14.97,7.333,14.969,12.005C14.969,16.677,23.066,17.266,25.279,17.266L29.327,17.321L31.845,97.234C31.849,101.019,34.745,103.853,37.511,103.853L76.734,104.016C79.499,104.016,81.819,101.353,81.814,97.57L84.099,17.325L88.114,17.325C90.328,17.325,98.391,17.133,98.415,12.19C98.438,7.248,90.383,7.6,88.171,7.6ZM43.903,95.899C43.906,98.17,42.251,98.735,40.59,98.735C38.933,98.735,37.72,98.272,37.717,96.001L37.542,24.318C37.54,22.048,38.839,21.621,40.496,21.622C42.157,21.622,43.859,22.253,43.861,24.524L43.903,95.899ZM59.869,95.698C59.872,97.969,58.191,98.736,56.53,98.736C54.872,98.736,53.588,97.835,53.586,95.564L53.584,24.666C53.582,22.396,55.084,21.813,56.741,21.813C58.403,21.813,59.863,22.393,59.866,24.664L59.869,95.698ZM75.626,95.663C75.629,97.933,74.401,98.581,72.744,98.581C71.084,98.581,69.62,98.004,69.617,95.733L69.717,24.528C69.714,22.258,71.171,21.658,72.83,21.658C74.488,21.658,75.827,22.326,75.83,24.597L75.626,95.663ZM75.626,95.663"/>
</g>
  <g id="Black-S" transform="matrix(1.0,0.0,0.0,1.0,2890.267672684879,614.9476362969788)">  <path xmlns:bx="https://boxy-svg.com" bx:origin="0.544017 0.541266" fill-opacity="1" stroke-miterlimit="4" fill-rule="nonzero" fill="#000000" stroke-width="1px" stroke-dasharray="none" stroke-linecap="butt" stroke-opacity="1" stroke="none" stroke-linejoin="miter" d="M69.038,5.951L19.948,5.965C18.216,5.964,11.721,5.741,11.721,9.4C11.721,13.058,18.061,13.519,19.793,13.52L22.963,13.562L24.935,76.134C24.938,79.098,27.206,81.317,29.371,81.317L60.083,81.444C62.248,81.444,64.064,79.359,64.06,76.397L65.849,13.565L68.993,13.566C70.727,13.566,77.041,13.415,77.059,9.545C77.077,5.675,70.77,5.951,69.038,5.951ZM34.376,75.089C34.378,76.867,33.083,77.31,31.782,77.31C30.484,77.31,29.535,76.947,29.533,75.169L29.396,19.041C29.394,17.263,30.411,16.93,31.708,16.93C33.009,16.93,34.341,17.424,34.344,19.202L34.376,75.089ZM46.878,74.932C46.88,76.71,45.564,77.311,44.263,77.311C42.965,77.31,41.96,76.605,41.958,74.827L41.957,19.314C41.954,17.536,43.131,17.08,44.428,17.08C45.729,17.08,46.873,17.534,46.875,19.312L46.878,74.932ZM59.215,74.904C59.217,76.682,58.256,77.189,56.958,77.189C55.659,77.189,54.512,76.737,54.51,74.959L54.589,19.206C54.586,17.428,55.727,16.958,57.026,16.958C58.324,16.958,59.373,17.481,59.375,19.259L59.215,74.904ZM59.215,74.904"/>
</g>
  <g id="Heavy-S" transform="matrix(1.0,0.0,0.0,1.0,2593.557672684879,614.9476362969788)">  <path stroke-miterlimit="4" stroke="none" stroke-linecap="butt" stroke-width="1px" bx:origin="0.544017 0.541266" stroke-opacity="1" fill-rule="nonzero" fill-opacity="1" fill="#000000" xmlns:bx="https://boxy-svg.com" stroke-dasharray="none" stroke-linejoin="miter" d="M69.038,5.951L19.948,5.965C18.216,5.964,11.721,5.741,11.721,9.4C11.721,13.058,18.061,13.519,19.793,13.52L22.963,13.562L24.935,76.134C24.938,79.098,27.206,81.317,29.371,81.317L60.083,81.444C62.248,81.444,64.064,79.359,64.06,76.397L65.849,13.565L68.993,13.566C70.727,13.566,77.041,13.415,77.059,9.545C77.077,5.675,70.77,5.951,69.038,5.951ZM34.376,75.089C34.378,76.867,33.083,77.31,31.782,77.31C30.484,77.31,29.535,76.947,29.533,75.169L29.396,19.041C29.394,17.263,30.411,16.93,31.708,16.93C33.009,16.93,34.341,17.424,34.344,19.202L34.376,75.089ZM46.878,74.932C46.88,76.71,45.564,77.311,44.263,77.311C42.965,77.31,41.96,76.605,41.958,74.827L41.957,19.314C41.954,17.536,43.131,17.08,44.428,17.08C45.729,17.08,46.873,17.534,46.875,19.312L46.878,74.932ZM59.215,74.904C59.217,76.682,58.256,77.189,56.958,77.189C55.659,77.189,54.512,76.737,54.51,74.959L54.589,19.206C54.586,17.428,55.727,16.958,57.026,16.958C58.324,16.958,59.373,17.481,59.375,19.259L59.215,74.904ZM59.215,74.904"/>
</g>
  <g id="Bold-S" transform="matrix(1.0,0.0,0.0,1.0,2296.847672684879,614.9476362969788)">  <path fill="#000000" stroke-opacity="1" stroke-miterlimit="4" stroke-dasharray="none" bx:origin="0.544017 0.541266" stroke-width="1px" stroke-linecap="butt" fill-opacity="1" stroke="none" xmlns:bx="https://boxy-svg.com" fill-rule="nonzero" stroke-linejoin="miter" d="M69.038,5.951L19.948,5.965C18.216,5.964,11.721,5.741,11.721,9.4C11.721,13.058,18.061,13.519,19.793,13.52L22.963,13.562L24.935,76.134C24.938,79.098,27.206,81.317,29.371,81.317L60.083,81.444C62.248,81.444,64.064,79.359,64.06,76.397L65.849,13.565L68.993,13.566C70.727,13.566,77.041,13.415,77.059,9.545C77.077,5.675,70.77,5.951,69.038,5.951ZM34.376,75.089C34.378,76.867,33.083,77.31,31.782,77.31C30.484,77.31,29.535,76.947,29.533,75.169L29.396,19.041C29.394,17.263,30.411,16.93,31.708,16.93C33.009,16.93,34.341,17.424,34.344,19.202L34.376,75.089ZM46.878,74.932C46.88,76.71,45.564,77.311,44.263,77.311C42.965,77.31,41.96,76.605,41.958,74.827L41.957,19.314C41.954,17.536,43.131,17.08,44.428,17.08C45.729,17.08,46.873,17.534,46.875,19.312L46.878,74.932ZM59.215,74.904C59.217,76.682,58.256,77.189,56.958,77.189C55.659,77.189,54.512,76.737,54.51,74.959L54.589,19.206C54.586,17.428,55.727,16.958,57.026,16.958C58.324,16.958,59.373,17.481,59.375,19.259L59.215,74.904ZM59.215,74.904"/>
</g>
  <g id="Semibold-S" transform="matrix(1.0,0.0,0.0,1.0,2000.137672684879,614.9476362969788)">  <path stroke-dasharray="none" fill-opacity="1" fill="#000000" stroke-linecap="butt" stroke-miterlimit="4" xmlns:bx="https://boxy-svg.com" stroke-linejoin="miter" stroke-opacity="1" stroke="none" bx:origin="0.544017 0.541266" stroke-width="1px" fill-rule="nonzero" d="M69.038,5.951L19.948,5.965C18.216,5.964,11.721,5.741,11.721,9.4C11.721,13.058,18.061,13.519,19.793,13.52L22.963,13.562L24.935,76.134C24.938,79.098,27.206,81.317,29.371,81.317L60.083,81.444C62.248,81.444,64.064,79.359,64.06,76.397L65.849,13.565L68.993,13.566C70.727,13.566,77.041,13.415,77.059,9.545C77.077,5.675,70.77,5.951,69.038,5.951ZM34.376,75.089C34.378,76.867,33.083,77.31,31.782,77.31C30.484,77.31,29.535,76.947,29.533,75.169L29.396,19.041C29.394,17.263,30.411,16.93,31.708,16.93C33.009,16.93,34.341,17.424,34.344,19.202L34.376,75.089ZM46.878,74.932C46.88,76.71,45.564,77.311,44.263,77.311C42.965,77.31,41.96,76.605,41.958,74.827L41.957,19.314C41.954,17.536,43.131,17.08,44.428,17.08C45.729,17.08,46.873,17.534,46.875,19.312L46.878,74.932ZM59.215,74.904C59.217,76.682,58.256,77.189,56.958,77.189C55.659,77.189,54.512,76.737,54.51,74.959L54.589,19.206C54.586,17.428,55.727,16.958,57.026,16.958C58.324,16.958,59.373,17.481,59.375,19.259L59.215,74.904ZM59.215,74.904"/>
</g>
  <g id="Medium-S" transform="matrix(1.0,0.0,0.0,1.0,1703.4276726848789,614.9476362969788)">  <path stroke-dasharray="none" stroke-miterlimit="4" fill="#000000" stroke="none" bx:origin="0.544017 0.541266" fill-rule="nonzero" stroke-linejoin="miter" stroke-width="1px" stroke-linecap="butt" stroke-opacity="1" fill-opacity="1" xmlns:bx="https://boxy-svg.com" d="M69.038,5.951L19.948,5.965C18.216,5.964,11.721,5.741,11.721,9.4C11.721,13.058,18.061,13.519,19.793,13.52L22.963,13.562L24.935,76.134C24.938,79.098,27.206,81.317,29.371,81.317L60.083,81.444C62.248,81.444,64.064,79.359,64.06,76.397L65.849,13.565L68.993,13.566C70.727,13.566,77.041,13.415,77.059,9.545C77.077,5.675,70.77,5.951,69.038,5.951ZM34.376,75.089C34.378,76.867,33.083,77.31,31.782,77.31C30.484,77.31,29.535,76.947,29.533,75.169L29.396,19.041C29.394,17.263,30.411,16.93,31.708,16.93C33.009,16.93,34.341,17.424,34.344,19.202L34.376,75.089ZM46.878,74.932C46.88,76.71,45.564,77.311,44.263,77.311C42.965,77.31,41.96,76.605,41.958,74.827L41.957,19.314C41.954,17.536,43.131,17.08,44.428,17.08C45.729,17.08,46.873,17.534,46.875,19.312L46.878,74.932ZM59.215,74.904C59.217,76.682,58.256,77.189,56.958,77.189C55.659,77.189,54.512,76.737,54.51,74.959L54.589,19.206C54.586,17.428,55.727,16.958,57.026,16.958C58.324,16.958,59.373,17.481,59.375,19.259L59.215,74.904ZM59.215,74.904"/>
</g>
  <g id="Regular-S" transform="matrix(1.0,0.0,0.0,1.0,1406.7176726848788,614.9476362969788)">  <path bx:origin="0.544017 0.541266" xmlns:bx="https://boxy-svg.com" stroke-dasharray="none" stroke-linejoin="miter" stroke-miterlimit="4" fill-rule="nonzero" stroke-opacity="1" stroke-linecap="butt" fill-opacity="1" stroke-width="1px" stroke="none" fill="#000000" d="M69.038,5.951L19.948,5.965C18.216,5.964,11.721,5.741,11.721,9.4C11.721,13.058,18.061,13.519,19.793,13.52L22.963,13.562L24.935,76.134C24.938,79.098,27.206,81.317,29.371,81.317L60.083,81.444C62.248,81.444,64.064,79.359,64.06,76.397L65.849,13.565L68.993,13.566C70.727,13.566,77.041,13.415,77.059,9.545C77.077,5.675,70.77,5.951,69.038,5.951ZM34.376,75.089C34.378,76.867,33.083,77.31,31.782,77.31C30.484,77.31,29.535,76.947,29.533,75.169L29.396,19.041C29.394,17.263,30.411,16.93,31.708,16.93C33.009,16.93,34.341,17.424,34.344,19.202L34.376,75.089ZM46.878,74.932C46.88,76.71,45.564,77.311,44.263,77.311C42.965,77.31,41.96,76.605,41.958,74.827L41.957,19.314C41.954,17.536,43.131,17.08,44.428,17.08C45.729,17.08,46.873,17.534,46.875,19.312L46.878,74.932ZM59.215,74.904C59.217,76.682,58.256,77.189,56.958,77.189C55.659,77.189,54.512,76.737,54.51,74.959L54.589,19.206C54.586,17.428,55.727,16.958,57.026,16.958C58.324,16.958,59.373,17.481,59.375,19.259L59.215,74.904ZM59.215,74.904"/>
</g>
  <g id="Light-S" transform="matrix(1.0,0.0,0.0,1.0,1110.007672684879,614.9476362969788)">  <path stroke-miterlimit="4" stroke-opacity="1" fill-rule="nonzero" stroke="none" stroke-width="1px" fill-opacity="1" bx:origin="0.544017 0.541266" stroke-dasharray="none" fill="#000000" stroke-linecap="butt" xmlns:bx="https://boxy-svg.com" stroke-linejoin="miter" d="M69.038,5.951L19.948,5.965C18.216,5.964,11.721,5.741,11.721,9.4C11.721,13.058,18.061,13.519,19.793,13.52L22.963,13.562L24.935,76.134C24.938,79.098,27.206,81.317,29.371,81.317L60.083,81.444C62.248,81.444,64.064,79.359,64.06,76.397L65.849,13.565L68.993,13.566C70.727,13.566,77.041,13.415,77.059,9.545C77.077,5.675,70.77,5.951,69.038,5.951ZM34.376,75.089C34.378,76.867,33.083,77.31,31.782,77.31C30.484,77.31,29.535,76.947,29.533,75.169L29.396,19.041C29.394,17.263,30.411,16.93,31.708,16.93C33.009,16.93,34.341,17.424,34.344,19.202L34.376,75.089ZM46.878,74.932C46.88,76.71,45.564,77.311,44.263,77.311C42.965,77.31,41.96,76.605,41.958,74.827L41.957,19.314C41.954,17.536,43.131,17.08,44.428,17.08C45.729,17.08,46.873,17.534,46.875,19.312L46.878,74.932ZM59.215,74.904C59.217,76.682,58.256,77.189,56.958,77.189C55.659,77.189,54.512,76.737,54.51,74.959L54.589,19.206C54.586,17.428,55.727,16.958,57.026,16.958C58.324,16.958,59.373,17.481,59.375,19.259L59.215,74.904ZM59.215,74.904"/>
</g>
  <g id="Thin-S" transform="matrix(1.0,0.0,0.0,1.0,813.2976726848791,614.9476362969788)">  <path stroke-linejoin="miter" stroke-width="1px" stroke-dasharray="none" fill-opacity="1" stroke-opacity="1" fill="#000000" fill-rule="nonzero" stroke-linecap="butt" stroke-miterlimit="4" xmlns:bx="https://boxy-svg.com" bx:origin="0.544017 0.541266" stroke="none" d="M69.038,5.951L19.948,5.965C18.216,5.964,11.721,5.741,11.721,9.4C11.721,13.058,18.061,13.519,19.793,13.52L22.963,13.562L24.935,76.134C24.938,79.098,27.206,81.317,29.371,81.317L60.083,81.444C62.248,81.444,64.064,79.359,64.06,76.397L65.849,13.565L68.993,13.566C70.727,13.566,77.041,13.415,77.059,9.545C77.077,5.675,70.77,5.951,69.038,5.951ZM34.376,75.089C34.378,76.867,33.083,77.31,31.782,77.31C30.484,77.31,29.535,76.947,29.533,75.169L29.396,19.041C29.394,17.263,30.411,16.93,31.708,16.93C33.009,16.93,34.341,17.424,34.344,19.202L34.376,75.089ZM46.878,74.932C46.88,76.71,45.564,77.311,44.263,77.311C42.965,77.31,41.96,76.605,41.958,74.827L41.957,19.314C41.954,17.536,43.131,17.08,44.428,17.08C45.729,17.08,46.873,17.534,46.875,19.312L46.878,74.932ZM59.215,74.904C59.217,76.682,58.256,77.189,56.958,77.189C55.659,77.189,54.512,76.737,54.51,74.959L54.589,19.206C54.586,17.428,55.727,16.958,57.026,16.958C58.324,16.958,59.373,17.481,59.375,19.259L59.215,74.904ZM59.215,74.904"/>
</g>
  <g id="Ultralight-S" transform="matrix(1.0,0.0,0.0,1.0,516.5876726848791,614.9476362969788)">  <path xmlns:bx="https://boxy-svg.com" bx:origin="0.544017 0.541266" fill-rule="nonzero" stroke-linecap="butt" stroke-opacity="1" stroke-width="1px" stroke-linejoin="miter" stroke="none" fill="#000000" fill-opacity="1" stroke-dasharray="none" stroke-miterlimit="4" d="M69.038,5.951L19.948,5.965C18.216,5.964,11.721,5.741,11.721,9.4C11.721,13.058,18.061,13.519,19.793,13.52L22.963,13.562L24.935,76.134C24.938,79.098,27.206,81.317,29.371,81.317L60.083,81.444C62.248,81.444,64.064,79.359,64.06,76.397L65.849,13.565L68.993,13.566C70.727,13.566,77.041,13.415,77.059,9.545C77.077,5.675,70.77,5.951,69.038,5.951ZM34.376,75.089C34.378,76.867,33.083,77.31,31.782,77.31C30.484,77.31,29.535,76.947,29.533,75.169L29.396,19.041C29.394,17.263,30.411,16.93,31.708,16.93C33.009,16.93,34.341,17.424,34.344,19.202L34.376,75.089ZM46.878,74.932C46.88,76.71,45.564,77.311,44.263,77.311C42.965,77.31,41.96,76.605,41.958,74.827L41.957,19.314C41.954,17.536,43.131,17.08,44.428,17.08C45.729,17.08,46.873,17.534,46.875,19.312L46.878,74.932ZM59.215,74.904C59.217,76.682,58.256,77.189,56.958,77.189C55.659,77.189,54.512,76.737,54.51,74.959L54.589,19.206C54.586,17.428,55.727,16.958,57.026,16.958C58.324,16.958,59.373,17.481,59.375,19.259L59.215,74.904ZM59.215,74.904"/>
</g>
 </g>
</svg>
