<?xml version="1.0" encoding="utf-8"?>
<svg viewBox="0 0 41.336 41.336" width="41.336" height="41.336" fill="#000000" xmlns="http://www.w3.org/2000/svg">
  <g style="" transform="matrix(0.877056, 0.001137, 0, 1.158058, 2.439532, -6.557106)">
    <path d="M 36.335 5.668 L 5.001 5.668 C 3.897 5.668 3.001 6.564 3.001 7.668 C 3.001 8.772 3.897 9.668 5.001 9.668 L 7.002 9.668 L 7.67 38.856 C 7.67 40.237 9.651 41.256 11.032 41.256 L 30.604 41.314 C 31.985 41.314 33.692 40.093 33.692 38.712 L 34.334 9.668 L 36.335 9.668 C 37.439 9.668 38.335 8.772 38.335 7.668 C 38.335 6.564 37.438 5.668 36.335 5.668 Z M 14.168 35.67 C 14.168 36.498 13.496 37.17 12.668 37.17 C 11.84 37.17 11.168 36.498 11.168 35.67 L 11.168 14.67 C 11.168 13.842 11.84 13.17 12.668 13.17 C 13.496 13.17 14.168 13.842 14.168 14.67 L 14.168 35.67 Z M 22.168 35.67 C 22.168 36.498 21.496 37.17 20.668 37.17 C 19.84 37.17 19.168 36.498 19.168 35.67 L 19.168 14.67 C 19.168 13.842 19.84 13.17 20.668 13.17 C 21.496 13.17 22.168 13.842 22.168 14.67 L 22.168 35.67 Z M 30.168 35.67 C 30.168 36.498 29.496 37.17 28.668 37.17 C 27.84 37.17 27.168 36.498 27.168 35.67 L 27.168 14.67 C 27.168 13.842 27.84 13.17 28.668 13.17 C 29.496 13.17 30.168 13.842 30.168 14.67 L 30.168 35.67 Z"/>
  </g>
</svg>